<?xml version="1.0" encoding="utf-8"?>
<!-- Generator: Adobe Illustrator 21.0.2, SVG Export Plug-In . SVG Version: 6.00 Build 0)  -->
<svg version="1.1" id="Слой_1" xmlns="http://www.w3.org/2000/svg" xmlns:xlink="http://www.w3.org/1999/xlink" x="0px" y="0px"
	 viewBox="0 0 70 70" style="enable-background:new 0 0 70 70;" xml:space="preserve">
<style type="text/css">
	.st0{fill-rule:evenodd;clip-rule:evenodd;fill:url(#SVGID_1_);}
	.st1{fill-rule:evenodd;clip-rule:evenodd;fill:#201600;}
	.st2{fill-rule:evenodd;clip-rule:evenodd;fill:url(#SVGID_2_);}
	.st3{fill-rule:evenodd;clip-rule:evenodd;fill:url(#SVGID_3_);}
	.st4{fill-rule:evenodd;clip-rule:evenodd;fill:#FFFFFF;}
	.st5{fill-rule:evenodd;clip-rule:evenodd;fill:url(#SVGID_4_);}
	.st6{fill-rule:evenodd;clip-rule:evenodd;fill:url(#SVGID_5_);}
	.st7{fill-rule:evenodd;clip-rule:evenodd;fill:#505258;}
	.st8{fill-rule:evenodd;clip-rule:evenodd;fill:url(#SVGID_6_);}
	.st9{fill-rule:evenodd;clip-rule:evenodd;fill:url(#SVGID_7_);}
</style>
<linearGradient id="SVGID_1_" gradientUnits="userSpaceOnUse" x1="9.2091" y1="34.5858" x2="62.4686" y2="34.5858">
	<stop  offset="0" style="stop-color:#DD8144"/>
	<stop  offset="0.989" style="stop-color:#AA5E44"/>
</linearGradient>
<path class="st0" d="M30.1,15.4c1.1,0,2.3,0.1,3.7,0.3c2.3-4.4,9-4.1,11.2,0.1c2,3.7-0.3,8.6-4.6,9.1c0.2,0.2,0.1,0.4,0.2,0.6
	c6.2,0.7,11.8,2.8,15.4,6.7c2.7,2.9,3.3,5.1,4.5,8.2c0.9,2.3,2.8,4.2,1.5,6.7c-1,0.4-1.3,0.4-1.8,0.3c0.5,5.4-2,10.9-7.7,10.3
	c-1.9-0.2-3.3-1.3-3.6-3.3c-1.6,0.7-3.3,0.6-5.1,1.1c-2.4,4.2-11.4,6.1-13.3,0.2c-2,0.6-4,0.1-5.1-1.5c-2-2.9-0.1-7.1,3.6-8.2
	c-0.1-0.2-0.2-0.4-0.2-0.7C15.7,50,4.2,37.4,11.4,26c1.9-3.1,4.9-5,8.2-7.2c-1.8-2.8-0.8-7.4,2.5-8.5C25.9,8.9,29.7,11.5,30.1,15.4
	L30.1,15.4z"/>
<path class="st1" d="M13.5,38.6l0.7-0.3l0.9,0.2l1,0.8l2.8-0.4l3.3-2.8l0.1-5.1c0,0-1-2.4-1.1-2.5c-0.2-0.1-3.2-0.8-3.2-0.8
	s-3,0.1-3.1,0c-0.2,0-2.9,1.3-2.9,1.3l-1.1,1.4c0,0-0.5,2.2-0.5,2.5c0,0.2,0,2.3,0,2.5c0.1,0.2,1.3,2.3,1.3,2.3L13.5,38.6L13.5,38.6
	z"/>
<linearGradient id="SVGID_2_" gradientUnits="userSpaceOnUse" x1="9.8636" y1="29.7026" x2="43.6339" y2="29.7026">
	<stop  offset="0" style="stop-color:#EDB971"/>
	<stop  offset="1" style="stop-color:#D27B45"/>
</linearGradient>
<path class="st2" d="M37.2,21.4c4.4,0.6,4.2-6.1,0.3-5.4C35,16.5,34.2,21,37.2,21.4L37.2,21.4z M33.2,18.4c0.4-1.1,1.3-2.4,2.7-3.2
	c2.2-1.3,5.2-1.5,7.1,1.7c2.2,3.9-1.5,8.4-5.7,6.1c-0.1,0.6,0.7,1.6,1.7,1.8c1.6,6.4-1.7,12.8-5.5,16c0.5-2.1,0.9-4.1,0.7-6.6
	c2.1-1.5-2.6-1.9-2.4,0.1c0.4,0.3,0.9-0.3,1.1-0.2c2.6,10.1-8.6,13.3-15.8,9.7c-0.7-0.8-1.9-3-1.9-5.1c4.1,0.8,7.1-2.9,6.4-6.3
	c-1.2-6.1-10.8-5.3-10.7,1.5c0,2.2,1.5,3.9,3.4,4.5c0.4,1.4,0.4,3.2,1.1,4.3c-3-1.1-5.1-4.9-5.4-8.8c-0.5-7.6,5.2-12.1,11.5-14.7
	c3.3-1.4,6.9-2.2,11.3-1.7C32.6,17.6,33.1,17.9,33.2,18.4L33.2,18.4z"/>
<linearGradient id="SVGID_3_" gradientUnits="userSpaceOnUse" x1="19.6438" y1="14.553" x2="29.007" y2="14.553">
	<stop  offset="0" style="stop-color:#EDB971"/>
	<stop  offset="1" style="stop-color:#D27B45"/>
</linearGradient>
<path class="st3" d="M29,15.6c-3.1,0.5-5.8,1.5-8.3,2.5c-1.8-1.4-1.1-5.1,0.4-6.3C24,9.7,29.2,11.5,29,15.6L29,15.6z"/>
<path class="st4" d="M37.8,17.3c2-0.3,2.7,3.8-0.2,3.2C36,20.1,36.3,17.5,37.8,17.3L37.8,17.3z"/>
<linearGradient id="SVGID_4_" gradientUnits="userSpaceOnUse" x1="29.8984" y1="42.2863" x2="61.0698" y2="42.2863">
	<stop  offset="0" style="stop-color:#EDB971"/>
	<stop  offset="1" style="stop-color:#D27B45"/>
</linearGradient>
<path class="st5" d="M40.6,27.2c10.9,0.7,16.2,7.3,18.8,16.1c1.1,0.3,1.9,1.8,1.5,2.8c-1.1,0.5-1.9-0.5-2-0.7
	c0.6,4.5-0.5,10.3-5.6,10.2c-1.7,0-2.1-0.5-2.5-1.2c-0.2-1.6,0.6-2.5,1-5.2c0-0.4-0.5-0.6-0.7-0.7c0,0.5-0.7,3.4-1.7,4.4
	c-1.5,0.6-3.3,1-5,1.1c0.6-1.2,0.9-2.5,0.9-4.6c-0.3-0.2-0.5,0-0.8,0.2c-0.2,4.6-4.9,8.2-9.3,7.6c-1.6-0.2-4-1.1-3.8-3.1
	c0.8-2,4-2.9,3.7-5.7c-0.5,0.6-0.7,1.2-1.2,1.6c-1.9-1.2-3.2-3.1-4.2-5.3C36.2,41.7,40.6,36.3,40.6,27.2L40.6,27.2z"/>
<path class="st1" d="M19.8,36.6c-4.3,3.2-10.3-1.5-7.3-5.9C15.8,25.9,24,32,19.8,36.6L19.8,36.6z"/>
<linearGradient id="SVGID_5_" gradientUnits="userSpaceOnUse" x1="25.7994" y1="50.4189" x2="32.9102" y2="50.4189">
	<stop  offset="0" style="stop-color:#EDB971"/>
	<stop  offset="1" style="stop-color:#D27B45"/>
</linearGradient>
<path class="st6" d="M32.9,51c-0.9,1.4-4.5,4.9-6.5,2c-2-2.9,1.5-6.3,3.1-6.3C30.5,48.2,31.7,49.7,32.9,51L32.9,51z"/>
<path class="st1" d="M28.7,23.1c-0.9-0.9-3.3-1.6-5.3-0.7c0-1.1-0.1-2.6,0.9-3c1-0.4,1.8,0.3,1.8,1.6c0.1-0.6,0.4-1.7,1.2-2.4
	c0.8-0.7,2.1-0.8,2.5,0.3C30.2,19.9,29.5,22,28.7,23.1L28.7,23.1z"/>
<path class="st4" d="M28,18.6c1.7-0.9,2,1.1,1.4,2.2C29.5,19.5,29.4,18.5,28,18.6L28,18.6z"/>
<path class="st7" d="M26.9,19.4c-0.3,0.4-0.7,1.4-0.6,2.3c0.4-0.2,2.2,0.7,2,0.8c-0.3-0.7-1.1-1-1.3-1.5
	C26.8,20.5,26.9,20.1,26.9,19.4L26.9,19.4z"/>
<path class="st7" d="M23.9,20.1c-0.3,0.3-0.3,1.3-0.2,2c0.3-0.1,1.5-0.4,1.4-0.3c-0.4-0.2-0.8,0-1-0.5
	C23.9,20.9,23.8,20.6,23.9,20.1L23.9,20.1z"/>
<path class="st4" d="M28.4,19.2c0.3,0,0.5,0.3,0.5,0.6c0,0.3-0.2,0.6-0.5,0.6c-0.3,0-0.5-0.3-0.5-0.6C27.9,19.4,28.1,19.2,28.4,19.2
	L28.4,19.2z"/>
<path class="st4" d="M25,19.9c0.2,0,0.4,0.2,0.4,0.4c0,0.2-0.2,0.4-0.4,0.4c-0.2,0-0.4-0.2-0.4-0.4C24.6,20,24.8,19.9,25,19.9
	L25,19.9z"/>
<path class="st4" d="M45,33.3c0.8,0,1.4,0.6,1.4,1.4c0,0.8-0.6,1.4-1.4,1.4c-0.8,0-1.4-0.6-1.4-1.4C43.6,33.9,44.3,33.3,45,33.3
	L45,33.3z"/>
<path class="st4" d="M45.5,38.1c0.7,0,1.2,0.6,1.2,1.2c0,0.7-0.6,1.2-1.2,1.2c-0.7,0-1.2-0.6-1.2-1.2C44.3,38.7,44.9,38.1,45.5,38.1
	L45.5,38.1z"/>
<path class="st4" d="M48.5,35c0.5,0,0.8,0.4,0.8,0.8c0,0.5-0.4,0.8-0.8,0.8c-0.5,0-0.8-0.4-0.8-0.8C47.7,35.3,48.1,35,48.5,35
	L48.5,35z"/>
<path class="st4" d="M28.5,31.8c0.4,0,0.8,0.4,0.8,0.8s-0.4,0.8-0.8,0.8c-0.4,0-0.8-0.4-0.8-0.8S28,31.8,28.5,31.8L28.5,31.8z"/>
<path class="st4" d="M30.1,27.5c0.6,0,1,0.5,1,1c0,0.6-0.5,1-1,1c-0.6,0-1-0.5-1-1C29,27.9,29.5,27.5,30.1,27.5L30.1,27.5z"/>
<path class="st4" d="M31.1,30.7c0.3,0,0.5,0.2,0.5,0.5c0,0.3-0.2,0.5-0.5,0.5c-0.3,0-0.5-0.2-0.5-0.5C30.7,30.9,30.9,30.7,31.1,30.7
	L31.1,30.7z"/>
<path class="st4" d="M34.6,50.9c3.9,1.1,3.6,5.5,1.1,6.4c-1.6-0.2-4.2-1-4-3.1C32.1,52.9,33.7,52.1,34.6,50.9L34.6,50.9z"/>
<path class="st4" d="M27,48.5c4-0.5,3.6,4.1,2.5,5.4c-1.1,0.4-2.2,0.4-3.1-0.9c-1.1-1.6-0.6-3.3,0.4-4.5
	C26.9,48.5,26.9,48.5,27,48.5L27,48.5z"/>
<path class="st4" d="M22.5,11.3c-2.2,0.8-3.7,4-1.7,6.8c0.3,0,0.6-0.2,1.2-0.6C20.3,15.4,20.7,13.2,22.5,11.3L22.5,11.3z"/>
<path class="st4" d="M11.9,39.7c-1.5-3-1.9-6-1.3-8.7c1.3-6,7.3-10.8,16.3-13.3l0.8-0.2c-4,0.5-8.5,2.1-11.9,4.7
	c-2.6,2-4.6,4.2-5.5,7.1C9.3,32.6,9.7,36.6,11.9,39.7L11.9,39.7L11.9,39.7z"/>
<linearGradient id="SVGID_6_" gradientUnits="userSpaceOnUse" x1="16.5527" y1="36.748" x2="39.3223" y2="36.748">
	<stop  offset="0" style="stop-color:#E39744"/>
	<stop  offset="1" style="stop-color:#B56645"/>
</linearGradient>
<path class="st8" d="M16.6,43.1c6.3,1.6,12.2-0.6,16.5-4.7c-1.2,6.6-10,8.4-16,5.4C16.9,43.6,16.7,43.3,16.6,43.1L16.6,43.1z
	 M34,37.4c2.4-2.5,4.2-5.7,5.3-9.1c-0.1,5.1-2.8,9.8-5.9,12.4C33.6,39.6,33.9,38.6,34,37.4L34,37.4z"/>
<linearGradient id="SVGID_7_" gradientUnits="userSpaceOnUse" x1="44.5488" y1="45.9939" x2="61.0698" y2="45.9939">
	<stop  offset="0" style="stop-color:#DD8144"/>
	<stop  offset="0.989" style="stop-color:#AA5E44"/>
</linearGradient>
<path class="st9" d="M45.4,49.5l2.6-0.8c6.8-2.9,8.7-7.1,8.7-12.1c1.2,2,2.1,4.3,2.8,6.7c1.1,0.3,1.9,1.8,1.5,2.8
	c-1.1,0.5-1.9-0.5-2-0.7c0.2,4.2-1.3,9.4-5.5,10c-1.7,0.2-2.2-0.2-2.6-0.9c-0.2-1.6,0.6-2.5,1-5.2c0-0.4-0.5-0.6-0.7-0.7
	c0,0.5-0.7,3.4-1.7,4.4c-1.5,0.6-3.3,1-5,1.1C45.1,52.8,45.5,51.6,45.4,49.5C45.4,49.5,45.4,49.5,45.4,49.5L45.4,49.5z"/>
<path class="st4" d="M20.9,33.6c-1-2.3-3.1-3.9-5-4c-2.3-0.1-4.2,1.6-3.9,1.2c2.4-2.8,6.1-2.7,7.9-0.6C20.7,31,20.8,31.9,20.9,33.6
	L20.9,33.6z"/>
</svg>
