<?xml version="1.0" encoding="utf-8"?>
<!-- Generator: Adobe Illustrator 21.0.2, SVG Export Plug-In . SVG Version: 6.00 Build 0)  -->
<svg version="1.1" id="Слой_1" xmlns="http://www.w3.org/2000/svg" xmlns:xlink="http://www.w3.org/1999/xlink" x="0px" y="0px"
	 viewBox="0 0 70 70" style="enable-background:new 0 0 70 70;" xml:space="preserve">
<style type="text/css">
	.st0{fill-rule:evenodd;clip-rule:evenodd;fill:url(#SVGID_1_);}
	.st1{fill-rule:evenodd;clip-rule:evenodd;fill:url(#SVGID_2_);}
	.st2{fill-rule:evenodd;clip-rule:evenodd;fill:url(#SVGID_3_);}
	.st3{fill-rule:evenodd;clip-rule:evenodd;fill:#FCF8C3;}
	.st4{fill-rule:evenodd;clip-rule:evenodd;fill:url(#SVGID_4_);}
	.st5{fill-rule:evenodd;clip-rule:evenodd;fill:url(#SVGID_5_);}
	.st6{fill-rule:evenodd;clip-rule:evenodd;fill:url(#SVGID_6_);}
	.st7{fill-rule:evenodd;clip-rule:evenodd;fill:url(#SVGID_7_);}
	.st8{fill-rule:evenodd;clip-rule:evenodd;fill:#FFFFFF;}
	.st9{fill-rule:evenodd;clip-rule:evenodd;fill:#DB7C53;}
	.st10{fill-rule:evenodd;clip-rule:evenodd;fill:#201600;}
	.st11{fill-rule:evenodd;clip-rule:evenodd;fill:#505258;}
	.st12{fill-rule:evenodd;clip-rule:evenodd;fill:#BE5563;}
	.st13{fill-rule:evenodd;clip-rule:evenodd;fill:url(#SVGID_8_);}
	.st14{fill-rule:evenodd;clip-rule:evenodd;fill:url(#SVGID_9_);}
	.st15{fill-rule:evenodd;clip-rule:evenodd;fill:url(#SVGID_10_);}
	.st16{fill-rule:evenodd;clip-rule:evenodd;fill:url(#SVGID_11_);}
	.st17{fill-rule:evenodd;clip-rule:evenodd;fill:url(#SVGID_12_);}
</style>
<g>
	<linearGradient id="SVGID_1_" gradientUnits="userSpaceOnUse" x1="8.8014" y1="35.7193" x2="60.4117" y2="35.7193">
		<stop  offset="0" style="stop-color:#E6A344"/>
		<stop  offset="1" style="stop-color:#D76944"/>
	</linearGradient>
	<path class="st0" d="M47.6,55.7c-1.2,0.7-3.8,0.4-4.7-0.4c-0.6,3.2-3.3,5.4-6.3,6.4c-2.9,0.9-7.6,0.5-8.9-2.7
		c-4.9,2.9-10.6-5.6-5.6-7.9c1.5-0.7,3.5-0.2,4.4-1.6c-0.1-0.3-0.3-0.8-0.5-1.1c-3.7-0.1-7.1-0.3-10.5-2.2C7.8,41.7,7,31.8,11.8,25
		c3.1-4.3,6.8-7.8,12.3-9.5c0-2.4,0.9-4.3,1.8-6.1c2.5-0.1,4.7,0.8,5.6,2.9c0.7-1.1,1.9-2.6,3.7-3c6.2,3.8,8.4,12.7,7.6,21.1
		c4.1,0.8,6.8,1.8,9.8,5c2.3-2.8,1.3-8.8-1.3-11.8c-2.1-2.5-5.7-4-5.8-8c-0.1-4.3,6.1-5.3,9-2.7c3.1,2.9,4.9,9.3,4.7,14.1
		c-0.2,4.9-1.3,10.2-3.7,14.7c0,3.1,2.4,6.7,4.6,8.4c1.3,3.1-1.1,6.3-4.5,7.6C52.5,59,48.6,58.1,47.6,55.7L47.6,55.7z"/>
	<linearGradient id="SVGID_2_" gradientUnits="userSpaceOnUse" x1="9.5126" y1="28.8328" x2="41.5756" y2="28.8328">
		<stop  offset="0" style="stop-color:#FCF8C8"/>
		<stop  offset="0.989" style="stop-color:#F8E484"/>
	</linearGradient>
	<path class="st1" d="M29.5,15.6c-0.2,0.7,0,1.5,0.3,2.2c1-2.6,2.7-5.8,5.1-7.2c2.4,2.8,1.7,7.4,2.5,10.6c0.8-1.1,1-2.9,0.9-4.4
		c-0.2-1.6-0.8-3-1.1-4.5c6.3,6.8,5.3,20.2,0.6,26.9c-2.5,3.6-9.4,8.4-16.1,7.8C9.9,45.9,6.3,33.6,12.5,25
		C16.5,19.6,22.4,15.6,29.5,15.6L29.5,15.6z"/>
	<linearGradient id="SVGID_3_" gradientUnits="userSpaceOnUse" x1="27.4141" y1="12.5845" x2="30.4702" y2="12.5845">
		<stop  offset="0" style="stop-color:#F7E146"/>
		<stop  offset="1" style="stop-color:#F0BE45"/>
	</linearGradient>
	<path class="st2" d="M27.4,10.4c2.1,0.3,4.1,2.4,2.5,4.3c-0.2-0.2-0.7-0.1-1.1-0.1C28.8,13.1,28,11.7,27.4,10.4L27.4,10.4z"/>
	<path class="st3" d="M25.9,10.6c1.2,0.8,1.9,2.5,1.9,4.2c-1,0.1-1.8,0.4-2.8,0.5C24.9,13.8,25.3,12,25.9,10.6L25.9,10.6z"/>
	<linearGradient id="SVGID_4_" gradientUnits="userSpaceOnUse" x1="21.5629" y1="53.8783" x2="31.1387" y2="53.8783">
		<stop  offset="0" style="stop-color:#F7E146"/>
		<stop  offset="1" style="stop-color:#F0BE45"/>
	</linearGradient>
	<path class="st4" d="M26.7,50.1c1.3,1.4,2.4,2.9,4.5,3.5c-0.6,0.4-3.9,1.1-3.9,3.5c-3.3,2.2-7.9-2.7-4.3-5.3
		C24.6,51.7,25.8,51.1,26.7,50.1L26.7,50.1z"/>
	<linearGradient id="SVGID_5_" gradientUnits="userSpaceOnUse" x1="43.1328" y1="52.8553" x2="49.3516" y2="52.8553">
		<stop  offset="0" style="stop-color:#F7E146"/>
		<stop  offset="1" style="stop-color:#F0BE45"/>
	</linearGradient>
	<path class="st5" d="M49.4,50.6c-1.2,1.7-1.7,3.8-1.9,4.3c-1.6,0.2-3.7,0.2-4.4-0.8C45.1,53.7,48.2,52.1,49.4,50.6L49.4,50.6z"/>
	<linearGradient id="SVGID_6_" gradientUnits="userSpaceOnUse" x1="27.1055" y1="36.5463" x2="58.8878" y2="36.5463">
		<stop  offset="0" style="stop-color:#FCF8C8"/>
		<stop  offset="0.989" style="stop-color:#F8E484"/>
	</linearGradient>
	<path class="st6" d="M49.5,54.7c-0.7-3.4,1.8-5.5,2.5-7.9c-2.1,3.1-5.4,4.5-8.7,5.3c0-0.5-0.2-2.6-0.6-2.8
		c-0.1,1.7-0.4,4.5-0.7,5.6c-1,4-4.1,5.7-8,5.8c-2.7,0.1-5.4-0.9-5.6-3.3c0-0.1,0.1-0.7,0.3-0.9c1.5-1.9,7.2-3.8,5.5-7.7
		c0,0.9-0.6,2.2-1.1,2.5c-2.7,0-4.7-1.5-5.9-3.3c7.4-2,14-8.8,15.3-16.4c4.8,0.1,7.9,2.5,10.2,4.8c3.6-3.4,3.1-9.1,0.1-13.3
		c-1.7-2.5-5.6-4-6.1-7.7c-0.6-3.9,4.6-3.6,6.8-2c6.9,5.2,5.1,21.2,1.2,28.4c0.6,8.3,6.9,8.1,3.1,12.9
		C55.5,55.9,51.2,57.4,49.5,54.7L49.5,54.7z"/>
	<linearGradient id="SVGID_7_" gradientUnits="userSpaceOnUse" x1="20.6853" y1="23.7627" x2="41.5759" y2="23.7627">
		<stop  offset="0" style="stop-color:#F7E146"/>
		<stop  offset="1" style="stop-color:#F0BE45"/>
	</linearGradient>
	<path class="st7" d="M24.9,16.2c-8.3,5.2-3.5,22,8,20.6c3.4-0.4,6-2.3,8-5c1.5-6.7,0.7-14.7-3.7-19.5c0.4,1.5,1,2.9,1.1,4.5
		c0.2,1.5-0.1,3.3-0.9,4.4c-0.9-3.3-0.1-7.9-2.5-10.6c-2.4,1.4-4.1,4.6-5.1,7.2c-0.3-0.7-0.5-1.5-0.3-2.2
		C27.9,15.6,26.4,15.8,24.9,16.2L24.9,16.2z"/>
	<path class="st8" d="M29.4,31.3c0.4,0,0.8,0.4,0.8,0.8c0,0.4-0.4,0.8-0.8,0.8c-0.4,0-0.8-0.4-0.8-0.8C28.6,31.7,29,31.3,29.4,31.3
		L29.4,31.3z"/>
	<path class="st8" d="M30.3,27.6c0.6,0,1,0.5,1,1c0,0.6-0.5,1-1,1c-0.6,0-1-0.5-1-1C29.3,28.1,29.7,27.6,30.3,27.6L30.3,27.6z"/>
	<path class="st8" d="M32.1,30.2c0.3,0,0.5,0.2,0.5,0.5c0,0.3-0.2,0.5-0.5,0.5c-0.3,0-0.5-0.2-0.5-0.5
		C31.6,30.4,31.8,30.2,32.1,30.2L32.1,30.2z"/>
	<path class="st9" d="M14.4,31.4c-2.1,5.7-3.3,10,0.1,13.7c7,3.6,12.7,3.6,16,0.9c3.1-2.4,5.2-7.6,4.7-12.6
		c-0.1-0.5-0.1-0.5-0.3-0.1c0,0.5,0,0.9,0,1.4c-0.5,8.4-7.7,14.2-14.3,12.4c-2.4-0.6-4.6-1.5-6.5-4.6C12.6,40.2,13.1,34.6,14.4,31.4
		L14.4,31.4z"/>
	<path class="st9" d="M33.6,34.9c1-1.9,1.2-1.9,3.2-1.1c-0.7-1.1-1.1-1.5-1.7-1.5C34.1,32.4,33.6,33.7,33.6,34.9L33.6,34.9z"/>
	<path class="st10" d="M24.9,22.9c-1-0.7-3.5-1.1-5.3,0.1c-0.2-1.1-0.5-2.5,0.4-3.1c0.9-0.6,1.8,0.1,2,1.3c0-0.6,0.1-1.8,0.8-2.5
		c0.7-0.8,2-1.1,2.6-0.1C25.9,19.5,25.6,21.6,24.9,22.9L24.9,22.9z"/>
	<path class="st8" d="M23.5,18.6c1.5-1.1,2.1,0.8,1.7,2C25.2,19.3,24.9,18.2,23.5,18.6L23.5,18.6z"/>
	<path class="st11" d="M22.6,19.5c-0.2,0.5-0.5,1.5-0.3,2.4c0.4-0.3,2.3,0.4,2.1,0.5c-0.4-0.7-1.2-0.8-1.6-1.3
		C22.6,20.7,22.7,20.2,22.6,19.5L22.6,19.5z"/>
	<path class="st11" d="M19.7,20.7c-0.2,0.4-0.1,1.4,0.1,2c0.3-0.2,1.4-0.6,1.3-0.5c-0.5-0.1-0.8,0.1-1.1-0.3
		C19.9,21.5,19.8,21.1,19.7,20.7L19.7,20.7z"/>
	<path class="st8" d="M24.1,19c0.3,0,0.6,0.2,0.6,0.5c0,0.3-0.1,0.6-0.4,0.7c-0.3,0-0.6-0.2-0.6-0.5C23.6,19.4,23.8,19.1,24.1,19
		L24.1,19z"/>
	<path class="st8" d="M20.8,20.3c0.2,0,0.4,0.1,0.4,0.3c0,0.2-0.1,0.4-0.3,0.5c-0.2,0-0.4-0.1-0.4-0.3
		C20.4,20.5,20.6,20.3,20.8,20.3L20.8,20.3z"/>
	<path class="st8" d="M12.4,42.4c-3.1-8.4-1.7-14,2.7-18.9c2.1-2.4,5-4.6,8.3-6.9c-4.4,1.5-8.1,4.6-10.9,8.4
		C8.5,30.6,8.6,37.8,12.4,42.4L12.4,42.4z"/>
	<path class="st12" d="M15.5,26.6c2.9,0,5.2,1.8,5.2,4s-2.3,4-5.2,4c-2.9,0-5.2-1.8-5.2-4S12.6,26.6,15.5,26.6L15.5,26.6z"/>
	<linearGradient id="SVGID_8_" gradientUnits="userSpaceOnUse" x1="10.5195" y1="30.5411" x2="20.1113" y2="30.5411">
		<stop  offset="0" style="stop-color:#EBBBD6"/>
		<stop  offset="1" style="stop-color:#DD80B1"/>
	</linearGradient>
	<path class="st13" d="M15.3,26.8c2.6,0,4.8,1.7,4.8,3.7c0,2-2.1,3.7-4.8,3.7c-2.6,0-4.8-1.7-4.8-3.7C10.5,28.5,12.7,26.8,15.3,26.8
		L15.3,26.8z"/>
	<linearGradient id="SVGID_9_" gradientUnits="userSpaceOnUse" x1="10.5234" y1="29.3046" x2="17.8447" y2="29.3046">
		<stop  offset="0" style="stop-color:#FFFFFF"/>
		<stop  offset="1" style="stop-color:#E091BB"/>
	</linearGradient>
	<path class="st14" d="M10.5,30.4c2.5,2.4,7.3,1.8,7.3-3c-0.7-0.4-1.6-0.6-2.5-0.6C12.7,26.8,10.6,28.4,10.5,30.4L10.5,30.4z"/>
	<path class="st8" d="M10.9,30.2c0.1-2.1,3.4-3.7,6.3-2.6C13.8,27.8,12.4,28.6,10.9,30.2L10.9,30.2z"/>
	<path class="st8" d="M35.4,55.4c1.3,0.7,2.8,2.6,3,4.3c-1.3,0.7-2.8,1-4.4,1c-2.7,0.1-5.4-0.9-5.6-3.3c0-0.1,0.1-0.7,0.3-0.9
		c0.5-0.7,1.6-1.4,2.7-2.1C32.9,54.4,34.4,54.8,35.4,55.4L35.4,55.4z"/>
	<path class="st8" d="M24.4,51.6c0.9,0.7,1.6,1.7,2.3,2.9c0.4,0.6,0.6,1.3,0.6,1.9c-0.1,0.2-0.1,0.5-0.2,0.8
		c-3.3,2.2-7.9-2.7-4.3-5.3C23.4,51.8,23.9,51.7,24.4,51.6L24.4,51.6z"/>
	<linearGradient id="SVGID_10_" gradientUnits="userSpaceOnUse" x1="36.9882" y1="41.5033" x2="52.8743" y2="41.5033">
		<stop  offset="0" style="stop-color:#F7E146"/>
		<stop  offset="1" style="stop-color:#F0BE45"/>
	</linearGradient>
	<path class="st15" d="M48.5,33.3c-2.3,0.2-5.1,1-7.3,2.4c-1,2.3-2.4,4.5-4.2,6.4c0,0.6,0,1.2,0.2,1.8c0.7,3.2,3,5.2,5.5,5.7
		c0-0.1,0-0.2,0-0.3c0.1,0,0.2,0.2,0.2,0.3c3.3,0.6,7-0.9,8.6-4.8c0.8-2,1.7-5.7,1.1-8.4c0,0-0.1,0.1-0.1,0.1
		C51.5,35.4,50.1,34.2,48.5,33.3L48.5,33.3z"/>
	<path class="st8" d="M43.2,35.9c0.8,0,1.4,0.6,1.4,1.4c0,0.8-0.6,1.4-1.4,1.4c-0.8,0-1.4-0.6-1.4-1.4
		C41.8,36.6,42.5,35.9,43.2,35.9L43.2,35.9z"/>
	<path class="st8" d="M45.3,39.5c0.7,0,1.2,0.6,1.2,1.2c0,0.7-0.6,1.2-1.2,1.2c-0.7,0-1.2-0.6-1.2-1.2
		C44.1,40.1,44.6,39.5,45.3,39.5L45.3,39.5z"/>
	<path class="st8" d="M46.6,37.1c0.5,0,0.8,0.4,0.8,0.8c0,0.5-0.4,0.8-0.8,0.8c-0.5,0-0.8-0.4-0.8-0.8
		C45.8,37.5,46.2,37.1,46.6,37.1L46.6,37.1z"/>
	<linearGradient id="SVGID_11_" gradientUnits="userSpaceOnUse" x1="46.5404" y1="18.2727" x2="57.8535" y2="18.2727">
		<stop  offset="0" style="stop-color:#F7E146"/>
		<stop  offset="1" style="stop-color:#F0BE45"/>
	</linearGradient>
	<path class="st16" d="M53.1,23.9c0.6,0.2,1.2,0.3,1.9,0.3c1.2,0,2.2-0.4,2.8-1c-0.5-4-1.8-7.6-4.5-9.6c-2.2-1.6-7.4-1.9-6.8,2
		c0.5,3.6,4.5,5.2,6.1,7.7C52.9,23.4,53,23.6,53.1,23.9L53.1,23.9z"/>
	<linearGradient id="SVGID_12_" gradientUnits="userSpaceOnUse" x1="49.3611" y1="52.9218" x2="58.8848" y2="52.9218">
		<stop  offset="0" style="stop-color:#F7E146"/>
		<stop  offset="1" style="stop-color:#F0BE45"/>
	</linearGradient>
	<path class="st17" d="M50.1,50.6c2.7-1.9,6.7-0.8,8.8,1.7c0,0.7-0.4,1.5-1.2,2.6c-2.2,1.1-6.4,2.5-8.2-0.2
		C49.1,53.1,49.5,51.8,50.1,50.6L50.1,50.6z"/>
</g>
</svg>
