<?xml version="1.0" encoding="utf-8"?>
<!-- Generator: Adobe Illustrator 21.0.2, SVG Export Plug-In . SVG Version: 6.00 Build 0)  -->
<svg version="1.1" id="Слой_1" xmlns="http://www.w3.org/2000/svg" xmlns:xlink="http://www.w3.org/1999/xlink" x="0px" y="0px"
	 viewBox="0 0 70 70" style="enable-background:new 0 0 70 70;" xml:space="preserve">
<style type="text/css">
	.st0{fill-rule:evenodd;clip-rule:evenodd;fill:#868B95;}
	.st1{fill-rule:evenodd;clip-rule:evenodd;fill:url(#SVGID_1_);}
	.st2{fill-rule:evenodd;clip-rule:evenodd;fill:url(#SVGID_2_);}
	.st3{fill-rule:evenodd;clip-rule:evenodd;fill:url(#SVGID_3_);}
	.st4{fill-rule:evenodd;clip-rule:evenodd;fill:#E2989E;}
	.st5{fill-rule:evenodd;clip-rule:evenodd;fill:url(#SVGID_4_);}
	.st6{fill-rule:evenodd;clip-rule:evenodd;fill:url(#SVGID_5_);}
	.st7{fill-rule:evenodd;clip-rule:evenodd;fill:url(#SVGID_6_);}
	.st8{fill-rule:evenodd;clip-rule:evenodd;fill:#FFFFFF;}
	.st9{fill-rule:evenodd;clip-rule:evenodd;fill:url(#SVGID_7_);}
	.st10{fill-rule:evenodd;clip-rule:evenodd;fill:url(#SVGID_8_);}
	.st11{fill-rule:evenodd;clip-rule:evenodd;fill:url(#SVGID_9_);}
	.st12{fill-rule:evenodd;clip-rule:evenodd;fill:url(#SVGID_10_);}
	.st13{fill-rule:evenodd;clip-rule:evenodd;fill:url(#SVGID_11_);}
	.st14{fill-rule:evenodd;clip-rule:evenodd;fill:url(#SVGID_12_);}
	.st15{fill-rule:evenodd;clip-rule:evenodd;fill:#201600;}
	.st16{fill-rule:evenodd;clip-rule:evenodd;fill:#505258;}
	.st17{fill-rule:evenodd;clip-rule:evenodd;fill:url(#SVGID_13_);}
	.st18{fill-rule:evenodd;clip-rule:evenodd;fill:url(#SVGID_14_);}
	.st19{fill-rule:evenodd;clip-rule:evenodd;fill:url(#SVGID_15_);}
	.st20{fill-rule:evenodd;clip-rule:evenodd;fill:url(#SVGID_16_);}
</style>
<g>
	<path class="st0" d="M24.5,11.8c-1.5,4-6.9,5-10.4,2.4C15.1,9.8,21.7,7.1,24.5,11.8L24.5,11.8z"/>
	<linearGradient id="SVGID_1_" gradientUnits="userSpaceOnUse" x1="15.4521" y1="12.4074" x2="23.1435" y2="12.4074">
		<stop  offset="0" style="stop-color:#555F68"/>
		<stop  offset="1" style="stop-color:#00171E"/>
	</linearGradient>
	<path class="st1" d="M23.1,12.1c-1.4,2.3-5.4,3.2-7.7,1.3C16.8,10.7,21.3,8.8,23.1,12.1L23.1,12.1z"/>
	<path class="st0" d="M37.7,16.4c2.2-2.5,5-2.8,7.1-1.9c2.1,0.9,4.2,4.1,5,6.1c-1.1,0-4.6,1.1-7.2,0.7
		C40.3,20.9,38.3,19.4,37.7,16.4L37.7,16.4z"/>
	<linearGradient id="SVGID_2_" gradientUnits="userSpaceOnUse" x1="38.7646" y1="17.8291" x2="48.0049" y2="17.8291">
		<stop  offset="0" style="stop-color:#555F68"/>
		<stop  offset="1" style="stop-color:#00171E"/>
	</linearGradient>
	<path class="st2" d="M48,19.5c-3.6,2-8.2,1.4-9.2-3C42.3,13.2,46.2,16.2,48,19.5L48,19.5z"/>
	<linearGradient id="SVGID_3_" gradientUnits="userSpaceOnUse" x1="7.0101" y1="34.4393" x2="63.6589" y2="34.4393">
		<stop  offset="0" style="stop-color:#828E99"/>
		<stop  offset="0.9725" style="stop-color:#576069"/>
		<stop  offset="1" style="stop-color:#00171E"/>
	</linearGradient>
	<path class="st3" d="M27,3.9c-1,1.4-1.5,3.6-1,5.4c4.3-1,10.9,4.2,12.6-0.8c0.4-1.2-0.1-3.1-0.5-4.4c3.5-0.1,5.2,3.5,5,6.5
		c-0.2,3-1.7,5.5-4.7,6.3c1.6,3.6,2.3,7.7,2,12.1c7.1-0.6,11.7,1.7,15.5,5.7c2.4,0.3,4-0.8,5-2.4c-3.3-2.2-0.1-7.8,0.6-9.1
		c0.9,2.5,4,7.6,0.5,9c-0.5,2.8-2,5.7-4.1,7.4c2.7,5.3,6.2,15.1,1.5,20.3c-2.9,1.9-9.8,1.5-9.2-3.5c-2,0.8-3.4,1.5-5.9,1.8
		c-1.6,4.1-6.1,8-10,7.1c-2.5-0.5-3.1-1.9-3.6-4.1c-4.5,0.1-6.3-2.6-5.8-6c0.2-1.7,1.4-3.2,2.9-3.9c-0.8-1.3-1.4-2.5-2-3.8
		c-3.4,1-7.9,1-11.3-0.9c-12.3-7.1-7.8-22.8,1.2-29.2c2.2-1.5,4.4-2.9,7-4.1C18.9,10.1,22,2.5,27,3.9L27,3.9z"/>
	<path class="st4" d="M7.6,29.3c0.4-0.2,0.7-0.2,1.1-0.4l2.2-2l4.9-0.4l5.7,1.3l4.6,5l4.1,4.7v3.3l-0.9,3.7L29,46.5l-3,0.8l-0.3,0
		c-3.4,1-7.9,1-11.3-0.9C7.5,42.4,5.9,35.6,7.6,29.3L7.6,29.3z"/>
	<linearGradient id="SVGID_4_" gradientUnits="userSpaceOnUse" x1="8.581" y1="27.449" x2="38.5991" y2="27.449">
		<stop  offset="0" style="stop-color:#FFFFFF"/>
		<stop  offset="1" style="stop-color:#E1F1FC"/>
	</linearGradient>
	<path class="st5" d="M34.8,11.9c-1,2-0.4,5.1,2.1,4.9c2.3,5.6,2.5,15.1-0.3,20.5c0-2.2,0.2-5.7-1.3-7.4c0-0.4,0.3-0.4,0.4-0.7
		c-0.9-1.1-3.2,0-3.3,1.3c0.7,0.4,0.9-0.5,1.4-0.5c2.9,2.5,1.3,8.6,0.1,11.5c-1.5,1.3-3,2.5-4.8,3.5c0.5-5.9-2.6-10.2-6.1-13.3
		c-3.4-3-9.9-4.9-14.4-2.5c1.9-8.4,9.1-12.8,16.1-15.9C25.1,7.5,31.3,11.4,34.8,11.9L34.8,11.9z"/>
	<linearGradient id="SVGID_5_" gradientUnits="userSpaceOnUse" x1="22.2318" y1="8.2901" x2="25.8056" y2="8.2901">
		<stop  offset="0" style="stop-color:#DD8394"/>
		<stop  offset="1" style="stop-color:#E49FA7"/>
	</linearGradient>
	<path class="st6" d="M25.8,4.3c-1.1,1.2-1.6,4-0.4,5.3c-0.5,0.9-1.2,1.6-1.5,2.6C20.7,10.5,22.5,4.8,25.8,4.3L25.8,4.3z"/>
	<linearGradient id="SVGID_6_" gradientUnits="userSpaceOnUse" x1="35.2573" y1="11.0412" x2="42.0992" y2="11.0412">
		<stop  offset="0" style="stop-color:#DD8394"/>
		<stop  offset="1" style="stop-color:#E49FA7"/>
	</linearGradient>
	<path class="st7" d="M39.6,6c5,1.8,1.8,12.7-4,9.3c-0.7-1.3-0.2-2.6,0.3-3.9C38.3,10.9,39.9,8.8,39.6,6L39.6,6z"/>
	<path class="st8" d="M26.5,17.4c0,0.2-0.1,0.3-0.3,0.3C26.4,17.6,26.3,17.4,26.5,17.4L26.5,17.4z"/>
	<linearGradient id="SVGID_7_" gradientUnits="userSpaceOnUse" x1="60.3076" y1="28.8789" x2="62.7183" y2="28.8789">
		<stop  offset="0" style="stop-color:#555F68"/>
		<stop  offset="1" style="stop-color:#00171E"/>
	</linearGradient>
	<path class="st9" d="M61.4,26.6c1.1,1,1.8,3.4,0.8,4.6c-0.3-0.1-0.6-0.2-0.9,0C60,30.2,59.9,27.4,61.4,26.6L61.4,26.6z"/>
	<linearGradient id="SVGID_8_" gradientUnits="userSpaceOnUse" x1="9.0293" y1="37.9167" x2="27.6885" y2="37.9167">
		<stop  offset="0" style="stop-color:#DD8394"/>
		<stop  offset="1" style="stop-color:#E49FA7"/>
	</linearGradient>
	<path class="st10" d="M25,35.6c-4.3,0.2-5.1,3.9-3.9,6.7c1.9,4.5,6.2,3.3,6.6,3.2c-6.7,3.6-16.9-0.3-18.6-6.7
		c5.3,0.1,5.9-8.8-0.1-9c2.8-1.2,6.6-1.2,9.4,0.1C20.9,31,23.5,33.4,25,35.6L25,35.6z"/>
	<linearGradient id="SVGID_9_" gradientUnits="userSpaceOnUse" x1="26.9717" y1="47.1182" x2="60.4138" y2="47.1182">
		<stop  offset="0" style="stop-color:#FFFFFF"/>
		<stop  offset="1" style="stop-color:#E1F1FC"/>
	</linearGradient>
	<path class="st11" d="M27,46.9c6.9-2.6,11.6-7.4,13-15.5c5.9-2.3,11.7,1.3,15.4,4c1.9,0.5,3.2,0.2,4.7-0.7
		c-0.4,2.4-2.7,3.2-3.2,5.1c1.7,4.3,5.2,11,2.7,17c-3.1,3.2-9.8,1.3-7.7-4.7c-1.1,0.3-1.6,2.8-1.6,3c-1.8,0.8-3.6,1.7-5.7,1.8
		c0.2-0.9,0.4-1.6,0.3-2.6c-0.7,1.6-2.6,7.5-8,9.3c-4,0-5.7-3-4.4-6.7c1.6-1.4,3.4-2.5,4.2-4.7c-0.9,0.3-1.4,1.1-2,1.8
		C30.9,52.9,28.7,49.8,27,46.9L27,46.9z"/>
	<linearGradient id="SVGID_10_" gradientUnits="userSpaceOnUse" x1="8.0415" y1="34.2092" x2="12.2353" y2="34.2092">
		<stop  offset="0" style="stop-color:#C3706F"/>
		<stop  offset="1" style="stop-color:#CF7882"/>
	</linearGradient>
	<path class="st12" d="M8.6,37.5c-0.7-1.9-0.6-5.6-0.3-6.6C12.7,29.8,14.3,38.6,8.6,37.5L8.6,37.5z"/>
	<linearGradient id="SVGID_11_" gradientUnits="userSpaceOnUse" x1="21.4642" y1="40.767" x2="27.7257" y2="40.767">
		<stop  offset="0" style="stop-color:#C3706F"/>
		<stop  offset="1" style="stop-color:#CF7882"/>
	</linearGradient>
	<path class="st13" d="M26,37c1.1,1.7,1.9,5.1,1.7,7.5c-3.3,1.2-5.9-1.2-6.2-3.9C21.2,38.3,22.9,36.1,26,37L26,37z"/>
	<path class="st8" d="M33.5,54.9c-1.3,1-2.8,2.3-2.8,4.3c-3.1,0.9-5.2-2-4.7-4.5c0.4-1.3,1.6-2.2,2.5-2.7C30,53.3,31.6,54,33.5,54.9
		L33.5,54.9z"/>
	<linearGradient id="SVGID_12_" gradientUnits="userSpaceOnUse" x1="36.6631" y1="41.3692" x2="55.3803" y2="41.3692">
		<stop  offset="0" style="stop-color:#555F68"/>
		<stop  offset="1" style="stop-color:#00171E"/>
	</linearGradient>
	<path class="st14" d="M39.5,38.9c0.1,1-2.1,1.9-2.7,4.4c-0.6,2.8,0.8,7.2,7.4,5.3c3.4-1,7.4,3.9,10.1,0.2c1.4-1.9,1.1-4.6,0.9-6
		c-0.3-1.5-1.7-2.2-1.6-4.1c0.3-5.7-6.8-4.6-8.4-5.3C41.5,31.6,39,32.9,39.5,38.9L39.5,38.9z"/>
	<path class="st15" d="M27.4,18.9c-0.9-0.9-3.3-1.6-5.3-0.7c0-1.1-0.1-2.6,0.9-3c1-0.4,1.8,0.3,1.8,1.6c0.1-0.6,0.4-1.7,1.1-2.4
		c0.8-0.7,2.1-0.8,2.5,0.3C28.9,15.7,28.3,17.7,27.4,18.9L27.4,18.9z"/>
	<path class="st8" d="M26.7,14.4c1.7-0.9,2,1.1,1.4,2.2C28.2,15.3,28.1,14.3,26.7,14.4L26.7,14.4z"/>
	<path class="st16" d="M25.7,15.2c-0.3,0.4-0.7,1.4-0.6,2.3c0.4-0.2,2.2,0.7,2,0.8c-0.3-0.7-1.1-1-1.3-1.5
		C25.5,16.3,25.6,15.8,25.7,15.2L25.7,15.2z"/>
	<path class="st16" d="M22.6,15.9c-0.3,0.3-0.3,1.3-0.2,2c0.3-0.1,1.5-0.4,1.4-0.3c-0.4-0.2-0.8,0-1-0.5
		C22.6,16.7,22.6,16.3,22.6,15.9L22.6,15.9z"/>
	<path class="st8" d="M27.2,14.9c0.3,0,0.5,0.3,0.5,0.6c0,0.3-0.2,0.6-0.5,0.6c-0.3,0-0.5-0.3-0.5-0.6
		C26.6,15.2,26.9,14.9,27.2,14.9L27.2,14.9z"/>
	<path class="st8" d="M23.7,15.6c0.2,0,0.4,0.2,0.4,0.4c0,0.2-0.2,0.4-0.4,0.4c-0.2,0-0.4-0.2-0.4-0.4
		C23.3,15.8,23.5,15.6,23.7,15.6L23.7,15.6z"/>
	<path class="st8" d="M45.6,35.8c0.8,0,1.4,0.6,1.4,1.4c0,0.8-0.6,1.4-1.4,1.4c-0.8,0-1.4-0.6-1.4-1.4
		C44.2,36.4,44.8,35.8,45.6,35.8L45.6,35.8z"/>
	<path class="st8" d="M48,45.1c0.7,0,1.2,0.6,1.2,1.2c0,0.7-0.6,1.2-1.2,1.2c-0.7,0-1.2-0.6-1.2-1.2C46.8,45.7,47.3,45.1,48,45.1
		L48,45.1z"/>
	<path class="st8" d="M49.3,39.9c0.5,0,0.8,0.4,0.8,0.8c0,0.5-0.4,0.8-0.8,0.8c-0.5,0-0.8-0.4-0.8-0.8
		C48.5,40.3,48.9,39.9,49.3,39.9L49.3,39.9z"/>
	<linearGradient id="SVGID_13_" gradientUnits="userSpaceOnUse" x1="23.8372" y1="24.9218" x2="37.7989" y2="24.9218">
		<stop  offset="0" style="stop-color:#555F68"/>
		<stop  offset="1" style="stop-color:#00171E"/>
	</linearGradient>
	<path class="st17" d="M29.6,18.6c-4.4,0.7-7.5,6.6-4.7,10.8c1.9,3,4.8,5.5,6,1.6c0.3-0.9,0.8-1.5,1.7-2.3c1-0.9,1.9-0.6,2.8-1.3
		c0.8-0.7,1.6-1.7,2-3c0.6-1.6,0.6-3.7-0.7-5.4C33.3,14.7,33.4,18,29.6,18.6L29.6,18.6z"/>
	<path class="st8" d="M29.4,25.3c0.4,0,0.8,0.4,0.8,0.8s-0.4,0.8-0.8,0.8c-0.4,0-0.8-0.4-0.8-0.8S29,25.3,29.4,25.3L29.4,25.3z"/>
	<path class="st8" d="M28.8,20.7c0.6,0,1,0.5,1,1c0,0.6-0.5,1-1,1c-0.6,0-1-0.5-1-1C27.8,21.1,28.2,20.7,28.8,20.7L28.8,20.7z"/>
	<path class="st8" d="M30.9,22.6c0.3,0,0.5,0.2,0.5,0.5c0,0.3-0.2,0.5-0.5,0.5c-0.3,0-0.5-0.2-0.5-0.5
		C30.4,22.8,30.6,22.6,30.9,22.6L30.9,22.6z"/>
	<linearGradient id="SVGID_14_" gradientUnits="userSpaceOnUse" x1="25.9175" y1="56.4957" x2="30.7392" y2="56.4957">
		<stop  offset="0" style="stop-color:#555F68"/>
		<stop  offset="1" style="stop-color:#00171E"/>
	</linearGradient>
	<path class="st18" d="M26.5,53.7c1.5,1,3,2.4,3.7,3.9c0.1,0.3,0.3,0.7,0.5,1.1c0,0.2,0,0.3,0,0.5c-3.1,0.9-5.2-2-4.7-4.5
		C26.1,54.3,26.3,54,26.5,53.7L26.5,53.7z"/>
	<linearGradient id="SVGID_15_" gradientUnits="userSpaceOnUse" x1="32.0012" y1="60.4547" x2="38.831" y2="60.4547">
		<stop  offset="0" style="stop-color:#555F68"/>
		<stop  offset="1" style="stop-color:#00171E"/>
	</linearGradient>
	<path class="st19" d="M32.3,57.3c0.1,0,0.1,0,0.2,0c1.7,0.5,5,2.9,6.4,5.3c-0.6,0.4-1.3,0.7-2,1C32.9,63.6,31.3,60.8,32.3,57.3
		L32.3,57.3z"/>
	<linearGradient id="SVGID_16_" gradientUnits="userSpaceOnUse" x1="51.4164" y1="55.7759" x2="58.4092" y2="55.7759">
		<stop  offset="0" style="stop-color:#555F68"/>
		<stop  offset="1" style="stop-color:#00171E"/>
	</linearGradient>
	<path class="st20" d="M51.5,53.2c1-0.1,3.2,1.4,3.7,1.7c1.1,0.7,2.2,1.8,3.2,2.8C55.3,59.4,50.6,57.7,51.5,53.2L51.5,53.2z"/>
	<path class="st8" d="M10.1,29.7c2.1-0.7,4.8-0.8,7.3,0.1c2.2,0.8,4.7,2.6,7.2,5.3c-2.1-1.7-9.5-5.4-12.2-4
		C11.8,30.3,11,30,10.1,29.7L10.1,29.7z"/>
	<path class="st8" d="M25.6,4.4C22.9,6,21.8,9,24.2,11.7c-0.1,0.2-0.2,0.4-0.3,0.6C20.8,10.5,22.4,5.1,25.6,4.4L25.6,4.4z"/>
	<path class="st8" d="M39.9,6.2c0.7,3.1-0.2,5.7-4.4,6.2c0.1-0.3,0.2-0.5,0.3-0.8c2.4-0.7,4-2.7,3.8-5.5C39.7,6.1,39.8,6.1,39.9,6.2
		L39.9,6.2z"/>
	<path class="st15" d="M26.9,11.6c0.3-0.3,0.4-0.6,0.8-0.7c0.4-0.1,1-0.3,1.3,0c0.3,0.2,0.2,0.7-0.1,0.9c-0.4,0.2-0.7-0.2-1.1-0.3
		c-0.1,0-0.3,0-0.4,0C27.3,11.4,27.3,11.6,26.9,11.6L26.9,11.6z"/>
</g>
</svg>
