<?xml version="1.0" encoding="utf-8"?>
<!-- Generator: Adobe Illustrator 21.0.2, SVG Export Plug-In . SVG Version: 6.00 Build 0)  -->
<svg version="1.1" id="Слой_1" xmlns="http://www.w3.org/2000/svg" xmlns:xlink="http://www.w3.org/1999/xlink" x="0px" y="0px"
	 viewBox="0 0 70 70" style="enable-background:new 0 0 70 70;" xml:space="preserve">
<style type="text/css">
	.st0{fill-rule:evenodd;clip-rule:evenodd;fill:url(#SVGID_1_);}
	.st1{fill-rule:evenodd;clip-rule:evenodd;fill:url(#SVGID_2_);}
	.st2{fill-rule:evenodd;clip-rule:evenodd;fill:url(#SVGID_3_);}
	.st3{fill-rule:evenodd;clip-rule:evenodd;fill:url(#SVGID_4_);}
	.st4{fill-rule:evenodd;clip-rule:evenodd;fill:url(#SVGID_5_);}
	.st5{fill-rule:evenodd;clip-rule:evenodd;fill:url(#SVGID_6_);}
	.st6{fill-rule:evenodd;clip-rule:evenodd;fill:url(#SVGID_7_);}
	.st7{fill-rule:evenodd;clip-rule:evenodd;fill:#201600;}
	.st8{fill-rule:evenodd;clip-rule:evenodd;fill:url(#SVGID_8_);}
	.st9{fill-rule:evenodd;clip-rule:evenodd;fill:url(#SVGID_9_);}
	.st10{fill-rule:evenodd;clip-rule:evenodd;fill:url(#SVGID_10_);}
	.st11{fill-rule:evenodd;clip-rule:evenodd;fill:url(#SVGID_11_);}
	.st12{fill-rule:evenodd;clip-rule:evenodd;fill:#FFFFFF;}
	.st13{fill-rule:evenodd;clip-rule:evenodd;fill:#505258;}
	.st14{fill-rule:evenodd;clip-rule:evenodd;fill:url(#SVGID_12_);}
	.st15{fill-rule:evenodd;clip-rule:evenodd;fill:url(#SVGID_13_);}
	.st16{fill-rule:evenodd;clip-rule:evenodd;fill:url(#SVGID_14_);}
	.st17{fill-rule:evenodd;clip-rule:evenodd;fill:url(#SVGID_15_);}
	.st18{fill-rule:evenodd;clip-rule:evenodd;fill:url(#SVGID_16_);}
	.st19{fill-rule:evenodd;clip-rule:evenodd;fill:url(#SVGID_17_);}
	.st20{fill-rule:evenodd;clip-rule:evenodd;fill:url(#SVGID_18_);}
	.st21{fill-rule:evenodd;clip-rule:evenodd;fill:url(#SVGID_19_);}
</style>
<linearGradient id="SVGID_1_" gradientUnits="userSpaceOnUse" x1="31.5449" y1="17.4634" x2="59.8821" y2="17.4634">
	<stop  offset="0" style="stop-color:#C7A589"/>
	<stop  offset="1" style="stop-color:#896655"/>
</linearGradient>
<path class="st0" d="M42.4,12.6c1-1.6,2.1-1.1,3.3-0.4c0.1,1.4,0.2,3-0.1,4.5c2.7-1.2,3.3-5.2,3.8-7.5c1.1-1.2,3.7-1,4-0.6
	c-0.5,0.5-0.8,4.1-0.2,4.2c1.1,0.3,3.1-4.1,3.7-6.4c5.5,3.3,2.1,11.3-0.1,13c2.8,1.5,3.2,4.5,3,6.5c-3.3,0.6-3.7-1.6-8.1-0.6
	c-4.4,1-8.9,3.4-13.5,3.3c-2.4-0.1-5.4-0.8-6.7-3.1C40.8,23.4,42.6,17.6,42.4,12.6L42.4,12.6z"/>
<linearGradient id="SVGID_2_" gradientUnits="userSpaceOnUse" x1="34.2778" y1="18.0272" x2="58.8087" y2="18.0272">
	<stop  offset="0" style="stop-color:#E7CBAE"/>
	<stop  offset="1" style="stop-color:#AB866D"/>
</linearGradient>
<path class="st1" d="M58.2,24.4c0.4-3.1-2.3-4.2-2.8-4.6c2.9-1.5,5.1-9.6,1.7-11c-0.6,1.7-2.9,6-4.5,5.2c-1-0.5-0.9-2-0.9-2.9
	c0-0.6,0-1.1,0.1-1.5c-0.5-0.1-1,0-1.4,0.2c-1.3,3.3-1.8,8-5.8,8.7c0.9-0.8-0.1-5-0.7-5.8c-0.4,1.9-1.5,11.1-9.6,13.5
	C42.5,30.2,51,21.2,58.2,24.4L58.2,24.4z"/>
<linearGradient id="SVGID_3_" gradientUnits="userSpaceOnUse" x1="8.0832" y1="13.1575" x2="25.2568" y2="13.1575">
	<stop  offset="0" style="stop-color:#C7A589"/>
	<stop  offset="1" style="stop-color:#896655"/>
</linearGradient>
<path class="st2" d="M9.8,7.4c2.3,0.5,4.3,2.9,6.7,1.1c2.4-1.7,2.1-5.9,7-7.1C24.6,6,21,9,21.1,12c1.4-0.4,1.8-2.5,3.8-1.6
	c0.6,1.1,0.3,2.2-0.3,2.6c-2.5,1.5-2.6,4.9-1.7,7.5c0.4,1.1,1.3,2.6,2.4,3.3c-4.9,3.4-8.6-2.2-15-0.7c-2.4-1.6,0.4-3.6,1.9-4.4
	c-2.3-1.3-3.4-2.7-3.8-4.3C7.7,12,8.1,9.1,9.8,7.4L9.8,7.4z"/>
<linearGradient id="SVGID_4_" gradientUnits="userSpaceOnUse" x1="9.0445" y1="13.7445" x2="24.1792" y2="13.7445">
	<stop  offset="0" style="stop-color:#E7CBAE"/>
	<stop  offset="1" style="stop-color:#AB866D"/>
</linearGradient>
<path class="st3" d="M12.5,17.5c2,2.2-2,2.8-2.1,4.5c5-1.1,9.3,3,13,1.5c-2.7-3.7-2.3-9.1,0.7-12.1c-3.1,2.8-4.4,1.3-3.9-1.4
	c0.4-2.3,2.2-3.7,1.7-6.2c-3.3,1.1-3.4,6.3-6.1,7c-2.6,0-3.5-1.9-5.8-2.2C8.7,11.4,8,16.6,12.5,17.5L12.5,17.5z"/>
<linearGradient id="SVGID_5_" gradientUnits="userSpaceOnUse" x1="13.5591" y1="24.9602" x2="22.6392" y2="24.9602">
	<stop  offset="0" style="stop-color:#A36B45"/>
	<stop  offset="0.967" style="stop-color:#926042"/>
	<stop  offset="1" style="stop-color:#A06744"/>
</linearGradient>
<path class="st4" d="M22.6,24.4c-2.9,3.4-6,2.4-9.1,2.5C15,23,18.9,21.6,22.6,24.4L22.6,24.4z"/>
<linearGradient id="SVGID_6_" gradientUnits="userSpaceOnUse" x1="14.4902" y1="24.9941" x2="21.3755" y2="24.9941">
	<stop  offset="0" style="stop-color:#AF7A48"/>
	<stop  offset="1" style="stop-color:#9D6544"/>
</linearGradient>
<path class="st5" d="M14.5,26.3c2.3-0.1,4.7,0.2,6.9-1.7C18.6,22.8,15.7,23.7,14.5,26.3L14.5,26.3z"/>
<linearGradient id="SVGID_7_" gradientUnits="userSpaceOnUse" x1="7.7726" y1="46.3896" x2="62.2114" y2="46.3896">
	<stop  offset="0" style="stop-color:#8C6041"/>
	<stop  offset="1" style="stop-color:#78523B"/>
</linearGradient>
<path class="st6" d="M34.3,24.4c3.6,1.7,6.3,6.2,6.7,10.1c6.4,1.9,11.4,4,15.1,8.4c3.9,4.6,7.3,11.2,5.5,20.6
	c-1.8,1.3-10.3,2.2-9.1-1.4c-0.9,0.4-3.8-0.5-4.2-1.3c-0.5,2.5-0.2,5.7-2.5,7.3c-2.1,1.5-13.1,2.8-11.7-1.5
	c-1.4-0.5-3.1-1.1-4.5-2.5c1.6-3.9,4.3-8.4,2-13c-4.3,4.3-19.4,7.8-23.1-3.3c-2.2-6.5,0-12,4.2-16.9C18,25.1,27.1,20.9,34.3,24.4
	L34.3,24.4z"/>
<path class="st7" d="M10,40.5c0.3,6.1,6.5,1.2,8.9,1.2c-0.3,0.6-0.4,0.9-0.5,1.7C15,47,7.5,45.4,10,40.5L10,40.5z"/>
<linearGradient id="SVGID_8_" gradientUnits="userSpaceOnUse" x1="8.7368" y1="38.9554" x2="39.1872" y2="38.9554">
	<stop  offset="0" style="stop-color:#D6A96B"/>
	<stop  offset="1" style="stop-color:#B27046"/>
</linearGradient>
<path class="st8" d="M37.6,41.9c1.5-3.4,2.3-8.2,0.9-11.7c-1-2.7-3.7-4.9-6.9-5.8c-6.5-1.8-14.3,2.3-18.3,7.2
	c-3.8,4.6-5.7,10.7-3.7,15.8c2.5,6.3,9.2,7.9,15.3,5.8c3.8-1.3,7.1-6.9,5.8-10.8c-0.3,0.3-1,0.7-1.6,0.5c0.2-1.6,2.1-2.4,3.2-1.2
	c0,0.5-0.5,1.2-1,0.7c0.2,1.5,0.1,6-0.8,8.3C33,49.6,36.5,44.4,37.6,41.9L37.6,41.9z"/>
<linearGradient id="SVGID_9_" gradientUnits="userSpaceOnUse" x1="31.6141" y1="60.0845" x2="36.9058" y2="60.0845">
	<stop  offset="0" style="stop-color:#AF7A48"/>
	<stop  offset="1" style="stop-color:#9D6544"/>
</linearGradient>
<path class="st9" d="M34.9,65.5c0.7-2.5,1.6-4.2,2-6.8c-1.2-1.2-2.3-2.5-3.2-4c0.3,3.8-2.6,6.3-2,8.3C32,63.9,32.9,64.7,34.9,65.5
	L34.9,65.5z"/>
<linearGradient id="SVGID_10_" gradientUnits="userSpaceOnUse" x1="33.0381" y1="51.7925" x2="61.0149" y2="51.7925">
	<stop  offset="0" style="stop-color:#D6A96B"/>
	<stop  offset="1" style="stop-color:#B27046"/>
</linearGradient>
<path class="st10" d="M54.4,52.6c1.3,3.5-0.2,7.1-1,10.2c1.5,1.9,5.6,1.2,7.4-0.3c1.7-13.4-6.3-24.8-20.1-26.9
	c0.1,1.8-1.5,5.5-2.3,7.1c-1.1,2.3-2.8,5.1-5.4,7.7c0.6,3.3,2,5.5,4.3,7.1c0.1-0.3,0.1-0.8,0.3-0.9c0.7,3.6-0.9,8.8-1.9,11.2
	c3,0.9,7.3,0.3,9.3-1c1.1-3.3,2.4-6.4,1.3-9.9c0.4-0.1,0.4-0.6,0.8-0.6c0.9,1.1,1.1,3.4,1.2,4.1C52.4,59.6,54,56.2,54.4,52.6
	L54.4,52.6z"/>
<linearGradient id="SVGID_11_" gradientUnits="userSpaceOnUse" x1="50.5034" y1="59.6908" x2="53.5713" y2="59.6908">
	<stop  offset="0" style="stop-color:#D6A96B"/>
	<stop  offset="1" style="stop-color:#B27046"/>
</linearGradient>
<path class="st11" d="M52.8,61.2c0.3-0.9,0.7-1.8,0.7-3.2c-0.3,0.6-3,2.7-3.1,2.6C51,61.1,52,61.4,52.8,61.2L52.8,61.2z"/>
<path class="st12" d="M44.4,43.1c0.7-0.1,1.4,0.3,1.5,1c0.1,0.7-0.3,1.4-1,1.5c-0.7,0.1-1.4-0.3-1.5-1
	C43.3,43.9,43.7,43.2,44.4,43.1L44.4,43.1z"/>
<path class="st12" d="M47.5,46.2c0.6-0.1,1.2,0.3,1.3,0.9c0.1,0.6-0.3,1.2-0.9,1.3c-0.6,0.1-1.2-0.3-1.3-0.9
	C46.5,46.9,46.9,46.3,47.5,46.2L47.5,46.2z"/>
<path class="st12" d="M47.8,42.8c0.4-0.1,0.8,0.2,0.9,0.6c0.1,0.4-0.2,0.8-0.6,0.9c-0.4,0.1-0.8-0.2-0.9-0.6
	C47.1,43.3,47.3,42.9,47.8,42.8L47.8,42.8z"/>
<path class="st12" d="M14.4,52.7c-9.2-7.5-2.5-21.2,6.5-27c-3,1.4-5.8,3.5-7.6,5.8c-3.8,4.6-5.7,10.7-3.7,15.8
	C10.6,49.9,12.3,51.7,14.4,52.7L14.4,52.7z"/>
<path class="st7" d="M20.9,33c-0.8-0.8-3-1.5-4.8-0.6c0-1-0.1-2.4,0.8-2.7c0.9-0.4,1.6,0.3,1.7,1.4c0.1-0.5,0.3-1.6,1.1-2.2
	c0.7-0.6,2-0.8,2.3,0.3C22.3,30.1,21.7,31.9,20.9,33L20.9,33z"/>
<path class="st12" d="M20.3,28.9c1.5-0.8,1.8,1,1.3,2C21.7,29.7,21.6,28.8,20.3,28.9L20.3,28.9z"/>
<path class="st13" d="M19.3,29.6c-0.2,0.4-0.6,1.3-0.6,2.1c0.4-0.2,2,0.7,1.9,0.8c-0.2-0.6-1-0.9-1.2-1.4
	C19.2,30.6,19.3,30.2,19.3,29.6L19.3,29.6z"/>
<path class="st13" d="M16.5,30.2c-0.2,0.3-0.3,1.2-0.2,1.8c0.3-0.1,1.4-0.4,1.3-0.3c-0.4-0.2-0.7,0-0.9-0.4
	C16.5,31,16.5,30.7,16.5,30.2L16.5,30.2z"/>
<path class="st12" d="M20.7,29.4c0.3,0,0.5,0.2,0.5,0.5c0,0.3-0.2,0.5-0.5,0.5c-0.3,0-0.5-0.2-0.5-0.5
	C20.2,29.6,20.4,29.4,20.7,29.4L20.7,29.4z"/>
<path class="st12" d="M17.5,30c0.2,0,0.3,0.2,0.3,0.4c0,0.2-0.2,0.4-0.3,0.4c-0.2,0-0.3-0.2-0.3-0.4C17.2,30.2,17.3,30,17.5,30
	L17.5,30z"/>
<path class="st12" d="M27.4,38.7c0.4,0,0.7,0.4,0.7,0.8c0,0.4-0.4,0.7-0.8,0.7c-0.4,0-0.7-0.4-0.7-0.8C26.6,39,27,38.7,27.4,38.7
	L27.4,38.7z"/>
<path class="st12" d="M27.1,35.1c0.5,0,0.9,0.5,0.9,1c0,0.5-0.5,0.9-1,0.9c-0.5,0-0.9-0.5-0.9-1C26.1,35.4,26.5,35,27.1,35.1
	L27.1,35.1z"/>
<path class="st12" d="M29.9,37.8c0.2,0,0.4,0.2,0.4,0.5c0,0.2-0.2,0.4-0.5,0.4c-0.2,0-0.4-0.2-0.4-0.5C29.4,38,29.6,37.8,29.9,37.8
	L29.9,37.8z"/>
<linearGradient id="SVGID_12_" gradientUnits="userSpaceOnUse" x1="8.3862" y1="45.7315" x2="21.5703" y2="45.7315">
	<stop  offset="0" style="stop-color:#C27947"/>
	<stop  offset="1" style="stop-color:#A06744"/>
</linearGradient>
<path class="st14" d="M8.6,44.4c4.1-3.8,9.6-3.4,13,1.2c-5.1,3.7-9.3,6.4-12.3,1l-0.9-1.5L8.6,44.4L8.6,44.4z"/>
<linearGradient id="SVGID_13_" gradientUnits="userSpaceOnUse" x1="9.1885" y1="44.233" x2="20.8257" y2="44.233">
	<stop  offset="0" style="stop-color:#D6A96B"/>
	<stop  offset="1" style="stop-color:#B27046"/>
</linearGradient>
<path class="st15" d="M9.2,44.6c3.1-3.7,9.4-2.1,11.6,0.9l-0.2,0.1C17.2,46.1,11,46.5,9.2,44.6L9.2,44.6z"/>
<path class="st12" d="M11.4,43.4c2.8-1.3,6.9-0.2,8.8,2C18.2,44.5,14.8,43.5,11.4,43.4L11.4,43.4z"/>
<linearGradient id="SVGID_14_" gradientUnits="userSpaceOnUse" x1="9.4575" y1="46.7454" x2="20.208" y2="46.7454">
	<stop  offset="0" style="stop-color:#B67447"/>
	<stop  offset="1" style="stop-color:#9A6143"/>
</linearGradient>
<path class="st16" d="M9.5,45.2c1.1,0.7,2.4,1,3.8,1.1c2.2,0.2,4.9-0.1,7-0.4c-1.4,0.8-3.5,2.2-6.3,2.4c-1.6,0.2-2.7-0.2-3.7-1.5
	C9.8,46.3,9.6,45.7,9.5,45.2L9.5,45.2z"/>
<linearGradient id="SVGID_15_" gradientUnits="userSpaceOnUse" x1="47.4883" y1="53.541" x2="61.0148" y2="53.541">
	<stop  offset="0" style="stop-color:#AF7A48"/>
	<stop  offset="1" style="stop-color:#9D6544"/>
</linearGradient>
<path class="st17" d="M47.5,56.3c6.3-0.4,7.9-7.8,7.7-13.2c4.4,5,6.5,11.8,5.6,19.3c-1.7,1.5-5.9,2.2-7.4,0.3
	c0.8-3.1,2.3-6.7,1-10.2c-0.4,3.6-2,7-6,7.5C48.4,59.5,48.2,57.5,47.5,56.3L47.5,56.3z"/>
<linearGradient id="SVGID_16_" gradientUnits="userSpaceOnUse" x1="35.7749" y1="65.8077" x2="42.7373" y2="65.8077">
	<stop  offset="0" style="stop-color:#E8CC97"/>
	<stop  offset="1" style="stop-color:#D29F6B"/>
</linearGradient>
<path class="st18" d="M37.1,63.6c2-0.2,3.7,1.7,5,3.1c0.3,0.3,0.5,0.6,0.7,0.9c-2.2,0.6-4.9,0.7-7,0C36.2,66.6,36.7,65.2,37.1,63.6
	L37.1,63.6z"/>
<linearGradient id="SVGID_17_" gradientUnits="userSpaceOnUse" x1="33.8369" y1="27.0449" x2="45.6787" y2="27.0449">
	<stop  offset="0" style="stop-color:#A36B45"/>
	<stop  offset="0.967" style="stop-color:#926042"/>
	<stop  offset="1" style="stop-color:#A06744"/>
</linearGradient>
<path class="st19" d="M33.8,25.4c4.4-5.3,10.5-0.2,11.8,4.4C40.7,32.6,35.1,30,33.8,25.4L33.8,25.4z"/>
<linearGradient id="SVGID_18_" gradientUnits="userSpaceOnUse" x1="35.0879" y1="27.0676" x2="44.5229" y2="27.0676">
	<stop  offset="0" style="stop-color:#D6A96B"/>
	<stop  offset="1" style="stop-color:#B27046"/>
</linearGradient>
<path class="st20" d="M35.1,25c0.8,3.9,4.8,6.3,9.4,4.4C42.5,26.5,39.8,22.2,35.1,25L35.1,25z"/>
<linearGradient id="SVGID_19_" gradientUnits="userSpaceOnUse" x1="17.9507" y1="44.3996" x2="39.1802" y2="44.3996">
	<stop  offset="0" style="stop-color:#AF7A48"/>
	<stop  offset="1" style="stop-color:#9D6544"/>
</linearGradient>
<path class="st21" d="M18,53.9c4.8-1,8.6-2.7,11.6-4.9c-1.1,2-2.8,3.6-4.7,4.2C22.5,53.9,20.2,54.2,18,53.9L18,53.9z M31.2,47.6
	c3.8-3.5,6.2-7.9,8-12.8c-0.1,2.5-0.7,5-1.6,7.1c-1.1,2.5-4.5,7.7-7.1,8.8C30.8,49.8,31,48.7,31.2,47.6L31.2,47.6z"/>
</svg>
