<?xml version="1.0" encoding="utf-8"?>
<!-- Generator: Adobe Illustrator 21.0.2, SVG Export Plug-In . SVG Version: 6.00 Build 0)  -->
<svg version="1.1" id="Слой_1" xmlns="http://www.w3.org/2000/svg" xmlns:xlink="http://www.w3.org/1999/xlink" x="0px" y="0px"
	 viewBox="0 0 70 70" style="enable-background:new 0 0 70 70;" xml:space="preserve">
<style type="text/css">
	.st0{fill-rule:evenodd;clip-rule:evenodd;fill:url(#SVGID_1_);}
	.st1{fill-rule:evenodd;clip-rule:evenodd;fill:#FFFFFF;}
	.st2{fill-rule:evenodd;clip-rule:evenodd;fill:url(#SVGID_2_);}
	.st3{fill-rule:evenodd;clip-rule:evenodd;fill:url(#SVGID_3_);}
	.st4{fill-rule:evenodd;clip-rule:evenodd;fill:url(#SVGID_4_);}
	.st5{fill-rule:evenodd;clip-rule:evenodd;fill:url(#SVGID_5_);}
	.st6{fill-rule:evenodd;clip-rule:evenodd;fill:#D6DDE8;}
	.st7{fill-rule:evenodd;clip-rule:evenodd;fill:#BFC8D1;}
	.st8{fill-rule:evenodd;clip-rule:evenodd;fill:#201600;}
	.st9{fill-rule:evenodd;clip-rule:evenodd;fill:#505258;}
	.st10{fill-rule:evenodd;clip-rule:evenodd;fill:url(#SVGID_6_);}
	.st11{fill-rule:evenodd;clip-rule:evenodd;fill:url(#SVGID_7_);}
	.st12{fill-rule:evenodd;clip-rule:evenodd;fill:url(#SVGID_8_);}
	.st13{fill-rule:evenodd;clip-rule:evenodd;fill:url(#SVGID_9_);}
	.st14{fill-rule:evenodd;clip-rule:evenodd;fill:url(#SVGID_10_);}
	.st15{fill-rule:evenodd;clip-rule:evenodd;fill:url(#SVGID_11_);}
	.st16{fill-rule:evenodd;clip-rule:evenodd;fill:url(#SVGID_12_);}
</style>
<g>
	<linearGradient id="SVGID_1_" gradientUnits="userSpaceOnUse" x1="7.3253" y1="35.3318" x2="63.5275" y2="35.3318">
		<stop  offset="0" style="stop-color:#8B97A2"/>
		<stop  offset="1" style="stop-color:#7B8893"/>
	</linearGradient>
	<path class="st0" d="M27,18.4c3-0.2,6.3,0.8,7,1.5c2.4-2.6,5.3-6.3,9-6.6c6.5-0.5,7.6,12.8,2,12.9c-2.9,0-2.3-4.6-1.6-6.9
		c-2.6-1.2-4.8,1.4-6.4,2.7c0.7,1.9,1.7,4.2,1.8,7c4.5-1.4,10.9-0.7,14.2,2.6c1-0.5,3.6-3,5.7-0.8c0.1,1.3-0.7,2.6-2,3.7
		c1.6,2.7,2.8,6.9,2.3,10.6c4.9,1.8,6,7.4,2.1,10.6c-2.2,1.8-5.6,2.3-8.6,0.8c-2.2,1.5-6,1.2-6.8-1.1c-1,2.9-3.7,5.4-6.2,6.6
		c-4.8,2.3-10.6-0.2-10.1-5.5c-5.6,0.5-6.7-6-1.1-7.2c0-0.3-0.1-0.5-0.2-0.7c-4.8,2.2-10.7,3-15.4-0.1c-7.7-5.1-7-17.6,0.3-24
		c3.2-2.8,6.7-4.6,11.6-5.6c0.6-2.2-0.1-5.9-2.7-5.7c-0.4,3.1-1.8,6.6-5.6,5.3c-2-0.7-2-3.1-1.2-5.1c1.3-3.2,4.9-6.4,8.6-5.1
		C27.4,9.5,28.4,14.7,27,18.4L27,18.4z"/>
	<path class="st1" d="M32.3,20.6c7.6,4,5.2,16,1.1,21.7c-3.8,5.2-12,8-18.1,5.7C5,44.1,7.2,29.8,15.1,23.7
		C19.7,20.1,26.7,17.7,32.3,20.6L32.3,20.6z"/>
	<path class="st1" d="M60.1,54.3c-2.7,2.2-7.9,2.1-8.9-1.6c1.6-1.3,3.4-2.8,3.7-5.1c-2,2.9-4.6,5.2-8.7,5.9c0-0.5-0.2-1.1-0.7-0.7
		c-0.4,4.1-4.6,8.1-8.8,8.4c-2.2,0.2-6-1.5-5.9-4.3c0.1-3.2,5.2-3.3,5.2-6.2c-0.8,0.6-1.9,1.1-2.8,1.4c-2.1-0.8-3.3-2.2-4.3-4.1
		c5.7-3.6,8.8-9.3,9.8-17.1c4.8-1.2,10-1.4,14.1,2c1.2-0.9,2.8-2.5,4.6-1c-0.1,1.4-1.1,1.9-1.5,3.1c1.3,3,2.4,8.6,1.6,12.4
		C61.3,47.9,63.1,51.9,60.1,54.3L60.1,54.3z"/>
	<path class="st1" d="M25.8,18.4c0.7-2.3-0.2-5.2-1.4-6.1c-1.2-0.9-3.1-0.8-4,0.5c-1.2,1.6-1.3,3.6-2.1,4.1c-1.1,0.7-2.4,0.3-2.6-1
		c-0.6-3.7,5.4-9.5,9.2-5.5C26.4,12,27,15.1,25.8,18.4L25.8,18.4z"/>
	<path class="st1" d="M36.1,21.8c-0.2-0.2-0.9-1-1-1.3c1.8-2.2,4.1-5.4,7.3-5.7c3.6-0.3,4.7,3.4,4.5,6.6c0,0.9-0.7,3.6-1.8,3.5
		c-1.9-0.1-0.4-4.8-0.5-5.9C42.3,16.5,39.3,18.8,36.1,21.8L36.1,21.8z"/>
	<linearGradient id="SVGID_2_" gradientUnits="userSpaceOnUse" x1="9.2934" y1="39.741" x2="20.7461" y2="39.741">
		<stop  offset="0" style="stop-color:#8B97A2"/>
		<stop  offset="1" style="stop-color:#7B8893"/>
	</linearGradient>
	<path class="st2" d="M9.5,33.7c4.1-0.9,9.7-0.5,11.3,3.4c-1.9,1.9-4.5,3.9-7.9,4.7c-0.3,1.1,0.2,3.1,0,4.4
		c-0.6-0.9-0.8-3.2-0.8-4.7C10.3,39.9,8.8,36.7,9.5,33.7L9.5,33.7z"/>
	<linearGradient id="SVGID_3_" gradientUnits="userSpaceOnUse" x1="9.9882" y1="37.5615" x2="19.3633" y2="37.5615">
		<stop  offset="0" style="stop-color:#EBBBD6"/>
		<stop  offset="1" style="stop-color:#DD80B1"/>
	</linearGradient>
	<path class="st3" d="M19.4,36.8c-1.2,1.2-3.7,3.4-6.7,4.2c-2.3-2.4-2.8-4.6-2.6-6.6C13.9,33.7,17.2,34.1,19.4,36.8L19.4,36.8z"/>
	<linearGradient id="SVGID_4_" gradientUnits="userSpaceOnUse" x1="10.8809" y1="43.2466" x2="33.9262" y2="43.2466">
		<stop  offset="0" style="stop-color:#8B97A2"/>
		<stop  offset="1" style="stop-color:#7B8893"/>
	</linearGradient>
	<path class="st4" d="M33.3,38c-0.3,5.3-7.9,12-15.2,11.6c-2.4-0.1-6.6-1.8-7.2-4.5c3.1,4.4,9.1,4.4,13.9,2c3.8-1.9,6.8-5.1,7.1-8.8
		c-0.7,0-0.7,0.1-1.2,0.6C30.7,35.9,35.6,36.8,33.3,38L33.3,38z"/>
	<linearGradient id="SVGID_5_" gradientUnits="userSpaceOnUse" x1="25.7701" y1="52.1275" x2="31.877" y2="52.1275">
		<stop  offset="0" style="stop-color:#C6D7E4"/>
		<stop  offset="1" style="stop-color:#B7C9DA"/>
	</linearGradient>
	<path class="st5" d="M31.9,53.1c-1.3,2.5-6.2,1.7-6.1-1.5c0.6-1.1,1.7-1.6,2.8-1.9C29.6,50.9,30.2,52.5,31.9,53.1L31.9,53.1z"/>
	<path class="st6" d="M50,53.3c0.1,0.5,0.7,1.5,1.5,2.1c-1.3,0.8-3.9,0.4-4.2-1.1C48.4,54.1,49,53.8,50,53.3L50,53.3z"/>
	<path class="st1" d="M40.7,45c0.2-0.2,0.3-0.1,0.4,0.1c0.1,0.1,0.2,0.2,0.1,0.4c0,0.1,0,0.2-0.1,0.2C40.8,45.8,40.5,45.1,40.7,45
		L40.7,45z"/>
	<path class="st1" d="M49.5,35.9c0.5-0.4,1.4-0.2,1.8,0.4c0.5,0.9-0.2,2-0.9,2.3C49.6,39,49,39,48.2,39.3c-0.4-0.7-0.8-1.1-1.1-1.7
		c-0.3-0.6-0.3-1.4,0.2-2c0.3-0.4,0.7-0.6,1.1-0.6C48.8,35,49.3,35.3,49.5,35.9L49.5,35.9z"/>
	<path class="st1" d="M48.7,35.5c-0.2-0.1-0.3-0.1-0.5-0.1c-0.3,0.1-0.1,0.4,0.1,0.3c0.1,0,0.2,0,0.2,0c0.1,0,0.2,0.1,0.3,0
		C48.8,35.6,48.8,35.5,48.7,35.5L48.7,35.5z"/>
	<path class="st1" d="M47.7,35.6c0.1,0,0.1,0.1,0.1,0.2c0,0.1-0.1,0.2-0.1,0.2c-0.1,0-0.1,0-0.2,0C47.4,36,47.6,35.6,47.7,35.6
		L47.7,35.6z"/>
	<path class="st7" d="M43.2,36.5c0.7-0.2,1.5,0.3,1.6,1.1c0.2,0.7-0.3,1.5-1.1,1.6c-0.7,0.2-1.5-0.3-1.6-1.1
		C42,37.3,42.5,36.6,43.2,36.5L43.2,36.5z"/>
	<path class="st7" d="M46.4,40.2c0.7-0.1,1.3,0.3,1.5,1c0.1,0.7-0.3,1.3-1,1.5s-1.3-0.3-1.5-1C45.3,40.9,45.8,40.3,46.4,40.2
		L46.4,40.2z"/>
	<path class="st7" d="M46.8,36.7c0.4-0.1,0.9,0.2,1,0.6c0.1,0.4-0.2,0.9-0.6,1c-0.4,0.1-0.9-0.2-1-0.6
		C46.1,37.2,46.4,36.8,46.8,36.7L46.8,36.7z"/>
	<path class="st1" d="M32,28.1c0.5-1,2.3-1.4,3.5-0.6c1.7,1.2,1.1,3.3,0.3,4.5c-1.1,1.6-2.2,1.9-3,2.9c-1.3-0.9-2.2-1.3-3.3-2.2
		c-1-0.7-1.6-1.9-1.3-3.4c0.2-0.8,0.7-1.5,1.4-1.8C30.3,27.3,31.1,27.3,32,28.1L32,28.1z"/>
	<path class="st1" d="M30.4,28.1c-0.4,0-0.6,0-1,0.3c-0.4,0.3,0.1,0.7,0.4,0.5c0.1-0.1,0.2-0.2,0.4-0.3c0.1-0.1,0.4-0.1,0.5-0.2
		C30.6,28.2,30.6,28.1,30.4,28.1L30.4,28.1z"/>
	<path class="st1" d="M28.8,29.1c0.3-0.1,0.3,0.1,0.3,0.4c0,0.2,0,0.3-0.1,0.4C29,30,28.9,30,28.8,30C28.5,30,28.6,29.2,28.8,29.1
		L28.8,29.1z"/>
	<path class="st6" d="M26.9,35.3c0.4,0,0.8,0.4,0.8,0.8c0,0.4-0.4,0.8-0.8,0.8c-0.4,0-0.8-0.4-0.8-0.8
		C26.1,35.7,26.5,35.3,26.9,35.3L26.9,35.3z"/>
	<path class="st6" d="M26.3,31.4c0.6,0,1,0.5,1,1c0,0.6-0.5,1-1,1c-0.6,0-1-0.5-1-1C25.3,31.9,25.7,31.4,26.3,31.4L26.3,31.4z"/>
	<path class="st6" d="M29.6,34.2c0.3,0,0.5,0.2,0.5,0.5c0,0.3-0.2,0.5-0.5,0.5c-0.3,0-0.5-0.2-0.5-0.5
		C29.1,34.4,29.3,34.2,29.6,34.2L29.6,34.2z"/>
	<path class="st8" d="M23,26.9c-0.8-0.9-3.2-1.7-5.2-1c0-1.1,0.1-2.6,1-2.9c1-0.4,1.7,0.4,1.7,1.7c0.1-0.6,0.4-1.7,1.3-2.3
		c0.8-0.6,2.2-0.7,2.5,0.4C24.6,23.8,23.9,25.8,23,26.9L23,26.9z"/>
	<path class="st1" d="M22.5,22.4c1.7-0.8,1.9,1.2,1.3,2.3C24,23.4,23.9,22.3,22.5,22.4L22.5,22.4z"/>
	<path class="st9" d="M21.4,23.1c-0.3,0.4-0.8,1.3-0.8,2.3c0.4-0.2,2.1,0.8,2,0.9c-0.2-0.7-1-1.1-1.3-1.6
		C21.2,24.3,21.3,23.8,21.4,23.1L21.4,23.1z"/>
	<path class="st9" d="M18.3,23.7C18.1,24,18,25,18.1,25.6c0.3-0.1,1.5-0.3,1.4-0.3c-0.4-0.2-0.8,0-1-0.5
		C18.3,24.5,18.3,24.1,18.3,23.7L18.3,23.7z"/>
	<path class="st1" d="M22.9,22.9c0.3,0,0.5,0.3,0.5,0.6c0,0.3-0.3,0.6-0.6,0.6c-0.3,0-0.5-0.3-0.5-0.6
		C22.4,23.2,22.6,22.9,22.9,22.9L22.9,22.9z"/>
	<path class="st1" d="M19.4,23.5c0.2,0,0.4,0.2,0.4,0.4c0,0.2-0.2,0.4-0.4,0.4c-0.2,0-0.4-0.2-0.4-0.4
		C19.1,23.6,19.2,23.5,19.4,23.5L19.4,23.5z"/>
	<linearGradient id="SVGID_6_" gradientUnits="userSpaceOnUse" x1="40.6058" y1="31.875" x2="50.3398" y2="31.875">
		<stop  offset="0" style="stop-color:#B2C0CE"/>
		<stop  offset="1" style="stop-color:#91A2B1"/>
	</linearGradient>
	<path class="st10" d="M40.7,30.4c-0.3,1-0.2,1.9,1.1,2.3c1.1,0.3,2.1-0.7,2.9-0.2c1,0.6,1.5,1.3,2.9,1.2c1.3-0.1,2.4-1.3,2.8-2.5
		C47.4,29.8,44,29.8,40.7,30.4L40.7,30.4z"/>
	<linearGradient id="SVGID_7_" gradientUnits="userSpaceOnUse" x1="53.5369" y1="41.2288" x2="57.7835" y2="41.2288">
		<stop  offset="0" style="stop-color:#B2C0CE"/>
		<stop  offset="1" style="stop-color:#91A2B1"/>
	</linearGradient>
	<path class="st11" d="M56.5,36.6c-0.6,0.1-1.1,0.4-1.4,0.9c-1.2,1.7,2,4.1-0.2,5.8c-2.8,2.1-0.6,3.3,1.8,2.3c0.2-0.1,0.6,0.1,0.8,0
		c0.1-0.1,0.2-0.1,0.3-0.2C57.9,42.5,57.3,39.1,56.5,36.6L56.5,36.6z"/>
	<linearGradient id="SVGID_8_" gradientUnits="userSpaceOnUse" x1="51.2461" y1="53.191" x2="57.416" y2="53.191">
		<stop  offset="0" style="stop-color:#B2C0CE"/>
		<stop  offset="1" style="stop-color:#91A2B1"/>
	</linearGradient>
	<path class="st12" d="M53.3,50.8c0.8-0.3,1.5-0.2,1.7,1c0.2,1.4-0.9,2,1.1,2.6c0.7,0.2,1.2,0.6,1.3,1.1c-2.6,0.6-5.4-0.2-6.2-2.9
		C51.9,52.1,52.7,51.5,53.3,50.8L53.3,50.8z"/>
	<linearGradient id="SVGID_9_" gradientUnits="userSpaceOnUse" x1="30.8986" y1="56.7455" x2="37.2552" y2="56.7455">
		<stop  offset="0" style="stop-color:#B2C0CE"/>
		<stop  offset="1" style="stop-color:#91A2B1"/>
	</linearGradient>
	<path class="st13" d="M35.2,52.4c0.9,0,1.6,0.6,1.5,2.1c0,1-2.2,1.7-1.5,2.7c0.8,1.2,2.2,1,2.1,2.9c0,0.3-0.1,0.6-0.2,0.9
		c-0.1,0-0.1,0-0.2,0c-2.2,0.2-6-1.5-5.9-4.3C31,54.4,33.8,53.8,35.2,52.4L35.2,52.4z"/>
	<linearGradient id="SVGID_10_" gradientUnits="userSpaceOnUse" x1="15.6385" y1="13.7705" x2="19.4902" y2="13.7705">
		<stop  offset="0" style="stop-color:#B2C0CE"/>
		<stop  offset="1" style="stop-color:#91A2B1"/>
	</linearGradient>
	<path class="st14" d="M18.6,10.3c0.7,0.4,1,0.9,0,1.9c-0.3,0.3-1.4,1.3-0.7,1.7c0.4,0.3,1,0.4,1.5,0.6c-0.4,1.1-0.7,2.1-1.2,2.4
		c-1.1,0.7-2.4,0.3-2.6-1C15.4,14.1,16.7,11.7,18.6,10.3L18.6,10.3z"/>
	<linearGradient id="SVGID_11_" gradientUnits="userSpaceOnUse" x1="9.1992" y1="28.1172" x2="15.422" y2="28.1172">
		<stop  offset="0" style="stop-color:#B2C0CE"/>
		<stop  offset="1" style="stop-color:#91A2B1"/>
	</linearGradient>
	<path class="st15" d="M14.8,24c0.5,0.7,0.9,1.6,0.4,2.1c-0.4,0.4-1.4,0.8-1.6,1.2c-0.4,1.3,3.3,2.3,0.3,3.8c-0.9,0.5-1.9,0.6-3,0.6
		c-0.5,0-1.2,0.2-1.8,0.5C10.2,29.1,12.2,26.1,14.8,24L14.8,24z"/>
	<path class="st1" d="M10.3,34.6c2.3-0.1,6.2-0.6,8.7,2.4c-0.1,0.1-0.6,0.4-1.7,1.4C17,36.6,12,34.6,10.3,34.6L10.3,34.6z"/>
	<linearGradient id="SVGID_12_" gradientUnits="userSpaceOnUse" x1="35.0527" y1="18.7369" x2="39.8825" y2="18.7369">
		<stop  offset="0" style="stop-color:#B2C0CE"/>
		<stop  offset="1" style="stop-color:#91A2B1"/>
	</linearGradient>
	<path class="st16" d="M39.6,15.7c0.3,1,0.4,2.1,0.2,3.1c-1.2,0.7-2.4,1.8-3.7,2.9c-0.2-0.2-0.9-1-1-1.3
		C36.3,18.9,37.7,16.9,39.6,15.7L39.6,15.7z"/>
</g>
</svg>
