<?xml version="1.0" encoding="utf-8"?>
<!-- Generator: Adobe Illustrator 21.0.2, SVG Export Plug-In . SVG Version: 6.00 Build 0)  -->
<svg version="1.1" id="Слой_1" xmlns="http://www.w3.org/2000/svg" xmlns:xlink="http://www.w3.org/1999/xlink" x="0px" y="0px"
	 viewBox="0 0 70 70" style="enable-background:new 0 0 70 70;" xml:space="preserve">
<style type="text/css">
	.st0{fill-rule:evenodd;clip-rule:evenodd;fill:url(#SVGID_1_);}
	.st1{fill-rule:evenodd;clip-rule:evenodd;fill:url(#SVGID_2_);}
	.st2{fill-rule:evenodd;clip-rule:evenodd;fill:url(#SVGID_3_);}
	.st3{fill-rule:evenodd;clip-rule:evenodd;fill:url(#SVGID_4_);}
	.st4{fill-rule:evenodd;clip-rule:evenodd;fill:url(#SVGID_5_);}
	.st5{fill-rule:evenodd;clip-rule:evenodd;fill:url(#SVGID_6_);}
	.st6{fill-rule:evenodd;clip-rule:evenodd;fill:url(#SVGID_7_);}
	.st7{fill-rule:evenodd;clip-rule:evenodd;fill:url(#SVGID_8_);}
	.st8{fill-rule:evenodd;clip-rule:evenodd;fill:url(#SVGID_9_);}
	.st9{fill-rule:evenodd;clip-rule:evenodd;fill:#201600;}
	.st10{fill-rule:evenodd;clip-rule:evenodd;fill:#FFFFFF;}
	.st11{fill-rule:evenodd;clip-rule:evenodd;fill:#505258;}
	.st12{fill-rule:evenodd;clip-rule:evenodd;fill:url(#SVGID_10_);}
	.st13{fill-rule:evenodd;clip-rule:evenodd;fill:url(#SVGID_11_);}
	.st14{fill-rule:evenodd;clip-rule:evenodd;fill:url(#SVGID_12_);}
	.st15{fill-rule:evenodd;clip-rule:evenodd;fill:url(#SVGID_13_);}
	.st16{fill-rule:evenodd;clip-rule:evenodd;fill:url(#SVGID_14_);}
	.st17{fill-rule:evenodd;clip-rule:evenodd;fill:url(#SVGID_15_);}
</style>
<linearGradient id="SVGID_1_" gradientUnits="userSpaceOnUse" x1="8.903" y1="35.04" x2="62.5213" y2="35.04">
	<stop  offset="0" style="stop-color:#B6C953"/>
	<stop  offset="1" style="stop-color:#769757"/>
</linearGradient>
<path class="st0" d="M34.8,2.6c0.8,2.1,0.6,5.4-0.1,7.4c4.9,4.8,6.9,13,3.8,19.9c-2,4.3,1.7,6.7,4.9,7.5c2.8,0.7,6.2-0.4,7-0.4
	c0.6,1.2,0,4.6-0.5,6.2c4.8,1.2,9-0.6,12.5-3.4c1.1,8.1-7.2,16.2-12.4,18c-0.5,2-0.9,4.4-2.1,6.1c-3.7,3.4-9.6,4.7-14.8,2.8
	c-0.3-0.4-0.5-1.4-0.7-1.9c-3,1.1-6.6,0.1-8.1-1.6c0.3-2.5,2.3-4.4,2.6-4.7c-3-1.9-4.4-3.6-5.7-5.5c-2.4,0.8-7.7-0.6-8.3-7.3
	c2.7,0,5.9-1.5,6.7-3.8c-6.4-0.2-10.5-5.1-10.7-12.1c-0.3-8.8,6.8-15.4,10.8-18.6c2.1-2.2,3.8-6.7,4-8.2c2,2.1,2.6,4.4,2.4,6.3
	c2.2,0.2,4.1-0.5,5.5-1.7C32.5,6.8,34.3,4,34.8,2.6L34.8,2.6z"/>
<linearGradient id="SVGID_2_" gradientUnits="userSpaceOnUse" x1="21.0576" y1="8.5997" x2="24.1588" y2="8.5997">
	<stop  offset="0" style="stop-color:#EFEB77"/>
	<stop  offset="1" style="stop-color:#C9D068"/>
</linearGradient>
<path class="st1" d="M23.4,6.5c0.7,0.6,0.9,2,0.7,3.3c-0.9,0.4-1.9,0.7-3,1C21.9,9.4,22.8,8.1,23.4,6.5L23.4,6.5z"/>
<linearGradient id="SVGID_3_" gradientUnits="userSpaceOnUse" x1="9.8283" y1="23.8729" x2="37.6039" y2="23.8729">
	<stop  offset="0" style="stop-color:#EFEB77"/>
	<stop  offset="1" style="stop-color:#C9D068"/>
</linearGradient>
<path class="st2" d="M32,36.2c0.4-1.6,1-5.2,0.1-8c0.1,0,1.2-0.5,1.6,0.1c-0.1-1.9-4.4-1.9-3.9,0.6c0.8,0.1,0.9-0.5,1.3-0.7
	c1.5,4.9-0.5,8.4-3.6,10.4c-6.6,4.2-15.8,1.6-17.4-6.6c-1.3-7.1,2.5-14,8-18.2c2.8-2.2,6.2-3.6,10.8-3.6c1.7-0.7,3-1.8,4.2-3
	c0.7,0.9,0.4,3.7,0.6,5c0.8,1,1.9,2.9,2.8,5.1c0.9,2.3,1.3,5,1.2,7.8C37.4,30.2,35.2,33.1,32,36.2L32,36.2z"/>
<linearGradient id="SVGID_4_" gradientUnits="userSpaceOnUse" x1="39.2305" y1="28.8975" x2="54.7939" y2="28.8975">
	<stop  offset="0" style="stop-color:#B6C953"/>
	<stop  offset="1" style="stop-color:#769757"/>
</linearGradient>
<path class="st3" d="M39.2,35.1c1.9-7.8,6.1-12.3,9.1-13.9c6.2,3.2,6.6,13.4,6.4,15.4c-0.6-1.6-1.6-5.5-4.2-5.9
	c-2-0.3-3.1,2.9-3.3,3.1c-0.4-1.4-0.9-2.8-2-3.1C42.3,30,39.4,34.9,39.2,35.1L39.2,35.1z"/>
<linearGradient id="SVGID_5_" gradientUnits="userSpaceOnUse" x1="41.4492" y1="26.936" x2="53.4492" y2="26.936">
	<stop  offset="0" style="stop-color:#D1DB4E"/>
	<stop  offset="1" style="stop-color:#A6B855"/>
</linearGradient>
<path class="st4" d="M53.4,31.1c-1.6-2.4-4.9-2-6.1,0.5c-0.6-3.5-4.7-2.5-5.9-0.1c1.7-3.6,3.7-7.1,7.1-9.3
	C51.5,24,52.4,27.6,53.4,31.1L53.4,31.1z"/>
<linearGradient id="SVGID_6_" gradientUnits="userSpaceOnUse" x1="20.7443" y1="30.8975" x2="24.5447" y2="30.8975">
	<stop  offset="0" style="stop-color:#B6C953"/>
	<stop  offset="1" style="stop-color:#769757"/>
</linearGradient>
<path class="st5" d="M23.2,28.8c2.6,0.7,1,4.8-1.1,4.2C20,32.5,20.3,28,23.2,28.8L23.2,28.8z"/>
<linearGradient id="SVGID_7_" gradientUnits="userSpaceOnUse" x1="14.5957" y1="47.1563" x2="20.3027" y2="47.1563">
	<stop  offset="0" style="stop-color:#EFEB77"/>
	<stop  offset="1" style="stop-color:#C9D068"/>
</linearGradient>
<path class="st6" d="M20.3,42.9c-0.6,1.4-1,5.6-0.6,8.5c-2.6,0.6-5.1-2.3-5.1-4.5C16.7,46,18.9,44.7,20.3,42.9L20.3,42.9z"/>
<linearGradient id="SVGID_8_" gradientUnits="userSpaceOnUse" x1="25.7793" y1="61.6737" x2="34.2041" y2="61.6737">
	<stop  offset="0" style="stop-color:#EFEB77"/>
	<stop  offset="1" style="stop-color:#C9D068"/>
</linearGradient>
<path class="st7" d="M34.2,60.2c-0.6,1.2-1.8,1.7-1.7,3.7c-2.3,0.8-5.4-0.1-6.7-1.4c0.7-1.4,1.1-2.3,2.2-3.3
	C29.3,59.4,30.4,60.1,34.2,60.2L34.2,60.2z"/>
<linearGradient id="SVGID_9_" gradientUnits="userSpaceOnUse" x1="21.2001" y1="49.4649" x2="61.1689" y2="49.4649">
	<stop  offset="0" style="stop-color:#EFEB77"/>
	<stop  offset="1" style="stop-color:#C9D068"/>
</linearGradient>
<path class="st8" d="M61.2,42.1c-1.4,6.8-6,12-11.5,14.4c-0.6-0.9-2-2.1-2.9-1.9c1.4,3.4,0.5,6.6-0.6,8.7c-2.9,2.4-8.1,3.2-12.4,1.8
	c-1.6-3,3-5.3,3.6-7.8c0.1-0.5-0.3-1.9-1.6-1.6c0.5,0.7,0.8,1.4,0.3,2.3c-8.5,0.9-17.8-5.8-14-16.3c6.4-0.3,10.2-5,14.7-8.8
	c1.3,5.8,7.3,6.3,12.1,6c-0.2,3.2-1.1,5.9-3.3,7.6c-3.6,0.7-7-2.5-9.1-1.5c2.2,1.2,4,2.5,6.2,2.8c2.9,0.4,5.5-1,7-3.5
	C54,45.2,58.2,44.4,61.2,42.1L61.2,42.1z"/>
<path class="st9" d="M23.6,18.5c-0.9-0.9-3.3-1.6-5.3-0.7c0-1.1,0-2.6,0.9-3c1-0.4,1.8,0.4,1.8,1.6c0.1-0.6,0.4-1.7,1.2-2.4
	c0.8-0.7,2.1-0.8,2.5,0.3C25.2,15.3,24.5,17.4,23.6,18.5L23.6,18.5z"/>
<path class="st10" d="M22.9,14c1.7-0.9,2,1.1,1.4,2.2C24.5,15,24.4,13.9,22.9,14L22.9,14z"/>
<path class="st11" d="M21.9,14.8c-0.3,0.4-0.7,1.4-0.7,2.3c0.4-0.2,2.2,0.8,2,0.9c-0.3-0.7-1.1-1-1.3-1.6
	C21.7,16,21.8,15.5,21.9,14.8L21.9,14.8z"/>
<path class="st11" d="M18.9,15.5c-0.3,0.3-0.3,1.3-0.2,2c0.3-0.1,1.5-0.4,1.4-0.3c-0.4-0.2-0.8,0-1-0.5
	C18.9,16.3,18.8,15.9,18.9,15.5L18.9,15.5z"/>
<path class="st10" d="M23.4,14.6c0.3,0,0.5,0.3,0.5,0.6c0,0.3-0.2,0.6-0.5,0.6c-0.3,0-0.5-0.3-0.5-0.6
	C22.9,14.8,23.1,14.6,23.4,14.6L23.4,14.6z"/>
<path class="st10" d="M19.9,15.3c0.2,0,0.4,0.2,0.4,0.4c0,0.2-0.2,0.4-0.4,0.4c-0.2,0-0.4-0.2-0.4-0.4
	C19.6,15.4,19.7,15.2,19.9,15.3L19.9,15.3z"/>
<path class="st10" d="M31.8,43.9c0.8-0.1,1.4,0.5,1.5,1.2c0.1,0.8-0.5,1.4-1.2,1.5c-0.8,0.1-1.4-0.5-1.5-1.2
	C30.5,44.7,31.1,44,31.8,43.9L31.8,43.9z"/>
<path class="st10" d="M33.8,50.7c0.7-0.1,1.3,0.4,1.3,1.1c0.1,0.7-0.4,1.3-1.1,1.3c-0.7,0.1-1.3-0.4-1.3-1.1
	C32.6,51.4,33.1,50.8,33.8,50.7L33.8,50.7z"/>
<path class="st10" d="M30.3,48.6c0.5,0,0.8,0.3,0.9,0.7c0,0.4-0.3,0.8-0.7,0.9c-0.5,0-0.8-0.3-0.9-0.7
	C29.5,49.1,29.8,48.7,30.3,48.6L30.3,48.6z"/>
<path class="st10" d="M26.6,25.4c0.4,0,0.8,0.4,0.8,0.8c0,0.4-0.4,0.8-0.8,0.8c-0.4,0-0.8-0.4-0.8-0.8
	C25.8,25.7,26.2,25.4,26.6,25.4L26.6,25.4z"/>
<path class="st10" d="M28.2,20.7c0.6,0,1,0.5,1,1c0,0.6-0.5,1-1,1c-0.6,0-1-0.5-1-1C27.2,21.2,27.6,20.7,28.2,20.7L28.2,20.7z"/>
<path class="st10" d="M29.3,24.3c0.3,0,0.5,0.2,0.5,0.5c0,0.3-0.2,0.5-0.5,0.5c-0.3,0-0.5-0.2-0.5-0.5C28.8,24.5,29,24.3,29.3,24.3
	L29.3,24.3z"/>
<path class="st10" d="M26.8,10.3c-4.3,1.6-7.8,3.3-11.5,7.9c-5.6,7-6.2,15.2-0.5,20.8c-2.3-1.4-4.1-3.8-4.7-7
	c-1.3-7.1,2.5-14,8-18.2C20.4,12,23.3,10.7,26.8,10.3L26.8,10.3z"/>
<linearGradient id="SVGID_10_" gradientUnits="userSpaceOnUse" x1="11.1561" y1="29.0455" x2="14.1907" y2="29.0455">
	<stop  offset="0" style="stop-color:#B6C953"/>
	<stop  offset="1" style="stop-color:#769757"/>
</linearGradient>
<path class="st12" d="M12.6,27c1.9-0.2,2.4,4.5-0.2,4C10.7,30.7,10.7,27.2,12.6,27L12.6,27z"/>
<linearGradient id="SVGID_11_" gradientUnits="userSpaceOnUse" x1="18.1533" y1="29.2095" x2="37.604" y2="29.2095">
	<stop  offset="0" style="stop-color:#D1DB4E"/>
	<stop  offset="1" style="stop-color:#A6B855"/>
</linearGradient>
<path class="st13" d="M18.2,40.3c4.9-0.5,9.7-3.2,13.2-7c-0.5,2.3-2,4.1-3.9,5.3C24.6,40.5,21.2,41,18.2,40.3L18.2,40.3z M32.5,32
	c2.5-3.2,4.1-7.1,4.2-11.1c0-0.4-0.1-1.7-0.1-3c0.8,2.2,1.1,4.7,1,7.2c-0.2,5.2-2.4,8.1-5.6,11.2C32.2,35.3,32.5,33.7,32.5,32
	L32.5,32z"/>
<linearGradient id="SVGID_12_" gradientUnits="userSpaceOnUse" x1="38.4473" y1="53.9942" x2="61.1689" y2="53.9942">
	<stop  offset="0" style="stop-color:#D1DB4E"/>
	<stop  offset="1" style="stop-color:#A6B855"/>
</linearGradient>
<path class="st14" d="M38.4,65.9c10-5.9,3.4-10.3,7-11.8c6.2-2.4,6.1-8.1,4.7-9.6c4.2,0.6,8.1-0.2,11-2.4c-1.4,6.8-6,12-11.5,14.4
	c-0.6-0.9-2-2.1-2.9-1.9c1.4,3.4,0.5,6.6-0.6,8.7C44.3,64.9,41.4,65.8,38.4,65.9L38.4,65.9z"/>
<linearGradient id="SVGID_13_" gradientUnits="userSpaceOnUse" x1="14.5977" y1="49.1572" x2="19.7148" y2="49.1572">
	<stop  offset="0" style="stop-color:#D1DB4E"/>
	<stop  offset="1" style="stop-color:#A6B855"/>
</linearGradient>
<path class="st15" d="M14.6,46.9c0.9,1.6,3.1,1.8,4.9,1.9c0,0.9,0.1,1.8,0.2,2.6C17.2,51.9,14.7,49.1,14.6,46.9L14.6,46.9z"/>
<linearGradient id="SVGID_14_" gradientUnits="userSpaceOnUse" x1="37.2432" y1="42.9288" x2="48.833" y2="42.9288">
	<stop  offset="0" style="stop-color:#D1DB4E"/>
	<stop  offset="1" style="stop-color:#A6B855"/>
</linearGradient>
<path class="st16" d="M37.2,44.9c0,0,0.1,0,0.1,0C37.3,44.9,37.3,45,37.2,44.9C37.2,44.9,37.2,44.9,37.2,44.9L37.2,44.9z M38.7,45.2
	c3.5,0.3,7.1-1.3,7.8-5.3c0-0.2,0-0.4,0-0.7c0.8,0,1.6,0,2.4-0.1c-0.2,3.2-1.1,5.9-3.3,7.6C43,47.1,40.6,45.7,38.7,45.2L38.7,45.2z"
	/>
<linearGradient id="SVGID_15_" gradientUnits="userSpaceOnUse" x1="24.6973" y1="56.3617" x2="36.304" y2="56.3617">
	<stop  offset="0" style="stop-color:#D1DB4E"/>
	<stop  offset="1" style="stop-color:#A6B855"/>
</linearGradient>
<path class="st17" d="M24.7,54.5c2.6,1.4,5,2,8.3,1.7c1.1-0.1,2.1-0.6,2.9-0.4c-0.1,0-0.1,0-0.2,0c0.5,0.7,0.8,1.4,0.3,2.3
	C31.9,58.6,27.6,57.2,24.7,54.5L24.7,54.5z"/>
<path class="st10" d="M24.1,53.9c0-0.2,0-0.5-0.1-0.6c-2.4-2.9-2.6-6.4-1-10c0.4-0.9,1.1-1.2,0.9-1.5c-0.6,0.1-1.1,0.2-1.7,0.2
	C20.3,46.9,21.4,51,24.1,53.9L24.1,53.9z"/>
<path class="st10" d="M37.1,58c0.9-0.5,1.3,0.1,0.2,1.9c-1.4,2.3-0.4,3.5-0.5,5.9c0,0,0,0,0,0c-1-0.1-2.1-0.3-3.1-0.6
	C32.2,62.5,36,60.3,37.1,58L37.1,58z"/>
<path class="st10" d="M29.2,59.5c0.4,0.3,0.6,0.6,0.5,1c-0.3,0.8-1.4,0.3-1.6,1.8c-0.1,0.6,0,1.1,0.2,1.6c-1-0.3-1.9-0.8-2.5-1.4
	c0.7-1.4,1.1-2.3,2.2-3.3C28.4,59.2,28.8,59.4,29.2,59.5L29.2,59.5z"/>
</svg>
