<?xml version="1.0" encoding="utf-8"?>
<!-- Generator: Adobe Illustrator 21.0.2, SVG Export Plug-In . SVG Version: 6.00 Build 0)  -->
<svg version="1.1" id="Слой_1" xmlns="http://www.w3.org/2000/svg" xmlns:xlink="http://www.w3.org/1999/xlink" x="0px" y="0px"
	 viewBox="0 0 70 70" style="enable-background:new 0 0 70 70;" xml:space="preserve">
<style type="text/css">
	.st0{fill-rule:evenodd;clip-rule:evenodd;fill:url(#SVGID_1_);}
	.st1{fill-rule:evenodd;clip-rule:evenodd;fill:url(#SVGID_2_);}
	.st2{fill-rule:evenodd;clip-rule:evenodd;fill:url(#SVGID_3_);}
	.st3{fill-rule:evenodd;clip-rule:evenodd;fill:url(#SVGID_4_);}
	.st4{fill-rule:evenodd;clip-rule:evenodd;fill:#201600;}
	.st5{fill-rule:evenodd;clip-rule:evenodd;fill:#FFFFFF;}
	.st6{fill-rule:evenodd;clip-rule:evenodd;fill:#505258;}
	.st7{fill-rule:evenodd;clip-rule:evenodd;fill:url(#SVGID_5_);}
	.st8{fill-rule:evenodd;clip-rule:evenodd;fill:url(#SVGID_6_);}
	.st9{fill-rule:evenodd;clip-rule:evenodd;fill:url(#SVGID_7_);}
	.st10{fill-rule:evenodd;clip-rule:evenodd;fill:url(#SVGID_8_);}
	.st11{fill-rule:evenodd;clip-rule:evenodd;fill:url(#SVGID_9_);}
	.st12{fill-rule:evenodd;clip-rule:evenodd;fill:url(#SVGID_10_);}
	.st13{fill-rule:evenodd;clip-rule:evenodd;fill:url(#SVGID_11_);}
</style>
<linearGradient id="SVGID_1_" gradientUnits="userSpaceOnUse" x1="1.4068" y1="35.9147" x2="68.3809" y2="35.9147">
	<stop  offset="0" style="stop-color:#8E89C0"/>
	<stop  offset="1" style="stop-color:#7F80BA"/>
</linearGradient>
<path class="st0" d="M6.8,26.8C5,24.6,5,21.4,6.9,19.7c1.3-1.2,5.2-0.5,5.6-2.3c0.6-2.5-0.9-4.7-0.7-7c0.2-2.5,1.1-4.7,3.2-6.2
	c3.3-2.6,6.7-2.1,8.4,0.4c0.9,1.4,1.3,3.6,0.9,5.9c-0.4,2.5-1.4,5.1,0,7.4c2.5,0.1,4.6-0.2,6.6,0.6c1.7-3.9,4-6.7,7.4-9
	c1.9-1.3,5.2-2,7.8-1.6c5.6,0.9,3.7,6,1.5,9.2c-1.4,2-3.2,3.8-4.9,5.8c10.4,0.5,18.2,9,20.7,18.8c0.4,1.5,0.8,2.8,2.1,3.4
	c1.4,0.4,2.2-0.3,3-0.8c-0.7,1.9-2,3.8-4.5,3.8c0.2,8.3-6.8,15.5-14.5,11.3c-0.2-0.5-0.4-1.6-0.5-2.7c-1.1,0.3-2.5,0.6-3.7,1
	c0.7,2.6,0.1,4.7-0.6,6.8c-2.9,2.3-12.8,3-13.6-2.3c-6.6,0.4-9.7-5.5-5.4-9.8c-5.9,0.9-14.2,3.4-10,10c0.6,0.9,1.8,1,2.6,1.9
	c0,3-3.1,1.7-3,3.9c-0.8,2-2.8,1.4-3.8-0.2c-2.6-3.8-8.6-8.8-9.7-18.2C0.6,41.5,2.8,32.4,6.8,26.8L6.8,26.8z"/>
<linearGradient id="SVGID_2_" gradientUnits="userSpaceOnUse" x1="2.5477" y1="38.7045" x2="47.9147" y2="38.7045">
	<stop  offset="0" style="stop-color:#DADCEF"/>
	<stop  offset="1" style="stop-color:#B0ADD6"/>
</linearGradient>
<path class="st1" d="M3,50.6c1.4,8.8,7.3,12.7,9.2,15.8c1.9,4.1,2.4-1.2,5.1-1.6c-5.1-3.1-4.3-9.2,0.8-11.6c1-0.5,7.4-1.5,10.9-4.6
	c1.7-1.5,3.3-4.9,2.2-6.6c-0.2,0.1-0.7,0.2-0.8-0.1c0.1-1.3,2.4-1.7,3-0.6c-0.3,0.5-0.5,0.7-1,0.9c0.5,2.1-0.4,3.7-1,5.4
	c3.6-1.7,6.2-6,4.9-10.6c4.9,7.9,6.3,1.3,4.9-3.4c-0.6-2-1.7-4.9-1.6-5.7c0.4-5.6,4.9-8.2,7.2-12.2c3.9-6.9-2.9-7.4-7.3-4.8
	c-4.3,2.5-6.8,7.2-7.8,11.8c-0.7-0.2-1.8-0.7-1.5-2c-5.2-1.5-10.7-1.1-15.3,0.9C4.2,26.3,1.3,39.9,3,50.6L3,50.6z"/>
<linearGradient id="SVGID_3_" gradientUnits="userSpaceOnUse" x1="6.7376" y1="14.8041" x2="23.1738" y2="14.8041">
	<stop  offset="0" style="stop-color:#DADCEF"/>
	<stop  offset="1" style="stop-color:#B0ADD6"/>
</linearGradient>
<path class="st2" d="M22.7,6.6c-1.9-6.2-8.8-0.5-9.3,3.6c-0.2,1.6,0.2,4,0.4,5.6c0.5,3.9-3.5,4.3-5.7,5.6c-1.3,0.8-2,1.9-0.7,4.4
	c3.7-4.3,8.6-7.3,15.7-7.9C21.4,14.2,23.8,10.2,22.7,6.6L22.7,6.6z"/>
<linearGradient id="SVGID_4_" gradientUnits="userSpaceOnUse" x1="24.7556" y1="44.3513" x2="66.959" y2="44.3513">
	<stop  offset="0" style="stop-color:#DADCEF"/>
	<stop  offset="1" style="stop-color:#B0ADD6"/>
</linearGradient>
<path class="st3" d="M31.3,59.9c0.9-1,1-2.6,0.8-3.2c-0.6-1.4-3.7-1.3-3.1-3.3c3.2,1.4,4.5,2.6,4.5,4.7c0,1.4-1.6,2.7-1.4,4.2
	c0.4,3.4,7.1,2.9,10,1.5c3.1-3.9,0.1-10-0.7-11.5c1.6,0.9,2.9,2.2,3.5,4.2c5.9-1.1,4.8-4.6,8.4-6.1c1.1,0.4-3.7,3.6-3,6.7
	c1.7,1.4,4.1,1.1,6.1,0.2c5-2.1,5.2-5,6.8-10.8c1.1,1,3.1,0.4,3.8-0.6c-3.2,0.5-4.3-1.8-4.6-4.5c-2.8-9.4-9.3-17.1-20.1-17.5
	c-4,5,3.3,12.8,0.5,17.1c-0.9,1.3-3.7,1.8-4.9,0.6c-1.3,4.9-6,8.9-11.1,10.4C22.7,55.1,25,61.7,31.3,59.9L31.3,59.9z"/>
<path class="st4" d="M13.8,32.1c-0.9-0.9-3.3-1.6-5.3-0.7c0-1.1-0.1-2.6,0.9-3c1-0.4,1.8,0.3,1.8,1.6c0.1-0.6,0.4-1.7,1.2-2.4
	c0.8-0.7,2.1-0.8,2.5,0.3C15.3,28.9,14.7,31,13.8,32.1L13.8,32.1z"/>
<path class="st5" d="M13.1,27.6c1.7-0.9,2,1.1,1.4,2.2C14.6,28.6,14.5,27.5,13.1,27.6L13.1,27.6z"/>
<path class="st6" d="M12.1,28.4c-0.3,0.4-0.7,1.4-0.6,2.3c0.4-0.2,2.2,0.7,2,0.8c-0.3-0.7-1.1-1-1.3-1.5
	C11.9,29.6,12,29.1,12.1,28.4L12.1,28.4z"/>
<path class="st6" d="M9,29.1c-0.3,0.3-0.3,1.3-0.2,2c0.3-0.1,1.5-0.4,1.4-0.3c-0.4-0.2-0.8,0-1-0.5C9,29.9,9,29.6,9,29.1L9,29.1z"/>
<path class="st5" d="M13.6,28.2c0.3,0,0.5,0.3,0.5,0.6c0,0.3-0.2,0.6-0.5,0.6c-0.3,0-0.5-0.3-0.5-0.6C13,28.4,13.3,28.2,13.6,28.2
	L13.6,28.2z"/>
<path class="st5" d="M10.1,28.9c0.2,0,0.4,0.2,0.4,0.4c0,0.2-0.2,0.4-0.4,0.4c-0.2,0-0.4-0.2-0.4-0.4C9.7,29.1,9.9,28.9,10.1,28.9
	L10.1,28.9z"/>
<path class="st5" d="M48.9,34.5c0.8,0,1.4,0.6,1.4,1.4c0,0.8-0.6,1.4-1.4,1.4c-0.8,0-1.4-0.6-1.4-1.4C47.5,35.1,48.1,34.5,48.9,34.5
	L48.9,34.5z"/>
<path class="st5" d="M52.9,34.5c0.7,0,1.2,0.6,1.2,1.2c0,0.7-0.6,1.2-1.2,1.2c-0.7,0-1.2-0.6-1.2-1.2C51.7,35.1,52.2,34.5,52.9,34.5
	L52.9,34.5z"/>
<path class="st5" d="M53.4,39.9c0.5,0,0.8,0.4,0.8,0.8c0,0.5-0.4,0.8-0.8,0.8c-0.5,0-0.8-0.4-0.8-0.8C52.6,40.2,53,39.9,53.4,39.9
	L53.4,39.9z"/>
<path class="st5" d="M25.6,39.2c0.4,0,0.8,0.4,0.8,0.8c0,0.4-0.4,0.8-0.8,0.8c-0.4,0-0.8-0.4-0.8-0.8C24.8,39.6,25.1,39.2,25.6,39.2
	L25.6,39.2z"/>
<path class="st5" d="M25,35.3c0.6,0,1,0.5,1,1c0,0.6-0.5,1-1,1c-0.6,0-1-0.5-1-1C23.9,35.8,24.4,35.3,25,35.3L25,35.3z"/>
<path class="st5" d="M28.2,38.1c0.3,0,0.5,0.2,0.5,0.5c0,0.3-0.2,0.5-0.5,0.5c-0.3,0-0.5-0.2-0.5-0.5C27.8,38.3,28,38.1,28.2,38.1
	L28.2,38.1z"/>
<linearGradient id="SVGID_5_" gradientUnits="userSpaceOnUse" x1="41.7344" y1="44.7914" x2="66.959" y2="44.7914">
	<stop  offset="0" style="stop-color:#B5AFD7"/>
	<stop  offset="1" style="stop-color:#9994C7"/>
</linearGradient>
<path class="st7" d="M41.7,52.3c7.5,0,13.2-3.6,15.3-8.8c1.4-3.5,1.4-7.8,0.4-11.9c2.2,2.8,3.8,6.1,4.9,9.7c0.3,2.7,1.5,5,4.6,4.5
	c-0.7,1-2.7,1.6-3.8,0.6c-1.6,5.9-1.8,8.7-6.8,10.8c-2,0.9-4.4,1.1-6.1-0.2c-0.7-3.1,4.1-6.3,3-6.7c-3.6,1.5-2.5,5.1-8.4,6.1
	c-0.5-1.6-1.5-2.8-2.8-3.7C42,52.5,41.9,52.4,41.7,52.3L41.7,52.3z"/>
<linearGradient id="SVGID_6_" gradientUnits="userSpaceOnUse" x1="33.3564" y1="22.952" x2="41.6826" y2="22.952">
	<stop  offset="0" style="stop-color:#B5AFD7"/>
	<stop  offset="1" style="stop-color:#9994C7"/>
</linearGradient>
<path class="st8" d="M33.4,25.8c0.6-3.5,3.3-11.7,7.8-11.7c1.5,0-0.8,3-1,3.3c-1.7,2.2-2.6,4.5-3.4,7.1c-0.8,2.4,4.5,10.3-0.3,6.2
	c-1.4-1.2-3.5-1.4-2.5-3.5c0.2-0.4,1.6-2.4,1.4-2.4C34.2,24.6,33.9,25.2,33.4,25.8L33.4,25.8z"/>
<path class="st5" d="M15.1,6.7c1.5-0.9,3.1-1.5,4.3,0.7c1.1,1.8,1,8.6,3.2,10.6c0.2,0,0.4,0,0.6-0.1c-1.7-3.7,0.6-7.7-0.5-11.3
	C21.4,2.2,17.4,3.8,15.1,6.7L15.1,6.7z"/>
<path class="st5" d="M31.6,22.6c0,0.1,0,0.1,0.1,0.2c0.1,0.1,3.4-6.9,5-8.5c5.6-5.6,9.4-1.3,5.2,4.7c-4.4,6.3-3.4,8.6-0.9,15.2
	c0.3,0.8,0.5,1.8,0.8,2.7c0-1.1-0.2-2.3-0.5-3.4c-0.6-2-1.7-4.9-1.6-5.7c0.4-5.6,4.9-8.2,7.2-12.2c3.9-6.9-2.9-7.4-7.3-4.8
	C35.1,13.4,32.7,18,31.6,22.6L31.6,22.6z"/>
<path class="st5" d="M27,20.1C15.6,20.2,9.7,24.9,6.2,31.7c-2.6,5.1-2.7,12.3-2.1,18c0.8,6.5,4.8,11.4,9.4,15.9l1.1,1.4
	c-0.8,1-1.4,1.5-2.4-0.7c-1.9-3.1-7.6-7-9.2-15.8C1.7,43.2,2.7,35.8,5.8,30C9.7,22.9,16.9,18.5,27,20.1L27,20.1z"/>
<linearGradient id="SVGID_7_" gradientUnits="userSpaceOnUse" x1="4.4473" y1="49.7704" x2="11.399" y2="49.7704">
	<stop  offset="0" style="stop-color:#B5AFD7"/>
	<stop  offset="1" style="stop-color:#9994C7"/>
</linearGradient>
<path class="st9" d="M4.4,50.2c2-1.1,3.4-1.2,5.4,0c0.5,0.3,1.6,2.1,1.5,1.3c0-1.1-0.5-2-1.3-2.8C8.1,46.9,5.5,48.4,4.4,50.2
	L4.4,50.2z"/>
<linearGradient id="SVGID_8_" gradientUnits="userSpaceOnUse" x1="5.6172" y1="54.2881" x2="9.9525" y2="54.2881">
	<stop  offset="0" style="stop-color:#B5AFD7"/>
	<stop  offset="1" style="stop-color:#9994C7"/>
</linearGradient>
<path class="st10" d="M5.6,55.2c1-0.9,1.9-1.2,3.2-0.8c0.3,0.1,1.2,1,1.1,0.6c-0.2-0.7-0.6-1.1-1.2-1.5C7.3,52.8,6,54,5.6,55.2
	L5.6,55.2z"/>
<linearGradient id="SVGID_9_" gradientUnits="userSpaceOnUse" x1="8.1201" y1="58.6505" x2="10.6262" y2="58.6505">
	<stop  offset="0" style="stop-color:#B5AFD7"/>
	<stop  offset="1" style="stop-color:#9994C7"/>
</linearGradient>
<path class="st11" d="M8.1,59.4c0.5-0.7,0.9-1,1.8-0.9c0.2,0,0.8,0.4,0.7,0.2c-0.2-0.4-0.5-0.6-0.9-0.7C8.8,57.7,8.2,58.6,8.1,59.4
	L8.1,59.4z"/>
<linearGradient id="SVGID_10_" gradientUnits="userSpaceOnUse" x1="3.8262" y1="43.5276" x2="13.1749" y2="43.5276">
	<stop  offset="0" style="stop-color:#B5AFD7"/>
	<stop  offset="1" style="stop-color:#9994C7"/>
</linearGradient>
<path class="st12" d="M3.8,44.8c2.5-1.8,4.3-2.1,7.1-0.8c0.7,0.3,2.4,2.5,2.2,1.5c-0.2-1.4-1-2.6-2.1-3.4C8.2,40,5,42.3,3.8,44.8
	L3.8,44.8z"/>
<linearGradient id="SVGID_11_" gradientUnits="userSpaceOnUse" x1="3.9268" y1="38.36" x2="15.5446" y2="38.36">
	<stop  offset="0" style="stop-color:#B5AFD7"/>
	<stop  offset="1" style="stop-color:#9994C7"/>
</linearGradient>
<path class="st13" d="M3.9,39.8c3.1-2.2,5.4-2.5,8.9-0.8c0.8,0.4,2.9,3.1,2.7,1.9c-0.2-1.8-1.2-3.2-2.6-4.3
	C9.4,33.9,5.4,36.7,3.9,39.8L3.9,39.8z"/>
<path class="st5" d="M25.7,53.1c0.7,0.5,0.8,2,0.5,3.8c-0.1,0.6-0.3,1.2-0.5,1.8C24.5,57.2,24.4,54.9,25.7,53.1L25.7,53.1z
	 M25.7,58.7c0.2-0.4,0.5-1,0.9-1.5c1.6-1.8,2.5,0.5,2.4,3C27.6,60.1,26.5,59.6,25.7,58.7L25.7,58.7z"/>
<path class="st5" d="M33.5,58.1c1.8-1.2,1.5,4.6,1.3,5.5c-0.1,0.4-0.2,0.7-0.2,0.9c-1.3-0.3-2.3-1.1-2.5-2.3
	C31.9,60.8,33.5,59.5,33.5,58.1L33.5,58.1z M34.8,64.6c0.5-1,1.3-2.9,1.9-3.4c1.3-1.1,2.6,1.3,3,3.3C38.1,64.8,36.2,64.9,34.8,64.6
	L34.8,64.6z"/>
</svg>
