<?xml version="1.0" encoding="utf-8"?>
<!-- Generator: Adobe Illustrator 21.0.2, SVG Export Plug-In . SVG Version: 6.00 Build 0)  -->
<svg version="1.1" id="Слой_1" xmlns="http://www.w3.org/2000/svg" xmlns:xlink="http://www.w3.org/1999/xlink" x="0px" y="0px"
	 viewBox="0 0 70 70" style="enable-background:new 0 0 70 70;" xml:space="preserve">
<style type="text/css">
	.st0{fill-rule:evenodd;clip-rule:evenodd;fill:#CA6F46;}
	.st1{fill-rule:evenodd;clip-rule:evenodd;fill:url(#SVGID_1_);}
	.st2{fill-rule:evenodd;clip-rule:evenodd;fill:url(#SVGID_2_);}
	.st3{fill-rule:evenodd;clip-rule:evenodd;fill:url(#SVGID_3_);}
	.st4{fill-rule:evenodd;clip-rule:evenodd;fill:url(#SVGID_4_);}
	.st5{fill-rule:evenodd;clip-rule:evenodd;fill:url(#SVGID_5_);}
	.st6{fill-rule:evenodd;clip-rule:evenodd;fill:url(#SVGID_6_);}
	.st7{fill-rule:evenodd;clip-rule:evenodd;fill:url(#SVGID_7_);}
	.st8{fill-rule:evenodd;clip-rule:evenodd;fill:url(#SVGID_8_);}
	.st9{fill-rule:evenodd;clip-rule:evenodd;fill:#201600;}
	.st10{fill-rule:evenodd;clip-rule:evenodd;fill:#FFFFFF;}
	.st11{fill-rule:evenodd;clip-rule:evenodd;fill:#505258;}
	.st12{fill-rule:evenodd;clip-rule:evenodd;fill:url(#SVGID_9_);}
	.st13{fill-rule:evenodd;clip-rule:evenodd;fill:url(#SVGID_10_);}
</style>
<g>
	<path class="st0" d="M15.2,10.1c1.8,2.5,6.9,3.7,9.7,1.2C24.1,7.5,17.7,7.1,15.2,10.1L15.2,10.1z"/>
	<linearGradient id="SVGID_1_" gradientUnits="userSpaceOnUse" x1="16.9506" y1="10.4634" x2="23.8085" y2="10.4634">
		<stop  offset="0" style="stop-color:#F7E146"/>
		<stop  offset="1" style="stop-color:#EBB445"/>
	</linearGradient>
	<path class="st1" d="M17,10.5c1.7,1.5,4.8,2.1,6.9,0.4C22.5,8.5,18.8,8.5,17,10.5L17,10.5z"/>
	<linearGradient id="SVGID_2_" gradientUnits="userSpaceOnUse" x1="10.9539" y1="35.621" x2="57.0211" y2="35.621">
		<stop  offset="0" style="stop-color:#E59C44"/>
		<stop  offset="1" style="stop-color:#D66744"/>
	</linearGradient>
	<path class="st2" d="M44,63c-0.6,0.2-2.1,0.4-2.9,0.2c-0.1,0.6,0.2,3.8-2.8,5.5c-2.5,1.4-6.1,1.3-7.8-1.2c-2.9,1.2-5.8-0.8-6.1-3.1
		c-0.3-2.8,3.8-5.2,3.3-8.3c-3.6-4.4-1.8-11.8-0.3-17.3c-4,1.9-10.3,1.3-13.4-2.1c-3.2-3.4-3.8-9.1-1.9-14.2
		c2-5.4,6.6-9.5,12.1-11.5c0.5-0.9,0.5-2.1,0.2-3.1c-3.4-1.4-2.6-4.8,0-5.9c3.8-1.7,6.5,3.6,2.9,5.4c-0.1,0.9,0.1,2.2,0.4,2.8
		c0.3,0,1.6,0,2.7,0.1c0.4-0.5,0.3-0.7,0.3-1.5c-1.6-1.1-1.6-2.4-1.2-3.7c0.6-2.1,3.1-3.2,5.3-1.9c0.9,0.3,1.4,1.4,1.5,2.5
		c0.2,1.5-0.5,3.2-2.1,3.4C33.7,10.2,33.8,11,34,12c4,2.8,5.4,9.9,3.9,15.6c-0.6,2.2-1.6,4.4-2,7.2c-0.3,1.9-0.4,4.4-0.4,6.3
		c5.4-0.8,9.2-0.1,11.2,2c3.1-0.5,5.8-2.4,6.4-3.3c-0.5-0.6-1.5-1.1-1.7-1.9c0.3-0.1,1.1,0.1,1.4,0.1c0-0.4,0.1-1.1,0.3-1.5
		c0.2,0.1,0.6,1,0.7,1.2c0.2-0.7,0.8-1.2,0.9-1.1c0.1,0.1,0.2,1.1,0.2,1.8c0.3-0.4,1-1.1,1.3-1.1c0,0.5-0.4,1.4-0.7,1.9
		c0.4,0.2,1.1,0.1,1.5,0.5c-0.1,0.2-1.1,0.5-1.8,0.6c0.3,0.5,0.7,1.1,0.8,1.5c-0.9-0.3-1.4-0.9-2-1.2c-1.5,1.6-2.9,3.7-4.2,5.5
		c4.7,5.5,7.6,18.2-0.9,20.2c-1.2,0.3-2.9,0.4-4-0.2C43.8,65.3,43.8,64,44,63L44,63z"/>
	<linearGradient id="SVGID_3_" gradientUnits="userSpaceOnUse" x1="22.9029" y1="6.518" x2="28.1518" y2="6.518">
		<stop  offset="0" style="stop-color:#F7E146"/>
		<stop  offset="1" style="stop-color:#EBB445"/>
	</linearGradient>
	<path class="st3" d="M26.5,7.3c0,0.7,0.4,2.2-0.1,2.9c-0.2,0.3-0.7,0.3-1.2,0.3c0.2-1.2,0.3-2.4-0.4-3.1c-1,0.1-2.1-1.6-1.9-2.8
		c0.1-0.8,0.8-1.9,2.2-2.1c3-0.5,3.4,1.7,2.9,3C27.6,6.6,27.4,6.4,26.5,7.3L26.5,7.3z"/>
	<linearGradient id="SVGID_4_" gradientUnits="userSpaceOnUse" x1="11.7945" y1="21.1879" x2="36.9399" y2="21.1879">
		<stop  offset="0" style="stop-color:#F7E146"/>
		<stop  offset="1" style="stop-color:#EBB445"/>
	</linearGradient>
	<path class="st4" d="M33.4,8.5c-1.2,1.8-0.4,4.2,0.6,5.3c2.6,2.7,3.2,6.7,3,10.4c-0.2,4.7-2.2,9.1-5.7,11.4c0.8-1.6,1-3.5,0.5-5.5
		c0.9-0.2,1.1-1.2,1-1.8c-1,0-4.1,0.5-3.5,2.1c0.5-0.1,0.9-0.4,1.5-0.4c3.8,9.7-15.4,13-14.8,2.1c1.6-0.6,3.3-1,4.3-2.2
		c-1.8-0.5-5.2,2.3-6-1.2c-1.5,0.6,0.4,2.7,1.1,3.4c-0.2,1.8,0.2,3.1,0.6,4.4c-8.2-5.8-2.8-17.5,4.9-22.2c3.4-2,6.3-2.6,10.3-3
		c0.1-0.6,0-2,0.2-2.7c-1.3-0.4-1.6-1.9-1.4-2.9c0.3-1.1,1.3-1.9,2.4-2C35.7,3.4,35.6,8.4,33.4,8.5L33.4,8.5z"/>
	<path class="st0" d="M43.5,10.7c-1.9,3-7.5,4.8-10.9,2.1C33.2,8.4,40.4,7.4,43.5,10.7L43.5,10.7z"/>
	<linearGradient id="SVGID_5_" gradientUnits="userSpaceOnUse" x1="33.8055" y1="11.5087" x2="41.5266" y2="11.5087">
		<stop  offset="0" style="stop-color:#F7E146"/>
		<stop  offset="1" style="stop-color:#EBB445"/>
	</linearGradient>
	<path class="st5" d="M41.5,11.2c-1.8,1.8-5.3,2.8-7.7,1C35.1,9.4,39.3,9.1,41.5,11.2L41.5,11.2z"/>
	<linearGradient id="SVGID_6_" gradientUnits="userSpaceOnUse" x1="26.6463" y1="50.631" x2="53.0248" y2="50.631">
		<stop  offset="0" style="stop-color:#F7E146"/>
		<stop  offset="1" style="stop-color:#EBB445"/>
	</linearGradient>
	<path class="st6" d="M34.8,33.3c-0.4,2.7-0.6,6.2-0.7,9c3.6-1.1,8.7-1.1,11.3,1.2c1.6,1.3,5.2-0.7,6.8-2.2c-1,1.2-2.5,2.8-3.5,4.9
		c1,1.3,2.5,4.2,3.1,5.8c1.4,4,1.9,9.1-0.8,11.6c-1.1,1.1-4.1,1.8-5.5,0.7c0.4-2.6,0.6-5.9,0.1-8.3c-1.8,0.5-2.6,2.1-4.9,2.1
		c-0.3-0.7-0.7-1.4-1.1-1.5c-1,2.1,1.5,7.8-1.1,10c-1.6,1.3-5.3,2-7.2,0.2c1.5-3.1,2.3-7.8,0.8-10.9c-0.3,0.2-0.3,0.5-0.2,1.3
		c-1.8-0.6-3.3-2-4-3.1c-2.4-4-0.7-11.2,0.4-15.9C31,37.3,33.1,35.5,34.8,33.3L34.8,33.3z"/>
	<linearGradient id="SVGID_7_" gradientUnits="userSpaceOnUse" x1="25.7422" y1="61.654" x2="32.0143" y2="61.654">
		<stop  offset="0" style="stop-color:#F0BF45"/>
		<stop  offset="1" style="stop-color:#DC7F44"/>
	</linearGradient>
	<path class="st7" d="M28.7,56.9c0.8,0.9,2.3,1,2.9,2.1c1.3,2.1-1.1,6.5-1.2,7c-1.3,1-5.3,0-4.6-2.6C26.3,61.3,28.6,59.5,28.7,56.9
		L28.7,56.9z"/>
	<linearGradient id="SVGID_8_" gradientUnits="userSpaceOnUse" x1="40.8891" y1="59.8599" x2="44.6744" y2="59.8599">
		<stop  offset="0" style="stop-color:#F0BF45"/>
		<stop  offset="1" style="stop-color:#DC7F44"/>
	</linearGradient>
	<path class="st8" d="M40.9,61.5c0.1-1,0-1.4,0-2.6c1.5-0.1,2.6-0.6,3.4-1.5c0.8,0.9,0.2,3.1,0.2,4.1C43.7,62.4,41.5,62.5,40.9,61.5
		L40.9,61.5z"/>
	<path class="st9" d="M24.9,19.7c-0.8-0.8-3.1-1.5-4.9-0.7c0-1.1-0.1-2.4,0.8-2.8c0.9-0.4,1.7,0.3,1.7,1.5c0.1-0.5,0.3-1.6,1.1-2.2
		c0.7-0.6,2-0.8,2.4,0.3C26.3,16.7,25.7,18.6,24.9,19.7L24.9,19.7z"/>
	<path class="st10" d="M24.2,15.4c1.6-0.8,1.8,1,1.3,2.1C25.6,16.3,25.5,15.3,24.2,15.4L24.2,15.4z"/>
	<path class="st11" d="M23.2,16.2c-0.2,0.4-0.7,1.3-0.6,2.2c0.4-0.2,2,0.7,1.9,0.8c-0.2-0.7-1-1-1.2-1.5
		C23.1,17.3,23.2,16.8,23.2,16.2L23.2,16.2z"/>
	<path class="st11" d="M20.4,16.8c-0.2,0.3-0.3,1.2-0.2,1.8c0.3-0.1,1.4-0.4,1.3-0.3c-0.4-0.2-0.8,0-1-0.4
		C20.4,17.6,20.3,17.3,20.4,16.8L20.4,16.8z"/>
	<path class="st10" d="M24.6,15.9c0.3,0,0.5,0.2,0.5,0.5S24.9,17,24.6,17c-0.3,0-0.5-0.2-0.5-0.5S24.4,15.9,24.6,15.9L24.6,15.9z"/>
	<path class="st10" d="M21.4,16.6c0.2,0,0.4,0.2,0.4,0.4c0,0.2-0.2,0.4-0.4,0.4c-0.2,0-0.3-0.2-0.3-0.4C21,16.8,21.2,16.6,21.4,16.6
		L21.4,16.6z"/>
	<path class="st10" d="M39.1,44.1c0.7,0,1.3,0.6,1.3,1.3c0,0.7-0.6,1.3-1.3,1.3s-1.3-0.6-1.3-1.3C37.8,44.7,38.4,44.1,39.1,44.1
		L39.1,44.1z"/>
	<path class="st10" d="M42.9,53.2c0.6,0,1.2,0.5,1.2,1.2c0,0.6-0.5,1.2-1.2,1.2c-0.6,0-1.2-0.5-1.2-1.2
		C41.8,53.7,42.3,53.2,42.9,53.2L42.9,53.2z"/>
	<path class="st10" d="M44.9,49.2c0.4,0,0.8,0.3,0.8,0.8c0,0.4-0.3,0.8-0.8,0.8c-0.4,0-0.8-0.3-0.8-0.8
		C44.1,49.6,44.4,49.2,44.9,49.2L44.9,49.2z"/>
	<path class="st10" d="M25.7,26.3c0.4,0,0.8,0.3,0.8,0.8c0,0.4-0.3,0.8-0.8,0.8c-0.4,0-0.8-0.3-0.8-0.8
		C24.9,26.7,25.3,26.3,25.7,26.3L25.7,26.3z"/>
	<path class="st10" d="M25.2,22.7c0.5,0,1,0.4,1,1c0,0.5-0.4,1-1,1c-0.5,0-1-0.4-1-1C24.2,23.1,24.6,22.7,25.2,22.7L25.2,22.7z"/>
	<path class="st10" d="M28.2,25.3c0.3,0,0.5,0.2,0.5,0.5c0,0.2-0.2,0.5-0.5,0.5c-0.2,0-0.5-0.2-0.5-0.5C27.7,25.5,28,25.3,28.2,25.3
		L28.2,25.3z"/>
	<path class="st10" d="M15.1,35.8c-3.9-7.4-1.4-12.6,1.7-16.8c2.5-3.4,6.4-5.8,10.9-7.4c-2.4,0.4-4.6,1.1-6.9,2.5
		C13.3,18.7,8,29.8,15.1,35.8L15.1,35.8z"/>
	<path class="st10" d="M23.6,6.2c0.4,0.5,1,0.4,1.1-0.2c0.1-0.7-0.2-1.1,0.2-1.8c0.1-0.2,0.4-0.4,0.7-0.7c0.5-0.5,0.5-0.7-0.1-0.7
		C23.9,2.8,22.6,4.7,23.6,6.2L23.6,6.2z"/>
	<path class="st10" d="M30.6,7.3c0.4,0.5,1,0.4,1.1-0.2c0.1-0.7-0.2-1.1,0.2-1.8c0.1-0.2,0.4-0.4,0.7-0.7c0.5-0.5,0.5-0.7-0.1-0.7
		C30.9,4,29.6,5.9,30.6,7.3L30.6,7.3z"/>
	<path class="st10" d="M14.2,28.6c0.2-0.3,0.7-0.5,1.1-0.2c1.5,1.1,4.3-0.8,5.1,0.9c0.1,0.2,0,0.4-0.3,0.6
		C18.2,29.4,14.9,32,14.2,28.6C14.2,28.6,14.2,28.6,14.2,28.6L14.2,28.6z"/>
	<linearGradient id="SVGID_9_" gradientUnits="userSpaceOnUse" x1="19.2219" y1="26.8228" x2="36.9399" y2="26.8228">
		<stop  offset="0" style="stop-color:#F0BF45"/>
		<stop  offset="1" style="stop-color:#DC7F44"/>
	</linearGradient>
	<path class="st12" d="M19.2,38c5,0.1,9.1-1.9,11.9-5.1c-0.4,4.9-7.5,7.2-11.8,5.2L19.2,38L19.2,38z M31.9,31.9
		c2.5-3.3,3.8-7.6,3.6-12.2c-0.1-1.6-0.5-3.3-0.8-4.9c1.8,2.6,2.3,6.1,2.1,9.3c-0.2,4.7-2.2,9.1-5.7,11.4
		C31.7,34.5,32,33.2,31.9,31.9L31.9,31.9z"/>
	<linearGradient id="SVGID_10_" gradientUnits="userSpaceOnUse" x1="39.8708" y1="55.8047" x2="53.0248" y2="55.8047">
		<stop  offset="0" style="stop-color:#F0BF45"/>
		<stop  offset="1" style="stop-color:#DC7F44"/>
	</linearGradient>
	<path class="st13" d="M39.9,56.8c2.6,0.6,5.4-1.7,7-3.7c1.6-2,1.4-4.2,2.3-6.3c1,1.4,2.2,3.9,2.7,5.3c1.4,4,1.9,9.1-0.8,11.6
		c-1.1,1.1-4.1,1.8-5.5,0.7c0.4-2.6,0.6-5.9,0.1-8.3c-1.8,0.5-2.6,2.1-4.9,2.1C40.5,57.6,40.2,57,39.9,56.8L39.9,56.8z"/>
	<path class="st10" d="M33.5,36c0.4,0,0.7,0.3,0.7,0.7c0,0.4-0.3,0.7-0.7,0.7c-0.4,0-0.7-0.3-0.7-0.7C32.8,36.3,33.1,36,33.5,36
		L33.5,36z"/>
	<path class="st10" d="M40.9,50c0.6,0,1.1,0.5,1.1,1c0,0.6-0.5,1-1.1,1c-0.6,0-1.1-0.5-1.1-1C39.8,50.5,40.3,50,40.9,50L40.9,50z"/>
	<path class="st10" d="M33.1,39.8c0.4,0,0.8,0.3,0.8,0.8c0,0.4-0.4,0.8-0.8,0.8c-0.4,0-0.8-0.3-0.8-0.8
		C32.3,40.1,32.6,39.8,33.1,39.8L33.1,39.8z"/>
	<path class="st10" d="M45.7,45.5c0.5,0,0.8,0.4,0.8,0.8c0,0.5-0.4,0.8-0.8,0.8c-0.5,0-0.8-0.4-0.8-0.8
		C44.9,45.8,45.2,45.5,45.7,45.5L45.7,45.5z"/>
	<path class="st10" d="M38.8,47.3c0.5,0,0.9,0.4,0.9,0.8c0,0.5-0.4,0.8-0.9,0.8c-0.5,0-0.9-0.4-0.9-0.8
		C37.9,47.7,38.3,47.3,38.8,47.3L38.8,47.3z"/>
	<path class="st10" d="M43.6,43.5c0.4,0,0.7,0.3,0.7,0.7c0,0.4-0.3,0.7-0.7,0.7c-0.4,0-0.7-0.3-0.7-0.7
		C42.9,43.9,43.3,43.5,43.6,43.5L43.6,43.5z"/>
	<path class="st10" d="M42.2,46.8c0.6,0,1.1,0.5,1.1,1.1c0,0.6-0.5,1.1-1.1,1.1c-0.6,0-1.1-0.5-1.1-1.1
		C41.1,47.3,41.6,46.8,42.2,46.8L42.2,46.8z"/>
	<path class="st10" d="M34.3,42.6c0.4,0,0.8,0.4,0.8,0.8c0,0.5-0.4,0.8-0.8,0.8c-0.4,0-0.8-0.4-0.8-0.8
		C33.5,42.9,33.8,42.6,34.3,42.6L34.3,42.6z"/>
	<path class="st10" d="M35.5,45.1c0.5,0,0.9,0.4,0.9,0.8s-0.4,0.8-0.9,0.8c-0.5,0-0.9-0.4-0.9-0.8S35,45.1,35.5,45.1L35.5,45.1z"/>
	<path class="st10" d="M36.7,42.4c0.4,0,0.7,0.3,0.7,0.7c0,0.4-0.3,0.7-0.7,0.7c-0.4,0-0.7-0.3-0.7-0.7C36,42.7,36.3,42.4,36.7,42.4
		L36.7,42.4z"/>
	<path class="st10" d="M39.5,42.1c0.3,0,0.6,0.3,0.6,0.6c0,0.4-0.3,0.6-0.6,0.6c-0.3,0-0.6-0.3-0.6-0.6
		C38.9,42.4,39.1,42.1,39.5,42.1L39.5,42.1z"/>
	<path class="st10" d="M37.4,55.5c0.4,0,0.7,0.3,0.7,0.7s-0.3,0.7-0.7,0.7s-0.7-0.3-0.7-0.7S37,55.5,37.4,55.5L37.4,55.5z"/>
	<path class="st10" d="M36.3,56.9c0.5,0,0.8,0.4,0.8,0.9c0,0.5-0.4,0.9-0.8,0.9c-0.5,0-0.8-0.4-0.8-0.9
		C35.5,57.2,35.8,56.9,36.3,56.9L36.3,56.9z"/>
	<path class="st10" d="M38.5,57.2c0.3,0,0.6,0.3,0.6,0.6c0,0.3-0.3,0.6-0.6,0.6c-0.3,0-0.6-0.3-0.6-0.6C38,57.5,38.2,57.2,38.5,57.2
		L38.5,57.2z"/>
	<path class="st10" d="M37.7,58.9c0.5,0,0.9,0.4,0.9,0.9c0,0.5-0.4,0.9-0.9,0.9c-0.5,0-0.9-0.4-0.9-0.9
		C36.8,59.3,37.2,58.9,37.7,58.9L37.7,58.9z"/>
	<path class="st10" d="M38.8,61.5c0.3,0,0.6,0.3,0.6,0.6c0,0.4-0.3,0.6-0.6,0.6c-0.3,0-0.6-0.3-0.6-0.6
		C38.2,61.8,38.5,61.5,38.8,61.5L38.8,61.5z"/>
	<path class="st10" d="M37.3,62.5c0.3,0,0.6,0.3,0.6,0.6c0,0.3-0.3,0.6-0.6,0.6c-0.3,0-0.6-0.3-0.6-0.6C36.7,62.8,37,62.5,37.3,62.5
		L37.3,62.5z"/>
	<path class="st10" d="M38.8,63.9c0.2,0,0.4,0.2,0.4,0.4c0,0.2-0.2,0.4-0.4,0.4c-0.2,0-0.4-0.2-0.4-0.4C38.4,64,38.6,63.9,38.8,63.9
		L38.8,63.9z"/>
	<path class="st10" d="M49.8,50.1c0.5,0,0.9,0.4,0.9,0.9c0,0.5-0.4,0.9-0.9,0.9c-0.5,0-0.9-0.4-0.9-0.9
		C48.9,50.5,49.3,50.1,49.8,50.1L49.8,50.1z"/>
	<path class="st10" d="M49.3,52.6c0.4,0,0.8,0.3,0.8,0.7c0,0.4-0.4,0.7-0.8,0.7c-0.4,0-0.8-0.3-0.8-0.7C48.5,53,48.8,52.6,49.3,52.6
		L49.3,52.6z"/>
	<path class="st10" d="M51.5,53.1c0.3,0,0.6,0.3,0.6,0.6s-0.3,0.6-0.6,0.6c-0.3,0-0.6-0.3-0.6-0.6S51.2,53.1,51.5,53.1L51.5,53.1z"
		/>
	<path class="st10" d="M50.5,54.6c0.5,0,0.8,0.4,0.8,0.8c0,0.4-0.4,0.8-0.8,0.8c-0.5,0-0.8-0.4-0.8-0.8C49.6,54.9,50,54.6,50.5,54.6
		L50.5,54.6z"/>
	<path class="st10" d="M51.8,57.1c0.4,0,0.8,0.3,0.8,0.7c0,0.4-0.3,0.7-0.8,0.7c-0.4,0-0.8-0.3-0.8-0.7C51,57.5,51.4,57.1,51.8,57.1
		L51.8,57.1z"/>
	<path class="st10" d="M50.3,58.2c0.4,0,0.7,0.3,0.7,0.7c0,0.4-0.3,0.7-0.7,0.7c-0.4,0-0.7-0.3-0.7-0.7
		C49.6,58.5,49.9,58.2,50.3,58.2L50.3,58.2z"/>
	<path class="st10" d="M51.6,60.3c0.3,0,0.6,0.2,0.6,0.6c0,0.3-0.3,0.6-0.6,0.6c-0.3,0-0.6-0.2-0.6-0.6C51,60.5,51.3,60.3,51.6,60.3
		L51.6,60.3z"/>
</g>
</svg>
