<?xml version="1.0" encoding="utf-8"?>
<!-- Generator: Adobe Illustrator 21.0.2, SVG Export Plug-In . SVG Version: 6.00 Build 0)  -->
<svg version="1.1" id="Слой_1" xmlns="http://www.w3.org/2000/svg" xmlns:xlink="http://www.w3.org/1999/xlink" x="0px" y="0px"
	 viewBox="0 0 130 114" style="enable-background:new 0 0 130 114;" xml:space="preserve">
<style type="text/css">
	.st0{fill:#DDD0B3;}
	.st1{fill:#E5DABD;}
	.st2{fill:#FFFDEF;}
	.st3{fill:#AF9E7B;}
	.st4{fill:#6B5029;}
	.st5{fill:#7C6033;}
	.st6{fill:#D1B68F;}
	.st7{fill:#513A1B;}
	.st8{fill:#514737;}
	.st9{fill:#5E5341;}
	.st10{fill:#AF9F87;}
	.st11{fill:#352D22;}
	.st12{fill:#EFACAC;}
	.st13{fill:#FFC5C4;}
	.st14{fill:#969696;}
	.st15{fill:#AAA9A9;}
	.st16{fill:#706F6F;}
	.st17{fill:#F3A629;}
	.st18{fill:#FFBA33;}
	.st19{fill:#D88718;}
	.st20{fill:#A85B03;}
	.st21{fill:#7C3F03;}
	.st22{fill:#F3AC29;}
	.st23{fill:#FFC935;}
	.st24{fill:#FCEFD0;}
	.st25{fill:#3A3A3A;}
	.st26{fill:#4F4F4F;}
	.st27{fill:#303030;}
	.st28{fill:#FF9789;}
	.st29{fill:#561701;}
	.st30{fill:#661E00;}
	.st31{fill:#D8957D;}
	.st32{fill:#3F0F01;}
	.st33{fill:#BABABA;}
	.st34{fill:#FFFFFF;}
	.st35{fill:#B57400;}
	.st36{fill:#945602;}
	.st37{fill:#7E3B02;}
	.st38{fill:#190000;}
</style>
<g>
	<g>
		<path class="st0" d="M98.3,72.1c-6.8-2-14.2-2.4-19.5,2.5c-1.7,1.6-2.2,3.9-2.3,6.5c2.3,0.1,4.3-0.1,5.9-0.5
			c1.1,2,4.3,5.2,3.8,7.3c-0.5,2.1-1.8,5.7-3,7.7c-1,0.9-1.7,1.8-2.7,3.6c-1.9,1.1-4.2,3.5-4.4,4.3c-0.2,0.7,1.4,1.3,2.7,1.4
			c0.1,1.2,6.5,1.6,8,0.9c1.5-0.7,1.1-2.9,0.3-3.9c2.4-0.5,1.6-3,1.2-4.2c-0.4-1.2,0.7-4.9,2.4-7.3c1.7-2.4,4.1-5,3.8-7.3
			c-0.3-2.3-0.1-2.8,3.6-10.4C98.2,72.5,98.3,72.3,98.3,72.1z"/>
		<path class="st1" d="M95.4,71.4c-5.9-1.2-12-0.9-16.5,3.3c-0.8,0.7-1.3,1.6-1.6,2.5c1.2-0.4,2.1-1,2.6-1.8
			c1.1,2,6.9,10.5,6.4,12.6c-0.5,2.1-1.8,5.7-3,7.7c-1,0.9-1.7,1.8-2.7,3.6c-1.9,1.1-4.2,3.5-4.4,4.3c-0.2,0.7,1.4,1.3,2.7,1.4
			c0.1,1.2,6.5,1.6,8,0.9c1.5-0.7-0.7-2.7-1.5-3.7c2.4-0.5,2.2-3.8,1.8-5c-0.4-1.2,0.8-4.9,2.4-7.3c1.7-2.4,3.4-5,3.1-7.3
			C92.4,80,90.5,76.3,95.4,71.4C95.4,71.4,95.4,71.4,95.4,71.4z"/>
		<path class="st2" d="M79.4,74.1c0.7,2.5,1.8,4.5,2.8,6.1c0.1,0.2,0.9,1,0.8,1.3c1.4,2,3.6,4.6,3.2,6.4c-0.5,2.1-1.8,5.7-3,7.7
			c-1,0.9-1.7,1.8-2.7,3.6c-1.9,1.1-4.2,3.5-4.4,4.3c-0.2,0.7,1.4,1.3,2.7,1.4c0,0.5,0.9,0.8,2.1,1c2-1.6,3.9-3.2,5.2-5.5
			c0.8-1.7-0.6-3.4-0.4-4.3c1.6-7.1,6.4-9.5,4.4-19.9c0-2,1.2-3.6,2.7-5.3C88,70.3,83.2,70.9,79.4,74.1z"/>
		<path class="st3" d="M98.1,72c-0.1,0.2-0.1,0.4-0.2,0.5l-0.3,0.6c-3.4,7-3.7,7.6-3.3,9.9c0.3,1.8-1.3,3.8-2.7,5.8
			c-0.3,0.5-0.7,0.9-1,1.4c-1.8,2.5-2.8,6.3-2.4,7.5l0,0.1c0.3,0.9,0.7,2.1,0.2,3c-0.2,0.4-0.6,0.6-1.2,0.8l-0.3,0.1l0.2,0.3
			c0.4,0.6,0.8,1.7,0.6,2.6c-0.1,0.5-0.4,0.8-0.8,1c-0.9,0.4-4.2,0.4-6.2,0c-1.1-0.2-1.5-0.5-1.5-0.7l0-0.2l-0.2,0
			c-0.3,0-0.7-0.1-1-0.1c-0.7-0.2-1.3-0.4-1.5-0.7c-0.1-0.1,0-0.2,0-0.2c0.2-0.7,2.4-3.1,4.3-4.1l0.1,0l0-0.1
			c0.9-1.7,1.6-2.7,2.7-3.5l0.1-0.1c1.2-2.1,2.5-5.6,3-7.8c0.4-1.6-1.1-3.7-2.5-5.6c-0.5-0.7-1-1.4-1.3-1.9l-0.1-0.2l-0.2,0
			c-1.6,0.4-3.6,0.6-5.8,0.5c0,0.2,0,0.3,0,0.5c2.1,0.1,4.2-0.1,5.8-0.5c0.3,0.5,0.8,1.2,1.2,1.8c1.2,1.7,2.8,3.8,2.4,5.2
			c-0.5,2.1-1.8,5.6-2.9,7.6c-1.1,0.9-1.8,1.9-2.7,3.6c-1.9,1.1-4.2,3.5-4.5,4.4c-0.1,0.2,0,0.4,0.1,0.6c0.3,0.6,1.3,0.9,1.8,0.9
			c0.3,0.1,0.6,0.1,0.9,0.1c0.2,0.4,0.8,0.7,1.8,0.9c2.1,0.5,5.4,0.5,6.5,0c0.5-0.2,0.9-0.7,1-1.3c0.2-0.9,0-2-0.5-2.7
			c0.6-0.2,1-0.5,1.2-0.9c0.6-1,0.2-2.4-0.1-3.3l0-0.1c-0.4-1.1,0.7-4.8,2.4-7.1c0.3-0.4,0.7-0.9,1-1.4c1.5-2,3.1-4.1,2.8-6.1
			c-0.3-2.2-0.1-2.8,3.3-9.7l0.3-0.6c0.1-0.2,0.2-0.4,0.3-0.6C98.4,72.1,98.3,72.1,98.1,72z"/>
	</g>
	<g>
		<g>
			<path class="st4" d="M80.6,99.2c-1.9,1.1-4.2,3.5-4.4,4.3c-0.2,0.7,1.4,1.3,2.7,1.4c0.3,1.8,6.5,1.6,8,0.9
				c1.5-0.7,1.1-2.9,0.3-3.9C84.8,102,81.7,100.6,80.6,99.2z"/>
			<path class="st5" d="M85.4,101.7c-1.9-0.4-4-1.5-4.9-2.5c-1.9,1.1-4.2,3.5-4.4,4.3c-0.2,0.7,1.4,1.3,2.7,1.4
				c0,0.2,0.1,0.3,0.3,0.5c1.5-0.2,2.9-0.6,4.4-1.4C84.2,103.8,85.3,102.9,85.4,101.7z"/>
			<path class="st6" d="M81.1,99.8c-0.2-0.2-0.4-0.4-0.6-0.6c-1.9,1.1-4.2,3.5-4.4,4.3c-0.1,0.2,0,0.3,0.1,0.5
				C77.5,102.2,79,100.6,81.1,99.8z"/>
			<path class="st7" d="M80.6,106.2c-1.1-0.2-1.7-0.6-1.9-1.2c-0.3,0-0.6-0.1-0.9-0.1c-0.4-0.1-1.4-0.4-1.8-0.9
				c-0.1-0.2-0.1-0.4-0.1-0.6c0.3-0.9,2.6-3.4,4.5-4.4l0.2-0.1l0.1,0.1c0.8,1,2.8,2,4.5,2.4c0.7,0.1,1.3,0.2,1.8,0.2l0.1,0l0.1,0.1
				c0.5,0.7,0.9,1.9,0.7,3c-0.2,0.6-0.5,1-1,1.3C85.9,106.5,82.6,106.7,80.6,106.2z M79.1,104.6l0,0.2c0.1,0.4,0.7,0.8,1.6,1
				c2,0.5,5.2,0.2,6-0.2c0.4-0.2,0.7-0.5,0.8-1c0.2-0.8-0.1-1.9-0.5-2.5c-0.6,0-1.2,0-1.8-0.2c-1.8-0.4-3.7-1.4-4.7-2.4
				c-1.9,1.1-4,3.4-4.2,4c0,0,0,0.1,0,0.2c0.2,0.3,0.7,0.6,1.5,0.7c0.3,0.1,0.7,0.1,1,0.1L79.1,104.6z"/>
		</g>
	</g>
	<g>
		<path class="st7" d="M78.7,104.8c0.3-1.9,2.6-3.4,2.6-3.4c0,0-1.9,1.7-2.2,3.5L78.7,104.8z"/>
	</g>
	<g>
		<path class="st0" d="M64.9,82.8c5.2-5.6,2.9-11.3,2.9-11.3l-12.9-4.7c0,0-1.4,1.9-0.6,6c0.6,3.3,2.9,6.4,3.1,10.1
			c-1.7,2.7-0.4,5.2,0.8,6.5c-0.2,2.2,0.2,6.4-0.5,8.8c-2.2,2.2-3.7,5.2-3.4,6c0.3,0.9,1.9,0.9,2.6,1c-0.2,1.9,4.1,1.1,5.7,0.4
			c1.6-0.7,0.8-3.7,0.2-5c1.7,0,1.9-2.4,0.6-4.6c-0.7-1.8,0-5.5,0.8-6.9C65.9,87,66.1,83.8,64.9,82.8z"/>
		<path class="st1" d="M63.1,82.5c5.2-5.6,4.6-11,4.6-11l-12.9-4.7c0,0-1.4,1.9-0.6,6c0.6,3.3,2.9,6.4,3.1,10.1
			c-1.7,2.7-0.4,5.2,0.8,6.5c-0.2,2.2,0.2,6.4-0.5,8.8c-2.2,2.2-3.7,5.2-3.4,6c0.3,0.9,1.9,0.9,2.6,1c-0.2,1.9,4.1,1.1,5.7,0.4
			c1.6-0.7-1-4-1.6-5.3c1.7,0,1.9-2.9,0.5-5.1c-0.7-1.8,0.6-5.4,1.4-6.9C64.7,86.3,64.3,83.5,63.1,82.5z"/>
		<path class="st2" d="M54.3,72.9c0.6,3.3,2.9,6.4,3.1,10.1c-1.7,2.7-0.4,5.2,0.8,6.5c-0.2,2.2,0.2,6.4-0.5,8.8
			c-2.2,2.2-3.7,5.2-3.4,6c0.3,0.9,1.9,0.9,2.6,1c-0.1,0.5,0.2,0.9,0.7,1c0.8-0.7,1.5-1.6,2.3-2c-0.4-0.9,1.5-2.6-0.8-3.2
			c3.3-3-0.6-7.3,1.4-10.8c1-2.2,2.8-3.3,1.8-6.2c-0.2-0.8-1-1.4-1.5-1.5c3.2-3.3,4.5-8.4,3.1-12.7l-9.1-3.1
			C54.9,66.8,53.5,68.7,54.3,72.9z"/>
		<path class="st3" d="M58.5,106.7c-0.6,0-1.1-0.1-1.4-0.4c-0.3-0.2-0.4-0.5-0.4-0.8c-0.8,0-2.2-0.2-2.5-1.1c-0.4-1,1.3-4.1,3.4-6.2
			c0.4-1.6,0.4-3.9,0.4-5.9c0-1,0-2,0.1-2.7c-1.4-1.6-2.4-4.1-0.8-6.6c-0.1-2-0.9-4-1.7-5.8c-0.6-1.4-1.1-2.8-1.4-4.2
			c-0.8-4.2,1-6,1-6c0,0-1.3,1.9-0.5,5.9c0.3,1.4,0.8,2.7,1.4,4.1c0.8,1.9,1.6,3.9,1.7,6l0,0.1l0,0.1c-1.9,3,0.1,5.5,0.8,6.2
			l0.1,0.1l0,0.1c-0.1,0.7-0.1,1.7-0.1,2.8c0,2.1,0,4.5-0.4,6.1l0,0.1l0,0c-2.2,2.2-3.6,5.1-3.3,5.8c0.3,0.7,1.8,0.8,2.4,0.8l0.2,0
			l0,0.2c0,0.3,0,0.5,0.3,0.6c0.9,0.7,3.9,0.1,5.2-0.5c0.3-0.1,0.5-0.4,0.7-0.7c0.4-1.1-0.1-3-0.6-3.9l-0.2-0.3l0.4,0
			c0.4,0,0.8-0.2,1-0.5c0.5-0.8,0.2-2.4-0.6-3.7c-0.7-2,0-5.7,0.8-7.2c1.6-2.1,1.7-5.3,0.7-6.2l-0.2-0.2l0.2-0.2
			c5-5.4,2.9-11,2.8-11.1c0,0,1.2,1.9,0.8,4.6c-0.3,1.9-1.1,4.3-3.2,6.6c1.1,1.2,1,4.4-0.7,6.6c-0.7,1.4-1.4,5-0.7,6.7
			c0.9,1.5,1.1,3.2,0.6,4.1c-0.2,0.4-0.6,0.7-1,0.7c0.4,1.1,0.9,2.9,0.4,4c-0.2,0.5-0.5,0.8-0.9,1C62,106.3,60,106.8,58.5,106.7z"/>
	</g>
	<g>
		<path class="st4" d="M57.7,98.3c-2.2,2.2-3.7,5.2-3.4,6c0.3,0.9,1.9,0.9,2.6,1c-0.2,1.9,4.1,1.1,5.7,0.4c1.6-0.7,0.8-3.7,0.2-5
			C61.1,100.8,58.3,99.4,57.7,98.3z"/>
		<path class="st5" d="M60.9,100.4c-1.4-0.5-2.8-1.4-3.2-2.1c-2.2,2.2-3.7,5.2-3.4,6c0.3,0.9,1.9,0.9,2.6,1
			c-0.1,0.7,0.5,1.1,1.4,1.2c0.5-0.2,1-0.5,1.5-0.8C61.8,104.6,61.5,102.4,60.9,100.4z"/>
		<path class="st6" d="M58.3,99c-0.3-0.2-0.5-0.5-0.6-0.7c-2.2,2.2-3.7,5.2-3.4,6c0.1,0.3,0.3,0.5,0.6,0.6
			C55.4,102.6,56.2,100.2,58.3,99z"/>
		<path class="st7" d="M58.5,106.7c-0.8,0-1.3-0.2-1.6-0.6c-0.1-0.2-0.2-0.4-0.2-0.6c-0.8,0-2.2-0.2-2.5-1.1c-0.4-1,1.3-4.1,3.4-6.3
			l0.2-0.2l0.1,0.3c0.5,0.9,3.3,2.4,5,2.3l0.2,0l0.1,0.1c0.5,1,1,3.1,0.6,4.3c-0.2,0.5-0.5,0.8-0.9,1
			C61.9,106.3,60,106.8,58.5,106.7z M57.7,98.7c-2.1,2.2-3.4,4.9-3.1,5.6c0.3,0.7,1.8,0.8,2.4,0.8l0.2,0l0,0.2c0,0.2,0,0.4,0.1,0.5
			c0.2,0.2,0.6,0.4,1.3,0.4c1.3,0.1,3.1-0.4,4-0.8c0.3-0.1,0.5-0.4,0.7-0.7c0.4-1.1-0.1-2.8-0.5-3.8C61.1,101,58.6,99.8,57.7,98.7z"
			/>
	</g>
	<g>
		<path class="st7" d="M56.7,105.5c0-2.7,1.9-4.6,1.9-4.6c0,0-1.4,2-1.4,4.6L56.7,105.5z"/>
	</g>
	<g>
		<g>
			<path class="st8" d="M34.8,18.7c-1.4-2.4-0.5-5.4-1.4-7.8c-0.9-2.4-4.2-2.4-4.8-0.9c-0.6,1.4,1.1,3.2,0.3,3.9
				c-1.2,0.4-3.9-2.6-3.3-5.8c0.6-3.2,4.4-4.8,7.8-3.5c3.4,1.3,6.3,6.6,7.4,11C40.8,18.6,36.4,19.5,34.8,18.7z"/>
			<path class="st9" d="M36.7,17.8c-1.4-2.4-1.3-5.5-2.1-7.9c-1-3.1-5.4-3.8-6.3-1.8c-0.6,1.4-3.2,3.2-2.6,0
				c0.6-3.2,4.4-4.8,7.8-3.5c3.4,1.3,6.3,6.6,7.4,11C40.8,18.6,38.3,18.6,36.7,17.8z"/>
			<path class="st10" d="M37.6,14.7c-0.9-2.4-1.3-5.5-3.2-7.2c-1.9-1.7-5.9-2.7-7.7,0.3c0.9-1.8,3.4-3.2,6.8-1.5
				c3.7,1.8,4.4,6.4,4.7,7.9C38.3,14.8,37.6,14.7,37.6,14.7z"/>
			<path class="st11" d="M34.7,18.9L34.7,18.9l-0.1-0.1c-0.8-1.4-0.8-2.9-0.9-4.4c0-1.2-0.1-2.3-0.5-3.4c-0.5-1.3-1.7-1.8-2.6-1.8
				c-0.8,0-1.5,0.3-1.7,0.8c-0.3,0.6,0,1.4,0.2,2.1c0.3,0.8,0.5,1.5,0,1.9l-0.1,0c-0.6,0.2-1.5-0.3-2.2-1.2
				c-0.9-1.1-1.7-2.9-1.3-4.9c0.5-2.5,2.8-4.2,5.6-4.2c0.8,0,1.7,0.2,2.5,0.5c3.5,1.3,6.4,6.6,7.6,11.2l0,0l0,0
				c-0.1,2.5-3,3.7-5,3.7l0,0C35.6,19.2,35.1,19.1,34.7,18.9z M33.4,4.7c-0.8-0.3-1.5-0.4-2.3-0.4c-2.6,0-4.7,1.6-5.2,3.8
				c-0.3,1.8,0.4,3.5,1.2,4.5c0.6,0.7,1.3,1.1,1.7,1c0.2-0.2,0.1-0.7-0.1-1.4c-0.3-0.7-0.5-1.6-0.2-2.4c0.3-0.7,1.1-1.1,2.1-1.1
				c1.1,0,2.5,0.5,3.1,2.1c0.4,1.1,0.5,2.3,0.5,3.5c0.1,1.4,0.1,2.9,0.8,4.2c0.3,0.1,0.7,0.2,1.2,0.2l0,0c1.8,0,4.4-1,4.5-3.2
				C39.6,11.2,36.7,6,33.4,4.7z"/>
		</g>
		<g>
			<path class="st11" d="M34,12.5c0.3-0.7,1.2-1.5,2.3-1.9c1-0.4,1.9-0.4,2.6,0l0.2-0.4c-0.8-0.4-1.9-0.4-3,0
				c-1.2,0.5-2.2,1.3-2.5,2.1L34,12.5z"/>
		</g>
		<g>
			<path class="st11" d="M31.9,9.4l0.4-0.1c-0.1-0.5,0.4-1.6,1.1-2.3c0.7-0.7,1.5-1.1,2.1-1l0.1-0.4c-0.8-0.1-1.7,0.3-2.5,1.1
				C32.3,7.6,31.8,8.8,31.9,9.4z"/>
		</g>
		<g>
			<path class="st11" d="M29.9,9.2l0.2-0.4c-0.6-0.3-1.1-1.3-1.3-2.4c-0.1-0.9,0-1.5,0.4-1.9l-0.3-0.3c-0.5,0.5-0.7,1.3-0.5,2.3
				C28.5,7.6,29.1,8.9,29.9,9.2z"/>
		</g>
		<g>
			<path class="st11" d="M27.3,10.5c0.4,0,0.9-0.1,1.5-0.3l-0.2-0.4c-1.8,0.7-2.8-0.2-2.9-0.2l-0.3,0.3
				C25.5,9.9,26.2,10.5,27.3,10.5z"/>
		</g>
	</g>
	<g>
		<path class="st1" d="M34.4,19.7c-3.8-0.3-7.7,1.4-10.5,6.2c-2.8,4.8-4.9,8.9-6.2,10.6c2,2.1,7.7,1.5,10.6-1.3
			c2.9-2.8,4.8-7.8,6.1-9.4C35.1,23.7,35.4,20.2,34.4,19.7z"/>
		<path class="st2" d="M19.7,33.3c1.1-2,2.5-4.6,4.2-7.4c2.8-4.8,6.7-6.5,10.5-6.2c1,0.5,0.7,4,0,6.1c0,0,0,0,0,0
			c-0.2-0.2-0.5-0.5-0.5-0.7C29.2,27.4,24.9,35.4,19.7,33.3z"/>
		<path class="st3" d="M17.6,36.4c0.7-1,1.8-2.9,3.1-5.3c0.9-1.6,1.9-3.4,3-5.3c3.1-5.3,7.1-6.4,9.9-6.4c0.2,0,0.5,0,0.7,0
			c0,0.1-0.1,0.3-0.1,0.4c-0.2,0-0.4,0-0.6,0c-3.9,0-7.2,2.1-9.5,6.2c-1.1,1.9-2.1,3.7-3,5.3c-1.3,2.3-2.3,4.1-3.1,5.2
			c0.7,0.7,2,1,3.5,1c2.5,0,5.1-1,6.6-2.5c1.9-1.8,3.3-4.5,4.5-6.7c0.5-1,1-1.9,1.4-2.5c0.1,0.1,0.3,0.2,0.4,0.2
			c-0.4,0.6-0.9,1.4-1.4,2.5c-1.2,2.2-2.7,5-4.6,6.8c-1.6,1.6-4.4,2.6-7,2.6c-1.7,0-3.1-0.5-3.9-1.3l-0.1-0.1L17.6,36.4z"/>
	</g>
	<g>
		<path class="st12" d="M34,21.5c-4.5,2.1-8.2,11.4-13.7,14.1c7.6,1.1,11.4-7.6,13.6-10.9C34.3,23.2,34.5,21.7,34,21.5z"/>
		<path class="st13" d="M31.2,25.5c0.9-1.1,1.5-0.5,1.8,0.6c-2.3,3.9-6,10.5-12.7,9.5c1-0.5,2-1.2,2.9-2.1
			C26.4,31.8,28.8,28.5,31.2,25.5z"/>
		<path class="st3" d="M20.2,35.9l-0.7-0.1l0.6-0.3c2.8-1.4,5.2-4.6,7.4-7.6c2.1-2.8,4.1-5.5,6.3-6.5l0.1,0l0.1,0
			c0.6,0.2,0.6,1.3,0,3.5l0,0.1c-0.3,0.5-0.7,1.1-1.1,1.8c-2.2,3.7-5.6,9.3-11.4,9.3C21.1,36,20.7,36,20.2,35.9z M34,21.8
			c-2.1,1-4,3.6-6,6.3C25.8,31,23.6,34,21,35.5c0.2,0,0.4,0,0.6,0c5.6,0,8.8-5.5,11-9.1c0.4-0.7,0.8-1.3,1.1-1.8
			C34.2,22.5,34.1,21.9,34,21.8z"/>
	</g>
	<g>
		<path class="st1" d="M98.2,59.8c5.3-4,5.3-9.3,1.4-12.3c1.2-0.3,4.4,0.2,5.8,2c0.1-0.3,0.1-1.6-0.4-2.3c1.2,0.5,4.9,3.7,4.9,6.4
			c0.6-0.2,1-1.3,1-1.4c0.6,1.3,1.2,4.6,0,6.7c0.4,0,1-0.4,1-0.4c1,3.8-4.7,7.4-9.5,7.7C101,65.3,96.4,61.9,98.2,59.8z"/>
		<path class="st2" d="M105.9,61.4c0.5-0.9-0.9,0.9-1.4,0c2.7-0.9,4.1-3.2,5-5.9c-0.9,0.5-1.8,0.9-2.3,1.8c0-2.3,0.5-4.1,0-6.3
			c-0.9,0.5-0.5,1.8-0.9,2.3c-0.8-2.1-2.2-4.2-4-5.6c-1.1-0.3-2.1-0.3-2.7-0.2c3.8,3,3.9,8.4-1.4,12.3c-1.3,1.5,0.7,3.7,2.4,5.1
			C103,64.4,104.8,62.9,105.9,61.4z"/>
		<path class="st3" d="M102.5,66.3L102.5,66.3c-1.1-0.6-4.4-2.9-4.8-5c-0.1-0.6,0-1.2,0.4-1.7l0,0c2.6-1.9,4-4.3,4.1-6.8
			c0-2-0.9-3.8-2.7-5.2l-0.4-0.3l0.5-0.1c0.2-0.1,0.5-0.1,0.9-0.1c1.5,0,3.6,0.6,4.8,1.8c0-0.5-0.1-1.2-0.4-1.7l-0.4-0.6l0.6,0.2
			c1.2,0.5,4.7,3.5,5,6.2c0.3-0.3,0.5-0.8,0.6-1c0-0.1,0.1-0.1,0.1-0.1l0.2-0.3l0.2,0.3c0.6,1.2,1.2,4.2,0.2,6.5
			c0.2-0.1,0.4-0.2,0.5-0.3l0.3-0.2l0.1,0.3c0.3,1.2,0,2.5-0.9,3.7C109.7,64.4,105.9,66.2,102.5,66.3L102.5,66.3z M98.4,59.9
			c-0.3,0.4-0.4,0.8-0.3,1.3c0.4,1.8,3.3,4,4.5,4.6c3.3-0.2,6.8-1.9,8.4-4.1c0.7-1,1-2,0.9-3c-0.2,0.1-0.6,0.3-0.9,0.3H111l-0.4,0
			l0.2-0.3c1.1-1.9,0.7-4.6,0.2-6c-0.2,0.5-0.6,0.9-1,1.1l-0.3,0.1l0-0.3c0-2.3-2.7-5-4.2-5.9c0.2,0.8,0.2,1.6,0.2,1.9l-0.1,0.4
			l-0.3-0.3c-1.1-1.4-3.3-2-4.8-2c-0.1,0-0.2,0-0.3,0c1.6,1.4,2.5,3.2,2.4,5.2C102.6,55.4,101.1,57.9,98.4,59.9z"/>
	</g>
	<g>
		<path class="st0" d="M57.1,29.3C56.6,35,58.6,46.2,62.9,50c2,1.4,7.5,0.9,10.5,4.3c6.9,1,14.7-2.4,20.6-0.6
			c5.9,1.9,11.7,9.7,9.8,17.9c-1.9,8.1-2.1,8.7-1.2,10.9c0.8,2.2-1,5.3-2.1,8c-1.1,2.7-1.4,6.6-0.8,7.7c0.6,1.1,2,3.3-0.3,4.3
			c1,0.8,1.8,2.9,0.6,3.9c-1.3,1-7.6,2-8,0.8c-1.3,0.3-3,0-3-0.7c0.1-0.8,1.7-3.7,3.4-5.1c0.6-1.9,1-3,1.9-4.1
			c0.7-2.3,1.2-6,1.2-8.2c0.1-2.1-3.7-4.6-5.3-6.3C85.6,85.2,75,86.5,66.6,82c-7.4,0.2-14.9-5.8-15.2-19.2
			c-1.7-2.9-3.7-9.7-2.3-18.4C48.5,38.2,54.2,28.4,57.1,29.3z"/>
		<path class="st1" d="M57.1,29.3C56.6,35,58.6,46.2,62.9,50c2,1.4,7.5,0.9,10.5,4.3c6.9,1,14.7-2.4,20.6-0.6
			c5.9,1.9,11.3,10.1,6.9,17.2c-3.7,5.9-1.1,9.1-0.2,11.3c0.8,2.2-0.3,5.1-1.4,7.8c-1.1,2.7-1.4,6.6-0.8,7.7
			c0.6,1.1,1.6,4.3-0.7,5.3c1,0.8,3.5,2.4,2.2,3.3c-1.3,1-7.6,2-8,0.8c-1.3,0.3-3,0-3-0.7c0.1-0.8,1.7-3.7,3.4-5.1
			c0.6-1.9,1-3,1.9-4.1c0.7-2.3,1.2-6,1.2-8.2c0.1-2.1-7.4-9.2-8.9-10.9c-1.6,4-11.2,6.2-19.5,1.7c-7.4,0.2-13.6-4.6-13.9-17.9
			c-2.6-1.4-5.5-8.7-4.1-17.5C48.5,38.2,54.2,28.4,57.1,29.3z"/>
		<path class="st2" d="M92.5,53.4c-5.7-1-12.8,1.8-19.1,0.9c-3-3.4-8.5-2.9-10.5-4.3c-4.3-3.8-6.3-15-5.7-20.7
			c-2.9-0.8-8.7,8.9-8,15.2c-0.7,4.5-0.5,8.4,0,11.6c0.2,0.3,0.5,0.5,0.7,0.8c3.2,3.2,6.3-0.5,9.5-1.4C55.2,60.1,53,66.8,57,72.3
			c2.3,3.2,7.2,5.9,10.4,2.7c0.3,1.2,1,2.2,1.9,2.8c0-2.3-0.6-4.5-1.9-6.5c4.7,0.8,7.7,6.6,12.2,5.9c2.3-1.2,4.3-3,4.3-5.9
			c0.9,5.6,3.7,8.9,6,11.1c0.2,0.2,1.1,0.7,1.1,1.1c1.8,1.6,4.5,3.7,4.5,5.5c-0.1,2.1-0.5,5.9-1.2,8.2c-0.8,1.1-1.3,2.2-1.9,4.1
			c-1.7,1.4-3.3,4.4-3.4,5.1c-0.1,0.8,1.7,1,3,0.7c0.1,0.4,1.1,0.6,2.3,0.5c1.6-2,3.1-4,3.9-6.5c0.5-1.8-1.4-3.2-1.4-4.1
			c0-7.2,4.2-10.6,0-20.4c-0.9-3.6,3.2-7.2,4.1-11.3C102.1,59.1,97.3,55.8,92.5,53.4z"/>
		<path class="st3" d="M93.8,107.9c-1,0-1.7-0.2-1.9-0.5c-0.3,0-0.6,0.1-0.9,0.1c-0.4,0-1.5-0.1-1.9-0.5c-0.1-0.2-0.2-0.3-0.2-0.5
			c0.1-0.9,1.8-3.8,3.4-5.2c0.6-1.8,1-3,1.9-4.1c0.7-2.2,1.1-5.9,1.2-8.1c0-1.4-1.9-3.2-3.5-4.6c-0.6-0.5-1.2-1-1.6-1.5
			c-2.8,1.4-6.9,2.2-11,2.2c-3.2,0-8.1-0.5-12.6-2.9c-0.1,0-0.2,0-0.3,0c-7.2,0-14.7-6-15-19.3c-1.9-3.4-3.7-10.2-2.3-18.5
			c-0.4-4.4,2.2-10.6,5-13.6c1.3-1.4,2.4-2,3.3-1.7l0.2,0.1l0,0.2C56.8,35,58.8,46.1,63,49.8c0.7,0.5,1.9,0.7,3.2,1
			c2.4,0.5,5.3,1.1,7.2,3.2c0.8,0.1,1.7,0.2,2.6,0.2c2.3,0,4.7-0.3,7-0.7c2.3-0.3,4.5-0.6,6.7-0.6c1.6,0,3,0.2,4.3,0.6
			c6.2,2,11.8,10.1,9.9,18.1l-0.1,0.6c-1.8,7.5-1.9,8.1-1.1,10.2c0.7,1.9-0.4,4.3-1.4,6.6c-0.2,0.5-0.5,1-0.7,1.6
			c-1.1,2.6-1.4,6.4-0.8,7.5l0.1,0.1c0.5,0.8,1.2,2.1,0.8,3.2c-0.2,0.5-0.5,0.8-1,1.1c0.6,0.6,1.1,1.6,1,2.5c0,0.6-0.3,1.1-0.7,1.5
			C99.2,107.2,96,107.9,93.8,107.9z M92.2,106.9l0.1,0.2c0.1,0.2,0.5,0.4,1.6,0.4c2.1,0,5.2-0.7,6-1.3c0.4-0.3,0.5-0.6,0.6-1.1
			c0-0.9-0.6-1.9-1.1-2.4l-0.3-0.2l0.3-0.1c0.6-0.3,0.9-0.6,1-1c0.3-0.9-0.4-2.1-0.8-2.9l-0.1-0.1c-0.6-1.1-0.4-5.1,0.8-7.9
			c0.2-0.5,0.5-1,0.7-1.6c1-2.2,2.1-4.5,1.4-6.2c-0.9-2.2-0.7-2.8,1.1-10.4l0.1-0.6c1.8-7.8-3.6-15.7-9.6-17.6
			c-1.2-0.4-2.6-0.6-4.1-0.6c-2.1,0-4.3,0.3-6.6,0.6c-2.3,0.3-4.8,0.7-7.1,0.7c-1,0-1.9-0.1-2.7-0.2l-0.1,0l-0.1-0.1
			c-1.8-2.1-4.7-2.7-7-3.1c-1.4-0.3-2.7-0.6-3.4-1.1c-4.3-3.9-6.3-14.8-5.8-20.7c-0.7-0.1-1.7,0.5-2.7,1.6c-2.7,3-5.3,9-4.9,13.3
			l0,0l0,0c-1.3,8.3,0.4,15,2.3,18.3l0,0v0.1c0.3,13.3,7.8,19.2,15,19h0.1l0.1,0c4.5,2.4,9.3,2.9,12.5,2.9c4.1,0,8.3-0.9,11-2.2
			l0.2-0.1l0.1,0.1c0.4,0.5,1,1,1.7,1.6c1.7,1.5,3.7,3.3,3.6,4.9c-0.1,2.2-0.5,6-1.2,8.2l0,0.1c-0.8,1.1-1.3,2.2-1.8,4l0,0.1l0,0
			c-1.6,1.4-3.3,4.3-3.3,5c0,0,0,0.1,0.1,0.2c0.2,0.2,0.9,0.4,1.6,0.4c0.3,0,0.7,0,1-0.1L92.2,106.9z"/>
	</g>
	<g>
		<path class="st3" d="M90.4,83.2c-3.9-3.7-5.6-7.4-6.2-10.3c-0.8-3.6,0.3-6,0.3-6c0,0.1-2.2,8.1,6.2,16L90.4,83.2z"/>
	</g>
	<g>
		<g>
			<path class="st4" d="M92.4,101.3c-1.7,1.4-3.3,4.4-3.4,5.1c-0.1,0.8,1.7,1,3,0.7c0.7,1.7,6.7,0.1,8-0.8c1.3-1,0.4-3-0.6-3.9
				C97.2,103.1,93.8,102.4,92.4,101.3z"/>
			<path class="st5" d="M97.7,102.7c-2,0-4.2-0.6-5.3-1.4c-1.7,1.4-3.3,4.4-3.4,5.1c-0.1,0.8,1.7,1,3,0.7c0.1,0.2,0.2,0.3,0.4,0.4
				c1.4-0.5,2.7-1.3,4-2.3C97,105,97.8,103.9,97.7,102.7z"/>
			<path class="st6" d="M93.1,101.8c-0.3-0.1-0.5-0.3-0.7-0.4c-1.7,1.4-3.3,4.4-3.4,5.1c0,0.2,0.1,0.3,0.2,0.4
				C90.1,104.9,91.2,103,93.1,101.8z"/>
			<path class="st7" d="M94,108.2c-1.1,0-1.8-0.2-2.1-0.7c-0.3,0-0.6,0.1-0.9,0.1c-0.4,0-1.5-0.1-1.9-0.5c-0.1-0.2-0.2-0.3-0.2-0.5
				c0.1-0.9,1.8-3.8,3.5-5.3l0.1-0.1l0.1,0.1c1,0.8,3.1,1.4,5,1.4c0.7,0,1.3-0.1,1.8-0.2l0.1,0l0.1,0.1c0.7,0.6,1.3,1.7,1.3,2.8
				c0,0.6-0.3,1.1-0.7,1.5C99.2,107.3,96.1,108.2,94,108.2z M92.2,106.9l0.1,0.2c0.2,0.4,0.8,0.6,1.8,0.6c2.1,0,5.1-0.9,5.8-1.5
				c0.4-0.3,0.5-0.6,0.6-1.1c0-0.9-0.5-1.8-1-2.3c-0.5,0.1-1.2,0.2-1.8,0.2c-1.9,0-4-0.6-5.1-1.3c-1.6,1.4-3.1,4.2-3.2,4.8
				c0,0,0,0.1,0.1,0.2c0.2,0.2,0.9,0.4,1.6,0.4c0.3,0,0.7,0,1-0.1L92.2,106.9z"/>
		</g>
	</g>
	<g>
		<path class="st7" d="M91.8,107.2c-0.1-2,1.8-3.9,1.8-3.9c0,0-1.5,2.1-1.4,3.9L91.8,107.2z"/>
	</g>
	<g>
		<path class="st0" d="M70.1,86.3c4.9-5.8,2.4-11.4,2.4-11.4l-13.1-4.1c0,0-1.3,2-0.3,6.1c0.8,3.2,3.2,6.3,3.5,10
			c-1.6,2.8-0.2,5.2,1.1,6.4c-0.1,2.2,0.5,6.4-0.1,8.9c-2.1,2.3-3.4,5.3-3.1,6.2c0.3,0.9,2,0.9,2.6,0.9c-0.1,1.9,4.2,0.9,5.8,0.1
			c1.6-0.8,0.7-3.7,0-5c1.7,0,1.8-2.5,0.4-4.6c-0.8-1.8-0.3-5.5,0.5-7C71.4,90.5,71.3,87.3,70.1,86.3z"/>
		<path class="st1" d="M68.3,86c4.9-5.8,4.1-11.2,4.1-11.2l-13.1-4.1c0,0-1.3,2-0.3,6.1c0.8,3.2,3.2,6.3,3.5,10
			c-1.6,2.8-0.2,5.2,1.1,6.4c-0.1,2.2,0.5,6.4-0.1,8.9c-2.1,2.3-3.4,5.3-3.1,6.2c0.3,0.9,2,0.9,2.6,0.9c-0.1,1.9,4.2,0.9,5.8,0.1
			c1.6-0.8-1.1-3.9-1.8-5.2c1.7,0,1.7-3,0.3-5.1c-0.8-1.8,0.3-5.5,1-6.9C70.1,89.8,69.6,87,68.3,86z"/>
		<path class="st2" d="M59.1,76.9c0.8,3.2,3.2,6.3,3.5,10c-1.6,2.8-0.2,5.2,1.1,6.4c-0.1,2.2,0.5,6.4-0.1,8.9
			c-2.1,2.3-3.4,5.3-3.1,6.2c0.3,0.9,2,0.9,2.6,0.9c0,0.5,0.3,0.8,0.7,1c0.8-0.7,1.4-1.6,2.2-2.2c-0.5-0.9,1.4-2.7-0.9-3.2
			c3.2-3.2-0.9-7.2,0.9-10.9c0.9-2.3,2.6-3.4,1.5-6.3c-0.2-0.8-1.1-1.4-1.5-1.4c3-3.4,4.1-8.6,2.5-12.8l-9.2-2.7
			C59.4,70.8,58.1,72.8,59.1,76.9z"/>
		<path class="st3" d="M64.9,110.5c-0.6,0-1.1-0.1-1.4-0.3c-0.3-0.2-0.4-0.5-0.5-0.8c-0.8,0-2.2-0.1-2.6-1c-0.4-1,1.1-4.2,3.1-6.4
			c0.3-1.6,0.2-3.9,0.1-5.9c0-1-0.1-2-0.1-2.7c-1.5-1.5-2.6-4-1.1-6.6c-0.2-2-1.1-3.9-1.9-5.7c-0.7-1.4-1.3-2.7-1.6-4.1
			c-1-4.2,0.7-6,0.7-6c0,0-1.2,1.9-0.3,5.9c0.3,1.4,0.9,2.7,1.6,4c0.9,1.9,1.8,3.8,2,6l0,0.1l0,0.1c-1.7,3,0.4,5.5,1.1,6.2l0.1,0.1
			l0,0.1c0,0.7,0,1.7,0.1,2.8c0.1,2.1,0.2,4.5-0.2,6.1l0,0.1l0,0c-2.1,2.3-3.3,5.3-3,6c0.3,0.7,1.9,0.7,2.4,0.7h0.2l0,0.2
			c0,0.3,0.1,0.5,0.3,0.6c1,0.7,3.9-0.1,5.2-0.7c0.3-0.1,0.5-0.4,0.6-0.8c0.4-1.1-0.3-3-0.7-3.9l-0.2-0.3l0.4,0
			c0.4,0,0.8-0.2,0.9-0.6c0.4-0.8,0.1-2.4-0.8-3.7c-0.8-1.9-0.3-5.7,0.4-7.2c1.5-2.2,1.5-5.3,0.4-6.2l-0.2-0.1l0.2-0.2
			c4.8-5.6,2.4-11.1,2.3-11.2c0,0,1.3,1.8,1,4.6c-0.2,2-0.9,4.3-2.9,6.7c1.1,1.2,1.2,4.3-0.4,6.6c-0.7,1.4-1.2,5-0.4,6.7
			c1,1.4,1.3,3.1,0.8,4.1c-0.2,0.4-0.6,0.7-1,0.8c0.5,1.1,1,2.8,0.6,4c-0.2,0.5-0.4,0.8-0.9,1C68.2,109.9,66.3,110.5,64.9,110.5z"/>
	</g>
	<g>
		<path class="st4" d="M63.7,102.1c-2.1,2.3-3.4,5.3-3.1,6.2c0.3,0.9,2,0.9,2.6,0.9c-0.1,1.9,4.2,0.9,5.8,0.1c1.6-0.8,0.7-3.7,0-5
			C67.2,104.5,64.3,103.1,63.7,102.1z"/>
		<path class="st5" d="M66.9,104.1c-1.4-0.4-2.9-1.3-3.3-1.9c-2.1,2.3-3.4,5.3-3.1,6.2c0.3,0.9,2,0.9,2.6,0.9
			c-0.1,0.7,0.6,1.1,1.4,1.1c0.5-0.2,1-0.5,1.5-0.9C68,108.2,67.6,106.1,66.9,104.1z"/>
		<path class="st6" d="M64.3,102.8c-0.3-0.2-0.5-0.4-0.6-0.6c-2.1,2.3-3.4,5.3-3.1,6.2c0.1,0.3,0.4,0.5,0.7,0.6
			C61.5,106.5,62.2,104.1,64.3,102.8z"/>
		<path class="st7" d="M64.9,110.5c-0.8,0-1.3-0.2-1.6-0.5c-0.2-0.2-0.2-0.4-0.3-0.6c-0.8,0-2.2-0.1-2.6-1c-0.4-1,1.1-4.2,3.1-6.4
			l0.2-0.2l0.2,0.3c0.6,0.9,3.4,2.3,5.1,2.1l0.2,0l0.1,0.1c0.5,1,1.2,3,0.8,4.3c-0.2,0.5-0.4,0.8-0.9,1
			C68.2,109.9,66.3,110.5,64.9,110.5z M63.6,102.5c-2,2.3-3.1,5.1-2.9,5.7c0.3,0.7,1.9,0.7,2.4,0.7h0.2l0,0.2c0,0.2,0,0.4,0.2,0.5
			c0.2,0.2,0.7,0.4,1.3,0.4c1.2,0,3-0.5,4-1c0.3-0.1,0.5-0.4,0.6-0.8c0.4-1.1-0.2-2.8-0.7-3.8C67.2,104.7,64.6,103.5,63.6,102.5z"/>
	</g>
	<g>
		<path class="st7" d="M63,109.3c-0.1-2.7,1.7-4.7,1.7-4.7c0,0-1.3,2.1-1.2,4.6L63,109.3z"/>
	</g>
	<g>
		<path class="st3" d="M74,56.5c0,0-0.3-1.8-1.4-2.6l0.3-0.4C74.1,54.4,74,56.5,74,56.5z"/>
	</g>
	<g>
		<path class="st14" d="M62,49.1c-1.8,4.5-7.7,11.4-10.5,12.4c-1.6-0.9-2.2-4.5-2.4-5.6c-0.7,0.1-1.6,2.1-1.3,3.8
			c0.3,1.7,1.6,4.1,3.5,4.3c1.9,0.2,6-3,8.4-6.4c2.4-3.3,3.8-5.7,3.8-7.3C63.5,49.8,63,49.2,62,49.1z"/>
		<path class="st15" d="M62,49.1c-1.8,4.5-7.7,11.4-10.5,12.4c-1.6-0.9-2.2-4.5-2.4-5.6c-0.7,0.1-1.4,1.5-1.1,3.2
			c0.3,1.7,1.4,3.2,3.3,3.4c1.9,0.2,5.1-1.9,7.6-5.3c2.4-3.3,4.6-5.3,4.7-6.9C63.5,49.8,63,49.2,62,49.1z"/>
		<path class="st16" d="M51.5,64.2L51.5,64.2c-0.1,0-0.2,0-0.2,0c-2.1-0.3-3.4-2.9-3.7-4.5c-0.2-1.3,0.2-2.7,0.7-3.4
			c0.3-0.4,0.5-0.6,0.8-0.6l0.2,0l0,0.2c0.4,2.8,1.2,4.7,2.2,5.4c2.8-1.1,8.6-8,10.3-12.2l0.1-0.2l0.2,0c1.1,0.1,1.7,0.8,1.8,1.5
			c-0.1,1.6-1.2,3.8-3.9,7.4C57.7,60.8,53.7,64.2,51.5,64.2z M48.9,56.2c-0.1,0.1-0.2,0.2-0.3,0.3c-0.5,0.7-0.8,1.9-0.6,3.1
			c0.3,1.6,1.5,3.9,3.3,4.1c1.8,0.2,5.7-2.9,8.2-6.3c2.6-3.6,3.7-5.7,3.8-7.1c0-0.3-0.3-0.9-1.2-1c-1.9,4.4-7.7,11.3-10.6,12.4
			l-0.1,0l-0.1-0.1C50,60.9,49.3,58.3,48.9,56.2z"/>
	</g>
	<g>
		<path class="st14" d="M52,61.2c-0.5,0.7-0.8,2.2-0.2,2.8c0.4-0.1,1.3-0.4,2.1-0.9c-0.1,1.2-1,2.8-2.6,2.6c-2-0.3-1.8-3.5-0.8-5.2
			C50.8,60.4,51.8,60.7,52,61.2z"/>
		<path class="st15" d="M51.2,64.1c0.2-0.2,0.3-0.5,0.4-0.8c-0.1-0.7,0.1-1.7,0.5-2.2c-0.2-0.5-1.2-0.8-1.5-0.7
			c-0.5,0.9-0.8,2.1-0.7,3.2C50,64.1,50.4,64.3,51.2,64.1z"/>
		<path class="st16" d="M51.6,65.9c-0.1,0-0.2,0-0.4,0c-0.7-0.1-1.2-0.5-1.4-1.1c-0.6-1.3-0.2-3.2,0.5-4.4l0-0.1l0.1,0
			c0.4-0.1,1.5,0.2,1.7,0.8l0.1,0.1l-0.1,0.1c-0.4,0.6-0.6,1.9-0.3,2.4c0.5-0.1,1.3-0.4,1.9-0.8l0.4-0.3l0,0.5
			C54.1,64.3,53.3,65.9,51.6,65.9z M50.7,60.7c-0.7,1.2-0.9,2.9-0.4,3.9c0.2,0.5,0.6,0.8,1.1,0.9c1.3,0.2,2-1,2.3-1.9
			c-0.8,0.4-1.6,0.6-1.8,0.7l-0.1,0l-0.1-0.1c-0.6-0.6-0.3-2.1,0.1-2.9C51.5,60.9,51,60.7,50.7,60.7C50.7,60.7,50.7,60.7,50.7,60.7z
			"/>
	</g>
	<g>
		<path class="st16" d="M51.4,63.8l0.4-0.2c0.2,0.4,0.7,0.7,0.7,0.7C52.5,64.3,51.7,64.6,51.4,63.8z"/>
	</g>
	<g>
		<ellipse transform="matrix(0.2027 -0.9792 0.9792 0.2027 -33.4943 104.9107)" class="st17" cx="47.7" cy="73" rx="2.3" ry="5.3"/>
		<path class="st18" d="M44.4,72.7c-0.5-0.2-1.3-0.6-1.7-1.2c-0.1,0.1-0.2,0.3-0.2,0.4c-0.3,1.2,1.9,2.7,4.8,3.3
			c2.9,0.6,5.4,0.1,5.7-1.2c0-0.1,0-0.1,0-0.2C50.3,75,47,74.4,44.4,72.7z"/>
		<path class="st19" d="M49.5,75.7c-0.8,0-1.6-0.1-2.4-0.3c-3.1-0.6-5.2-2.2-5-3.6c0.2-1,1.6-1.6,3.6-1.6c0.8,0,1.6,0.1,2.4,0.3
			c3.1,0.6,5.2,2.2,5,3.6C52.9,75.1,51.6,75.7,49.5,75.7z M45.8,70.8c-1.7,0-3,0.5-3.2,1.2c-0.2,1,1.6,2.4,4.6,3.1
			c0.8,0.2,1.6,0.2,2.3,0.2c1.7,0,3-0.5,3.2-1.2c0.2-1-1.6-2.4-4.6-3.1C47.3,70.8,46.5,70.8,45.8,70.8z"/>
	</g>
	<g>
		<ellipse class="st20" cx="48" cy="72.5" rx="1.4" ry="1.7"/>
		<path class="st21" d="M48,74.3c-0.9,0-1.7-0.8-1.7-1.9c0-1,0.7-1.9,1.7-1.9c0.9,0,1.7,0.8,1.7,1.9C49.7,73.5,48.9,74.3,48,74.3z
			 M48,71c-0.7,0-1.2,0.6-1.2,1.4c0,0.8,0.5,1.4,1.2,1.4c0.7,0,1.2-0.6,1.2-1.4C49.2,71.7,48.7,71,48,71z"/>
	</g>
	<g>
		<path class="st22" d="M47.3,64.9c-1.2,0.4-5.3,5.4-4.8,7.1c2.5-1.7,8.7-0.6,10.5,2.2c1.1-1.2,0.7-6.9,0.1-8
			C52.5,65.1,49.3,64.1,47.3,64.9z"/>
		<path class="st23" d="M51.2,69.1c0.3-1.4,0.2-3-0.5-4.3c-1.1-0.3-2.4-0.3-3.4,0.1c-1.2,0.4-5.3,5.4-4.8,7.1c1.3-0.9,3.6-1,5.8-0.5
			C49.5,71.2,50.6,70.5,51.2,69.1z"/>
		<path class="st24" d="M49.1,64.6c-0.7,0-1.3,0.1-1.9,0.3c-1.2,0.4-5.3,5.4-4.8,7.1c0.2-0.1,0.3-0.2,0.5-0.3
			C44,68.6,46.1,65.8,49.1,64.6z"/>
		<path class="st19" d="M52.9,74.5l-0.2-0.2c-1.2-1.9-4.5-2.9-7-2.9c-1.3,0-2.4,0.3-3.2,0.8l-0.3,0.2L42.2,72
			c-0.6-1.9,3.6-6.9,5-7.4c0.5-0.2,1.1-0.3,1.7-0.3c1.8,0,3.9,0.8,4.3,1.7c0.6,1.1,1.1,6.9-0.2,8.2L52.9,74.5z M45.7,70.9
			c2.5,0,5.7,1,7.2,2.8c0.8-1.5,0.5-6.5-0.1-7.5c-0.4-0.7-2.2-1.4-3.9-1.4c-0.6,0-1.1,0.1-1.6,0.3c-1.1,0.4-4.7,4.7-4.7,6.5
			C43.4,71.1,44.5,70.9,45.7,70.9z"/>
	</g>
	<g>
		<g>
			<path class="st8" d="M53.9,18.4c1.4-2.4,0.5-5.4,1.4-7.8c0.9-2.4,4.2-2.4,4.8-0.9c0.6,1.4-1.1,3.2-0.3,3.9
				C61,14,63.7,11,63.1,7.8c-0.6-3.2-4.4-4.8-7.8-3.5c-3.4,1.3-6.3,6.6-7.4,11C47.9,18.3,52.4,19.2,53.9,18.4z"/>
			<path class="st9" d="M52.1,17.5c1.4-2.4,1.3-5.5,2.1-7.9c1-3.1,5.4-3.8,6.3-1.8c0.6,1.4,3.2,3.2,2.6,0c-0.6-3.2-4.4-4.8-7.8-3.5
				c-3.4,1.3-6.3,6.6-7.4,11C47.9,18.3,50.5,18.3,52.1,17.5z"/>
			<path class="st10" d="M51.2,14.4c0.9-2.4,1.3-5.5,3.2-7.2c1.9-1.7,5.9-2.7,7.7,0.3c-0.9-1.8-3.4-3.2-6.8-1.5
				c-3.7,1.8-4.4,6.4-4.7,8C50.5,14.5,51.2,14.4,51.2,14.4z"/>
			<path class="st11" d="M52.6,18.9L52.6,18.9c-2,0-4.9-1.1-5-3.7l0,0l0,0c1.1-4.6,4.1-9.9,7.6-11.2c0.8-0.3,1.6-0.5,2.5-0.5
				c2.8,0,5.2,1.7,5.6,4.2c0.4,2-0.4,3.8-1.3,4.9c-0.7,0.9-1.6,1.4-2.2,1.2l-0.1,0c-0.5-0.4-0.3-1.1,0-1.9c0.2-0.7,0.5-1.4,0.2-2.1
				c-0.2-0.5-0.9-0.8-1.7-0.8c-0.9,0-2.2,0.5-2.6,1.8c-0.4,1-0.4,2.2-0.5,3.4c-0.1,1.5-0.1,3.1-0.9,4.4l0,0.1l-0.1,0
				C53.7,18.8,53.1,18.9,52.6,18.9z M48.1,15.3c0.1,2.2,2.7,3.2,4.5,3.2h0c0.5,0,0.9-0.1,1.2-0.2c0.7-1.3,0.7-2.8,0.8-4.2
				c0-1.2,0.1-2.4,0.5-3.5c0.6-1.5,2-2.1,3.1-2.1c1,0,1.8,0.4,2.1,1.1c0.3,0.8,0,1.6-0.2,2.4c-0.2,0.7-0.4,1.1-0.1,1.4
				c0.4,0.1,1.1-0.3,1.7-1c0.8-1,1.6-2.7,1.2-4.5C62.4,5.6,60.3,4,57.7,4c-0.8,0-1.6,0.1-2.3,0.4C52,5.7,49.1,10.9,48.1,15.3z"/>
		</g>
		<g>
			<path class="st11" d="M54.7,12.2c-0.3-0.7-1.2-1.5-2.3-1.9c-1-0.4-1.9-0.4-2.6,0l-0.2-0.4c0.8-0.4,1.9-0.4,3,0
				c1.2,0.5,2.2,1.3,2.5,2.1L54.7,12.2z"/>
		</g>
		<g>
			<path class="st11" d="M56.8,9.2l-0.4-0.1c0.1-0.5-0.4-1.6-1.1-2.3c-0.7-0.7-1.5-1.1-2.1-1l-0.1-0.4c0.8-0.1,1.7,0.3,2.5,1.1
				C56.5,7.3,57,8.5,56.8,9.2z"/>
		</g>
		<g>
			<path class="st11" d="M58.8,9l-0.2-0.4c0.6-0.3,1.1-1.3,1.3-2.4c0.1-0.8,0-1.5-0.4-1.9L59.9,4c0.5,0.5,0.7,1.3,0.5,2.3
				C60.2,7.3,59.6,8.6,58.8,9z"/>
		</g>
		<g>
			<path class="st11" d="M61.4,10.2c-0.4,0-0.9-0.1-1.5-0.3l0.2-0.4c1.8,0.7,2.8-0.2,2.9-0.2l0.3,0.3C63.3,9.6,62.6,10.2,61.4,10.2z
				"/>
		</g>
	</g>
	<g>
		<path class="st25" d="M40.6,49.1c-0.1,1.9,0.4,5.3,0.9,6.6c0.1-0.3,0.8-1.1,0.8-1.1c-0.2,1.1,1,5.3,1.3,6.2c0.7-0.9,2-4.4,2.2-5.9
			c0.2,0.2,0.7,1.2,0.7,1.5c1-1.4,1.9-6.5,1.8-8.3C46.6,50.3,43.7,52.9,40.6,49.1z"/>
		<path class="st26" d="M40.6,49.1c-0.1,1.9,0.4,5.3,0.9,6.6c0.1-0.3,1.2-3.1,1.2-3.1c-0.2,1.1,0.6,5.2,1,6c0.7-0.9,1.4-4.5,1.6-6
			c0.2,0.2,0.9,2.4,0.9,2.7c1-1.4,1.1-4.7,1-6.5C45.5,51,43.7,52.9,40.6,49.1z"/>
		<path class="st27" d="M43.6,61.2l-0.1-0.4c-0.3-0.7-1.3-4-1.4-5.6c-0.2,0.2-0.4,0.4-0.4,0.5l-0.2,0.5l-0.2-0.5
			c-0.5-1.3-1-4.7-0.9-6.6l0-0.6l0.4,0.5c2.3,2.8,4.7,2.4,7.4-1.1l0.4-0.5l0.1,0.6c0.2,1.8-0.8,7-1.8,8.4l-0.3,0.5l-0.1-0.6
			c0-0.1-0.2-0.5-0.4-0.9c-0.4,1.7-1.5,4.6-2.2,5.4L43.6,61.2z M42.7,53.8l-0.2,0.8c-0.2,0.9,0.7,4.3,1.2,5.6
			c0.7-1.2,1.8-4.1,1.9-5.4l0.1-0.5l0.3,0.3c0.1,0.2,0.4,0.7,0.6,1.1c0.8-1.6,1.4-5.2,1.5-7.1c-2.5,3.1-5.1,3.4-7.3,1
			c0,1.7,0.4,4.1,0.7,5.4c0.2-0.3,0.5-0.6,0.6-0.7L42.7,53.8z"/>
	</g>
	<g>
		<path class="st1" d="M38,45.1c0.8,3.4,2.5,7.4,6,7.4c3.5,0,5.9-4.6,6.1-7.4C48,44,39.7,44,38,45.1z"/>
		<path class="st2" d="M38,45.1c0.8,3.4,2.3,6.2,5.8,6.2c3.5,0,4.9-4,5.1-6.8C46.8,43.4,39.7,44,38,45.1z"/>
		<path class="st3" d="M44,52.7L44,52.7L44,52.7c-4,0-5.6-4.8-6.3-7.6l0-0.2l0.1-0.1c1-0.6,3.8-0.8,6.1-0.8c2.3,0,5.1,0.2,6.3,0.8
			l0.1,0.1l0,0.2C50.1,47.8,47.8,52.7,44,52.7z M38.2,45.2c0.6,2.7,2.2,7,5.7,7l0,0.2v-0.2c3.2,0,5.5-4.1,5.8-7
			c-1-0.4-3.3-0.7-5.9-0.7C41.3,44.5,39.1,44.8,38.2,45.2z"/>
	</g>
	<g>
		<path class="st28" d="M40.1,46c0.4,2,1.4,4.3,3.5,4.3c2,0,3.4-2.6,3.5-4.3C45.9,45.4,41.1,45.4,40.1,46z"/>
		<path class="st3" d="M43.5,50.5L43.5,50.5L43.5,50.5c-2.4,0-3.3-2.8-3.7-4.5l0-0.2l0.1-0.1c0.6-0.4,2.2-0.5,3.5-0.5
			c1.3,0,3,0.1,3.7,0.5l0.1,0.1l0,0.2C47.1,47.6,45.8,50.5,43.5,50.5z M40.3,46.1c0.4,1.5,1.2,3.9,3.2,3.9l0,0.2v-0.2
			c1.7,0,3.1-2.3,3.3-3.9c-0.6-0.2-1.9-0.4-3.3-0.4C42.1,45.8,40.9,45.9,40.3,46.1z"/>
	</g>
	<g>
		<path class="st1" d="M43.4,46.4c1.4,1,5.1,1.8,7.9-0.5c2.7-2.3,2.9-7.4,2.6-9.5c1.9-2.5,4.9-4.5,4.7-10.2
			c-0.2-5.7-4.1-11.4-7.6-13c-1-1.7-4.2-3-5.7-3.1c0.5,0.4,1.1,1.4,1.4,2.3c-1.1-0.8-3.3-1.1-5.4-0.4c0.4,0.2,0.8,0.9,0.8,0.9
			c-2.4,0-6.6,1.8-8.7,5.8c-2,3.9-3.1,11.8,2,16.9c0.5,3.2-0.6,7,0.9,9.5C37.6,47.6,41.6,48.1,43.4,46.4z"/>
		<path class="st2" d="M43.2,42.8c1.4,1,3.9,3.3,6.6,1.1c2.7-2.3,1.8-6.5,1.6-8.7c1.9-2.5,5.7-5,5.5-10.7c-0.2-5.7-2.4-9.8-5.9-11.4
			c-1-1.7-4.2-3-5.7-3.1c0.5,0.4,1.1,1.4,1.4,2.3c-1.1-0.8-3.3-1.1-5.4-0.4c0.4,0.2,0.8,0.9,0.8,0.9c-2.4,0-6.6,1.8-8.7,5.8
			c-2,3.9-2.7,10.1,2.4,15.2c0.5,3.2-0.3,6.8,1.2,9.3C38.3,45.6,41.4,44.5,43.2,42.8z"/>
		<ellipse class="st1" cx="49.4" cy="27.8" rx="3.2" ry="4.6"/>
		<ellipse class="st1" cx="38" cy="27.8" rx="3.2" ry="4.6"/>
		<path class="st3" d="M47,47.6c-1.6,0-2.9-0.5-3.6-0.9c-0.7,0.6-1.7,0.9-2.8,0.9l0,0c-1.9,0-3.8-0.9-4.6-2.4
			c-1-1.6-0.9-3.8-0.8-5.9c0-1.2,0.1-2.5-0.1-3.6c-5.2-5.3-4-13.3-2-17.1c2-3.9,6-5.7,8.5-5.9c-0.1-0.2-0.3-0.4-0.5-0.5l-0.4-0.3
			l0.4-0.1c1.7-0.6,3.7-0.6,5,0c-0.3-0.7-0.7-1.3-1.1-1.6l-0.5-0.4l0.7,0c1.6,0.1,4.8,1.4,5.9,3.1c3.5,1.7,7.5,7.5,7.7,13.2
			c0.2,4.7-1.8,7-3.6,9c-0.4,0.4-0.8,0.9-1.1,1.3c0.3,2.4,0,7.4-2.7,9.6C49.9,47.4,48.2,47.6,47,47.6z M43.3,46.1l0.1,0.1
			c0.6,0.4,2,0.9,3.5,0.9c1.1,0,2.6-0.2,4.1-1.4c2.7-2.3,2.8-7.5,2.5-9.3l0-0.1l0.1-0.1c0.4-0.5,0.8-0.9,1.2-1.4
			c1.8-2,3.6-4.1,3.5-8.7c-0.2-5.6-4.1-11.2-7.5-12.8l-0.1,0l0-0.1c-0.8-1.4-3.3-2.6-4.9-2.9c0.5,0.6,0.8,1.5,1,1.9l0.3,0.7
			l-0.6-0.5c-1-0.8-3.1-1-4.9-0.5c0.3,0.3,0.5,0.7,0.5,0.7l0.2,0.3l-0.4,0c-2.2,0-6.5,1.8-8.5,5.6c-2,3.7-3.2,11.5,1.9,16.6l0.1,0.1
			l0,0.1c0.2,1.2,0.1,2.5,0.1,3.8c-0.1,2.1-0.1,4.2,0.8,5.7c0.8,1.3,2.4,2.2,4.2,2.2c1.1,0,2-0.3,2.6-0.9L43.3,46.1z"/>
	</g>
	<g>
		<path class="st3" d="M43.1,46.5c-0.4-1.6-0.4-4.8-0.4-4.9h0.5c0,0,0,3.3,0.4,4.8L43.1,46.5z"/>
	</g>
	<g>
		<path class="st29" d="M38.2,37.5c0,1.2,1.6,4.9,4.7,5.1c3.2,0.1,5.1-3.5,5.2-4.7C47,35.2,39.5,35.1,38.2,37.5z"/>
		<path class="st30" d="M38.2,37.5c1,4.3,9.1,2.8,10,0.4C47,35.2,39.5,35.1,38.2,37.5z"/>
		<path class="st31" d="M38.2,37.5c2.1-1.8,8.3-1.4,10,0.4C47,35.2,39.5,35.1,38.2,37.5z"/>
		<path class="st32" d="M43.2,42.8L43.2,42.8c-0.1,0-0.1,0-0.2,0c-3.4-0.2-4.9-4.1-5-5.3l0-0.1l0-0.1c0.7-1.4,3.1-1.9,4.9-1.9
			c2.1,0,4.8,0.6,5.5,2.3l0,0.1l0,0.1C48.3,39.2,46.3,42.8,43.2,42.8z M38.5,37.6c0.1,1.1,1.5,4.7,4.5,4.8c3.1,0.1,4.8-3.4,5-4.4
			c-0.6-1.4-3-2-5.1-2C40.7,36,39,36.6,38.5,37.6z"/>
	</g>
	<g>
		<path class="st3" d="M38.8,15.9l-0.4,0l0.4-0.6c0.6-0.9,1.4-2.1,3.1-2.5l0.1,0.4c-1.4,0.4-2.2,1.4-2.8,2.3
			c1.4,0.1,2.9,0.7,2.9,0.7C42.2,16.2,40.3,15.8,38.8,15.9z"/>
	</g>
	<g>
		<g>
			<g>
				<g>
					<g>
						<g>
							<g>
								<g>
									<g>
										<g>
											<g>
												<g>
													<g>
														<g>
															<g>
																<path class="st33" d="M46.7,28.6c0,2.1,1.2,3.8,2.8,3.9c1.6,0.1,2.8-1.6,2.8-3.7c0-2.1-1.2-3.8-2.8-3.9
																	C47.9,24.9,46.7,26.5,46.7,28.6z"/>
															</g>
														</g>
													</g>
													<g>
														<g>
															<g>
																<g>
																	<g>
																		<g>
																			<g>
																				<g>
																					<g>
																						<path class="st34" d="M46.7,28.6c0,2.1,5.6,2.3,5.6,0.2c0-2.1-1.2-3.8-2.8-3.9C47.9,24.9,46.7,26.5,46.7,28.6
																							z"/>
																					</g>
																				</g>
																			</g>
																		</g>
																	</g>
																</g>
															</g>
														</g>
													</g>
													<g>
														<g>
															<g>
																<path class="st3" d="M49.5,32.6L49.5,32.6L49.5,32.6c-1.7-0.1-3.1-1.9-3-4c0-2.1,1.3-3.8,2.9-3.8h0.1
																	c1.6,0.1,3,1.9,3,4C52.4,31,51.2,32.6,49.5,32.6z M49.4,25.1c-1.4,0-2.6,1.6-2.6,3.5c0,2,1.2,3.7,2.7,3.7h0.1
																	c1.4,0,2.6-1.6,2.6-3.5C52.1,26.8,51,25.2,49.4,25.1L49.4,25.1z"/>
															</g>
														</g>
													</g>
												</g>
											</g>
										</g>
									</g>
								</g>
							</g>
						</g>
					</g>
				</g>
			</g>
		</g>
		<g>
			<g>
				<g>
					<g>
						<g>
							<g>
								<g>
									<g>
										<g>
											<g>
												<path class="st35" d="M47.7,28.9c0,1.4,0.8,2.5,1.9,2.6c1,0.1,1.8-1,1.8-2.3c0-1.4-0.8-2.5-1.9-2.6
													C48.5,26.5,47.7,27.5,47.7,28.9z"/>
											</g>
										</g>
									</g>
								</g>
							</g>
						</g>
					</g>
				</g>
			</g>
			<g>
				<g>
					<g>
						<g>
							<g>
								<g>
									<g>
										<g>
											<g>
												<path class="st36" d="M47.7,29c0.1,1.4,3.8,1.3,3.7,0c-0.1-1.4-1-2.4-2-2.4C48.4,26.6,47.6,27.7,47.7,29z"/>
											</g>
										</g>
									</g>
								</g>
							</g>
						</g>
					</g>
				</g>
			</g>
			<g>
				<g>
					<g>
						<g>
							<g>
								<g>
									<g>
										<g>
											<g>
												<path class="st37" d="M47.6,28.9c0-0.7,0.2-1.3,0.5-1.8c0.4-0.5,0.9-0.7,1.4-0.7c0.2,0,0.4,0.1,0.6,0.2
													c0.8,0.4,1.3,1.4,1.4,2.5c0,1.4-0.9,2.5-2,2.5c-0.2,0-0.4-0.1-0.6-0.2C48.1,31,47.6,30,47.6,28.9z M49.5,26.7
													c-0.4,0-0.9,0.2-1.2,0.6c-0.3,0.4-0.5,1-0.5,1.6c0,1,0.5,1.9,1.2,2.3c0.2,0.1,0.3,0.1,0.5,0.1c0.9,0.1,1.7-1,1.7-2.2
													c0-1-0.5-1.9-1.2-2.3C49.9,26.7,49.7,26.7,49.5,26.7z"/>
											</g>
										</g>
									</g>
								</g>
							</g>
						</g>
					</g>
				</g>
			</g>
		</g>
		<g>
			<g>
				<g>
					<g>
						<g>
							<g>
								<g>
									<g>
										<g>
											<g>
												<path class="st38" d="M48.5,29c-0.1,0.8,0.4,1.5,1,1.6c0.6,0.1,1.2-0.5,1.3-1.2c0.1-0.8-0.4-1.5-1-1.6
													C49.1,27.7,48.6,28.3,48.5,29z"/>
											</g>
										</g>
									</g>
								</g>
							</g>
						</g>
					</g>
				</g>
			</g>
		</g>
		<g>
			<g>
				<g>
					<g>
						<g>
							<g>
								<g>
									<g>
										<g>
											<g>
												<path class="st34" d="M48.4,27.7c-0.2,0.3,0,0.6,0.3,0.7c0.3,0.1,0.7,0,0.8-0.3c0.2-0.3,0-0.6-0.3-0.7
													C48.9,27.3,48.5,27.4,48.4,27.7z"/>
											</g>
										</g>
									</g>
								</g>
							</g>
						</g>
					</g>
				</g>
			</g>
		</g>
		<g>
			<g>
				<g>
					<g>
						<g>
							<g>
								<g>
									<g>
										<g>
											<g>
												<path class="st34" d="M48.5,28.9c-0.1,0.1,0,0.3,0.2,0.4c0.2,0.1,0.4,0,0.5-0.1c0.1-0.2,0-0.3-0.2-0.4
													C48.8,28.6,48.6,28.7,48.5,28.9z"/>
											</g>
										</g>
									</g>
								</g>
							</g>
						</g>
					</g>
				</g>
			</g>
		</g>
	</g>
	<g>
		<g>
			<g>
				<g>
					<g>
						<g>
							<g>
								<g>
									<g>
										<g>
											<g>
												<g>
													<g>
														<g>
															<g>
																<path class="st33" d="M35.2,28.1c-0.2,2.1,0.8,3.9,2.3,4.2c1.5,0.2,3-1.3,3.2-3.3c0.2-2.1-0.8-3.9-2.3-4.2
																	C36.9,24.5,35.4,26,35.2,28.1z"/>
															</g>
														</g>
													</g>
													<g>
														<g>
															<g>
																<g>
																	<g>
																		<g>
																			<g>
																				<g>
																					<g>
																						<path class="st34" d="M35.2,28.1c-0.2,2.1,5.3,2.9,5.6,0.8c0.2-2.1-0.8-3.9-2.3-4.2
																							C36.9,24.5,35.4,26,35.2,28.1z"/>
																					</g>
																				</g>
																			</g>
																		</g>
																	</g>
																</g>
															</g>
														</g>
													</g>
													<g>
														<g>
															<g>
																<path class="st3" d="M37.6,32.4L37.6,32.4L37.6,32.4c-1.7-0.3-2.8-2.2-2.6-4.4c0.3-2.1,1.7-3.7,3.3-3.5l0.1,0
																	c1.6,0.2,2.7,2.2,2.5,4.3C40.7,31.1,39.2,32.6,37.6,32.4z M38.3,24.9c-1.4-0.2-2.7,1.3-3,3.2c-0.2,2,0.8,3.8,2.2,4
																	l0.1,0c1.4,0.2,2.7-1.3,3-3.2C40.8,26.9,39.8,25.1,38.3,24.9L38.3,24.9z"/>
															</g>
														</g>
													</g>
												</g>
											</g>
										</g>
									</g>
								</g>
							</g>
						</g>
					</g>
				</g>
			</g>
		</g>
		<g>
			<g>
				<g>
					<g>
						<g>
							<g>
								<g>
									<g>
										<g>
											<g>
												<path class="st35" d="M36.2,28.5c-0.1,1.3,0.6,2.6,1.6,2.7c1,0.2,1.9-0.8,2.1-2.1c0.1-1.3-0.6-2.6-1.6-2.7
													C37.2,26.2,36.3,27.1,36.2,28.5z"/>
											</g>
										</g>
									</g>
								</g>
							</g>
						</g>
					</g>
				</g>
			</g>
			<g>
				<g>
					<g>
						<g>
							<g>
								<g>
									<g>
										<g>
											<g>
												<path class="st36" d="M36.2,28.6c-0.1,1.3,3.6,1.8,3.7,0.4c0.1-1.3-0.7-2.5-1.7-2.6C37.1,26.2,36.2,27.2,36.2,28.6z"/>
											</g>
										</g>
									</g>
								</g>
							</g>
						</g>
					</g>
				</g>
			</g>
			<g>
				<g>
					<g>
						<g>
							<g>
								<g>
									<g>
										<g>
											<g>
												<path class="st37" d="M36,28.5c0.1-0.7,0.3-1.3,0.7-1.7c0.4-0.4,0.9-0.6,1.5-0.5c0.2,0,0.4,0.1,0.6,0.2
													c0.8,0.5,1.2,1.5,1.1,2.6c-0.2,1.4-1.1,2.4-2.2,2.2c-0.2,0-0.4-0.1-0.6-0.2C36.3,30.6,35.9,29.6,36,28.5z M38.2,26.5
													c-0.4-0.1-0.9,0.1-1.2,0.5c-0.4,0.4-0.6,0.9-0.7,1.6c-0.1,1,0.3,2,0.9,2.4c0.2,0.1,0.3,0.2,0.5,0.2
													c0.9,0.2,1.8-0.8,1.9-2c0.1-1-0.3-2-0.9-2.4C38.6,26.6,38.4,26.5,38.2,26.5z"/>
											</g>
										</g>
									</g>
								</g>
							</g>
						</g>
					</g>
				</g>
			</g>
		</g>
		<g>
			<g>
				<g>
					<g>
						<g>
							<g>
								<g>
									<g>
										<g>
											<g>
												<path class="st38" d="M37,28.7c-0.2,0.8,0.2,1.5,0.8,1.7c0.6,0.2,1.2-0.3,1.4-1.1c0.2-0.8-0.2-1.5-0.8-1.7
													C37.7,27.5,37.1,27.9,37,28.7z"/>
											</g>
										</g>
									</g>
								</g>
							</g>
						</g>
					</g>
				</g>
			</g>
		</g>
		<g>
			<g>
				<g>
					<g>
						<g>
							<g>
								<g>
									<g>
										<g>
											<g>
												<path class="st34" d="M37,27.3c-0.2,0.2-0.1,0.6,0.2,0.7c0.3,0.2,0.7,0.1,0.9-0.2c0.2-0.2,0.1-0.6-0.2-0.7
													C37.5,27,37.1,27.1,37,27.3z"/>
											</g>
										</g>
									</g>
								</g>
							</g>
						</g>
					</g>
				</g>
			</g>
		</g>
		<g>
			<g>
				<g>
					<g>
						<g>
							<g>
								<g>
									<g>
										<g>
											<g>
												<path class="st34" d="M37,28.5c-0.1,0.1-0.1,0.3,0.1,0.4c0.2,0.1,0.4,0.1,0.5-0.1c0.1-0.1,0.1-0.3-0.1-0.4
													C37.3,28.3,37.1,28.4,37,28.5z"/>
											</g>
										</g>
									</g>
								</g>
							</g>
						</g>
					</g>
				</g>
			</g>
		</g>
	</g>
	<g>
		<path class="st38" d="M48.5,19.5c0,0,1.8,0.3,3.6,2.2c-0.5-0.2-2.9-1.2-4.1-0.9C47.8,20.6,47.9,19.5,48.5,19.5z"/>
	</g>
	<g>
		<path class="st38" d="M39.5,19.5c0,0-1.8,0.3-3.6,2.2c0.5-0.2,2.9-1.2,4.1-0.9C40.2,20.6,40,19.5,39.5,19.5z"/>
	</g>
	<g>
		<path class="st1" d="M56.5,21.6c3.8-0.3,7.7,1.4,10.5,6.2c2.8,4.8,4.9,8.9,6.2,10.6c-2,2.1-7.7,1.5-10.6-1.3
			c-2.9-2.8-4.8-7.8-6.1-9.4C55.8,25.7,55.5,22.1,56.5,21.6z"/>
		<path class="st2" d="M71.2,35.2c-1.1-2-2.5-4.6-4.2-7.4c-2.8-4.8-6.7-6.5-10.5-6.2c-1,0.5-0.7,4,0,6.1c0,0,0,0,0,0
			c0.2-0.2,0.5-0.5,0.5-0.7C61.7,29.4,66.1,37.4,71.2,35.2z"/>
		<path class="st3" d="M73.4,38.3c-0.7-1-1.8-2.9-3.1-5.3c-0.9-1.6-1.9-3.4-3-5.3c-3.1-5.3-7.1-6.4-9.9-6.4c-0.2,0-0.5,0-0.7,0
			c0,0.1,0.1,0.3,0.1,0.4c0.2,0,0.4,0,0.6,0c3.9,0,7.2,2.1,9.5,6.2c1.1,1.9,2.1,3.7,3,5.3c1.3,2.3,2.3,4.1,3.1,5.2
			c-0.7,0.7-2,1-3.5,1c-2.5,0-5.1-1-6.6-2.5c-1.9-1.8-3.3-4.5-4.5-6.7c-0.5-1-1-1.9-1.4-2.5c-0.1,0.1-0.3,0.2-0.4,0.2
			c0.4,0.6,0.9,1.4,1.4,2.5c1.2,2.2,2.7,5,4.6,6.8c1.6,1.6,4.4,2.6,7,2.6c1.7,0,3.1-0.5,3.9-1.3l0.1-0.1L73.4,38.3z"/>
	</g>
	<g>
		<path class="st12" d="M57,23.5c4.5,2.1,8.2,11.4,13.7,14.1c-7.6,1.1-11.3-7.6-13.6-10.9C56.7,25.1,56.4,23.7,57,23.5z"/>
		<path class="st13" d="M59.7,27.5c-0.9-1.1-1.5-0.5-1.8,0.6c2.3,3.9,6,10.5,12.7,9.5c-1-0.5-2-1.2-2.9-2.1
			C64.6,33.7,62.2,30.5,59.7,27.5z"/>
		<path class="st3" d="M69.4,38c-5.8,0-9.2-5.6-11.4-9.3c-0.4-0.7-0.8-1.3-1.1-1.8l0-0.1c-0.6-2.2-0.6-3.3,0-3.5l0.1,0l0.1,0
			c2.2,1,4.2,3.7,6.3,6.5c2.3,3,4.6,6.2,7.4,7.6l0.6,0.3l-0.7,0.1C70.3,37.9,69.8,38,69.4,38z M57.3,26.6c0.3,0.5,0.7,1.1,1.1,1.8
			c2.2,3.6,5.4,9.1,11,9.1c0.2,0,0.4,0,0.6,0c-2.6-1.6-4.8-4.5-6.9-7.4c-2-2.7-4-5.3-6-6.3C56.9,23.9,56.7,24.5,57.3,26.6z"/>
	</g>
</g>
</svg>
