<?xml version="1.0" encoding="utf-8"?>
<!-- Generator: Adobe Illustrator 21.0.2, SVG Export Plug-In . SVG Version: 6.00 Build 0)  -->
<svg version="1.1" id="Слой_1" xmlns="http://www.w3.org/2000/svg" xmlns:xlink="http://www.w3.org/1999/xlink" x="0px" y="0px"
	 viewBox="0 0 70 70" style="enable-background:new 0 0 70 70;" xml:space="preserve">
<style type="text/css">
	.st0{fill-rule:evenodd;clip-rule:evenodd;fill:url(#SVGID_1_);}
	.st1{fill-rule:evenodd;clip-rule:evenodd;fill:url(#SVGID_2_);}
	.st2{fill-rule:evenodd;clip-rule:evenodd;fill:url(#SVGID_3_);}
	.st3{fill-rule:evenodd;clip-rule:evenodd;fill:url(#SVGID_4_);}
	.st4{fill-rule:evenodd;clip-rule:evenodd;fill:url(#SVGID_5_);}
	.st5{fill-rule:evenodd;clip-rule:evenodd;fill:url(#SVGID_6_);}
	.st6{fill-rule:evenodd;clip-rule:evenodd;fill:url(#SVGID_7_);}
	.st7{fill-rule:evenodd;clip-rule:evenodd;fill:url(#SVGID_8_);}
	.st8{fill-rule:evenodd;clip-rule:evenodd;fill:url(#SVGID_9_);}
	.st9{fill-rule:evenodd;clip-rule:evenodd;fill:url(#SVGID_10_);}
	.st10{fill-rule:evenodd;clip-rule:evenodd;fill:url(#SVGID_11_);}
	.st11{fill-rule:evenodd;clip-rule:evenodd;fill:url(#SVGID_12_);}
	.st12{fill-rule:evenodd;clip-rule:evenodd;fill:#FFFFFF;}
	.st13{fill-rule:evenodd;clip-rule:evenodd;fill:#201600;}
	.st14{fill-rule:evenodd;clip-rule:evenodd;fill:#505258;}
	.st15{fill-rule:evenodd;clip-rule:evenodd;fill:url(#SVGID_13_);}
	.st16{fill-rule:evenodd;clip-rule:evenodd;fill:#E7ACC2;}
</style>
<linearGradient id="SVGID_1_" gradientUnits="userSpaceOnUse" x1="1.6344" y1="35.0815" x2="69.5156" y2="35.0815">
	<stop  offset="0" style="stop-color:#E6AACB"/>
	<stop  offset="1" style="stop-color:#BE79AF"/>
</linearGradient>
<path class="st0" d="M21.3,8.4c2.1-2.8,7.8-2.2,8.9,1.1c2.7-3.2,7.2-4.1,11.7-5.4c-0.4,2.7-0.4,7.2-2.7,9.6c4.3-1.3,3.3,6.9,5.3,8.6
	c1.4,1.2,3.3-1,4-2c0,6.4-1.3,13.7-9.1,14.2c0,0.6,0.2,1,0.4,1.4c2.5-1.8,6.8-3,10.6-1.9c0.2-6,3-10.5,8.2-11.6c1.8-0.4,4.4,0,6,0.9
	c4.9,2.9,0.8,9.9,1.1,14.4c0.2,2.2,2.1,2.9,3.7,1.6c-0.4,1.6-2.3,2.7-4,2.8c-4.6,0.2-3.9-6.4-7.1-7.2c-1.6-0.4-2.8,0.8-3.7,1.8
	c2.2,1.4,4.2,3.9,4.5,6.7c0.3,2.8,0.9,5.3,2.5,7.3c5.1,3.5,4.5,10.7-2.2,11.7c-2.5,0.4-5.3-0.2-6.5-1.7c-2,1.9-6.3,0.4-6.6-2.3
	c-0.3,0-0.5-0.2-0.9-0.2c1.3,8.4-12,12.5-15.1,4.6c-3.1,0.4-5.1-2.6-4.4-5.5c0.6-2.4,3.8-3.6,4-5.4c-2.8-2.4-4.4-6.6-4.9-10.1
	c-2.2,2.4-6.3,3.7-10.3,3.7c-2.1,0-4.4-0.3-6-0.8c-4.3-1.7-7.3-6.4-7.2-11.6C1.9,22.6,9.7,16.5,17.3,13c-4.9-1.3-4.1-6.2-3.4-9.9
	C17.7,2.7,21.4,5.1,21.3,8.4L21.3,8.4z"/>
<linearGradient id="SVGID_2_" gradientUnits="userSpaceOnUse" x1="2.6695" y1="39.705" x2="63.5787" y2="39.705">
	<stop  offset="0" style="stop-color:#F1D4E5"/>
	<stop  offset="1" style="stop-color:#E39BC2"/>
</linearGradient>
<path class="st1" d="M18.9,13.4c0.1,0.6-0.1,1.3,0.1,2.1c2.5-2.3,7,1.2,9.4-1.5c-0.5,1.1,0.1,1.7-0.2,2.5c1.8,0.5,4.3,0.9,6.3,0.5
	c2.7,6.2-0.1,18,6.2,21.2c2-4.1,7.4-3.8,10.9-2.1c3.5,1.7,5.2,4.8,6.4,7.5c-0.8,5.8,4.7,7.8,5.5,12.3c1.3,7.3-12.2,6.3-11.7-0.2
	c0.1-1.4,2-2.2,1.8-4.2c-2,2.2-3.8,5.6-8.4,5.2c-0.5-1.3-0.4-3-1-4c-1.2,1.4,0.3,4.7,0.3,6.8c0.2,5.1-8.3,9-12,4.6
	c-2.9-3.4,2.3-7.1,1.1-11.1c-3.7-1.8-6.7-5.8-7.5-10c-0.4-2.1,0.5-3.6,1.4-5.5c1.1-2.6,2.4-7.9,0.8-10.3c0.8,6.9-2.9,15.7-11.2,16.8
	c0.9-1.2,2.5-3.3,1.9-5.8c0.5,0,0.5,0.6,1,0.7c1.7-1.3-2.9-3.2-3.4-0.6c0.6,0.2,0.9-0.4,1.5-0.2c0.6,1.7,0.1,3.5-1.1,4.5
	c-1.5,1.4-5,1.9-7.7,0.8c-3.1-1.3-5.6-4-6.3-8.1c-0.6-3.5,0.2-7.2,1.9-10.5C7.4,20.1,13.6,15,18.9,13.4L18.9,13.4z"/>
<linearGradient id="SVGID_3_" gradientUnits="userSpaceOnUse" x1="29.3105" y1="11.1129" x2="40.0814" y2="11.1129">
	<stop  offset="0" style="stop-color:#F1D4E5"/>
	<stop  offset="1" style="stop-color:#E39BC2"/>
</linearGradient>
<path class="st2" d="M40.1,6.7c0.2,2.3-0.6,5.6-2.5,7.1c-1.1,0.9-4.5,1.9-6,1.9c2.8-1.1,3.9-3,4.5-5c-2.9-0.7-5.5,1.4-6.8,3.4
	C30.1,9.2,35.1,6,40.1,6.7L40.1,6.7z"/>
<linearGradient id="SVGID_4_" gradientUnits="userSpaceOnUse" x1="19.7871" y1="10.9149" x2="29.6357" y2="10.9149">
	<stop  offset="0" style="stop-color:#7667A9"/>
	<stop  offset="1" style="stop-color:#9F7AB2"/>
</linearGradient>
<path class="st3" d="M29.6,10.4c-0.4,0.9-1,1.7-1.2,2.5c-2,2.7-6.4-0.5-8.7,1.4c0.1-3.3,1.8-5.8,4.1-6.6
	C25.8,7.1,28.1,7.7,29.6,10.4L29.6,10.4z"/>
<linearGradient id="SVGID_5_" gradientUnits="userSpaceOnUse" x1="29.7988" y1="13.1685" x2="34.4375" y2="13.1685">
	<stop  offset="0" style="stop-color:#E6AACB"/>
	<stop  offset="1" style="stop-color:#C47EB1"/>
</linearGradient>
<path class="st4" d="M34.4,11.6c-0.8,1.7-2.4,3.1-4.6,3.1C30.6,13.2,32.6,12.1,34.4,11.6L34.4,11.6z"/>
<linearGradient id="SVGID_6_" gradientUnits="userSpaceOnUse" x1="52.271" y1="31.9685" x2="66.3979" y2="31.9685">
	<stop  offset="0" style="stop-color:#7667A9"/>
	<stop  offset="1" style="stop-color:#9F7AB2"/>
</linearGradient>
<path class="st5" d="M66,40.7c-5.1,0.1-3-6.8-7.2-7.7c-2.6-0.6-4.1,1.5-6,1.5c-1.3-2.3-0.1-6,0.9-8.4c1.8-1.7,4.4-3.2,7.9-2.8
	c0.9,0.5,1.5,0.3,2.3,0.7C69.9,27.1,62.8,36.4,66,40.7L66,40.7z"/>
<linearGradient id="SVGID_7_" gradientUnits="userSpaceOnUse" x1="6.9767" y1="34.6978" x2="9.485" y2="34.6978">
	<stop  offset="0" style="stop-color:#9E6AA7"/>
	<stop  offset="1" style="stop-color:#B280B5"/>
</linearGradient>
<path class="st6" d="M9,33.2c1.1,0.7,0,3.4-1.2,3.2c-0.6-0.1-1-1.1-0.8-2C7.3,33.5,8.3,32.7,9,33.2L9,33.2z"/>
<linearGradient id="SVGID_8_" gradientUnits="userSpaceOnUse" x1="3.9047" y1="34.1792" x2="5.8337" y2="34.1792">
	<stop  offset="0" style="stop-color:#9E6AA7"/>
	<stop  offset="1" style="stop-color:#B280B5"/>
</linearGradient>
<path class="st7" d="M4.7,32.5c1.6-0.3,1.2,3,0.4,3.3C3.5,36.3,3.6,32.8,4.7,32.5L4.7,32.5z"/>
<linearGradient id="SVGID_9_" gradientUnits="userSpaceOnUse" x1="26.851" y1="56.9151" x2="32.0771" y2="56.9151">
	<stop  offset="0" style="stop-color:#F1D4E5"/>
	<stop  offset="1" style="stop-color:#E39BC2"/>
</linearGradient>
<path class="st8" d="M30.5,52.5c0.6,0.3,0.9,0.8,1.5,1c-0.5,3.2-1.8,5.5-3,7.9c-2.4-0.5-2.4-2.8-2-4C27.7,55.5,29.9,54.5,30.5,52.5
	L30.5,52.5z"/>
<linearGradient id="SVGID_10_" gradientUnits="userSpaceOnUse" x1="47.6221" y1="58.271" x2="52.0176" y2="58.271">
	<stop  offset="0" style="stop-color:#F1D4E5"/>
	<stop  offset="1" style="stop-color:#E39BC2"/>
</linearGradient>
<path class="st9" d="M50.9,56.6c-0.1,1.3,0.6,2.5,1.1,3.1c-1.6,0.5-3.7-0.1-4.4-1.4C48.9,57.9,50.1,57.5,50.9,56.6L50.9,56.6z"/>
<linearGradient id="SVGID_11_" gradientUnits="userSpaceOnUse" x1="14.3344" y1="8.0832" x2="20.3356" y2="8.0832">
	<stop  offset="0" style="stop-color:#F1D4E5"/>
	<stop  offset="1" style="stop-color:#E39BC2"/>
</linearGradient>
<path class="st10" d="M14.7,4.1c3.8,0.7,7.4,4.5,4.6,7.9C15.2,12.2,13.5,7.5,14.7,4.1L14.7,4.1z"/>
<linearGradient id="SVGID_12_" gradientUnits="userSpaceOnUse" x1="36.7168" y1="23.617" x2="47.082" y2="23.617">
	<stop  offset="0" style="stop-color:#7667A9"/>
	<stop  offset="1" style="stop-color:#9F7AB2"/>
</linearGradient>
<path class="st11" d="M47.1,23.2c-0.4,4.6-3.5,10.9-8.6,8c-1.1-5.3-0.4-10-1.8-15.1c0.7-0.6,1.7-1,3.3-0.6c2.1,0.6,0.3,5,2.9,8
	C44.1,24.9,45.9,24.1,47.1,23.2L47.1,23.2z"/>
<path class="st12" d="M45.2,40.1c0.8,0,1.4,0.6,1.4,1.4c0,0.8-0.6,1.4-1.4,1.4c-0.8,0-1.4-0.6-1.4-1.4
	C43.9,40.7,44.5,40.1,45.2,40.1L45.2,40.1z"/>
<path class="st12" d="M47.1,46.7c0.7,0,1.2,0.6,1.2,1.2c0,0.7-0.6,1.2-1.2,1.2c-0.7,0-1.2-0.6-1.2-1.2
	C45.9,47.2,46.4,46.7,47.1,46.7L47.1,46.7z"/>
<path class="st12" d="M49.1,42.4c0.5,0,0.8,0.4,0.8,0.8c0,0.5-0.4,0.8-0.8,0.8c-0.5,0-0.8-0.4-0.8-0.8
	C48.3,42.8,48.7,42.4,49.1,42.4L49.1,42.4z"/>
<path class="st12" d="M16.5,32.5c0.4,0.1,0.7,0.5,0.6,1c-0.1,0.4-0.5,0.7-1,0.6c-0.4-0.1-0.7-0.5-0.6-1C15.6,32.7,16,32.4,16.5,32.5
	L16.5,32.5z"/>
<path class="st12" d="M20,28.2c0.6,0.1,0.9,0.7,0.8,1.3c-0.1,0.6-0.7,0.9-1.3,0.8c-0.6-0.1-0.9-0.7-0.8-1.3
	C18.8,28.4,19.4,28.1,20,28.2L20,28.2z"/>
<path class="st12" d="M19.4,32c0.3,0.1,0.4,0.3,0.4,0.6c-0.1,0.3-0.3,0.4-0.6,0.4c-0.3-0.1-0.4-0.3-0.4-0.6
	C18.8,32.1,19.1,32,19.4,32L19.4,32z"/>
<path class="st13" d="M17.4,22.9c-0.4-1.2-2.3-2.9-4.5-3c0.5-1,1.1-2.4,2.1-2.3c1.1,0,1.4,1.1,0.9,2.2c0.3-0.5,1.1-1.4,2.1-1.6
	c1-0.2,2.3,0.2,2.2,1.4C20.1,20.7,18.6,22.3,17.4,22.9L17.4,22.9z"/>
<path class="st12" d="M18.7,18.5c1.9-0.1,1.3,1.9,0.3,2.6C19.7,20.1,20.1,19.1,18.7,18.5L18.7,18.5z"/>
<path class="st14" d="M17.4,18.8c-0.4,0.3-1.2,0.9-1.6,1.8c0.5,0,1.6,1.6,1.5,1.7c0.1-0.7-0.5-1.4-0.5-2
	C16.8,19.8,17.1,19.4,17.4,18.8L17.4,18.8z"/>
<path class="st14" d="M14.4,18.1c-0.4,0.2-0.9,1.1-1,1.7c0.4,0,1.5,0.3,1.4,0.3c-0.3-0.4-0.7-0.3-0.7-0.9
	C14,18.8,14.1,18.5,14.4,18.1L14.4,18.1z"/>
<path class="st12" d="M18.9,19.2c0.3,0.1,0.4,0.5,0.2,0.8c-0.1,0.3-0.5,0.4-0.7,0.3c-0.3-0.1-0.4-0.5-0.2-0.8
	C18.3,19.2,18.6,19.1,18.9,19.2L18.9,19.2z"/>
<path class="st12" d="M15.4,18.3c0.2,0.1,0.3,0.3,0.2,0.5c-0.1,0.2-0.3,0.3-0.5,0.2c-0.2-0.1-0.3-0.3-0.2-0.5
	C15,18.3,15.2,18.2,15.4,18.3L15.4,18.3z"/>
<path class="st12" d="M7,42.2c-7.5-8.4-0.3-18.6,3.8-22.3c5.4-4.8,9.9-5.9,17.2-2.7c-0.7-0.8-1.3-1.6-2-2.2c-2.3,0.1-5.2-1.2-7,0.4
	c-0.2-0.8,0-1.5-0.1-2.1C13.6,15,7.4,20.1,4.8,24.9c-1.7,3.2-2.5,6.9-1.9,10.5C3.4,38.4,4.9,40.6,7,42.2C7,42.1,7,42.1,7,42.2
	L7,42.2z"/>
<linearGradient id="SVGID_13_" gradientUnits="userSpaceOnUse" x1="44.748" y1="48.8495" x2="63.5787" y2="48.8495">
	<stop  offset="0" style="stop-color:#E6AACB"/>
	<stop  offset="1" style="stop-color:#C47EB1"/>
</linearGradient>
<path class="st15" d="M52.6,36.7c2.8,10.5-5.7,14.2-7.8,18c0.1,0.7,0.2,1.4,0.4,2c4.6,0.4,6.4-3,8.4-5.2c0.2,1.9-1.7,2.7-1.8,4.2
	c-0.5,6.5,13,7.4,11.7,0.2c-0.8-4.5-6.3-6.5-5.5-12.3C56.9,41.2,55.4,38.5,52.6,36.7L52.6,36.7z"/>
<path class="st12" d="M35.2,58c2.4,0,4.4,2.1,4.4,4.8c0,1.2-0.4,2.3-1.1,3.1c-2.2,0.5-4.5,0.1-6-1.8c-1.3-1.5-0.9-3.2-0.3-4.8
	C33,58.5,34,58,35.2,58L35.2,58z"/>
<path class="st12" d="M28.3,55.4c1,0.7,1.7,1.9,1.7,3.3c0,0.4-0.1,0.8-0.2,1.2c-0.2,0.5-0.5,0.9-0.7,1.4l0,0.1c-2.4-0.5-2.4-2.8-2-4
	C27.3,56.6,27.8,56,28.3,55.4L28.3,55.4z"/>
<path class="st16" d="M17.4,43.9c7.3-3.1,9.4-7.8,11-15.2c0.2,6.6-3.5,14.2-11.1,15.4L17.4,43.9L17.4,43.9z"/>
</svg>
