<?xml version="1.0" encoding="utf-8"?>
<!-- Generator: Adobe Illustrator 21.0.2, SVG Export Plug-In . SVG Version: 6.00 Build 0)  -->
<svg version="1.1" id="Слой_1" xmlns="http://www.w3.org/2000/svg" xmlns:xlink="http://www.w3.org/1999/xlink" x="0px" y="0px"
	 viewBox="0 0 70 70" style="enable-background:new 0 0 70 70;" xml:space="preserve">
<style type="text/css">
	.st0{fill-rule:evenodd;clip-rule:evenodd;fill:url(#SVGID_1_);}
	.st1{fill-rule:evenodd;clip-rule:evenodd;fill:url(#SVGID_2_);}
	.st2{fill-rule:evenodd;clip-rule:evenodd;fill:url(#SVGID_3_);}
	.st3{fill-rule:evenodd;clip-rule:evenodd;fill:#DB7C53;}
	.st4{fill-rule:evenodd;clip-rule:evenodd;fill:#201600;}
	.st5{fill-rule:evenodd;clip-rule:evenodd;fill:url(#SVGID_4_);}
	.st6{fill-rule:evenodd;clip-rule:evenodd;fill:url(#SVGID_5_);}
	.st7{fill-rule:evenodd;clip-rule:evenodd;fill:url(#SVGID_6_);}
	.st8{fill-rule:evenodd;clip-rule:evenodd;fill:#FFFFFF;}
	.st9{fill-rule:evenodd;clip-rule:evenodd;fill:#505258;}
	.st10{fill-rule:evenodd;clip-rule:evenodd;fill:url(#SVGID_7_);}
	.st11{fill-rule:evenodd;clip-rule:evenodd;fill:url(#SVGID_8_);}
	.st12{fill-rule:evenodd;clip-rule:evenodd;fill:url(#SVGID_9_);}
	.st13{fill-rule:evenodd;clip-rule:evenodd;fill:url(#SVGID_10_);}
</style>
<linearGradient id="SVGID_1_" gradientUnits="userSpaceOnUse" x1="2.9894" y1="36.0462" x2="66.5684" y2="36.0462">
	<stop  offset="0" style="stop-color:#DD8144"/>
	<stop  offset="1" style="stop-color:#D66744"/>
</linearGradient>
<path class="st0" d="M30.2,11.8c6.8-2.9,13.5,2.7,11.1,9.9c5.4,3.7,3.5,9.2,0.2,11.6c3.4,0.6,6.3,1.9,8.6,3.9c2.3,2,3.5,4.5,4.2,6.3
	c1.3,1.6,10,3.4,8.5-1.1c-7.4,1.7-8.2-5.9-6.4-11.6c0.1,2.6,6.8,2.2,8.3,3c2.4,1.3,2.3,5.5-0.2,6.8c3.2,7.3-4.8,10-10.6,7.3
	c0.6,1.5,0.5,3,0.2,4.6c-0.4,2,0.9,3.4,0.9,5c0,2.3-1.5,4.1-4.1,4.7c-2.8,0.6-6.6-0.1-7.3-2.9c-3,0.9-4.3-2-7.7-1.2
	c-0.8,6.8-12.2,9.1-14.4,1.8c-6.5-0.6-5.2-6.7-1.1-9.5c-0.4-1.3-0.8-4-0.7-4.4c-9.1,0.5-14.7-4.2-14.2-13.1c-3.6-2.3-3.5-6.6,0-7.8
	c-1.4-2.2-1.6-5.1-0.3-7c0.9-1.5,2.6-3,5.1-2.4c-0.5-4.8,4.2-7.5,7.7-5c1.3-1.8,3.5-2.8,5.9-2.8C26.7,7.7,29.6,9.2,30.2,11.8
	L30.2,11.8z"/>
<linearGradient id="SVGID_2_" gradientUnits="userSpaceOnUse" x1="6.5587" y1="31.366" x2="36.2788" y2="31.366">
	<stop  offset="0" style="stop-color:#F2CC46"/>
	<stop  offset="0.989" style="stop-color:#DD8244"/>
</linearGradient>
<path class="st1" d="M30.1,20.3c1.3-1.6,4.3-2,5.5-0.6c2.1,2.4-1,4.6-1.5,4.4c0.2,7-1.2,13.6-5.1,16.8c0.5-1.4,1-3.8,0.6-5.2
	c1.9-1.2-1.5-2-1.8-0.5c1.9,0.5,1.1,4.9-0.1,6.3c-2.5,3-8.8,4.6-13,3c-1.9-1.5-3.3-4.3-2-7c3.1,0.9,6.6-0.4,8.9-6.9
	c-4.8-1.2-11.4-2.9-13.3-1.6c-0.4,3.2,1.4,7.3,3.6,8.1c-1,2.1-0.8,5.3,0.7,6.6c-4.6-1.4-7-7.4-5.5-13.1c1.5-6.1,6.4-10.6,11.6-12.5
	C23.2,17,27.5,17.9,30.1,20.3L30.1,20.3z"/>
<linearGradient id="SVGID_3_" gradientUnits="userSpaceOnUse" x1="3.7255" y1="27.0013" x2="43.4774" y2="27.0013">
	<stop  offset="0" style="stop-color:#F7E146"/>
	<stop  offset="1" style="stop-color:#F4D546"/>
</linearGradient>
<path class="st2" d="M19.5,17c-1.2-3.5-6.6-1.5-5.2,2.6c-4.1,2.6-7.3,6.3-8.4,12c-3.3-1.2-2.7-6.3,0.9-6.1c-1.1-1-2.4-4.7-0.9-7.1
	c1.2-2.1,3.8-2.6,5.2-1.9c-1-4.9,3.6-7.4,7.1-4.4c1.1-2.1,3.1-3.6,6.1-3.3c2.5,0.3,4.4,1.8,5.6,4.7c2.4-1.5,6.4-1.7,8.7,0.4
	c2.7,2.5,2.4,5.7,1.8,8.7c1.6,0.7,3,2.6,3.1,4.6c0.3,3.8-2.3,5.4-3.7,6.1c1.5,4.1-2,9.3-6.8,7.8c-1.2,2.8-4.2,5.1-8.1,3.7
	c2.7-1.9,5.8-3.2,7.6-5.9c2.3-3.5,3.7-8.7,2.9-14.5c2.1-0.8,3.1-4.4,0.8-6.1c-1.7-1.2-4.6-1.2-6.1,0.9C27.6,16.6,22.4,16.3,19.5,17
	L19.5,17z"/>
<path class="st3" d="M18.4,17.3c-1.1,0.5-2.3,1.3-3.3,1.8c-0.3-0.4-0.5-2,0.8-2.6C16.7,16.1,17.9,16.3,18.4,17.3L18.4,17.3z"/>
<path class="st4" d="M20.8,31.3c-1.2,1.7-1.9,3-4,4.5c-1.6,1.2-4.9,1.6-6.3-0.7c-1.1-1.4-1.5-3.4-1.7-5.6
	C12.2,28.8,15.3,29.7,20.8,31.3L20.8,31.3z"/>
<linearGradient id="SVGID_4_" gradientUnits="userSpaceOnUse" x1="56.673" y1="37.3601" x2="65.8296" y2="37.3601">
	<stop  offset="0" style="stop-color:#F7E146"/>
	<stop  offset="1" style="stop-color:#F4D546"/>
</linearGradient>
<path class="st5" d="M57.2,33c1.7,1.8,5.1,0.6,7.3,1.7c2.5,1.2,1,5.1-1,6c-0.7-0.2-0.9,0.2-1.1,0.7C57,43,55.8,37.3,57.2,33L57.2,33
	z"/>
<linearGradient id="SVGID_5_" gradientUnits="userSpaceOnUse" x1="20.8458" y1="49.2679" x2="64.595" y2="49.2679">
	<stop  offset="0" style="stop-color:#F2CC46"/>
	<stop  offset="0.989" style="stop-color:#DD8244"/>
</linearGradient>
<path class="st6" d="M63.9,41.4c1.5,2.5,0.3,5.4-2.5,6.2c-3.1,0.9-6.6-0.3-8.5-1.4c1.6,3.3-1.8,8.6,0.9,11.1
	c-0.2,2.7-3.1,3.4-5.5,3.3c-3.7-0.3-4.6-3.5-4-7.2c-0.2,0.3-0.4,0.1-0.8,0.2c-0.8,2.5-4.9,4.3-7.3,2.4c0-1.1,0.4-2.3,0.1-3.3
	c-0.5,0.1-0.7,0.6-0.8,1c-0.7,3.3-0.6,5.9-2.8,7.7c-2,1.6-5.6,1.9-8.4,0.4c-2.6-3.3,2.3-7.4-0.2-11.4c-0.5,0.5,0,1.7-0.2,2.6
	c-1.9-1.4-3.3-4-3-7.1c0.9,0,1.2-0.2,2-0.3c2.7,3.3,9.7,1.5,10.6-2.4c5.1,0.3,7.9-3.2,8.4-7.2c6.5,0.1,9.3,3.2,11.6,8.3
	c0.8,1.1,5,2.9,7.8,2.2C63.7,45.7,64.7,43.7,63.9,41.4L63.9,41.4z"/>
<linearGradient id="SVGID_6_" gradientUnits="userSpaceOnUse" x1="18.7437" y1="54.9727" x2="23.8164" y2="54.9727">
	<stop  offset="0" style="stop-color:#F0BF45"/>
	<stop  offset="1" style="stop-color:#DC7F44"/>
</linearGradient>
<path class="st7" d="M21,51.4c0.8,1.2,1.6,2.2,2.8,3c-0.2,1.9-1.1,3.1-2.1,4.2C17.2,58.4,18.6,52.6,21,51.4L21,51.4z"/>
<path class="st3" d="M42.9,56c0.1,0.8,0.3,1.6,0.5,2.4c-1.1,0.4-2.3-0.1-2.8-0.8C41.6,57.3,42.4,56.6,42.9,56L42.9,56z"/>
<path class="st8" d="M43.9,42.1c0.8,0.1,1.3,0.8,1.2,1.5c-0.1,0.8-0.8,1.3-1.5,1.2c-0.8-0.1-1.3-0.8-1.2-1.5
	C42.4,42.5,43.1,42,43.9,42.1L43.9,42.1z"/>
<path class="st8" d="M47.1,46.9c0.7,0.1,1.2,0.7,1.1,1.4c-0.1,0.7-0.7,1.2-1.4,1.1c-0.7-0.1-1.2-0.7-1.1-1.4
	C45.8,47.3,46.4,46.8,47.1,46.9L47.1,46.9z"/>
<path class="st8" d="M47,44.3c0.4,0.1,0.8,0.5,0.7,0.9c-0.1,0.4-0.5,0.8-0.9,0.7c-0.4-0.1-0.8-0.5-0.7-0.9
	C46.2,44.6,46.6,44.3,47,44.3L47,44.3z"/>
<path class="st8" d="M23.2,32.2c0.4,0,0.8,0.4,0.8,0.8c0,0.4-0.4,0.8-0.8,0.8c-0.4,0-0.8-0.4-0.8-0.8C22.4,32.5,22.7,32.2,23.2,32.2
	L23.2,32.2z"/>
<path class="st8" d="M22.6,28.2c0.6,0,1,0.5,1,1c0,0.6-0.5,1-1,1c-0.6,0-1-0.5-1-1.1C21.6,28.7,22,28.2,22.6,28.2L22.6,28.2z"/>
<path class="st8" d="M25.9,31.1c0.3,0,0.5,0.2,0.5,0.5c0,0.3-0.2,0.5-0.5,0.5c-0.3,0-0.5-0.2-0.5-0.5C25.4,31.3,25.6,31.1,25.9,31.1
	L25.9,31.1z"/>
<path class="st4" d="M22.7,24.2c-0.8-0.9-3.2-1.7-5.2-1c0-1.1,0.1-2.6,1-2.9c1-0.4,1.7,0.4,1.7,1.7c0.1-0.6,0.4-1.7,1.3-2.3
	c0.8-0.6,2.2-0.7,2.5,0.4C24.3,21.1,23.6,23.1,22.7,24.2L22.7,24.2z"/>
<path class="st8" d="M22.1,19.6c1.7-0.8,1.9,1.2,1.3,2.3C23.6,20.7,23.6,19.6,22.1,19.6L22.1,19.6z"/>
<path class="st9" d="M21.1,20.4c-0.3,0.4-0.8,1.3-0.8,2.3c0.4-0.2,2.1,0.8,2,0.9c-0.2-0.7-1-1.1-1.3-1.6C20.9,21.5,21,21,21.1,20.4
	L21.1,20.4z"/>
<path class="st9" d="M18,20.9c-0.3,0.3-0.4,1.3-0.3,1.9c0.3-0.1,1.5-0.3,1.4-0.3c-0.4-0.2-0.8,0-1-0.5C18,21.8,17.9,21.4,18,20.9
	L18,20.9z"/>
<path class="st8" d="M22.6,20.2c0.3,0,0.5,0.3,0.5,0.6c0,0.3-0.3,0.6-0.6,0.6c-0.3,0-0.5-0.3-0.5-0.6C22,20.5,22.3,20.2,22.6,20.2
	L22.6,20.2z"/>
<path class="st8" d="M19.1,20.8c0.2,0,0.4,0.2,0.4,0.4c0,0.2-0.2,0.4-0.4,0.4c-0.2,0-0.4-0.2-0.4-0.4C18.7,20.9,18.9,20.7,19.1,20.8
	L19.1,20.8z"/>
<path class="st8" d="M10.1,42.4c-1.8-3.6-2.5-7.5-1.8-11.2c-0.1-0.8-0.1-1.6-0.1-2.3c0.2-0.1,0.6-0.3,0.8-0.3
	c2.8-6.9,8.6-11.7,17.5-10.3c-2.3-0.8-5.2-0.9-8.2-0.2c-5.2,1.8-10,6.4-11.6,12.5C5.8,35.2,7.2,40,10.1,42.4L10.1,42.4z"/>
<linearGradient id="SVGID_7_" gradientUnits="userSpaceOnUse" x1="14.667" y1="35.0152" x2="34.0854" y2="35.0152">
	<stop  offset="0" style="stop-color:#E6A344"/>
	<stop  offset="1" style="stop-color:#D76944"/>
</linearGradient>
<path class="st10" d="M14.7,44.5c6.6-0.1,11.1-2.3,14.1-6.1c-0.2,1.2-0.6,2.5-1.1,3.1C25.1,44.4,18.9,46,14.7,44.5L14.7,44.5
	L14.7,44.5z M29.7,37.1c2.1-3.2,3.5-7.3,4.4-12.2c0.1,6.7-1.4,12.9-5.1,15.9C29.3,39.9,29.7,38.4,29.7,37.1L29.7,37.1z"/>
<linearGradient id="SVGID_8_" gradientUnits="userSpaceOnUse" x1="36.2677" y1="50.9572" x2="64.595" y2="50.9572">
	<stop  offset="0" style="stop-color:#E6A344"/>
	<stop  offset="1" style="stop-color:#D76944"/>
</linearGradient>
<path class="st11" d="M36.5,53.4c3.9,0.2,7.3-0.3,9.9-1.6c3.3-1.7,5.4-4.9,6.1-9.7c0.4,0.7,0.7,1.4,1.1,2.1c0.8,1.1,5,2.9,7.8,2.2
	c2.4-0.6,3.4-2.6,2.6-4.9c1.5,2.5,0.3,5.4-2.5,6.2c-3.1,0.9-6.6-0.3-8.5-1.4c1.6,3.3-1.8,8.6,0.9,11.1c-0.2,2.7-3.1,3.4-5.5,3.3
	c-3.7-0.3-4.6-3.5-4-7.2c-0.2,0.3-0.4,0.1-0.8,0.2c-0.8,2.5-4.9,4.3-7.3,2.4C36.3,55,36.5,54.2,36.5,53.4L36.5,53.4z"/>
<path class="st8" d="M33.2,20.4c0.7,0,1.2,0.5,1.2,1.2c0,0.6-0.6,1.2-1.2,1.2c-0.7,0-1.2-0.5-1.2-1.2C32,20.9,32.5,20.4,33.2,20.4
	L33.2,20.4z"/>
<linearGradient id="SVGID_9_" gradientUnits="userSpaceOnUse" x1="23.5261" y1="59.7411" x2="29.6094" y2="59.7411">
	<stop  offset="0" style="stop-color:#F7E146"/>
	<stop  offset="1" style="stop-color:#F4D546"/>
</linearGradient>
<path class="st12" d="M26.1,56.8c1.9,0,3.5,1.6,3.5,3.6c0,0.8-0.3,1.6-0.7,2.2c-1.5,0.1-3.1-0.2-4.6-0.9c-1-1.2-0.9-2.6-0.5-4
	C24.4,57.2,25.2,56.8,26.1,56.8L26.1,56.8z"/>
<linearGradient id="SVGID_10_" gradientUnits="userSpaceOnUse" x1="18.7439" y1="56.0757" x2="21.6113" y2="56.0757">
	<stop  offset="0" style="stop-color:#F7E146"/>
	<stop  offset="1" style="stop-color:#F4D546"/>
</linearGradient>
<path class="st13" d="M19.1,53.7c1.4,0,2.5,1.3,2.5,2.8c0,0.8-0.3,1.5-0.8,2C18.6,57.9,18.4,55.6,19.1,53.7L19.1,53.7z"/>
<path class="st8" d="M9.2,29.7c0.8,4.2,1.3,7.7,7.1,5.4C12,35.4,11.4,32.6,9.2,29.7L9.2,29.7z"/>
</svg>
