<?xml version="1.0" encoding="utf-8"?>
<!-- Generator: Adobe Illustrator 21.0.2, SVG Export Plug-In . SVG Version: 6.00 Build 0)  -->
<svg version="1.1" id="Слой_1" xmlns="http://www.w3.org/2000/svg" xmlns:xlink="http://www.w3.org/1999/xlink" x="0px" y="0px"
	 viewBox="0 0 70 70" style="enable-background:new 0 0 70 70;" xml:space="preserve">
<style type="text/css">
	.st0{fill-rule:evenodd;clip-rule:evenodd;fill:url(#SVGID_1_);}
	.st1{fill-rule:evenodd;clip-rule:evenodd;fill:url(#SVGID_2_);}
	.st2{fill-rule:evenodd;clip-rule:evenodd;fill:url(#SVGID_3_);}
	.st3{fill-rule:evenodd;clip-rule:evenodd;fill:#CF6B7E;}
	.st4{fill-rule:evenodd;clip-rule:evenodd;fill:#FFFFFF;}
	.st5{fill-rule:evenodd;clip-rule:evenodd;fill:url(#SVGID_4_);}
	.st6{fill-rule:evenodd;clip-rule:evenodd;fill:url(#SVGID_5_);}
	.st7{fill-rule:evenodd;clip-rule:evenodd;fill:url(#SVGID_6_);}
	.st8{fill-rule:evenodd;clip-rule:evenodd;fill:#EBB9C2;}
	.st9{fill-rule:evenodd;clip-rule:evenodd;fill:#201600;}
	.st10{fill-rule:evenodd;clip-rule:evenodd;fill:#505258;}
	.st11{fill-rule:evenodd;clip-rule:evenodd;fill:url(#SVGID_7_);}
	.st12{fill-rule:evenodd;clip-rule:evenodd;fill:url(#SVGID_8_);}
	.st13{fill-rule:evenodd;clip-rule:evenodd;fill:url(#SVGID_9_);}
</style>
<g>
	<linearGradient id="SVGID_1_" gradientUnits="userSpaceOnUse" x1="5.6323" y1="34.8364" x2="65.2482" y2="34.8364">
		<stop  offset="0" style="stop-color:#DD81A5"/>
		<stop  offset="1" style="stop-color:#D86A8D"/>
	</linearGradient>
	<path class="st0" d="M31.7,16c2.2,0.6,3.9,1.8,5.7,2.9c2.4-2.1,7-1.9,10-0.5c-0.9,2-0.1,4.1-0.5,6.6c2.8-0.2,5.8,0.2,7.4,1.6
		c0.2-2,1.4-3.5,3.5-3.2c0.9-1.4,3.4-1.7,4.3-0.1c1.5-1.1,3.3,0.4,3.1,2.1c-0.4-0.9-1.4-1.7-2.7-1.5c0.5,1.5-0.1,3-1.2,3.2
		c-1.5-0.1-1.8-2.8-0.8-3.2c-0.1,0.6,0,1.8,0.9,2c1-1.8-1.7-3.8-3-2.1c1.3,1.1,1.4,4.6-1.1,4.2c-0.9-0.7-1.3-2.7-0.1-3.4
		c-0.1,0.4-0.2,2.1,0.9,2.3c1.5-2.9-4-3.6-3,0.1c2.7,2.2,4.5,5.1,5,9c0.7,5.1-0.8,6.8-0.8,10.3c0,1.9,2.8,1.2,3.3,2.5
		c0.2,5.2-2.7,11.5-8,11.1c0.1-1.1-0.1-2.1-0.3-2.5c-0.6,0.5-2.2,0.9-3.4,0.3c0.7-0.9,2.3-2.1,2.3-3.6c-1.1,1.1-3.2,2.8-5.3,2.5
		c-1.5,2-4.7,6-9.5,5.6c-0.3-1-0.5-1.4-1-2.2c-0.3-0.1-1.5,0.3-2.1,0.6c-0.2-0.3-0.4-0.6-0.5-1c-0.7,0-1.1,0.2-1.5,0.4
		c-0.4-0.5-0.7-1.4-1.3-2.5c-0.7,0-1.8,0-2.5-0.3c-0.1-1.6,1.1-3,1.9-4c-1-1-1.2-1.5-2.1-3.2C20.7,52,9.8,48.3,6.6,41.3
		c-1.1-2.4-1.5-6.7-0.1-9.1c-0.6-3.1,0.6-5.4,2.4-6.9c2-1.6,5.1-1.5,8.1-4.1c1.7-1.6,3.5-3.4,5.5-4.3c-0.6-4.6,2.8-6.5,4.4-9.4
		C29.8,9,31.6,12,31.7,16L31.7,16z"/>
	<linearGradient id="SVGID_2_" gradientUnits="userSpaceOnUse" x1="6.6653" y1="33.3371" x2="46.2165" y2="33.3371">
		<stop  offset="0" style="stop-color:#EEC8DE"/>
		<stop  offset="1" style="stop-color:#DF89A8"/>
	</linearGradient>
	<path class="st1" d="M35.8,20.2c-0.3,0.7-0.8,1.2-1,2.1c0.2,0.3,0.5,0.5,0.8,0.7c1.5-4,5.8-4.6,10.5-3.4c0.1,3.7,0.2,7.2-2.5,9.3
		c-1,0.8-2.4,0.7-3.1,2.1c0.6,0.1,1.4-0.3,1.9-0.5c1.5,8.8-4.6,15.3-11.1,17.5C21.1,52.5,4,46.4,7,33.6c0.7,1,1.7,2,2.8,2.5
		c2.3,7.1,13.7,8.9,18.4,1.7c0.4,0.2,0.6,0.9,0.9,0.8c1.3-2.4-3-3.9-3.4-1.5c0.4,0.3,1.9,0,2.3,0.3c-3,5.7-14.3,5.2-16.5-0.5
		c0.8,0.2,5.7,1.9,8-2.3c2.9-5.1-1.5-10-6.7-10.2c4.8-0.6,6.7-6.2,11.4-7C28.9,16.6,33,17.9,35.8,20.2L35.8,20.2z"/>
	<linearGradient id="SVGID_3_" gradientUnits="userSpaceOnUse" x1="23.2848" y1="12.3926" x2="30.7891" y2="12.3926">
		<stop  offset="0" style="stop-color:#EEC8DE"/>
		<stop  offset="1" style="stop-color:#DF89A8"/>
	</linearGradient>
	<path class="st2" d="M30.8,15.8c-2.9-0.4-5.4,0.1-7.5,0.4c-0.3-3.6,2.3-5.3,3.5-7.6C29.1,10.1,30.6,12.2,30.8,15.8L30.8,15.8z"/>
	<path class="st3" d="M45,21.4c-1.4,1.7-1.6,2.7-2,4.9c-0.3,1.4-0.9,2.5-2.5,2.4c-1.1-0.1-2.3-1.6-2.4-2.7
		C37.8,22.3,41.5,20.3,45,21.4L45,21.4z"/>
	<path class="st4" d="M42.7,22.5c-1,1.7,0.3,4.8-2.4,4.9C38.6,27.1,39.3,21.8,42.7,22.5L42.7,22.5z"/>
	<path class="st4" d="M16.3,27.1c2.4,1.6,3.2,4.6,2.3,6.5c-1.3,2.7-6.3,2.5-8.8,1c-2.6-1.5-3.2-5.2-1.3-7.5
		C10.3,24.7,14.1,25.7,16.3,27.1L16.3,27.1z"/>
	<linearGradient id="SVGID_4_" gradientUnits="userSpaceOnUse" x1="30.2949" y1="43.7272" x2="61.3144" y2="43.7272">
		<stop  offset="0" style="stop-color:#EEC8DE"/>
		<stop  offset="1" style="stop-color:#DF89A8"/>
	</linearGradient>
	<path class="st5" d="M55.3,58.2c-0.1-0.9-0.3-1.8-0.7-2.1c-0.7,0.1-1.3,0.6-2.1,0.7c2.7-2.2,0.7-5.2-0.2-7.9
		c-1.4,0.8,0,2.9,0.5,3.8c-1,0.9-2.5,1.8-4,2c0.3-1.1,0-3.4-1-3.9c-0.3,5.8-4,9.3-8.6,9.9c-0.3-0.7-0.4-1.3-0.9-1.6
		c-0.5-0.3-1.4-0.1-2.2,0.2c0.9-2.3,2.9-4.1,3.5-6.9c-0.5,0.4-1.2,1.1-2.1,1.5c-3.6-0.2-5.4-1.7-7.2-4.1c8.9-2.5,14.8-10,13.4-20
		c0.8-0.9,1.8-1.6,2.3-2.7c8.7-1.8,12.6,4.4,12.7,12.6c0,2.5-1,4.8-0.8,7.1c0.2,2.7,3.7,1.7,3.4,4.9C60.9,55.2,58.4,58.9,55.3,58.2
		L55.3,58.2z"/>
	<linearGradient id="SVGID_5_" gradientUnits="userSpaceOnUse" x1="8.7169" y1="28.4068" x2="11.7344" y2="28.4068">
		<stop  offset="0" style="stop-color:#DD81A5"/>
		<stop  offset="1" style="stop-color:#D86A8D"/>
	</linearGradient>
	<path class="st6" d="M10.3,30c-1.6,0.6-1.9-1.4-1.3-2.3C10.8,24.9,13.4,28.7,10.3,30L10.3,30z"/>
	<linearGradient id="SVGID_6_" gradientUnits="userSpaceOnUse" x1="12.1959" y1="30.391" x2="15.7041" y2="30.391">
		<stop  offset="0" style="stop-color:#DD81A5"/>
		<stop  offset="1" style="stop-color:#D86A8D"/>
	</linearGradient>
	<path class="st7" d="M12.6,31.8c-1.5-1.2,1.4-4.2,2.6-2.8C16.8,30.8,14,33,12.6,31.8L12.6,31.8z"/>
	<path class="st8" d="M37.2,55.3c-0.6,1.3-1.3,2.1-2.1,3.1c-0.9,0-1.4,0.1-1.6,0.1c0-0.8-0.4-1.8-0.8-2.3c-0.5,0-1.3,0.1-2,0.1
		c0.2-0.9,1.4-2.3,2.5-2.2C34.7,54.2,35.6,55.2,37.2,55.3L37.2,55.3z"/>
	<path class="st4" d="M53.1,35.2c0.8,0,1.4,0.6,1.4,1.4c0,0.8-0.6,1.4-1.4,1.4c-0.8,0-1.4-0.6-1.4-1.4
		C51.7,35.8,52.3,35.2,53.1,35.2L53.1,35.2z"/>
	<path class="st4" d="M53,42.8c0.7,0,1.2,0.6,1.2,1.2c0,0.7-0.6,1.2-1.2,1.2c-0.7,0-1.2-0.6-1.2-1.2C51.8,43.4,52.4,42.8,53,42.8
		L53,42.8z"/>
	<path class="st4" d="M55.1,38.6c0.5,0,0.8,0.4,0.8,0.8c0,0.5-0.4,0.8-0.8,0.8c-0.5,0-0.8-0.4-0.8-0.8
		C54.3,38.9,54.6,38.6,55.1,38.6L55.1,38.6z"/>
	<path class="st4" d="M26.3,32.8c0.4,0.1,0.8,0.5,0.7,0.9c-0.1,0.4-0.5,0.8-0.9,0.7c-0.4-0.1-0.8-0.5-0.7-0.9
		C25.4,33,25.8,32.7,26.3,32.8L26.3,32.8z"/>
	<path class="st4" d="M26.3,28.8c0.6,0.1,1,0.6,0.9,1.2c-0.1,0.6-0.6,1-1.2,0.9c-0.6-0.1-1-0.6-0.9-1.2
		C25.2,29.1,25.7,28.7,26.3,28.8L26.3,28.8z"/>
	<path class="st4" d="M29.1,32.1c0.3,0,0.5,0.3,0.4,0.6c0,0.3-0.3,0.5-0.6,0.4c-0.3,0-0.5-0.3-0.4-0.6C28.6,32.2,28.8,32,29.1,32.1
		L29.1,32.1z"/>
	<path class="st9" d="M24.1,25c-0.4-1.2-2.3-2.9-4.5-3c0.5-1,1.1-2.4,2.1-2.3c1.1,0,1.4,1.1,0.9,2.2c0.3-0.5,1.1-1.4,2.1-1.6
		c1-0.2,2.3,0.2,2.2,1.4C26.9,22.8,25.4,24.3,24.1,25L24.1,25z"/>
	<path class="st4" d="M25.4,20.6c1.9-0.1,1.3,1.9,0.3,2.6C26.4,22.1,26.8,21.1,25.4,20.6L25.4,20.6z"/>
	<path class="st10" d="M24.1,20.9c-0.4,0.3-1.2,0.9-1.6,1.8c0.5,0,1.6,1.6,1.5,1.7c0.1-0.8-0.5-1.4-0.5-2
		C23.5,21.8,23.8,21.4,24.1,20.9L24.1,20.9z"/>
	<path class="st10" d="M21.1,20.1c-0.4,0.2-0.9,1.1-1,1.7c0.4,0,1.5,0.3,1.4,0.3c-0.3-0.4-0.7-0.3-0.7-0.9
		C20.7,20.9,20.8,20.5,21.1,20.1L21.1,20.1z"/>
	<path class="st4" d="M25.6,21.3c0.3,0.1,0.4,0.5,0.2,0.8c-0.1,0.3-0.5,0.4-0.7,0.3c-0.3-0.1-0.4-0.5-0.2-0.8
		C25,21.3,25.3,21.2,25.6,21.3L25.6,21.3z"/>
	<path class="st4" d="M22.1,20.4c0.2,0.1,0.3,0.3,0.2,0.5c-0.1,0.2-0.3,0.3-0.5,0.2c-0.2-0.1-0.3-0.3-0.2-0.5
		C21.7,20.4,22,20.3,22.1,20.4L22.1,20.4z"/>
	<path class="st4" d="M14.8,24.7c0.5-0.2,0.9-0.4,1.4-0.6c2.4-2.2,4-4.1,5.9-5.2c2.8-1.8,5.3-0.8,8.2-1.3c-1.9-0.4-3.9-0.5-6.1-0.1
		c-4.6,0.8-6.6,6.1-11.1,6.9c0,0,0.1,0.1,0.1,0.1C13.8,24.5,14.3,24.6,14.8,24.7L14.8,24.7z"/>
	<path class="st4" d="M8.2,35c-0.5,5.7,1.3,7.7,5.4,11.8l0.7,0.6C9,44.7,5.5,40,7,33.6C7.4,34.1,7.7,34.5,8.2,35L8.2,35z"/>
	<linearGradient id="SVGID_7_" gradientUnits="userSpaceOnUse" x1="39.1543" y1="48.7676" x2="61.3144" y2="48.7676">
		<stop  offset="0" style="stop-color:#DF89AE"/>
		<stop  offset="1" style="stop-color:#DC7DA0"/>
	</linearGradient>
	<path class="st11" d="M39.2,60.6c4.9-2.3,6.9-5.6,7.8-11c9.1-3,10.2-6.2,11.6-12.7c0.1,0.9,0.2,1.8,0.2,2.8c0,2.5-1,4.8-0.8,7.1
		c0.2,2.7,3.7,1.7,3.4,4.9c-0.3,3.6-2.9,7.3-6,6.6c-0.1-0.9-0.3-1.8-0.7-2.1c-0.7,0.1-1.3,0.6-2.1,0.7c2.7-2.2,0.7-5.2-0.2-7.9
		c-1.4,0.8,0,2.9,0.5,3.8c-1,0.9-2.5,1.8-4,2c0.3-1.1,0-3.4-1-3.9C47.5,56.5,43.7,60,39.2,60.6L39.2,60.6L39.2,60.6z"/>
	<path class="st4" d="M38.2,55.5c1.7,1.7,1.9,3.1,1.3,4.8c0,0.1,0,0.1,0,0.2c-0.1,0-0.3,0-0.4,0.1c-0.3-0.7-0.4-1.3-0.9-1.6
		c-0.5-0.3-1.4-0.1-2.2,0.2C36.5,58,37.4,56.8,38.2,55.5C38.2,55.6,38.2,55.5,38.2,55.5L38.2,55.5z"/>
	<path class="st4" d="M32.4,54.3c0.8,0.6,1.6,1.5,1.6,2.3c0.1,0.6,0.1,1.2,0,1.9c-0.2,0-0.4,0-0.5,0c0-0.8-0.4-1.8-0.8-2.3
		c-0.5,0-1.3,0.1-2,0.1C30.9,55.6,31.6,54.7,32.4,54.3L32.4,54.3z"/>
	<linearGradient id="SVGID_8_" gradientUnits="userSpaceOnUse" x1="52.4961" y1="55.8017" x2="58.3643" y2="55.8017">
		<stop  offset="0" style="stop-color:#EEC8DE"/>
		<stop  offset="1" style="stop-color:#DF89A8"/>
	</linearGradient>
	<path class="st12" d="M53.8,53.3c1.5,0,2.8,0.3,3.7,1.8c0.4,0.6,0.8,1.5,0.9,2.4c-0.9,0.7-2,1-3.1,0.8c-0.1-0.9-0.3-1.8-0.7-2.1
		c-0.7,0.1-1.3,0.6-2.1,0.7C53.8,55.8,54,54.6,53.8,53.3L53.8,53.3z"/>
	<linearGradient id="SVGID_9_" gradientUnits="userSpaceOnUse" x1="19.2773" y1="40.029" x2="42.6994" y2="40.029">
		<stop  offset="0" style="stop-color:#DF89AE"/>
		<stop  offset="1" style="stop-color:#DC7DA0"/>
	</linearGradient>
	<path class="st13" d="M40.5,30.8c-1.7,9-4.9,13.8-10,16.1c-3,1.4-6.8,1.9-11.2,2c4.1,0.9,8.5,0.6,12.1-0.9
		c6.5-2.2,12.6-8.7,11.1-17.5c-0.5,0.2-1.3,0.6-1.9,0.5c0.1-0.1,0.1-0.2,0.2-0.3L40.5,30.8L40.5,30.8z"/>
	<path class="st4" d="M44.6,28.9c5.5-1.9,7.7-0.7,12.2,2.5c-2-3.5-5.5-5.4-10.8-4.3C45.7,27.8,45.2,28.4,44.6,28.9L44.6,28.9z"/>
	<path class="st4" d="M25.2,15.9c-0.4-2.7,0.8-4.5,1.7-7.2l0,0c-1.2,2.3-3.8,4-3.5,7.6C23.9,16.1,24.5,16,25.2,15.9L25.2,15.9z"/>
</g>
</svg>
