<?xml version="1.0" encoding="utf-8"?>
<!-- Generator: Adobe Illustrator 21.0.2, SVG Export Plug-In . SVG Version: 6.00 Build 0)  -->
<svg version="1.1" id="Слой_1" xmlns="http://www.w3.org/2000/svg" xmlns:xlink="http://www.w3.org/1999/xlink" x="0px" y="0px"
	 viewBox="0 0 70 70" style="enable-background:new 0 0 70 70;" xml:space="preserve">
<style type="text/css">
	.st0{fill-rule:evenodd;clip-rule:evenodd;fill:url(#SVGID_1_);}
	.st1{fill-rule:evenodd;clip-rule:evenodd;fill:url(#SVGID_2_);}
	.st2{fill-rule:evenodd;clip-rule:evenodd;fill:url(#SVGID_3_);}
	.st3{fill-rule:evenodd;clip-rule:evenodd;fill:url(#SVGID_4_);}
	.st4{fill-rule:evenodd;clip-rule:evenodd;fill:#201600;}
	.st5{fill-rule:evenodd;clip-rule:evenodd;fill:url(#SVGID_5_);}
	.st6{fill-rule:evenodd;clip-rule:evenodd;fill:url(#SVGID_6_);}
	.st7{fill-rule:evenodd;clip-rule:evenodd;fill:url(#SVGID_7_);}
	.st8{fill-rule:evenodd;clip-rule:evenodd;fill:#FFFFFF;}
	.st9{fill-rule:evenodd;clip-rule:evenodd;fill:#505258;}
	.st10{fill-rule:evenodd;clip-rule:evenodd;fill:url(#SVGID_8_);}
	.st11{fill-rule:evenodd;clip-rule:evenodd;fill:url(#SVGID_9_);}
	.st12{fill-rule:evenodd;clip-rule:evenodd;fill:url(#SVGID_10_);}
	.st13{fill-rule:evenodd;clip-rule:evenodd;fill:url(#SVGID_11_);}
</style>
<g>
	<linearGradient id="SVGID_1_" gradientUnits="userSpaceOnUse" x1="9.2045" y1="34.4446" x2="61.5038" y2="34.4446">
		<stop  offset="0" style="stop-color:#DD81A5"/>
		<stop  offset="1" style="stop-color:#D86A8D"/>
	</linearGradient>
	<path class="st0" d="M29.1,20.5c0.3,0.1,0.6,0.2,1,0.2c1.5-9.8,6.8-17.5,16.7-17.8c-1.8,8.3-4.6,16-10.7,20.3
		c2.1,3.3,4.1,8.1,3.7,12.5c2.4-0.7,6.7-1.2,8.9,0.3c0.1-1.2-0.1-2.1-0.3-2.7C54.6,32,61,40.4,56.9,46c0.1,2,0.4,2.9,0.2,4.9
		c8.2,0.6,3.8,14-3.3,10.7c-1.9,1.8-5.8,1.5-7.7-0.2c-1.3,0.7-3.4,0.5-5,1c-1,4.4-11.4,8.7-12.2,1.6c-2.7,0.3-4.8-1.4-5.4-3.7
		c-0.9-3.3,1.1-6.4,3.6-8.6C16.7,53.6,9.1,47.5,9.2,37.6c0.1-8.7,7.4-13.9,14.6-16.4c-4.7-3.4-6-13.1-3.7-20.1
		C25.8,4.9,29.4,10.8,29.1,20.5L29.1,20.5z"/>
	<linearGradient id="SVGID_2_" gradientUnits="userSpaceOnUse" x1="19.6863" y1="11.6367" x2="27.6856" y2="11.6367">
		<stop  offset="0" style="stop-color:#EEC8DE"/>
		<stop  offset="1" style="stop-color:#DF89A8"/>
	</linearGradient>
	<path class="st1" d="M20.4,2.4c4.7,3.9,8,9.3,7.2,18.1c-0.6,0.2-1.5,0.2-2.5,0.4C20.4,17.7,18.6,9.9,20.4,2.4L20.4,2.4z"/>
	<linearGradient id="SVGID_3_" gradientUnits="userSpaceOnUse" x1="11.2539" y1="42.4139" x2="27.6074" y2="42.4139">
		<stop  offset="0" style="stop-color:#ADA8D3"/>
		<stop  offset="1" style="stop-color:#8080BA"/>
	</linearGradient>
	<path class="st2" d="M14.3,45.7l2,1.4l0.8,1l2.2-1.8l3.1-2.3l5.1-4.9c0,0-5.8-2-6.2-2.1c-0.4-0.1-4.8-0.3-5.4-0.3
		c-0.6,0.1-4.8,0.2-4.8,0.2l0.7,6.1L14.3,45.7L14.3,45.7z"/>
	<linearGradient id="SVGID_4_" gradientUnits="userSpaceOnUse" x1="10.6447" y1="27.5374" x2="44.8965" y2="27.5374">
		<stop  offset="0" style="stop-color:#EEC8DE"/>
		<stop  offset="1" style="stop-color:#DF89A8"/>
	</linearGradient>
	<path class="st3" d="M44.9,4.1c-1.3,5.5-2.5,9.7-5.5,13.4c-2.3,2.8-4.9,4.1-7.6,6.3c0.6,0.2,1.1-0.3,1.6-0.4
		c2.7,2.2,4.5,7.6,4.4,12.5c-0.1,3.8-2.2,9.2-5.9,11c0.1-1,0.5-2.9-0.2-4c2.4-1.2-1.6-2.3-2-0.7c0.2,0.2,0.7,0,0.9,0.2
		c1.7,7-5.8,10.3-11.8,7.8c-1.2-1.2-0.7-2.3-0.4-3.2c1-1.3,5.4-4.7,6.9-8.1c-3.7,0.5-10.9,1-12.8-1.1c-0.4,2.3,0.1,4,0.8,5.4
		c1.2,2.4,3.3,3.9,3.8,6.2c-8.8-4.4-7.7-15.7-1.9-21.8c3.4-3.7,8.7-5.9,14.8-6c0.3,0.1,0,0.5,0.2,0.8c1-0.7,0.8-2.9,1.1-4
		C32.6,12.4,36,5.2,44.9,4.1L44.9,4.1z"/>
	<path class="st4" d="M32,50.5c0.1,0,0.2,0,0.2,0c0.1,0.2,0,0.3,0.1,0.3C32.2,51.1,32,50.7,32,50.5L32,50.5z"/>
	<path class="st4" d="M38.6,52c0.3,0.1,0.2,0.4,0.1,0.7C38.5,52.5,38.5,52.2,38.6,52L38.6,52z"/>
	<linearGradient id="SVGID_5_" gradientUnits="userSpaceOnUse" x1="24.4943" y1="58.2568" x2="30.8594" y2="58.2568">
		<stop  offset="0" style="stop-color:#EEC7D2"/>
		<stop  offset="1" style="stop-color:#DF89A0"/>
	</linearGradient>
	<path class="st5" d="M30.9,58.1c-0.3,0.6-1.5,2.4-1.9,4.6c-6.1,1.1-5.3-7-1.6-9C28.2,55.6,29.4,56.8,30.9,58.1L30.9,58.1z"/>
	<linearGradient id="SVGID_6_" gradientUnits="userSpaceOnUse" x1="47.7012" y1="59.9749" x2="52.666" y2="59.9749">
		<stop  offset="0" style="stop-color:#EEC7D2"/>
		<stop  offset="1" style="stop-color:#DF89A0"/>
	</linearGradient>
	<path class="st6" d="M50.3,58.2c0.8,0.8,1.3,2,2.4,2.6c-0.8,1.4-4.2,1-5-0.2C48.6,59.9,49.7,59.3,50.3,58.2L50.3,58.2z"/>
	<linearGradient id="SVGID_7_" gradientUnits="userSpaceOnUse" x1="27.9238" y1="50.15" x2="59.8473" y2="50.15">
		<stop  offset="0" style="stop-color:#EEC8DE"/>
		<stop  offset="1" style="stop-color:#DF89A8"/>
	</linearGradient>
	<path class="st7" d="M56.5,44.3c-0.3-0.5-0.6-0.9-1.1-1.2c0.3,1.4,0.4,4.5,0.2,7.1c-0.1,2.2,0.8,2.1,1.9,2.5
		c1.8,0.7,2.2,1.5,2.3,3.5c0.1,1.6-0.5,3.2-1.6,3.8c-3.1,2-6.2-2.2-7.7-3.7c-1.6,2.8-4.5,4.8-9.2,4.8c0.4-1,0.3-3.4-0.5-3.9
		c0,2.2-0.8,4-2,5.4c-1.3,1.5-5.3,4.5-7.4,2.7c-1.7-1.5-0.9-3.7,0.2-5.6c0.8-1.4,1.7-2.6,2.1-3.4c-3.9-0.2-4.7-2.7-5.9-5.1
		c5.7-2.9,11.1-6.6,11.6-14.2c0.7-0.5,2.4-0.9,4.1-0.9c1.5,0,4.4,0.6,5.7,1.7c1.1-0.3,0.5-2.6,0.2-3.3C53,34.5,58.3,37.3,56.5,44.3
		L56.5,44.3z"/>
	<path class="st4" d="M23,29.9c-0.9-0.9-3.3-1.6-5.3-0.7c0-1.1-0.1-2.6,0.9-3c1-0.4,1.8,0.3,1.8,1.6c0.1-0.6,0.4-1.7,1.1-2.4
		c0.8-0.7,2.1-0.8,2.5,0.3C24.5,26.7,23.8,28.8,23,29.9L23,29.9z"/>
	<path class="st8" d="M22.2,25.4c1.7-0.9,2,1.1,1.4,2.2C23.8,26.4,23.7,25.3,22.2,25.4L22.2,25.4z"/>
	<path class="st9" d="M21.2,26.2c-0.3,0.4-0.7,1.4-0.6,2.3c0.4-0.2,2.2,0.7,2,0.8c-0.3-0.7-1.1-1-1.3-1.5
		C21,27.4,21.1,26.9,21.2,26.2L21.2,26.2z"/>
	<path class="st9" d="M18.2,26.9c-0.3,0.3-0.3,1.3-0.2,2c0.3-0.1,1.5-0.4,1.4-0.3c-0.4-0.2-0.8,0-1-0.5
		C18.2,27.7,18.1,27.4,18.2,26.9L18.2,26.9z"/>
	<path class="st8" d="M22.7,26c0.3,0,0.5,0.3,0.5,0.6c0,0.3-0.2,0.6-0.5,0.6c-0.3,0-0.5-0.3-0.5-0.6C22.2,26.2,22.4,26,22.7,26
		L22.7,26z"/>
	<path class="st8" d="M19.2,26.7c0.2,0,0.4,0.2,0.4,0.4c0,0.2-0.2,0.4-0.4,0.4c-0.2,0-0.4-0.2-0.4-0.4C18.9,26.8,19,26.7,19.2,26.7
		L19.2,26.7z"/>
	<path class="st8" d="M44.6,40.4c0.8,0,1.4,0.6,1.4,1.4s-0.6,1.4-1.4,1.4c-0.8,0-1.4-0.6-1.4-1.4S43.8,40.4,44.6,40.4L44.6,40.4z"/>
	<path class="st8" d="M47.6,44.5c0.7,0,1.2,0.6,1.2,1.2c0,0.7-0.6,1.2-1.2,1.2c-0.7,0-1.2-0.6-1.2-1.2C46.4,45,47,44.5,47.6,44.5
		L47.6,44.5z"/>
	<path class="st8" d="M48.4,41.6c0.5,0,0.8,0.4,0.8,0.8c0,0.5-0.4,0.8-0.8,0.8c-0.5,0-0.8-0.4-0.8-0.8
		C47.6,41.9,47.9,41.6,48.4,41.6L48.4,41.6z"/>
	<path class="st8" d="M27.1,38.7c0.4,0,0.8,0.4,0.8,0.8c0,0.4-0.4,0.8-0.8,0.8c-0.4,0-0.8-0.4-0.8-0.8
		C26.3,39.1,26.7,38.7,27.1,38.7L27.1,38.7z"/>
	<path class="st8" d="M26.5,34.8c0.6,0,1,0.5,1,1c0,0.6-0.5,1-1,1c-0.6,0-1-0.5-1-1C25.5,35.3,26,34.8,26.5,34.8L26.5,34.8z"/>
	<path class="st8" d="M29.8,37.6c0.3,0,0.5,0.2,0.5,0.5c0,0.3-0.2,0.5-0.5,0.5c-0.3,0-0.5-0.2-0.5-0.5
		C29.3,37.8,29.5,37.6,29.8,37.6L29.8,37.6z"/>
	<linearGradient id="SVGID_8_" gradientUnits="userSpaceOnUse" x1="20.2617" y1="41.7686" x2="37.895" y2="41.7686">
		<stop  offset="0" style="stop-color:#DF89AE"/>
		<stop  offset="1" style="stop-color:#DC7C99"/>
	</linearGradient>
	<path class="st10" d="M20.3,50.6c4.5-0.4,8.2-2,10.7-6.3C31,49.4,25.3,51.9,20.3,50.6L20.3,50.6z M32,43c3.3-3,4.5-6.2,5.7-10.4
		c0.2,1.1,0.2,2.2,0.2,3.3c-0.1,3.8-2.2,9.2-5.9,11C32.1,46,32.6,44.2,32,43L32,43z"/>
	<linearGradient id="SVGID_9_" gradientUnits="userSpaceOnUse" x1="12.5195" y1="37.3851" x2="25.1602" y2="37.3851">
		<stop  offset="0" style="stop-color:#BEBEE0"/>
		<stop  offset="1" style="stop-color:#8683BC"/>
	</linearGradient>
	<path class="st11" d="M12.5,37.8c3.4-4,10.2-2.2,12.6,1l-0.2,0.2C21.2,39.4,14.4,39.8,12.5,37.8L12.5,37.8z"/>
	<path class="st8" d="M14.9,36.5c3-1.4,7.5-0.3,9.6,2.2C22.3,37.7,18.6,36.6,14.9,36.5L14.9,36.5z"/>
	<linearGradient id="SVGID_10_" gradientUnits="userSpaceOnUse" x1="12.8125" y1="40.1136" x2="24.4902" y2="40.1136">
		<stop  offset="0" style="stop-color:#9592C6"/>
		<stop  offset="1" style="stop-color:#6467AA"/>
	</linearGradient>
	<path class="st12" d="M12.8,38.4c1.2,0.7,2.7,1.1,4.1,1.2c2.4,0.2,5.3-0.1,7.6-0.4c-1.5,0.9-3.9,2.3-6.9,2.6
		c-1.7,0.2-2.9-0.2-4-1.7C13.2,39.6,13,39,12.8,38.4L12.8,38.4z"/>
	<linearGradient id="SVGID_11_" gradientUnits="userSpaceOnUse" x1="40.9844" y1="52.7109" x2="59.8473" y2="52.7109">
		<stop  offset="0" style="stop-color:#DF89AE"/>
		<stop  offset="1" style="stop-color:#DC7DA0"/>
	</linearGradient>
	<path class="st13" d="M41,57.4c7.3-1.8,13.2-5.3,14.5-13.1c0.2,1.6,0.2,3.9,0.1,6c-0.1,2.2,0.8,2.1,1.9,2.5
		c1.8,0.7,2.2,1.5,2.3,3.5c0.1,1.6-0.5,3.2-1.6,3.8c-3.1,2-6.2-2.2-7.7-3.7c-1.6,2.8-4.5,4.8-9.2,4.8C41.8,60.3,41.7,58.1,41,57.4
		L41,57.4z"/>
	<path class="st8" d="M25.5,55.5c1.6,0.3,2.8,1.9,2.8,3.8c0,1.4-0.6,2.6-1.5,3.3C24,61.9,24,58.1,25.5,55.5L25.5,55.5z"/>
	<path class="st8" d="M33.2,60.1c2,0,3.5,1.8,3.5,4c0,0.2,0,0.3,0,0.4c-1.7,1.1-3.8,2-5.2,0.8c-1.3-1.2-1.1-2.8-0.4-4.4
		C31.7,60.4,32.4,60.1,33.2,60.1L33.2,60.1z"/>
	<path class="st8" d="M32.3,21.3c2.1-6.3,3.6-9,8.9-12.7c-1,1.2-1.4,2.4-1.6,3.3C38.2,16.9,36.4,18.3,32.3,21.3L32.3,21.3z"/>
	<path class="st8" d="M25.6,20.2c-0.5-5-1.2-7.3-4.5-10.9c0.5,1,0.6,2,0.6,2.7C22,15.9,23.1,17.2,25.6,20.2L25.6,20.2z"/>
	<path class="st8" d="M28.5,21.6C17.2,23.3,7.4,34.2,13.9,46.7l1,1.2c-6.4-5.1-4.9-14.8,0.3-20.4C18.3,24.2,23,22,28.5,21.6
		L28.5,21.6z"/>
</g>
</svg>
