<?xml version="1.0" encoding="utf-8"?>
<!-- Generator: Adobe Illustrator 21.0.2, SVG Export Plug-In . SVG Version: 6.00 Build 0)  -->
<svg version="1.1" id="Слой_1" xmlns="http://www.w3.org/2000/svg" xmlns:xlink="http://www.w3.org/1999/xlink" x="0px" y="0px"
	 viewBox="0 0 70 70" style="enable-background:new 0 0 70 70;" xml:space="preserve">
<style type="text/css">
	.st0{fill-rule:evenodd;clip-rule:evenodd;fill:url(#SVGID_1_);}
	.st1{fill-rule:evenodd;clip-rule:evenodd;fill:url(#SVGID_2_);}
	.st2{fill-rule:evenodd;clip-rule:evenodd;fill:#FFFFFF;}
	.st3{fill-rule:evenodd;clip-rule:evenodd;fill:url(#SVGID_3_);}
	.st4{fill-rule:evenodd;clip-rule:evenodd;fill:url(#SVGID_4_);}
	.st5{fill-rule:evenodd;clip-rule:evenodd;fill:url(#SVGID_5_);}
	.st6{fill-rule:evenodd;clip-rule:evenodd;fill:url(#SVGID_6_);}
	.st7{fill-rule:evenodd;clip-rule:evenodd;fill:url(#SVGID_7_);}
	.st8{fill-rule:evenodd;clip-rule:evenodd;fill:url(#SVGID_8_);}
	.st9{fill-rule:evenodd;clip-rule:evenodd;fill:#201600;}
	.st10{fill-rule:evenodd;clip-rule:evenodd;fill:#505258;}
</style>
<linearGradient id="SVGID_1_" gradientUnits="userSpaceOnUse" x1="4.0251" y1="36.6003" x2="69.6465" y2="36.6003">
	<stop  offset="0" style="stop-color:#94AFDD"/>
	<stop  offset="1" style="stop-color:#829CD1"/>
</linearGradient>
<path class="st0" d="M51.4,55c-1.5,0.3-2.6,0.3-3.9-0.1C46.9,61,34.1,61.2,33,55.6c-4.2,1.7-7.3-3.4-4.4-6.5
	c-2.1,0.3-3.6-0.2-5.2-0.6C14,50.9,6.5,46.8,4.6,40.4c-2.1-7,2.1-11.9,7.3-14.5c2.1-1.1,5.5-2.1,7.6-3.5c1.8-1.3,2.3-3.7,3.9-4.7
	c-3.7-3.3,2.9-6.5,3.7-1.8c6.2-1.5,9.9,0.6,12.1,2.6c2.1-1,3.9-0.3,4.4,1.1c0.6,1.5-0.5,2.7-1,3.4c0.1,0.4,0.8,1.4,1.4,2.2
	c6.4,0.8,13.1,2.2,16.7,5.2c3.1,2.6,4.3,6.1,4.9,10c1,1.4,2.7,2.3,4.1,1.5c-0.3,1.3-2.2,2.1-3.7,1.4c0.2,2.6,0.4,9.3-1.9,12.5
	c-1.3,1.8-3.3,3-6.5,2.9C54.8,58.9,52.4,58.3,51.4,55L51.4,55z"/>
<linearGradient id="SVGID_2_" gradientUnits="userSpaceOnUse" x1="5.1112" y1="32.2239" x2="42.9647" y2="32.2239">
	<stop  offset="0" style="stop-color:#D3DCF1"/>
	<stop  offset="1" style="stop-color:#B2C3E6"/>
</linearGradient>
<path class="st1" d="M38.2,18.9c-0.3,0.6-0.6,0.6-0.6,1.5c0.7,0.8,1.8-1.6,3.5-1.3c0.2,0,0.5,0,0.7,0c1.1,0.1,1.7,1,0.7,2.6
	c-1.4,2.2-3.7,0.5-4.6,1.2c0.6,0.7,1.9,0.2,2.7,0.7c0.1,0.3,1.8,3.7,1.9,4c1.9,6.4-3.4,10.7-6,14.8C33.7,47,30,48.6,24.9,48
	c4.2-1.9,7.8-4.3,8.3-9.9c0.3-0.2,0.8,0,1-0.3c0.7-2.1-3.2-1.9-3.5-0.5c0.1,0.7,0.9,0.5,1.4,0.6c-0.8,12.4-21.4,13.1-26,3.2
	C4.3,37.4,4.9,33,8.5,29.7c2.6-2.4,6.6-4.2,10.6-5.7c3.4-1.3,2.8-5.7,7.9-7.1C31.5,15.7,35.3,16.3,38.2,18.9L38.2,18.9z"/>
<path class="st2" d="M26,16.3c-0.7,0.1-1,0.5-1.6,0.7C21.1,15.4,25.4,12.9,26,16.3L26,16.3z"/>
<linearGradient id="SVGID_3_" gradientUnits="userSpaceOnUse" x1="32.5689" y1="42.2596" x2="64.6696" y2="42.2596">
	<stop  offset="0" style="stop-color:#D3DCF1"/>
	<stop  offset="1" style="stop-color:#B2C3E6"/>
</linearGradient>
<path class="st3" d="M44.2,26.9c7.7,0.5,15.1,1.5,18.5,7.8c2,3.8,2.6,11.9,1.4,17.5c-1.8,8.5-14.3,5.8-11.1-2.3
	c-1.3,0.2-1.3,1.9-1.5,3.4c-1.2,0.3-2.5,0.2-3.6-0.2c0.1-0.9-0.7-3.2-2.1-3.5c1,1.9,1,4.3,0.4,5.4c-1.9,3.7-10.2,3-11.8-0.8
	c-0.3-2.4,0.7-4.9,1.1-5.7c-0.9,0.2-1.1,1.1-1.4,1.9c-0.9-0.5-1.4-1.3-1.4-2.5c2.7-1.2,3.8-3.6,5.6-6.1c1.7-2.4,4-3.7,5.3-6.5
	C44.6,32.8,44.5,30.2,44.2,26.9L44.2,26.9z"/>
<linearGradient id="SVGID_4_" gradientUnits="userSpaceOnUse" x1="28.3363" y1="51.6938" x2="33.5387" y2="51.6938">
	<stop  offset="1.098900e-02" style="stop-color:#BDCEEC"/>
	<stop  offset="1" style="stop-color:#9FB4DF"/>
</linearGradient>
<path class="st4" d="M33.5,51.7c-0.2,0.9-0.5,1.6-0.5,2.6c-4,1.3-6.1-2.9-3.6-5.2C32,48.1,31.4,51.4,33.5,51.7L33.5,51.7z"/>
<path class="st2" d="M49.6,33.8c0.7,0,1.3,0.6,1.3,1.3c0,0.7-0.6,1.3-1.3,1.3c-0.7,0-1.3-0.6-1.3-1.3C48.3,34.3,48.9,33.8,49.6,33.8
	L49.6,33.8z"/>
<path class="st2" d="M48.8,39.9c0.7,0,1.2,0.5,1.2,1.2c0,0.7-0.5,1.2-1.2,1.2c-0.7,0-1.2-0.5-1.2-1.2C47.6,40.4,48.1,39.9,48.8,39.9
	L48.8,39.9z"/>
<path class="st2" d="M51.9,37.4c0.4,0,0.8,0.4,0.8,0.8c0,0.4-0.4,0.8-0.8,0.8c-0.4,0-0.8-0.4-0.8-0.8C51.1,37.8,51.4,37.4,51.9,37.4
	L51.9,37.4z"/>
<path class="st2" d="M29.3,34c0.4,0,0.8,0.3,0.8,0.8c0,0.4-0.3,0.8-0.8,0.8c-0.4,0-0.8-0.3-0.8-0.8C28.6,34.3,28.9,34,29.3,34
	L29.3,34z"/>
<path class="st2" d="M28.8,30.2c0.5,0,1,0.4,1,1c0,0.5-0.4,1-1,1c-0.5,0-1-0.4-1-1C27.8,30.7,28.2,30.2,28.8,30.2L28.8,30.2z"/>
<path class="st2" d="M31.9,32.9c0.3,0,0.5,0.2,0.5,0.5s-0.2,0.5-0.5,0.5c-0.3,0-0.5-0.2-0.5-0.5S31.6,32.9,31.9,32.9L31.9,32.9z"/>
<path class="st2" d="M5.1,36.5c0.9-3.4,3.8-6.4,5.8-7.5c1.7-0.9,3.6-1.6,5.9-2.7c1.8-0.8,3.9-1.7,5.5-4.1c2.9-4.5,4.1-5,9.2-5.9
	c-1.6,0-3.1,0.2-4.6,0.6c-5,1.3-5.1,5.5-8.3,7.2c-2.9,1.5-7.2,2.6-9.8,5C6.5,31.2,5.1,33.6,5.1,36.5L5.1,36.5z"/>
<linearGradient id="SVGID_5_" gradientUnits="userSpaceOnUse" x1="24.8557" y1="35.7498" x2="42.9886" y2="35.7498">
	<stop  offset="1.098900e-02" style="stop-color:#BDCEEC"/>
	<stop  offset="1" style="stop-color:#9FB4DF"/>
</linearGradient>
<path class="st5" d="M25.9,47.5c4-0.6,6.6-1.9,8.4-4.2c1-1.3,0.9-3.8,2.6-5.1c3.1-2.5,4.9-7.2,4.4-10.6c-0.3-2.3-1.5-3.9-1.5-4.1
	c0.3,0,0.6,0.1,0.8,0.2c0.1,0.3,1.2,2,1.9,4.1c2.2,6.4-3.4,10.7-6,14.8C33.7,47,30,48.6,24.9,48C25.2,47.8,25.6,47.6,25.9,47.5
	L25.9,47.5z"/>
<path class="st2" d="M37.7,20.6l0,1.1c2-1.2,3.6-2.6,5-0.5c0.7-1.6-0.2-2.2-1.1-2.3C38.8,18.8,38.8,20.6,37.7,20.6L37.7,20.6z"/>
<linearGradient id="SVGID_6_" gradientUnits="userSpaceOnUse" x1="46.417" y1="46.4095" x2="64.7732" y2="46.4095">
	<stop  offset="1.098900e-02" style="stop-color:#BDCEEC"/>
	<stop  offset="1" style="stop-color:#9FB4DF"/>
</linearGradient>
<path class="st6" d="M46.4,50c8-1.4,16-6.2,16.6-14.8c2.2,5.3,2.1,11.9,1,17.1c-1.8,8.5-14.3,5.8-11.1-2.3c-1.3,0.2-1.3,1.9-1.5,3.4
	c-1.2,0.3-2.5,0.2-3.6-0.2C47.9,52.5,47.4,50.8,46.4,50L46.4,50z"/>
<path class="st2" d="M36.6,50.4c2.3,0,4.2,1.9,4.2,4.2c0,1.1-0.4,2.1-1.2,2.9c-2.4-0.3-4.6-1.4-5.3-3.2c-0.1-1.2,0-2.5,0.3-3.5
	C35.2,50.5,35.9,50.4,36.6,50.4L36.6,50.4z"/>
<path class="st2" d="M29,49.5c1.4,0.4,2.5,1.6,2.5,3.2c0,0.7-0.2,1.3-0.6,1.8C28.6,54.1,27.5,51.3,29,49.5L29,49.5z"/>
<linearGradient id="SVGID_7_" gradientUnits="userSpaceOnUse" x1="1.1861" y1="26.6129" x2="14.7917" y2="26.6129">
	<stop  offset="0" style="stop-color:#94AFDD"/>
	<stop  offset="1" style="stop-color:#829CD1"/>
</linearGradient>
<path class="st7" d="M5.8,38.1c0,0-5.5-6.2-4.4-14.6c0.3-2.3,1.2-6.1,4.9-9.1c-2.9,5.4,0.8,16,8.4,16.9C15.8,36.2,9.5,40.8,5.8,38.1
	L5.8,38.1z"/>
<linearGradient id="SVGID_8_" gradientUnits="userSpaceOnUse" x1="2.2009" y1="27.4168" x2="13.7162" y2="27.4168">
	<stop  offset="0" style="stop-color:#D3DCF1"/>
	<stop  offset="1" style="stop-color:#B2C3E6"/>
</linearGradient>
<path class="st8" d="M6.5,37.1c0,0-8.4-10.3-1.8-20.1c-1.8,4.8,2,14,8.9,14.8C14.5,35.1,9.9,39.6,6.5,37.1L6.5,37.1z"/>
<path class="st2" d="M6.5,37.1c0,0-8-9.8-2.2-19.4C2.4,24.2,4.1,35,9.8,37.5c0,0,0,0.1,0,0.1C8.7,38,7.6,37.9,6.5,37.1L6.5,37.1z"/>
<path class="st9" d="M21.9,29.6c-0.4-1.1-2.2-2.7-4.2-2.8c0.4-1,1-2.2,2-2.2c1,0,1.4,1,0.9,2.1c0.3-0.4,1-1.3,2-1.6
	c1-0.2,2.2,0.2,2.1,1.3C24.6,27.5,23.1,29,21.9,29.6L21.9,29.6z"/>
<path class="st2" d="M23.2,25.4c1.8-0.1,1.2,1.8,0.2,2.5C24.1,26.9,24.5,26,23.2,25.4L23.2,25.4z"/>
<path class="st10" d="M22,25.7c-0.4,0.3-1.2,0.9-1.5,1.7c0.5,0,1.6,1.6,1.4,1.6c0.1-0.7-0.5-1.3-0.5-1.9
	C21.3,26.6,21.6,26.2,22,25.7L22,25.7z"/>
<path class="st10" d="M19.1,25c-0.4,0.2-0.8,1-1,1.6c0.3,0,1.5,0.3,1.3,0.3c-0.3-0.4-0.7-0.3-0.7-0.8C18.7,25.7,18.8,25.4,19.1,25
	L19.1,25z"/>
<path class="st2" d="M23.4,26.1c0.3,0.1,0.4,0.4,0.2,0.7c-0.1,0.3-0.5,0.4-0.7,0.3c-0.3-0.1-0.4-0.4-0.2-0.7
	C22.8,26.1,23.1,26,23.4,26.1L23.4,26.1z"/>
<path class="st2" d="M20.1,25.3c0.2,0.1,0.2,0.3,0.2,0.5c-0.1,0.2-0.3,0.3-0.5,0.2c-0.2-0.1-0.2-0.3-0.2-0.5
	C19.7,25.3,19.9,25.2,20.1,25.3L20.1,25.3z"/>
</svg>
