<?xml version="1.0" encoding="utf-8"?>
<!-- Generator: Adobe Illustrator 21.0.2, SVG Export Plug-In . SVG Version: 6.00 Build 0)  -->
<svg version="1.1" id="Слой_1" xmlns="http://www.w3.org/2000/svg" xmlns:xlink="http://www.w3.org/1999/xlink" x="0px" y="0px"
	 viewBox="0 0 70 70" style="enable-background:new 0 0 70 70;" xml:space="preserve">
<style type="text/css">
	.st0{fill-rule:evenodd;clip-rule:evenodd;fill:url(#SVGID_1_);}
	.st1{fill-rule:evenodd;clip-rule:evenodd;fill:url(#SVGID_2_);}
	.st2{fill-rule:evenodd;clip-rule:evenodd;fill:url(#SVGID_3_);}
	.st3{fill-rule:evenodd;clip-rule:evenodd;fill:url(#SVGID_4_);}
	.st4{fill-rule:evenodd;clip-rule:evenodd;fill:url(#SVGID_5_);}
	.st5{fill-rule:evenodd;clip-rule:evenodd;fill:url(#SVGID_6_);}
	.st6{fill-rule:evenodd;clip-rule:evenodd;fill:url(#SVGID_7_);}
	.st7{fill-rule:evenodd;clip-rule:evenodd;fill:url(#SVGID_8_);}
	.st8{fill-rule:evenodd;clip-rule:evenodd;fill:url(#SVGID_9_);}
	.st9{fill-rule:evenodd;clip-rule:evenodd;fill:url(#SVGID_10_);}
	.st10{fill-rule:evenodd;clip-rule:evenodd;fill:url(#SVGID_11_);}
	.st11{fill-rule:evenodd;clip-rule:evenodd;fill:url(#SVGID_12_);}
	.st12{fill-rule:evenodd;clip-rule:evenodd;fill:#DB7C53;}
	.st13{fill-rule:evenodd;clip-rule:evenodd;fill:#FFFFFF;}
	.st14{fill-rule:evenodd;clip-rule:evenodd;fill:#201600;}
	.st15{fill-rule:evenodd;clip-rule:evenodd;fill:#505258;}
	.st16{fill-rule:evenodd;clip-rule:evenodd;fill:#969CA7;}
	.st17{fill-rule:evenodd;clip-rule:evenodd;fill:url(#SVGID_13_);}
	.st18{fill-rule:evenodd;clip-rule:evenodd;fill:url(#SVGID_14_);}
	.st19{fill-rule:evenodd;clip-rule:evenodd;fill:url(#SVGID_15_);}
	.st20{fill-rule:evenodd;clip-rule:evenodd;fill:url(#SVGID_16_);}
	.st21{fill-rule:evenodd;clip-rule:evenodd;fill:url(#SVGID_17_);}
	.st22{fill-rule:evenodd;clip-rule:evenodd;fill:url(#SVGID_18_);}
	.st23{fill-rule:evenodd;clip-rule:evenodd;fill:url(#SVGID_19_);}
</style>
<linearGradient id="SVGID_1_" gradientUnits="userSpaceOnUse" x1="2.6754" y1="34.1341" x2="66.5035" y2="34.1341">
	<stop  offset="0" style="stop-color:#DD8144"/>
	<stop  offset="1" style="stop-color:#D66744"/>
</linearGradient>
<path class="st0" d="M28.2,12.6c3-4,8.1-4,11-0.4c2.2,2.8,1.7,9.2-4.4,10.3c-0.2,2-0.6,5.9-2.2,8.1c1.8,3.4,9.3-2.8,16.4,1.1
	c2.8,1.6,4.6,4.7,5.3,6.6c3.1,2.5,10.4,3.2,9.2-1.5c-0.8-2.9-4.3-2.4-6.5-5.9c-1.6-2.5-1.2-5.5-0.4-6.1c2.2-1.7,1.3,3.8,2.5,5.2
	c2.4,2.8,4.6,2.5,6.5,5c1.3,1.6,1.1,3.8,0.6,5c-1.5,4.1-7.7,5-12.3,2.9c0.6,1.6,0.5,3.1,0.2,4.8C53.7,50,55,51.5,55,53.1
	c0,2.4-1.6,4.3-4.3,4.9c-2.9,0.7-7-0.1-7.7-3.1c-3.2,1-4.6-2.1-8.1-1.3c-0.8,7.2-12.9,9.6-15.2,1.9c-6.9-0.6-5.5-7.1-1.1-10
	c-0.4-1.4-0.9-4.2-0.7-4.7c-7.8,0.4-13.3-3.6-14.8-9.8c-1-4.2-0.1-8.8,2.5-13c0.6-1,0.9-1.4,1.8-2.4c-1.9-3.3-0.9-5.8,0.7-7
	c2.4-1.7,6.5-0.9,7.1,2.6C18.7,9.8,24.7,9.8,28.2,12.6L28.2,12.6z"/>
<linearGradient id="SVGID_2_" gradientUnits="userSpaceOnUse" x1="3.3898" y1="25.2639" x2="39.3796" y2="25.2639">
	<stop  offset="0" style="stop-color:#F0BF45"/>
	<stop  offset="1" style="stop-color:#DC7F44"/>
</linearGradient>
<path class="st1" d="M28.6,13.9c1.8-2.9,6.5-4.9,9.3-1.7c2.9,3.3,1.5,8.8-3.8,9.5c-1.3,7.5-3,10.4-6.6,13.9c0.6-1.5,1-4,0.6-5.5
	c2-1.3-1.6-2.1-1.9-0.5c2,0.5,1.1,5.2-0.1,6.6c-2.7,3.2-9.2,4.8-13.7,3.2c-2-1.6-3.5-4.5-2.2-7.4c3.3,1,6.9-0.4,9.4-7.3
	c-5-1.3-12-3-14-1.7c-0.4,3.4,1.4,7.7,3.7,8.5c-1.1,2.2-0.8,5.6,0.7,7c-4.8-1.4-8-8.7-6.2-14.7c2.1-7.1,6.2-10.3,11.8-12
	C21.7,10.1,25.9,11.4,28.6,13.9L28.6,13.9z"/>
<linearGradient id="SVGID_3_" gradientUnits="userSpaceOnUse" x1="15.0017" y1="13.0599" x2="21.5449" y2="13.0599">
	<stop  offset="0" style="stop-color:#3B4349"/>
	<stop  offset="1" style="stop-color:#222D35"/>
</linearGradient>
<path class="st2" d="M15.3,12c0.1,0,0.3-0.1,0.4-0.1c2.2-0.6,4.1-0.9,5.9-0.8c-2.1,1-4.9,2.9-6.5,4C15,14.6,15,13.3,15.3,12L15.3,12
	z"/>
<linearGradient id="SVGID_4_" gradientUnits="userSpaceOnUse" x1="21.6914" y1="13.8662" x2="27.2461" y2="13.8662">
	<stop  offset="0" style="stop-color:#3B4349"/>
	<stop  offset="1" style="stop-color:#222D35"/>
</linearGradient>
<path class="st3" d="M23.6,11.3c1.4,0.3,2.6,0.8,3.7,1.5c-1.6,0.7-4,2-5.6,3.6C22,14.7,22.6,12.9,23.6,11.3L23.6,11.3z"/>
<linearGradient id="SVGID_5_" gradientUnits="userSpaceOnUse" x1="27.2305" y1="20.8296" x2="34.1582" y2="20.8296">
	<stop  offset="0" style="stop-color:#3B4349"/>
	<stop  offset="1" style="stop-color:#222D35"/>
</linearGradient>
<path class="st4" d="M34.2,21.7c0,0-0.1,0-0.1,0c-0.1,0.7-0.3,1.4-0.4,2.1c-1.1,0.8-3.1,1.8-6.4,1.4c3.5-1.5,5.4-6.1,6-8.7
	C33.7,18,34,19.8,34.2,21.7L34.2,21.7z"/>
<linearGradient id="SVGID_6_" gradientUnits="userSpaceOnUse" x1="3.3898" y1="29.6931" x2="30.2207" y2="29.6931">
	<stop  offset="0" style="stop-color:#F8E2AA"/>
	<stop  offset="1" style="stop-color:#EFC07B"/>
</linearGradient>
<path class="st5" d="M30.2,32.5c-0.8,1.1-1.7,2-2.7,3.1c0.6-1.5,1-4,0.6-5.5c2-1.3-1.6-2.1-1.9-0.5c2,0.5,1.1,5.2-0.1,6.6
	c-2.7,3.2-9.2,4.8-13.7,3.2c-2-1.6-3.5-4.5-2.2-7.4c3.3,1,6.9-0.4,9.4-7.3c-5-1.3-12-3-14-1.7c-0.4,3.4,1.4,7.7,3.7,8.5
	c-1.1,2.2-0.8,5.6,0.7,7c-4.8-1.4-8-8.7-6.2-14.7c0.4-1.3,0.8-2.5,1.4-3.5c2.1-0.6,4.4-0.9,6.9-0.9c10,0,18.1,5.4,18.1,12.1
	C30.2,31.9,30.2,32.2,30.2,32.5L30.2,32.5z"/>
<linearGradient id="SVGID_7_" gradientUnits="userSpaceOnUse" x1="7.1728" y1="11.7223" x2="14.502" y2="11.7223">
	<stop  offset="0" style="stop-color:#F0BF45"/>
	<stop  offset="1" style="stop-color:#DC7F44"/>
</linearGradient>
<path class="st6" d="M14.5,11.5c-1.7,0.6-4.7,2.1-6.2,3.3C6.8,14.1,6.4,10.2,9.3,9C11.9,7.8,13.9,9.9,14.5,11.5L14.5,11.5z"/>
<linearGradient id="SVGID_8_" gradientUnits="userSpaceOnUse" x1="6.1924" y1="27.2503" x2="18.7871" y2="27.2503">
	<stop  offset="0" style="stop-color:#3B4349"/>
	<stop  offset="1" style="stop-color:#222D35"/>
</linearGradient>
<path class="st7" d="M18.8,25.5c-1.3,1.8-2,3.2-4.2,4.8c-1.7,1.3-5.2,1.7-6.6-0.8c-1.2-1.5-1.6-3.5-1.8-5.9
	C9.7,22.8,13,23.8,18.8,25.5L18.8,25.5z"/>
<linearGradient id="SVGID_9_" gradientUnits="userSpaceOnUse" x1="18.8809" y1="44.9653" x2="65.0296" y2="44.9653">
	<stop  offset="0" style="stop-color:#F0BF45"/>
	<stop  offset="1" style="stop-color:#DC7F44"/>
</linearGradient>
<path class="st8" d="M64.3,36.1c1.6,2.6,0.3,5.7-2.6,6.5c-3.3,0.9-7-0.3-9-1.4c1.7,3.5-2,9.1,0.9,11.7c-0.2,2.9-3.3,3.6-5.8,3.4
	c-3.9-0.3-4.9-3.7-4.2-7.6c-0.2,0.3-0.5,0.1-0.9,0.3c-0.8,2.6-5.1,4.5-7.7,2.5c0-1.2,0.4-2.5,0.1-3.4c-0.5,0.1-0.8,0.6-0.9,1
	c-0.7,3.5-0.6,6.2-3,8.2c-2.1,1.7-5.9,2-8.8,0.4c-2.7-3.5,2.4-7.8-0.3-12c-0.6,0.6,0,1.8-0.2,2.7c-2-1.5-3.5-4.2-3.2-7.5
	c6.2-1.8,10.1-4.2,13.1-9.4c2.3,2.5,6.1,0.7,10.1,0.1c5.7-0.9,8.7,2.2,11.2,7.5c0.8,1.1,5.2,3,8.2,2.3C64,40.7,65.2,38.5,64.3,36.1
	L64.3,36.1z"/>
<linearGradient id="SVGID_10_" gradientUnits="userSpaceOnUse" x1="43.0879" y1="43.0775" x2="53.1992" y2="43.0775">
	<stop  offset="0" style="stop-color:#252D32"/>
	<stop  offset="1" style="stop-color:#222D35"/>
</linearGradient>
<path class="st9" d="M44.7,54.8c-0.5-0.6-0.8-1.3-1-2.1c1.5,0.4,4.7,0,6.4-0.9C48.9,53.3,46.3,54.3,44.7,54.8L44.7,54.8z M43.6,52.1
	c-0.1-0.4-0.1-0.9-0.1-1.3c1.7,0,4.3-0.1,5.9-1.4C47.8,51.6,45,52,43.6,52.1L43.6,52.1z M43.1,31.4c2-0.2,3.6,0.2,5,0.9
	c0.1,4.3,0.1,12.3-2,16.7C46.6,43.9,45,35.2,43.1,31.4L43.1,31.4z M50.1,33.9c1.2,1.2,2.2,2.9,3.1,4.8c-0.7,3.5-2.1,7.9-4.4,11.1
	C50.5,44.7,50.7,38,50.1,33.9L50.1,33.9z"/>
<linearGradient id="SVGID_11_" gradientUnits="userSpaceOnUse" x1="23.4902" y1="42.1079" x2="25.7817" y2="42.1079">
	<stop  offset="0" style="stop-color:#3B4349"/>
	<stop  offset="1" style="stop-color:#222D35"/>
</linearGradient>
<path class="st10" d="M22.2,52.6c0.2-0.8,0.5-1.7,0.7-2.6c2.4,1,6.9,1.7,9.6,1.3C29.7,52.7,24.3,52.7,22.2,52.6L22.2,52.6z M23,49
	c0.1-0.8,0-1.6-0.2-2.4c2.6,1,6.5,2.2,9.2,1C29.1,50.2,25.3,49.6,23,49L23,49z M33.2,32.2c0.6,0.3,1.3,0.4,2,0.4c0,0.1,0,0.1,0,0.2
	c-0.8,2.2-3.3,5.6-7.2,6.4C30.5,37.8,32.2,35,33.2,32.2L33.2,32.2z M35.9,32.7c0.7,0,1.5-0.2,2.4-0.4l0.1,0.1
	c0.2,1.3,0.7,6.5-4.8,12.3C35.7,40.8,36.1,36.4,35.9,32.7L35.9,32.7z M39,32.1c0.9-0.2,1.8-0.4,2.7-0.6c0.9,3.6,2.1,11.2-1.3,16.8
	C41.9,43.5,40.4,36.6,39,32.1L39,32.1z"/>
<linearGradient id="SVGID_12_" gradientUnits="userSpaceOnUse" x1="16.6638" y1="50.4483" x2="22.0156" y2="50.4483">
	<stop  offset="0" style="stop-color:#F0BF45"/>
	<stop  offset="1" style="stop-color:#DC7F44"/>
</linearGradient>
<path class="st11" d="M19.1,46.7c0.8,1.2,1.7,2.3,2.9,3.2c-0.2,2-1.2,3.3-2.2,4.4C15,54.1,16.5,48,19.1,46.7L19.1,46.7z"/>
<path class="st12" d="M42.2,51.6c0.1,0.9,0.3,1.7,0.5,2.6c-1.2,0.4-2.4-0.1-3-0.9C40.8,52.9,41.6,52.2,42.2,51.6L42.2,51.6z"/>
<path class="st13" d="M21.3,26.4c0.5,0,0.9,0.4,0.9,0.9c0,0.5-0.4,0.9-0.9,0.9c-0.5,0-0.9-0.4-0.9-0.9
	C20.5,26.8,20.9,26.4,21.3,26.4L21.3,26.4z"/>
<path class="st13" d="M20.7,22.2c0.6,0,1.1,0.5,1.1,1.1c0,0.6-0.5,1.1-1.1,1.1c-0.6,0-1.1-0.5-1.1-1.1
	C19.6,22.7,20.1,22.2,20.7,22.2L20.7,22.2z"/>
<path class="st13" d="M24.2,25.2c0.3,0,0.5,0.2,0.5,0.5c0,0.3-0.2,0.5-0.5,0.5c-0.3,0-0.5-0.2-0.5-0.5
	C23.7,25.4,23.9,25.2,24.2,25.2L24.2,25.2z"/>
<path class="st14" d="M17.6,19.9c-0.9-1-3.4-1.8-5.5-1c0-1.2,0.1-2.7,1.1-3.1c1-0.4,1.8,0.5,1.8,1.8c0.1-0.6,0.5-1.8,1.3-2.4
	c0.9-0.7,2.3-0.8,2.7,0.4C19.3,16.7,18.5,18.8,17.6,19.9L17.6,19.9z"/>
<path class="st13" d="M17,15.2c1.8-0.8,2,1.2,1.3,2.4C18.6,16.2,18.6,15.1,17,15.2L17,15.2z"/>
<path class="st15" d="M15.9,16c-0.3,0.4-0.8,1.4-0.8,2.4c0.5-0.2,2.3,0.9,2.1,1c-0.2-0.8-1.1-1.1-1.3-1.7
	C15.7,17.2,15.8,16.6,15.9,16L15.9,16z"/>
<path class="st15" d="M12.7,16.5c-0.3,0.3-0.4,1.4-0.3,2.1c0.3-0.1,1.6-0.3,1.5-0.3c-0.5-0.2-0.8,0-1.1-0.6
	C12.6,17.4,12.6,17,12.7,16.5L12.7,16.5z"/>
<path class="st13" d="M17.5,15.8c0.3,0,0.6,0.3,0.5,0.6c0,0.3-0.3,0.6-0.6,0.6c-0.3,0-0.6-0.3-0.5-0.6C16.9,16,17.2,15.8,17.5,15.8
	L17.5,15.8z"/>
<path class="st13" d="M13.8,16.3c0.2,0,0.4,0.2,0.4,0.4c0,0.2-0.2,0.4-0.4,0.4c-0.2,0-0.4-0.2-0.4-0.4
	C13.4,16.5,13.6,16.3,13.8,16.3L13.8,16.3z"/>
<path class="st13" d="M7.6,37.2C5.7,33.4,5,29.3,5.7,25.4c-0.1-0.8-0.1-1.6-0.1-2.4c0.2-0.1,0.6-0.3,0.9-0.3
	c2.9-7.3,9.1-12.3,18.5-10.9c-2.5-0.9-5.5-1-8.6-0.2c-7.6,1.9-11.4,6.6-12.9,13C2.3,29.5,4.4,34.7,7.6,37.2L7.6,37.2z"/>
<path class="st16" d="M23.4,11.6c0.5,0,1.1,0.1,1.6,0.2c-0.5-0.2-1-0.3-1.5-0.4C23.5,11.5,23.4,11.5,23.4,11.6L23.4,11.6z"/>
<path class="st16" d="M15.1,13c1.6-0.8,3.4-1.2,5.3-1.4c0.3-0.2,0.7-0.4,1-0.5c-1.6-0.1-3.3,0-5,0.5c-0.4,0.1-0.8,0.2-1.1,0.3
	C15.2,12.3,15.1,12.7,15.1,13L15.1,13z"/>
<linearGradient id="SVGID_13_" gradientUnits="userSpaceOnUse" x1="12.3633" y1="29.6004" x2="34.1883" y2="29.6004">
	<stop  offset="0" style="stop-color:#E8A744"/>
	<stop  offset="1" style="stop-color:#D66544"/>
</linearGradient>
<path class="st17" d="M12.4,39.4c7-0.1,11.7-2.4,14.9-6.5c-0.2,1.3-0.7,2.6-1.2,3.3C23.4,39.3,16.8,41,12.4,39.4L12.4,39.4
	L12.4,39.4z M28.2,31.6c2.2-3.4,5-7.3,6-12.4c0.1,7.1-2.8,13.2-6.8,16.4C27.8,34.5,28.2,33,28.2,31.6L28.2,31.6z"/>
<path class="st14" d="M34.1,21.7L34.1,21.7c-0.2,0.7-0.3,1.4-0.4,2.1c-0.3,0.2-0.7,0.5-1.2,0.7c0.6-1.4,1.2-2.8,1.5-4.3
	c0,0.4,0.1,0.8,0.1,1.1C34.1,21.4,34.1,21.5,34.1,21.7L34.1,21.7z"/>
<linearGradient id="SVGID_14_" gradientUnits="userSpaceOnUse" x1="12.3633" y1="34.5452" x2="30.2207" y2="34.5452">
	<stop  offset="0" style="stop-color:#F5D38F"/>
	<stop  offset="1" style="stop-color:#E9A95C"/>
</linearGradient>
<path class="st18" d="M12.4,39.4c7-0.1,11.7-2.4,14.9-6.5v0c-0.1,0.6-0.2,1.2-0.4,1.8l0,0l0,0.1l0,0l0,0.1l0,0l0,0.1l0,0v0l0,0.1
	l0,0l0,0.1l0,0l0,0.1l0,0l0,0.1l0,0l0,0l0,0l0,0l0,0l0,0l0,0l0,0l0,0.1l0,0l0,0.1l0,0l0,0l0,0l0,0.1l0,0c0,0,0,0,0,0.1l0,0l0,0.1
	l0,0c0,0,0,0,0,0.1l0,0c0,0,0,0-0.1,0.1C23.4,39.3,16.8,41,12.4,39.4L12.4,39.4L12.4,39.4z M30.2,32.5c-0.8,1.1-1.7,2-2.7,3.1l0-0.1
	l0,0l0,0l0,0l0,0l0-0.1l0,0l0,0c0,0,0-0.1,0.1-0.1l0,0l0,0l0,0l0,0l0,0l0,0l0-0.1l0,0l0-0.1l0-0.1l0,0l0-0.1l0,0l0,0l0-0.1l0,0
	l0-0.1l0,0l0,0l0,0l0,0l0,0c0-0.2,0.1-0.3,0.1-0.5l0,0l0-0.1l0-0.1l0,0c0.2-0.7,0.3-1.5,0.3-2.2c0.5-0.8,1.1-1.6,1.7-2.5
	c0.2,0.8,0.4,1.6,0.4,2.4C30.2,31.9,30.2,32.2,30.2,32.5L30.2,32.5z"/>
<linearGradient id="SVGID_15_" gradientUnits="userSpaceOnUse" x1="35.1494" y1="40.8128" x2="65.5629" y2="40.8128">
	<stop  offset="0" style="stop-color:#E8A744"/>
	<stop  offset="1" style="stop-color:#D66544"/>
</linearGradient>
<path class="st19" d="M35.4,48.8c4.2,0.2,7.7-0.3,10.4-1.7c3.5-1.8,5.7-5.2,6.5-10.2c0.4,0.7,0.8,1.4,1.1,2.2c0.8,1.1,5.2,3,8.2,2.3
	c1.4-0.4,2.4-1.2,2.8-2.3c0.1-0.3,0.5-2.3-1-3.9c-1.5-1.6-4.6-2.6-6-4.7c-1.5-2.3-1-4.7-0.6-5c1-0.6,0.6,2.2,1.5,4.4
	c0.9,2.4,4.6,3.2,6,5c1.6,2,1.3,4.5,1.2,4.9c-0.4,1.4-1.9,2.7-3.6,3.1c-3.3,0.9-7.1-0.5-9.2-1.6c1.7,3.5-2,9.1,0.9,11.7
	c-0.2,2.9-3.3,3.6-5.8,3.4c-3.9-0.3-4.9-3.7-4.2-7.6c-0.2,0.3-0.5,0.1-0.9,0.3c-0.8,2.6-5.1,4.5-7.7,2.5
	C35.1,50.5,35.4,49.6,35.4,48.8L35.4,48.8z"/>
<linearGradient id="SVGID_16_" gradientUnits="userSpaceOnUse" x1="54.1093" y1="36.7583" x2="65.5625" y2="36.7583">
	<stop  offset="0" style="stop-color:#252D32"/>
	<stop  offset="1" style="stop-color:#222D35"/>
</linearGradient>
<path class="st20" d="M54.2,39.7c0.5,0.3,1.2,0.7,2,1c-0.3,0.5-0.5,1-0.7,1.7c-0.5-0.2-1-0.3-1.4-0.5C54.1,41,54.2,40.2,54.2,39.7
	L54.2,39.7z M57,41c0.5,0.1,1,0.3,1.6,0.4c-0.2,0.5-0.3,1.1-0.5,1.7c-0.4-0.1-0.9-0.1-1.3-0.2C56.8,42.1,56.9,41.5,57,41L57,41z
	 M59.2,41.4c0.7,0.1,1.4,0.1,2-0.1c0,0.5,0.1,1,0.2,1.6c-0.4,0.1-0.8,0.1-1.3,0.2C59.7,42.6,59.4,42,59.2,41.4L59.2,41.4z
	 M61.8,41.2c0.6-0.2,1.1-0.4,1.5-0.8c0.2,0.4,0.4,0.9,0.7,1.3c-0.4,0.3-0.7,0.5-1.2,0.7C62.3,42.1,62,41.6,61.8,41.2L61.8,41.2z
	 M63.6,40.2c0.3-0.3,0.6-0.7,0.7-1.1c0-0.1,0.1-0.5,0.1-1.1c0.3,0.3,0.7,0.5,1.1,0.7c0,0.5-0.1,0.9-0.1,1c0,0.2-0.1,0.3-0.2,0.5
	C64.6,40.2,64.1,40.2,63.6,40.2L63.6,40.2z M64.5,37.5c-0.1-0.5-0.2-1.1-0.5-1.6c0.3,0,0.6-0.1,0.9-0.2c0.3,0.5,0.4,1,0.5,1.4
	C65.1,37.3,64.7,37.4,64.5,37.5L64.5,37.5z M63.8,35.7c-0.1-0.2-0.3-0.4-0.4-0.6c-0.3-0.4-0.8-0.7-1.3-1c0.2-0.1,0.4-0.3,0.6-0.5
	c0.5,0.3,1,0.7,1.4,1.1C64,35,63.9,35.4,63.8,35.7L63.8,35.7z M61.3,33.5c-0.6-0.4-1.2-0.7-1.8-1.1c0.3-0.1,0.5-0.2,0.8-0.3
	c0.5,0.3,1,0.6,1.5,0.9C61.7,33.2,61.5,33.4,61.3,33.5L61.3,33.5z M58.9,32c-0.5-0.4-1-0.8-1.4-1.4c0.3,0,0.7,0,1-0.2
	c0.2,0.4,0.5,0.7,0.8,1C59.2,31.6,59,31.8,58.9,32L58.9,32z"/>
<linearGradient id="SVGID_17_" gradientUnits="userSpaceOnUse" x1="43.5445" y1="45.8125" x2="53.1992" y2="45.8125">
	<stop  offset="5.494510e-03" style="stop-color:#1F272C"/>
	<stop  offset="1" style="stop-color:#222D35"/>
</linearGradient>
<path class="st21" d="M46.2,46.8c0.3-0.2,0.6-0.3,0.8-0.5c-0.3,1-0.6,1.9-0.9,2.7C46.1,48.3,46.2,47.6,46.2,46.8L46.2,46.8z
	 M50.2,42.9c1-1.6,1.7-3.6,2-6c0.3,0.6,0.7,1.2,1,1.9c-0.7,3.5-2.1,7.9-4.4,11.1C49.5,47.6,50,45.2,50.2,42.9L50.2,42.9z M44.7,54.8
	c-0.5-0.6-0.8-1.3-1-2.1c1.5,0.4,4.7,0,6.4-0.9C48.9,53.3,46.3,54.3,44.7,54.8L44.7,54.8z M43.6,52.1c-0.1-0.4-0.1-0.9-0.1-1.3
	c1.7,0,4.3-0.1,5.9-1.4C47.8,51.6,45,52,43.6,52.1L43.6,52.1z"/>
<path class="st13" d="M31.9,13.9c0.7,0,1.3,0.5,1.3,1.2c0,0.7-0.6,1.2-1.3,1.2c-0.7,0-1.3-0.5-1.3-1.2
	C30.6,14.5,31.2,13.9,31.9,13.9L31.9,13.9z"/>
<linearGradient id="SVGID_18_" gradientUnits="userSpaceOnUse" x1="21.7092" y1="55.4778" x2="28.126" y2="55.4778">
	<stop  offset="0" style="stop-color:#F8E2AA"/>
	<stop  offset="1" style="stop-color:#EFC07B"/>
</linearGradient>
<path class="st22" d="M24.4,52.4c2,0,3.7,1.7,3.7,3.8c0,0.9-0.3,1.7-0.8,2.4c-1.6,0.1-3.3-0.2-4.8-1c-1-1.3-0.9-2.7-0.6-4.2
	C22.6,52.8,23.5,52.4,24.4,52.4L24.4,52.4z"/>
<linearGradient id="SVGID_19_" gradientUnits="userSpaceOnUse" x1="16.6641" y1="51.6113" x2="19.6875" y2="51.6113">
	<stop  offset="0" style="stop-color:#F8E2AA"/>
	<stop  offset="1" style="stop-color:#EFC07B"/>
</linearGradient>
<path class="st23" d="M17.1,49.1c1.4,0,2.6,1.3,2.6,2.9c0,0.8-0.3,1.6-0.8,2.1C16.5,53.6,16.3,51.1,17.1,49.1L17.1,49.1z"/>
<path class="st13" d="M6.6,23.8c0.9,4.5,1.4,8.1,7.5,5.7C9.5,29.8,8.9,26.9,6.6,23.8L6.6,23.8z"/>
</svg>
