<?xml version="1.0" encoding="utf-8"?>
<!-- Generator: Adobe Illustrator 21.0.2, SVG Export Plug-In . SVG Version: 6.00 Build 0)  -->
<svg version="1.1" id="Слой_1" xmlns="http://www.w3.org/2000/svg" xmlns:xlink="http://www.w3.org/1999/xlink" x="0px" y="0px"
	 viewBox="0 0 70 70" style="enable-background:new 0 0 70 70;" xml:space="preserve">
<style type="text/css">
	.st0{fill-rule:evenodd;clip-rule:evenodd;fill:#7F858E;}
	.st1{fill-rule:evenodd;clip-rule:evenodd;fill:url(#SVGID_1_);}
	.st2{fill-rule:evenodd;clip-rule:evenodd;fill:url(#SVGID_2_);}
	.st3{fill-rule:evenodd;clip-rule:evenodd;fill:url(#SVGID_3_);}
	.st4{fill-rule:evenodd;clip-rule:evenodd;fill:url(#SVGID_4_);}
	.st5{fill-rule:evenodd;clip-rule:evenodd;fill:url(#SVGID_5_);}
	.st6{fill-rule:evenodd;clip-rule:evenodd;fill:url(#SVGID_6_);}
	.st7{fill-rule:evenodd;clip-rule:evenodd;fill:url(#SVGID_7_);}
	.st8{fill-rule:evenodd;clip-rule:evenodd;fill:url(#SVGID_8_);}
	.st9{fill-rule:evenodd;clip-rule:evenodd;fill:url(#SVGID_9_);}
	.st10{fill-rule:evenodd;clip-rule:evenodd;fill:#D6DDE8;}
	.st11{fill-rule:evenodd;clip-rule:evenodd;fill:url(#SVGID_10_);}
	.st12{fill-rule:evenodd;clip-rule:evenodd;fill:#64686F;}
	.st13{fill-rule:evenodd;clip-rule:evenodd;fill:url(#SVGID_11_);}
	.st14{fill-rule:evenodd;clip-rule:evenodd;fill:url(#SVGID_12_);}
	.st15{fill-rule:evenodd;clip-rule:evenodd;fill:url(#SVGID_13_);}
	.st16{fill-rule:evenodd;clip-rule:evenodd;fill:url(#SVGID_14_);}
	.st17{fill-rule:evenodd;clip-rule:evenodd;fill:url(#SVGID_15_);}
	.st18{fill-rule:evenodd;clip-rule:evenodd;fill:url(#SVGID_16_);}
	.st19{fill-rule:evenodd;clip-rule:evenodd;fill:#FFFFFF;}
	.st20{fill-rule:evenodd;clip-rule:evenodd;fill:#201600;}
	.st21{fill-rule:evenodd;clip-rule:evenodd;fill:#505258;}
	.st22{fill-rule:evenodd;clip-rule:evenodd;fill:url(#SVGID_17_);}
	.st23{fill-rule:evenodd;clip-rule:evenodd;fill:url(#SVGID_18_);}
	.st24{fill-rule:evenodd;clip-rule:evenodd;fill:#36383C;}
	.st25{fill-rule:evenodd;clip-rule:evenodd;fill:url(#SVGID_19_);}
	.st26{fill-rule:evenodd;clip-rule:evenodd;fill:url(#SVGID_20_);}
	.st27{fill-rule:evenodd;clip-rule:evenodd;fill:url(#SVGID_21_);}
	.st28{fill-rule:evenodd;clip-rule:evenodd;fill:url(#SVGID_22_);}
</style>
<path class="st0" d="M21.9,11.1c1.9-2.6,6.7-2,8.2,0.5c2.5-3,6.7-3.9,10.9-5c-0.3,2.5-0.4,6.7-2.5,9c3.8,0.3,3.4,7.1,3.8,10.4
	c0.3,2,1.5,3.5,2.9,4.3c-0.2,3.3-5.4,4.6-6.5,4.7c0,0.6,0.5,1.2,0.7,1.6c2.4-1.7,8.1-3.4,12.8,0.1c0.3-1.5,1.7-3.5,4-3.6
	c3.2,0,4.7,3.2,5.1,6.7c0.9-0.8,2.9-0.9,3.5,0.1c0.7,1.2,1,3.9,2.5,2.7c-0.4,1.5-2.4,2.7-4,2.8c-1.9,0.1-3.9-1.1-2.8-5.3
	c-0.7-3.6-1.8-5.2-3.4-5.7c-1.5-0.4-3.1,0.1-3.9,2.8c2,1.3,3.9,3.7,4.2,6.2c0.3,2.6,0.8,5,2.3,6.8c4.7,3.2,4.2,10-2.1,10.9
	c-2.3,0.3-4.9-0.2-6.1-1.5c-1.9,1.7-5.9,0.4-6.2-2.1c-0.3,0-0.5-0.2-0.8-0.2c1.2,7.9-11.2,11.7-14.1,4.3c-2.9,0.4-4.8-2.4-4.1-5.2
	c0.5-2.2,3.6-3.4,3.8-5c-2.6-2.2-4.1-6.1-4.6-9.4c-2.1,2.2-5.9,3.4-9.6,3.5c-2,0-4.1-0.2-5.6-0.8c-4-1.5-6.8-6-6.7-10.9
	c0.3-9.9,7.6-15.6,14.7-18.9c-4.6-1.2-3.8-5.8-3.2-9.3C18.5,5.3,21.9,8.1,21.9,11.1L21.9,11.1z"/>
<linearGradient id="SVGID_1_" gradientUnits="userSpaceOnUse" x1="4.4354" y1="39.8796" x2="61.3307" y2="39.8796">
	<stop  offset="0" style="stop-color:#DEECF4"/>
	<stop  offset="1" style="stop-color:#C0CEDC"/>
</linearGradient>
<path class="st1" d="M19.6,15.3c0.1,0.5-0.1,1.2,0.1,1.9c2.4-2.1,6.6,1.1,8.7-1.4c-0.5,1,0.1,1.6-0.2,2.4c1.7,0.5,4,0.9,5.9,0.5
	c2.5,5.8-0.1,16.8,5.8,19.8c1.9-3.8,6.9-3.5,10.2-1.9c3.3,1.6,4.9,4.5,6,7c-0.8,5.5,4.4,7.3,5.2,11.5c1.2,6.8-11.4,5.9-10.9-0.2
	c0.1-1.3,1.8-2.1,1.7-3.9c-1.8,2.1-3.6,5.2-7.8,4.9c-0.4-1.2-0.4-2.8-0.9-3.7c-1.2,1.3,0.2,4.4,0.3,6.3c0.2,4.7-7.7,8.4-11.3,4.3
	c-2.7-3.2,2.2-6.7,1-10.3c-3.4-1.7-6.2-5.4-7-9.4c-0.4-2,0.5-3.4,1.3-5.2c1.1-2.4,2.3-7.4,0.8-9.6c0.7,6.4-2.7,14.6-10.4,15.7
	c0.9-1.1,2.3-3.1,1.8-5.4c0.5,0,0.5,0.5,0.9,0.6c1.6-1.2-2.7-3-3.2-0.5c0.6,0.2,0.9-0.4,1.4-0.2c0.6,1.6,0.1,3.2-1,4.2
	c-1.4,1.3-4.6,1.8-7.2,0.7c-2.9-1.2-5.3-3.8-5.9-7.5c-0.6-3.3,0.2-6.8,1.8-9.8C8.8,21.5,14.7,16.8,19.6,15.3L19.6,15.3z"/>
<linearGradient id="SVGID_2_" gradientUnits="userSpaceOnUse" x1="33.2881" y1="53.4405" x2="38.0332" y2="53.4405">
	<stop  offset="0" style="stop-color:#3B4349"/>
	<stop  offset="1" style="stop-color:#222D35"/>
</linearGradient>
<path class="st2" d="M33.4,54.5c0.1-0.7,0.1-1.4-0.1-2.1c0.7,0.2,3.5,0.8,4.7-0.1C37.3,53.5,34.5,54.8,33.4,54.5L33.4,54.5z"/>
<linearGradient id="SVGID_3_" gradientUnits="userSpaceOnUse" x1="49.0596" y1="43.9493" x2="52.9961" y2="43.9493">
	<stop  offset="0" style="stop-color:#4E5660"/>
	<stop  offset="0.989" style="stop-color:#333E47"/>
</linearGradient>
<path class="st3" d="M49.1,36.1c0.4,0.1,0.7,0.3,1,0.4c1.2,0.6,2.1,1.3,2.9,2.1c-0.1,3-0.5,9.1-3,13.1
	C51.2,46.5,50.3,39.3,49.1,36.1L49.1,36.1z"/>
<linearGradient id="SVGID_4_" gradientUnits="userSpaceOnUse" x1="41.7021" y1="43.6458" x2="47.5573" y2="43.6458">
	<stop  offset="0" style="stop-color:#4E5660"/>
	<stop  offset="0.989" style="stop-color:#333E47"/>
</linearGradient>
<path class="st4" d="M41.7,36.4c1.3-0.8,2.9-1.1,4.5-0.9c0.6,3,2.2,11.6,0.8,16.3C46.8,47.1,43.9,39.2,41.7,36.4L41.7,36.4z"/>
<linearGradient id="SVGID_5_" gradientUnits="userSpaceOnUse" x1="38.0977" y1="44.1875" x2="41.5058" y2="44.1875">
	<stop  offset="0" style="stop-color:#4E5660"/>
	<stop  offset="0.989" style="stop-color:#333E47"/>
</linearGradient>
<path class="st5" d="M38.1,37.1c0.5,0.6,1.1,1.1,1.8,1.4c0.2-0.4,0.4-0.7,0.6-1c0.6,2.1,2.2,8.9-0.7,13.8
	C41.1,46.8,39.1,40.1,38.1,37.1L38.1,37.1z"/>
<linearGradient id="SVGID_6_" gradientUnits="userSpaceOnUse" x1="32.1299" y1="38.6597" x2="37.6523" y2="38.6597">
	<stop  offset="0" style="stop-color:#4E5660"/>
	<stop  offset="0.989" style="stop-color:#333E47"/>
</linearGradient>
<path class="st6" d="M36.2,32.7c0.3,1.4,0.8,2.7,1.5,3.7c0,1-0.5,4.8-5.5,8.1C35.4,41,36.1,36,36.2,32.7L36.2,32.7z"/>
<linearGradient id="SVGID_7_" gradientUnits="userSpaceOnUse" x1="30.3223" y1="31.8242" x2="35.9824" y2="31.8242">
	<stop  offset="0" style="stop-color:#4E5660"/>
	<stop  offset="0.989" style="stop-color:#333E47"/>
</linearGradient>
<path class="st7" d="M35.5,27c0.1,1.6,0.2,3.1,0.5,4.6c-0.6,1.8-2.6,4.4-5.7,5C33.6,34.6,35,30,35.5,27L35.5,27z"/>
<linearGradient id="SVGID_8_" gradientUnits="userSpaceOnUse" x1="29.1348" y1="23.3411" x2="35.3906" y2="23.3411">
	<stop  offset="0" style="stop-color:#4E5660"/>
	<stop  offset="0.989" style="stop-color:#333E47"/>
</linearGradient>
<path class="st8" d="M34.4,19.5c0.6,1.7,0.8,3.8,1,6c-0.7,0.7-2.6,2.2-6.3,1.7C32.2,25.8,33.9,21.8,34.4,19.5L34.4,19.5z"/>
<linearGradient id="SVGID_9_" gradientUnits="userSpaceOnUse" x1="4.4354" y1="32.3944" x2="25.1431" y2="32.3944">
	<stop  offset="0" style="stop-color:#B2C0CE"/>
	<stop  offset="1" style="stop-color:#91A2B1"/>
</linearGradient>
<path class="st9" d="M25.1,39.8C23.4,42,21,43.5,17.9,44c0.9-1.1,2.3-3.1,1.8-5.4c0.5,0,0.5,0.5,0.9,0.6c1.6-1.2-2.7-3-3.2-0.5
	c0.6,0.2,0.9-0.4,1.4-0.2c0.6,1.6,0.1,3.2-1,4.2c-1.4,1.3-4.6,1.8-7.2,0.7c-2.9-1.2-5.3-3.8-5.9-7.5c-0.6-3.3,0.2-6.8,1.8-9.8
	c0.9-1.8,2.4-3.6,4.1-5.2c3-0.3,6.2,0.5,8.8,4C23.1,29.8,25.4,35.3,25.1,39.8L25.1,39.8z"/>
<path class="st10" d="M39.4,9c0.2,2.2-0.6,5.2-2.3,6.7c-1,0.9-4.2,1.8-5.6,1.7c2.6-1,3.6-2.8,4.2-4.7c-2.7-0.6-5.2,1.4-6.4,3.2
	C30,11.4,34.7,8.4,39.4,9L39.4,9z"/>
<linearGradient id="SVGID_10_" gradientUnits="userSpaceOnUse" x1="20.4248" y1="13.2908" x2="29.625" y2="13.2908">
	<stop  offset="0" style="stop-color:#4E5660"/>
	<stop  offset="0.989" style="stop-color:#333E47"/>
</linearGradient>
<path class="st11" d="M29.6,12.5c-0.3,0.8-0.9,1.6-1.1,2.3c-1.9,2.5-5.9-0.5-8.1,1.3c0.1-3.1,1.7-4.7,3.9-5.4
	C26.1,10.2,28.2,10,29.6,12.5L29.6,12.5z"/>
<path class="st12" d="M34.1,13.6c-0.7,1.6-2.2,2.9-4.3,2.9C30.5,15.1,32.4,14.1,34.1,13.6L34.1,13.6z"/>
<linearGradient id="SVGID_11_" gradientUnits="userSpaceOnUse" x1="60.7043" y1="42.172" x2="66.4541" y2="42.172">
	<stop  offset="0" style="stop-color:#CFDBE5"/>
	<stop  offset="1" style="stop-color:#B1BFCE"/>
</linearGradient>
<path class="st13" d="M66.5,43.2c-1.1,0.5-1.8-0.1-1.8-1.8c0-1.4-1.6-2.3-3.4-1c-0.8,1.2-0.7,2.7,0.4,3.7
	C62.9,45.2,65.5,44.3,66.5,43.2L66.5,43.2z"/>
<linearGradient id="SVGID_12_" gradientUnits="userSpaceOnUse" x1="8.4587" y1="35.203" x2="10.8019" y2="35.203">
	<stop  offset="0" style="stop-color:#3B4349"/>
	<stop  offset="1" style="stop-color:#222D35"/>
</linearGradient>
<path class="st14" d="M10.4,33.8c1,0.7,0,3.1-1.1,3c-0.6-0.1-1-1-0.7-1.8C8.8,34.1,9.7,33.3,10.4,33.8L10.4,33.8z"/>
<linearGradient id="SVGID_13_" gradientUnits="userSpaceOnUse" x1="5.5894" y1="34.7177" x2="7.3908" y2="34.7177">
	<stop  offset="0" style="stop-color:#3B4349"/>
	<stop  offset="1" style="stop-color:#222D35"/>
</linearGradient>
<path class="st15" d="M6.4,33.2c1.5-0.3,1.1,2.8,0.3,3.1C5.2,36.7,5.3,33.4,6.4,33.2L6.4,33.2z"/>
<linearGradient id="SVGID_14_" gradientUnits="userSpaceOnUse" x1="27.0232" y1="55.9546" x2="31.9053" y2="55.9546">
	<stop  offset="0" style="stop-color:#AABAC8"/>
	<stop  offset="1" style="stop-color:#91A2B1"/>
</linearGradient>
<path class="st16" d="M30.5,51.8c0.5,0.2,0.9,0.7,1.4,0.9c-0.4,3-1.6,5.1-2.8,7.4c-2.2-0.5-2.3-2.6-1.9-3.7
	C27.8,54.6,29.9,53.7,30.5,51.8L30.5,51.8z"/>
<linearGradient id="SVGID_15_" gradientUnits="userSpaceOnUse" x1="46.4258" y1="57.2225" x2="50.5303" y2="57.2225">
	<stop  offset="0" style="stop-color:#AABAC8"/>
	<stop  offset="1" style="stop-color:#91A2B1"/>
</linearGradient>
<path class="st17" d="M49.5,55.7c-0.1,1.2,0.5,2.4,1.1,2.9c-1.5,0.5-3.4-0.1-4.1-1.3C47.6,56.9,48.8,56.5,49.5,55.7L49.5,55.7z"/>
<path class="st10" d="M15.7,6.7c3.6,0.6,6.9,4.2,4.3,7.4C16.2,14.2,14.5,9.8,15.7,6.7L15.7,6.7z"/>
<linearGradient id="SVGID_16_" gradientUnits="userSpaceOnUse" x1="36.2383" y1="25.5495" x2="44.0645" y2="25.5495">
	<stop  offset="0" style="stop-color:#4E5660"/>
	<stop  offset="0.989" style="stop-color:#333E47"/>
</linearGradient>
<path class="st18" d="M44.1,30.9c-0.6,1.7-3.2,3.1-5.5,3.1c-2.4-4.8-1-11.5-2.3-16.2c1-0.8,3.3-1.2,3.9,0.3
	C41.3,21.1,40.7,29.3,44.1,30.9L44.1,30.9z"/>
<path class="st19" d="M44.7,39.9c0.7,0,1.3,0.6,1.3,1.3c0,0.7-0.6,1.3-1.3,1.3s-1.3-0.6-1.3-1.3C43.4,40.5,44,39.9,44.7,39.9
	L44.7,39.9z"/>
<path class="st19" d="M45.9,46.4c0.6,0,1.2,0.5,1.2,1.2c0,0.6-0.5,1.2-1.2,1.2c-0.6,0-1.2-0.5-1.2-1.2
	C44.8,46.9,45.3,46.4,45.9,46.4L45.9,46.4z"/>
<path class="st19" d="M47.9,42.4c0.4,0,0.8,0.3,0.8,0.8c0,0.4-0.3,0.8-0.8,0.8c-0.4,0-0.8-0.3-0.8-0.8
	C47.1,42.8,47.4,42.4,47.9,42.4L47.9,42.4z"/>
<path class="st19" d="M17.3,33.2c0.4,0.1,0.7,0.5,0.6,0.9c-0.1,0.4-0.5,0.7-0.9,0.6c-0.4-0.1-0.7-0.5-0.6-0.9
	C16.5,33.3,16.9,33.1,17.3,33.2L17.3,33.2z"/>
<path class="st19" d="M17.6,29.4c0.5,0.1,0.8,0.6,0.7,1.2c-0.1,0.5-0.6,0.8-1.2,0.7c-0.5-0.1-0.8-0.6-0.7-1.2
	C16.6,29.6,17.1,29.3,17.6,29.4L17.6,29.4z"/>
<path class="st19" d="M20,32.7c0.2,0.1,0.4,0.3,0.3,0.5c-0.1,0.2-0.3,0.4-0.5,0.3c-0.2-0.1-0.4-0.3-0.3-0.5
	C19.5,32.8,19.8,32.7,20,32.7L20,32.7z"/>
<path class="st20" d="M18.2,24.2c-0.4-1.1-2.1-2.7-4.2-2.8c0.4-1,1-2.2,2-2.2c1,0,1.4,1,0.9,2.1c0.3-0.4,1-1.3,2-1.5
	c0.9-0.2,2.1,0.2,2,1.3C20.8,22.1,19.4,23.6,18.2,24.2L18.2,24.2z"/>
<path class="st19" d="M19.4,20.1c1.8-0.1,1.2,1.7,0.2,2.5C20.3,21.5,20.7,20.6,19.4,20.1L19.4,20.1z"/>
<path class="st21" d="M18.2,20.4c-0.4,0.3-1.2,0.9-1.5,1.7c0.5,0,1.5,1.5,1.4,1.6c0.1-0.7-0.5-1.3-0.5-1.9
	C17.6,21.3,17.9,20.9,18.2,20.4L18.2,20.4z"/>
<path class="st21" d="M15.3,19.7c-0.4,0.2-0.8,1-1,1.6c0.3,0,1.4,0.3,1.3,0.3c-0.3-0.4-0.7-0.3-0.7-0.8C15,20.4,15.1,20,15.3,19.7
	L15.3,19.7z"/>
<path class="st19" d="M19.6,20.8c0.3,0.1,0.3,0.4,0.2,0.7c-0.1,0.3-0.4,0.4-0.7,0.3c-0.3-0.1-0.3-0.4-0.2-0.7
	C19,20.8,19.3,20.6,19.6,20.8L19.6,20.8z"/>
<path class="st19" d="M16.4,19.9c0.2,0.1,0.2,0.3,0.1,0.5c-0.1,0.2-0.3,0.3-0.5,0.2c-0.2-0.1-0.2-0.3-0.2-0.5
	C16,19.9,16.2,19.8,16.4,19.9L16.4,19.9z"/>
<path class="st19" d="M8.5,42.2c-7-7.9-0.3-17.4,3.6-20.8c5-4.5,9.3-5.6,16-2.5c-0.6-0.8-1.2-1.4-1.9-2c-2.2,0.1-4.8-1.1-6.5,0.4
	c-0.2-0.8,0-1.4-0.1-1.9c-4.9,1.5-10.8,6.3-13.2,10.8c-1.6,3-2.4,6.5-1.8,9.8C5.1,38.6,6.5,40.8,8.5,42.2
	C8.4,42.2,8.5,42.2,8.5,42.2L8.5,42.2z"/>
<linearGradient id="SVGID_17_" gradientUnits="userSpaceOnUse" x1="43.7402" y1="48.4211" x2="61.3307" y2="48.4211">
	<stop  offset="0" style="stop-color:#AABAC8"/>
	<stop  offset="1" style="stop-color:#91A2B1"/>
</linearGradient>
<path class="st22" d="M51.1,37.1c2.6,9.8-5.3,13.3-7.3,16.8c0.1,0.6,0.2,1.3,0.4,1.9c4.3,0.4,6-2.8,7.8-4.9c0.2,1.8-1.6,2.6-1.7,3.9
	c-0.5,6.1,12.1,6.9,10.9,0.2c-0.7-4.2-5.9-6-5.2-11.5C55.1,41.3,53.7,38.7,51.1,37.1L51.1,37.1z"/>
<linearGradient id="SVGID_18_" gradientUnits="userSpaceOnUse" x1="53.248" y1="45.2808" x2="56.1602" y2="45.2808">
	<stop  offset="0" style="stop-color:#3B4349"/>
	<stop  offset="1" style="stop-color:#222D35"/>
</linearGradient>
<path class="st23" d="M56.2,46c-0.2-0.8-0.2-1.6-0.1-2.5c-0.3-0.7-0.6-1.3-1-2c0.1,1.7-0.1,4.7-1.9,7.5C54.5,48.6,55.5,47.4,56.2,46
	L56.2,46z"/>
<path class="st24" d="M47.4,49.8c-0.2,0.2-0.4,0.4-0.5,0.5c0.1,0.5,0.1,1,0.1,1.4C47.2,51.2,47.3,50.6,47.4,49.8L47.4,49.8z"/>
<linearGradient id="SVGID_19_" gradientUnits="userSpaceOnUse" x1="49.9941" y1="44.4239" x2="52.9961" y2="44.4239">
	<stop  offset="0" style="stop-color:#3B4349"/>
	<stop  offset="1" style="stop-color:#222D35"/>
</linearGradient>
<path class="st25" d="M51.1,37.1c0.9,3.5,0.5,6.2-0.5,8.3c0,2.2-0.1,4.4-0.6,6.3c2.5-4,2.9-10.2,3-13.1
	C52.4,38.1,51.8,37.5,51.1,37.1L51.1,37.1z"/>
<linearGradient id="SVGID_20_" gradientUnits="userSpaceOnUse" x1="51.1377" y1="52.5847" x2="56.4033" y2="52.5847">
	<stop  offset="0" style="stop-color:#3B4349"/>
	<stop  offset="1" style="stop-color:#222D35"/>
</linearGradient>
<path class="st26" d="M52,51.4c0,0.8-0.4,1.4-0.8,1.9c0,0,0,0,0.1,0.1c0.9,0.8,4,0.6,5.2-0.2C54.8,53.5,52.6,51.8,52,51.4L52,51.4z"
	/>
<path class="st19" d="M34.8,56.9c2.3,0,4.1,2,4.1,4.5c0,1.1-0.4,2.1-1,2.9c-2,0.4-4.2,0.1-5.6-1.6c-1.2-1.4-0.9-3-0.3-4.5
	C32.8,57.4,33.7,56.9,34.8,56.9L34.8,56.9z"/>
<path class="st19" d="M28.4,54.6c0.9,0.6,1.5,1.8,1.5,3.1c0,0.4-0.1,0.7-0.2,1.1c-0.2,0.4-0.5,0.9-0.7,1.3l0,0.1
	c-2.2-0.5-2.2-2.6-1.9-3.7C27.4,55.7,27.9,55.1,28.4,54.6L28.4,54.6z"/>
<path class="st21" d="M18.2,43.8c6.9-2.9,8.8-7.3,10.3-14.2c0.2,6.1-3.2,13.3-10.4,14.4L18.2,43.8L18.2,43.8z"/>
<linearGradient id="SVGID_21_" gradientUnits="userSpaceOnUse" x1="25.0566" y1="18.6314" x2="29.6445" y2="18.6314">
	<stop  offset="0" style="stop-color:#4E5660"/>
	<stop  offset="0.989" style="stop-color:#333E47"/>
</linearGradient>
<path class="st27" d="M27.3,16.6c0.4-0.2,0.8-0.4,1.1-0.8c-0.5,1,0.1,1.6-0.2,2.4c0.5,0.1,0.9,0.3,1.5,0.4c-0.9,0.4-3.2,1.5-4.6,2.8
	C25.3,19.8,26,18,27.3,16.6L27.3,16.6z"/>
<linearGradient id="SVGID_22_" gradientUnits="userSpaceOnUse" x1="18.1176" y1="17.2305" x2="24.2051" y2="17.2305">
	<stop  offset="0" style="stop-color:#4E5660"/>
	<stop  offset="0.989" style="stop-color:#333E47"/>
</linearGradient>
<path class="st28" d="M19.6,15.3c0.1,0.5-0.1,1.2,0.1,1.9c1.2-1.1,2.9-0.8,4.5-0.5c-1.8,0.5-4.2,1.2-6.1,2.5
	c-0.1-0.8,0.4-2.4,1.3-3.9C19.5,15.3,19.5,15.3,19.6,15.3L19.6,15.3z"/>
</svg>
