<?xml version="1.0" encoding="utf-8"?>
<!-- Generator: Adobe Illustrator 21.0.2, SVG Export Plug-In . SVG Version: 6.00 Build 0)  -->
<svg version="1.1" id="Слой_1" xmlns="http://www.w3.org/2000/svg" xmlns:xlink="http://www.w3.org/1999/xlink" x="0px" y="0px"
	 viewBox="0 0 54 44" style="enable-background:new 0 0 54 44;" xml:space="preserve">
<style type="text/css">
	.st0{fill:url(#SVGID_1_);}
	.st1{fill:url(#SVGID_2_);}
	.st2{fill:url(#SVGID_3_);}
	.st3{fill:url(#SVGID_4_);}
	.st4{fill:url(#SVGID_5_);}
	.st5{fill:#FFFFAD;}
	.st6{fill:url(#SVGID_6_);}
	.st7{fill:url(#SVGID_7_);}
	.st8{fill:url(#SVGID_8_);}
	.st9{fill:url(#SVGID_9_);}
	.st10{fill:url(#SVGID_10_);}
	.st11{fill:url(#SVGID_11_);}
	.st12{fill:url(#SVGID_12_);}
	.st13{fill:url(#SVGID_13_);}
	.st14{fill:#FFFFFF;}
	.st15{fill:url(#SVGID_14_);}
</style>
<g>
	
		<radialGradient id="SVGID_1_" cx="-104.8669" cy="4110.4912" r="47.8699" gradientTransform="matrix(0.5333 0 0 0.6687 84.0491 -2706.0583)" gradientUnits="userSpaceOnUse">
		<stop  offset="0" style="stop-color:#4E8AC6"/>
		<stop  offset="1" style="stop-color:#233DEB"/>
	</radialGradient>
	<path class="st0" d="M1.6,37.2c1.8,7.1,45.8,9.1,49.6,1.7c3.4-6.7,2-30.7-0.9-35.5C46.4-3.1,7.3,1.5,4,6.6
		C1,11.4-0.2,29.9,1.6,37.2z"/>
	<linearGradient id="SVGID_2_" gradientUnits="userSpaceOnUse" x1="26.9918" y1="41.3165" x2="26.9918" y2="0.6278">
		<stop  offset="0" style="stop-color:#B7FFF0"/>
		<stop  offset="1" style="stop-color:#5596FB"/>
	</linearGradient>
	<path class="st1" d="M1.8,36c1.8,6.8,45.6,7.3,49.3,0.2c3.4-6.5,2.1-27.8-0.8-32.5c-4-6.3-42.9-1.9-46.1,3.1
		C1.1,11.4-0.1,28.9,1.8,36z"/>
	<linearGradient id="SVGID_3_" gradientUnits="userSpaceOnUse" x1="26.9918" y1="40.553" x2="26.9918" y2="1.0677">
		<stop  offset="0" style="stop-color:#86EDEF"/>
		<stop  offset="1" style="stop-color:#5596FB"/>
	</linearGradient>
	<path class="st2" d="M2.3,35.4c1.8,6.6,44.6,7.1,48.2,0.2c3.3-6.3,2-27-0.8-31.5c-3.9-6.1-42-1.8-45.1,3
		C1.7,11.5,0.5,28.5,2.3,35.4z"/>
	
		<linearGradient id="SVGID_4_" gradientUnits="userSpaceOnUse" x1="32.2484" y1="35.6696" x2="77.3483" y2="35.6696" gradientTransform="matrix(-1 0 0 1 81.9346 0)">
		<stop  offset="5.586590e-03" style="stop-color:#97FF80"/>
		<stop  offset="0.1023" style="stop-color:#8DEF78"/>
		<stop  offset="0.2916" style="stop-color:#75C563"/>
		<stop  offset="0.5552" style="stop-color:#4C8141"/>
		<stop  offset="0.8797" style="stop-color:#152412"/>
		<stop  offset="1" style="stop-color:#000000"/>
	</linearGradient>
	<path class="st3" d="M49.7,35.7c0,0-20,6.6-45.1,0.8c0,0,16.3,2.7,23.6,0C40.5,32,46.4,30.6,49.7,35.7z"/>
	<g>
		<g>
			
				<radialGradient id="SVGID_5_" cx="457.3772" cy="-457.7983" r="1.2755" gradientTransform="matrix(-5.960000e-02 -0.9982 0.9982 -5.960000e-02 500.6435 443.3783)" gradientUnits="userSpaceOnUse">
				<stop  offset="0" style="stop-color:#64B05F"/>
				<stop  offset="0.1176" style="stop-color:#52914E"/>
				<stop  offset="0.3349" style="stop-color:#355E33"/>
				<stop  offset="0.5391" style="stop-color:#1E351D"/>
				<stop  offset="0.7242" style="stop-color:#0E180D"/>
				<stop  offset="0.8839" style="stop-color:#040603"/>
				<stop  offset="1" style="stop-color:#000000"/>
			</radialGradient>
			<circle class="st4" cx="16.4" cy="14.1" r="1.3"/>
			
				<ellipse transform="matrix(0.9982 -5.960169e-02 5.960169e-02 0.9982 -0.8112 1.009)" class="st5" cx="16.5" cy="14.1" rx="0.4" ry="0.4"/>
		</g>
		<g>
			
				<radialGradient id="SVGID_6_" cx="462.7397" cy="-455.7423" r="1.2755" gradientTransform="matrix(-5.960000e-02 -0.9982 0.9982 -5.960000e-02 500.6435 443.3783)" gradientUnits="userSpaceOnUse">
				<stop  offset="0" style="stop-color:#64B05F"/>
				<stop  offset="0.1176" style="stop-color:#52914E"/>
				<stop  offset="0.3349" style="stop-color:#355E33"/>
				<stop  offset="0.5391" style="stop-color:#1E351D"/>
				<stop  offset="0.7242" style="stop-color:#0E180D"/>
				<stop  offset="0.8839" style="stop-color:#040603"/>
				<stop  offset="1" style="stop-color:#000000"/>
			</radialGradient>
			<circle class="st6" cx="18.1" cy="8.6" r="1.3"/>
			
				<ellipse transform="matrix(0.9982 -5.974276e-02 5.974276e-02 0.9982 -0.4829 1.1052)" class="st5" cx="18.2" cy="8.6" rx="0.4" ry="0.4"/>
		</g>
		<g>
			
				<radialGradient id="SVGID_7_" cx="447.1187" cy="-457.699" r="1.2755" gradientTransform="matrix(-5.960000e-02 -0.9982 0.9982 -5.960000e-02 500.6435 443.3783)" gradientUnits="userSpaceOnUse">
				<stop  offset="0" style="stop-color:#64B05F"/>
				<stop  offset="0.1176" style="stop-color:#52914E"/>
				<stop  offset="0.3349" style="stop-color:#355E33"/>
				<stop  offset="0.5391" style="stop-color:#1E351D"/>
				<stop  offset="0.7242" style="stop-color:#0E180D"/>
				<stop  offset="0.8839" style="stop-color:#040603"/>
				<stop  offset="1" style="stop-color:#000000"/>
			</radialGradient>
			<circle class="st7" cx="17.1" cy="24.3" r="1.3"/>
			
				<ellipse transform="matrix(0.9982 -5.977435e-02 5.977435e-02 0.9982 -1.424 1.0728)" class="st5" cx="17.2" cy="24.3" rx="0.4" ry="0.4"/>
		</g>
		<g>
			
				<radialGradient id="SVGID_8_" cx="463.6617" cy="-462.5883" r="3.5692" gradientTransform="matrix(-5.960000e-02 -0.9982 0.9982 -5.960000e-02 500.6435 443.3783)" gradientUnits="userSpaceOnUse">
				<stop  offset="0" style="stop-color:#64B05F"/>
				<stop  offset="0.1176" style="stop-color:#52914E"/>
				<stop  offset="0.3349" style="stop-color:#355E33"/>
				<stop  offset="0.5391" style="stop-color:#1E351D"/>
				<stop  offset="0.7242" style="stop-color:#0E180D"/>
				<stop  offset="0.8839" style="stop-color:#040603"/>
				<stop  offset="1" style="stop-color:#000000"/>
			</radialGradient>
			<circle class="st8" cx="11.3" cy="8.1" r="3.6"/>
			
				<ellipse transform="matrix(0.9982 -5.965031e-02 5.965031e-02 0.9982 -0.4629 0.7022)" class="st5" cx="11.5" cy="8.1" rx="1" ry="1"/>
		</g>
		<g>
			
				<radialGradient id="SVGID_9_" cx="437.7216" cy="-454.0485" r="1.7047" gradientTransform="matrix(-5.960000e-02 -0.9982 0.9982 -5.960000e-02 500.6435 443.3783)" gradientUnits="userSpaceOnUse">
				<stop  offset="0" style="stop-color:#64B05F"/>
				<stop  offset="0.1176" style="stop-color:#52914E"/>
				<stop  offset="0.3349" style="stop-color:#355E33"/>
				<stop  offset="0.5391" style="stop-color:#1E351D"/>
				<stop  offset="0.7242" style="stop-color:#0E180D"/>
				<stop  offset="0.8839" style="stop-color:#040603"/>
				<stop  offset="1" style="stop-color:#000000"/>
			</radialGradient>
			<circle class="st9" cx="21.3" cy="33.5" r="1.7"/>
			
				<ellipse transform="matrix(0.9982 -5.962364e-02 5.962364e-02 0.9982 -1.9591 1.3389)" class="st5" cx="21.5" cy="33.5" rx="0.5" ry="0.5"/>
		</g>
		<g>
			
				<radialGradient id="SVGID_10_" cx="434.9833" cy="-469.4257" r="0.8524" gradientTransform="matrix(-5.960000e-02 -0.9982 0.9982 -5.960000e-02 500.6435 443.3783)" gradientUnits="userSpaceOnUse">
				<stop  offset="0" style="stop-color:#64B05F"/>
				<stop  offset="0.1176" style="stop-color:#52914E"/>
				<stop  offset="0.3349" style="stop-color:#355E33"/>
				<stop  offset="0.5391" style="stop-color:#1E351D"/>
				<stop  offset="0.7242" style="stop-color:#0E180D"/>
				<stop  offset="0.8839" style="stop-color:#040603"/>
				<stop  offset="1" style="stop-color:#000000"/>
			</radialGradient>
			<circle class="st10" cx="6.1" cy="37.2" r="0.9"/>
			
				<ellipse transform="matrix(0.9982 -5.975294e-02 5.975294e-02 0.9982 -2.2088 0.4371)" class="st5" cx="6.2" cy="37.2" rx="0.2" ry="0.2"/>
		</g>
		<g>
			
				<radialGradient id="SVGID_11_" cx="448.1617" cy="-444.646" r="0.8524" gradientTransform="matrix(-5.960000e-02 -0.9982 0.9982 -5.960000e-02 500.6435 443.3783)" gradientUnits="userSpaceOnUse">
				<stop  offset="0" style="stop-color:#64B05F"/>
				<stop  offset="0.1176" style="stop-color:#52914E"/>
				<stop  offset="0.3349" style="stop-color:#355E33"/>
				<stop  offset="0.5391" style="stop-color:#1E351D"/>
				<stop  offset="0.7242" style="stop-color:#0E180D"/>
				<stop  offset="0.8839" style="stop-color:#040603"/>
				<stop  offset="1" style="stop-color:#000000"/>
			</radialGradient>
			<circle class="st11" cx="30.1" cy="22.5" r="0.9"/>
			
				<ellipse transform="matrix(0.9982 -5.952922e-02 5.952922e-02 0.9982 -1.2871 1.8349)" class="st5" cx="30.2" cy="22.5" rx="0.2" ry="0.2"/>
		</g>
		<g>
			
				<radialGradient id="SVGID_12_" cx="435.7304" cy="-457.2465" r="0.6355" gradientTransform="matrix(-5.960000e-02 -0.9982 0.9982 -5.960000e-02 500.6435 443.3783)" gradientUnits="userSpaceOnUse">
				<stop  offset="0" style="stop-color:#64B05F"/>
				<stop  offset="0.1176" style="stop-color:#52914E"/>
				<stop  offset="0.3349" style="stop-color:#355E33"/>
				<stop  offset="0.5391" style="stop-color:#1E351D"/>
				<stop  offset="0.7242" style="stop-color:#0E180D"/>
				<stop  offset="0.8839" style="stop-color:#040603"/>
				<stop  offset="1" style="stop-color:#000000"/>
			</radialGradient>
			<circle class="st12" cx="18.3" cy="35.7" r="0.6"/>
			
				<ellipse transform="matrix(0.9982 -5.967145e-02 5.967145e-02 0.9982 -2.0965 1.1556)" class="st5" cx="18.3" cy="35.7" rx="0.2" ry="0.2"/>
		</g>
		<g>
			
				<radialGradient id="SVGID_13_" cx="434.9668" cy="-447.3596" r="1.3314" gradientTransform="matrix(-5.960000e-02 -0.9982 0.9982 -5.960000e-02 500.6435 443.3783)" gradientUnits="userSpaceOnUse">
				<stop  offset="0" style="stop-color:#64B05F"/>
				<stop  offset="0.1176" style="stop-color:#52914E"/>
				<stop  offset="0.3349" style="stop-color:#355E33"/>
				<stop  offset="0.5391" style="stop-color:#1E351D"/>
				<stop  offset="0.7242" style="stop-color:#0E180D"/>
				<stop  offset="0.8839" style="stop-color:#040603"/>
				<stop  offset="1" style="stop-color:#000000"/>
			</radialGradient>
			<circle class="st13" cx="28.2" cy="35.9" r="1.3"/>
			
				<ellipse transform="matrix(0.9982 -5.967606e-02 5.967606e-02 0.9982 -2.0891 1.7508)" class="st5" cx="28.3" cy="35.9" rx="0.4" ry="0.4"/>
		</g>
	</g>
	<path class="st14" d="M48.5,37c-0.2-0.8,1.8-4.2,2.3-4.2c0.5,0,0.1,2.3-0.3,2.8C50.2,36.1,48.6,37.4,48.5,37z"/>
	<linearGradient id="SVGID_14_" gradientUnits="userSpaceOnUse" x1="5.2421" y1="9.9144" x2="51.819" y2="9.9144">
		<stop  offset="0" style="stop-color:#99CF4F"/>
		<stop  offset="0.1159" style="stop-color:#8DBF49"/>
		<stop  offset="0.3427" style="stop-color:#6E9539"/>
		<stop  offset="0.6583" style="stop-color:#3C511F"/>
		<stop  offset="1" style="stop-color:#000000"/>
	</linearGradient>
	<path class="st15" d="M5.2,6.9c0,0,29.1-11.2,44.6-2.8c0,0,1.4,3.2,2,8.2c0,0-4.9,5.7-14.2,6.3c-8,0.5-15.7-9.6-22.5-10.9
		C8.5,6.6,5.2,6.9,5.2,6.9z"/>
	<path class="st14" d="M4.7,9c-0.6,0.1-2,4.4-1.9,5.1c0.1,0.7,1.8-1.5,2-2.7C5.1,10.2,4.7,9,4.7,9z"/>
	<path class="st14" d="M4.9,8.3C4.2,8,5.4,6.2,6.5,5.7c1-0.5,3.6-1,3.9-0.5C10.6,5.7,5.7,8.6,4.9,8.3z"/>
</g>
</svg>
