<?xml version="1.0" encoding="utf-8"?>
<!-- Generator: Adobe Illustrator 21.0.2, SVG Export Plug-In . SVG Version: 6.00 Build 0)  -->
<svg version="1.1" id="Слой_1" xmlns="http://www.w3.org/2000/svg" xmlns:xlink="http://www.w3.org/1999/xlink" x="0px" y="0px"
	 viewBox="0 0 54 44" style="enable-background:new 0 0 54 44;" xml:space="preserve">
<style type="text/css">
	.st0{fill:url(#SVGID_1_);}
	.st1{fill:url(#SVGID_2_);}
	.st2{fill:url(#SVGID_3_);}
	.st3{fill:url(#SVGID_4_);}
	.st4{fill:url(#SVGID_5_);}
	.st5{fill:#FFFFAD;}
	.st6{fill:url(#SVGID_6_);}
	.st7{fill:url(#SVGID_7_);}
	.st8{fill:url(#SVGID_8_);}
	.st9{fill:url(#SVGID_9_);}
	.st10{fill:url(#SVGID_10_);}
	.st11{fill:url(#SVGID_11_);}
	.st12{fill:url(#SVGID_12_);}
	.st13{fill:url(#SVGID_13_);}
	.st14{display:none;}
	.st15{display:inline;fill:#DD5313;}
	.st16{fill:#FFFFFF;}
	.st17{fill:url(#SVGID_14_);}
</style>
<g>
	
		<radialGradient id="SVGID_1_" cx="-105.5082" cy="40.5338" r="38.1084" gradientTransform="matrix(0.5333 0 0 1 84.0491 0)" gradientUnits="userSpaceOnUse">
		<stop  offset="0" style="stop-color:#EDBB2C"/>
		<stop  offset="1" style="stop-color:#E17635"/>
	</radialGradient>
	<path class="st0" d="M1.6,37.2c1.8,7.1,45.8,9.1,49.6,1.7c3.4-6.7,2.1-27.8-0.9-32.6c-4-6.5-43.6-8.1-46.8-3
		C0.5,8.1-0.2,29.9,1.6,37.2z"/>
	<linearGradient id="SVGID_2_" gradientUnits="userSpaceOnUse" x1="26.9293" y1="41.3129" x2="26.9293" y2="0.6818">
		<stop  offset="0" style="stop-color:#FBF239"/>
		<stop  offset="1" style="stop-color:#E69523"/>
	</linearGradient>
	<path class="st1" d="M1.8,36c1.8,6.8,45.6,7.3,49.3,0.2c3.4-6.5,2.1-24.9-0.8-29.5c-4-6.3-43.4-8.1-46.6-3.1
		C0.6,8.1-0.1,28.9,1.8,36z"/>
	<linearGradient id="SVGID_3_" gradientUnits="userSpaceOnUse" x1="26.9291" y1="40.5494" x2="26.9291" y2="1.0849">
		<stop  offset="0" style="stop-color:#F0CA30"/>
		<stop  offset="1" style="stop-color:#E69523"/>
	</linearGradient>
	<path class="st2" d="M2.3,35.4c1.8,6.6,44.6,7.1,48.2,0.2c3.3-6.3,2-24.1-0.8-28.6C45.9,0.9,7.3-1,4.1,3.8
		C1.2,8.3,0.5,28.5,2.3,35.4z"/>
	
		<linearGradient id="SVGID_4_" gradientUnits="userSpaceOnUse" x1="32.2484" y1="35.666" x2="77.3483" y2="35.666" gradientTransform="matrix(-1 0 0 1 81.9346 0)">
		<stop  offset="0" style="stop-color:#DF6144"/>
		<stop  offset="0.1089" style="stop-color:#CF5A3F"/>
		<stop  offset="0.322" style="stop-color:#A54832"/>
		<stop  offset="0.6185" style="stop-color:#612A1E"/>
		<stop  offset="0.9841" style="stop-color:#040201"/>
		<stop  offset="1" style="stop-color:#000000"/>
	</linearGradient>
	<path class="st3" d="M49.7,35.7c0,0-20,6.6-45.1,0.8c0,0,16.3,2.7,23.6,0C40.5,32,46.4,30.6,49.7,35.7z"/>
	<g>
		<g>
			
				<radialGradient id="SVGID_5_" cx="457.3807" cy="-457.7981" r="1.2755" gradientTransform="matrix(-5.960000e-02 -0.9982 0.9982 -5.960000e-02 500.6435 443.3783)" gradientUnits="userSpaceOnUse">
				<stop  offset="0" style="stop-color:#64B05F"/>
				<stop  offset="0.1176" style="stop-color:#52914E"/>
				<stop  offset="0.3349" style="stop-color:#355E33"/>
				<stop  offset="0.5391" style="stop-color:#1E351D"/>
				<stop  offset="0.7242" style="stop-color:#0E180D"/>
				<stop  offset="0.8839" style="stop-color:#040603"/>
				<stop  offset="1" style="stop-color:#000000"/>
			</radialGradient>
			<circle class="st4" cx="16.4" cy="14.1" r="1.3"/>
			
				<ellipse transform="matrix(0.9982 -5.960169e-02 5.960169e-02 0.9982 -0.811 1.009)" class="st5" cx="16.5" cy="14.1" rx="0.4" ry="0.4"/>
		</g>
		<g>
			
				<radialGradient id="SVGID_6_" cx="462.7433" cy="-455.7421" r="1.2755" gradientTransform="matrix(-5.960000e-02 -0.9982 0.9982 -5.960000e-02 500.6435 443.3783)" gradientUnits="userSpaceOnUse">
				<stop  offset="0" style="stop-color:#64B05F"/>
				<stop  offset="0.1176" style="stop-color:#52914E"/>
				<stop  offset="0.3349" style="stop-color:#355E33"/>
				<stop  offset="0.5391" style="stop-color:#1E351D"/>
				<stop  offset="0.7242" style="stop-color:#0E180D"/>
				<stop  offset="0.8839" style="stop-color:#040603"/>
				<stop  offset="1" style="stop-color:#000000"/>
			</radialGradient>
			<circle class="st6" cx="18.1" cy="8.6" r="1.3"/>
			
				<ellipse transform="matrix(0.9982 -5.975121e-02 5.975121e-02 0.9982 -0.4827 1.1053)" class="st5" cx="18.2" cy="8.6" rx="0.4" ry="0.4"/>
		</g>
		<g>
			
				<radialGradient id="SVGID_7_" cx="447.1223" cy="-457.6988" r="1.2755" gradientTransform="matrix(-5.960000e-02 -0.9982 0.9982 -5.960000e-02 500.6435 443.3783)" gradientUnits="userSpaceOnUse">
				<stop  offset="0" style="stop-color:#64B05F"/>
				<stop  offset="0.1176" style="stop-color:#52914E"/>
				<stop  offset="0.3349" style="stop-color:#355E33"/>
				<stop  offset="0.5391" style="stop-color:#1E351D"/>
				<stop  offset="0.7242" style="stop-color:#0E180D"/>
				<stop  offset="0.8839" style="stop-color:#040603"/>
				<stop  offset="1" style="stop-color:#000000"/>
			</radialGradient>
			<circle class="st7" cx="17.1" cy="24.3" r="1.3"/>
			
				<ellipse transform="matrix(0.9982 -5.976590e-02 5.976590e-02 0.9982 -1.4235 1.0726)" class="st5" cx="17.2" cy="24.3" rx="0.4" ry="0.4"/>
		</g>
		<g>
			
				<radialGradient id="SVGID_8_" cx="463.6653" cy="-462.588" r="3.5692" gradientTransform="matrix(-5.960000e-02 -0.9982 0.9982 -5.960000e-02 500.6435 443.3783)" gradientUnits="userSpaceOnUse">
				<stop  offset="0" style="stop-color:#64B05F"/>
				<stop  offset="0.1176" style="stop-color:#52914E"/>
				<stop  offset="0.3349" style="stop-color:#355E33"/>
				<stop  offset="0.5391" style="stop-color:#1E351D"/>
				<stop  offset="0.7242" style="stop-color:#0E180D"/>
				<stop  offset="0.8839" style="stop-color:#040603"/>
				<stop  offset="1" style="stop-color:#000000"/>
			</radialGradient>
			<circle class="st8" cx="11.3" cy="8.1" r="3.6"/>
			
				<ellipse transform="matrix(0.9982 -5.965031e-02 5.965031e-02 0.9982 -0.4627 0.7022)" class="st5" cx="11.5" cy="8.1" rx="1" ry="1"/>
		</g>
		<g>
			
				<radialGradient id="SVGID_9_" cx="437.7253" cy="-454.0483" r="1.7047" gradientTransform="matrix(-5.960000e-02 -0.9982 0.9982 -5.960000e-02 500.6435 443.3783)" gradientUnits="userSpaceOnUse">
				<stop  offset="0" style="stop-color:#64B05F"/>
				<stop  offset="0.1176" style="stop-color:#52914E"/>
				<stop  offset="0.3349" style="stop-color:#355E33"/>
				<stop  offset="0.5391" style="stop-color:#1E351D"/>
				<stop  offset="0.7242" style="stop-color:#0E180D"/>
				<stop  offset="0.8839" style="stop-color:#040603"/>
				<stop  offset="1" style="stop-color:#000000"/>
			</radialGradient>
			<circle class="st9" cx="21.3" cy="33.5" r="1.7"/>
			
				<ellipse transform="matrix(0.9982 -5.961734e-02 5.961734e-02 0.9982 -1.9587 1.3387)" class="st5" cx="21.5" cy="33.5" rx="0.5" ry="0.5"/>
		</g>
		<g>
			
				<radialGradient id="SVGID_10_" cx="434.987" cy="-469.4255" r="0.8524" gradientTransform="matrix(-5.960000e-02 -0.9982 0.9982 -5.960000e-02 500.6435 443.3783)" gradientUnits="userSpaceOnUse">
				<stop  offset="0" style="stop-color:#64B05F"/>
				<stop  offset="0.1176" style="stop-color:#52914E"/>
				<stop  offset="0.3349" style="stop-color:#355E33"/>
				<stop  offset="0.5391" style="stop-color:#1E351D"/>
				<stop  offset="0.7242" style="stop-color:#0E180D"/>
				<stop  offset="0.8839" style="stop-color:#040603"/>
				<stop  offset="1" style="stop-color:#000000"/>
			</radialGradient>
			<circle class="st10" cx="6.1" cy="37.2" r="0.9"/>
			
				<ellipse transform="matrix(0.9982 -5.974031e-02 5.974031e-02 0.9982 -2.2082 0.437)" class="st5" cx="6.2" cy="37.1" rx="0.2" ry="0.2"/>
		</g>
		<g>
			
				<radialGradient id="SVGID_11_" cx="448.1653" cy="-444.6458" r="0.8524" gradientTransform="matrix(-5.960000e-02 -0.9982 0.9982 -5.960000e-02 500.6435 443.3783)" gradientUnits="userSpaceOnUse">
				<stop  offset="0" style="stop-color:#64B05F"/>
				<stop  offset="0.1176" style="stop-color:#52914E"/>
				<stop  offset="0.3349" style="stop-color:#355E33"/>
				<stop  offset="0.5391" style="stop-color:#1E351D"/>
				<stop  offset="0.7242" style="stop-color:#0E180D"/>
				<stop  offset="0.8839" style="stop-color:#040603"/>
				<stop  offset="1" style="stop-color:#000000"/>
			</radialGradient>
			<circle class="st11" cx="30.1" cy="22.5" r="0.9"/>
			
				<ellipse transform="matrix(0.9982 -5.952922e-02 5.952922e-02 0.9982 -1.2869 1.8349)" class="st5" cx="30.2" cy="22.5" rx="0.2" ry="0.2"/>
		</g>
		<g>
			
				<radialGradient id="SVGID_12_" cx="435.734" cy="-457.2462" r="0.6355" gradientTransform="matrix(-5.960000e-02 -0.9982 0.9982 -5.960000e-02 500.6435 443.3783)" gradientUnits="userSpaceOnUse">
				<stop  offset="0" style="stop-color:#64B05F"/>
				<stop  offset="0.1176" style="stop-color:#52914E"/>
				<stop  offset="0.3349" style="stop-color:#355E33"/>
				<stop  offset="0.5391" style="stop-color:#1E351D"/>
				<stop  offset="0.7242" style="stop-color:#0E180D"/>
				<stop  offset="0.8839" style="stop-color:#040603"/>
				<stop  offset="1" style="stop-color:#000000"/>
			</radialGradient>
			<circle class="st12" cx="18.3" cy="35.7" r="0.6"/>
			
				<ellipse transform="matrix(0.9982 -5.967145e-02 5.967145e-02 0.9982 -2.0963 1.1556)" class="st5" cx="18.3" cy="35.7" rx="0.2" ry="0.2"/>
		</g>
		<g>
			
				<radialGradient id="SVGID_13_" cx="434.9704" cy="-447.3594" r="1.3314" gradientTransform="matrix(-5.960000e-02 -0.9982 0.9982 -5.960000e-02 500.6435 443.3783)" gradientUnits="userSpaceOnUse">
				<stop  offset="0" style="stop-color:#64B05F"/>
				<stop  offset="0.1176" style="stop-color:#52914E"/>
				<stop  offset="0.3349" style="stop-color:#355E33"/>
				<stop  offset="0.5391" style="stop-color:#1E351D"/>
				<stop  offset="0.7242" style="stop-color:#0E180D"/>
				<stop  offset="0.8839" style="stop-color:#040603"/>
				<stop  offset="1" style="stop-color:#000000"/>
			</radialGradient>
			<circle class="st13" cx="28.2" cy="35.9" r="1.3"/>
			
				<ellipse transform="matrix(0.9982 -5.967606e-02 5.967606e-02 0.9982 -2.0888 1.7508)" class="st5" cx="28.3" cy="35.8" rx="0.4" ry="0.4"/>
		</g>
	</g>
	<g class="st14">
		<path class="st15" d="M18.4,11.9c0,0-0.6,2-0.1,3.7h16.9c0,0,0.8-0.9,0.7-2.7L18.4,11.9z"/>
		<path class="st15" d="M18.5,20c0,0-0.6,2-0.1,3.7h16.9c0,0,0.7-1.6,0.2-3.7H18.5z"/>
		<path class="st15" d="M18.5,27.6c0,0-0.6,1.2-0.1,2.9h16.9c0,0,0.7-1.6,0.2-3.7L18.5,27.6z"/>
	</g>
	<path class="st16" d="M48.5,37c-0.2-0.8,1.8-4.2,2.3-4.2c0.5,0,0.1,2.3-0.3,2.8S48.6,37.4,48.5,37z"/>
	<linearGradient id="SVGID_14_" gradientUnits="userSpaceOnUse" x1="6.7983" y1="10.2597" x2="51.819" y2="10.2597">
		<stop  offset="0" style="stop-color:#E69648"/>
		<stop  offset="0.106" style="stop-color:#D68C43"/>
		<stop  offset="0.3137" style="stop-color:#AC7036"/>
		<stop  offset="0.6026" style="stop-color:#684420"/>
		<stop  offset="0.9587" style="stop-color:#0B0704"/>
		<stop  offset="1" style="stop-color:#000000"/>
	</linearGradient>
	<path class="st17" d="M6.8,2.7c0,0,27.6-4,43.1,4.4c0,0,1.3,0.3,1.9,5.3c0,0-4.9,5.7-14.2,6.3c-8,0.5-13.5-8-20.8-11.7
		C10.7,4,6.8,2.7,6.8,2.7z"/>
	<path class="st16" d="M4.9,8.3c0,0-1.2-4.3,1.5-5.6c2.7-1.3,10.7-0.6,11.1-0.3c0.4,0.3-3.9,1.7-6,2.5C9.3,5.7,6,8.9,4.9,8.3z"/>
	<path class="st16" d="M4.7,9C4.1,9,2.8,12.8,3.5,13.7c0.4,0.6,1.7-1.1,1.9-2.3C5.7,10.2,4.7,9,4.7,9z"/>
</g>
</svg>
