<?xml version="1.0" encoding="utf-8"?>
<!-- Generator: Adobe Illustrator 21.0.2, SVG Export Plug-In . SVG Version: 6.00 Build 0)  -->
<svg version="1.1" id="Слой_1" xmlns="http://www.w3.org/2000/svg" xmlns:xlink="http://www.w3.org/1999/xlink" x="0px" y="0px"
	 viewBox="0 0 77 46" style="enable-background:new 0 0 77 46;" xml:space="preserve">
<style type="text/css">
	.st0{fill:url(#SVGID_1_);}
	.st1{fill:url(#SVGID_2_);}
	.st2{fill:url(#SVGID_3_);}
	.st3{fill:url(#SVGID_4_);}
	.st4{fill:url(#SVGID_5_);}
	.st5{fill:#FFFFAD;}
	.st6{fill:url(#SVGID_6_);}
	.st7{fill:url(#SVGID_7_);}
	.st8{fill:url(#SVGID_8_);}
	.st9{fill:url(#SVGID_9_);}
	.st10{fill:url(#SVGID_10_);}
	.st11{fill:url(#SVGID_11_);}
	.st12{fill:url(#SVGID_12_);}
	.st13{fill:url(#SVGID_13_);}
	.st14{fill:#FFFFFF;}
	.st15{fill:url(#SVGID_14_);}
</style>
<g>
	
		<radialGradient id="SVGID_1_" cx="-71.3307" cy="4143.8647" r="44.3863" gradientTransform="matrix(0.8115 0 0 0.7065 97.9916 -2883.241)" gradientUnits="userSpaceOnUse">
		<stop  offset="0" style="stop-color:#4E8AC6"/>
		<stop  offset="1" style="stop-color:#233DEB"/>
	</radialGradient>
	<path class="st0" d="M2.7,37.2c2.5,6.8,65.3,12,70.5,4.9c4.7-6.5,1.2-32.9-2.9-37.5C64.8-1.7,10.5,2.7,6.1,7.7
		C1.9,12.3,0.1,30.1,2.7,37.2z"/>
	<linearGradient id="SVGID_2_" gradientUnits="userSpaceOnUse" x1="38.5038" y1="43.0962" x2="38.5038" y2="1.8876">
		<stop  offset="0" style="stop-color:#B7FFF0"/>
		<stop  offset="1" style="stop-color:#5596FB"/>
	</linearGradient>
	<path class="st1" d="M2.9,36c2.5,6.6,64.9,10.3,70.1,3.4c4.7-6.2,1.2-30.1-2.8-34.5c-5.5-6.1-59.6-1.8-64.1,3
		C2,12.3,0.3,29.1,2.9,36z"/>
	<linearGradient id="SVGID_3_" gradientUnits="userSpaceOnUse" x1="38.5047" y1="42.3672" x2="38.5047" y2="2.312">
		<stop  offset="0" style="stop-color:#86EDEF"/>
		<stop  offset="1" style="stop-color:#5596FB"/>
	</linearGradient>
	<path class="st2" d="M3.7,35.4c2.5,6.4,63.6,10.1,68.6,3.4c4.6-6.1,1.2-29.3-2.8-33.6C64.2-0.7,11.2,3.5,6.9,8.1
		C2.8,12.4,1.1,28.8,3.7,35.4z"/>
	
		<linearGradient id="SVGID_4_" gradientUnits="userSpaceOnUse" x1="-2.19" y1="36.9471" x2="62.1231" y2="36.9471" gradientTransform="matrix(-1 0 0 1 68.9346 0)">
		<stop  offset="5.586590e-03" style="stop-color:#97FF80"/>
		<stop  offset="0.1023" style="stop-color:#8DEF78"/>
		<stop  offset="0.2916" style="stop-color:#75C563"/>
		<stop  offset="0.5552" style="stop-color:#4C8141"/>
		<stop  offset="0.8797" style="stop-color:#152412"/>
		<stop  offset="1" style="stop-color:#000000"/>
	</linearGradient>
	<path class="st3" d="M71.1,39c0,0-29.4,3.1-64.3-2.5c0,0,22.7,2.6,32.8,0C56.7,32.1,66.6,34.1,71.1,39z"/>
	<g>
		<g>
			
				<radialGradient id="SVGID_5_" cx="409.7863" cy="-463.7286" r="1.1647" gradientTransform="matrix(-9.069502e-02 -1.0547 1.519 -6.297156e-02 764.8049 417.8812)" gradientUnits="userSpaceOnUse">
				<stop  offset="0" style="stop-color:#64B05F"/>
				<stop  offset="0.1176" style="stop-color:#52914E"/>
				<stop  offset="0.3349" style="stop-color:#355E33"/>
				<stop  offset="0.5391" style="stop-color:#1E351D"/>
				<stop  offset="0.7242" style="stop-color:#0E180D"/>
				<stop  offset="0.8839" style="stop-color:#040603"/>
				<stop  offset="1" style="stop-color:#000000"/>
			</radialGradient>
			<path class="st4" d="M23.1,13.7c1,0,1.8,0.5,1.9,1.2c0.1,0.7-0.7,1.3-1.7,1.3c-1,0-1.8-0.5-1.9-1.2
				C21.4,14.3,22.2,13.7,23.1,13.7z"/>
			<path class="st5" d="M23.3,14.5c0.3,0,0.5,0.1,0.5,0.3c0,0.2-0.2,0.3-0.5,0.4c-0.3,0-0.5-0.1-0.5-0.3
				C22.9,14.7,23.1,14.6,23.3,14.5z"/>
		</g>
		<g>
			
				<radialGradient id="SVGID_6_" cx="414.6831" cy="-461.8513" r="1.1647" gradientTransform="matrix(-9.069502e-02 -1.0547 1.519 -6.297156e-02 764.8049 417.8812)" gradientUnits="userSpaceOnUse">
				<stop  offset="0" style="stop-color:#64B05F"/>
				<stop  offset="0.1176" style="stop-color:#52914E"/>
				<stop  offset="0.3349" style="stop-color:#355E33"/>
				<stop  offset="0.5391" style="stop-color:#1E351D"/>
				<stop  offset="0.7242" style="stop-color:#0E180D"/>
				<stop  offset="0.8839" style="stop-color:#040603"/>
				<stop  offset="1" style="stop-color:#000000"/>
			</radialGradient>
			<path class="st6" d="M25.5,8.4c1,0,1.8,0.5,1.9,1.2c0.1,0.7-0.7,1.3-1.7,1.3c-1,0-1.8-0.5-1.9-1.2C23.8,9,24.6,8.4,25.5,8.4z"/>
			<path class="st5" d="M25.8,9.3c0.3,0,0.5,0.1,0.5,0.3c0,0.2-0.2,0.3-0.5,0.4c-0.3,0-0.5-0.1-0.5-0.3C25.3,9.4,25.5,9.3,25.8,9.3z
				"/>
		</g>
		<g>
			
				<radialGradient id="SVGID_7_" cx="400.419" cy="-463.6379" r="1.1647" gradientTransform="matrix(-9.069502e-02 -1.0547 1.519 -6.297156e-02 764.8049 417.8812)" gradientUnits="userSpaceOnUse">
				<stop  offset="0" style="stop-color:#64B05F"/>
				<stop  offset="0.1176" style="stop-color:#52914E"/>
				<stop  offset="0.3349" style="stop-color:#355E33"/>
				<stop  offset="0.5391" style="stop-color:#1E351D"/>
				<stop  offset="0.7242" style="stop-color:#0E180D"/>
				<stop  offset="0.8839" style="stop-color:#040603"/>
				<stop  offset="1" style="stop-color:#000000"/>
			</radialGradient>
			<path class="st7" d="M24.1,23.5c1,0,1.8,0.5,1.9,1.2c0.1,0.7-0.7,1.3-1.7,1.3c-1,0-1.8-0.5-1.9-1.2
				C22.4,24.2,23.1,23.6,24.1,23.5z"/>
			<path class="st5" d="M24.3,24.4c0.3,0,0.5,0.1,0.5,0.3c0,0.2-0.2,0.3-0.5,0.4c-0.3,0-0.5-0.1-0.5-0.3S24.1,24.4,24.3,24.4z"/>
		</g>
		<g>
			
				<radialGradient id="SVGID_8_" cx="415.525" cy="-468.1025" r="3.2591" gradientTransform="matrix(-9.069502e-02 -1.0547 1.519 -6.297156e-02 764.8049 417.8812)" gradientUnits="userSpaceOnUse">
				<stop  offset="0" style="stop-color:#64B05F"/>
				<stop  offset="0.1176" style="stop-color:#52914E"/>
				<stop  offset="0.3349" style="stop-color:#355E33"/>
				<stop  offset="0.5391" style="stop-color:#1E351D"/>
				<stop  offset="0.7242" style="stop-color:#0E180D"/>
				<stop  offset="0.8839" style="stop-color:#040603"/>
				<stop  offset="1" style="stop-color:#000000"/>
			</radialGradient>
			<path class="st8" d="M15.8,5.7C18.5,5.6,20.9,7,21,8.9c0.2,1.9-1.9,3.5-4.7,3.6s-5.1-1.3-5.2-3.2S13,5.8,15.8,5.7z"/>
			<path class="st5" d="M16.4,8.1c0.8,0,1.4,0.4,1.5,0.9c0,0.5-0.5,1-1.3,1c-0.8,0-1.4-0.4-1.5-0.9C15,8.6,15.6,8.2,16.4,8.1z"/>
		</g>
		<g>
			
				<radialGradient id="SVGID_9_" cx="391.8383" cy="-460.3046" r="1.5567" gradientTransform="matrix(-9.069502e-02 -1.0547 1.519 -6.297156e-02 764.8049 417.8812)" gradientUnits="userSpaceOnUse">
				<stop  offset="0" style="stop-color:#64B05F"/>
				<stop  offset="0.1176" style="stop-color:#52914E"/>
				<stop  offset="0.3349" style="stop-color:#355E33"/>
				<stop  offset="0.5391" style="stop-color:#1E351D"/>
				<stop  offset="0.7242" style="stop-color:#0E180D"/>
				<stop  offset="0.8839" style="stop-color:#040603"/>
				<stop  offset="1" style="stop-color:#000000"/>
			</radialGradient>
			<path class="st9" d="M29.9,32c1.3-0.1,2.4,0.6,2.5,1.5s-0.9,1.7-2.2,1.7c-1.3,0.1-2.4-0.6-2.5-1.5C27.6,32.8,28.6,32,29.9,32z"/>
			<path class="st5" d="M30.2,33.1c0.4,0,0.7,0.2,0.7,0.4c0,0.3-0.3,0.5-0.6,0.5c-0.4,0-0.7-0.2-0.7-0.4
				C29.6,33.4,29.9,33.2,30.2,33.1z"/>
		</g>
		<g>
			
				<radialGradient id="SVGID_10_" cx="389.3379" cy="-474.3459" r="0.7784" gradientTransform="matrix(-9.069502e-02 -1.0547 1.519 -6.297156e-02 764.8049 417.8812)" gradientUnits="userSpaceOnUse">
				<stop  offset="0" style="stop-color:#64B05F"/>
				<stop  offset="0.1176" style="stop-color:#52914E"/>
				<stop  offset="0.3349" style="stop-color:#355E33"/>
				<stop  offset="0.5391" style="stop-color:#1E351D"/>
				<stop  offset="0.7242" style="stop-color:#0E180D"/>
				<stop  offset="0.8839" style="stop-color:#040603"/>
				<stop  offset="1" style="stop-color:#000000"/>
			</radialGradient>
			<path class="st10" d="M8.9,36.3c0.7,0,1.2,0.3,1.3,0.8c0,0.5-0.5,0.8-1.1,0.9c-0.7,0-1.2-0.3-1.3-0.8C7.7,36.7,8.2,36.3,8.9,36.3
				z"/>
			<path class="st5" d="M9,36.9c0.2,0,0.3,0.1,0.3,0.2c0,0.1-0.1,0.2-0.3,0.2c-0.2,0-0.3-0.1-0.3-0.2C8.7,37,8.9,36.9,9,36.9z"/>
		</g>
		<g>
			
				<radialGradient id="SVGID_11_" cx="401.3715" cy="-451.7188" r="0.7784" gradientTransform="matrix(-9.069502e-02 -1.0547 1.519 -6.297156e-02 764.8049 417.8812)" gradientUnits="userSpaceOnUse">
				<stop  offset="0" style="stop-color:#64B05F"/>
				<stop  offset="0.1176" style="stop-color:#52914E"/>
				<stop  offset="0.3349" style="stop-color:#355E33"/>
				<stop  offset="0.5391" style="stop-color:#1E351D"/>
				<stop  offset="0.7242" style="stop-color:#0E180D"/>
				<stop  offset="0.8839" style="stop-color:#040603"/>
				<stop  offset="1" style="stop-color:#000000"/>
			</radialGradient>
			<path class="st11" d="M42.2,22.2c0.7,0,1.2,0.3,1.3,0.8c0,0.5-0.5,0.8-1.1,0.9c-0.7,0-1.2-0.3-1.3-0.8
				C41,22.6,41.5,22.2,42.2,22.2z"/>
			<path class="st5" d="M42.3,22.8c0.2,0,0.3,0.1,0.3,0.2s-0.1,0.2-0.3,0.2c-0.2,0-0.3-0.1-0.3-0.2C42,22.9,42.1,22.8,42.3,22.8z"/>
		</g>
		<g>
			
				<radialGradient id="SVGID_12_" cx="390.0201" cy="-463.2247" r="0.5803" gradientTransform="matrix(-9.069502e-02 -1.0547 1.519 -6.297156e-02 764.8049 417.8812)" gradientUnits="userSpaceOnUse">
				<stop  offset="0" style="stop-color:#64B05F"/>
				<stop  offset="0.1176" style="stop-color:#52914E"/>
				<stop  offset="0.3349" style="stop-color:#355E33"/>
				<stop  offset="0.5391" style="stop-color:#1E351D"/>
				<stop  offset="0.7242" style="stop-color:#0E180D"/>
				<stop  offset="0.8839" style="stop-color:#040603"/>
				<stop  offset="1" style="stop-color:#000000"/>
			</radialGradient>
			<path class="st12" d="M25.7,35.1c0.5,0,0.9,0.2,0.9,0.6c0,0.3-0.3,0.6-0.8,0.6c-0.5,0-0.9-0.2-0.9-0.6
				C24.9,35.4,25.3,35.1,25.7,35.1z"/>
			<path class="st5" d="M25.9,35.5c0.1,0,0.3,0.1,0.3,0.2c0,0.1-0.1,0.2-0.2,0.2c-0.1,0-0.3-0.1-0.3-0.2
				C25.6,35.6,25.7,35.5,25.9,35.5z"/>
		</g>
		<g>
			
				<radialGradient id="SVGID_13_" cx="389.3228" cy="-454.1967" r="1.2157" gradientTransform="matrix(-9.069502e-02 -1.0547 1.519 -6.297156e-02 764.8049 417.8812)" gradientUnits="userSpaceOnUse">
				<stop  offset="0" style="stop-color:#64B05F"/>
				<stop  offset="0.1176" style="stop-color:#52914E"/>
				<stop  offset="0.3349" style="stop-color:#355E33"/>
				<stop  offset="0.5391" style="stop-color:#1E351D"/>
				<stop  offset="0.7242" style="stop-color:#0E180D"/>
				<stop  offset="0.8839" style="stop-color:#040603"/>
				<stop  offset="1" style="stop-color:#000000"/>
			</radialGradient>
			<path class="st13" d="M39.5,34.6c1,0,1.9,0.5,2,1.2c0.1,0.7-0.7,1.3-1.7,1.4c-1,0-1.9-0.5-2-1.2C37.7,35.2,38.4,34.6,39.5,34.6z"
				/>
			<path class="st5" d="M39.7,35.5c0.3,0,0.5,0.1,0.5,0.3c0,0.2-0.2,0.4-0.5,0.4c-0.3,0-0.5-0.1-0.5-0.3
				C39.2,35.7,39.4,35.5,39.7,35.5z"/>
		</g>
	</g>
	<path class="st14" d="M69.5,40.2c-0.3-0.7,2.5-4.1,3.2-4.1c0.7,0,0.1,2.2-0.4,2.7C71.9,39.3,69.7,40.6,69.5,40.2z"/>
	<linearGradient id="SVGID_14_" gradientUnits="userSpaceOnUse" x1="7.7228" y1="10.8472" x2="72.4432" y2="10.8472">
		<stop  offset="0" style="stop-color:#99CF4F"/>
		<stop  offset="0.1159" style="stop-color:#8DBF49"/>
		<stop  offset="0.3427" style="stop-color:#6E9539"/>
		<stop  offset="0.6583" style="stop-color:#3C511F"/>
		<stop  offset="1" style="stop-color:#000000"/>
	</linearGradient>
	<path class="st15" d="M7.7,8c0,0,40.5-10.8,62-2.7c0,0,1.9,3.1,2.8,8c0,0-6.8,5.5-19.7,6.1c-11.1,0.5-21.9-9.3-31.2-10.5
		C12.2,7.7,7.7,8,7.7,8z"/>
	<path class="st14" d="M6.9,9.9c-0.8,0.1-2.7,4.3-2.6,5c0.1,0.7,2.5-1.5,2.8-2.6S6.9,9.9,6.9,9.9z"/>
	<path class="st14" d="M7.2,9.3C6.3,9,8,7.2,9.4,6.8c1.4-0.4,5-1,5.4-0.5C15.2,6.7,8.3,9.6,7.2,9.3z"/>
</g>
</svg>
