<?xml version="1.0" encoding="utf-8"?>
<!-- Generator: Adobe Illustrator 21.0.2, SVG Export Plug-In . SVG Version: 6.00 Build 0)  -->
<svg version="1.1" id="Слой_1" xmlns="http://www.w3.org/2000/svg" xmlns:xlink="http://www.w3.org/1999/xlink" x="0px" y="0px"
	 viewBox="0 0 50 43" style="enable-background:new 0 0 50 43;" xml:space="preserve">
<style type="text/css">
	.st0{fill:url(#SVGID_1_);}
	.st1{fill:url(#SVGID_2_);}
	.st2{fill:url(#SVGID_3_);}
	.st3{fill:url(#SVGID_4_);}
	.st4{fill:url(#SVGID_5_);}
	.st5{fill:#FFFFAD;}
	.st6{fill:url(#SVGID_6_);}
	.st7{fill:url(#SVGID_7_);}
	.st8{fill:url(#SVGID_8_);}
	.st9{fill:url(#SVGID_9_);}
	.st10{fill:url(#SVGID_10_);}
	.st11{fill:url(#SVGID_11_);}
	.st12{fill:url(#SVGID_12_);}
	.st13{fill:url(#SVGID_13_);}
	.st14{fill:#FFFFFF;}
	.st15{fill:url(#SVGID_14_);}
</style>
<g>
	
		<radialGradient id="SVGID_1_" cx="-99.9126" cy="4109.2949" r="44.3863" gradientTransform="matrix(0.5333 0 0 0.6687 78.9154 -2706.3896)" gradientUnits="userSpaceOnUse">
		<stop  offset="0" style="stop-color:#4E8AC6"/>
		<stop  offset="1" style="stop-color:#233DEB"/>
	</radialGradient>
	<path class="st0" d="M1.1,34.6C2.7,41,44,45.9,47.4,39.2c3.1-6.1,0.8-31.1-1.9-35.5c-3.6-6-39.3-1.8-42.3,2.9
		C0.5,11-0.7,27.9,1.1,34.6z"/>
	<linearGradient id="SVGID_2_" gradientUnits="userSpaceOnUse" x1="24.5804" y1="40.1516" x2="24.5804" y2="1.1493">
		<stop  offset="0" style="stop-color:#B7FFF0"/>
		<stop  offset="1" style="stop-color:#5596FB"/>
	</linearGradient>
	<path class="st1" d="M1.2,33.4c1.7,6.2,42.7,9.8,46.1,3.3c3.1-5.9,0.8-28.5-1.9-32.7C41.8-1.8,6.3,2.3,3.3,6.8
		C0.6,11-0.5,26.9,1.2,33.4z"/>
	<linearGradient id="SVGID_3_" gradientUnits="userSpaceOnUse" x1="24.581" y1="39.4617" x2="24.581" y2="1.5511">
		<stop  offset="0" style="stop-color:#86EDEF"/>
		<stop  offset="1" style="stop-color:#5596FB"/>
	</linearGradient>
	<path class="st2" d="M1.7,32.9c1.6,6.1,41.8,9.6,45.1,3.3c3-5.7,0.8-27.7-1.8-31.8C41.4-1.3,6.6,2.6,3.8,7
		C1.1,11.1,0,26.6,1.7,32.9z"/>
	
		<linearGradient id="SVGID_4_" gradientUnits="userSpaceOnUse" x1="13.9175" y1="34.3317" x2="56.1807" y2="34.3317" gradientTransform="matrix(-1 0 0 1 59.9346 0)">
		<stop  offset="5.586590e-03" style="stop-color:#97FF80"/>
		<stop  offset="0.1023" style="stop-color:#8DEF78"/>
		<stop  offset="0.2916" style="stop-color:#75C563"/>
		<stop  offset="0.5552" style="stop-color:#4C8141"/>
		<stop  offset="0.8797" style="stop-color:#152412"/>
		<stop  offset="1" style="stop-color:#000000"/>
	</linearGradient>
	<path class="st3" d="M46,36.2c0,0-19.3,3-42.3-2.4c0,0,14.9,2.4,21.5,0C36.6,29.8,43.1,31.6,46,36.2z"/>
	<g>
		<g>
			
				<radialGradient id="SVGID_5_" cx="445.4825" cy="-449.6946" r="1.1647" gradientTransform="matrix(-5.960000e-02 -0.9982 0.9982 -5.960000e-02 489.9861 431.3385)" gradientUnits="userSpaceOnUse">
				<stop  offset="0" style="stop-color:#64B05F"/>
				<stop  offset="0.1176" style="stop-color:#52914E"/>
				<stop  offset="0.3349" style="stop-color:#355E33"/>
				<stop  offset="0.5391" style="stop-color:#1E351D"/>
				<stop  offset="0.7242" style="stop-color:#0E180D"/>
				<stop  offset="0.8839" style="stop-color:#040603"/>
				<stop  offset="1" style="stop-color:#000000"/>
			</radialGradient>
			<circle class="st4" cx="14.6" cy="13.5" r="1.2"/>
			
				<ellipse transform="matrix(0.9982 -5.969454e-02 5.969454e-02 0.9982 -0.777 0.8979)" class="st5" cx="14.6" cy="13.5" rx="0.3" ry="0.3"/>
		</g>
		<g>
			
				<radialGradient id="SVGID_6_" cx="450.3792" cy="-447.8173" r="1.1647" gradientTransform="matrix(-5.960000e-02 -0.9982 0.9982 -5.960000e-02 489.9861 431.3385)" gradientUnits="userSpaceOnUse">
				<stop  offset="0" style="stop-color:#64B05F"/>
				<stop  offset="0.1176" style="stop-color:#52914E"/>
				<stop  offset="0.3349" style="stop-color:#355E33"/>
				<stop  offset="0.5391" style="stop-color:#1E351D"/>
				<stop  offset="0.7242" style="stop-color:#0E180D"/>
				<stop  offset="0.8839" style="stop-color:#040603"/>
				<stop  offset="1" style="stop-color:#000000"/>
			</radialGradient>
			<circle class="st6" cx="16.1" cy="8.5" r="1.2"/>
			
				<ellipse transform="matrix(0.9982 -5.969454e-02 5.969454e-02 0.9982 -0.4758 0.9835)" class="st5" cx="16.2" cy="8.5" rx="0.3" ry="0.3"/>
		</g>
		<g>
			
				<radialGradient id="SVGID_7_" cx="436.1151" cy="-449.6039" r="1.1647" gradientTransform="matrix(-5.960000e-02 -0.9982 0.9982 -5.960000e-02 489.9861 431.3385)" gradientUnits="userSpaceOnUse">
				<stop  offset="0" style="stop-color:#64B05F"/>
				<stop  offset="0.1176" style="stop-color:#52914E"/>
				<stop  offset="0.3349" style="stop-color:#355E33"/>
				<stop  offset="0.5391" style="stop-color:#1E351D"/>
				<stop  offset="0.7242" style="stop-color:#0E180D"/>
				<stop  offset="0.8839" style="stop-color:#040603"/>
				<stop  offset="1" style="stop-color:#000000"/>
			</radialGradient>
			<circle class="st7" cx="15.2" cy="22.8" r="1.2"/>
			
				<ellipse transform="matrix(0.9982 -5.968088e-02 5.968088e-02 0.9982 -1.3334 0.9531)" class="st5" cx="15.3" cy="22.8" rx="0.3" ry="0.3"/>
		</g>
		<g>
			
				<radialGradient id="SVGID_8_" cx="451.2211" cy="-454.0685" r="3.2591" gradientTransform="matrix(-5.960000e-02 -0.9982 0.9982 -5.960000e-02 489.9861 431.3385)" gradientUnits="userSpaceOnUse">
				<stop  offset="0" style="stop-color:#64B05F"/>
				<stop  offset="0.1176" style="stop-color:#52914E"/>
				<stop  offset="0.3349" style="stop-color:#355E33"/>
				<stop  offset="0.5391" style="stop-color:#1E351D"/>
				<stop  offset="0.7242" style="stop-color:#0E180D"/>
				<stop  offset="0.8839" style="stop-color:#040603"/>
				<stop  offset="1" style="stop-color:#000000"/>
			</radialGradient>
			<circle class="st8" cx="9.8" cy="8" r="3.3"/>
			
				<ellipse transform="matrix(0.9982 -5.967036e-02 5.967036e-02 0.9982 -0.458 0.6166)" class="st5" cx="10.1" cy="8" rx="0.9" ry="0.9"/>
		</g>
		<g>
			
				<radialGradient id="SVGID_9_" cx="427.5344" cy="-446.2706" r="1.5567" gradientTransform="matrix(-5.960000e-02 -0.9982 0.9982 -5.960000e-02 489.9861 431.3385)" gradientUnits="userSpaceOnUse">
				<stop  offset="0" style="stop-color:#64B05F"/>
				<stop  offset="0.1176" style="stop-color:#52914E"/>
				<stop  offset="0.3349" style="stop-color:#355E33"/>
				<stop  offset="0.5391" style="stop-color:#1E351D"/>
				<stop  offset="0.7242" style="stop-color:#0E180D"/>
				<stop  offset="0.8839" style="stop-color:#040603"/>
				<stop  offset="1" style="stop-color:#000000"/>
			</radialGradient>
			<circle class="st9" cx="19" cy="31.2" r="1.6"/>
			
				<ellipse transform="matrix(0.9982 -5.962643e-02 5.962643e-02 0.9982 -1.8241 1.1978)" class="st5" cx="19.2" cy="31.2" rx="0.4" ry="0.4"/>
		</g>
		<g>
			
				<radialGradient id="SVGID_10_" cx="425.034" cy="-460.312" r="0.7784" gradientTransform="matrix(-5.960000e-02 -0.9982 0.9982 -5.960000e-02 489.9861 431.3385)" gradientUnits="userSpaceOnUse">
				<stop  offset="0" style="stop-color:#64B05F"/>
				<stop  offset="0.1176" style="stop-color:#52914E"/>
				<stop  offset="0.3349" style="stop-color:#355E33"/>
				<stop  offset="0.5391" style="stop-color:#1E351D"/>
				<stop  offset="0.7242" style="stop-color:#0E180D"/>
				<stop  offset="0.8839" style="stop-color:#040603"/>
				<stop  offset="1" style="stop-color:#000000"/>
			</radialGradient>
			<circle class="st10" cx="5.2" cy="34.5" r="0.8"/>
			
				<ellipse transform="matrix(0.9982 -5.961953e-02 5.961953e-02 0.9982 -2.0476 0.3732)" class="st5" cx="5.2" cy="34.5" rx="0.2" ry="0.2"/>
		</g>
		<g>
			
				<radialGradient id="SVGID_11_" cx="437.0676" cy="-437.6848" r="0.7784" gradientTransform="matrix(-5.960000e-02 -0.9982 0.9982 -5.960000e-02 489.9861 431.3385)" gradientUnits="userSpaceOnUse">
				<stop  offset="0" style="stop-color:#64B05F"/>
				<stop  offset="0.1176" style="stop-color:#52914E"/>
				<stop  offset="0.3349" style="stop-color:#355E33"/>
				<stop  offset="0.5391" style="stop-color:#1E351D"/>
				<stop  offset="0.7242" style="stop-color:#0E180D"/>
				<stop  offset="0.8839" style="stop-color:#040603"/>
				<stop  offset="1" style="stop-color:#000000"/>
			</radialGradient>
			<circle class="st11" cx="27" cy="21.1" r="0.8"/>
			
				<ellipse transform="matrix(0.9982 -5.962684e-02 5.962684e-02 0.9982 -1.2123 1.6535)" class="st5" cx="27.1" cy="21.1" rx="0.2" ry="0.2"/>
		</g>
		<g>
			
				<radialGradient id="SVGID_12_" cx="425.7162" cy="-449.1907" r="0.5803" gradientTransform="matrix(-5.960000e-02 -0.9982 0.9982 -5.960000e-02 489.9861 431.3385)" gradientUnits="userSpaceOnUse">
				<stop  offset="0" style="stop-color:#64B05F"/>
				<stop  offset="0.1176" style="stop-color:#52914E"/>
				<stop  offset="0.3349" style="stop-color:#355E33"/>
				<stop  offset="0.5391" style="stop-color:#1E351D"/>
				<stop  offset="0.7242" style="stop-color:#0E180D"/>
				<stop  offset="0.8839" style="stop-color:#040603"/>
				<stop  offset="1" style="stop-color:#000000"/>
			</radialGradient>
			<circle class="st12" cx="16.2" cy="33.2" r="0.6"/>
			
				<ellipse transform="matrix(0.9982 -5.976203e-02 5.976203e-02 0.9982 -1.9525 1.032)" class="st5" cx="16.3" cy="33.2" rx="0.2" ry="0.2"/>
		</g>
		<g>
			
				<radialGradient id="SVGID_13_" cx="425.0189" cy="-440.1628" r="1.2157" gradientTransform="matrix(-5.960000e-02 -0.9982 0.9982 -5.960000e-02 489.9861 431.3385)" gradientUnits="userSpaceOnUse">
				<stop  offset="0" style="stop-color:#64B05F"/>
				<stop  offset="0.1176" style="stop-color:#52914E"/>
				<stop  offset="0.3349" style="stop-color:#355E33"/>
				<stop  offset="0.5391" style="stop-color:#1E351D"/>
				<stop  offset="0.7242" style="stop-color:#0E180D"/>
				<stop  offset="0.8839" style="stop-color:#040603"/>
				<stop  offset="1" style="stop-color:#000000"/>
			</radialGradient>
			<circle class="st13" cx="25.3" cy="33.3" r="1.2"/>
			
				<ellipse transform="matrix(0.9982 -5.971467e-02 5.971467e-02 0.9982 -1.944 1.5749)" class="st5" cx="25.4" cy="33.3" rx="0.3" ry="0.3"/>
		</g>
	</g>
	<path class="st14" d="M44.9,37.4c-0.2-0.7,1.6-3.9,2.1-3.8c0.5,0,0.1,2.1-0.2,2.6C46.5,36.6,45.1,37.7,44.9,37.4z"/>
	<linearGradient id="SVGID_14_" gradientUnits="userSpaceOnUse" x1="4.3528" y1="9.6293" x2="46.8836" y2="9.6293">
		<stop  offset="0" style="stop-color:#99CF4F"/>
		<stop  offset="0.1159" style="stop-color:#8DBF49"/>
		<stop  offset="0.3427" style="stop-color:#6E9539"/>
		<stop  offset="0.6583" style="stop-color:#3C511F"/>
		<stop  offset="1" style="stop-color:#000000"/>
	</linearGradient>
	<path class="st15" d="M4.4,6.9c0,0,26.6-10.2,40.7-2.5c0,0,1.2,2.9,1.8,7.5c0,0-4.5,5.2-12.9,5.8c-7.3,0.5-14.4-8.8-20.5-9.9
		C7.3,6.6,4.4,6.9,4.4,6.9z"/>
	<path class="st14" d="M3.8,8.8c-0.5,0.1-1.8,4-1.7,4.7C2.2,14.1,3.7,12,4,11S3.8,8.8,3.8,8.8z"/>
	<path class="st14" d="M4,8.1C3.4,7.9,4.5,6.2,5.5,5.8C6.4,5.4,8.7,4.9,9,5.3C9.3,5.7,4.7,8.4,4,8.1z"/>
</g>
</svg>
