<?xml version="1.0" encoding="utf-8"?>
<!-- Generator: Adobe Illustrator 21.0.2, SVG Export Plug-In . SVG Version: 6.00 Build 0)  -->
<svg version="1.1" id="Слой_1" xmlns="http://www.w3.org/2000/svg" xmlns:xlink="http://www.w3.org/1999/xlink" x="0px" y="0px"
	 viewBox="0 0 130 114" style="enable-background:new 0 0 130 114;" xml:space="preserve">
<style type="text/css">
	.st0{fill:#DDDDDD;}
	.st1{fill:#EDEDED;}
	.st2{fill:#FFFFFF;}
	.st3{fill:#C1C0BF;}
	.st4{fill:#0F0F0F;}
	.st5{fill:#191919;}
	.st6{fill:#1E1E1E;}
	.st7{fill:#F76B86;}
	.st8{fill:#F97589;}
	.st9{fill:#F9879C;}
	.st10{fill:#FC638E;}
	.st11{fill:#F95D7B;}
	.st12{fill:#06BFFF;}
	.st13{fill:#06A1FF;}
	.st14{fill:#068DFF;}
	.st15{fill:#BAB9B9;}
	.st16{fill:#FCB4C4;}
</style>
<g>
	<g>
		<path class="st0" d="M46.5,65.2c0,0-0.4,7.1,0.4,13.7c0.9,6.6,1.1,9.7,1.1,9.7c-2.8-0.1-5.9,1.7-3.5,5.6c0.3,1.3,2.1,1.5,3.1,1.3
			c1.4,0.7,3.8,0.4,5-0.7c1.2-1.1,4-3.7,4.5-10.8C57.7,76.8,49.5,66.7,46.5,65.2z"/>
		<path class="st1" d="M46.5,65.2c0,0-0.4,7.1,0.4,13.7c0.9,6.6,1.1,9.7,1.1,9.7c-2.8-0.1-5.1,1.6-3.7,4.3c0.3,1.3,1.9,1.4,2.9,1.3
			c1.4,0.7,3.2,0.7,4.4-0.4c1.2-1.1,5.1-2.6,5.6-9.7C57.7,76.8,49.5,66.7,46.5,65.2z"/>
		<path class="st2" d="M46.5,65.2c0,0-0.4,7.1,0.4,13.7c0.9,6.6,1.1,9.7,1.1,9.7c-2.8-0.1-5,1.1-3.6,3.7c0.4,1.3,1.6,1.2,2.6,1.1
			c1.4,0.7,3.7,0.5,4.8-0.6c1.2-1.1,4.8-1.6,5.3-8.8C57.7,76.8,49.5,66.7,46.5,65.2z"/>
		<path class="st3" d="M49.5,96.1L49.5,96.1c-0.7,0-1.3-0.1-1.8-0.4c-0.2,0-0.4,0-0.6,0c-1.4,0-2.4-0.6-2.6-1.5
			c-1.2-2-0.9-3.3-0.5-4c0.8-1.4,2.6-1.9,4-1.9c0,0,0,0,0,0c-0.1-0.7-0.3-3.9-1.1-9.5c-0.9-6.5-0.5-13.6-0.4-13.7l0-0.2l0.2,0.1
			c3.2,1.6,11.3,11.8,10.8,18.9c-0.5,7.2-3.3,9.8-4.6,10.9C52,95.7,50.7,96.1,49.5,96.1z M47.7,95.4L47.7,95.4
			c0.5,0.3,1.1,0.4,1.8,0.4c1.2,0,2.4-0.4,3.1-1.1c1.2-1.1,4-3.7,4.5-10.7c0.5-7-7.4-16.8-10.4-18.5c-0.1,1.3-0.3,7.6,0.5,13.4
			c0.9,6.5,1.1,9.7,1.1,9.7l0,0.2l-0.2,0c-0.1,0-0.1,0-0.2,0c-1.7,0-3.2,0.7-3.7,1.7c-0.5,1-0.4,2.2,0.5,3.7l0,0
			c0.3,1.2,1.7,1.3,2.3,1.3C47.2,95.4,47.4,95.4,47.7,95.4L47.7,95.4z"/>
	</g>
	<g>
		<path class="st0" d="M78.6,89.8c0,0,9.5,1.7,12-5.2c1.8-5,0.5-9.2-0.1-13.5c-0.6-4.3,0.2-9,3.2-10.8c3.1-1.8,4.4-4.3,2.4-6.4
			c-3.5-3.5-10,1.7-11.3,7.3c-1.3,5.5,0,10.3,0.9,14.5c0.8,4.1,1.3,5,0.6,7.7c-0.8,2.9-4.4,4.2-4.2,1.8c0.2-2.4,0.9-10.3-4.7-16
			c-5.7-5.7-6.7-7-6.7-8c0-1-2-9.6-5.5-12.5c-3.5-3-2.3-4.9-2.3-4.9l-15.8,2.6c1.7,1.7,1.5,4,0.6,7.2c-0.9,3.2-7.2,16.2,8,25.2
			C64.2,85.8,76,90.2,78.6,89.8z"/>
		<path class="st1" d="M96.2,54c-3.5-3.5-10,1.7-11.3,7.3c-1.3,5.5,0,10.3,0.9,14.5c0.8,4.1,1.3,5,0.6,7.7c-0.8,2.9-4.4,4.2-4.2,1.8
			c0.2-2.4-0.5-8.9-6.2-14.5c-5.7-5.7-6.5-6.9-6.5-8c0.1-1-2.1-10.2-5.6-13.2c-3.5-3-0.9-5.7-0.9-5.7l-15.8,2.6
			c1.7,1.7,1.5,4,0.6,7.2c-0.9,3.2-7.2,16.2,8,25.2c2.1,1.8,4.5,3.4,6.8,4.8c-1.1-4.1-4.2-6.2-0.3-9.2c-0.6-4.8,1.8,1.1,2.4,2.3
			c2.1,3.7,3.8,5.7,3,9.4c4.7,2,8.7,2.9,10.2,2.7c0,0,8.9,2.9,11.5-4c1.8-5,0.2-8.9-0.4-13.2c-0.6-4.3-1-9.2,2.1-11
			C94.2,58.6,98.2,56,96.2,54z"/>
		<path class="st2" d="M96.2,54c-3.5-3.5-10,1.7-11.3,7.3c-1.3,5.5,0,10.3,0.9,14.5c0.8,4.1,1.3,5,0.6,7.7c-0.8,2.9-4.4,4.2-4.2,1.8
			c0.2-2.4-1-7.7-6.7-13.4s-6.7-6.4-6.7-7.4c0-1-2.4-11.6-5.9-14.6c-3.5-3,0.1-6.1,0.1-6.1l-15.8,2.6c1.7,1.7,1.5,4,0.6,7.2
			c-0.9,3.2-7.2,16.2,8,25.2c2.1,1.8,4.5,3.4,6.8,4.8C61.5,79.3,57,77,60.8,74c0.5-1.4,3.1,0.2,4.3,3.7c2.1,3.7,3.4,4.5,2.6,8.3
			c4.7,2,8.5,1.7,10,1.5c0,0,8.6,3.5,11.1-3.4c1.8-5-0.4-8.2-1-12.5c-0.6-4.3-1.2-9.8,1.9-11.7C92.8,57.9,98.2,56,96.2,54z"/>
		<g>
			<path class="st4" d="M76.4,72.7c-2.2,1.7-5.9,5.1-3.9,7.4c2,2.2,2.5,1.8,1.7,3.3c-0.7,1.5-0.9,3.6,1,4c1.9,0.4,1.1-1.8,2.4-0.8
				c1.2,0.9,3.3,1.2,4.7-0.4c-0.1-0.2-0.2-0.5-0.2-1c0.2-2.4,0.9-10.2-4.6-15.9C77.8,70.3,77.6,71.7,76.4,72.7z"/>
		</g>
		<g>
			<path class="st4" d="M62.6,51.8c-2,1.6-4.3,2.8-4.5,5.9c-0.2,3.2,1.9,2.2,2.8,1.3c0.9-0.9,1.9-0.9,1.9,0.5c0,1.4-1.3,3.9,0,4.4
				c1.3,0.6,1.3-0.3,2.1,0c0.8,0.3,1,1.3,1.6,0.4c0.6-1,0.2-2.6,1.3-2.2c1.1,0.4,0.3,2.1,1.3,2c1.1-0.1,0.9,0,1.6,0.6
				c0.5,0.5,1.5,0.2,2.1-0.4c-1.6-1.8-2-2.5-2-3.2c0-1-2-9.6-5.5-12.5c-0.5-0.4-0.9-0.8-1.2-1.2C64.1,48.8,63.9,50.8,62.6,51.8z"/>
		</g>
		<path class="st5" d="M62.6,51.8c-2,1.6-4.3,2.8-4.5,5.9c-0.2,3.2,1.9,2.2,2.8,1.3c0.9-0.9,1.9-0.9,1.9,0.5c0,1.4-1.3,3.9,0,4.4
			c1.3,0.6,1.3-0.3,2.1,0c0.8,0.3,1,1.3,1.6,0.4c0.6-1,0.2-2.6,1.3-2.2c1.1,0.4,0.3,2.1,1.3,2c0.6,0,0.8,0,1,0.1
			c-0.5-0.7-0.6-1.2-0.6-1.6c0.1-1-2.1-10.2-5.6-13.2l0,0C63.7,50.4,63.3,51.2,62.6,51.8z"/>
		<path class="st6" d="M63.6,50.5c-0.2,0.5-0.5,0.9-1,1.3c-2,1.6-4.3,2.8-4.5,5.9c-0.2,3.2,1.9,2.2,2.8,1.3c0.9-0.9,1.9-0.9,1.9,0.5
			c0,1.4-1.3,3.9,0,4.4c1.3,0.6,1.3-0.3,2.1,0c0.8,0.3,1,1.3,1.6,0.4c0.6-1,0.2-2.6,1.3-2.2c0.7,0.3,0.6,1.2,0.8,1.7
			C68.2,59.1,67.2,53.8,63.6,50.5z"/>
		<path class="st3" d="M81.2,90.2c-1.4,0-2.4-0.2-2.6-0.2c-0.1,0-0.2,0-0.3,0c0,0,0,0,0,0c-3.3,0-14.6-4.4-22.5-11.2
			c-13.9-8.2-9.9-19.8-8.4-24.2c0.2-0.4,0.3-0.8,0.4-1.1c0.9-3.1,1.1-5.4-0.6-7l-0.2-0.2l16.4-2.7l-0.2,0.3c0,0-1.1,1.9,2.3,4.7
			c3.6,3,5.6,11.7,5.5,12.7c0,1,1.1,2.4,6.6,7.9c5.6,5.6,5,13.5,4.8,16l0,0.1c0,0.4,0,0.7,0.2,0.9c0.1,0.2,0.3,0.2,0.6,0.2
			c1,0,2.6-1.1,3.1-3c0.6-2.1,0.3-3.1-0.2-5.6c-0.1-0.6-0.3-1.3-0.4-2c-0.1-0.5-0.2-1-0.3-1.5c-0.8-3.8-1.8-8.1-0.6-13
			c1.1-4.4,5.3-8.5,8.8-8.5c1.1,0,2,0.4,2.8,1.2c0.8,0.8,1.1,1.6,1,2.6c-0.2,1.4-1.4,2.8-3.4,4c-3.2,1.9-3.7,6.8-3.2,10.7
			c0.1,0.8,0.3,1.6,0.4,2.4c0.6,3.5,1.2,7.1-0.3,11.1C89,89.5,84,90.2,81.2,90.2z M78.6,89.7L78.6,89.7c0,0,1.1,0.2,2.5,0.2
			c2.8,0,7.6-0.7,9.4-5.3c1.5-4,0.9-7.6,0.3-11c-0.1-0.8-0.3-1.6-0.4-2.4c-0.6-4,0-9,3.3-11c1.9-1.2,3.1-2.5,3.3-3.8
			c0.1-0.8-0.2-1.6-0.9-2.3c-0.7-0.7-1.6-1.1-2.6-1.1c-3.3,0-7.4,4-8.5,8.3c-1.2,4.8-0.2,9.1,0.6,12.9c0.1,0.5,0.2,1,0.3,1.5
			c0.2,0.8,0.3,1.4,0.4,2c0.6,2.5,0.8,3.5,0.2,5.7c-0.5,1.9-2.2,3.2-3.4,3.2c-0.3,0-0.6-0.1-0.8-0.3c-0.2-0.2-0.3-0.6-0.3-1.1l0-0.1
			c0.2-2.5,0.9-10.3-4.7-15.8c-5.6-5.6-6.8-7-6.7-8.1c0-1-1.9-9.4-5.4-12.4c-2.9-2.4-2.7-4.2-2.5-4.8l-15.2,2.5
			c1.5,1.7,1.3,4,0.4,7.1c-0.1,0.3-0.2,0.7-0.4,1.1C46.2,59,42.3,70.4,56,78.5c7.9,6.8,19.1,11.2,22.3,11.2c0,0,0,0,0,0
			C78.4,89.7,78.5,89.7,78.6,89.7L78.6,89.7z"/>
	</g>
	<g>
		<path class="st1" d="M41.3,33.6c0,0-2.6-3.8-2.3-9c0.3-5.1,1.9-6.8,3.1-6.8c1.1,0,1.5,1.3,3.1,2c1.6,0.7,4.1,2.4,4.5,4.3
			C50.2,26,41.3,33.6,41.3,33.6z"/>
		<path class="st2" d="M41.3,33.6c0,0-2.6-3.8-2.3-9c0.3-5.1,1.9-6.8,3.1-6.8c1.1,0,1.5,1.3,3.1,2c1.6,0.7,4.1,2.4,4.5,4.3
			C50.2,26,41.3,33.6,41.3,33.6z"/>
		<path class="st3" d="M41.3,33.8l-0.1-0.1c0,0-2.6-3.9-2.3-9.1c0.3-5.1,1.9-6.9,3.2-6.9c0.7,0,1.1,0.4,1.6,0.9
			c0.4,0.4,0.9,0.8,1.6,1.1c1.6,0.7,4.1,2.4,4.6,4.4c0.5,1.9-7.6,8.8-8.5,9.6L41.3,33.8z M42,18c-0.9,0-2.6,1.4-2.9,6.6
			c-0.3,4.5,1.7,8,2.2,8.8c2.5-2.2,8.6-7.8,8.3-9.2c-0.5-1.8-2.9-3.5-4.5-4.2c-0.8-0.3-1.3-0.8-1.7-1.2C43,18.3,42.6,18,42,18z"/>
	</g>
	<g>
		<path class="st7" d="M41.6,32.2c0,0-1.8-3-1.6-7c0.3-4,1.3-5.5,2.1-5.7c0.8-0.2,1.5,1.4,2.7,2.4c1.2,0.9,1.7,2.7,1.8,3.6
			C46.6,26.4,41.6,32.2,41.6,32.2z"/>
		<path class="st8" d="M41.6,32.2c0,0-0.9-2-0.9-6.4c0-4,0.6-5.1,1.5-5.3c0.8-0.2,1.4,0.4,2.6,1.3c1.2,0.9,1.7,2.7,1.8,3.6
			C46.6,26.4,41.6,32.2,41.6,32.2z"/>
		<path class="st9" d="M41.6,32.2c0,0,0-0.9,0.1-5.2c0-4,0.2-5.5,1-5.7c0.8-0.2,1-0.4,2.2,0.5c1.2,0.9,1.7,2.7,1.8,3.6
			C46.6,26.4,41.6,32.2,41.6,32.2z"/>
		<path class="st3" d="M41.6,32.5l-0.1-0.2c0,0-1.8-3.1-1.6-7.1c0.3-5,1.8-5.7,2.2-5.8c0.1,0,0.1,0,0.2,0c0.5,0,0.9,0.5,1.4,1.1
			c0.3,0.4,0.7,0.9,1.2,1.3c1.2,1,1.8,2.8,1.8,3.7c0,0.9-4.5,6.3-5,6.9L41.6,32.5z M42.3,19.6C42.3,19.6,42.2,19.6,42.3,19.6
			c-0.9,0.2-1.8,1.7-2.1,5.6c-0.2,3.4,1.1,6,1.4,6.7c1.9-2.3,4.8-5.9,4.8-6.5c0-0.9-0.6-2.6-1.7-3.5c-0.5-0.4-0.9-0.9-1.2-1.3
			C43.1,20.1,42.7,19.6,42.3,19.6z"/>
	</g>
	<g>
		<path class="st0" d="M68.1,36.5c0,0,0-0.5,0-4.4c0-3.9-5.3-10.3-15.2-9.5c-9.9,0.8-11.8,7.9-12,10.1c-0.2,2.2-0.8,4.2,0.3,8.1
			c1.1,3.9,6.3,5.9,6.3,5.9L58,47.6c0.9-1,5.8-2.1,7.8-3.5C67.7,42.7,69.1,38.5,68.1,36.5z"/>
		<path class="st1" d="M68.1,32.1c0-3.9-5.3-10.3-15.2-9.5c-9.9,0.8-11.8,7.9-12,10.1c-0.2,2.2-0.8,4.2,0.3,8.1
			c1.1,3.9,6.3,5.9,6.3,5.9L58,47.6c0.9-1,5.2-2.7,7.2-4.1c2-1.4,3-6.4,2-8.5C67.2,35.1,68.2,36,68.1,32.1z"/>
		<path class="st2" d="M68.1,32.1c0-3.9-5.3-10.3-15.2-9.5c-9.9,0.8-11.8,7.9-12,10.1c-0.2,2.2-0.8,4.2,0.3,8.1
			c1.1,3.9,6.3,5.9,6.3,5.9L58,47.6c0.9-1,3.4-2.7,5.4-4.1c2-1.4,4.6-6.7,3.6-8.7C66.9,34.8,68.2,36,68.1,32.1z"/>
		<path class="st0" d="M46.1,42.8c0,0,1,1.9,4.8,2.5c3.8,0.5,5.5-0.7,6.5-1.5C54.9,43.9,46.1,42.8,46.1,42.8z"/>
		<path class="st3" d="M58.1,47.7c0,0,1.6-1.2,3.2-1.8c1.6-0.6,3.4-1.2,4.4-2c2-1.4,3.3-5.5,2.3-7.4l0,0l0,0c0,0,0-0.6,0-4.4
			c0-1.8-1.2-4-3.1-5.8c-1.7-1.6-5.5-4.1-12-3.6c-10.7,0.9-11.8,9-11.8,10c0,0.4-0.1,0.8-0.1,1.1c-0.2,1.8-0.5,3.7,0.5,6.9
			c1.1,3.8,6.4,6,6.4,6l-0.3,0.1c-0.2-0.1-5.3-2.1-6.4-6c-1-3.3-0.7-5.2-0.5-7c0-0.4,0.1-0.8,0.1-1.1c0.1-1,1.2-9.3,12.1-10.2
			c6.5-0.5,10.4,2.1,12.2,3.7c1.9,1.8,3.2,4.1,3.2,6c0,3.4,0,4.2,0,4.4c1,2.1-0.4,6.2-2.5,7.8c-1,0.8-2.8,1.4-4.4,2
			C59.9,46.8,58.5,47.3,58.1,47.7z"/>
	</g>
	<g>
		<path class="st3" d="M53.1,48.4C53,48.4,53,48.4,53.1,48.4c-2.4-0.2-4.1-2.4-4.1-2.4c1.3,1.4,2.6,2.1,4,2.1c2.1,0,3.7-1.5,3.7-1.5
			C56.7,46.5,55.3,48.4,53.1,48.4z"/>
	</g>
	<g>
		<path class="st0" d="M80,88l-9.2-16.2c-6.3-0.4-8.9,5.5-8.7,9.5c0.1,4,1.4,6.2,4.1,7.7c0,0-1.4-0.4-3.4,0.1
			c-2,0.5-2.7,3.3-0.4,4.3c2.1,2.2,11.3,1.9,15.7,0C82.4,91.4,80,88,80,88z"/>
		<path class="st1" d="M78.8,91.8c1.1-0.6,1.6-1.6,1.7-2.7c-0.2-0.6-0.5-1-0.5-1l-3.6-6.2c-0.2-0.2-0.4-0.3-0.6-0.5
			c0.2,0.2,0.4,0.3,0.6,0.5l-5.7-10c-2.4-0.1-4.2,0.6-5.6,1.9c-3.5,3-3.2,9-0.8,12.6c1.8,2.7,6.4,4.2,9.7,3
			c-2.5,1.5-5.8,1.1-8.2-0.4c-0.5-0.1-1.7-0.2-3.1,0.2c-1.1,0.3-1.8,1.2-1.8,2.2c0.1,0.2,0.2,0.4,0.3,0.5
			C66.9,94.5,73.7,94.7,78.8,91.8z"/>
		<path class="st2" d="M78.5,91.1c1.1-0.6,1.4-2,1.5-3.1c-0.2-0.6,0,0,0,0l-3.6-6.2c-0.2-0.2-0.4-0.3-0.6-0.5
			c0.2,0.2,0.4,0.3,0.6,0.5l-5.7-10c-2.4-0.1-4.2,0.6-5.6,1.9c-3.5,3-3.2,9-0.8,12.6c1.8,2.7,6.4,4.2,9.7,3
			c-2.5,1.5-5.8,1.1-8.2-0.4c-0.5-0.1-1.7-0.2-3.1,0.2c-1.1,0.3-1.8,1.2-1.8,2.2c0.1,0.2,0.5-0.7,0.9-0.1
			C67.4,93.8,73.4,94.1,78.5,91.1z"/>
		<path class="st5" d="M76.4,72.7c-2.2,1.7-5.9,5.1-3.9,7.4c2,2.2,2.5,1.8,1.7,3.3c-0.7,1.5-0.9,3.6,1,4c1.9,0.4,1.1-1.8,2.4-0.8
			c1.2,0.9,3.3,1.2,4.7-0.4c-0.1-0.2-0.2-0.4-0.2-0.7c0-0.1,0-0.1,0-0.2c0.2-2.2-0.4-8-5.1-13.3C77,72.2,76.7,72.5,76.4,72.7z"/>
		<path class="st6" d="M82.2,85.2c0,0,0-0.1,0-0.1c-1.7-4.3-2.2-9.4-5.7-12.5c0,0-0.1,0.1-0.1,0.1c-2.2,1.7-5.9,5.1-3.9,7.4
			c2,2.2,2.5,1.8,1.7,3.3c-0.7,1.5-0.9,3.6,1,4c1.9,0.4,1.1-1.8,2.4-0.8c1.2,0.9,3.3,1.2,4.7-0.4c-0.1-0.2-0.2-0.4-0.2-0.7
			C82.2,85.4,82.2,85.3,82.2,85.2z"/>
		<path class="st3" d="M68.9,95c-3,0-5.7-0.5-6.7-1.6c-1-0.4-1.6-1.3-1.5-2.3c0.1-1.1,0.9-2,1.9-2.3c1.1-0.3,2.1-0.3,2.7-0.2
			c-2.3-1.5-3.4-3.8-3.5-7.4c-0.1-2.1,0.5-5.4,2.9-7.5c2.9-2.5,6-1.8,6-1.8c-2.3-0.1-4.2,0.6-5.8,2.1c-2.2,2.1-2.9,5.2-2.8,7.3
			c0.1,3.8,1.3,6.1,4,7.6l1.3,0.7l-1.4-0.4c0,0-1.4-0.4-3.3,0.1c-0.9,0.2-1.6,1.1-1.7,2c-0.1,0.9,0.4,1.6,1.4,2l0.1,0
			c2,2.2,11.3,1.8,15.5,0c1.4-0.6,2.2-1.4,2.5-2.4c0.4-1.4-0.5-2.7-0.5-2.7c0,0,1.2,1.2,0.8,2.8c-0.3,1.1-1.2,1.9-2.6,2.6
			C75.7,94.5,72.2,95,68.9,95z"/>
	</g>
	<g>
		<path class="st0" d="M63.7,74.5L56.3,73c0,0-1.9,4.6-1.5,16.9c-1.4,0-3.9,1.3-3.7,3.6c0.1,2.2,1.8,2.5,2.8,2.2
			c1,0.7,2.7,0.9,4.2,0.3c1.5,0.5,2.8,0.2,3.9-1.2c1.1-1.5,0.1-3.9,0-5.5C62.1,87.5,65.3,78.7,63.7,74.5z"/>
		<path class="st1" d="M63.2,74.5L56.3,73c0,0-1.9,4.6-1.5,16.9c-1.4,0-3.9,1.3-3.7,3.6c0.1,2.2,1.1,1.4,2.1,1.1
			c1,0.7,2.6,0.6,4.1,0c1.5,0.5,2.6,0.9,3.8-1.2c0.9-1.7-0.8-3.4-0.8-5.1C60.2,86.6,64.9,78.7,63.2,74.5z"/>
		<path class="st2" d="M63.3,71.9l-7,1c0,0-1.9,4.6-1.5,16.9c-1.4,0-3.9,1.3-3.7,3.6c0.1,2.2,1,0.4,2,0.1c1,0.7,3.2,0.6,4.7,0
			c1.5,0.5,1.4,1,2.6-1.1c0.9-1.7-0.8-2.5-0.9-4.1C59.5,86.7,65,76.1,63.3,71.9z"/>
		<path class="st3" d="M56.3,96.4c-0.9,0-1.7-0.2-2.4-0.6c-0.7,0.2-1.4,0.1-2-0.3c-0.6-0.4-0.9-1.1-1-2.1c-0.1-0.9,0.3-1.7,0.9-2.4
			c0.7-0.8,1.9-1.3,2.8-1.3c-0.1-4.8,0.1-8.4,0.4-11.1c0.5-4,1.4-5.6,1.4-5.6c0,0-1.8,4.7-1.5,16.8l0,0.2l-0.2,0c0,0,0,0,0,0
			c-0.7,0-1.9,0.4-2.7,1.2c-0.4,0.4-0.9,1.2-0.8,2.2c0.1,0.9,0.3,1.5,0.9,1.9c0.5,0.3,1.1,0.4,1.8,0.2l0.1,0l0.1,0
			c1.1,0.7,2.7,0.8,4.1,0.3l0.1,0l0.1,0c1.5,0.6,2.7,0.2,3.8-1.2c0.8-1,0.5-2.4,0.2-3.7c-0.1-0.6-0.2-1.2-0.2-1.7
			c0-0.5,0.2-1.6,0.6-3c0.9-3.5,2.1-9.1,1-12c0,0,0.6,0.8,0.7,2.4c0.2,3-0.8,6.9-1.4,9.6c-0.3,1.4-0.6,2.5-0.6,3
			c0,0.5,0.1,1,0.2,1.6c0.3,1.4,0.6,2.9-0.3,4c-1.1,1.5-2.4,1.9-4,1.3C57.6,96.3,57,96.4,56.3,96.4z"/>
	</g>
	<g>
		<path class="st3" d="M71.2,90.4c-1.7,0-3.8-0.3-5.6-1.5l0.2-0.3c4.2,2.7,9.4,0.9,9.5,0.9C75.2,89.5,73.5,90.4,71.2,90.4z"/>
	</g>
	<g>
		<path class="st3" d="M62.6,93.7c-0.1-1.2,0.2-2.1,0.9-2.7c1.2-1,3-0.2,3-0.2c0,0-1.8-0.5-2.8,0.4c-0.6,0.5-0.8,1.3-0.7,2.4
			L62.6,93.7z"/>
	</g>
	<g>
		<path class="st3" d="M58.3,96.1c-0.5-0.3-0.8-0.6-0.9-1.1c-0.3-1.2,1.1-2.6,1.1-2.6c0,0-1,1.4-0.8,2.5c0.1,0.4,0.3,0.7,0.7,0.9
			L58.3,96.1z"/>
	</g>
	<g>
		<path class="st3" d="M53.9,95.8c-0.5-0.5-0.8-1-0.8-1.6c0-1.4,1.4-2.7,1.4-2.8c0,0-1.2,1.5-1.1,2.8c0,0.5,0.2,1,0.7,1.4L53.9,95.8
			z"/>
	</g>
	<g>
		<path class="st3" d="M47.5,95.6c-0.4-0.4-0.7-1-0.7-1.6c0-1.4,1.7-2.5,1.7-2.5c0,0-1.3,1.2-1.4,2.5c0,0.5,0.2,0.9,0.6,1.3
			L47.5,95.6z"/>
	</g>
	<g>
		<path class="st3" d="M44.5,94.5c-0.8-2.1,0.8-3.4,0.8-3.4c0,0-1.3,1.4-0.6,3.3L44.5,94.5z"/>
	</g>
	<g>
		<path class="st0" d="M70.9,17.6c-3.2,0.1-7.9,7.2-7.9,7.2l5.1,11.8c0,0,1.9-3.8,3.1-6.5C72.5,27.4,74.1,17.4,70.9,17.6z"/>
		<path class="st1" d="M70.9,17.6c-3.2,0.1-7.9,7.2-7.9,7.2l4.7,10.8c0,0,1.9-3,3.1-5.7C71.9,27.2,74.1,17.4,70.9,17.6z"/>
		<path class="st2" d="M70.9,17.6c-3.2,0.1-7.9,7.2-7.9,7.2l3.9,10.1c0,0,2.1-2.5,3.3-5.2C71.4,27,74.1,17.4,70.9,17.6z"/>
		<path class="st3" d="M68.3,36.6L68,36.4c0,0,2-3.9,3.1-6.5c1-2.1,2.3-9.6,0.8-11.7c-0.3-0.4-0.6-0.6-1-0.6c-3.1,0.1-7.8,7-7.8,7.1
			l-0.2-0.2c0.2-0.3,4.8-7.1,8-7.2c0.5,0,1,0.2,1.3,0.7c1.5,2.3,0.2,9.8-0.8,12C70.2,32.7,68.3,36.5,68.3,36.6z"/>
	</g>
	<g>
		<path class="st7" d="M67.8,34.3c0,0,2.5-3.8,3.6-7.7c1-3.9,0.3-7.2-0.5-7.5c-0.8-0.3-5.1,4.1-6.2,8c0,0,0.1,0.8,0.9,0.4
			c0.9-0.4,1.6-0.3,2.4,0.4c-0.6-0.1-1,0.4-1,0.4c1,0.1,1.4,1.5,1.4,1.5c-0.3-0.4-1-0.4-1-0.4c0.5,0.8,0.6,1.8,0.4,2.5
			c-0.1-0.4-0.6-0.7-0.6-0.4C67.3,31.8,66.9,33.2,67.8,34.3z"/>
		<path class="st8" d="M70.9,20.5c-0.8-0.3-4.1,2.4-5.5,5.8c0,0-0.4,0.8-0.3,1.1c1.3-0.7,2.7-0.6,4-0.1c-2.7,0.9,0.3,1.8,0,3.9
			c-0.3-0.6-0.9-0.6-1.2-1.2c0,1.3-0.2,2.6-0.6,3.7c0.1,0.2,0.2,0.4,0.4,0.5c0,0,2.5-3.8,3.6-7.7C72.4,22.7,71.8,20.8,70.9,20.5z"/>
		<path class="st9" d="M71.3,21.3c-3,0-4.2,3-5.4,5.1c1.2-0.6,2.2-1.1,3.4-0.2c0.4,0.3,0.7,0.7,1.1,1.4c-0.6-0.3-1.5,0-1.5,0.3
			c-0.4,1.1,0.3,2.1,0.6,3.3c0.7-1.3,1.4-3,1.8-4.6c0.6-2.3,0.6-3.9,0.4-4.9C71.6,21.5,71.4,21.3,71.3,21.3z"/>
		<path class="st3" d="M67.8,34.3c0,0,2.4-4,3.5-7.8c1-3.8,0.3-7-0.5-7.3c-0.1,0-0.2,0-0.4,0.1c-1.5,0.8-4.8,4.4-5.7,7.7
			c0,0,0.4-1.9,0.9-2.8c1.4-2.5,3.6-4.6,4.7-5.2c0.3-0.2,0.5-0.2,0.7-0.1c1,0.3,1.7,3.8,0.6,7.6C70.5,30.5,67.8,34.3,67.8,34.3z"/>
	</g>
	<g>
		<path class="st3" d="M68.1,36.9c-0.2-1-1.2-2.1-1.2-2.1c0,0,1.4,0.9,1.5,2L68.1,36.9z"/>
	</g>
	<g>
		<path class="st1" d="M45.8,40.5c0,0-0.7,2.7,2.1,3.7c2.8,1,3.7-0.7,3.7-0.7c1.4,0.8,4.5,1.8,6.7-0.6L45.8,40.5z"/>
		<path class="st2" d="M45.8,40.5c0,0-0.7,2.7,2.1,3.7c2.8,1,3.7-0.7,3.7-0.7c1.4,0.8,4.5,1.8,6.7-0.6L45.8,40.5z"/>
		<path class="st3" d="M49.6,44.7c-0.5,0-1-0.1-1.7-0.3c-1.2-0.4-1.8-1.1-2-1.8c-0.4-1,0.1-2,0.1-2c0,0.1-0.7,2.6,2,3.5
			c2.7,0.9,3.5-0.6,3.6-0.6l0.1-0.1l0.1,0.1c1.3,0.8,4.4,1.7,6.6-0.6c0,0-1.1,1.3-1.8,1.5c-1.8,0.6-3.8,0-4.8-0.6
			C51.5,44,50.8,44.7,49.6,44.7z"/>
	</g>
	<g>
		<path class="st3" d="M51.5,43.6c-1.1-1.5-0.4-3.3-0.4-3.4l0.3,0.1c0,0-0.6,1.7,0.4,3.1L51.5,43.6z"/>
	</g>
	<g>
		<path class="st10" d="M51,41.4c0.7,0.2,0.8-1,2-1.3c1.5-0.4,2.2-1.7,0.3-2.3c-1.9-0.5-4.7-0.2-5.1,0.4c-0.3,0.6,0.5,1.5,1.3,2
			C50.4,40.7,50.6,41.2,51,41.4z"/>
		<path class="st8" d="M51,41.4c0.7,0.2,0-1.4,1.2-1.8c1.5-0.4,3-1.3,1.1-1.9c-1.9-0.5-4.7-0.2-5.1,0.4c-0.3,0.6,0.5,1.5,1.3,2
			C50.4,40.7,50.6,41.2,51,41.4z"/>
		<path class="st9" d="M51,41.4c0.7,0.2-0.5-1.8,0.7-2.1c1.5-0.4,3.5-1,1.6-1.5c-1.9-0.5-4.7-0.2-5.1,0.4c-0.3,0.6,0.5,1.5,1.3,2
			C50.4,40.7,50.6,41.2,51,41.4z"/>
		<path class="st11" d="M51.2,41.5L51.2,41.5c-0.1,0-0.1,0-0.2,0c-0.3-0.1-0.5-0.3-0.7-0.5c-0.2-0.2-0.5-0.5-0.9-0.7
			c-0.6-0.4-1.8-1.3-1.3-2.2c0.3-0.5,1.8-0.8,3.1-0.8c0.8,0,1.6,0.1,2.2,0.3c1.1,0.3,1.3,0.8,1.3,1.1c0,0.6-0.6,1.2-1.6,1.4
			c-0.6,0.2-0.9,0.5-1.1,0.8C51.7,41.3,51.5,41.5,51.2,41.5z M51.2,37.6c-1.5,0-2.6,0.3-2.8,0.6c-0.3,0.5,0.5,1.3,1.2,1.8
			c0.4,0.3,0.7,0.5,0.9,0.8c0.2,0.2,0.4,0.4,0.6,0.4c0.2,0.1,0.4-0.1,0.6-0.4c0.3-0.3,0.6-0.8,1.3-0.9c0.8-0.2,1.4-0.7,1.4-1.2
			c0-0.4-0.4-0.7-1-0.8C52.7,37.7,52,37.6,51.2,37.6z"/>
	</g>
	<g>
		<ellipse class="st2" cx="45.7" cy="33.5" rx="2" ry="2.7"/>
		<path class="st3" d="M45.7,36.3c-1.2,0-2.2-1.3-2.2-2.8c0-1.6,1-2.8,2.2-2.8c1.2,0,2.2,1.3,2.2,2.8C47.9,35.1,46.9,36.3,45.7,36.3
			z M45.7,31c-1,0-1.9,1.1-1.9,2.5c0,1.4,0.8,2.5,1.9,2.5c1,0,1.9-1.1,1.9-2.5C47.6,32.1,46.8,31,45.7,31z"/>
	</g>
	<g>
		<ellipse class="st12" cx="46.1" cy="33.6" rx="1.2" ry="1.6"/>
		<path class="st13" d="M47,32.6c-0.2-0.3-0.5-0.5-0.9-0.5c-0.7,0-1.2,0.7-1.2,1.6c0,0.4,0.1,0.8,0.3,1.1C46,34.1,46.9,33.5,47,32.6
			z"/>
		<path class="st14" d="M46.1,35.4c-0.7,0-1.3-0.8-1.3-1.7c0-1,0.6-1.7,1.3-1.7c0.7,0,1.3,0.8,1.3,1.7
			C47.4,34.6,46.8,35.4,46.1,35.4z M46.1,32.2c-0.6,0-1,0.7-1,1.4c0,0.8,0.5,1.4,1,1.4c0.6,0,1-0.7,1-1.4
			C47.1,32.8,46.7,32.2,46.1,32.2z"/>
	</g>
	<g>
		<ellipse cx="46.1" cy="33.6" rx="0.7" ry="0.9"/>
	</g>
	<g>
		<ellipse class="st2" cx="58" cy="33.5" rx="2" ry="2.7"/>
		<path class="st3" d="M58,36.3c-1.2,0-2.2-1.3-2.2-2.8c0-1.6,1-2.8,2.2-2.8c1.2,0,2.2,1.3,2.2,2.8C60.2,35.1,59.2,36.3,58,36.3z
			 M58,31c-1,0-1.9,1.1-1.9,2.5c0,1.4,0.8,2.5,1.9,2.5c1,0,1.9-1.1,1.9-2.5C59.9,32.1,59,31,58,31z"/>
	</g>
	<g>
		<ellipse class="st12" cx="58.3" cy="33.6" rx="1.2" ry="1.6"/>
		<path class="st13" d="M59.2,32.5C59,32.2,58.7,32,58.3,32c-0.7,0-1.2,0.7-1.2,1.6c0,0.5,0.1,0.9,0.4,1.2
			C58.4,34.2,58.9,33.4,59.2,32.5z"/>
		<path class="st14" d="M58.3,35.4c-0.7,0-1.3-0.8-1.3-1.7c0-1,0.6-1.7,1.3-1.7c0.7,0,1.3,0.8,1.3,1.7
			C59.7,34.6,59.1,35.4,58.3,35.4z M58.3,32.2c-0.6,0-1,0.7-1,1.4c0,0.8,0.5,1.4,1,1.4c0.6,0,1-0.7,1-1.4
			C59.4,32.8,58.9,32.2,58.3,32.2z"/>
	</g>
	<g>
		<ellipse cx="58.3" cy="33.6" rx="0.7" ry="0.9"/>
	</g>
	<g>
		<path class="st15" d="M44.4,28.4c0,0,1.4-1.7,3.4-1C47.2,26,44.9,26.4,44.4,28.4z"/>
	</g>
	<g>
		<path class="st15" d="M57.4,27.3c0,0,2.3-0.2,3,1.8C61,27.2,58.4,25.8,57.4,27.3z"/>
	</g>
	<g>
		<g>
			<path class="st5" d="M82.2,85.4c0-0.1,0-0.1,0-0.2C82.2,85.3,82.2,85.4,82.2,85.4z"/>
		</g>
	</g>
	<circle class="st2" cx="45.9" cy="33.2" r="0.5"/>
	<circle class="st2" cx="45.4" cy="34.1" r="0.3"/>
	<circle class="st2" cx="58.1" cy="32.9" r="0.5"/>
	<circle class="st2" cx="57.6" cy="33.8" r="0.3"/>
	<path class="st16" d="M48.8,39c0,0-0.5-1,2.6-1.1C49.3,37.5,48.3,38.3,48.8,39z"/>
</g>
</svg>
