<?xml version="1.0" encoding="utf-8"?>
<!-- Generator: Adobe Illustrator 21.0.2, SVG Export Plug-In . SVG Version: 6.00 Build 0)  -->
<svg version="1.1" id="Слой_1" xmlns="http://www.w3.org/2000/svg" xmlns:xlink="http://www.w3.org/1999/xlink" x="0px" y="0px"
	 viewBox="0 0 150 140" style="enable-background:new 0 0 150 140;" xml:space="preserve">
<style type="text/css">
	.st0{fill:url(#SVGID_1_);}
	.st1{fill:url(#SVGID_2_);}
	.st2{fill:url(#SVGID_3_);}
	.st3{opacity:0.5;fill:url(#SVGID_4_);}
	.st4{fill:#FFFFFF;}
	.st5{fill:url(#SVGID_5_);}
	.st6{fill:url(#SVGID_6_);}
	.st7{fill:#FFFFAD;}
	.st8{fill:url(#SVGID_7_); }
	.st9{fill:url(#SVGID_8_);}
	.st10{fill:url(#SVGID_9_);}
	.st11{fill:url(#SVGID_10_);}
	.st12{fill:url(#SVGID_11_);}
	.st13{fill:url(#SVGID_12_);}
	.st14{fill:url(#SVGID_13_);}
	.st15{fill:url(#SVGID_14_);}
	.st16{fill:url(#SVGID_15_);}
	.st17{fill:url(#SVGID_16_);}
	.st18{fill:url(#SVGID_17_);}
	.st19{fill:url(#SVGID_18_);}
	.st20{fill:url(#SVGID_19_);}
</style>
<g>
	<linearGradient id="SVGID_1_" gradientUnits="userSpaceOnUse" x1="74.4597" y1="137.3083" x2="74.4597" y2="3.1">
		<stop  offset="0" style="stop-color:#2B4BBC"/>
		<stop  offset="1" style="stop-color:#4981BE"/>
	</linearGradient>
	<path class="st0" d="M6.6,9.6C0.1,14,0,129.6,4.5,134.4c3.1,3.3,133,4.4,138.6,0.4c5.4-3.9,6-125.7,1.3-129.6
		C138.7,0.5,14.4,4.5,6.6,9.6z"/>
	<linearGradient id="SVGID_2_" gradientUnits="userSpaceOnUse" x1="74.4597" y1="136.0839" x2="74.4597" y2="2.7128">
		<stop  offset="0" style="stop-color:#86EDEF"/>
		<stop  offset="1" style="stop-color:#5596FB"/>
	</linearGradient>
	<path class="st1" d="M6.6,9.2C0.1,13.5,0,128.4,4.5,133.1c3.1,3.3,133,4.3,138.6,0.4c5.4-3.8,6-124.9,1.3-128.8
		C138.7,0.1,14.4,4.1,6.6,9.2z"/>
	<radialGradient id="SVGID_3_" cx="74.2724" cy="69.2792" r="69.226" gradientUnits="userSpaceOnUse">
		<stop  offset="0" style="stop-color:#172AA8"/>
		<stop  offset="1" style="stop-color:#4E8AC6"/>
	</radialGradient>
	<path class="st2" d="M7.6,10.1c-6.5,4.3-8.3,116.6-2.1,122.2c3.3,3,130.9,3.9,136.6,0.4c6.4-3.9,6-123.2,1.3-127
		C137.8,1.1,15.3,5,7.6,10.1z"/>
	<linearGradient id="SVGID_4_" gradientUnits="userSpaceOnUse" x1="9.7012" y1="18.3579" x2="141.2144" y2="18.3579">
		<stop  offset="0" style="stop-color:#4A776E"/>
		<stop  offset="0.1845" style="stop-color:#40675F"/>
		<stop  offset="0.5455" style="stop-color:#263D38"/>
		<stop  offset="1" style="stop-color:#000000"/>
	</linearGradient>
	<path class="st3" d="M9.7,10.8c0,0,9.6,20.1,38.4,21.5c28.8,1.4,49.8-12.8,65.7-18c15.9-5.2,27.4-8.4,27.4-8.4S68.5,0.3,9.7,10.8z"
		/>
	<path class="st4" d="M7.2,14.7c0,0-0.3-2.6,0.9-3.6c1.2-1,8.5-2.2,8.8-1.9C17.4,9.5,10.8,15.1,7.2,14.7z"/>
	<path class="st4" d="M7.2,15.9c-0.9-0.3-1.1,3-0.3,3.2C7.7,19.2,8.1,16.2,7.2,15.9z"/>
	<linearGradient id="SVGID_5_" gradientUnits="userSpaceOnUse" x1="11.6051" y1="128.9314" x2="142.0421" y2="128.9314">
		<stop  offset="0" style="stop-color:#000000"/>
		<stop  offset="0.4545" style="stop-color:#263D38"/>
		<stop  offset="0.8155" style="stop-color:#40675F"/>
		<stop  offset="1" style="stop-color:#4A776E"/>
	</linearGradient>
	<path class="st5" d="M11.6,130.5c0,0,58.7-1.9,79-5.9c20.2-4,49.7-0.6,51.5,6.9C142,131.5,64.7,140,11.6,130.5z"/>
	<path class="st4" d="M137.4,132.2c0.1,1,4.2-0.4,4.9-1.2c0.7-0.8,1.2-4,0.8-4.3C142.7,126.3,137.3,131.2,137.4,132.2z"/>
	<g>
		<g>

				<radialGradient id="SVGID_6_" cx="493.3414" cy="-447.9659" r="1.5262" gradientTransform="matrix(-5.960000e-02 -0.9982 0.9982 -5.960000e-02 503.5293 540.0949)" gradientUnits="userSpaceOnUse">
				<stop  offset="0" style="stop-color:#64B05F"/>
				<stop  offset="0.1176" style="stop-color:#52914E"/>
				<stop  offset="0.3349" style="stop-color:#355E33"/>
				<stop  offset="0.5391" style="stop-color:#1E351D"/>
				<stop  offset="0.7242" style="stop-color:#0E180D"/>
				<stop  offset="0.8839" style="stop-color:#040603"/>
				<stop  offset="1" style="stop-color:#000000"/>
			</radialGradient>
			<circle class="st6" cx="27" cy="74.3" r="1.5"/>

				<ellipse transform="matrix(0.9982 -5.964544e-02 5.964544e-02 0.9982 -4.3854 1.7478)" class="st7" cx="27.1" cy="74.3" rx="0.4" ry="0.4"/>
		</g>
		<g>

				<radialGradient id="SVGID_7_" cx="499.7582" cy="-445.5057" r="1.5262" gradientTransform="matrix(-5.960000e-02 -0.9982 0.9982 -5.960000e-02 503.5293 540.0949)" gradientUnits="userSpaceOnUse">
				<stop  offset="0" style="stop-color:#64B05F"/>
				<stop  offset="0.1176" style="stop-color:#52914E"/>
				<stop  offset="0.3349" style="stop-color:#355E33"/>
				<stop  offset="0.5391" style="stop-color:#1E351D"/>
				<stop  offset="0.7242" style="stop-color:#0E180D"/>
				<stop  offset="0.8839" style="stop-color:#040603"/>
				<stop  offset="1" style="stop-color:#000000"/>
			</radialGradient>
			<circle class="st8" cx="29" cy="67.8" r="1.5"/>

				<ellipse transform="matrix(0.9982 -5.963057e-02 5.963057e-02 0.9982 -3.99 1.8593)" class="st7" cx="29.2" cy="67.8" rx="0.4" ry="0.4"/>
		</g>
		<g>

				<radialGradient id="SVGID_8_" cx="481.0662" cy="-447.8471" r="1.5263" gradientTransform="matrix(-5.960000e-02 -0.9982 0.9982 -5.960000e-02 503.5293 540.0949)" gradientUnits="userSpaceOnUse">
				<stop  offset="0" style="stop-color:#64B05F"/>
				<stop  offset="0.1176" style="stop-color:#52914E"/>
				<stop  offset="0.3349" style="stop-color:#355E33"/>
				<stop  offset="0.5391" style="stop-color:#1E351D"/>
				<stop  offset="0.7242" style="stop-color:#0E180D"/>
				<stop  offset="0.8839" style="stop-color:#040603"/>
				<stop  offset="1" style="stop-color:#000000"/>
			</radialGradient>
			<circle class="st9" cx="27.8" cy="86.6" r="1.5"/>

				<ellipse transform="matrix(0.9982 -5.963057e-02 5.963057e-02 0.9982 -5.1131 1.8199)" class="st7" cx="27.9" cy="86.6" rx="0.4" ry="0.4"/>
		</g>
		<g>

				<radialGradient id="SVGID_9_" cx="500.8616" cy="-453.6975" r="4.2708" gradientTransform="matrix(-5.960000e-02 -0.9982 0.9982 -5.960000e-02 503.5293 540.0949)" gradientUnits="userSpaceOnUse">
				<stop  offset="0" style="stop-color:#64B05F"/>
				<stop  offset="0.1176" style="stop-color:#52914E"/>
				<stop  offset="0.3349" style="stop-color:#355E33"/>
				<stop  offset="0.5391" style="stop-color:#1E351D"/>
				<stop  offset="0.7242" style="stop-color:#0E180D"/>
				<stop  offset="0.8839" style="stop-color:#040603"/>
				<stop  offset="1" style="stop-color:#000000"/>
			</radialGradient>
			<circle class="st10" cx="20.8" cy="67.2" r="4.3"/>

				<ellipse transform="matrix(0.9982 -5.961676e-02 5.961676e-02 0.9982 -3.966 1.379)" class="st7" cx="21.1" cy="67.2" rx="1.2" ry="1.2"/>
		</g>
		<g>

				<radialGradient id="SVGID_10_" cx="464.7613" cy="-368.0425" r="4.2708" gradientTransform="matrix(-5.960000e-02 -0.9982 0.9982 -5.960000e-02 503.5293 540.0949)" gradientUnits="userSpaceOnUse">
				<stop  offset="0" style="stop-color:#64B05F"/>
				<stop  offset="0.1176" style="stop-color:#52914E"/>
				<stop  offset="0.3349" style="stop-color:#355E33"/>
				<stop  offset="0.5391" style="stop-color:#1E351D"/>
				<stop  offset="0.7242" style="stop-color:#0E180D"/>
				<stop  offset="0.8839" style="stop-color:#040603"/>
				<stop  offset="1" style="stop-color:#000000"/>
			</radialGradient>
			<circle class="st11" cx="108.4" cy="98.1" r="4.3"/>

				<ellipse transform="matrix(0.9982 -5.961676e-02 5.961676e-02 0.9982 -5.6541 6.6596)" class="st7" cx="108.8" cy="98.1" rx="1.2" ry="1.2"/>
		</g>
		<g>

				<radialGradient id="SVGID_11_" cx="467.719" cy="-345.9209" r="2.0399" gradientTransform="matrix(-5.960000e-02 -0.9982 0.9982 -5.960000e-02 503.5293 540.0949)" gradientUnits="userSpaceOnUse">
				<stop  offset="0" style="stop-color:#64B05F"/>
				<stop  offset="0.1176" style="stop-color:#52914E"/>
				<stop  offset="0.3349" style="stop-color:#355E33"/>
				<stop  offset="0.5391" style="stop-color:#1E351D"/>
				<stop  offset="0.7242" style="stop-color:#0E180D"/>
				<stop  offset="0.8839" style="stop-color:#040603"/>
				<stop  offset="1" style="stop-color:#000000"/>
			</radialGradient>
			<circle class="st12" cx="130.4" cy="93.8" r="2"/>

				<ellipse transform="matrix(0.9982 -5.957826e-02 5.957826e-02 0.9982 -5.3581 7.9424)" class="st7" cx="130.5" cy="93.8" rx="0.6" ry="0.6"/>
		</g>
		<g>

				<radialGradient id="SVGID_12_" cx="469.8218" cy="-443.4789" r="2.0399" gradientTransform="matrix(-5.960000e-02 -0.9982 0.9982 -5.960000e-02 503.5293 540.0949)" gradientUnits="userSpaceOnUse">
				<stop  offset="0" style="stop-color:#64B05F"/>
				<stop  offset="0.1176" style="stop-color:#52914E"/>
				<stop  offset="0.3349" style="stop-color:#355E33"/>
				<stop  offset="0.5391" style="stop-color:#1E351D"/>
				<stop  offset="0.7242" style="stop-color:#0E180D"/>
				<stop  offset="0.8839" style="stop-color:#040603"/>
				<stop  offset="1" style="stop-color:#000000"/>
			</radialGradient>
			<circle class="st13" cx="32.8" cy="97.6" r="2"/>

				<ellipse transform="matrix(0.9982 -5.967773e-02 5.967773e-02 0.9982 -5.7622 2.1435)" class="st7" cx="33" cy="97.5" rx="0.6" ry="0.6"/>
		</g>
		<g>

				<radialGradient id="SVGID_13_" cx="474.9572" cy="-384.5685" r="1.0199" gradientTransform="matrix(-5.960000e-02 -0.9982 0.9982 -5.960000e-02 503.5293 540.0949)" gradientUnits="userSpaceOnUse">
				<stop  offset="0" style="stop-color:#64B05F"/>
				<stop  offset="0.1176" style="stop-color:#52914E"/>
				<stop  offset="0.3349" style="stop-color:#355E33"/>
				<stop  offset="0.5391" style="stop-color:#1E351D"/>
				<stop  offset="0.7242" style="stop-color:#0E180D"/>
				<stop  offset="0.8839" style="stop-color:#040603"/>
				<stop  offset="1" style="stop-color:#000000"/>
			</radialGradient>
			<circle class="st14" cx="91.3" cy="88.9" r="1"/>

				<ellipse transform="matrix(0.9982 -5.966647e-02 5.966647e-02 0.9982 -5.142 5.6134)" class="st7" cx="91.4" cy="88.9" rx="0.3" ry="0.3"/>
		</g>
		<g>

				<radialGradient id="SVGID_14_" cx="466.5451" cy="-461.8792" r="1.0199" gradientTransform="matrix(-5.960000e-02 -0.9982 0.9982 -5.960000e-02 503.5293 540.0949)" gradientUnits="userSpaceOnUse">
				<stop  offset="0" style="stop-color:#64B05F"/>
				<stop  offset="0.1176" style="stop-color:#52914E"/>
				<stop  offset="0.3349" style="stop-color:#355E33"/>
				<stop  offset="0.5391" style="stop-color:#1E351D"/>
				<stop  offset="0.7242" style="stop-color:#0E180D"/>
				<stop  offset="0.8839" style="stop-color:#040603"/>
				<stop  offset="1" style="stop-color:#000000"/>
			</radialGradient>
			<circle class="st15" cx="14.7" cy="101.9" r="1"/>

				<ellipse transform="matrix(0.9982 -5.947954e-02 5.947954e-02 0.9982 -6.0356 1.058)" class="st7" cx="14.8" cy="101.9" rx="0.3" ry="0.3"/>
		</g>
		<g>

				<radialGradient id="SVGID_15_" cx="482.3144" cy="-432.2279" r="1.0199" gradientTransform="matrix(-5.960000e-02 -0.9982 0.9982 -5.960000e-02 503.5293 540.0949)" gradientUnits="userSpaceOnUse">
				<stop  offset="0" style="stop-color:#64B05F"/>
				<stop  offset="0.1176" style="stop-color:#52914E"/>
				<stop  offset="0.3349" style="stop-color:#355E33"/>
				<stop  offset="0.5391" style="stop-color:#1E351D"/>
				<stop  offset="0.7242" style="stop-color:#0E180D"/>
				<stop  offset="0.8839" style="stop-color:#040603"/>
				<stop  offset="1" style="stop-color:#000000"/>
			</radialGradient>
			<circle class="st16" cx="43.3" cy="84.4" r="1"/>

				<ellipse transform="matrix(0.9982 -5.966647e-02 5.966647e-02 0.9982 -4.9588 2.7406)" class="st7" cx="43.4" cy="84.4" rx="0.3" ry="0.3"/>
		</g>
		<g>

				<radialGradient id="SVGID_16_" cx="467.4391" cy="-447.3055" r="0.7604" gradientTransform="matrix(-5.960000e-02 -0.9982 0.9982 -5.960000e-02 503.5293 540.0949)" gradientUnits="userSpaceOnUse">
				<stop  offset="0" style="stop-color:#64B05F"/>
				<stop  offset="0.1176" style="stop-color:#52914E"/>
				<stop  offset="0.3349" style="stop-color:#355E33"/>
				<stop  offset="0.5391" style="stop-color:#1E351D"/>
				<stop  offset="0.7242" style="stop-color:#0E180D"/>
				<stop  offset="0.8839" style="stop-color:#040603"/>
				<stop  offset="1" style="stop-color:#000000"/>
			</radialGradient>
			<circle class="st17" cx="29.2" cy="100.2" r="0.8"/>

				<ellipse transform="matrix(0.9982 -5.962887e-02 5.962887e-02 0.9982 -5.92 1.9211)" class="st7" cx="29.2" cy="100.2" rx="0.2" ry="0.2"/>
		</g>
		<g>

				<radialGradient id="SVGID_17_" cx="461.4207" cy="-394.6793" r="1.5932" gradientTransform="matrix(-5.960000e-02 -0.9982 0.9982 -5.960000e-02 503.5293 540.0949)" gradientUnits="userSpaceOnUse">
				<stop  offset="0" style="stop-color:#64B05F"/>
				<stop  offset="0.1176" style="stop-color:#52914E"/>
				<stop  offset="0.3349" style="stop-color:#355E33"/>
				<stop  offset="0.5391" style="stop-color:#1E351D"/>
				<stop  offset="0.7242" style="stop-color:#0E180D"/>
				<stop  offset="0.8839" style="stop-color:#040603"/>
				<stop  offset="1" style="stop-color:#000000"/>
			</radialGradient>
			<circle class="st18" cx="82.1" cy="103" r="1.6"/>

				<ellipse transform="matrix(0.9982 -5.961898e-02 5.961898e-02 0.9982 -5.9958 5.0829)" class="st7" cx="82.2" cy="103" rx="0.4" ry="0.4"/>
		</g>
		<g>

				<radialGradient id="SVGID_18_" cx="462.277" cy="-428.2651" r="1.5931" gradientTransform="matrix(-5.960000e-02 -0.9982 0.9982 -5.960000e-02 503.5293 540.0949)" gradientUnits="userSpaceOnUse">
				<stop  offset="0" style="stop-color:#64B05F"/>
				<stop  offset="0.1176" style="stop-color:#52914E"/>
				<stop  offset="0.3349" style="stop-color:#355E33"/>
				<stop  offset="0.5391" style="stop-color:#1E351D"/>
				<stop  offset="0.7242" style="stop-color:#0E180D"/>
				<stop  offset="0.8839" style="stop-color:#040603"/>
				<stop  offset="1" style="stop-color:#000000"/>
			</radialGradient>
			<circle class="st19" cx="48.5" cy="104.2" r="1.6"/>

				<ellipse transform="matrix(0.9982 -5.964058e-02 5.964058e-02 0.9982 -6.1261 3.0844)" class="st7" cx="48.6" cy="104.2" rx="0.4" ry="0.4"/>
		</g>
	</g>
</g>
<linearGradient id="SVGID_19_" gradientUnits="userSpaceOnUse" x1="36.0146" y1="110.8073" x2="121.1209" y2="110.8073">
	<stop  offset="0" style="stop-color:#345B9F"/>
	<stop  offset="0.3308" style="stop-color:#8199C3"/>
	<stop  offset="0.6516" style="stop-color:#C5D0E3"/>
	<stop  offset="0.8822" style="stop-color:#EFF2F7"/>
	<stop  offset="1" style="stop-color:#FFFFFF"/>
</linearGradient>
<ellipse class="st20" cx="78.6" cy="110.8" rx="42.6" ry="3.8"/>
</svg>
