<?xml version="1.0" encoding="utf-8"?>
<!-- Generator: Adobe Illustrator 21.0.2, SVG Export Plug-In . SVG Version: 6.00 Build 0)  -->
<svg version="1.1" id="Слой_1" xmlns="http://www.w3.org/2000/svg" xmlns:xlink="http://www.w3.org/1999/xlink" x="0px" y="0px"
	 viewBox="0 0 130 114" style="enable-background:new 0 0 130 114;" xml:space="preserve">
<style type="text/css">
	.st0{fill:#FAA100;}
	.st1{fill:#CD7900;}
	.st2{fill:#FFAC00;}
	.st3{fill:#FFCF00;}
	.st4{fill:#FF8B00;}
	.st5{fill:#FF8600;}
	.st6{fill:#FFA400;}
	.st7{fill:#F4D453;}
	.st8{fill:#FF6800;}
	.st9{fill:#FFDB8E;}
	.st10{fill:#FFFFFF;}
</style>
<g>
	<g>
		<path class="st0" d="M54.2,56.8c0.1,0.8,0.5,3,0.5,3c-0.6,0-2.1,0-2.1,0.6c0,0.6,1.7,0.6,2,0.6c0.5,0.8,2.1,2.1,2.5,1.9
			c0.4-0.2-0.3-1.1-0.7-1.4c0.7,0.3,2.5,1.1,2.7,0.6c0.2-0.5-1.5-1.1-2-1.3c0.6,0.1,1.4,0,1.4-0.4c0-0.4-1.4-0.5-2.6-0.5
			c-0.2-0.8-0.5-3.1-0.4-3.4C55.4,56.3,54.1,56.2,54.2,56.8z"/>
		<path class="st1" d="M54.5,61.1c0,0-0.1,0-0.1,0c-0.2,0-0.6,0-0.9-0.1c-0.3,0-1-0.2-1.1-0.7c0-0.1,0-0.3,0.1-0.4
			c0.4-0.4,1.4-0.4,1.9-0.4c-0.1-0.6-0.5-2.2-0.5-2.8c0-0.1,0-0.3,0.1-0.4c0.2-0.2,0.7-0.2,1-0.2c0.2,0,0.4,0.1,0.5,0.2l0,0.1l0,0.1
			c-0.1,0.3,0.2,2.4,0.3,3.2c0.5,0,1.1,0,1.5,0.1c0.7,0.1,1.1,0.3,1.1,0.6c0,0.1,0,0.2-0.1,0.3c-0.1,0.1-0.4,0.2-0.6,0.2
			c0.5,0.2,1.2,0.6,1.3,0.9c0.1,0.1,0,0.2,0,0.3c-0.1,0.3-0.6,0.2-0.8,0.2C58,62.3,57.5,62.2,57,62c0.2,0.2,0.3,0.5,0.3,0.7
			c0,0.2-0.1,0.3-0.2,0.3c-0.1,0-0.2,0.1-0.3,0C56.3,63,55,61.8,54.5,61.1z M58.5,62.1c0.3,0,0.4,0,0.4,0c0,0,0,0,0-0.1
			c-0.1-0.3-1.3-0.8-1.9-1l0.1-0.3c0.5,0.1,1,0,1.2-0.2c0,0,0,0,0,0c0,0-0.2-0.2-0.8-0.3c-0.5-0.1-1.1-0.1-1.6-0.1l-0.1,0l0-0.1
			c-0.1-0.7-0.4-2.8-0.4-3.4c0,0-0.1,0-0.2,0c-0.3,0-0.6,0-0.8,0.1c0,0,0,0.1,0,0.1c0.1,0.7,0.5,3,0.5,3l0,0.2l-0.2,0
			c-0.6,0-1.6,0-1.9,0.3c0,0-0.1,0.1-0.1,0.1c0,0.2,0.3,0.3,0.8,0.4c0.3,0,0.6,0.1,0.8,0.1c0.1,0,0.1,0,0.2,0l0.1,0l0,0.1
			c0.4,0.7,1.7,1.8,2.2,1.9c0,0,0.1,0,0.1,0c0,0,0,0,0-0.1c0-0.3-0.4-0.9-0.8-1l0.2-0.3C56.9,61.6,57.9,62,58.5,62.1z"/>
	</g>
	<g>
		<path class="st0" d="M58.1,55.1c0.1,0.7,0.7,2.8,0.7,2.8c-0.5,0-1.9,0.2-1.8,0.7c0.1,0.6,1.5,0.4,1.8,0.4c0.5,0.7,2,1.9,2.3,1.6
			c0.3-0.2-0.3-1.1-0.7-1.3c0.6,0.3,2.3,0.8,2.5,0.4c0.2-0.4-1.4-0.9-1.9-1.1c0.5,0,1.3-0.1,1.2-0.4c0-0.3-1.3-0.4-2.3-0.3
			c-0.2-0.7-0.6-2.9-0.6-3.2C59.2,54.6,58,54.6,58.1,55.1z"/>
		<path class="st1" d="M58.7,59.2C58.7,59.2,58.7,59.2,58.7,59.2c-0.3,0-0.8,0-1.1,0c-0.5-0.1-0.7-0.3-0.8-0.5c0-0.1,0-0.3,0.1-0.4
			c0.3-0.4,1.2-0.5,1.7-0.5c-0.1-0.5-0.6-2-0.6-2.6c0-0.1,0-0.3,0.1-0.4c0.2-0.2,0.7-0.3,1-0.2c0.2,0,0.3,0.1,0.3,0.2l0,0.1l0,0.1
			c-0.1,0.3,0.3,2.2,0.5,3c0.6-0.1,1.3-0.1,1.7,0c0.3,0,0.7,0.1,0.7,0.4c0,0.1,0,0.2-0.1,0.3c-0.1,0.1-0.3,0.2-0.5,0.2
			c0.5,0.2,1.1,0.4,1.2,0.7c0.1,0.1,0.1,0.2,0,0.3c-0.1,0.4-0.7,0.3-0.9,0.2c-0.3,0-0.7-0.1-1-0.3c0.2,0.2,0.3,0.4,0.3,0.6
			c0,0.1,0,0.3-0.1,0.3c-0.1,0.1-0.2,0.1-0.3,0.1C60.4,60.7,59.2,59.8,58.7,59.2z M61.1,60.5C61.1,60.5,61.1,60.5,61.1,60.5
			c0-0.3-0.4-0.8-0.7-1l0.1-0.3c0.4,0.2,1.1,0.4,1.7,0.5c0.4,0.1,0.6,0,0.6,0c0,0,0,0,0,0c-0.2-0.3-1.2-0.7-1.8-0.8l0-0.3
			c0.5,0,0.9-0.1,1-0.2c0,0,0,0,0,0l0,0c0,0-0.1-0.1-0.4-0.1c-0.4-0.1-1.1-0.1-1.7,0l-0.1,0l0-0.1c-0.2-0.6-0.6-2.6-0.6-3.2
			c0,0-0.1,0-0.1,0c-0.2,0-0.6,0-0.7,0.1c0,0,0,0.1,0,0.1c0.1,0.7,0.7,2.8,0.7,2.8l0.1,0.2l-0.2,0c-0.5,0-1.4,0.1-1.6,0.4
			c0,0-0.1,0.1,0,0.1c0,0.2,0.3,0.2,0.5,0.3c0.3,0,0.7,0,1,0c0.1,0,0.1,0,0.2,0h0.1l0,0.1C59.4,59.5,60.5,60.5,61.1,60.5
			C61,60.5,61.1,60.5,61.1,60.5L61.1,60.5z"/>
	</g>
	<g>
		<path class="st2" d="M57.7,47.5c-1.5-1.1-5.6,0-7.9,1.6c-1.2,0.5-2.3-0.6-2.7-0.3c-0.1,2.9,2.6,6.3,6,7.7c0.2,1.2,2.4,2.2,3.6,0.3
			c3,0.2,5.7-0.8,6.7-4c1-3.2-1.7-4.9-1.7-7.2c0.7-0.3,2.2-1.5,2.5-2.4c0-0.4,0.2-2,0.6-2.5c-0.6-2.2-2.4-3.9-5.2-4.1
			c-2.8-0.2-4.9,2.2-5,4.7C54.6,44.2,56.9,45.1,57.7,47.5z"/>
		<path class="st3" d="M49.8,49c2.3-1.5,7.3-1.2,8.7-0.1c0.2-2.4-3.1-4.8-3.1-7.9c0-2.5,1.3-4.7,4.1-4.5c2.8,0.2,4.6,1.9,5.2,4.1
			c-0.1,0.2-0.3,0.5-0.4,0.9c-1.1,3.1-5,4.5-8.1,2.1c1.4,2.2,4,2.6,5.9,3.9c0.7,1.5,1.8,2.9,0.7,5c-0.9,1.8-2.7,2.8-5.7,2.6
			c-1.2,1.9-3.7,1.1-3.9-0.1c-3.4-1.3-6.5-3.3-6.3-6.2C47.5,48.5,48.6,49.5,49.8,49z"/>
		<path class="st4" d="M53,56.5c-3.5-1.4-6.2-4.8-6.1-7.8l0-0.1l0.1,0c0.2-0.2,0.6-0.1,1,0.1c0.3,0.1,0.6,0.2,0.9,0.2
			c0.3,0,0.6,0,0.9-0.1c1.8-1.2,4.9-2.3,6.9-2c0.3,0,0.5,0.1,0.7,0.2c-0.3-0.7-0.8-1.3-1.2-1.9c-0.8-1-1.7-2.1-1.7-4
			c0-1.3,0.6-2.6,1.6-3.6c1-0.9,2.2-1.3,3.5-1.2c2.7,0.2,4.6,1.7,5.3,4.2l0,0.1l0,0.1c-0.4,0.5-0.6,2-0.5,2.4l0,0l0,0
			c-0.3,1-1.7,2.2-2.5,2.5c0,0.9,0.4,1.6,0.9,2.5c0.7,1.3,1.4,2.7,0.8,4.7c-0.9,2.8-3.2,4.3-6.8,4.1c-0.5,0.8-1.3,1.2-2.1,1
			C53.8,57.8,53.1,57.2,53,56.5z M64.6,40.6c-0.6-2.3-2.5-3.7-5-3.9c-1.2-0.1-2.4,0.3-3.3,1.2c-0.9,0.9-1.5,2.1-1.5,3.3
			c0,1.8,0.8,2.8,1.6,3.8c0.6,0.7,1.1,1.4,1.5,2.4l0.2,0.5l-0.4-0.3c-0.2-0.2-0.6-0.3-1-0.4c-1.9-0.3-5,0.8-6.7,2l0,0
			c-0.3,0.1-0.7,0.2-1.1,0.1c-0.3,0-0.7-0.2-0.9-0.3c-0.3-0.1-0.5-0.2-0.6-0.2c-0.1,2.8,2.6,6.1,5.9,7.4l0.1,0l0,0.1
			c0.1,0.6,0.7,1.1,1.4,1.2c0.4,0.1,1.2,0,1.9-1l0.1-0.1l0.1,0c2.4,0.1,5.5-0.4,6.5-3.8c0.6-1.9-0.1-3.2-0.8-4.5
			c-0.5-0.9-0.9-1.7-0.9-2.7v-0.1l0.1,0c0.7-0.2,2.1-1.4,2.4-2.3C64,42.6,64.2,41.2,64.6,40.6z"/>
	</g>
	<g>
		<path class="st4" d="M59.5,45.9c0.8,0.1,1.9,0.1,2.8-0.5l-0.2-0.3c-1.8,1-4,0-4,0C58.1,45.2,58.6,45.8,59.5,45.9z"/>
	</g>
	<g>
		<path class="st5" d="M64.5,39.8c0.8,0,2.7,0.4,3.2,0.6c-0.8,0.3-2.3,1.1-2.7,1.3c0.3,0.4,1.5,1.2,1.9,1.5
			c-0.7,0.2-2.2,0.3-2.7,0.3C63.5,42.8,63.6,40.4,64.5,39.8z"/>
		<path class="st6" d="M64.5,39.8c0.8,0,2.7,0.4,3.2,0.6c-1.4,0-2.9,0.9-3.3,1.1c0.3,0.4,2.1,1.4,2.5,1.7c-0.7,0.2-2.4-0.4-2.9-0.4
			C63.4,42.1,63.6,40.4,64.5,39.8z"/>
		<path class="st7" d="M67.7,40.3c-0.2,0-0.4,0-0.6,0.1c-1-0.1-2-0.1-3.1-0.1c0.1-0.2,0.3-0.4,0.5-0.5
			C65.2,39.8,67.2,40.2,67.7,40.3z"/>
		<path class="st8" d="M64.1,43.6c-0.4-0.4-0.5-1.3-0.5-2c0.1-0.9,0.3-1.6,0.8-1.9l0,0h0.1c0.2,0,0.5,0,1,0.1
			c0.8,0.1,1.9,0.3,2.3,0.5l0.4,0.1l-0.4,0.2c-0.7,0.3-2,0.9-2.5,1.2c0.4,0.4,1.4,1.1,1.8,1.3l0.3,0.2L67,43.3
			c-0.7,0.2-2.1,0.3-2.7,0.3L64.1,43.6L64.1,43.6z M64.9,41.8l-0.1-0.1l0.2-0.1c0.3-0.2,1.5-0.8,2.3-1.2c-0.5-0.1-1.2-0.3-1.8-0.3
			c-0.4-0.1-0.6-0.1-0.9-0.1c-0.3,0.3-0.5,0.9-0.6,1.7c-0.1,0.7,0.1,1.4,0.3,1.7c0.5,0,1.6-0.1,2.3-0.2C66,42.7,65.1,42.1,64.9,41.8
			z"/>
	</g>
	<g>
		<g>
			<ellipse transform="matrix(8.279347e-02 -0.9966 0.9966 8.279347e-02 14.7311 98.3177)" cx="60.8" cy="41.2" rx="1.3" ry="1.3"/>
			<path class="st4" d="M59.3,41c0.1-0.8,0.8-1.4,1.6-1.3c0.8,0.1,1.4,0.8,1.3,1.6c0,0.4-0.2,0.7-0.5,1c-0.3,0.3-0.7,0.4-1.1,0.3
				c0,0-0.1,0-0.1,0C59.8,42.5,59.3,41.8,59.3,41z M60.9,40c-0.6-0.1-1.2,0.4-1.2,1.1c-0.1,0.6,0.4,1.2,1,1.3c0.3,0,0.6-0.1,0.8-0.3
				c0.2-0.2,0.4-0.5,0.4-0.8C62,40.6,61.5,40.1,60.9,40C60.9,40,60.9,40,60.9,40z"/>
		</g>
		<g>
			<path class="st9" d="M60.2,41.6c0.1,0.2,0.4,0.4,0.7,0.4c0.3,0,0.6-0.1,0.8-0.4c-0.2,0.4-0.6,0.7-1.1,0.6c-0.3,0-0.6-0.2-0.8-0.4
				C60,41.7,60.1,41.7,60.2,41.6z"/>
			<path class="st9" d="M59.7,41.2c0.1,0,0.2-0.1,0.4-0.1c0,0.1,0,0.2,0,0.3c-0.1,0.1-0.2,0.1-0.3,0.2
				C59.7,41.4,59.7,41.3,59.7,41.2z"/>
		</g>
		
			<ellipse transform="matrix(8.347623e-02 -0.9965 0.9965 8.347623e-02 15.6347 98.2092)" class="st10" cx="61.2" cy="40.6" rx="0.5" ry="0.5"/>
		
			<ellipse transform="matrix(8.505920e-02 -0.9964 0.9964 8.505920e-02 15.017 99.0753)" class="st10" cx="61.5" cy="41.4" rx="0.2" ry="0.2"/>
	</g>
	<g>
		<path class="st2" d="M50.2,45.1c0.2-0.6,3.4-0.8,6,1c2.6,1.9,2.7,4.4,2.7,4.4l-2.7,0.4c0,0-1.7,0.6-3-0.1c-1-0.5-0.3-1.2,0.3-1.5
			c-1.7,0.1-2.7-1.3-1.4-1.7c-1.5-0.3-1.8-1.3-0.6-1.5C50.9,46.1,50,45.6,50.2,45.1z"/>
		<path class="st3" d="M50.2,45.1c0.2-0.6,3.4-0.8,6,1c2.6,1.9,2.7,4.4,2.7,4.4l-2.3,0.8c0,0-1.7,0-3-0.6c-1-0.5,0.8-1.4,1.4-1.6
			c-1.7,0.1-2.5-1.1-1.2-1.5c-1.5-0.3-2.1-1.3-0.9-1.4C52.4,46,50,45.6,50.2,45.1z"/>
		<path class="st4" d="M54.1,51.2c1.1,0.2,2.1-0.5,2.1-0.5c0,0-1.7,0.5-2.9-0.1c-0.3-0.1-0.4-0.3-0.4-0.5c0-0.3,0.3-0.6,0.7-0.7
			l0.7-0.3l-0.8,0c-1,0-1.8-0.5-1.8-0.9c0-0.3,0.3-0.4,0.5-0.5l0.7-0.2l-0.7-0.1c-0.8-0.1-1.2-0.5-1.2-0.8c0-0.2,0.2-0.3,0.6-0.4
			l1.2-0.1L51.5,46c-0.3,0-0.9-0.3-1-0.6c-0.1-0.1-0.1-0.2,0-0.3c0,0,0.1-0.1,0.4-0.2c1.1-0.3,3.4-0.1,5.4,1.3
			c2.5,1.8,2.6,4.2,2.6,4.3c0,0,0.1-2.6-2.4-4.5c-2-1.5-4.5-1.7-5.6-1.3c-0.3,0.1-0.5,0.2-0.6,0.4c-0.1,0.2-0.1,0.4,0.1,0.6
			c0.2,0.3,0.5,0.5,0.8,0.6c-0.2,0.1-0.3,0.3-0.3,0.5c0,0.3,0.3,0.8,1,1c-0.2,0.2-0.3,0.4-0.3,0.6c0.1,0.5,0.7,1,1.6,1.1
			c-0.2,0.2-0.4,0.4-0.4,0.7c0,0.2,0.1,0.5,0.6,0.8C53.4,51.1,53.8,51.1,54.1,51.2z"/>
	</g>
	<g>
		<path class="st4" d="M56.6,57.1c0.7-0.9,0.8-2.4,0.8-2.4c0,0-0.4,1.4-1.1,2.2L56.6,57.1z"/>
	</g>
</g>
<g>
	<g>
		<path class="st0" d="M71.6,71.7c0.2,0.7,0.9,2.9,0.9,2.9c-0.6,0.1-2.1,0.3-2,0.9c0.1,0.6,1.7,0.3,2,0.3c0.6,0.7,2.4,1.8,2.7,1.6
			c0.4-0.3-0.5-1.1-0.9-1.3c0.7,0.2,2.6,0.7,2.8,0.2c0.1-0.5-1.6-0.9-2.2-1c0.6,0,1.4-0.2,1.3-0.6c0-0.4-1.5-0.3-2.6-0.1
			c-0.3-0.7-0.9-3-0.8-3.4C72.7,71.1,71.5,71.2,71.6,71.7z"/>
		<path class="st1" d="M72.5,76c0,0-0.1,0-0.1,0c-0.2,0-0.5,0.1-0.9,0c-0.3,0-1.1,0-1.2-0.5c0-0.1,0-0.3,0.1-0.4
			c0.3-0.4,1.3-0.6,1.8-0.7c-0.2-0.5-0.7-2.1-0.9-2.7c0-0.1,0-0.3,0.1-0.4c0.2-0.3,0.6-0.3,1-0.3c0.2,0,0.4,0,0.5,0.1l0,0.1l0,0.1
			c0,0.3,0.5,2.3,0.8,3.2c0.5-0.1,1.1-0.1,1.5-0.1c0.7,0,1.1,0.1,1.1,0.4c0,0.1,0,0.2-0.1,0.3c-0.1,0.1-0.3,0.2-0.6,0.3
			c0.6,0.2,1.3,0.4,1.5,0.7c0.1,0.1,0.1,0.2,0,0.3c-0.1,0.3-0.6,0.3-0.7,0.3c-0.4,0-1-0.1-1.5-0.2c0.2,0.2,0.4,0.5,0.4,0.7
			c0,0.2,0,0.3-0.1,0.4c-0.1,0.1-0.2,0.1-0.3,0.1C74.5,77.6,73.1,76.6,72.5,76z M76.6,76.4c0.3,0,0.4-0.1,0.4-0.1c0,0,0,0,0,0
			c-0.2-0.3-1.4-0.6-2.1-0.7l-0.7-0.2c0.5,0,1.7-0.3,1.9-0.4c0,0,0-0.1,0-0.1c0,0-0.2-0.1-0.8-0.1c-0.5,0-1.1,0-1.6,0.1l-0.1,0
			l0-0.1c-0.2-0.6-0.8-2.7-0.8-3.3c0,0-0.1,0-0.2,0c-0.3,0-0.6,0.1-0.7,0.2c0,0,0,0.1,0,0.1c0.2,0.7,0.9,2.9,0.9,2.9l0.1,0.2l-0.2,0
			c-0.6,0.1-1.6,0.2-1.8,0.5c0,0,0,0.1,0,0.1c0,0.2,0.3,0.3,0.8,0.3c0.3,0,0.6,0,0.8,0c0.1,0,0.1,0,0.2,0l0.1,0l0.1,0.1
			c0.5,0.6,1.9,1.5,2.4,1.5c0,0,0.1,0,0.1,0c0,0,0,0,0-0.1c0-0.3-0.6-0.8-0.9-0.9L73.9,76C74.4,76.1,76,76.4,76.6,76.4z"/>
	</g>
	<g>
		<path class="st0" d="M75.3,69.5c0.2,0.7,1.1,2.7,1.1,2.7c-0.5,0.1-1.9,0.4-1.7,1c0.1,0.5,1.6,0.2,1.9,0.2c0.6,0.6,2.2,1.6,2.5,1.3
			c0.3-0.3-0.5-1-0.9-1.2c0.7,0.2,2.4,0.5,2.5,0c0.1-0.5-1.5-0.7-2-0.8c0.5-0.1,1.2-0.3,1.2-0.6c-0.1-0.3-1.3-0.2-2.4,0.1
			c-0.3-0.7-1-2.8-1-3.1C76.3,68.9,75.1,69.1,75.3,69.5z"/>
		<path class="st1" d="M76.5,73.5C76.4,73.5,76.4,73.5,76.5,73.5c-0.3,0.1-0.7,0.1-1.1,0.1c-0.5,0-0.8-0.1-0.8-0.4
			c0-0.1,0-0.3,0.1-0.4c0.3-0.4,1.1-0.6,1.6-0.7c-0.2-0.5-0.8-1.9-1-2.5c-0.1-0.1,0-0.3,0.1-0.4c0.2-0.3,0.7-0.4,1-0.4
			c0.2,0,0.3,0,0.3,0.1l0.1,0l0,0.1c0,0.3,0.6,2.1,0.9,2.9c0.6-0.1,1.3-0.2,1.7-0.2c0.3,0,0.7,0,0.8,0.3c0,0.1,0,0.2-0.1,0.3
			c-0.1,0.1-0.3,0.2-0.4,0.3c0.5,0.1,1.1,0.3,1.3,0.6c0.1,0.1,0.1,0.2,0.1,0.3c-0.1,0.4-0.7,0.4-0.9,0.4c-0.3,0-0.7-0.1-1.1-0.1
			c0.2,0.2,0.3,0.4,0.4,0.6c0,0.1,0,0.3-0.1,0.4c-0.1,0.1-0.2,0.1-0.3,0.1C78.3,74.8,77,74,76.5,73.5z M78.9,74.5
			C78.9,74.5,79,74.5,78.9,74.5c0-0.3-0.5-0.8-0.8-0.9l-0.4-0.4c0.4,0.1,1.7,0.3,2.3,0.3c0.4,0,0.6-0.1,0.6-0.1c0,0,0,0,0,0
			c-0.2-0.3-1.3-0.5-1.9-0.5l-0.5,0c0.5-0.1,1.4-0.5,1.5-0.7c0,0,0,0,0,0l0,0c0,0-0.1-0.1-0.4-0.1c-0.4,0-1.1,0.1-1.7,0.2l-0.1,0
			l-0.1-0.1c-0.3-0.6-0.9-2.5-1-3.1c0,0-0.1,0-0.1,0c-0.3,0-0.6,0.1-0.7,0.2c0,0,0,0.1,0,0.1c0.2,0.7,1,2.6,1.1,2.7l0.1,0.2l-0.2,0
			c-0.5,0.1-1.4,0.3-1.6,0.6c0,0,0,0.1,0,0.1c0,0.2,0.4,0.2,0.5,0.2c0.3,0,0.7-0.1,1-0.1c0.1,0,0.1,0,0.2,0l0.1,0l0.1,0.1
			C77.1,73.7,78.4,74.5,78.9,74.5C78.9,74.5,78.9,74.5,78.9,74.5C78.9,74.5,78.9,74.5,78.9,74.5z"/>
	</g>
	<g>
		<path class="st2" d="M74.5,62.1c-1.5-1-3.7-0.8-5-0.3c-1.3,0.5-3-0.3-3.5-0.8c-0.5,1.1-0.3,2.3,0.3,3.8c0.6,1.4,0.1,5.6,4.3,6.6
			c0.3,1.2,2.5,2,3.6,0c3-0.1,5.6-1.2,6.4-4.4c0.7-3.3-2-4.8-2.2-7.1c0.7-0.3,2.1-1.6,2.3-2.6c-0.1-0.4,0-2,0.4-2.5
			c-0.8-2.2-2.6-3.7-5.5-3.7c-2.8,0-4.8,2.5-4.6,5C71.1,59.2,73.4,59.8,74.5,62.1z"/>
		<path class="st3" d="M65.9,61.1c0.5,0.4,2.2,1.3,3.5,0.8c1.3-0.5,3.5-0.7,5,0.3c-1-2.3-3.4-3-3.5-6c-0.1-2.5,1.8-5,4.6-5
			c2.8,0,4.7,1.5,5.5,3.7c-0.2,0.3-0.3,1.1-0.4,1.8c-1.5,2.4-4.2,4.1-6.7,2.4c1.5,1.7,3.7,2.2,5.4,3.3c0.8,1.3,1.7,2.6,1.3,4.7
			c-0.5,2.4-3.1,3-6.1,3.1c-1,2-3.1,1-3.4-0.2c-4.2-1-3-3.7-3.6-5.1C66.9,63.3,65.4,62.2,65.9,61.1z"/>
		<path class="st4" d="M70.4,71.5c-3.3-0.8-3.7-3.5-4-5.3c-0.1-0.5-0.2-1-0.3-1.3c-0.7-1.6-0.8-2.8-0.3-3.9l0.1-0.2l0.2,0.1
			c0.3,0.3,1.5,0.9,2.5,0.9c0.3,0,0.6,0,0.8-0.1c0.7-0.3,1.6-0.4,2.5-0.4c0.8,0,1.6,0.2,2.2,0.5c-0.4-0.7-0.9-1.2-1.4-1.7
			c-0.9-1-1.9-2-2-3.9c-0.1-1.3,0.4-2.7,1.3-3.7c0.9-1,2.1-1.5,3.4-1.5h0.1c2.6,0,4.6,1.4,5.5,3.8l0,0.1l0,0.1
			c-0.3,0.5-0.4,2-0.4,2.4l0,0l0,0c-0.2,1-1.5,2.3-2.3,2.7c0.1,0.9,0.6,1.6,1,2.4c0.8,1.2,1.6,2.6,1.2,4.6c-0.7,2.9-2.9,4.5-6.4,4.6
			c-0.6,1.1-1.4,1.2-1.9,1.2C71.4,72.8,70.6,72.3,70.4,71.5z M80.8,54.8c-0.8-2.2-2.7-3.5-5.2-3.5h-0.1c-1.2,0-2.4,0.5-3.2,1.4
			c-0.9,0.9-1.3,2.2-1.3,3.4c0.1,1.8,1,2.7,1.9,3.7c0.6,0.6,1.2,1.3,1.6,2.3l0.2,0.5l-0.4-0.3c-0.7-0.4-1.5-0.7-2.5-0.7
			c-0.8,0-1.7,0.1-2.4,0.4c-0.3,0.1-0.6,0.2-1,0.2c-1,0-2-0.5-2.5-0.8c-0.4,0.9-0.2,2,0.4,3.5c0.1,0.4,0.2,0.8,0.3,1.4
			c0.3,1.8,0.7,4.3,3.9,5.1l0.1,0l0,0.1c0.1,0.6,0.9,1.1,1.6,1.1c0.7,0,1.3-0.4,1.7-1.1l0-0.1h0.1c2.4,0,5.4-0.8,6.2-4.3
			c0.4-1.9-0.4-3.2-1.1-4.4c-0.5-0.9-1-1.7-1.1-2.7l0-0.1l0.1,0c0.7-0.3,2-1.6,2.2-2.5C80.4,56.8,80.5,55.4,80.8,54.8z"/>
	</g>
	<g>
		<path class="st2" d="M69,65.6c0.4-0.7,1.6-0.1,2.1,0.1c-1.2-1.1,0.3-1.6,1.5-0.8c-0.2-0.4,0-1,1-0.6c0.5,0.2,1,0.8,1,0.8l2.9-1.5
			c0,0,1.2,1.1,0.6,2.8c-0.6,1.7-3.7,2.8-6.1,2C69.6,67.7,68.6,66.3,69,65.6z"/>
		<path class="st3" d="M69,65.6c0.4-0.7,1.6-0.1,2.1,0.1c-1.2-1.1,0.3-1.6,1.5-0.8c-0.2-0.4,0-1,1-0.6c0.5,0.2,1,0.8,1,0.8l2.9-1.5
			c0,0,1.3,1.1,0.6,2.8c-0.5,1-3.4,2-5.8,1.2C69.9,66.9,68.6,66.3,69,65.6z"/>
		<path class="st4" d="M73.6,68.8c2.1,0,4.2-0.9,4.7-2.4c0.6-1.8-0.8-2.7-0.8-2.7c0,0,1.1,1,0.5,2.6C77.3,68,74.3,69,72,68.3
			c-1.7-0.5-2.6-1.4-2.9-2c-0.1-0.2-0.1-0.4,0-0.6c0.2-0.4,0.8-0.3,1.9,0.2l1,0.4l-0.8-0.7c-0.3-0.3-0.5-0.6-0.4-0.7
			c0.2-0.2,0.9-0.3,1.7,0.1l0.4,0.3l-0.2-0.5c-0.1-0.1-0.1-0.3,0-0.4c0.1-0.1,0.4-0.1,0.7,0c0.5,0.2,0.9,0.7,0.9,0.7
			c0,0-0.3-0.8-0.8-1c-0.6-0.3-1-0.1-1.1,0.1c-0.1,0.1-0.2,0.2-0.2,0.4c-0.7-0.3-1.5-0.3-1.8,0.1c-0.1,0.1-0.2,0.3,0,0.6
			c-0.6-0.2-1.4-0.4-1.7,0.2c-0.1,0.2-0.1,0.5,0,0.8c0.3,0.7,1.2,1.6,3,2.2C72.4,68.7,73,68.8,73.6,68.8z"/>
	</g>
	<g>
		<path class="st4" d="M76.4,60.4c0.8,0,1.6-0.1,2.4-0.7l-0.2-0.3c-1.7,1.2-4,0.3-4,0.3C74.7,59.8,75.4,60.4,76.4,60.4z"/>
	</g>
	<g>
		<g>
			<ellipse transform="matrix(9.392872e-03 -1 1 9.392872e-03 20.7031 132.1241)" cx="77" cy="55.6" rx="1.3" ry="1.3"/>
			<path class="st4" d="M75.6,55.6c0-0.4,0.2-0.8,0.4-1c0.3-0.3,0.6-0.4,1-0.4c0.8,0,1.4,0.7,1.4,1.5c0,0.4-0.2,0.8-0.4,1
				c-0.3,0.3-0.6,0.4-1,0.4c-0.1,0-0.1,0-0.2,0C76.1,57,75.6,56.3,75.6,55.6z M77,54.4c-0.3,0-0.6,0.1-0.8,0.3
				c-0.2,0.2-0.3,0.5-0.3,0.8c0,0.6,0.5,1.2,1.1,1.2c0.3,0,0.6-0.1,0.8-0.3c0.2-0.2,0.3-0.5,0.3-0.8c0-0.6-0.4-1.1-1-1.2
				C77.2,54.4,77.1,54.4,77,54.4z"/>
		</g>
		<g>
			<path class="st9" d="M76.5,56.1c0.2,0.2,0.4,0.4,0.7,0.4c0.3,0,0.6-0.2,0.8-0.4c-0.1,0.4-0.5,0.7-1,0.7c-0.3,0-0.6-0.1-0.8-0.4
				C76.3,56.3,76.4,56.2,76.5,56.1z"/>
			<path class="st9" d="M75.9,55.7c0.1,0,0.2-0.1,0.3-0.1c0,0.1,0,0.2,0.1,0.3c-0.1,0.1-0.2,0.2-0.3,0.2C76,56,75.9,55.8,75.9,55.7z
				"/>
		</g>
		<ellipse transform="matrix(9.663346e-03 -1 1 9.663346e-03 21.65 131.9198)" class="st10" cx="77.4" cy="55" rx="0.5" ry="0.5"/>
		
			<ellipse transform="matrix(1.728465e-02 -0.9999 0.9999 1.728465e-02 20.6305 132.5181)" class="st10" cx="77.7" cy="55.8" rx="0.2" ry="0.2"/>
	</g>
	<g>
		<path class="st5" d="M81,54.4c0.8,0.1,2.6,0.8,3.1,1c-0.8,0.2-2.5,0.8-2.9,0.9c0.3,0.4,1.3,1.4,1.7,1.7c-0.8,0.1-2.2,0-2.8-0.1
			C79.6,57.3,80,54.9,81,54.4z"/>
		<path class="st6" d="M81,54.4c0.8,0.1,2.6,0.8,3.1,1c-1.3-0.2-3,0.4-3.4,0.6c0.3,0.4,1.8,1.7,2.2,2.1c-0.8,0.1-2.3-0.8-2.8-0.8
			C79.5,56.6,80,54.9,81,54.4z"/>
		<path class="st7" d="M84.1,55.5c-0.2,0-0.4,0-0.6,0c-1-0.3-2-0.4-3-0.6c0.2-0.2,0.3-0.3,0.5-0.5C81.7,54.6,83.6,55.2,84.1,55.5z"
			/>
		<path class="st8" d="M80,58.1c-0.4-0.5-0.3-1.4-0.2-2c0.2-0.9,0.6-1.5,1-1.8l0,0l0.1,0c0.2,0,0.5,0.1,0.9,0.2
			c0.8,0.2,1.9,0.6,2.2,0.8l0.4,0.2l-0.4,0.1c-0.7,0.2-2.1,0.6-2.7,0.8c0.4,0.5,1.2,1.3,1.6,1.6l0.3,0.2l-0.4,0
			c-0.7,0.1-2.1,0-2.7-0.1L80,58.1L80,58.1z M81.1,56.5L81,56.3l0.2-0.1c0.3-0.1,1.6-0.6,2.4-0.8c-0.4-0.2-1.1-0.4-1.8-0.6
			c-0.3-0.1-0.6-0.2-0.8-0.2c-0.4,0.2-0.7,0.8-0.8,1.6c-0.2,0.7-0.1,1.4,0.1,1.7c0.5,0,1.6,0.1,2.3,0.1C82,57.6,81.3,56.8,81.1,56.5
			z"/>
	</g>
</g>
</svg>
