<?xml version="1.0" encoding="utf-8"?>
<!-- Generator: Adobe Illustrator 21.0.2, SVG Export Plug-In . SVG Version: 6.00 Build 0)  -->
<svg version="1.1" id="Слой_1" xmlns="http://www.w3.org/2000/svg" xmlns:xlink="http://www.w3.org/1999/xlink" x="0px" y="0px"
	 viewBox="0 0 130 114" style="enable-background:new 0 0 130 114;" xml:space="preserve">
<style type="text/css">
	.st0{fill:#D6D6D6;}
	.st1{fill:#E8E8E8;}
	.st2{fill:#FFFFFF;}
	.st3{fill:#A5A5A5;}
	.st4{fill:#442A15;}
	.st5{fill:#56381D;}
	.st6{fill:#CC9F7A;}
	.st7{fill:#2B180B;}
	.st8{fill:#492501;}
	.st9{fill:#5D3100;}
	.st10{fill:#2D1601;}
	.st11{fill:#EA7A7A;}
	.st12{fill:#F48C8C;}
	.st13{fill:#CC5E5E;}
	.st14{fill:#515151;}
	.st15{fill:#191919;}
	.st16{fill:#303030;}
	.st17{fill:#424242;}
	.st18{fill:#F2D58C;}
	.st19{fill:#FFE7A4;}
	.st20{fill:#E0BF73;}
	.st21{fill:#F2B5B3;}
	.st22{fill:#FFD0CD;}
	.st23{fill:#EF8484;}
	.st24{fill:#FF9B98;}
	.st25{fill:#CC5A5A;}
	.st26{fill:#E57676;}
	.st27{fill:#F48787;}
	.st28{fill:#BABABA;}
	.st29{fill:#0059FF;}
	.st30{fill:#0073FF;}
	.st31{fill:#0C39FF;}
	.st32{fill:#000023;}
</style>
<g>
	<g>
		<g>
			<path class="st0" d="M96.2,61.7c-7.2-0.1-14.9,1.4-19.4,7c1.7,2,4.2,4.1,6.7,5.4c-0.5,2.6-2.1,6.7-2.9,7.9
				c-1.1,0.3-3,2.4-2.4,4.4c-1.2,0.6-4.3,3.8-4.7,4.9c0.1,0.3,1.5,1.1,1.8,1.4c-0.3,0.3-0.6,1-0.6,1.3c2.3,1.4,8.4,1.6,10.9,0.7
				c2.5-0.9,0.5-4.7-0.3-5.8c1.6-0.5,1.5-2.3,0.9-4.2c0.5-2.4,4.3-9.1,6.7-11.9c2.5-2.7-1.8-3.6,0.8-7.5
				C94.5,64.3,95.3,63.1,96.2,61.7z"/>
			<path class="st1" d="M91.3,62C91.3,62,91.3,62,91.3,62c-5.6,0.6-11,2.4-14.5,6.8c1.7,2,4.2,4.1,6.7,5.4c-0.5,2.6-2.1,6.7-2.9,7.9
				c-1.1,0.3-3,2.4-2.4,4.4c-1.2,0.6-4.3,3.8-4.7,4.9c0.1,0.3,1.5,1.1,1.8,1.4c-0.3,0.3-0.6,1-0.6,1.3c2,1.2,6.7,1.5,9.6,1
				c-1.8-2.8,1.1-5.8,0.7-9.1c0,0,0.1-1.6-0.6-1.8c1.7-4.8,3.8-7.8,6.7-11.9c1.8-1.8,0.4-3.3-1.1-5.4C89.3,65.8,89.8,63,91.3,62z"/>
			<path class="st2" d="M87.9,62.5c-4.3,0.9-8.3,2.8-11.1,6.3c1.7,2,4.2,4.1,6.7,5.4c-0.5,2.6-2.1,6.7-2.9,7.9
				c-1.1,0.3-3,2.4-2.4,4.4c-1.2,0.6-4.3,3.8-4.7,4.9c0.1,0.3,1.5,1.1,1.8,1.4c-0.3,0.3-0.6,1-0.6,1.3c1.3,0.8,3.7,1.2,6.1,1.3
				c0.2-3,0-4.3,2.2-6.7c1.1-1.2,1.3-4.3,0-4.7c1.9-3.8,2.3-7.7,5.6-11.4c2.5-2.1-1.7-4.8-1.2-7.1C87.4,64.4,87.6,63.4,87.9,62.5z"
				/>
			<path class="st3" d="M94.3,64.3c-0.2,0.3-0.4,0.5-0.5,0.8c-1.4,2.1-0.9,3.4-0.5,4.5c0.4,1,0.7,1.8-0.4,3
				c-2.5,2.8-6.3,9.6-6.8,11.9l0,0l0,0c0.7,2.4,0.4,3.6-0.8,4l-0.2,0.1l0.1,0.2c0.7,1,1.8,3.2,1.4,4.6c-0.2,0.5-0.5,0.8-1,1
				c-1.3,0.5-3.6,0.7-6,0.5c-2-0.2-3.7-0.6-4.7-1.1c0.1-0.3,0.4-0.9,0.6-1.1l0.1-0.1l-0.1-0.1c-0.1-0.1-0.4-0.3-0.7-0.5
				c-0.3-0.2-0.9-0.6-1.1-0.8c0.6-1.1,3.5-4.1,4.6-4.7l0.1-0.1l0-0.1c-0.3-0.9,0-1.7,0.3-2.3c0.5-1,1.4-1.7,2-1.9l0.1,0l0,0
				c0.8-1.1,2.4-5.3,2.9-7.9l0-0.1L83.6,74c-2.4-1.3-4.9-3.3-6.6-5.4c-0.1,0.1-0.1,0.2-0.2,0.3c1.8,2.1,4.2,4.1,6.6,5.3
				c-0.5,2.6-2,6.5-2.8,7.6c-0.6,0.2-1.6,1-2.1,2.1c-0.4,0.8-0.5,1.6-0.3,2.4c-1.3,0.8-4.2,3.8-4.7,4.9l0,0.1l0,0.1
				c0.1,0.2,0.5,0.5,1.2,1c0.2,0.1,0.4,0.2,0.5,0.3c-0.2,0.4-0.5,1-0.5,1.3l0,0.1l0.1,0.1c1,0.6,2.8,1.1,5,1.2
				c2.4,0.2,4.8,0,6.1-0.5c0.6-0.2,1-0.6,1.2-1.2c0.5-1.6-0.9-4-1.3-4.7c1.9-0.7,1.1-3.4,0.9-4.3c0.6-2.3,4.2-9,6.7-11.7
				c1.2-1.4,0.8-2.3,0.4-3.4c-0.5-1.1-0.9-2.2,0.4-4.2c0.2-0.3,0.3-0.5,0.5-0.8c0.5-0.8,1.2-1.7,1.8-2.8c-0.1,0-0.3,0-0.4,0
				C95.4,62.7,94.8,63.6,94.3,64.3z"/>
		</g>
		<g>
			<path class="st4" d="M78.2,86.4c-1.2,0.6-4.3,3.8-4.7,4.9c0.1,0.3,1.5,1.1,1.8,1.4c-0.3,0.3-0.6,1-0.6,1.3
				c2.3,1.4,8.4,1.6,10.9,0.7c2.5-0.9,0.5-4.7-0.3-5.8C82.6,88.7,79.6,87.7,78.2,86.4z"/>
			<path class="st5" d="M82.6,93.4c1.3-0.2,2.5-2.1,1.6-3.8c-0.2-0.3-0.4-0.6-0.6-0.9c-2.2-0.4-4.3-1.2-5.3-2.2
				c-1.2,0.6-4.3,3.8-4.7,4.9c0.1,0.3,1.5,1.1,1.8,1.4c-0.3,0.3-0.6,1-0.6,1.3c0,0,0,0,0.1,0C77.3,94.7,80.1,94.2,82.6,93.4z"/>
			<path class="st6" d="M78.9,87c-0.3-0.2-0.5-0.4-0.7-0.5c-1.2,0.6-4.3,3.8-4.7,4.9c0,0.1,0.2,0.2,0.4,0.4
				C75.2,89.8,76.8,88.1,78.9,87z"/>
			<path class="st7" d="M79.5,95.3c-2.1-0.2-4-0.6-5-1.2l-0.1-0.1l0-0.1c0-0.3,0.3-0.9,0.5-1.3c-0.1-0.1-0.3-0.2-0.5-0.3
				c-0.7-0.4-1.1-0.7-1.2-1l0-0.1l0-0.1c0.5-1.1,3.6-4.3,4.8-4.9l0.1-0.1l0.1,0.1c1.3,1.2,4.3,2.3,7,2.4l0.1,0l0,0.1
				c0.1,0.1,2,3,1.4,4.8c-0.2,0.6-0.6,1-1.2,1.2C84.3,95.3,81.9,95.5,79.5,95.3z M74.9,93.9c1,0.6,2.7,1,4.7,1.1
				c2.3,0.2,4.7,0,6-0.5c0.5-0.2,0.9-0.5,1-1c0.4-1.3-0.7-3.5-1.3-4.5c-2.6-0.1-5.6-1.1-7-2.4c-1.2,0.7-4,3.6-4.5,4.7
				c0.2,0.2,0.7,0.6,1.1,0.8c0.3,0.2,0.5,0.3,0.7,0.5l0.1,0.1l-0.1,0.1C75.2,93,74.9,93.6,74.9,93.9z"/>
		</g>
		<g>
			<path class="st7" d="M75.2,93.1l-0.3-0.2c1.3-2.1,3.8-4.1,3.8-4.1C78.7,88.8,76.5,91,75.2,93.1z"/>
		</g>
	</g>
	<g>
		<path class="st0" d="M57.3,52.6l-12.2-2.7c0,0-2.9,4.8-1,18.6c-1.8,1.2-1.2,4.5,0.1,6c0.1,2.2-0.9,6.7-1.7,7.7
			C41,82.7,40,84,40.2,85.7c-0.9,1.4-4.5,3.6-4.5,5.4c0.3,0.5,1.8,0.9,2.3,1c-0.2,0.4-0.5,1.2-0.5,1.6c0.8,0.6,6.7,1.3,9.5,0.1
			c2.8-1.2,0.4-4.2,0.2-5.5c1.9-0.9,1.3-3.4,0.6-4.8c-0.1-2.5,0.6-5.6,1.6-7.2c2.8-1.8,4-4,3.1-7.7c2.6-2.6,4.7-7.1,5.2-10.8
			C58.1,55,57.3,52.6,57.3,52.6z"/>
		<path class="st1" d="M44,68.5c-1.8,1.2-1.2,4.5,0.1,6c0.1,2.2-0.9,6.7-1.7,7.7C41,82.7,40,84,40.2,85.7c-0.9,1.4-4.5,3.6-4.5,5.4
			c0.3,0.5,1.8,0.9,2.3,1c-0.2,0.4-0.5,1.2-0.5,1.6c0.4,0.4,2.5,0.7,4.7,0.8c2.7-2.8,4.5-6.4,4.4-9.9c-0.5-4,1.3-8.5,4-11.7
			c1.6-2-0.8-4.4-0.5-4.7c3.6-4.6,6.4-10.2,5.6-15.9l-10.6-2.3C45.1,49.9,42.1,54.7,44,68.5z"/>
		<path class="st2" d="M44,68.5c-1.8,1.2-1.2,4.5,0.1,6c0.1,2.2-0.9,6.7-1.7,7.7C41,82.7,40,84,40.2,85.7c-0.9,1.4-4.5,3.6-4.5,5.4
			c0.3,0.5,1.8,0.9,2.3,1c-0.1,0.2-0.3,0.6-0.4,1c3-1.1,6.3-2.4,5.3-5.4c0.7-0.3,3.3-2.1,2.2-4.9c0.6-2.8,0.8-5.5,3.5-9.7
			c1-1.3,0.8-4.3-1.4-5.3c4.4-3.7,7.5-9.9,7-15.9l-9.1-2C45.1,49.9,42.1,54.7,44,68.5z"/>
		<path class="st3" d="M41.7,94.6c-2.1-0.1-3.9-0.4-4.4-0.8l-0.1-0.1l0-0.1c0-0.4,0.3-1,0.4-1.5c-0.5-0.1-1.8-0.5-2.2-1l0,0l0-0.1
			c0-1.3,1.5-2.6,2.9-3.8c0.7-0.6,1.3-1.2,1.6-1.6c-0.1-1.7,0.7-3,2.3-3.7c0.7-1,1.7-5.3,1.6-7.5c-0.9-1-1.4-2.7-1.2-4
			c0.1-0.9,0.5-1.6,1.1-2.1c-0.8-6.2-0.7-10.6-0.3-13.5c0.5-3.5,1.7-4.9,1.7-4.9c0,0-2.9,5-1,18.5l0,0.1l-0.1,0.1
			c-0.7,0.5-1,1.3-1,1.9c-0.1,1.3,0.3,2.9,1.2,3.8l0,0l0,0.1c0.1,2.1-0.8,6.7-1.7,7.8l0,0l0,0c-1.5,0.6-2.3,1.9-2.2,3.4l0,0.1l0,0.1
			c-0.3,0.5-1,1.1-1.7,1.7c-1.3,1.1-2.7,2.4-2.8,3.5c0.3,0.3,1.4,0.7,2.2,0.9l0.2,0l-0.1,0.2c-0.2,0.3-0.4,1-0.5,1.5
			c0.9,0.5,6.5,1.2,9.3,0c0.6-0.3,1-0.6,1.1-1.1c0.3-0.9-0.2-2.1-0.6-3c-0.2-0.5-0.4-1-0.5-1.3l0-0.1l0.1-0.1
			c0.5-0.3,0.9-0.7,1.1-1.2c0.3-1.1-0.1-2.4-0.6-3.3l0-0.1c-0.1-2.5,0.6-5.7,1.6-7.3l0,0l0,0c2.9-1.8,3.8-4.1,3-7.5l0-0.1l0.1-0.1
			c2.5-2.5,4.6-6.9,5.2-10.7c0.4-2.6-0.4-5.1-0.4-5.1c0,0,1.1,2.4,0.7,5.2c-0.6,3.8-2.7,8.3-5.2,10.8c0.8,3.5-0.1,5.8-3.2,7.7
			c-1,1.6-1.6,4.7-1.5,7.1c0.5,1,0.9,2.4,0.6,3.5c-0.2,0.6-0.6,1.1-1.1,1.4c0.1,0.3,0.2,0.7,0.4,1.1c0.4,1,1,2.2,0.6,3.2
			c-0.2,0.5-0.7,1-1.3,1.2C45.7,94.5,43.6,94.7,41.7,94.6z"/>
	</g>
	<g>
		<path class="st4" d="M40.2,85.7c-0.9,1.4-4.5,3.6-4.5,5.4c0.3,0.5,1.8,0.9,2.3,1c-0.2,0.4-0.5,1.2-0.5,1.6
			c0.8,0.6,6.7,1.3,9.5,0.1c2.8-1.2,0.4-4.2,0.2-5.5C44.2,87.9,41,86.7,40.2,85.7z"/>
		<path class="st5" d="M45.6,91.4c0.5-1.5-0.2-2.6-1-3.7c-2.1-0.5-3.8-1.4-4.4-2.1c-0.9,1.4-4.5,3.6-4.5,5.4c0.3,0.5,1.8,0.9,2.3,1
			c-0.2,0.3-0.4,1-0.5,1.5C40.6,94.5,44.7,94.3,45.6,91.4z"/>
		<path class="st6" d="M40.6,86.6c0.1-0.1,0.1-0.2,0.2-0.4c-0.3-0.2-0.5-0.4-0.6-0.5c-0.9,1.4-4.5,3.6-4.5,5.4c0,0,0,0.1,0.1,0.1
			C36.7,89.2,38.9,87.8,40.6,86.6z"/>
		<path class="st7" d="M41.7,94.6L41.7,94.6c-2-0.1-3.9-0.4-4.4-0.8l-0.1-0.1l0-0.1c0-0.4,0.3-1,0.4-1.5c-0.5-0.1-1.8-0.5-2.2-1l0,0
			l0-0.1c0-1.3,1.5-2.6,2.9-3.8c0.7-0.6,1.4-1.2,1.7-1.7l0.1-0.2l0.1,0.2c0.7,0.9,3.8,2.2,6.9,2.5l0.1,0l0,0.1
			c0,0.3,0.2,0.8,0.4,1.2c0.4,1,1,2.2,0.6,3.2c-0.2,0.5-0.7,1-1.3,1.2C45.4,94.6,43,94.7,41.7,94.6z M37.6,93.6
			c0.5,0.3,2.1,0.6,4.1,0.7l0,0c1.3,0,3.6,0,5.2-0.7c0.6-0.3,1-0.6,1.1-1.1c0.3-0.9-0.2-2.1-0.6-3c-0.2-0.5-0.4-0.9-0.4-1.2
			c-2.8-0.3-5.8-1.4-6.9-2.4c-0.4,0.5-1,1-1.6,1.6c-1.3,1.1-2.7,2.4-2.8,3.5c0.3,0.3,1.4,0.7,2.2,0.9l0.2,0l-0.1,0.2
			C38,92.5,37.7,93.2,37.6,93.6z"/>
	</g>
	<g>
		<path class="st7" d="M37.9,92.6l-0.3-0.1c1.5-3.6,3.4-4.9,3.4-4.9C41.1,87.6,39.4,89.1,37.9,92.6z"/>
	</g>
	<g>
		<path class="st0" d="M113.6,50.2c3.6,10.2,2.3,21.8,8.1,30.4c-0.4,0.8-1.6,0.7-1.6,0.7c-6.3-7.9-5.5-21.8-9.7-27.4
			C110.5,52.3,113.6,50.2,113.6,50.2z"/>
		<path class="st3" d="M120.3,81.4c-0.1,0-0.2,0-0.2,0l-0.1,0l0-0.1c-3.5-4.4-4.8-10.7-6-16.3c-0.9-4.5-1.8-8.7-3.7-11.1l0,0l0-0.1
			c0.1-1.6,3.1-3.7,3.3-3.7l0.2-0.1l0.1,0.2c1.5,4.1,2.1,8.5,2.8,12.8c1,6.4,1.9,12.5,5.3,17.6l0.1,0.1l-0.1,0.1
			C121.5,81.4,120.6,81.4,120.3,81.4z M120.2,81.1c0.2,0,1,0,1.4-0.5c-3.4-5.1-4.4-11.2-5.3-17.6c-0.6-4.2-1.3-8.5-2.7-12.5
			c-0.6,0.5-2.8,2.1-2.9,3.3c1.9,2.5,2.7,6.8,3.7,11.2C115.5,70.5,116.8,76.8,120.2,81.1z"/>
	</g>
	<g>
		<path class="st8" d="M118.4,76.9c4.8-0.6,10.5,3.7,8.6,12.4c-0.2-0.5-0.6-1.1-0.8-1.3c0.6,3-2.1,6.6-5.4,8.3
			c0.4-0.7,0.7-3.4,0.7-4.7c-0.1,0.7-1,1.9-1.8,2.6c1-4.6-2.5-6.2-3.6-9.5C115,81.4,115.8,78.8,118.4,76.9z"/>
		<path class="st9" d="M120.4,90.8c1-2-0.3-3.6-1-5.6c2,2,3.6,4.6,3.3,7.6c1.6-3,1-5.9,0.3-8.9c1,0.7,1.6,1.3,2,2.6
			c0.3-3.3-0.5-7.1-3-9.2c-1.2-0.4-2.4-0.6-3.6-0.4c-1.8,1.3-2.7,3-2.7,5C116.3,84.8,120,88.4,120.4,90.8z"/>
		<path class="st10" d="M120.3,96.7l0.3-0.5c0.3-0.6,0.6-2.4,0.6-3.8c-0.4,0.7-1,1.4-1.5,1.9l-0.4,0.4l0.1-0.5
			c0.6-2.8-0.5-4.5-1.8-6.3c-0.7-1-1.4-2-1.8-3.2c-1.1-3.4-0.3-6.1,2.4-8l0,0l0,0c0.3,0,0.6-0.1,0.9-0.1c2.4,0,4.7,1.1,6.2,3.1
			c1.9,2.4,2.5,5.8,1.6,9.6l-0.1,0.6l-0.2-0.6c-0.1-0.3-0.3-0.5-0.4-0.8c0.2,3.1-2.6,6.4-5.5,7.9L120.3,96.7z M121.5,90.2l0.1,1.4
			c0.1,1.1-0.1,3.2-0.5,4.3c2.9-1.7,5.4-5,4.9-7.9l-0.1-0.4l0.3,0.3c0.1,0.1,0.4,0.5,0.6,0.9c0.9-4.5-0.4-7.3-1.6-8.8
			c-1.5-1.8-3.7-2.9-6-2.9c-0.3,0-0.6,0-0.8,0.1c-2.5,1.8-3.2,4.3-2.2,7.6c0.4,1.2,1.1,2.2,1.7,3.1c1.1,1.6,2.3,3.3,1.9,6
			c0.7-0.8,1.3-1.7,1.3-2.2L121.5,90.2z"/>
	</g>
	<g>
		<path class="st10" d="M121.6,92.3l-0.3,0c0.4-3.3-1.2-6-1.2-6.1C120,86.2,122,88.9,121.6,92.3z"/>
	</g>
	<g>
		
			<ellipse transform="matrix(0.7284 -0.6852 0.6852 0.7284 -34.7535 74.9487)" class="st11" cx="77.2" cy="81.3" rx="3.1" ry="1.5"/>
		
			<ellipse transform="matrix(0.7247 -0.6891 0.6891 0.7247 -34.8391 75.1602)" class="st12" cx="76.6" cy="81.2" rx="2.3" ry="1.1"/>
		<path class="st13" d="M75.6,83.9c-0.4,0-0.7-0.1-0.8-0.3c-0.3-0.3-0.4-0.9-0.1-1.6c0.2-0.6,0.7-1.3,1.3-1.9
			c0.9-0.8,1.9-1.3,2.7-1.3c0.4,0,0.6,0.1,0.8,0.3c0.6,0.7,0.1,2.2-1.2,3.4C77.4,83.3,76.4,83.9,75.6,83.9z M78.7,79.1
			c-0.7,0-1.6,0.5-2.4,1.2c-0.6,0.5-1,1.2-1.2,1.8c-0.2,0.5-0.2,1,0,1.2c0.1,0.1,0.3,0.2,0.6,0.2c0.7,0,1.6-0.5,2.4-1.2
			c1.2-1.1,1.7-2.5,1.2-3C79.1,79.2,78.9,79.1,78.7,79.1z"/>
	</g>
	<g>
		
			<ellipse transform="matrix(0.3585 -0.9335 0.9335 0.3585 -25.4647 131.422)" class="st11" cx="82.9" cy="84.2" rx="3.1" ry="1.5"/>
		<ellipse transform="matrix(0.355 -0.9349 0.9349 0.355 -25.4136 131.4932)" class="st12" cx="82.6" cy="84.2" rx="2.3" ry="1.1"/>
		<path class="st13" d="M82.1,87.3c-0.1,0-0.2,0-0.3-0.1c-0.4-0.2-0.7-0.7-0.8-1.4c-0.1-0.7,0.1-1.5,0.4-2.3
			c0.6-1.5,1.5-2.5,2.4-2.5c0.1,0,0.2,0,0.3,0.1c0.9,0.3,1,1.9,0.4,3.6C83.9,86.3,82.9,87.3,82.1,87.3z M83.7,81.5
			c-0.7,0-1.6,1-2.1,2.3c-0.3,0.7-0.4,1.5-0.4,2.1c0,0.6,0.3,1,0.6,1.1c0.1,0,0.1,0,0.2,0c0.7,0,1.6-1,2.1-2.3
			c0.6-1.5,0.5-2.9-0.2-3.2C83.9,81.5,83.8,81.5,83.7,81.5z"/>
	</g>
	<g>
		
			<ellipse transform="matrix(0.9997 -2.324802e-02 2.324802e-02 0.9997 -1.9468 2.1095)" class="st11" cx="89.8" cy="84.8" rx="1.5" ry="3.1"/>
		
			<ellipse transform="matrix(0.9972 -7.542054e-02 7.542054e-02 0.9972 -6.1519 6.9923)" class="st12" cx="89.5" cy="84.9" rx="1.1" ry="2.3"/>
		<path class="st13" d="M89.8,88c-0.9,0-1.7-1.4-1.7-3.2c0-1.8,0.7-3.3,1.6-3.3l0,0c1,0,1.7,1.4,1.8,3.2c0,0.8-0.1,1.7-0.4,2.3
			C90.7,87.7,90.3,88,89.8,88L89.8,88z M89.7,81.9c-0.7,0-1.3,1.4-1.3,3c0,1.6,0.7,2.9,1.4,2.9v0.2l0-0.2c0.3,0,0.7-0.3,0.9-0.8
			c0.3-0.6,0.4-1.3,0.4-2.1C91.1,83.2,90.4,81.9,89.7,81.9z"/>
	</g>
	<g>
		<ellipse transform="matrix(0.9385 -0.3454 0.3454 0.9385 -23.0591 37.9745)" class="st11" cx="95" cy="83.7" rx="1.5" ry="3.1"/>
		
			<ellipse transform="matrix(0.9022 -0.4312 0.4312 0.9022 -27.0205 49.1304)" class="st12" cx="94.9" cy="84.2" rx="1.1" ry="2.3"/>
		<path class="st13" d="M95.8,86.8c-0.8,0-1.8-1-2.4-2.5c-0.6-1.7-0.4-3.3,0.4-3.6c0.1,0,0.2-0.1,0.3-0.1c0.8,0,1.8,1,2.4,2.5
			c0.6,1.7,0.4,3.3-0.5,3.6C96,86.8,95.9,86.8,95.8,86.8z M94.2,80.9c-0.1,0-0.1,0-0.2,0c-0.7,0.3-0.8,1.7-0.3,3.2
			c0.5,1.3,1.4,2.3,2.1,2.3c0.1,0,0.1,0,0.2,0c0.7-0.3,0.8-1.7,0.3-3.2C95.8,81.9,94.9,80.9,94.2,80.9z"/>
	</g>
	<g>
		
			<ellipse transform="matrix(5.882956e-02 -0.9983 0.9983 5.882956e-02 5.5836 159.4096)" class="st11" cx="87.3" cy="76.7" rx="7.8" ry="12.3"/>
		<ellipse class="st12" cx="85" cy="77.5" rx="9.3" ry="4.7"/>
		<path class="st13" d="M88,84.8c-0.4,0-0.8,0-1.2,0c-3.3-0.2-6.4-1.2-8.6-2.8c-2.3-1.6-3.5-3.7-3.3-5.9c0.2-4.1,5.3-7.3,11.7-7.3
			c0.4,0,0.8,0,1.2,0c3.3,0.2,6.4,1.2,8.6,2.8c2.3,1.6,3.5,3.7,3.3,5.9C99.5,81.6,94.5,84.8,88,84.8z M86.6,69.1
			c-6.2,0-11.2,3.1-11.4,7c-0.1,2,1,4,3.2,5.6c2.2,1.6,5.2,2.6,8.5,2.8c0.4,0,0.8,0,1.1,0c6.2,0,11.2-3.1,11.4-7c0.1-2-1-4-3.2-5.6
			c-2.2-1.6-5.2-2.6-8.5-2.8C87.4,69.1,87,69.1,86.6,69.1z"/>
	</g>
	<g>
		<path class="st0" d="M31.2,50.5c3-0.6,5.1,1,5.4,3.7c0.3,2.7,1.6,3.5,3.9,4.7c2.2,1.2,0.8,7.2,4.5,11.5c3.7,4.3,8.8,2.9,11.1,3
			c9.8,4.9,27.4,5.3,36.4,2.2c1.9,2.2,4.9,4.5,7.9,5.8c-0.3,2.6-1.6,6.9-2.3,8.1c-1,0.4-2.8,2.6-2,4.6c-1.2,0.7-4,4.1-4.4,5.2
			c0.2,0.3,1.5,0.9,1.9,1.2c-0.2,0.3-0.5,1.1-0.5,1.4c2.4,1.2,8.5,1,10.9-0.1c2.5-1.1,0.1-4.7-0.7-5.8c1.6-0.6,1.3-2.4,0.6-4.3
			c0.4-2.4,3.6-9.4,5.8-12.3c2.2-2.9-2.1-3.5,0.3-7.6c2.4-4.1,7.7-12.1,5.3-25.2c-2.5-13.7-15.8-12.7-24-10.4
			c-8.2,2.3-15.9-1.6-17.3-2.5c-3.5-6-12.5-7.9-25.9-1.2C44.7,33.2,31.7,46.6,31.2,50.5z"/>
		<path class="st1" d="M107.3,68.7c6.4-8.7,9.9-20.3,4.6-29.7c-5.1-5.6-14.3-4.7-20.6-2.9c-8.2,2.3-15.9-1.6-17.3-2.5
			c-3.5-6-12.5-7.9-25.9-1.2c-3.4,0.8-13.8,9.7-14.3,13.5c3-0.6,4.4,4,4.8,6.7c0.3,2.7,1.9,4.4,4.1,5.6c2.2,1.2,1.1,6.4,4.8,10.7
			c3.7,4.3,7.9,1.4,10.2,1.6c0.6,0.3-0.2,3.5,0.5,3.8c2.3-6.2,6.9-13.5,3.3-20c4.3,1.6,4.3,6.6,7.6,8.6c3.6,2.3,7.6,4,11.5,2.6
			c2.6-0.7,5.3-2.3,7.6-4C86.6,66.9,90,71.7,92.8,76c1.9,2.1,4.7,4.2,7.6,5.5c-0.3,2.6-1.6,6.9-2.3,8.1c-1,0.4-2.8,2.6-2,4.6
			c-1.2,0.7-4,4.1-4.4,5.2c0.2,0.3,1.5,0.9,1.9,1.2c-0.2,0.3-0.5,1.1-0.5,1.4c2.1,1.1,6.8,1,9.7,0.3c-2-2.7,0.6-5.8,0-9.1
			c0,0,0-1.6-0.8-1.8c1.3-4.9,3.2-8.1,5.8-12.4c1.6-2,0.1-3.3-1.5-5.3C105.7,72.7,105.9,69.9,107.3,68.7z"/>
		<path class="st2" d="M113.1,51.3c0.9-6.3-1.9-12.5-6.7-15.7c-4.9-1.6-10.7-0.7-15.1,0.5c-8.2,2.3-15.9-1.6-17.3-2.5
			c-3.5-6-12.5-7.9-25.9-1.2c-1.7,0.4-5.7,3.9-9.4,7.7c-0.8,1.8-1.1,3.6,0.3,5.2c2.6,3.3,3.3,5.9,3.6,9.9c0.3,2.3,3.3,3.3,4,5.3
			c1.8,5.7,6.2,8.5,11.2,9c3.4-5.1,4.7-11.9,1.6-17.3c5.3,1,6.6,6.3,10.9,8.9c6.9,4.6,14.5,0.3,19.4-5.3c-3.1,6.7-1.4,14.1,2.6,19.8
			c0.1,0,0.1,0,0.2-0.1c1.9,2.2,4.9,4.5,7.9,5.8c-0.3,2.6-1.6,6.9-2.3,8.1c-1,0.4-2.8,2.6-2,4.6c-1.2,0.7-4,4.1-4.4,5.2
			c0.2,0.3,1.5,0.9,1.9,1.2c-0.2,0.3-0.5,1.1-0.5,1.4c1.3,0.7,3.8,0.9,6.1,0.8c0-3-0.4-4.3,1.7-6.8c1-1.3,1-4.4-0.4-4.7
			c1.6-4,1.8-7.8,4.7-11.8c2.3-2.3-2.1-4.7-1.8-7C103.6,64.8,111.8,59.2,113.1,51.3z"/>
		<path class="st3" d="M98.1,102.9c-2.2,0-4-0.3-5-0.9l-0.1,0l0-0.1c0-0.3,0.2-0.9,0.5-1.3c-0.1-0.1-0.3-0.2-0.5-0.3
			c-0.7-0.4-1.2-0.6-1.3-0.9l0-0.1l0-0.1c0.4-1.1,3.1-4.3,4.3-5.2c-0.3-0.7-0.2-1.6,0.2-2.4c0.5-1.1,1.3-2,1.9-2.2
			c0.7-1.2,1.9-5.2,2.2-7.8c-2.9-1.3-5.8-3.4-7.8-5.7c-3.7,1.2-8.8,1.9-14.4,1.9c-8.5,0-16.7-1.6-22-4.2c-0.5,0-1,0-1.7,0
			c-0.5,0-1.2,0.1-1.8,0.1c-2.1,0-5.3-0.3-7.7-3.2c-2.1-2.4-2.6-5.3-3-7.6c-0.3-1.9-0.6-3.4-1.5-3.9c-2.2-1.2-3.6-2-4-4.8
			c-0.3-2.3-1.8-3.7-4.1-3.7c-0.4,0-0.8,0-1.2,0.1l-0.2,0l0-0.2c0.3-2.1,4-6.7,7.4-10.2c3.4-3.6,7.7-7.5,9.6-7.9
			c5.6-2.8,10.7-4.2,15.1-4.2c5,0,8.9,2,11,5.5c0.7,0.4,5.7,3.2,11.9,3.2c1.8,0,3.6-0.2,5.3-0.7c2.2-0.6,5.7-1.4,9.2-1.4
			c5.9,0,13.2,2.1,15,11.9c2.3,12.4-2.3,20.2-4.8,24.5c-0.2,0.3-0.3,0.6-0.5,0.8c-1.2,2.1-0.6,3.2-0.1,4.2c0.5,1,1,1.9-0.2,3.4
			c-2.3,2.9-5.4,9.8-5.8,12.2c0.3,0.9,1.3,3.5-0.5,4.4c0.5,0.6,2.1,2.9,1.7,4.6c-0.1,0.6-0.5,1-1.1,1.3
			C102.8,102.5,100.5,102.9,98.1,102.9z M93.3,101.8c1,0.5,2.7,0.8,4.8,0.8c2.3,0,4.7-0.4,5.9-0.9c0.5-0.2,0.8-0.6,1-1.1
			c0.3-1.4-1-3.5-1.7-4.4l-0.1-0.2l0.2-0.1c1.2-0.5,1.4-1.8,0.5-4.1l0,0l0,0c0.3-2.3,3.6-9.4,5.9-12.4c1-1.3,0.6-2.1,0.1-3
			c-0.5-1.1-1.2-2.3,0.1-4.5c0.1-0.3,0.3-0.5,0.5-0.8c2.5-4.2,7-12,4.8-24.2c-1.8-9.6-9-11.7-14.7-11.7c-3.5,0-6.9,0.7-9.1,1.4
			C89.7,36.8,87.9,37,86,37c-6.4,0-11.6-2.9-12.1-3.3l0,0l0,0c-2-3.5-5.8-5.4-10.7-5.4c-4.3,0-9.4,1.4-15,4.2l0,0
			C45,33.3,32.4,46.1,31.5,50.2c0.3-0.1,0.7-0.1,1-0.1c2.4,0,4.1,1.5,4.4,4c0.3,2.7,1.6,3.4,3.8,4.6c1.1,0.6,1.3,2.1,1.7,4.1
			c0.4,2.3,0.9,5.2,2.9,7.5c2.4,2.8,5.4,3.1,7.5,3.1c0.6,0,1.2,0,1.8-0.1c0.7,0,1.2-0.1,1.7,0l0.1,0c5.2,2.6,13.4,4.2,21.8,4.2
			c5.6,0,10.7-0.7,14.4-1.9l0.1,0l0.1,0.1c1.9,2.3,4.9,4.5,7.8,5.7l0.1,0l0,0.1c-0.3,2.6-1.6,7-2.3,8.1l0,0l-0.1,0
			c-0.6,0.2-1.4,1.1-1.8,2.1c-0.2,0.6-0.5,1.4-0.1,2.3l0.1,0.1l-0.1,0.1c-1.1,0.7-3.8,3.9-4.3,5c0.2,0.2,0.7,0.5,1.1,0.7
			c0.3,0.2,0.6,0.3,0.7,0.4l0.1,0.1l-0.1,0.1C93.6,100.9,93.4,101.5,93.3,101.8z"/>
	</g>
	<g>
		<path class="st4" d="M96.1,94.1c-1.2,0.7-4,4.1-4.4,5.2c0.2,0.3,1.5,0.9,1.9,1.2c-0.2,0.3-0.5,1.1-0.5,1.4c2.4,1.2,8.5,1,10.9-0.1
			c2.5-1.1,0.1-4.7-0.7-5.8C100.7,96.1,97.6,95.2,96.1,94.1z"/>
		<path class="st5" d="M100.9,100.7c1.3-0.3,2.3-2.3,1.3-4c-0.3-0.3-0.5-0.6-0.7-0.8c-2.2-0.2-4.3-0.9-5.5-1.8
			c-1.2,0.7-4,4.1-4.4,5.2c0.2,0.3,1.5,0.9,1.9,1.2c-0.2,0.3-0.5,1.1-0.5,1.4c0,0,0.1,0,0.1,0C95.8,102.4,98.5,101.6,100.9,100.7z"
			/>
		<path class="st6" d="M96.8,94.6c-0.3-0.2-0.5-0.3-0.7-0.5c-1.2,0.7-4,4.1-4.4,5.2c0,0.1,0.2,0.2,0.4,0.4
			C93.4,97.6,94.8,95.9,96.8,94.6z"/>
		<path class="st7" d="M98.1,102.9c-2.2,0-4-0.3-5-0.9l-0.1,0l0-0.1c0-0.3,0.2-0.9,0.5-1.3c-0.1-0.1-0.3-0.2-0.5-0.3
			c-0.7-0.4-1.2-0.6-1.3-0.9l0-0.1l0-0.1c0.4-1.2,3.2-4.5,4.4-5.3l0.1-0.1l0.1,0.1c1.4,1.1,4.5,1.9,7.1,1.8l0.1,0l0.1,0.1
			c0.1,0.1,2.2,2.8,1.8,4.7c-0.1,0.6-0.5,1-1.1,1.3C102.8,102.5,100.5,102.9,98.1,102.9z M93.3,101.8c1,0.5,2.7,0.8,4.8,0.8
			c2.3,0,4.7-0.4,5.9-0.9c0.5-0.2,0.8-0.6,1-1.1c0.3-1.4-0.9-3.4-1.7-4.4c-2.6,0.1-5.7-0.7-7.2-1.8c-1.2,0.8-3.7,3.8-4.2,5
			c0.2,0.2,0.7,0.5,1.1,0.7c0.3,0.2,0.6,0.3,0.7,0.4l0.1,0.1l-0.1,0.1C93.6,100.9,93.4,101.5,93.3,101.8z"/>
	</g>
	<g>
		<path class="st3" d="M92.6,76c-3.1-3.8-4.8-8-4.8-12.5c-0.1-5.4,2.5-9.2,2.5-9.2c0,0-2.2,3.9-2.2,9.2c0,4.5,1.6,8.6,4.7,12.3
			L92.6,76z"/>
	</g>
	<g>
		<path class="st14" d="M103.2,63.9c1.4,0.9,3.6,0.1,4-1.4c0.5-1.5-1.4-3.3-2.7-4.3c-1.4-1-0.8-3.5-2.4-3.5c-1.6,0-3.2,1.6-2.5,3.9
			c-1.7,1.3-2.6,4.2-1.2,6C99.9,66.4,102.4,65,103.2,63.9z"/>
		<path class="st15" d="M100.2,65.6C100.2,65.6,100.2,65.6,100.2,65.6c-0.8,0-1.4-0.3-1.9-0.9c-0.6-0.8-0.9-1.8-0.7-2.9
			c0.2-1.3,0.9-2.5,1.8-3.2c-0.3-1-0.1-2,0.4-2.8c0.5-0.7,1.4-1.2,2.3-1.2h0c1,0,1.3,0.9,1.5,1.7c0.2,0.7,0.4,1.4,1,1.8
			c1,0.8,3.3,2.7,2.8,4.5c-0.4,1.2-1.7,1.9-2.9,1.9c-0.5,0-0.9-0.1-1.3-0.3C102.6,64.9,101.4,65.6,100.2,65.6z M102.2,54.9
			L102.2,54.9c-0.8,0-1.6,0.4-2,1c-0.5,0.7-0.6,1.6-0.4,2.6l0,0.1l-0.1,0.1c-0.9,0.7-1.6,1.9-1.8,3.1c-0.1,1,0.1,2,0.6,2.7
			c0.4,0.5,1,0.8,1.6,0.8c1.2,0,2.4-0.9,2.9-1.5l0.1-0.1l0.1,0.1c0.4,0.2,0.8,0.3,1.3,0.3c1.2,0,2.3-0.7,2.5-1.6
			c0.5-1.6-1.7-3.4-2.7-4.1c-0.6-0.5-0.9-1.3-1.1-2C103.1,55.4,102.9,54.9,102.2,54.9z"/>
	</g>
	<g>
		<path class="st16" d="M75.5,65.4c1.4,3.2,4.8,2.1,6.8,0c2.1-2.1,2.1-4.9-0.4-5.8c-2.6-1-1.2-5.7-3.5-5.4c-2.4,0.2-8.3,1.6-8.1,5.5
			C70.4,63.5,71.6,65.3,75.5,65.4z"/>
		<path class="st17" d="M73.8,65.2c-0.5-0.2-1-0.4-1.5-0.6C72.7,64.9,73.2,65.1,73.8,65.2z"/>
		<path class="st17" d="M82,59.6c-2.6-1-1.2-5.7-3.5-5.4c-2.4,0.2-8.3,1.6-8.1,5.5c0.1,2.5,0.6,4.1,2,4.9c0.5,0.2,1,0.4,1.5,0.6
			c0.5,0.1,1.1,0.2,1.8,0.2c0,0.1,0.1,0.2,0.1,0.3c1.6,0.3,3.2,0.3,4.9-0.3c0.9-0.2,1.7-0.5,2.6-0.9C84.4,62.6,84.2,60.4,82,59.6z"
			/>
		<path class="st14" d="M82,59.6c-2.6-1-1.2-5.7-3.5-5.4c-2.4,0.2-8.3,1.6-8.1,5.5c0,0.6,0.1,1.1,0.1,1.6c4.4,2.9,9.1,2.2,13.2-0.2
			C83.3,60.4,82.8,59.9,82,59.6z"/>
		<path class="st15" d="M78.3,67.6L78.3,67.6c-0.9,0-2.1-0.4-2.9-2c-3.7-0.2-5.1-1.7-5.3-5.9c-0.2-3.8,5.4-5.4,8.3-5.7
			c1.4-0.1,1.6,1.1,1.9,2.4c0.3,1.3,0.5,2.6,1.7,3c1.1,0.4,1.8,1.1,2,2.1c0.3,1.2-0.3,2.7-1.5,4C81.2,66.9,79.7,67.6,78.3,67.6z
			 M78.6,54.3c0,0-0.1,0-0.2,0c-2.8,0.3-8.2,1.8-8,5.3c0.2,4.1,1.5,5.5,5.1,5.6l0.1,0l0,0.1c0.5,1.3,1.5,1.9,2.7,1.9l0,0
			c1.2,0,2.7-0.8,3.9-2c1.1-1.2,1.7-2.6,1.4-3.7c-0.2-0.9-0.8-1.5-1.8-1.9c-1.3-0.5-1.7-2-1.9-3.3C79.7,55.1,79.5,54.3,78.6,54.3z"
			/>
	</g>
	<g>
		<path class="st14" d="M60.1,43.1c-1.4,0-3,1.1-3.7,3.2c-0.7,2.1-0.1,4.4,2.1,4.1c2.3-0.3,2.8-1.8,4.7-0.6c1.9,1.2,3.1-1.4,2.1-3.5
			C64.4,44.3,63.3,42.1,60.1,43.1z"/>
		<path class="st15" d="M58.2,50.6c-0.7,0-1.3-0.3-1.7-0.8c-0.6-0.8-0.7-2.2-0.2-3.5c0.8-2.4,2.5-3.3,3.8-3.3
			c0.5-0.2,1.1-0.3,1.5-0.3c2.1,0,3.1,1.9,3.9,3.6c0.5,1.1,0.5,2.4,0,3.3c-0.3,0.5-0.8,0.8-1.3,0.8l0,0c-0.3,0-0.7-0.1-1-0.3
			c-0.5-0.3-0.9-0.4-1.3-0.4c-0.4,0-0.8,0.2-1.3,0.4c-0.5,0.2-1.1,0.5-2,0.6C58.5,50.6,58.4,50.6,58.2,50.6z M61.6,43
			c-0.4,0-0.9,0.1-1.4,0.3l0,0c-1.2,0-2.8,0.9-3.5,3.1c-0.4,1.3-0.4,2.5,0.2,3.2c0.4,0.5,1,0.8,1.8,0.7c0.8-0.1,1.4-0.4,1.9-0.6
			c0.5-0.2,0.9-0.4,1.4-0.4c0.4,0,0.9,0.2,1.4,0.5c0.3,0.2,0.6,0.3,0.9,0.3l0,0c0.5,0,0.8-0.3,1-0.6c0.4-0.6,0.6-1.8,0-2.9
			C64.4,44.8,63.6,43,61.6,43z"/>
	</g>
	<g>
		<g>
			<path class="st16" d="M70.1,38.2c-1.4,4.6-0.9,8.7,2.3,7.5c3.2-1.2,1.9,5.6,5,6.4c3,0.8,3.3-3,5.3-2.6c2,0.4-2.2,5.2,0.8,5.6
				c3,0.4,2.8-3.7,4.7-4c1.9-0.3,2.9-3.3,5.8-3.3c2.9-0.1,1.3,4.2,3.8,4.2c2.6,0,4.7-1.3,4.2-3c1.2-0.8,2.2,1.6,1.6,2.8
				c-0.5,1.2,0.4,2.7,2.2,1.8c1.5-0.8,5.2,5.5,9.7,4.8c0.6-3.4,0.7-7.3-0.2-11.9c-2.5-13.7-15.8-12.7-24-10.4
				c-8.2,2.3-15.9-1.6-17.3-2.5c-1-1.7-2.5-3.1-4.4-4.1C70.9,31.9,71.1,35,70.1,38.2z"/>
			<path class="st17" d="M111.9,39.1c-5.1-5.6-14.3-4.7-20.6-2.9c-8.2,2.3-15.9-1.6-17.3-2.5c-1-1.7-2.5-3.1-4.4-4.1
				c1.3,2.4,1.5,5.4,0.5,8.6c-1.4,4.6-0.9,8.7,2.3,7.5c3.2-1.2,1.9,5.6,5,6.4c3,0.8,3.3-3,5.3-2.6c2,0.4-2.2,5.2,0.8,5.6
				c3,0.4,2.8-3.7,4.7-4c1.9-0.3,2.9-3.3,5.8-3.3c2.9-0.1,1.3,4.2,3.8,4.2c2.6,0,4.7-1.3,4.2-3c1.2-0.8,2.2,1.6,1.6,2.8
				c-0.5,1.2,0.4,2.7,2.2,1.8c1.2-0.6,3.8,3.3,7.2,4.5C115.1,51.7,115.1,44.7,111.9,39.1z"/>
			<path class="st14" d="M106.4,35.6c-4.9-1.6-10.7-0.7-15.1,0.5c-8.2,2.3-15.9-1.6-17.3-2.5c-1-1.7-2.5-3.1-4.4-4.1
				c1.3,2.4,1.5,5.4,0.5,8.6c-1.4,4.6-0.9,8.7,2.3,7.5c3.2-1.2,1.9,5.6,5,6.4c3,0.8,3.3-3,5.3-2.6c2,0.4-2.2,5.2,0.8,5.6
				c3,0.4,2.8-3.7,4.7-4c1.9-0.3,2.9-3.3,5.8-3.3c2.9-0.1,1.3,4.2,3.8,4.2c2.6,0,4.7-1.3,4.2-3c1.2-0.8,2.2,1.6,1.6,2.8
				c-0.5,1.2,0.4,2.7,2.2,1.8c1-0.5,2.8,1.9,5.2,3.5c0.9-1.8,1.7-3.8,2.1-5.9C114,45,111.3,38.8,106.4,35.6z"/>
			<path class="st15" d="M114.9,58.7c-2.5,0-4.6-1.9-6.3-3.3c-1.1-1-2.1-1.8-2.6-1.6c-1,0.5-1.9,0.4-2.3-0.3
				c-0.3-0.5-0.3-1.1-0.1-1.7c0.3-0.6,0.1-1.6-0.3-2.2c-0.3-0.5-0.7-0.6-1-0.4c0.1,0.6,0,1.1-0.4,1.6c-0.7,0.9-2.3,1.5-4,1.5
				c-1.4,0-1.7-1.2-2-2.2C95.5,49,95.3,48,94,48l-0.1,0c-1.6,0-2.5,1-3.5,1.9c-0.7,0.7-1.4,1.4-2.3,1.5c-0.7,0.1-1.1,0.9-1.6,1.7
				c-0.6,1.1-1.2,2.3-2.7,2.3c-0.1,0-0.3,0-0.5,0c-0.5-0.1-0.9-0.3-1.1-0.6c-0.4-0.7,0-1.7,0.3-2.8c0.3-0.8,0.6-1.6,0.4-2
				c-0.1-0.1-0.2-0.2-0.4-0.2c-0.1,0-0.2,0-0.3,0c-0.6,0-1.1,0.5-1.6,1.1c-0.6,0.7-1.3,1.6-2.6,1.6c-0.3,0-0.6,0-0.9-0.1
				c-1.5-0.4-2-2.2-2.4-3.8c-0.4-1.5-0.7-2.8-1.8-2.8c-0.2,0-0.4,0-0.7,0.1c-0.4,0.2-0.8,0.2-1.1,0.2l0,0c-0.6,0-1.1-0.2-1.5-0.7
				c-0.9-1.2-0.9-4,0.1-7.2c1-3.2,0.8-6.2-0.5-8.5l-0.3-0.5l0.5,0.2c1.9,0.9,3.4,2.3,4.4,4.1c0.7,0.4,5.7,3.2,11.9,3.2
				c1.8,0,3.6-0.2,5.3-0.7c2.2-0.6,5.7-1.4,9.2-1.4c5.9,0,13.2,2.1,15,11.9c0.8,4.1,0.8,8.2,0.2,12l0,0.1l-0.1,0
				C115.3,58.7,115.1,58.7,114.9,58.7z M106.1,53.4c0.7,0,1.5,0.7,2.6,1.7c1.7,1.5,3.8,3.3,6.1,3.3c0.2,0,0.4,0,0.5,0
				c0.6-3.7,0.6-7.7-0.2-11.7c-1.8-9.6-9-11.7-14.7-11.7c-3.5,0-6.9,0.7-9.1,1.4C89.7,36.8,87.9,37,86,37c-6.4,0-11.6-2.9-12.1-3.3
				l0,0l0,0c-0.9-1.6-2.2-2.9-3.9-3.8c1.1,2.3,1.2,5.2,0.3,8.3c-0.9,3.1-1,5.8-0.1,6.9c0.3,0.4,0.7,0.6,1.2,0.6l0,0
				c0.3,0,0.6-0.1,1-0.2c0.3-0.1,0.5-0.2,0.8-0.2c1.3,0,1.7,1.5,2.1,3c0.4,1.6,0.9,3.2,2.2,3.6c0.3,0.1,0.5,0.1,0.8,0.1
				c1.1,0,1.7-0.7,2.3-1.5c0.5-0.6,1.1-1.3,1.9-1.3c0.1,0,0.2,0,0.4,0c0.3,0.1,0.5,0.2,0.6,0.4c0.3,0.5,0,1.4-0.3,2.3
				c-0.3,0.9-0.7,1.9-0.3,2.5c0.1,0.2,0.4,0.4,0.8,0.5c0.1,0,0.3,0,0.4,0c1.3,0,1.9-1.1,2.4-2.1c0.5-0.9,0.9-1.7,1.8-1.9
				c0.8-0.1,1.4-0.7,2.1-1.4c0.9-0.9,2-1.9,3.7-2H94c1.5,0,1.9,1.2,2.1,2.3c0.3,1,0.5,1.9,1.6,1.9c1.6,0,3.1-0.5,3.8-1.4
				c0.3-0.4,0.4-0.9,0.3-1.4l0-0.1l0.1-0.1c0.5-0.4,1.1-0.2,1.6,0.5c0.4,0.6,0.7,1.7,0.3,2.5c-0.2,0.5-0.2,1,0.1,1.4
				c0.4,0.6,1.1,0.6,1.9,0.2C105.9,53.5,106,53.4,106.1,53.4z"/>
		</g>
	</g>
	<g>
		<path class="st7" d="M93.6,101l-0.3-0.2c1.1-2.2,3.5-4.4,3.5-4.4C96.7,96.5,94.7,98.8,93.6,101z"/>
	</g>
	<g>
		<path class="st0" d="M64.2,57.8l-12.6-2.2c0,0-2.8,4.9-0.3,18.6c-1.8,1.3-1.1,4.6,0.3,6c0.2,2.2-0.6,6.7-1.4,7.7
			c-1.5,0.7-2.4,1.9-2.2,3.7c-0.9,1.4-4.4,3.8-4.4,5.6c0.4,0.5,1.9,0.8,2.4,0.9c-0.2,0.4-0.4,1.2-0.5,1.6c0.8,0.6,6.9,1.1,9.7-0.3
			c2.9-1.3,0.2-4.3,0-5.5c1.9-1,1.2-3.4,0.4-4.8c-0.2-2.5,0.4-5.7,1.3-7.3c2.8-1.9,3.9-4.1,2.9-7.8c2.6-2.7,4.5-7.3,4.9-11
			C65.1,60.2,64.2,57.8,64.2,57.8z"/>
		<path class="st1" d="M51.3,74.2c-1.8,1.3-1.1,4.6,0.3,6c0.2,2.2-0.6,6.7-1.4,7.7c-1.5,0.7-2.4,1.9-2.2,3.7
			c-0.9,1.4-4.4,3.8-4.4,5.6c0.4,0.5,1.9,0.8,2.4,0.9c-0.2,0.4-0.4,1.2-0.5,1.6c0.4,0.3,2.5,0.6,4.8,0.6c2.7-2.9,4.3-6.6,4.1-10.1
			c-0.7-4,1-8.6,3.6-11.9c1.5-2-1-4.4-0.7-4.7c3.5-4.7,6.1-10.5,5.1-16.1l-10.9-1.9C51.7,55.6,48.9,60.5,51.3,74.2z"/>
		<path class="st2" d="M51.3,74.2c-1.8,1.3-1.1,4.6,0.3,6c0.2,2.2-0.6,6.7-1.4,7.7c-1.5,0.7-2.4,1.9-2.2,3.7
			c-0.9,1.4-4.4,3.8-4.4,5.6c0.4,0.5,1.9,0.8,2.4,0.9c-0.1,0.2-0.2,0.6-0.3,1c3-1.2,6.3-2.6,5.1-5.6c0.7-0.3,3.3-2.3,2.1-5
			c0.5-2.8,0.6-5.5,3.2-9.8c1-1.3,0.7-4.3-1.6-5.3c4.3-3.8,7.3-10.2,6.6-16.1l-9.4-1.7C51.7,55.6,48.9,60.5,51.3,74.2z"/>
		<path class="st3" d="M50,100.4c-2.1,0-4-0.3-4.5-0.6l-0.1-0.1l0-0.1c0-0.4,0.2-1.1,0.4-1.5c-0.5-0.1-1.9-0.4-2.3-0.9l0,0v-0.1
			c0-1.3,1.5-2.7,2.8-3.9c0.7-0.6,1.3-1.2,1.6-1.7c-0.2-1.6,0.6-3,2.2-3.8c0.7-1,1.5-5.4,1.3-7.5c-0.9-0.9-1.5-2.6-1.4-4
			c0.1-0.9,0.4-1.7,1-2.1C50,67.9,50,63.6,50.3,60.6c0.3-3.5,1.5-5,1.5-5c0,0-2.7,5.1-0.3,18.5l0,0.1l-0.1,0.1c-0.7,0.5-0.9,1.4-1,2
			c-0.1,1.3,0.5,2.9,1.3,3.8l0,0l0,0.1c0.2,2.1-0.6,6.7-1.4,7.8l0,0l0,0c-1.5,0.7-2.3,2-2.1,3.5l0,0.1l0,0.1c-0.3,0.5-1,1.1-1.7,1.8
			c-1.2,1.2-2.6,2.5-2.7,3.6c0.3,0.3,1.5,0.7,2.2,0.8l0.2,0l-0.1,0.2c-0.2,0.3-0.4,1.1-0.4,1.5c1,0.5,6.7,1,9.5-0.3
			c0.6-0.3,1-0.6,1.1-1.1c0.3-0.9-0.2-2-0.7-3c-0.2-0.5-0.5-0.9-0.5-1.3l0-0.1l0.1-0.1c0.5-0.3,0.9-0.7,1-1.3
			c0.3-1.1-0.2-2.4-0.7-3.3l0-0.1c-0.2-2.4,0.4-5.7,1.3-7.4l0,0l0,0c2.9-1.9,3.8-4.2,2.8-7.6l0-0.1l0.1-0.1
			c2.4-2.6,4.4-7.1,4.8-10.9c0.3-2.7-0.6-5.1-0.6-5.1c0,0,1.2,2.4,0.9,5.1c-0.4,3.9-2.4,8.4-4.9,11c1,3.5,0.1,5.8-2.9,7.9
			c-0.9,1.7-1.5,4.8-1.3,7.1c0.6,0.9,1,2.4,0.7,3.5c-0.2,0.6-0.5,1.1-1.1,1.4c0.1,0.3,0.3,0.7,0.5,1.1c0.5,1,1.1,2.2,0.7,3.2
			c-0.2,0.5-0.6,1-1.3,1.3C54.1,100.1,51.9,100.4,50,100.4z"/>
	</g>
	<g>
		<path class="st4" d="M48.1,91.5c-0.9,1.4-4.4,3.8-4.4,5.6c0.4,0.5,1.9,0.8,2.4,0.9c-0.2,0.4-0.4,1.2-0.5,1.6
			c0.8,0.6,6.9,1.1,9.7-0.3c2.9-1.3,0.2-4.3,0-5.5C52.3,93.6,49,92.5,48.1,91.5z"/>
		<path class="st5" d="M53.9,97.1c0.5-1.5-0.3-2.6-1.2-3.6c-2.1-0.4-4-1.2-4.6-1.9c-0.9,1.4-4.4,3.8-4.4,5.6
			c0.4,0.5,1.9,0.8,2.4,0.9c-0.1,0.3-0.4,1-0.4,1.5C48.9,100.3,53,99.9,53.9,97.1z"/>
		<path class="st6" d="M48.6,92.5c0.1-0.1,0.1-0.2,0.2-0.4c-0.3-0.2-0.5-0.3-0.7-0.5c-0.9,1.4-4.4,3.8-4.4,5.6c0,0,0,0.1,0.1,0.1
			C44.7,95.1,46.8,93.7,48.6,92.5z"/>
		<path class="st7" d="M50,100.4L50,100.4c-2.1,0-4-0.3-4.5-0.6l-0.1-0.1l0-0.1c0-0.4,0.2-1.1,0.4-1.5c-0.5-0.1-1.9-0.4-2.3-0.9l0,0
			v-0.1c0-1.3,1.5-2.7,2.8-3.9c0.7-0.7,1.3-1.3,1.6-1.8l0.1-0.2l0.1,0.2c0.8,0.9,3.9,2,7.2,2.2l0.1,0l0,0.1c0.1,0.3,0.3,0.7,0.5,1.2
			c0.5,1,1.1,2.2,0.7,3.2c-0.2,0.5-0.6,1-1.3,1.3C53.8,100.3,51.3,100.4,50,100.4z M45.8,99.5c0.5,0.3,2.1,0.5,4.2,0.5l0,0
			c1.3,0,3.7-0.1,5.3-0.9c0.6-0.3,1-0.6,1.1-1.1c0.3-0.9-0.2-2-0.7-3c-0.2-0.4-0.4-0.8-0.5-1.2c-2.9-0.2-6-1.2-7.1-2.2
			c-0.3,0.5-0.9,1-1.6,1.6c-1.2,1.2-2.6,2.5-2.7,3.6c0.3,0.3,1.5,0.7,2.2,0.8l0.2,0l-0.1,0.2C46.1,98.4,45.9,99.1,45.8,99.5z"/>
	</g>
	<g>
		<path class="st7" d="M46.1,98.5l-0.3-0.1c1.4-3.6,3.3-5,3.3-5C49.1,93.4,47.5,94.9,46.1,98.5z"/>
	</g>
	<g>
		<path class="st18" d="M41.1,22.3c3.4-0.8,7.4-0.2,9.7-1.8c3-2.1,0.9-4.8,2-5.4c1.1-0.6,2.8,1.1,2.9,4.7c0.2,3.7-3.2,8.8-10.2,8.1
			C43.2,27.6,39.7,23.8,41.1,22.3z"/>
		<path class="st19" d="M41.1,22.3c3.4-0.8,7.4-0.2,9.7-1.8c3-2.1,0.9-4.8,2-5.4c1.1-0.6,2.1,1.1,1.9,4.6c-0.2,2.9-4.9,6.6-10.9,5.9
			C41.5,25.3,39.7,23.8,41.1,22.3z"/>
		<path class="st2" d="M41.3,23.1c3.4-0.6,7.6-0.4,9.5-1.7c2-1.2,2.7-3.1,2.3-5.2c0.4,1.1,0.4,3.3-1.1,4.7c-2.5,2.6-8.6,1.8-9.9,2.8
			C41.6,23.6,41.3,23.1,41.3,23.1z"/>
		<path class="st20" d="M46.8,28.1c-0.4,0-0.8,0-1.3-0.1c-1.7-0.2-4.2-2.3-4.8-4.1c-0.3-0.7-0.2-1.3,0.2-1.7l0,0l0,0
			c1.3-0.3,2.6-0.4,4-0.5c2.2-0.2,4.3-0.3,5.7-1.3c1.8-1.2,1.7-2.7,1.6-3.8c0-0.7-0.1-1.3,0.4-1.6c0.2-0.1,0.3-0.1,0.5-0.1
			c1.2,0,2.5,1.8,2.6,4.9c0.1,1.9-0.8,4-2.3,5.6C52.5,26.6,50.3,28.1,46.8,28.1z M41.2,22.5c-0.3,0.3-0.3,0.8-0.1,1.3
			c0.6,1.7,2.9,3.7,4.5,3.9c0.4,0,0.8,0.1,1.2,0.1c3.4,0,5.5-1.4,6.6-2.6c1.4-1.5,2.3-3.5,2.2-5.4c-0.1-2.9-1.3-4.6-2.3-4.6
			c-0.1,0-0.3,0-0.4,0.1c-0.3,0.2-0.3,0.6-0.3,1.3c0.1,1.2,0.2,2.8-1.8,4.1c-1.5,1.1-3.6,1.2-5.9,1.4C43.8,22.1,42.5,22.2,41.2,22.5
			z"/>
	</g>
	<g>
		<path class="st18" d="M30.5,21.1c-2.8-2.1-6.6-3.2-8.1-5.7c-1.7-2.8,1.6-3.8,1.1-5.1c-0.5-1.2-3.7-0.8-5.3,2.4
			c-1.7,3.3-0.7,9.3,6,11.6C26.4,25,31.2,23,30.5,21.1z"/>
		<path class="st19" d="M30.5,21.1c-2.8-2.1-7.2-3.6-8.7-6.1c-1.7-2.8,1.3-3.6,1.7-4.6c-0.5-1.2-3.7-0.8-5.3,2.4
			C16.6,16,20.9,22,27,23C29.2,23.7,31.2,23,30.5,21.1z"/>
		<path class="st2" d="M27.8,21.1c-2-2-5.2-3.1-6.5-5.3c-0.9-1.7-1-4,1-5c-1.5,0.6-2.6,2.4-1.5,4.9c1.4,3.3,4.5,3.4,6,6
			C27,21.8,27.8,21.1,27.8,21.1z"/>
		<path class="st20" d="M25.2,24.6L25.2,24.6c-0.4,0-0.8,0-1.1-0.1c-3.8-1.3-5.4-3.6-6.2-5.4c-0.9-2.1-0.8-4.6,0.1-6.4
			c1.1-2.1,2.9-3,4.2-3c0.7,0,1.2,0.3,1.4,0.7c0.2,0.6-0.2,1.1-0.6,1.6c-0.7,0.9-1.5,1.8-0.5,3.4c0.9,1.5,2.7,2.5,4.7,3.5
			c1.2,0.6,2.4,1.3,3.4,2.1l0,0l0,0c0.2,0.4,0.1,0.9-0.2,1.3C29.6,23.6,27.2,24.6,25.2,24.6z M22.3,9.9c-1.2,0-2.9,0.9-3.9,2.9
			c-0.9,1.8-0.9,4.1-0.1,6.2c0.7,1.7,2.3,4,6,5.2c0.3,0.1,0.6,0.1,1,0.1c1.8,0,4.2-1,5-2.1c0.2-0.3,0.3-0.7,0.2-1
			c-1-0.8-2.2-1.4-3.3-2c-2-1.1-3.8-2.1-4.8-3.6c-1.1-1.8-0.2-3,0.5-3.8c0.5-0.6,0.7-0.9,0.6-1.3C23.3,10.1,22.8,9.9,22.3,9.9z"/>
	</g>
	<g>
		<path class="st1" d="M22.5,25.7c-0.7-3-3-7-8.2-6.7C8,19.3,7,25.2,3.2,25.4c3.7,4,10.7,7.3,17.6,3.7
			C21.5,28.6,22.5,25.7,22.5,25.7z"/>
		<path class="st2" d="M22.5,25.7c-0.7-3-3-7-8.2-6.7C8,19.3,7,25.2,3.2,25.4c2.1,2.6,13.2,2.8,18.7,1.5
			C22.6,26.5,22.5,25.7,22.5,25.7z"/>
		<path class="st3" d="M14.6,30.8L14.6,30.8c-4.1,0-8.5-2-11.5-5.3l-0.2-0.3l0.4,0c1.6-0.1,2.7-1.2,4-2.5c1.7-1.7,3.6-3.7,7.2-3.9
			c5-0.2,7.6,3.4,8.3,6.9l0,0l0,0c-0.1,0.3-1.1,3-1.8,3.5C18.9,30.3,16.8,30.8,14.6,30.8z M3.5,25.5c3,3.1,7.1,5,11.1,5
			c2.1,0,4.2-0.5,6.1-1.5c0.5-0.3,1.4-2.4,1.7-3.2c-0.4-1.6-2-6.8-8-6.6c-3.5,0.2-5.4,2.1-7,3.8C6.2,24.1,5.1,25.3,3.5,25.5z"/>
	</g>
	<g>
		<path class="st21" d="M21.1,26.7C19.3,23.1,14,21,8.8,25.8c1.5,2.8,7.7,3.9,12.3,1.9C21.2,27.6,21.1,26.7,21.1,26.7z"/>
		<path class="st22" d="M15.7,24.3c-2.3-0.6-4.5,0.6-6.6,1.9c1.3,1.8,4.6,2.7,7.9,2.5c0.1-0.2,0.2-0.3,0.3-0.4
			C18,26.6,17.3,24.6,15.7,24.3z"/>
		<path class="st3" d="M15.9,28.9L15.9,28.9c-3.4,0-6.3-1.2-7.2-3l-0.1-0.1l0.1-0.1c2-1.9,4.2-2.9,6.4-2.9c2.6,0,5,1.5,6.2,3.8
			l0,0.1c0.1,0.6,0,0.9,0,1.1l0,0l0,0C19.6,28.5,17.8,28.9,15.9,28.9z M9,25.9c0.9,1.6,3.7,2.7,6.9,2.7l0,0c1.8,0,3.6-0.3,5.1-1
			c0-0.1,0-0.5,0-0.8c-1.1-2.2-3.4-3.6-5.9-3.6C13,23.2,11,24.1,9,25.9z"/>
	</g>
	<g>
		<path class="st0" d="M34.2,21.1c-2.6-0.1-4.6-2.3-8.4-1.1c-3.8,1.2-8.5,6.3-6.7,14.9c-1.8,1-8.1,5.7-9.2,7.1
			C9.2,45.2,24,54.7,28.4,55.6c1.4-1.6,3-4,4.7-4.7c6-0.5,12.3-2.3,13.6-8.8c2.3-4.8,3.3-11-0.4-16.1C43.4,22,41.7,21.5,34.2,21.1z"
			/>
		<path class="st1" d="M34.2,21.1c-2.6-0.1-4.6-2.3-8.4-1.1c-3.8,1.2-8.5,6.3-6.7,14.9c-1.8,1-8.1,5.7-9.2,7.1
			c-0.7,3.2,12.5,9.7,16.9,10.6c1.4-1.6,4.5-3.9,6.2-4.7c6-0.5,11-0.1,12.3-6.7c2.3-4.8,4.7-10.3,1-15.3
			C43.4,22,41.7,21.5,34.2,21.1z"/>
		<path class="st2" d="M34.2,21.1c-2.6-0.1-4.6-2.3-8.4-1.1c-3.8,1.2-8.5,6.3-6.7,14.9c-1.8,1-8.1,5.7-9.2,7.1
			c-0.7,3.2,10.6,10,15,10.9c1.4-1.6,5.9-6.2,7.6-7c6-0.5,10.7,0,11.9-5.3c2.3-4.8,5.6-9.6,1.9-14.7C43.4,22,41.7,21.5,34.2,21.1z"
			/>
		<path class="st3" d="M28.4,55.7L28.4,55.7C24.1,54.8,9,45.4,9.7,42l0-0.1c1-1.4,7.2-5.9,9.1-7.1c-1.7-9,3.2-13.9,6.9-15
			c0.8-0.2,1.5-0.3,2.3-0.3c1.4,0,2.5,0.4,3.6,0.8c0.9,0.3,1.7,0.6,2.6,0.7c7.3,0.3,9.2,0.8,12.2,4.8c4.3,5.9,2.1,12.7,0.4,16.3
			c-1.1,5.3-5.6,8.3-13.7,9c-1.2,0.6-2.4,2.1-3.5,3.4C29.2,54.8,28.8,55.3,28.4,55.7L28.4,55.7z M10.1,42.1
			c-0.5,3,13.5,12.2,18.3,13.3c0.3-0.4,0.7-0.8,1-1.2c1.1-1.4,2.4-2.9,3.7-3.5l0.1,0c8.1-0.7,12.4-3.4,13.5-8.7l0,0
			c1.7-3.5,3.8-10.2-0.4-15.9c-2.7-3.7-4.3-4.3-11.9-4.7c-1,0-1.8-0.4-2.7-0.7c-1-0.4-2.1-0.8-3.4-0.8c-0.7,0-1.4,0.1-2.2,0.3
			c-3.6,1.1-8.4,5.9-6.6,14.7l0,0.1l-0.1,0.1C17.4,36.1,11.1,40.7,10.1,42.1z"/>
	</g>
	<g>
		<path class="st1" d="M55.5,27c-5.1-0.3-8.3,4-8.3,4l0.6,4.6c0,0,2.3,3.7,8,3.7c5.7,0,7.9-1.4,10.3-4.5C62,33.2,60.6,27.3,55.5,27z
			"/>
		<path class="st2" d="M58.8,36.8c2.1-0.3,4.5-0.9,6.1-2.7c-3.2-2.1-4.8-6.8-9.4-7.1c-5.1-0.3-8.3,4-8.3,4l0.3,2.4
			C50,36.4,54.5,37.7,58.8,36.8z"/>
		<path class="st3" d="M55.7,39.3c-5.6,0-8-3.7-8-3.7l0.3-0.2c0,0,2.3,3.6,7.8,3.6c0,0,0.1,0,0.1,0c5.6,0,7.7-1.4,10-4.3
			c-1.7-0.7-2.9-2.1-4.1-3.5c-1.7-1.9-3.4-3.9-6.2-4.1c-5-0.3-8.1,3.8-8.1,3.9l-0.3-0.2c0,0,3.2-4.4,8.4-4c3,0.2,4.8,2.2,6.5,4.2
			c1.3,1.5,2.5,2.9,4.2,3.5l0.2,0.1l-0.1,0.2C63.8,37.8,61.7,39.3,55.7,39.3C55.8,39.3,55.8,39.3,55.7,39.3z"/>
	</g>
	<g>
		<path class="st21" d="M48,33.1c4.8-2.8,10-2.5,14.7,2.1c-1.7,2.1-4.2,2.5-7.7,2.1C51.1,36.7,48,34.7,48,33.1z"/>
		<path class="st22" d="M51.9,33.8c-0.9,0.5-0.2,1.7,0.9,2.9c0.7,0.2,1.5,0.4,2.3,0.5c3.2,0.4,5.6,0.1,7.3-1.5
			C59.6,32.7,54.7,31.7,51.9,33.8z"/>
		<path class="st3" d="M57.3,37.5c-0.7,0-1.5-0.1-2.3-0.2c-3.8-0.5-7.2-2.5-7.1-4.3l0-0.1l0.1,0c2.1-1.2,4.2-1.8,6.3-1.8
			c3,0,6,1.3,8.7,3.9l0.1,0.1l-0.1,0.1C61.7,36.8,59.9,37.5,57.3,37.5z M48.2,33.2c0.1,1.4,3,3.4,6.9,3.9c0.8,0.1,1.6,0.2,2.3,0.2
			c2.4,0,4-0.7,5.2-2c-2.6-2.5-5.4-3.7-8.3-3.7C52.3,31.5,50.2,32,48.2,33.2z"/>
	</g>
	<g>
		<path class="st23" d="M15.3,40.4c-1.3-0.4-3.1-2-6.4-1.9c-3.3,0.1-5.1,3.2-5,7.8c0.1,4.7,3.5,8.4,9.8,7.2c0.7,0.9,2.6,4.8,7.2,5.4
			c4.7,0.6,8.6-1.3,9.7-4.6c1.2-3.8,0-10.4-4-13C22.5,38.7,17.9,40.5,15.3,40.4z"/>
		<path class="st24" d="M12,50c1.5,3.6,5.6,4.4,8.3,4.4c2.3,0,5.7-1.7,7.5-4.1c0.9-0.3,2.3,0.3,2,1.6c1-1.6,0.9-3.2,0.5-4.9
			c-0.7-2.3-1.9-4.5-3.8-5.7c-4-2.6-8.6-0.8-11.2-0.9c-1.3-0.4-3.1-2-6.4-1.9c-3,0.1-4.8,2.7-5,6.6c0.1,1.5,0.1,2.9,1,4.2
			C6.8,52,9.7,52,12,50z"/>
		<path class="st25" d="M22.5,59.3L22.5,59.3c-0.6,0-1.2,0-1.8-0.1c-4-0.5-6-3.5-6.9-4.9c-0.1-0.2-0.3-0.4-0.4-0.5
			c-0.8,0.1-1.5,0.2-2.2,0.2c-5.2,0-7.6-3.8-7.7-7.6c-0.1-4.9,1.9-7.9,5.2-8c2.5-0.1,4.1,0.8,5.4,1.4c0.4,0.2,0.8,0.4,1.1,0.5
			c0.7,0,1.6-0.1,2.5-0.2c1-0.1,2.2-0.3,3.4-0.3c2.1,0,3.8,0.5,5.3,1.5c4,2.6,5.3,9,4.1,13.2C29.7,57.3,26.5,59.3,22.5,59.3z
			 M13.6,53.4L13.6,53.4c0.2,0.2,0.3,0.4,0.5,0.7c0.9,1.4,2.8,4.2,6.7,4.8c0.6,0.1,1.2,0.1,1.7,0.1c3.9,0,6.9-1.8,7.8-4.6
			c1.1-3.6,0.1-10.2-3.9-12.8c-1.4-1-3.1-1.4-5.1-1.4c-1.2,0-2.3,0.2-3.4,0.3c-1,0.1-1.9,0.2-2.6,0.2l0,0c-0.4-0.1-0.8-0.3-1.2-0.6
			c-1.2-0.6-2.8-1.4-5.2-1.4c-3.1,0.1-5,3-4.9,7.7c0.1,4.4,3,7.3,7.3,7.3C12,53.6,12.8,53.5,13.6,53.4L13.6,53.4z"/>
	</g>
	<g>
		<path class="st25" d="M20.2,56.8c-2.5,0-4.7-1-6.8-3.2l0.2-0.2c2.8,2.9,5.5,3.6,9.3,2.7c3.7-0.9,5.8-5.7,5.9-5.8l0.3,0.1
			c-0.1,0.2-2.2,5-6.1,6C22,56.7,21.1,56.8,20.2,56.8z"/>
	</g>
	<g>
		<path class="st25" d="M14.2,54.4c-1.5-1.3-1.8-2.9-1.8-2.9c0,0,0.6,1.3,2,2.6L14.2,54.4z"/>
	</g>
	<g>
		<path class="st25" d="M14.5,40.2l0.2-0.3c1.8,0.9,2.7,1.3,2.7,1.3C17.4,41.2,16.3,41.2,14.5,40.2z"/>
	</g>
	<g>
		
			<ellipse transform="matrix(0.8711 -0.4912 0.4912 0.8711 -21.8349 17.5432)" class="st26" cx="22.5" cy="50.4" rx="3.3" ry="1.9"/>
		<path class="st27" d="M25.3,48.8c-0.1-0.3-0.4-0.4-0.7-0.6c0.1,0.5-0.1,0.9-0.1,1.1c-1.3,1.3-3.2,2.2-5,1.9c0,0.3,0,0.5,0.1,0.8
			c0.5,0.9,2.2,0.9,3.8,0C25,51.1,25.8,49.7,25.3,48.8z"/>
		<path class="st24" d="M25.3,48.8c-0.1-0.1-0.2-0.3-0.3-0.4c0,0.5,0.1,0.9-0.1,1.3c-1.2,1.9-3.3,2.6-5.3,2.1c0,0.1,0,0.1,0.1,0.2
			c0.5,0.9,2.2,0.9,3.8,0C25,51.1,25.8,49.7,25.3,48.8z"/>
		<path class="st25" d="M21.2,52.8c-0.8,0-1.4-0.3-1.7-0.8c-0.6-1,0.3-2.5,2-3.5c0.8-0.4,1.6-0.7,2.3-0.7c0.8,0,1.4,0.3,1.7,0.8
			c0.6,1-0.3,2.5-2,3.5C22.7,52.6,21.9,52.8,21.2,52.8z M23.8,48.2c-0.7,0-1.4,0.2-2.2,0.6c-1.5,0.8-2.3,2.2-1.9,3
			c0.2,0.4,0.7,0.6,1.4,0.6c0.7,0,1.4-0.2,2.2-0.6c1.5-0.8,2.3-2.2,1.9-3C25,48.5,24.5,48.2,23.8,48.2z"/>
	</g>
	<g>
		<path class="st25" d="M18.5,48.5c0,0,1.5-2.4,3.9-3.1c2.5-0.7,3.5,1,3.5,1c0-0.1-1.2-1.3-3.4-0.7C20.2,46.4,18.6,48.5,18.5,48.5z"
			/>
	</g>
	<g>
		<path class="st26" d="M6.3,44.4c1.3,0.4,2.1,4.5,1,5.8C5.9,50.5,4.5,46.5,6.3,44.4z"/>
		<path class="st27" d="M6.1,44.6c-1.5,2.2-0.2,5.9,1.2,5.5c0.2-0.2,0.3-0.5,0.4-0.8C6.5,48.2,6.2,46.4,6.1,44.6z"/>
		<path class="st24" d="M5.9,44.9c-1.2,2.2,0,5.5,1.4,5.2c0.1-0.1,0.2-0.2,0.2-0.4C6,48.7,5.7,46.8,5.9,44.9z"/>
		<path class="st25" d="M7.2,50.4c-0.6,0-1.1-0.5-1.5-1.3c-0.6-1.4-0.7-3.5,0.5-4.8l0.1-0.1l0.1,0c0.5,0.2,1,0.9,1.3,2
			c0.4,1.4,0.5,3.2-0.2,4.1l0,0l-0.1,0C7.3,50.4,7.2,50.4,7.2,50.4z M6.4,44.6c-1,1.2-0.9,3.1-0.4,4.3c0.3,0.7,0.8,1.1,1.2,1.1
			c0.6-0.8,0.5-2.5,0.1-3.7C7.1,45.4,6.8,44.8,6.4,44.6z"/>
	</g>
	<g>
		<path class="st25" d="M9,49c0,0,0.5-2.6-0.3-4.3c-0.8-1.7-2-1.9-2-1.9c0,0,1.4-0.1,2.3,1.7C9.9,46.4,9,49,9,49z"/>
	</g>
	<g>
		<g>
			<path class="st14" d="M35,21.2c-1,1-1.7,2.2-1.6,3.3c0.1,2-1.7,4.6-3.3,5.4c-1.6,0.8-1.5,4.7,1.2,8.1c2.7,3.4,1.4,8.2,7.4,6.1
				c6-2.1,4.9-4.9,7.1-6.8c1.9-1.6-3.1-7.2,1.6-9.9c-0.3-0.5-0.6-1.1-1-1.6C43.5,22.2,41.8,21.5,35,21.2z"/>
			<path class="st15" d="M36.2,44.8L36.2,44.8c-2.1,0-2.7-1.6-3.4-3.4c-0.4-1.1-0.8-2.3-1.7-3.3c-2-2.5-2.6-5.3-2.2-6.8
				c0.2-0.8,0.5-1.3,1.1-1.5c1.6-0.8,3.4-3.3,3.3-5.3c-0.1-1.1,0.6-2.4,1.7-3.4l0,0l0.1,0c6.9,0.4,8.6,1.1,11.3,4.8
				c0.4,0.5,0.7,1,1,1.6l0.1,0.1l-0.1,0.1c-2.7,1.6-2,4.1-1.5,6.3c0.4,1.5,0.8,2.8-0.1,3.6c-0.7,0.6-1,1.3-1.4,2.1
				c-0.8,1.6-1.7,3.3-5.7,4.7C37.7,44.6,36.8,44.8,36.2,44.8z M35.1,21.3c-1,0.9-1.6,2.1-1.5,3.1c0.1,2.1-1.8,4.7-3.4,5.6
				c-0.4,0.2-0.7,0.7-0.9,1.3c-0.3,1.5,0.2,4.1,2.1,6.5c0.9,1.1,1.3,2.3,1.7,3.4c0.7,1.8,1.2,3.1,3.1,3.1l0,0c0.7,0,1.4-0.2,2.4-0.5
				c3.9-1.4,4.8-3.1,5.5-4.6c0.4-0.8,0.8-1.5,1.5-2.2c0.7-0.6,0.4-1.8,0-3.2c-0.6-2.2-1.3-4.9,1.5-6.6c-0.3-0.5-0.6-1-0.9-1.4
				C43.5,22.4,41.8,21.7,35.1,21.3z"/>
		</g>
	</g>
	<g>
		<g>
			<g>
				<g>
					<path class="st15" d="M35.2,27.2c0,0,2.1,0.7,3.3,2.4c-0.1-0.9-0.9-2.6-2.2-3.1C35.7,26.4,35.1,26.7,35.2,27.2z"/>
				</g>
			</g>
		</g>
	</g>
	<g>
		<g>
			<g>
				<g>
					<path class="st15" d="M24.3,26.1c0,0-2-0.4-3.7,0.5c0.4-0.7,1.9-1.7,3.2-1.5C24.2,25.3,24.6,25.8,24.3,26.1z"/>
				</g>
			</g>
		</g>
	</g>
	<g>
		<g>
			<g>
				<g>
					<g>
						<g>
							<g>
								<g>
									<g>
										<g>
											<g>
												<g>
													<g>
														<path class="st28" d="M33.2,35.1c0,2.1,1.3,3.9,2.9,3.9c1.6,0.1,2.9-1.6,2.9-3.7c0-2.1-1.3-3.9-2.9-3.9
															C34.5,31.3,33.2,33,33.2,35.1z"/>
													</g>
													<g>
														<g>
															<g>
																<g>
																	<g>
																		<g>
																			<g>
																				<path class="st2" d="M33.2,35.1c0,2.1,5.8,2.3,5.8,0.2c0-2.1-1.3-3.9-2.9-3.9C34.5,31.3,33.2,33,33.2,35.1z"/>
																			</g>
																		</g>
																	</g>
																</g>
															</g>
														</g>
													</g>
													<g>
														<path class="st15" d="M36.1,39.2L36.1,39.2L36.1,39.2c-1.8-0.1-3.2-1.9-3.1-4.1c0-2.2,1.3-3.9,3-3.9l0.1,0
															c1.7,0.1,3.1,1.9,3.1,4.1C39.1,37.5,37.8,39.2,36.1,39.2z M36,31.5c-1.5,0-2.7,1.6-2.7,3.6c0,2,1.2,3.7,2.7,3.8l0.1,0
															c1.5,0,2.7-1.6,2.7-3.6C38.8,33.3,37.6,31.6,36,31.5L36,31.5z"/>
													</g>
												</g>
											</g>
										</g>
									</g>
								</g>
							</g>
						</g>
					</g>
				</g>
			</g>
		</g>
		<g>
			<g>
				<g>
					<g>
						<g>
							<g>
								<g>
									<g>
										<path class="st29" d="M34.2,35.5c0.1,1.4,1,2.5,2,2.5c1.1,0,1.8-1.1,1.8-2.5C38,34.1,37,33,36,33
											C34.9,33,34.2,34.1,34.2,35.5z"/>
									</g>
								</g>
							</g>
						</g>
					</g>
				</g>
			</g>
			<g>
				<g>
					<g>
						<g>
							<g>
								<g>
									<g>
										<path class="st30" d="M34.2,35.5c0.1,1.4,3.9,1.4,3.8,0C38,34.1,37,33,36,33C34.9,33,34.2,34.1,34.2,35.5z"/>
									</g>
								</g>
							</g>
						</g>
					</g>
				</g>
			</g>
			<g>
				<g>
					<g>
						<g>
							<g>
								<g>
									<g>
										<path class="st31" d="M34.1,35.5c0-0.7,0.1-1.3,0.5-1.8c0.4-0.5,0.9-0.8,1.4-0.8c0.2,0,0.5,0,0.7,0.1
											c0.8,0.4,1.5,1.3,1.5,2.5c0.1,1.4-0.8,2.6-1.9,2.6c-0.2,0-0.5,0-0.7-0.1C34.8,37.6,34.2,36.6,34.1,35.5z M36,33.1
											c-0.5,0-0.9,0.2-1.2,0.7c-0.3,0.5-0.5,1.1-0.4,1.7c0.1,1,0.6,1.9,1.4,2.3c0.2,0.1,0.4,0.1,0.5,0.1c1,0,1.7-1.1,1.6-2.4
											c-0.1-1-0.6-1.9-1.4-2.3C36.4,33.2,36.2,33.1,36,33.1z"/>
									</g>
								</g>
							</g>
						</g>
					</g>
				</g>
			</g>
		</g>
		<g>
			<g>
				<g>
					<g>
						<g>
							<g>
								<g>
									<g>
										<path class="st32" d="M35.2,35.8c0,0.8,0.6,1.5,1.3,1.5c0.7,0,1.2-0.7,1.1-1.5c0-0.8-0.6-1.5-1.3-1.5
											C35.7,34.3,35.2,35,35.2,35.8z"/>
									</g>
								</g>
							</g>
						</g>
					</g>
				</g>
			</g>
		</g>
		<g>
			<g>
				<g>
					<g>
						<g>
							<g>
								<g>
									<g>
										<path class="st2" d="M34.9,34.2c-0.2,0.3,0,0.6,0.3,0.7c0.3,0.1,0.7,0,0.9-0.3c0.2-0.3,0-0.6-0.3-0.7
											C35.5,33.8,35.1,33.9,34.9,34.2z"/>
									</g>
								</g>
							</g>
						</g>
					</g>
				</g>
			</g>
		</g>
		<g>
			<g>
				<g>
					<g>
						<g>
							<g>
								<g>
									<g>
										<path class="st2" d="M35,35.3c-0.1,0.2,0,0.3,0.2,0.4c0.2,0.1,0.4,0,0.5-0.1c0.1-0.2,0-0.3-0.2-0.4
											C35.4,35.1,35.1,35.2,35,35.3z"/>
									</g>
								</g>
							</g>
						</g>
					</g>
				</g>
			</g>
		</g>
	</g>
	<g>
		<g>
			<g>
				<g>
					<g>
						<g>
							<g>
								<g>
									<g>
										<g>
											<g>
												<g>
													<g>
														<path class="st28" d="M18,29.9c-0.6,1.8,0,3.6,1.2,4.1c1.2,0.4,2.7-0.7,3.2-2.5c0.6-1.8,0-3.6-1.2-4.1
															C20,26.9,18.6,28,18,29.9z"/>
													</g>
													<g>
														<g>
															<g>
																<g>
																	<g>
																		<g>
																			<g>
																				<path class="st2" d="M18,29.9c-0.6,1.8,3.9,3.4,4.4,1.6c0.6-1.8,0-3.6-1.2-4.1C20,26.9,18.6,28,18,29.9z"/>
																			</g>
																		</g>
																	</g>
																</g>
															</g>
														</g>
													</g>
													<g>
														<path class="st3" d="M19.7,34.2L19.7,34.2c-0.2,0-0.4,0-0.6-0.1c-1.3-0.5-1.9-2.4-1.3-4.3c0.5-1.6,1.7-2.7,2.9-2.7
															c0.2,0,0.4,0,0.6,0.1c1.3,0.5,1.9,2.4,1.3,4.3C22.1,33.1,20.9,34.2,19.7,34.2z M20.7,27.4c-1,0-2.1,1-2.5,2.5
															c-0.5,1.7-0.1,3.5,1.1,3.9c0.2,0.1,0.3,0.1,0.5,0.1c1,0,2.1-1,2.5-2.5c0.5-1.7,0.1-3.5-1.1-3.9
															C21,27.5,20.9,27.4,20.7,27.4z"/>
													</g>
												</g>
											</g>
										</g>
									</g>
								</g>
							</g>
						</g>
					</g>
				</g>
			</g>
		</g>
		<g>
			<g>
				<g>
					<g>
						<g>
							<g>
								<g>
									<g>
										<path class="st29" d="M18.7,30.5c-0.3,1.2,0.1,2.4,0.9,2.6c0.8,0.2,1.7-0.5,2-1.7c0.3-1.2-0.1-2.4-0.9-2.6
											C19.9,28.5,19,29.3,18.7,30.5z"/>
									</g>
								</g>
							</g>
						</g>
					</g>
				</g>
			</g>
			<g>
				<g>
					<g>
						<g>
							<g>
								<g>
									<g>
										<path class="st30" d="M18.7,30.5c-0.3,1.2,2.6,2.1,2.9,0.9c0.3-1.2-0.1-2.4-0.9-2.6C19.9,28.5,19,29.3,18.7,30.5z"/>
									</g>
								</g>
							</g>
						</g>
					</g>
				</g>
			</g>
			<g>
				<g>
					<g>
						<g>
							<g>
								<g>
									<g>
										<path class="st31" d="M18.6,30.4c0.2-0.6,0.5-1.1,0.9-1.4c0.4-0.4,0.9-0.5,1.3-0.3c0.2,0.1,0.3,0.1,0.5,0.3
											c0.6,0.5,0.8,1.5,0.5,2.5c-0.3,1.3-1.3,2.1-2.2,1.8c-0.2-0.1-0.3-0.1-0.5-0.3C18.6,32.4,18.4,31.4,18.6,30.4z M20.7,28.9
											c-0.4-0.1-0.7,0-1.1,0.3c-0.4,0.3-0.6,0.8-0.8,1.4c-0.2,0.9-0.1,1.8,0.4,2.3c0.1,0.1,0.2,0.2,0.4,0.2
											c0.7,0.2,1.6-0.5,1.9-1.7c0.2-0.9,0.1-1.8-0.4-2.3C21,29,20.8,28.9,20.7,28.9z"/>
									</g>
								</g>
							</g>
						</g>
					</g>
				</g>
			</g>
		</g>
		<g>
			<g>
				<g>
					<g>
						<g>
							<g>
								<g>
									<g>
										<path class="st32" d="M19.4,30.9c-0.2,0.7,0.1,1.4,0.6,1.5c0.5,0.2,1.1-0.3,1.2-1c0.2-0.7-0.1-1.4-0.6-1.5
											C20.1,29.8,19.6,30.2,19.4,30.9z"/>
									</g>
								</g>
							</g>
						</g>
					</g>
				</g>
			</g>
		</g>
		<g>
			<g>
				<g>
					<g>
						<g>
							<g>
								<g>
									<g>
										<path class="st2" d="M19.6,29.5c-0.2,0.2-0.2,0.5,0,0.7c0.2,0.2,0.5,0.2,0.7,0c0.2-0.2,0.2-0.5,0-0.7
											C20.1,29.3,19.8,29.3,19.6,29.5z"/>
									</g>
								</g>
							</g>
						</g>
					</g>
				</g>
			</g>
		</g>
		<g>
			<g>
				<g>
					<g>
						<g>
							<g>
								<g>
									<g>
										<path class="st2" d="M19.4,30.5c-0.1,0.1-0.1,0.3,0,0.4c0.1,0.1,0.3,0.1,0.4,0c0.1-0.1,0.1-0.3,0-0.4
											C19.7,30.4,19.5,30.4,19.4,30.5z"/>
									</g>
								</g>
							</g>
						</g>
					</g>
				</g>
			</g>
		</g>
	</g>
	<g>
		<g>
			<g>
				<path class="st25" d="M27.6,50.4c0,0,0.8-0.2,1.3,0c0.6,0.3,0.8,0.9,0.8,0.9c0,0,0.1-0.7-0.5-1.1C28.3,49.9,27.6,50.4,27.6,50.4
					z"/>
			</g>
		</g>
	</g>
	<g>
		<path class="st2" d="M18.8,35.3L18.6,35c4.7-2.6,4.2-6.9,4.2-7l0.3,0C23.1,28,25.2,34.4,18.8,35.3z"/>
	</g>
	<g>
		<path class="st3" d="M18.8,35.3L18.6,35c4.7-2.6,4.2-6.9,4.2-7c0,0,0.6,2-0.7,4.2C21.4,33.3,20.4,34.4,18.8,35.3z"/>
	</g>
</g>
</svg>
