<?xml version="1.0" encoding="utf-8"?>
<!-- Generator: Adobe Illustrator 21.0.2, SVG Export Plug-In . SVG Version: 6.00 Build 0)  -->
<svg version="1.1" id="Слой_1" xmlns="http://www.w3.org/2000/svg" xmlns:xlink="http://www.w3.org/1999/xlink" x="0px" y="0px"
	 viewBox="0 0 130 114" style="enable-background:new 0 0 130 114;" xml:space="preserve">
<style type="text/css">
	.st0{fill:#AC4100;}
	.st1{fill:#B84C00;}
	.st2{fill:#7C2E03;}
	.st3{fill:#F9D8C7;}
	.st4{fill:#FCE9DE;}
	.st5{fill:#FFFFFF;}
	.st6{fill:#E2C3B3;}
	.st7{fill:#9B3902;}
	.st8{fill:#161616;}
	.st9{fill:#0C0C0C;}
	.st10{fill:#0F0F0F;}
	.st11{fill:#191919;}
	.st12{fill:#1E1E1E;}
	.st13{fill:#050505;}
	.st14{fill:#03A4FF;}
	.st15{fill:#0381FF;}
	.st16{fill:#0356FF;}
</style>
<g>
	<g>
		<path class="st0" d="M81.4,83.1c0,0,4.9,3.1,5.5,6.2c0.6,3.1-0.1,3.1-1.1,3.5c-1,0.4-3.7,2.6-0.9,5.3c0.8,1.3,2.3,3.4,5.5,2
			c2.1-1,5.5-5.8,3.7-11.5C92.2,82.9,87,78.5,81.4,83.1z"/>
		<path class="st1" d="M81.4,83.1c0,0,4.9,3.1,5.5,6.2c0.6,3.1-0.1,3.1-1.1,3.5c-1,0.4-3.7,2.6-0.9,5.3c0.8,1.3,2.3,3.4,5.5,2
			c2.1-1,5.5-5.8,3.7-11.5C92.2,82.9,87,78.5,81.4,83.1z"/>
		<path class="st2" d="M88.3,100.8L88.3,100.8c-2,0-3-1.5-3.7-2.5c-1-1-1.4-2-1.2-3c0.3-1.4,1.6-2.3,2.2-2.5l0.2-0.1
			c0.9-0.3,1.3-0.5,0.8-3.2c-0.5-3-5.4-6.1-5.4-6.1l-0.2-0.1l0.2-0.2c1.6-1.3,3.2-2,4.8-2c3.9,0,6.9,3.8,8.1,7.5
			c1.8,5.7-1.5,10.7-3.8,11.7C89.7,100.6,89,100.8,88.3,100.8z M81.7,83.1c1,0.7,4.8,3.4,5.4,6.2c0.5,2.9,0,3.3-1.1,3.6L85.8,93
			c-0.5,0.2-1.7,1-2,2.3C83.6,96.2,84,97.1,85,98l0,0c0.6,1,1.6,2.4,3.4,2.4c0.6,0,1.2-0.2,1.9-0.5c2.2-1,5.4-5.8,3.6-11.3
			c-1.2-3.6-4-7.3-7.7-7.3C84.7,81.4,83.2,82,81.7,83.1z"/>
	</g>
	<g>
		<g>
			<path class="st3" d="M94,88.6c-0.5-1.6-1.3-3-2.2-4.2c-0.7,0.2-1.1,0.7-1.2,1.4c-0.1,1.1-1.5,2.5-3.3,1.5
				c-0.6-0.3-1.2-0.4-1.7-0.4c0.6,0.8,1.1,1.6,1.3,2.5c0.6,3.1-0.1,3.1-1.1,3.5c-1,0.4-3.7,2.6-0.9,5.3c0.8,1.3,2.3,3.4,5.5,2
				C92.4,99.2,95.9,94.4,94,88.6z"/>
			<path class="st4" d="M94,88.6c-0.5-1.6-1.3-3-2.2-4.2c-0.7,0.2-1.1,0.7-1.2,1.4c-0.1,1.1-1.5,2.5-3.3,1.5
				c-0.6-0.3-1.2-0.4-1.7-0.4c0.6,0.8,1.1,1.6,1.3,2.5c0.6,3.1-0.1,3.1-1.1,3.5c-1,0.4-3.2,2.3-1,3.9c0.9,1.3,3.4,2.2,6.5,0.7
				C93.4,96.5,95.9,94.4,94,88.6z"/>
			<path class="st5" d="M94,88.6c-0.5-1.6-1.3-3-2.2-4.2c-0.7,0.2-1.1,0.7-1.2,1.4c-0.1,1.1-1.5,2.5-3.3,1.5
				c-0.6-0.3-1.2-0.4-1.7-0.4c0.6,0.8,1.1,1.6,1.3,2.5c0.6,3.1-0.1,3.1-1.1,3.5c-1,0.4-3,1.5-0.7,3c0.8,1.3,3.2,2.3,6.4,0.8
				C93.6,95.8,95.9,94.4,94,88.6z"/>
			<path class="st6" d="M88.3,100.8L88.3,100.8c-2,0-3-1.5-3.7-2.5c-1-1-1.4-2-1.2-3c0.3-1.4,1.6-2.3,2.2-2.5l0.2-0.1
				c0.9-0.3,1.3-0.5,0.8-3.2c-0.1-0.7-0.5-1.6-1.2-2.4l-0.2-0.3l0.4,0c0.6,0,1.2,0.1,1.8,0.4c0.4,0.2,0.7,0.3,1.1,0.3
				c1.1,0,1.8-1,1.9-1.7c0.1-0.8,0.6-1.4,1.3-1.5l0.1,0l0.1,0.1c1,1.2,1.7,2.7,2.2,4.3c1.8,5.7-1.5,10.7-3.8,11.7
				C89.7,100.6,89,100.8,88.3,100.8z M86,87.1c0.6,0.8,0.9,1.5,1.1,2.3c0.5,2.9,0,3.3-1.1,3.6L85.8,93c-0.5,0.2-1.7,1-2,2.3
				C83.6,96.2,84,97.1,85,98l0,0c0.6,1,1.6,2.4,3.4,2.4c0.6,0,1.2-0.2,1.9-0.5c2.2-1,5.4-5.8,3.6-11.3c-0.5-1.5-1.2-2.9-2.1-4.1
				c-0.7,0.2-0.9,0.7-0.9,1.2c-0.1,1-1.1,2-2.3,2c-0.4,0-0.8-0.1-1.3-0.3C86.9,87.2,86.4,87.1,86,87.1z"/>
		</g>
	</g>
	<g>
		<path class="st6" d="M84.7,98.3c-1.1-2.6,1.1-3.1,1.1-3.1c-0.1,0-1.7,0.7-0.8,2.9L84.7,98.3z"/>
	</g>
	<g>
		<path class="st0" d="M46.6,74.1c0,0-2.8,13-3.9,15.1c-0.9-0.9-6.2,0.1-3.7,4.7c-0.4,1.6,2.8,3.2,6.8,2.4c4-0.8,5.5-7.8,6.6-11.5
			c1-3.7,1.5-8.5,1.5-8.5L46.6,74.1z"/>
		<path class="st1" d="M46.6,74.1c0,0-2.8,13-3.9,15.1c-0.9-0.9-6.2,0.1-3.7,4.7c-0.4,1.6,2.8,3.2,6.8,2.4c4-0.8,5.5-7.8,6.6-11.5
			c1-3.7,1.5-8.5,1.5-8.5L46.6,74.1z"/>
		<path class="st2" d="M43.7,96.6L43.7,96.6c-2.1,0-3.9-0.6-4.6-1.6c-0.3-0.4-0.4-0.8-0.3-1.2c-1-1.8-0.7-2.9-0.3-3.6
			c0.9-1.5,3.2-1.9,4.1-1.4c1.1-2.6,3.8-14.7,3.8-14.8l0-0.2l7.7,2.2l0,0.2c0,0-0.5,4.9-1.5,8.5c-0.1,0.3-0.2,0.6-0.2,0.9
			c-1.1,4-2.7,10-6.5,10.7C45.1,96.6,44.4,96.6,43.7,96.6z M41.5,89.1c-0.9,0-2.2,0.4-2.7,1.4c-0.5,0.9-0.4,2,0.3,3.3l0,0.1l0,0.1
			c-0.1,0.3,0,0.6,0.2,0.9c0.7,0.9,2.4,1.4,4.3,1.4l0,0c0.7,0,1.4-0.1,2.1-0.2c3.5-0.7,5.2-6.8,6.2-10.4c0.1-0.3,0.2-0.6,0.2-0.9
			c0.9-3.2,1.4-7.5,1.5-8.3l-7-2c-0.4,1.7-2.9,13-3.9,14.9l-0.1,0.2l-0.2-0.2C42.4,89.2,42,89.1,41.5,89.1z"/>
	</g>
	<g>
		<g>
			<path class="st3" d="M49.3,85.3c-1.3,0.5-1.7-0.3-2.8-1.9c-0.6-0.9-1.4-0.7-2-0.3c-0.7,2.8-1.4,5.3-1.8,6.1
				c-0.9-0.9-6.2,0.1-3.7,4.7c-0.4,1.6,2.8,3.2,6.8,2.4c3.3-0.6,4.9-5.5,5.9-9.2C51.2,86.2,50.2,84.9,49.3,85.3z"/>
			<path class="st4" d="M49.3,85.3c-1.3,0.5-1.7-0.3-2.8-1.9c-0.6-0.9-1.4-0.7-2-0.3c-0.7,2.8-1.4,5.3-1.8,6.1
				c-0.9-0.9-5.6,0.4-3.5,3.2c-0.4,1.6,3.4,3.3,7.4,2.5c3.2-0.6,4.1-4.2,5.2-7.9C51.2,86.2,50.2,84.9,49.3,85.3z"/>
			<path class="st5" d="M49.3,85.3c-1.3,0.5-1.7-0.3-2.8-1.9c-0.6-0.9-1.4-0.7-2-0.3c-0.7,2.8-1.4,5.3-1.8,6.1
				c-0.9-0.9-4.4-0.4-2.3,2.4c-0.4,1.6,2.5,3.3,6.4,2.5c3.2-0.6,3.9-3.3,5-7C51.2,86.2,50.2,84.9,49.3,85.3z"/>
			<path class="st6" d="M43.7,96.6L43.7,96.6c-2.1,0-3.9-0.6-4.6-1.6c-0.3-0.4-0.4-0.8-0.3-1.2c-1-1.8-0.7-2.9-0.3-3.6
				c0.9-1.5,3.2-1.9,4.1-1.4c0.4-0.8,0.9-2.8,1.7-5.9l0-0.1l0.1,0c0.9-0.5,1.7-0.4,2.3,0.4c0.1,0.2,0.2,0.3,0.3,0.5
				c0.9,1.2,1.2,1.7,2.3,1.3c0.1,0,0.2-0.1,0.4-0.1c0.9,0,1.7,1,2.3,1.9l0,0.1l0,0.1c-1.1,4-2.8,8.7-6.1,9.3
				C45.1,96.6,44.4,96.6,43.7,96.6z M41.5,89.1c-0.9,0-2.2,0.4-2.7,1.4c-0.5,0.9-0.4,2,0.3,3.3l0,0.1l0,0.1c-0.1,0.3,0,0.6,0.2,0.9
				c0.7,0.9,2.4,1.4,4.3,1.4l0,0c0.7,0,1.4-0.1,2.1-0.2c3-0.6,4.7-5.1,5.8-9c-0.8-1.2-1.6-1.8-2.1-1.6c-0.3,0.1-0.5,0.2-0.8,0.2
				c-0.8,0-1.3-0.6-2-1.6c-0.1-0.2-0.2-0.3-0.3-0.5c-0.4-0.6-1-0.7-1.7-0.3c-0.8,3.3-1.4,5.4-1.8,6.1l-0.1,0.2l-0.2-0.2
				C42.4,89.2,42,89.1,41.5,89.1z"/>
		</g>
	</g>
	<g>
		<path class="st6" d="M39.2,93.9l-0.4,0c0.1-1.2,0.6-2.1,1.3-2.6c1-0.7,2.2,0,2.2,0c0,0-1.1-0.3-2,0.3C39.7,92,39.3,92.8,39.2,93.9
			z"/>
	</g>
	<g>
		<path class="st7" d="M96.2,59.9c0,0,4.2,0,4.1-5.5c-0.1-5.5-3.3-6.2-3.3-6.2c2.2-0.3,5.4,1.2,5.4,1.2c-0.9-1.6-2-2.6-2-2.6
			c2.8,0.9,8.5,4.1,5.7,13.6c-2.3,7.7-6.5,6.9-6.5,6.9L96.2,59.9z"/>
		<path class="st0" d="M96.2,59.9c0,0,4.2,0,4.1-5.5c-0.1-5.5-3.3-6.2-3.3-6.2c2.2-0.3,5.4,1.2,5.4,1.2c-0.9-1.6-2-2.6-2-2.6
			c2.8,0.9,6.9,4,4.1,13.4c-2.3,7.7-7.1,4.9-7.1,4.9L96.2,59.9z"/>
		<path class="st1" d="M96.2,59.9c0,0,4.2,0,4.1-5.5c-0.1-5.5-3.3-6.2-3.3-6.2c2.2-0.3,5.4,1.2,5.4,1.2c-0.9-1.6-2-2.6-2-2.6
			c2.8,0.9,6.5,4.4,3.1,13.7c-2,5.5-6.1,4.6-6.1,4.6L96.2,59.9z"/>
		<path class="st2" d="M99.9,67.5c-0.3,0-0.4,0-0.4,0l-0.1,0l-3.5-7.7h0.3c0,0,1.5,0,2.6-1.2c0.9-0.9,1.3-2.3,1.3-4.1
			c-0.1-5.3-3.2-6.1-3.2-6.1l-1.1-0.2l1.1-0.1c0.2,0,0.4,0,0.6,0c1.6,0,3.5,0.7,4.4,1c-0.8-1.3-1.7-2.1-1.7-2.1l-0.6-0.6l0.8,0.2
			c2.1,0.7,8.8,3.7,5.8,13.9C104.3,66.8,101.2,67.5,99.9,67.5z M99.6,67.1c0.1,0,0.1,0,0.3,0c0.9,0,4.1-0.5,5.9-6.8
			c2.7-8.9-2.3-12.1-4.8-13.1c0.4,0.5,1,1.2,1.5,2.1l0.3,0.5l-0.5-0.2c0,0-2.5-1.1-4.5-1.2c1,0.6,2.6,2.2,2.7,6.1
			c0,1.9-0.4,3.4-1.4,4.4c-0.9,1-2.1,1.2-2.6,1.3L99.6,67.1z"/>
	</g>
	<g>
		<path class="st7" d="M45.2,20.1c0,0,2-5.5,6-5.5c4,0,7.5,7.3,7.5,7.3L45.2,20.1z"/>
		<path class="st0" d="M45.2,20.1c0,0,2-5.5,6-5.5c4,0,4,7.5,4,7.5L45.2,20.1z"/>
		<path class="st1" d="M45.2,20.1c0,0,2-5.5,6-5.5c4,0,2,7.5,2,7.5L45.2,20.1z"/>
		<path class="st2" d="M59,22.1L45,20.3l0.1-0.2c0.1-0.2,2.1-5.7,6.2-5.7c4,0,7.5,7.1,7.6,7.4L59,22.1z M45.5,19.9l12.9,1.7
			c-0.7-1.4-3.8-6.9-7.1-6.9C47.9,14.8,45.9,18.9,45.5,19.9z"/>
	</g>
	<g>
		<path class="st7" d="M94,79.9c0,0-16,9.5-33.4,4.3C43.2,79,43.3,70.5,45.2,63.5c1.9-6.9,3-11.3,0.9-15.4
			c-2.1-4,18.2-13.9,17.4-8.6c-0.8,5.3-4,14.1-0.4,16.3c3.7,2.1,12,2.7,17.8,1.2c5.8-1.6,13.9-2.7,18.5,4.2
			C104.1,68.2,98,77.2,94,79.9z"/>
		<path class="st0" d="M94,79.9c0,0-16,9.5-33.4,4.3C43.2,79,43.3,70.5,45.2,63.5c1.9-6.9,3-11.3,0.9-15.4
			c-2.1-4,16.5-14.2,15.8-8.9c-0.8,5.3-5.5,14.8-1.8,17c3.7,2.1,15.1,2.4,20.9,0.8c5.8-1.6,13.9-2.7,18.5,4.2
			C104.1,68.2,98,77.2,94,79.9z"/>
		<path class="st1" d="M94,79.9c0,0-16,9.5-33.4,4.3C43.2,79,43.3,70.5,45.2,63.5c1.9-6.9,3-11.3,0.9-15.4
			c-2.1-4,15.5-14.4,14.7-9.1c-0.8,5.3-5.9,15.9-2.3,18c3.7,2.1,16.6,1.6,22.4,0c5.8-1.6,13.9-2.7,18.5,4.2
			C104.1,68.2,98,77.2,94,79.9z"/>
		<g>
			<g>
				<path class="st8" d="M70.4,68.3c2.7,0.1,1.6-5.4,3.8-4.1c2.3,1.3,2.2-4.1,3.9-2.8c2,1.4,3.1-1.2,4.3,0.6
					c1.2,1.8,6.2,3.2,7.9-1.2c1-2.5,1.7-3.7,4-4c-4.3-1.9-9.4-1-13.5,0.1c-4.8,1.3-11.3,1.1-15.4-0.2c0.6,1.1,1.3,2.5,1.4,4.5
					C67.1,65.4,67.6,68.2,70.4,68.3z"/>
			</g>
		</g>
		<path class="st2" d="M71.5,85.9c-3.8,0-7.5-0.5-10.9-1.6c-17.4-5.2-17.4-13.9-15.5-20.9c1.9-7.1,2.9-11.3,0.9-15.2
			c-0.3-0.6-0.2-1.3,0.3-2.1c2.2-3.6,11.6-8.3,15.5-8.3c0.8,0,1.4,0.2,1.7,0.6c0.3,0.3,0.3,0.7,0.3,1.2c-0.2,1.3-0.5,2.8-0.9,4.3
			c-1.1,4.8-2.3,10.2,0.4,11.7c2.1,1.3,6.1,2,10.3,2c2.7,0,5.2-0.3,7.3-0.9c3-0.8,5.5-1.2,7.7-1.2c4.9,0,8.6,1.8,11,5.5
			c4.6,6.8-1.1,15.9-5.5,18.9C94,80.1,84.1,85.9,71.5,85.9z M61.7,38.2c-3.8,0-13.1,4.6-15.2,8.1c-0.4,0.7-0.5,1.3-0.3,1.7
			c2.1,4.1,1.1,8.3-0.8,15.5c-2,7.3-1.7,15.4,15.3,20.4c3.4,1,7.1,1.5,10.8,1.5c12.5,0,22.3-5.7,22.4-5.8c4.2-2.9,9.8-11.8,5.4-18.4
			c-2.4-3.5-6-5.3-10.7-5.3c-2.2,0-4.7,0.4-7.6,1.2c-2.2,0.6-4.7,0.9-7.4,0.9c-4.3,0-8.3-0.8-10.5-2.1c-2.9-1.7-1.7-7.3-0.6-12.2
			c0.3-1.6,0.7-3,0.9-4.3c0.1-0.4,0-0.7-0.2-0.9C62.9,38.4,62.4,38.2,61.7,38.2z"/>
	</g>
	<g>
		<g>
			<path class="st3" d="M76,78.2c-3.4,1.3-3.8-1.8-6.9-1.5c-3,0.3-12.8,3.3-16.9-1.6c-4.1-4.9-1.2-11,0-13.7
				c1.2-2.7,1.8-3.2,0.3-6.2c-1.5-3.1,2-5.6,0.6-9.3c-0.6-1.5-2.1-2.1-3.9-2.5c-2.3,1.7-3.7,3.5-3.1,4.7c2.1,4,1,8.4-0.9,15.4
				c-1.9,6.9-2,15.5,15.4,20.7C78,89.4,94,79.9,94,79.9c1.7-1.2,3.8-3.5,5.3-6.3c-3.8,1.4-8.8,4.3-11.3,5.3
				C84.6,80.3,79.4,77,76,78.2z"/>
			<path class="st4" d="M76,78.2c-3.4,1.3-3.8-1.8-6.9-1.5c-3,0.3-12.8,3.3-16.9-1.6c-4.1-4.9-1.2-11,0-13.7
				c1.2-2.7,1.8-3.2,0.3-6.2c-1.5-3.1,2-5.6,0.6-9.3c-0.6-1.5-2.1-2.1-3.9-2.5c-2.3,1.7-3.7,3.5-3.1,4.7c2.1,4,1,8.4-0.9,15.4
				c-1.9,6.9-2.1,13.9,15.3,19.1c17.4,5.2,32.3-3.1,32.3-3.1c1.7-1.2,5.1-3,6.5-5.8c-3.8,1.4-8.8,4.3-11.3,5.3
				C84.6,80.3,79.4,77,76,78.2z"/>
			<path class="st5" d="M76,78.2c-3.4,1.3-3.8-1.8-6.9-1.5c-3,0.3-12.8,3.3-16.9-1.6c-4.1-4.9-1.2-11,0-13.7
				c1.2-2.7,1.8-3.2,0.3-6.2c-1.5-3.1,2-5.6,0.6-9.3c-0.6-1.5-2.1-2.1-3.9-2.5c-2.3,1.7-3.7,3.5-3.1,4.7c2.1,4,1,8.4-0.9,15.4
				c-1.9,6.9-2.9,11.7,14.5,16.9c17.4,5.2,33-1,33-1c1.7-1.2,5.1-3,6.5-5.8c-3.8,1.4-8.8,4.3-11.3,5.3C84.6,80.3,79.4,77,76,78.2z"
				/>
			<path class="st6" d="M71.5,85.9c-3.8,0-7.5-0.5-10.9-1.6c-17.4-5.2-17.4-13.9-15.5-20.9c1.9-7.1,2.9-11.3,0.9-15.2
				c-0.8-1.5,1.3-3.5,3.1-4.9l0.1-0.1l0.1,0c1.5,0.3,3.4,0.9,4.1,2.6c0.8,1.9,0.2,3.5-0.3,5c-0.5,1.4-1,2.8-0.2,4.2
				c1.4,2.8,1,3.6,0.1,5.5c-0.1,0.3-0.3,0.5-0.4,0.9l0,0.1c-1.3,2.8-4,8.7,0,13.4c1.5,1.8,4,2.7,7.5,2.7c2.6,0,5.2-0.5,7.1-0.8
				c0.8-0.2,1.6-0.3,2.1-0.3c1.4-0.1,2.3,0.4,3.1,1c0.7,0.4,1.3,0.9,2.2,0.9c0.4,0,0.9-0.1,1.4-0.3c0.5-0.2,1.2-0.3,1.9-0.3
				c1.3,0,2.7,0.3,4.1,0.7c1.4,0.3,2.8,0.7,4.1,0.7c0.7,0,1.3-0.1,1.9-0.3c1-0.4,2.4-1.1,4-1.9c2.4-1.2,5.1-2.6,7.4-3.4l0.5-0.2
				l-0.2,0.4c-1.4,2.6-3.4,5.1-5.3,6.4C94,80.1,84.1,85.9,71.5,85.9z M49.2,43.6c-2.4,1.8-3.5,3.4-3,4.4c2.1,4.1,1.1,8.3-0.8,15.5
				c-2,7.3-1.7,15.4,15.3,20.4c3.4,1,7.1,1.5,10.8,1.5c12.5,0,22.3-5.7,22.4-5.8c1.4-0.9,3.4-3,5-5.8c-2.1,0.8-4.6,2.1-6.9,3.2
				c-1.6,0.8-3,1.5-4,1.9c-0.6,0.2-1.3,0.4-2,0.4c-1.3,0-2.8-0.3-4.2-0.7c-1.4-0.3-2.8-0.7-4.1-0.7c-0.7,0-1.2,0.1-1.7,0.3
				c-0.6,0.2-1.1,0.3-1.6,0.3c-1,0-1.8-0.5-2.5-0.9c-0.8-0.5-1.6-1-2.9-0.9c-0.5,0.1-1.2,0.2-2.1,0.3c-1.9,0.4-4.6,0.8-7.2,0.8
				c-3.6,0-6.2-0.9-7.8-2.8c-4.2-4.9-1.3-11.1-0.1-13.8l0-0.1c0.1-0.3,0.3-0.6,0.4-0.9c0.9-2,1.2-2.6-0.1-5.2
				c-0.8-1.6-0.3-3,0.2-4.5c0.5-1.5,1-3,0.3-4.8C52.5,44.8,51.3,44.1,49.2,43.6z"/>
		</g>
	</g>
	<g>
		<path class="st7" d="M62.5,74.6l-11.1-2.1c0,0-1,4.5-1.3,9.9c-0.3,5.4-2.9,12.3-2.9,12.3c-1.6-1.3-4.1-0.6-5.1,1.2
			c-1,1.8-0.3,3.3,1.9,3.6c0.7,2.1,5.5,2.8,8.8,1.9c3.3-0.9,3.1-2.9,2.8-5.4C57.6,92.5,64.3,77.7,62.5,74.6z"/>
		<path class="st0" d="M62.5,74.5l-11.1-2.1c0,0-1,4.5-1.3,9.9c-0.3,5.4-2.9,12.3-2.9,12.3c-1.6-1.3-4.1-0.6-5.1,1.2
			c-1,1.8-0.3,3.3,1.9,3.6c0.7,2.1,4.4,2.2,7.8,1.3c3.3-0.9,2.4-3.6,2.1-6C55.9,91.1,64.3,77.6,62.5,74.5z"/>
		<path class="st1" d="M62.5,74.5l-11.1-2.1c0,0-1,4.5-1.3,9.9c-0.3,5.4-2.9,12.3-2.9,12.3c-1.6-1.3-4.1-0.6-5.1,1.2
			c-1,1.8-0.3,3.3,1.9,3.6c0.7,2.1,4.4,2.2,7.8,1.3c3.3-0.9,0.8-3.6,0.5-6C54.2,91.1,64.3,77.6,62.5,74.5z"/>
		<path class="st2" d="M49.7,101.8c-2.7,0-5.3-0.8-5.9-2.3c-1.1-0.2-1.8-0.6-2.2-1.4c-0.3-0.7-0.2-1.6,0.3-2.5
			c0.5-0.9,1.5-1.6,2.6-1.9c0.9-0.2,1.8,0,2.6,0.5c0.5-1.2,2.6-7.2,2.8-12c0.1-2.2,0.4-4.2,0.6-5.9c0.4-2.4,1.1-4,1.1-4
			c0,0-1,4.6-1.3,9.9c-0.3,5.4-2.9,12.3-2.9,12.3l-0.1,0.2l-0.2-0.2c-0.7-0.5-1.6-0.7-2.5-0.5c-1,0.2-1.9,0.8-2.4,1.7
			c-0.5,0.8-0.5,1.6-0.3,2.1c0.3,0.6,1,1,2,1.2l0.1,0l0,0.1c0.7,2,5.4,2.7,8.6,1.8c3.2-0.9,3-2.7,2.6-5.1l0-0.1l0-0.1
			c2.1-3.5,8.6-18.2,6.9-21.2c0,0,0.7,1.1,0.6,2c-0.4,5.3-5.6,16.5-7.2,19.3c0.3,2.4,0.5,4.5-2.9,5.5
			C51.9,101.7,50.8,101.8,49.7,101.8z"/>
	</g>
	<g>
		<g>
			<path class="st3" d="M55.6,90.9c-1.4-0.9-2.2-1.7-4.5-0.5c-1.1,0.6-1.9-0.2-2.3-1.1c-0.8,3-1.7,5.3-1.7,5.3
				c-1.6-1.3-4.1-0.6-5.1,1.2c-1,1.8-0.3,3.3,1.9,3.6c0.7,2.1,5.5,2.8,8.8,1.9c3.3-0.9,3.1-2.9,2.8-5.4c0.5-0.9,1.4-2.6,2.3-4.6
				C57.1,91.4,56.3,91.3,55.6,90.9z"/>
			<path class="st4" d="M45.1,96.2c-0.8,1.9,0,3.8,1.9,4.1c2.3,0.3,4.5,0.8,6.4-0.8c1.1-1.1,0.8-2.2,0.4-3.8
				c-0.6-1.8,1.2-3.1,2.1-4.7c-0.1,0-0.2-0.1-0.3-0.2c-1.4-0.9-2.2-1.7-4.5-0.5c-1.1,0.6-1.9-0.2-2.3-1.1c-0.8,3-1.7,5.3-1.7,5.3
				c-1.6-1.3-4.1-0.6-5.1,1.2c-0.3,0.5-0.4,1-0.5,1.5C42.9,97.7,44.1,97.5,45.1,96.2z"/>
			<path class="st5" d="M45.9,95.4c-0.8,1.5-0.4,2.6,0.4,3.8c1.9,1.5,6.9,0.3,6.5-1.7c-0.5-2.7,0.1-4.7,2.2-6.8
				c-1-0.6-2-1.2-3.8-0.3c-1.1,0.6-1.9-0.2-2.3-1.1c-0.8,3-1.7,5.3-1.7,5.3c-1.6-1.3-4.1-0.6-5.1,1.2c-0.1,0.2-0.2,0.4-0.3,0.6
				C43,96.8,44.8,96.2,45.9,95.4z"/>
			<path class="st6" d="M49.7,101.8c-2.5,0-5.2-0.7-5.9-2.3c-1.1-0.2-1.8-0.6-2.2-1.4c-0.3-0.7-0.2-1.6,0.3-2.5
				c0.7-1.2,2-1.9,3.3-1.9c0.7,0,1.3,0.2,1.8,0.5c0.2-0.7,0.9-2.6,1.6-5l0.1-0.5l0.2,0.5c0.5,1.1,1.2,1.4,2,1
				c0.8-0.4,1.5-0.6,2.1-0.6c0.9,0,1.6,0.4,2.3,1l0.2,0.2c0.5,0.4,1.3,0.5,2.1,0.3l0.4-0.1L58,91.3c-0.9,1.9-1.7,3.6-2.3,4.6
				c0.3,2.4,0.5,4.5-2.9,5.5C51.9,101.7,50.8,101.8,49.7,101.8z M45.3,94.1c-1.2,0-2.4,0.7-3,1.8c-0.5,0.8-0.5,1.6-0.3,2.1
				c0.3,0.6,1,1,2,1.2l0.1,0l0,0.1c0.4,1.3,2.7,2.2,5.5,2.2c1.1,0,2.1-0.1,3.1-0.4c3.2-0.9,3-2.7,2.6-5.1l0-0.1l0-0.1
				c0.5-0.9,1.3-2.5,2.1-4.3c-0.8,0.1-1.5-0.1-2-0.4l-0.2-0.2C54.5,90.4,54,90,53.2,90c-0.5,0-1.2,0.2-1.9,0.6
				c-0.9,0.4-1.7,0.2-2.3-0.8c-0.8,2.7-1.6,4.8-1.6,4.8l-0.1,0.2l-0.2-0.2C46.6,94.3,45.9,94.1,45.3,94.1z"/>
		</g>
	</g>
	<g>
		<path class="st6" d="M43.8,99.4c-0.7-3.1,2.8-3.8,2.8-3.8c-0.1,0-3,1-2.4,3.7L43.8,99.4z"/>
	</g>
	<g>
		<path class="st7" d="M100.5,88.7c0.8-3.7-1.5-5.9-0.9-9.3c0.6-3.4,3.9-12.4,0.2-17.5l-20.1,3c0,0-1.6,10.9,7,18.2
			c8.6,7.3,6.3,12.3,6.3,12.3c-2.8,0.4-5.7,3.7-2.5,5.7c0.4,2,7.6,3,9.8-0.5C102.7,97.1,99.8,92.4,100.5,88.7z"/>
		<path class="st0" d="M98.1,89.3c0.8-3.7-1.6-4.7-1-8.1c0.6-3.4,6.5-14.2,2.8-19.3l-20.1,3c0,0-1.6,10.9,7,18.2
			c8.6,7.3,6.3,12.3,6.3,12.3c-2.8,0.4-5.7,3.7-2.5,5.7c0.4,2,6.8,2.5,9-1C101.9,96.6,97.3,92.9,98.1,89.3z"/>
		<path class="st1" d="M98.1,89.3c0.8-3.7-2.9-4.4-2.2-7.8c0.6-3.4,7.7-14.5,4-19.6l-20.1,3c0,0-1.6,10.9,7,18.2
			c8.6,7.3,6.3,12.3,6.3,12.3c-2.8,0.4-5.7,3.7-2.5,5.7c0.4,2,6.8,2.5,9-1C101.9,96.6,97.3,92.9,98.1,89.3z"/>
		<g>
			<g>
				<path class="st9" d="M98.3,69.6c-3.3,0.8-4.6,2.2-3.2,3.9c1.4,1.8,2.6,2,2.6,3.7c0,1.4,0.6,3.2,1.8,3.2c0-0.3,0-0.7,0.1-1
					c0.4-2.4,2.2-7.5,1.9-12.1C100.8,68.3,99.8,69.3,98.3,69.6z"/>
			</g>
		</g>
		<path class="st2" d="M95.2,103.1c-0.6,0-1.1,0-1.7-0.1c-1.6-0.3-2.8-0.9-3-1.7c-1.4-1-1.5-2-1.4-2.8c0.3-1.5,2-2.9,3.9-3.2
			c0.2-0.7,1.4-5.4-6.3-12C78.1,75.9,80,64.9,80,64.9c0,0.1-1.5,10.8,7,18c8.6,7.3,6.5,12.3,6.4,12.5l0,0.1l-0.1,0
			c-1.7,0.3-3.4,1.6-3.7,3c-0.2,0.9,0.2,1.8,1.3,2.4l0.1,0l0,0.1c0.1,0.7,1.2,1.3,2.7,1.5c2.4,0.4,5.5-0.1,6.8-2.1
			c1.2-2,0.8-4.4,0.3-6.8c-0.3-1.7-0.7-3.5-0.3-5c0.4-1.8,0-3.3-0.4-4.8c-0.4-1.4-0.8-2.8-0.5-4.5c0.1-0.6,0.3-1.3,0.5-2.2
			c1-4.1,2.7-11-0.3-15.2l0.3-0.2c3.1,4.3,1.4,11.3,0.3,15.5c-0.2,0.9-0.4,1.6-0.5,2.2c-0.3,1.6,0.1,2.9,0.4,4.4
			c0.4,1.5,0.8,3.1,0.4,5c-0.3,1.5,0,3.1,0.3,4.9c0.5,2.4,1,5-0.4,7C99.6,102.4,97.3,103.1,95.2,103.1z"/>
	</g>
	<g>
		<g>
			<path class="st3" d="M100.5,88.7c0.2-0.8,0.2-1.6,0.1-2.3c-0.5,0.1-1-0.2-1.5,0c-0.9,0.4-1.8-0.6-3,0c-1.1,0.6-1,2.8-2.3,1.7
				c-0.8-0.7-2-0.6-2.7-0.5c3.4,4.8,2,7.8,2,7.8c-2.8,0.4-5.7,3.7-2.5,5.7c0.4,2,7.6,3,9.8-0.5C102.7,97.1,99.8,92.4,100.5,88.7z"/>
			<path class="st4" d="M91.6,98.4c-0.9,0.7-0.3,1.9,0.5,2.6c2.1,1.6,5.3,0.8,6.1-1.5c1.6-4.2,1.2-8.4-0.2-13.1
				c-0.6-0.1-1.2-0.4-1.9,0c-1.1,0.6-1,2.8-2.3,1.7c-0.8-0.7-2-0.6-2.7-0.5c3.4,4.8,2,7.8,2,7.8c-2.3,0.4-4.3,2.5-3.8,3.9
				C90.2,99.3,90.6,99.3,91.6,98.4z"/>
			<path class="st5" d="M92.4,97.6c-0.9,0.7-0.9,2,0,2.7c2.1,1.6,4.6,0.9,5.4-1.3c1.6-4.2,1.1-8-0.3-12.7c-0.6-0.1-0.6-0.2-1.3,0.1
				c-1.1,0.6-1,2.8-2.3,1.7c-0.8-0.7-2-0.6-2.7-0.5c3.4,4.8,2,7.8,2,7.8c-2.3,0.4-4.1,2-3.7,3.4C90.4,98.8,91.3,98.5,92.4,97.6z"/>
			<path class="st6" d="M95.2,103.1L95.2,103.1c-2,0-4.3-0.7-4.7-1.9c-1.4-1-1.5-2-1.4-2.8c0.3-1.5,2-2.9,3.9-3.2
				c0.2-0.5,0.9-3.3-2.1-7.5l-0.2-0.2l0.3-0.1c1.2-0.3,2.2-0.1,2.9,0.5c0.2,0.2,0.4,0.3,0.5,0.3c0.2,0,0.4-0.3,0.6-0.7
				c0.2-0.5,0.5-1,1-1.2c0.3-0.1,0.6-0.2,0.9-0.2c0.3,0,0.7,0.1,1,0.2c0.4,0.1,0.8,0.2,1.1,0c0.3-0.1,0.7-0.1,1,0
				c0.2,0,0.4,0.1,0.6,0l0.2,0l0,0.2c0.1,0.8,0,1.6-0.1,2.4c-0.3,1.5,0,3.1,0.3,4.9c0.5,2.4,1,5-0.4,7
				C99.3,102.9,96.4,103.1,95.2,103.1z M91.4,87.7c3.2,4.7,2,7.6,1.9,7.7l0,0.1l-0.1,0c-1.7,0.3-3.4,1.6-3.7,3
				c-0.2,0.9,0.2,1.8,1.3,2.4l0.1,0l0,0.1c0.2,0.9,2.1,1.7,4.3,1.7c2.3,0,4.3-0.8,5.1-2.2c1.2-2,0.8-4.4,0.3-6.8
				c-0.3-1.7-0.7-3.5-0.3-5c0.1-0.7,0.2-1.4,0.1-2.1c-0.2,0-0.3,0-0.5-0.1c-0.3-0.1-0.5-0.1-0.8,0c-0.4,0.2-0.9,0.1-1.4,0
				c-0.5-0.1-1.1-0.2-1.6,0c-0.4,0.2-0.6,0.7-0.8,1.1c-0.2,0.5-0.5,0.9-0.9,0.9c-0.2,0-0.5-0.1-0.8-0.4
				C93.2,87.7,92.4,87.6,91.4,87.7z"/>
		</g>
	</g>
	<g>
		<path class="st6" d="M90.6,101.4c-0.8-2.7,1.6-3.4,1.6-3.4c-0.1,0-1.9,0.9-1.2,3.2L90.6,101.4z"/>
	</g>
	<g>
		<path class="st7" d="M57.7,20c-9.9-6-19.3,1-20.9,7c-1.4,5.1-4.2,8.3-6.2,9c-2.1,0.7-6.6,0.4-6.9,3c-0.3,2.6,4.5,7.4,9.1,9.1
			c5.7,6.8,18,2.4,18,2.4l12-7.5C62.8,43.1,67.6,26,57.7,20z"/>
		<path class="st0" d="M57.7,20c-9.9-6-19.3,1-20.9,7c-1.4,5.1-4.2,8.3-6.2,9c-2.1,0.7-6.6,0.4-6.9,3c-0.3,2.6,4.5,7.4,9.1,9.1
			c5.7,6.8,18,2.4,18,2.4l9.7-5.8C60.4,44.8,67.6,26,57.7,20z"/>
		<path class="st1" d="M57.7,20c-9.9-6-19.3,1-20.9,7c-1.4,5.1-4.2,8.3-6.2,9c-2.1,0.7-6.6,0.4-6.9,3c-0.3,2.6,4.5,7.4,9.1,9.1
			c5.7,6.8,18,2.4,18,2.4l8.2-4.9C59,45.7,67.6,26,57.7,20z"/>
		<path class="st2" d="M42.4,52.2c-3.5,0-7.3-0.8-9.8-3.8c-4.7-1.8-9.5-6.7-9.2-9.3c0.2-2,2.7-2.4,4.9-2.8c0.8-0.1,1.5-0.2,2.1-0.4
			c2-0.7,4.8-3.9,6.1-8.9c1-3.5,4.3-6.9,8.2-8.5c3-1.2,7.6-1.9,13,1.3c9.9,6,5.3,23.2,5.2,23.4l-0.4-0.1c0-0.2,4.6-17.1-5.1-22.9
			c-5.2-3.2-9.7-2.5-12.6-1.3c-3.8,1.5-7.1,4.8-8,8.2c-1.5,5.3-4.3,8.5-6.4,9.1c-0.6,0.2-1.3,0.3-2.2,0.4c-2.1,0.3-4.4,0.7-4.6,2.4
			c-0.3,2.4,4.5,7.2,9,8.9l0,0l0,0c5.6,6.6,17.7,2.4,17.8,2.3C50.7,50.4,46.9,52.2,42.4,52.2z"/>
	</g>
	<g>
		<g>
			<path class="st3" d="M53.1,45.9c-1.4-3.7-8.9-2.3-11.4-4.1c-2.5-1.8-1.1-5.9-2.1-6.2c-1.1-0.3-1.8,0-1.6-4.4
				c0.1-3.5,2.8-8.9,3.9-10.9c-2.6,1.8-4.4,4.4-5.1,6.7c-1.4,5.1-4.2,8.3-6.2,9c-2.1,0.7-6.6,0.4-6.9,3c-0.3,2.6,4.5,7.4,9.1,9.1
				c5.7,6.8,18,2.5,18,2.5l2.6-1.6C53.5,48.1,53.6,47.1,53.1,45.9z"/>
			<path class="st4" d="M53.1,45.9c-1.4-3.7-8.9-2.3-11.4-4.1c-2.5-1.8-1.1-5.9-2.1-6.2c-1.1-0.3-1.8,0-1.6-4.4
				c0.1-3.5,2.8-8.9,3.9-10.9c-2.6,1.8-4.4,4.4-5.1,6.7c-1.4,5.1-4.2,8.3-6.2,9c-2.1,0.7-6.6,0.4-6.9,3c-0.3,2.6,7.2,8.3,12.7,9.4
				c4.3,4.8,14.4,2.2,14.4,2.2l2.6-1.6C53.5,48.1,53.6,47.1,53.1,45.9z"/>
			<path class="st5" d="M53.1,45.9c-1.4-3.7-8.9-2.3-11.4-4.1c-2.5-1.8-1.1-5.9-2.1-6.2c-1.1-0.3-1.8,0-1.6-4.4
				c0.1-3.5,2.8-8.9,3.9-10.9c-2.6,1.8-4.4,4.4-5.1,6.7c-1.4,5.1-4.2,8.3-6.2,9c-2.1,0.7-6.6,0.4-6.9,3c-0.3,2.6,9,8.3,14,9.3
				c4.3,4.8,13.1,2.3,13.1,2.3l2.6-1.6C53.5,48.1,53.6,47.1,53.1,45.9z"/>
			<path class="st6" d="M42.4,52.2c-3.5,0-7.3-0.8-9.8-3.8c-4.7-1.8-9.5-6.7-9.2-9.3c0.2-2,2.7-2.4,4.9-2.8c0.8-0.1,1.5-0.2,2.1-0.4
				c2-0.7,4.8-3.9,6.1-8.9c0.7-2.5,2.6-5,5.2-6.8l0.6-0.5L42,20.4c-1.1,2.1-3.7,7.4-3.9,10.9c-0.2,3.9,0.3,4,1.2,4.2
				c0.1,0,0.2,0,0.3,0.1c0.6,0.1,0.6,0.9,0.6,1.9c0.1,1.4,0.1,3.2,1.6,4.3c1,0.7,2.7,0.9,4.6,1.1c2.8,0.3,6,0.7,6.9,3
				c0.4,1,0.5,2,0.2,3.2l-0.4,0.2c0.2-1.1,0.2-2.3-0.1-3.2c-0.8-2.1-3.8-2.5-6.6-2.8c-1.9-0.2-3.7-0.5-4.7-1.2
				c-1.6-1.2-1.7-3.1-1.7-4.6c0-0.8-0.1-1.5-0.3-1.6c-0.1,0-0.2,0-0.2-0.1c-1.1-0.2-1.6-0.5-1.5-4.6c0.1-3.2,2.3-7.8,3.5-10.3
				c-2.2,1.7-3.8,3.9-4.4,6.1c-1.5,5.3-4.3,8.5-6.4,9.1c-0.6,0.2-1.3,0.3-2.2,0.4c-2.1,0.3-4.4,0.7-4.6,2.4c-0.3,2.4,4.5,7.2,9,8.9
				l0,0l0,0c5.6,6.6,17.7,2.4,17.8,2.3c0,0-1.9,1.1-4.6,1.5C45,52.1,43.7,52.2,42.4,52.2z"/>
		</g>
	</g>
	<g>
		<path class="st6" d="M35.9,48.8c-1.2,0-2.5-0.2-3.8-0.7l0.1-0.3c4.2,1.8,9-0.4,9-0.4C41.2,47.3,38.9,48.8,35.9,48.8z"/>
	</g>
	<g>
		<path class="st10" d="M25.3,42.7c0,0-4.1-2.5-3.3-6.1c0.8-3.7,5.2-1.9,6,0C28.8,38.5,27.3,43,25.3,42.7z"/>
		<path class="st11" d="M25,42.5c0,0-3.9-2.3-3.1-6c0.8-3.7,3.9-2,4.7-0.1C27.4,38.4,27.1,42.8,25,42.5z"/>
		<path class="st12" d="M25,42.5c0,0-3.9-2.3-3.1-6c0.8-3.7,3-1.7,3.8,0.2C26.5,38.7,27.1,42.8,25,42.5z"/>
		<path class="st13" d="M25.4,42.9c-0.1,0-0.1,0-0.2,0l-0.1,0c0,0-4.2-2.6-3.4-6.3c0.4-2,1.8-2.3,2.6-2.3c1.5,0,3.2,1.1,3.7,2.3
			c0.5,1.3,0.1,3.7-0.9,5.2C26.8,42.5,26.1,42.9,25.4,42.9z M25.3,42.5c0.7,0.1,1.3-0.5,1.7-1c0.9-1.4,1.3-3.6,0.8-4.8
			c-0.4-1.1-2-2-3.4-2c-0.8,0-1.9,0.3-2.3,2C21.4,39.9,24.9,42.3,25.3,42.5z"/>
	</g>
	<g>
		<path class="st7" d="M68.8,20.2c-6.3-4.2-10.9-3-15.7,0l2.2,1.6c0,0,4.5,4,3.9,10.4c-0.6,6.4,1.7,13.5,9.6,13
			C76.8,44.6,75.2,24.4,68.8,20.2z"/>
		<path class="st0" d="M66.9,20.9c-6-4.6-9-3.7-13.8-0.7l2.2,1.6c0,0,4.5,4,3.9,10.4c-0.6,6.4,1.3,12.1,9.2,11.2
			C74.4,42.7,72.7,25.3,66.9,20.9z"/>
		<path class="st1" d="M66.3,21.5c-4.7-4-8.4-4.3-13.2-1.2l2.2,1.6c0,0,4.5,4,3.9,10.4c-0.6,6.4,0.1,9.9,8,9
			C73.3,40.5,71.8,26,66.3,21.5z"/>
		<path class="st2" d="M68,45.4c-2.5,0-4.5-0.8-6.1-2.4c-2.3-2.3-3.3-6.3-2.9-10.8c0.6-6.2-3.6-10.5-3.6-10.5c0,0,4.6,4.2,3.9,10.6
			c-0.4,4.4,0.6,8.3,2.8,10.5c1.6,1.7,3.9,2.4,6.7,2.2c2.8-0.2,4.1-2.9,4.6-5.1c1.6-6.2-0.3-16.6-4.7-19.5c-6.3-4.1-10.7-3-15.5,0
			c0,0,2.5-1.9,3.8-2.4c3.5-1.3,7.2-1,11.9,2c4.6,3,6.5,13.7,4.9,20c-0.9,3.3-2.6,5.2-5,5.4C68.6,45.4,68.3,45.4,68,45.4z"/>
	</g>
	<g>
		<ellipse class="st5" cx="47.6" cy="34.1" rx="3.7" ry="4.9"/>
		<path class="st2" d="M47.6,39.2c-2.2,0-3.9-2.3-3.9-5.1c0-2.8,1.8-5.1,3.9-5.1c2.2,0,3.9,2.3,3.9,5.1
			C51.5,36.9,49.7,39.2,47.6,39.2z M47.6,29.5c-2,0-3.6,2.1-3.6,4.7c0,2.6,1.6,4.7,3.6,4.7c2,0,3.6-2.1,3.6-4.7
			C51.1,31.6,49.5,29.5,47.6,29.5z"/>
	</g>
	<g>
		<ellipse class="st14" cx="48.2" cy="34.6" rx="2.4" ry="3.2"/>
		<path class="st15" d="M49.9,32.3c-0.4-0.6-1.1-1-1.7-1c-1.3,0-2.4,1.4-2.4,3.2c0,0.7,0.2,1.4,0.5,1.9
			C48.1,35.7,49.5,34.4,49.9,32.3z"/>
		<path class="st16" d="M48.2,37.9c-1.4,0-2.6-1.5-2.6-3.4c0-1.8,1.2-3.4,2.6-3.4c1.4,0,2.6,1.5,2.6,3.4
			C50.8,36.4,49.6,37.9,48.2,37.9z M48.2,31.6c-1.2,0-2.2,1.3-2.2,3c0,1.6,1,3,2.2,3c1.2,0,2.2-1.3,2.2-3
			C50.4,32.9,49.4,31.6,48.2,31.6z"/>
	</g>
	<g>
		<ellipse cx="48.2" cy="34.6" rx="1.5" ry="1.9"/>
	</g>
	<g>
		<path d="M47.2,24.5c0,0,3.1-0.6,4.1,2.6C52.2,24.1,50.2,22.5,47.2,24.5z"/>
	</g>
	<g>
		<path class="st8" d="M95.1,73.5c1.4,1.8,2.6,2,2.6,3.7c0,0.4,0.1,0.8,0.2,1.3c1-2.8,2.6-6.8,3-10.4c-0.7,0.7-1.5,1.3-2.6,1.6
			C95,70.4,93.7,71.8,95.1,73.5z"/>
	</g>
	<circle class="st5" cx="47.7" cy="33.6" r="1.1"/>
	<circle class="st5" cx="46.8" cy="35.2" r="0.6"/>
</g>
</svg>
