<?xml version="1.0" encoding="utf-8"?>
<!-- Generator: Adobe Illustrator 21.0.2, SVG Export Plug-In . SVG Version: 6.00 Build 0)  -->
<svg version="1.1" id="Слой_1" xmlns="http://www.w3.org/2000/svg" xmlns:xlink="http://www.w3.org/1999/xlink" x="0px" y="0px"
	 viewBox="0 0 130 114" style="enable-background:new 0 0 130 114;" xml:space="preserve">
<style type="text/css">
	.st0{fill:#E8A163;}
	.st1{fill:#EEC17E;}
	.st2{fill:#B24340;}
	.st3{fill:#C55E55;}
	.st4{fill:#EBB26D;}
	.st5{fill:#F8E6C9;}
	.st6{fill:#E4CCA7;}
	.st7{fill:#5F433F;}
	.st8{fill:#FDFBE5;}
	.st9{opacity:0.5;}
	.st10{fill:#482E2C;}
	.st11{fill:#321E1D;}
	.st12{fill:#785450;}
</style>
<g>
	<path class="st0" d="M32.1,67.2c-2.1-1.3-7.8-8.4-4-13.9c0,0,4.2,6.2,8.5,7.1L32.1,67.2z"/>
	<path class="st1" d="M91.5,25.5c3.1-0.1,11.5-13.1,14-13.2c2.5-0.2-8.9-6-23.1,4.6L91.5,25.5z"/>
	<path class="st2" d="M91.2,24.9c2.5-0.1,9.3-12.5,11.3-12.6c2-0.1-7.2-2.9-18.7,5.6L91.2,24.9z"/>
	<path class="st3" d="M90.9,24.6c2.2-0.3,7.3-11.5,9-11.7c1.8-0.3-6.5-2-15.9,6.1L90.9,24.6z"/>
	<path class="st1" d="M54.8,25.6c-3.4-0.3-12.5-13.7-15.3-14s9.7-5.5,25.3,5.8L54.8,25.6z"/>
	<path class="st0" d="M42.9,68.9c-0.1,1-2.4,12.9-1.3,15.5c0,0,9.1,14.3,10,18.6l4.9-0.2l1.3-16.8L42.9,68.9z"/>
	<path class="st1" d="M30.5,103c-1.8-9.4-6.9-22.5-2.3-34.4C32.8,56.8,40.4,55.4,52,56.9c11.6,1.5,39.8-1.4,39.8-1.4
		s1.4,25.6,0.5,30.7S84.7,103,84.7,103h-4.6l-1.7-6c0,0-30.5,0.3-39.5-4.8L34.7,103H30.5z"/>
	<path class="st0" d="M52.9,94.2c0,0-3.5-4.5-4.3-8.7s1.8-12.2,1.8-12.2l7,21.4L52.9,94.2z"/>
	<path class="st0" d="M91.8,55.5c0,0-28.3,2.9-39.8,1.4c-3.7-0.5-7-0.7-9.9-0.3c2.8,5.8,13.6,31.7,11.7,33.6
		c-1.7,1.8-11.4,4.4-16.2-3.8c-1,5.3-4.1,14.9-5.5,16.6h2.5l5.7-8.8c9,5.2,37.8,3.1,37.8,3.1l1.9,5.7h4.6c0,0,6.8-11.6,7.6-16.7
		C93.2,81.1,91.8,55.5,91.8,55.5z"/>
	<path class="st1" d="M50.1,68.6c-0.1,1-2.6,12.8-1.4,15.5c0,0,9.7,14.5,10.6,18.9h5.2l1.4-16.7L50.1,68.6z"/>
	<path class="st0" d="M50.1,68.6c0,0.3-0.3,1.8-0.6,3.5c4.6,5.1,15,23.4,9.3,28.2c-0.1,0.1-0.3,0.1-0.4,0.1c0.5,1,0.8,1.9,1,2.6h5.2
		l1.4-16.7L50.1,68.6z"/>
	<path class="st2" d="M56.2,24C53.6,23.8,44.7,14,42.3,12.2c-1.7-1.3,11,0.1,20.1,5.6L56.2,24z"/>
	<path class="st3" d="M57.1,23.6c-2.2-0.2-9.8-8.6-11.9-10.2c-1.5-1.1,9.5,0.1,17.3,4.8L57.1,23.6z"/>
	<path class="st4" d="M74.7,94.8C63.5,89,42.7,64,41.1,48.3c0,0,13.2-28.4,20.4-30.9c7.2-2.4,23.5-2.2,26.7,0.8
		c3.1,3,14.3,25,15.2,30.1C96.4,70.9,90.3,84.2,74.7,94.8z"/>
	<path class="st1" d="M75.3,91.5C65,85.9,45.3,62.9,43.8,47.9c0,0,12.8-28.1,19.4-30.5c6.6-2.3,21.7-2.1,24.6,0.8
		c2.9,2.9,13.2,24,14.1,28.8C95.3,68.6,89.8,81.4,75.3,91.5z"/>
	<path class="st5" d="M82.2,39.5c-7.2,1-10.6-7.1-21.3-6.5C53.6,33.5,42.2,46,45.8,62.1C53,75.8,66.4,91,74.7,95.3
		c15.7-10.6,22-24.3,29-47c-0.9-6.3-5.7-11.4-6.9-11.7C94.2,36.1,89.4,38.6,82.2,39.5z"/>
	<path class="st6" d="M74.5,91.1C66.3,86.8,53,69.9,45.8,56.2c-0.2-1.1-0.4-2.1-0.5-3.2c-0.3,2.9-0.2,5.9,0.5,9.1
		C53,75.8,66.3,92.6,74.5,96.9C90.2,86.3,96.6,71,103.7,48.4c-0.2-1.1-0.5-2.2-0.8-3.3C96.1,66.1,89.5,80.9,74.5,91.1z"/>
	<path class="st7" d="M74.2,36.6c1.1-1.4,11.3-5.9,20.3,0.1c1.2,0.8-8.3,7-9.4,6.9C84,43.6,72.7,38.4,74.2,36.6z"/>
	<g>
		<path class="st7" d="M81.4,46.3c-4.9,0-10.1-8.5-18.2-2c-0.4,0.3-0.7,0.3-0.9,0.2c-0.6-0.2-0.9-1.2-1-2c-0.2-1.9,0.2-4.4,1.4-5.3
			c2.3-1.7,9.2,3.5,10.4,4.4c4.5,3.4,6.8,5.1,13.9,2.8c0.1,0,0.2,0,0.3,0c0.1,0.1,0.2,0.1,0.2,0.3l0,0.2c0.1,0.2,0,0.4-0.1,0.6
			c-0.1,0.2-0.3,0.3-0.5,0.3C85.7,46,83.1,46.3,81.4,46.3z"/>
	</g>
	<g>
		<path class="st6" d="M73.4,47.4l0-0.2c6.5,1,4.9,3.5,12.6,0.4l0.2,0.5C77.1,52.6,79.7,48.4,73.4,47.4z"/>
	</g>
	<path class="st7" d="M74.9,31.5c0.1-0.6-0.5-0.4-1.2-0.6c-0.7-0.1-1.3-0.5-1.5,0.1c-0.1,0.6,0.4,1.2,1.1,1.3
		C74.1,32.4,74.8,32,74.9,31.5z"/>
	<path class="st7" d="M91.1,31.1c-0.1-0.6-0.5-0.2-1.2-0.1c-0.7,0.1-1.3,0-1.2,0.6c0.1,0.6,0.8,0.9,1.4,0.8
		C90.8,32.3,91.2,31.7,91.1,31.1z"/>
	<path class="st8" d="M70.8,40.8c-1.8-1.3-6-4.2-7.6-3c-1,0.7-1.3,2.7-1.1,4.2c0.1,0.6,0.3,1.4,0.8,1.6c0.2,0.1,0.4,0.1,0.7-0.2
		c2.8-2.2,5.1-2.7,7.2-2V40.8z"/>
	<path class="st7" d="M62,43.1c-0.3-2.3,0-2.8,1-2.8c1,0,1.4-0.3,1-0.5c-0.4-0.2-1.3-1.6-0.7-2.3c0,0-1.1,0.2-1.4,1.6
		c-0.3,1.4-0.5,3.5-0.5,3.5L62,43.1z"/>
	<g class="st9">
		<path class="st5" d="M83.6,30.8c2.9-0.4,8.1-1.6,8.3-1.7l-0.3-1.9c-0.1,0-5.4,1.3-8.3,2L83.6,30.8z"/>
		<path class="st5" d="M80.7,28.9c-3-0.8-8.6-2.2-11.6-3.5L68.5,27c3,1.3,9.1,3.2,12.3,3.7L80.7,28.9z"/>
	</g>
	<path class="st1" d="M30.5,103h6.3c0,0-1.6-2.5-3.6-2.3C31.3,100.9,30.5,103,30.5,103z"/>
	<path class="st0" d="M52.5,103h6.3c0,0-0.3-2.3-2.3-2.1C54.6,101.1,52.5,103,52.5,103z"/>
	<path class="st1" d="M60.5,103h6.3c0,0-0.3-2.3-2.3-2.1C62.5,101.1,60.5,103,60.5,103z"/>
	<path class="st1" d="M59.6,103h3.7c0,0-0.2-2.3-1.3-2.1C60.9,101.1,59.6,103,59.6,103z"/>
	<path class="st0" d="M81.7,103H88c0,0-0.3-2.3-2.3-2.1C83.8,101.1,81.7,103,81.7,103z"/>
	<path class="st10" d="M83.8,38.3c-3.7,0-7.2-0.5-9.7-1.2c0.4,2,10,6.5,11,6.6c1.1,0.1,10.2-5.9,9.4-6.9
		C91.8,37.7,88,38.3,83.8,38.3z"/>
	<path class="st11" d="M83.4,42.4C81.8,42,76,38.9,78,38.7c2.8-0.2,5.1,0.7,6,1.6C84.9,41.1,85.1,42.8,83.4,42.4z"/>
	<path class="st11" d="M88.4,41.2c0.8-0.3,5.2-3.2,3.5-2.9c-2,0.3-3.3,1.1-3.8,1.7C87.7,40.5,87.6,41.5,88.4,41.2z"/>
	<path class="st12" d="M92.4,36.5c0-0.6-1.4-1.3-3.1-1.6c-1.7-0.3-2.6,0.1-2.6,0.7s0.6,1.7,2.8,1.8C91.3,37.3,92.4,37,92.4,36.5z"/>
	<ellipse class="st12" cx="85.2" cy="34.5" rx="1.6" ry="0.5"/>
	<path class="st0" d="M37.2,80.8c0,0-1.7,4.1,1.3,10.7l5.4,0.3C43.9,91.8,38.8,89.6,37.2,80.8z"/>
</g>
</svg>
