<?xml version="1.0" encoding="utf-8"?>
<!-- Generator: Adobe Illustrator 21.0.2, SVG Export Plug-In . SVG Version: 6.00 Build 0)  -->
<svg version="1.1" id="Слой_1" xmlns="http://www.w3.org/2000/svg" xmlns:xlink="http://www.w3.org/1999/xlink" x="0px" y="0px"
	 viewBox="0 0 130 114" style="enable-background:new 0 0 130 114;" xml:space="preserve">
<style type="text/css">
	.st0{fill:#859998;}
	.st1{fill:#90A4A4;}
	.st2{fill:#9EAFAE;}
	.st3{fill:#657777;}
	.st4{fill:#F78FA1;}
	.st5{fill:#F99BA7;}
	.st6{fill:#FCB1BE;}
	.st7{fill:#262626;}
	.st8{fill:#2D2D2D;}
	.st9{fill:#0C0C0C;}
	.st10{fill:#161616;}
	.st11{fill:#1E1E1E;}
	.st12{fill:#282828;}
	.st13{fill:#333333;}
	.st14{fill:#0F0F0F;}
	.st15{fill:#DCE0E0;}
	.st16{fill:#ECF3F3;}
	.st17{fill:#FFFFFF;}
	.st18{fill:#AFB1BA;}
	.st19{fill:#048892;}
	.st20{fill:#046A92;}
	.st21{fill:#045492;}
	.st22{fill:#DFE5E5;}
	.st23{fill:#600202;}
	.st24{fill:#6F0202;}
	.st25{fill:#890202;}
	.st26{fill:#5A6868;}
</style>
<g>
	<g>
		<path class="st0" d="M89.6,27.7c0,0-0.1-9.1,4.8-12.1c4.9-3,5.4-5.6,6.1-5.6c0.7,0,4,8.2,1.1,14.4c-2.8,6.2-7.3,6.3-7.3,6.3
			L89.6,27.7z"/>
		<path class="st1" d="M91.4,28.8c0,0-1.9-10.2,3-13.2c4.9-3,5.4-5.6,6.1-5.6c0.7,0,4,8.2,1.1,14.4c-2.8,6.2-7.3,6.3-7.3,6.3
			L91.4,28.8z"/>
		<path class="st2" d="M92.2,29c0,0-2-9.5,2.8-12.5c4.9-3,4.7-6.4,5.4-6.4c0.7,0,4,8.2,1.1,14.4c-2.8,6.2-7.3,6.3-7.3,6.3L92.2,29z"
			/>
		<path class="st3" d="M89.4,27.8L89.4,27.8c0-0.5,0-9.3,4.9-12.3c3.2-2,4.5-3.8,5.2-4.8c0.4-0.6,0.6-0.9,1-0.9
			c0.2,0,0.3,0.1,0.5,0.4c1.2,1.9,3.2,8.9,0.8,14.2c-2.8,6.2-7.4,6.4-7.5,6.4h-0.1L89.4,27.8z M99.8,10.9c-0.7,1-2.1,2.9-5.3,4.9
			c-4.4,2.8-4.7,10.9-4.7,11.8l4.5,2.8c0.5,0,4.5-0.5,7.1-6.2c2-4.4,0.8-10-0.2-12.6c-0.4-1.1-0.8-1.5-0.8-1.5
			C100.3,10.2,100.1,10.5,99.8,10.9z"/>
	</g>
	<g>
		<path class="st4" d="M98.9,15.5c0,0,3.4,7.3-4.5,13.2c-1.9-2.6-1.3-5.4,0.5-7.9C96.7,18.4,98.7,16.3,98.9,15.5z"/>
		<path class="st5" d="M98.1,16.7c0,0,4.1,6-3.8,12c-1.9-2.6-1.3-5.4,0.5-7.9C96.7,18.4,97.9,17.5,98.1,16.7z"/>
		<path class="st6" d="M97.6,17.5c0,0,4.6,5.3-3.2,11.2c-1.9-2.6-1.3-5.4,0.5-7.9C96.7,18.4,97.4,18.3,97.6,17.5z"/>
		<path class="st3" d="M94.2,28.8c-1.8-2.4-1.6-5.3,0.5-8.1c0.6-0.8,1.2-1.5,1.7-2.2c1.1-1.4,2.1-2.7,2.2-3.2l0.1-0.5l0.2,0.5
			c0,0.1,3.3,7.5-4.6,13.5L94.3,29L94.2,28.8z M96.7,18.8c-0.5,0.7-1.1,1.4-1.7,2.1c-1.2,1.5-2.8,4.5-0.6,7.5c6.4-5,5-10.9,4.5-12.5
			C98.5,16.6,97.7,17.6,96.7,18.8z"/>
	</g>
	<g>
		<path class="st3" d="M98.8,16c0.4-0.7,0.4-2.4,0.4-2.4c0,0-0.3,1.6-0.7,2.2L98.8,16z"/>
	</g>
	<g>
		<path class="st0" d="M39.6,63c0,0-2.9,2.8-7.6,3.4c-4.7,0.6-4.5-2.1-4.5-2.1l-0.7,0.4c0,0,0.5,4.9,11.4,2.8
			C41.4,65.6,39.6,63,39.6,63z"/>
		<path class="st1" d="M39.6,63c0,0-2.9,2.8-7.6,3.4c-4.7,0.6-4.5-2.1-4.5-2.1l-0.7,0.4c0,0,1.7,4.2,12.6,2.1
			C42.6,64.9,39.6,63,39.6,63z"/>
		<path class="st3" d="M26.6,64.8l0-0.1l1.1-0.6l0,0.3c0,0,0,0.6,0.5,1.1c0.7,0.7,2,1,3.9,0.8c4.6-0.6,7.5-3.3,7.5-3.3l0.1-0.1
			l0.1,0.2c0,0,0.7,1.1,0.5,2.4c-0.2,0.9-0.8,1.8-1.9,2.5l-0.1,0c-1.8,0.3-3.4,0.5-4.8,0.5C27,68.3,26.6,64.9,26.6,64.8z M39.9,65.2
			c0.2-0.9-0.1-1.6-0.3-1.9c-0.7,0.6-3.4,2.8-7.5,3.3c-2,0.2-3.4-0.1-4.2-0.9c-0.4-0.4-0.5-0.8-0.5-1.1l-0.4,0.2
			c0.1,0.6,1,3.1,6.4,3.1c1.4,0,3-0.2,4.7-0.5C39.1,66.8,39.7,66.1,39.9,65.2z"/>
	</g>
	<g>
		<g>
			<path class="st7" d="M85.1,97.3c0,0,2.9,2.9,2.7,4.2c-0.1,1.3-1.6,0.8-2.7,0.6C83.9,101.9,83.2,97.8,85.1,97.3z"/>
		</g>
		<g>
			<path class="st8" d="M85.1,97.3c0,0,2.9,2.9,2.7,4.2c-0.1,1.3-1.6,0.8-2.7,0.6C83.9,101.9,83.2,97.8,85.1,97.3z"/>
		</g>
		<g>
			<path class="st9" d="M85.5,102.4c-0.2,0-0.3-0.1-0.5-0.1c-0.7-0.1-1.2-1.5-1.3-2.7c0-1.3,0.4-2.2,1.3-2.4l0.1,0l0.1,0.1
				c0.1,0.1,2.9,3,2.8,4.3c-0.1,0.7-0.5,1-1.2,1l0,0C86.4,102.5,85.9,102.4,85.5,102.4z M84.1,99.6c0,1.2,0.5,2.3,1,2.4
				c0.1,0,0.3,0.1,0.5,0.1c0.4,0.1,0.8,0.2,1.2,0.2l0,0c0.6,0,0.9-0.2,0.9-0.7c0.1-1-1.8-3.2-2.6-4C84.1,97.8,84.1,99.2,84.1,99.6z"
				/>
		</g>
	</g>
	<g>
		<g>
			<path class="st10" d="M83.9,97.7c0,0,1.2,1.7,1.8,3.4c0.5,1.7-0.3,2.4-2.7,2.7c-2.3,0.3-4.1-0.7-4.6-1.8
				c-0.5-1.1,0.4-3.2,0.8-3.7C81.5,98.2,83.9,97.7,83.9,97.7z"/>
		</g>
		<g>
			<path class="st7" d="M83.9,97.7c0,0,1.2,1.7,1.8,3.4c0.5,1.7-1.2,2.1-2.4,2.1c-2.4-0.2-3.1-0.3-3.6-1.4c-0.5-1.1,0.1-3,0.6-3.5
				C82.4,98.2,83.9,97.7,83.9,97.7z"/>
		</g>
		<g>
			<path class="st8" d="M83.9,97.7c0,0,1.2,1.7,1.8,3.4c0.5,1.7-1.1,1.8-2.3,1.7c-2.4-0.2-2.6-0.5-3.1-1.6c-0.5-1.1,0.4-2.5,0.9-3
				C83.4,98.1,83.9,97.7,83.9,97.7z"/>
		</g>
		<g>
			<path class="st9" d="M78.3,102c-0.5-1.2,0.4-3.3,0.9-3.9l0,0h0.1c2.2,0,4.6-0.5,4.6-0.5l0.1,0l0.1,0.1c0.1,0.1,1.3,1.7,1.8,3.4
				c0.2,0.7,0.2,1.3-0.1,1.7c-0.4,0.6-1.2,0.9-2.7,1.2c-0.3,0-0.6,0.1-0.9,0.1l0,0C80.1,103.9,78.7,103,78.3,102z M79.4,98.3
				c-0.5,0.6-1.2,2.5-0.8,3.5c0.4,0.9,1.6,1.8,3.5,1.8c0.3,0,0.6,0,0.9-0.1c1.4-0.2,2.2-0.5,2.5-1c0.2-0.4,0.2-0.8,0-1.5
				c-0.5-1.5-1.4-2.9-1.7-3.3C83.4,97.9,81.3,98.3,79.4,98.3z"/>
		</g>
	</g>
	<g>
		<path class="st0" d="M85.5,74.6c0,0-2,5.5-1.3,7.3c0.7,1.8-0.2,4.4-0.8,5.8c-0.6,1.4,1.3,7.2,2.1,8.4c0.8,1.2-0.2,4.5-5.4,2.7
			C75,97,76.5,87.9,77.4,84.1C78.4,80.4,81.4,74.6,85.5,74.6z"/>
		<path class="st1" d="M85.5,74.6c0,0-2,5.5-1.3,7.3c0.7,1.8-0.2,4.4-0.8,5.8c-0.6,1.4,1.3,7.2,2.1,8.4c0.8,1.2-0.2,4.5-5.4,2.7
			C75,97,81.4,91.1,80.3,87C79.3,83.2,81.4,74.6,85.5,74.6z"/>
		<path class="st2" d="M85.5,74.6c0,0-2,5.5-1.3,7.3c0.7,1.8-0.2,4.4-0.8,5.8c-0.6,1.4,1.3,7.2,2.1,8.4c0.8,1.2-0.2,4.5-5.4,2.7
			c-5.1-1.8,2.1-6.9,1-11C80.2,84,81.4,74.6,85.5,74.6z"/>
		<path class="st3" d="M80.1,99c-5.7-2-3.4-12.7-2.8-14.9c0.9-3.7,4-9.7,8.2-9.7h0.3l-0.1,0.2c0,0.1-2,5.5-1.3,7.2
			c0.8,2-0.3,4.8-0.8,5.9c-0.6,1.3,1.3,7,2.1,8.2c0.4,0.5,0.4,1.4,0,2.1c-0.3,0.5-1,1.5-2.8,1.5l0,0C82,99.5,81.1,99.3,80.1,99z
			 M77.6,84.2c-0.5,2.1-2.8,12.5,2.6,14.4c1,0.3,1.9,0.5,2.6,0.5l0,0c1.6,0,2.3-0.8,2.5-1.3c0.3-0.6,0.3-1.3,0-1.7
			c-0.8-1.2-2.8-7.1-2.1-8.6c0.4-0.8,1.6-3.7,0.8-5.6c-0.6-1.6,0.8-6.1,1.2-7.2C81.3,75,78.5,80.6,77.6,84.2z"/>
	</g>
	<g>
		<g>
			<path class="st7" d="M57,93.4c0,0,3,3.1,2.9,4.5c-0.1,1.4-1.7,0.9-2.9,0.7C55.8,98.3,55,93.8,57,93.4z"/>
		</g>
		<g>
			<path class="st8" d="M57,93.4c0,0,3,3.1,2.9,4.5c-0.1,1.4-1.7,0.9-2.9,0.7C55.8,98.3,55,93.8,57,93.4z"/>
		</g>
		<g>
			<path class="st9" d="M57.5,98.7c-0.2,0-0.3-0.1-0.5-0.1c-0.8-0.1-1.3-1.6-1.3-2.9c-0.1-1.4,0.4-2.4,1.3-2.6l0.1,0l0.1,0.1
				c0.1,0.1,3.1,3.2,2.9,4.6c-0.1,0.7-0.5,1.1-1.3,1.1l0,0C58.4,98.9,57.9,98.8,57.5,98.7z M56,95.8c0,1.3,0.6,2.5,1.1,2.6
				c0.2,0,0.3,0.1,0.5,0.1c0.4,0.1,0.9,0.2,1.3,0.2l0,0c0.6,0,0.9-0.2,1-0.8c0.1-1-1.9-3.4-2.8-4.3C56,93.8,56,95.3,56,95.8z"/>
		</g>
	</g>
	<g>
		<g>
			<path class="st10" d="M55.8,93.7c0,0,1.3,1.8,1.9,3.6c0.6,1.8-0.4,2.5-2.8,2.9c-2.5,0.4-4.3-0.7-4.8-1.9
				c-0.5-1.2,0.4-3.4,0.9-3.9C53.3,94.3,55.8,93.7,55.8,93.7z"/>
		</g>
		<g>
			<path class="st7" d="M55.8,93.7c0,0,1.3,1.8,1.9,3.6c0.6,1.8-1.3,2.3-2.6,2.2c-2.5-0.2-3.3-0.3-3.9-1.5c-0.5-1.2,0.1-3.2,0.6-3.7
				C54.2,94.3,55.8,93.7,55.8,93.7z"/>
		</g>
		<g>
			<path class="st8" d="M55.8,93.7c0,0,1.3,1.8,1.9,3.6c0.6,1.8-1.1,1.9-2.4,1.8c-2.5-0.2-2.8-0.5-3.3-1.7c-0.5-1.2,0.4-2.7,0.9-3.2
				C55.2,94.2,55.8,93.7,55.8,93.7z"/>
		</g>
		<g>
			<path class="st9" d="M49.9,98.3c-0.6-1.3,0.4-3.5,0.9-4.1l0,0h0.1c2.3,0,4.9-0.6,4.9-0.6l0.1,0l0.1,0.1c0.1,0.1,1.3,1.8,1.9,3.6
				c0.2,0.8,0.2,1.4-0.1,1.8c-0.4,0.6-1.3,1-2.9,1.2c-0.3,0-0.7,0.1-1,0.1l0,0C51.7,100.4,50.3,99.4,49.9,98.3z M51,94.5
				c-0.5,0.6-1.3,2.7-0.8,3.7c0.4,0.9,1.7,1.9,3.7,1.9c0.3,0,0.6,0,0.9-0.1c1.5-0.2,2.4-0.6,2.7-1.1c0.2-0.4,0.2-0.9,0-1.6
				c-0.5-1.6-1.5-3.1-1.8-3.5C55.3,94,53,94.5,51,94.5z"/>
		</g>
	</g>
	<g>
		<path class="st0" d="M57.2,82.6c0,0-3.1,2.4-3.7,2.6c-0.6,0.3,3.3,6.8,4.1,7.6c0.8,0.8-5.5,4.1-7.5,2.3c-2-1.8,1-3-1-7.1
			c-2-4.1-2.3-4.4-1.5-5.2C48.4,82.1,53.8,79.5,57.2,82.6z"/>
		<path class="st1" d="M57.2,82.6c0,0-3.1,2.4-3.7,2.6c-0.6,0.3,3.3,6.8,4.1,7.6c0.8,0.8-3.2,3-5.2,1.2c-2-1.8,0.6-2.3-1.3-6.4
			c-2-4.1-2.2-5-1.3-5.8C50.5,81,53.8,79.5,57.2,82.6z"/>
		<path class="st2" d="M57.2,82.6c0,0-3.1,2.4-3.7,2.6c-0.6,0.3,3.3,6.8,4.1,7.6c0.8,0.8-2.1,2.7-4.1,0.9c-2-1.8,0.9-1.9-1.1-6
			c-2-4.1-3.5-5.1-2.7-5.9C50.5,81,53.8,79.5,57.2,82.6z"/>
		<path class="st3" d="M49.9,95.3c-1-0.9-0.8-1.7-0.6-2.7c0.3-1,0.6-2.3-0.4-4.4c-0.3-0.6-0.6-1.1-0.8-1.6c-1.3-2.6-1.5-3-0.7-3.8
			c0.5-0.5,3-1.8,5.7-1.8c1.7,0,3.1,0.5,4.2,1.5l0.2,0.1l-0.2,0.1c-0.1,0.1-3,2.3-3.7,2.6c-0.1,0.7,3.2,6.5,4.1,7.4
			c0.1,0.1,0.2,0.2,0.1,0.5c-0.4,0.9-3.6,2.6-6,2.6l0,0C50.9,95.9,50.3,95.7,49.9,95.3z M53.1,81.3c-2.6,0-4.9,1.2-5.4,1.7
			c-0.6,0.6-0.6,0.7,0.7,3.4c0.2,0.5,0.5,1,0.8,1.6c1.1,2.2,0.7,3.6,0.4,4.7c-0.2,0.9-0.4,1.6,0.5,2.3c0.4,0.3,0.9,0.5,1.6,0.5l0,0
			c2.3,0,5.4-1.7,5.7-2.4c0-0.1,0-0.1,0-0.1c-0.8-0.8-4.3-6.8-4.2-7.7c0-0.1,0.1-0.2,0.2-0.2c0.5-0.2,2.5-1.7,3.5-2.5
			C55.9,81.7,54.6,81.3,53.1,81.3z"/>
	</g>
	<g>
		<path class="st11" d="M79.2,33.5c0,0-6.9,0.2-9.6,6.2c1.3-0.3,2-0.4,2-0.4c-3.2,3-3,5.1-3,5.1c1.5-1,2.7-1.1,2.7-1.1
			c-2.1,2-2.7,5.6-2.7,5.6c0.9-0.5,2-0.8,2-0.8c-1,2.2-1.2,6.1-2.8,9c-1.5,3,5.9-1.9,7.9-11.8C77.8,35.4,79.2,33.5,79.2,33.5z"/>
		<path class="st12" d="M79.2,33.5c0,0-6.9,0.2-9.6,6.2c1.3-0.3,4-1.7,4-1.7c-3.2,3-4.1,5-4.1,5c1.5-1,3.8-0.4,3.8-0.4
			c-2.1,2-3.7,4.9-3.7,4.9c0.9-0.5,3.8-0.5,3.8-0.5c-1,2.3-4,7.3-5.6,10.2c-1.5,3,5.9-1.9,7.9-11.8C77.8,35.4,79.2,33.5,79.2,33.5z"
			/>
		<path class="st13" d="M79.2,33.5c0,0-6.9,0.2-9.6,6.2c1.3-0.3,4-1.7,4-1.7c-3.2,3-4.1,5-4.1,5c1.5-1,3.8-0.4,3.8-0.4
			c-2.1,2-3.7,4.9-3.7,4.9c0.9-0.5,3.8-0.5,3.8-0.5c-1,2.3-4,7.3-5.6,10.2c-1.5,3,5.9-1.9,7.9-11.8C77.8,35.4,79.2,33.5,79.2,33.5z"
			/>
		<path class="st14" d="M67.5,58.1c-0.1-0.2-0.1-0.5,0.2-0.9c0.9-1.7,1.4-3.7,1.8-5.5c0.3-1.2,0.5-2.3,0.9-3.2
			c-0.4,0.1-1,0.3-1.6,0.7l-0.3,0.2l0.1-0.4c0-0.1,0.5-3.3,2.4-5.3c-0.5,0.1-1.2,0.4-2.1,1l-0.2,0.2l0-0.3c0-0.1-0.1-2,2.6-4.9
			c-0.3,0.1-0.8,0.2-1.4,0.3L69.3,40l0.1-0.3c2.7-6,9.7-6.3,9.7-6.3l0.4,0l-0.2,0.3c0,0-1.4,2-3.4,11.8c-1.7,8.2-6.9,12.8-8.1,12.8
			C67.6,58.2,67.5,58.1,67.5,58.1z M69.9,39.5c1.1-0.2,1.6-0.3,1.7-0.3l0.6-0.1l-0.4,0.4c-2.4,2.2-2.8,4-2.9,4.7
			c1.4-0.8,2.4-0.9,2.5-0.9l0.5,0l-0.4,0.3c-1.7,1.6-2.4,4.2-2.6,5.2c0.8-0.4,1.6-0.6,1.7-0.6l0.3-0.1l-0.1,0.3
			c-0.4,0.9-0.7,2.2-1,3.5c-0.4,1.8-0.9,3.8-1.8,5.6c-0.2,0.5-0.2,0.6-0.2,0.6s0,0,0,0c1.1,0,6.1-4.7,7.7-12.6
			c1.6-7.9,2.9-10.8,3.3-11.6C77.5,33.9,72.3,34.7,69.9,39.5z"/>
	</g>
	<g>
		<path class="st0" d="M87.6,49.5c0,0-2.8,2.8-1.8,9.5c1,6.7,5.5,14.6-2.1,20c-7.5,5.4-26.1,7.5-35.4,2c-9.3-5.5-13.4-14.6-7.6-19.8
			c5.8-5.2,12.4-3.2,16.6-2.3c4.2,0.9,8.2-0.3,8.2-0.3c1.6-2.6,3.8-3.6,5.7-5.1c1.9-1.5-0.9-13,5.3-18.8
			C83.7,33,87.6,49.5,87.6,49.5z"/>
		<path class="st1" d="M87.6,49.5c0,0-2.8,2.8-1.8,9.5c1,6.7,5.5,14.6-2.1,20c-7.5,5.4-26.1,7.5-35.4,2c-9.3-5.5-13.4-14.6-7.6-19.8
			c5.8-5.2,12.4-3.2,16.6-2.3c4.2,0.9,8.2-0.3,8.2-0.3c1.6-2.6,6-2.9,8-4.4c1.9-1.5-3.2-13.7,3-19.6C83.7,33,87.6,49.5,87.6,49.5z"
			/>
		<path class="st2" d="M87.6,49.5c0,0-2.8,2.8-1.8,9.5c1,6.7,5.5,14.6-2.1,20c-7.5,5.4-26.1,7.5-35.4,2c-9.3-5.5-13.4-14.6-7.6-19.8
			c5.8-5.2,12.4-3.2,16.6-2.3c4.2,0.9,8.2-0.3,8.2-0.3c1.6-2.6,7.1-2.3,9-3.8c1.9-1.5-4.2-14.3,2-20.1C83.7,33,87.6,49.5,87.6,49.5z
			"/>
		<path class="st3" d="M48.2,81.3c-5.9-3.5-9.9-8.5-10.3-13.2c-0.3-2.7,0.7-5.1,2.7-6.9c2.6-2.3,5.6-3.5,9.2-3.5
			c2.4,0,4.7,0.5,6.5,0.9c0.3,0.1,0.7,0.1,1,0.2c1,0.2,2.2,0.3,3.3,0.3c2.4,0,4.4-0.5,4.7-0.6c1.2-2,2.7-3,4.2-4
			c0.5-0.3,1-0.7,1.5-1.1c0.6-0.5,0.7-2.3,0.8-4.6c0.2-4.4,0.4-10.4,4.4-14.2l0,0l0,0c0.4-0.1,0.8-0.2,1.2-0.2
			c6.6,0,10.1,14.3,10.2,14.9l0,0.1l-0.1,0.1c0,0-2.7,2.9-1.8,9.4c0.2,1.5,0.6,2.9,1,4.5c1.4,5.6,2.9,11.4-3.1,15.7
			c-4.4,3.2-12.8,5.3-20.9,5.3C56.9,84.5,51.7,83.4,48.2,81.3z M77.5,34.9c-0.3,0-0.7,0-1.1,0.1c-3.9,3.7-4.1,9.6-4.3,13.9
			c-0.1,2.5-0.2,4.3-0.9,4.9c-0.5,0.4-1,0.7-1.5,1.1c-1.5,1-3,2-4.2,4l0,0.1l-0.1,0c0,0-2.2,0.6-4.9,0.6c-1.2,0-2.3-0.1-3.4-0.3
			c-0.3-0.1-0.6-0.1-1-0.2c-1.8-0.4-4.1-0.9-6.5-0.9c-3.5,0-6.5,1.1-9,3.4c-1.9,1.7-2.8,4-2.5,6.6c0.5,4.5,4.4,9.5,10.2,12.9
			c3.5,2,8.6,3.2,14.5,3.2c8,0,16.3-2.1,20.7-5.2c5.8-4.2,4.4-9.8,3-15.3c-0.4-1.5-0.8-3.1-1-4.6c-0.9-6.2,1.3-9.1,1.8-9.6
			C87.1,48.2,83.6,34.9,77.5,34.9z"/>
	</g>
	<g>
		<path class="st11" d="M27.8,66c0,0,0.7-1.6,2-3c2.6-2.6,4.3-6.3,1.9-10.6c-2.4-4.4-6.2-8.3-2.5-12.4c-2.5,0.8-3.9,3.3-3.9,3.3
			c-1.1-2.6-0.4-6.6-0.4-6.6c-2.7,2.6-3.8,3.8-2.6,8.9c1.2,5,1.8,6-0.2,9.7C20.1,58.9,20.3,65.4,27.8,66z"/>
		<path class="st12" d="M29.7,59.1c-2.5,0.3-2.8,2.8-3.2,4.9c-1.8-2.1-3.2-4.9-1.1-7.4c-1.1,0.5-1.9,1.1-2.4,2
			c0.4-1.3,1-2.6,1.5-3.6c2-3.7,0.4-3.8-0.8-8.8c-1.2-5-1.5-6.9,1.3-9.5c0,0-1.1,5.1,1,9.7c0,0,0.8-5.5,3.3-6.3
			c-3.8,4.1,0,8,2.5,12.4c2.4,4.4,0.7,8.1-1.9,10.6c-0.3,0.3-0.6,0.7-0.9,1C28.2,62.5,28.4,60.5,29.7,59.1z"/>
		<path class="st13" d="M31.3,58.2c-2.5,0.4-4.4,3.7-4.8,5.8c-1.8-2.1-1.9-5.9,0.3-8.4c-1.1,0.5-2.5,0.8-3,1.7
			c0.4-1.3,1.4-1.3,1.9-2.3c2-3.7,0.8-2.7-0.4-7.7c-1.2-5-3-8.1-0.2-10.7c0,0-1.1,5.1,1,9.7c0,0,0.8-5.5,3.3-6.3
			c-3.8,4.1,0,8,2.5,12.4c2.4,4.4,0.7,8.1-1.9,10.6c-0.3,0.3-0.6,0.7-0.9,1C28.2,62.5,30,59.7,31.3,58.2z"/>
		<path class="st14" d="M27.8,66.2c-3.7-0.3-5.4-2-6.2-3.4c-1.3-2.4-0.8-5.6,0.4-7.6c1.8-3.2,1.5-4.3,0.6-8c-0.1-0.5-0.2-1-0.4-1.6
			c-1.2-5.1-0.1-6.4,2.7-9l0.4-0.4l-0.1,0.5c0,0-0.6,3.7,0.3,6.2c0.5-0.7,1.8-2.4,3.8-3l0.6-0.2l-0.5,0.5c-3,3.2-1,6.5,1.1,9.9
			c0.5,0.7,0.9,1.5,1.4,2.3c2.6,4.7,0.4,8.5-1.9,10.8c-1.3,1.3-2,2.9-2,2.9l0,0.1L27.8,66.2z M25.5,43.4l-0.2,0.3l-0.1-0.3
			c-0.9-2.1-0.6-5-0.5-6.2c-2.5,2.4-3.3,3.7-2.2,8.4c0.1,0.6,0.3,1.1,0.4,1.6c0.9,3.8,1.2,4.9-0.6,8.2c-1.1,2-1.6,5-0.4,7.3
			c1,1.9,3,3,5.7,3.2c0.2-0.4,0.9-1.7,2-2.9c2.2-2.2,4.4-5.9,1.9-10.4c-0.4-0.8-0.9-1.5-1.4-2.3c-2.1-3.3-4-6.5-1.5-9.7
			C26.7,41.4,25.6,43.4,25.5,43.4z"/>
	</g>
	<g>
		<path class="st14" d="M27.4,66.1l0.1-0.3c-1.7-0.8-2.8-1.9-3.2-3.3c-0.8-2.3,0.1-4.8,0.1-4.8c-0.1,0.1-1.3,2.5-0.5,4.9
			C24.5,64.1,25.6,65.3,27.4,66.1z"/>
	</g>
	<g>
		<path class="st14" d="M27.7,65.9l0.3-0.1c-1.2-2.9,0.6-4.9,0.7-5C28.7,60.8,26.5,62.8,27.7,65.9z"/>
	</g>
	<g>
		<path class="st14" d="M25.6,43.3l-0.3,0.1c1.3,3.8,1,7,1,7C26.2,50.4,26.9,47.2,25.6,43.3z"/>
	</g>
	<g>
		<path class="st3" d="M65,61.7c0,0-0.1-2.1,1.1-3.6l-0.3-0.2C64.5,59.6,65,61.7,65,61.7z"/>
	</g>
	<g>
		<g>
			<path class="st15" d="M75.6,75.4c8.9-2.6,3.8-7.9,3.5-18.2c-0.2-6.8,3.5-12,6.1-14.8c1.6,3.6,2.4,7.1,2.4,7.1s-2.8,2.8-1.8,9.5
				c1,6.7,5.5,14.6-2.1,20c-7.5,5.4-26.1,7.5-35.4,2c-5.7-3.3-9.4-8-10.1-12.3C49.2,78,66.8,78,75.6,75.4z"/>
			<path class="st16" d="M54,80.3c-5.4-1.4-11.9-4-15-8.6c-0.4-1-0.8-1.9-0.9-2.9C49.2,78,66.8,78,75.6,75.4
				c8.9-2.6,3.8-7.9,3.5-18.2c-0.2-6.8,3.5-12,6.1-14.8c1.6,3.6,2.4,7.1,2.4,7.1s-2.8,2.8-1.8,9.5c0.9,6.3,4.9,13.6-0.7,18.9
				C75.3,82.5,64.6,83.2,54,80.3z"/>
			<path class="st17" d="M55.7,79c-5.4-1.4-13.5-2.7-16.6-7.3c-0.4-1-0.8-1.9-0.9-2.9C49.2,78,66.8,78,75.6,75.4
				c8.9-2.6,3.8-7.9,3.5-18.2c-0.2-6.8,3.5-12,6.1-14.8c1.6,3.6,2.4,7.1,2.4,7.1s-2.8,2.8-1.8,9.5c0.9,6.3,4.9,13.6-0.7,18.9
				C75.3,82.5,66.3,82,55.7,79z"/>
			<path class="st18" d="M48.2,81.3c-5.6-3.3-9.4-7.9-10.2-12.4l-0.1-0.5l0.4,0.3c8.4,7,19.7,8,25.7,8c4.3,0,8.4-0.5,11.6-1.5
				c6.1-1.8,5.5-4.7,4.5-9.9c-0.5-2.3-1-5-1.1-8.1c-0.2-7,3.8-12.3,6.1-14.9l0.2-0.2l0.1,0.2c1.6,3.6,2.4,7.1,2.4,7.1l0,0.1
				l-0.1,0.1c0,0-2.7,2.9-1.8,9.4c0.2,1.5,0.6,2.9,1,4.5c1.4,5.6,2.9,11.4-3.1,15.7c-4.4,3.2-12.8,5.3-20.9,5.3
				C56.9,84.5,51.7,83.4,48.2,81.3z M85.1,42.7c-2.3,2.6-6,7.7-5.8,14.4c0.1,3.1,0.6,5.8,1,8.1c1,5.3,1.7,8.5-4.7,10.3
				c-3.3,0.9-7.4,1.5-11.7,1.5c-5.9,0-17-1-25.5-7.8c1,4.2,4.6,8.6,10,11.7c3.5,2,8.6,3.2,14.5,3.2c8,0,16.3-2.1,20.7-5.2
				c5.8-4.2,4.4-9.8,3-15.3c-0.4-1.5-0.8-3.1-1-4.6c-0.9-6.2,1.3-9.1,1.8-9.6C87.2,48.9,86.5,45.9,85.1,42.7z"/>
		</g>
	</g>
	<g>
		<g>
			<path class="st7" d="M79.6,98.9c0,0,3,3.1,2.9,4.5c-0.1,1.4-1.7,0.9-2.9,0.7C78.4,103.9,77.6,99.4,79.6,98.9z"/>
		</g>
		<g>
			<path class="st8" d="M79.6,98.9c0,0,3,3.1,2.9,4.5c-0.1,1.4-1.7,0.9-2.9,0.7C78.4,103.9,77.6,99.4,79.6,98.9z"/>
		</g>
		<g>
			<path class="st9" d="M80,104.3c-0.2,0-0.3-0.1-0.5-0.1c-0.8-0.1-1.3-1.6-1.3-2.8c-0.1-1.4,0.4-2.4,1.3-2.6l0.1,0l0.1,0.1
				c0.1,0.1,3.1,3.2,3,4.6c-0.1,0.7-0.5,1.1-1.3,1.1l0,0C80.9,104.5,80.5,104.4,80,104.3z M78.5,101.3c0,1.3,0.6,2.5,1.1,2.6
				c0.2,0,0.3,0.1,0.5,0.1c0.4,0.1,0.9,0.2,1.3,0.2l0,0c0.6,0,0.9-0.2,1-0.8c0.1-1-1.9-3.4-2.8-4.3C78.5,99.4,78.5,100.9,78.5,101.3
				z"/>
		</g>
	</g>
	<g>
		<g>
			<path class="st10" d="M78.4,99.3c0,0,1.3,1.8,1.9,3.6c0.6,1.8-0.4,2.5-2.8,2.9c-2.5,0.4-4.3-0.7-4.8-1.9
				c-0.5-1.2,0.4-3.4,0.9-3.9C75.8,99.9,78.4,99.3,78.4,99.3z"/>
		</g>
		<g>
			<path class="st7" d="M78.4,99.3c0,0,1.3,1.8,1.9,3.6c0.6,1.8-1.3,2.3-2.6,2.2c-2.5-0.2-3.3-0.3-3.9-1.5c-0.5-1.2,0.1-3.2,0.6-3.7
				C76.8,99.9,78.4,99.3,78.4,99.3z"/>
		</g>
		<g>
			<path class="st8" d="M78.4,99.3c0,0,1.3,1.8,1.9,3.6c0.6,1.8-1.1,1.9-2.4,1.8c-2.5-0.2-2.8-0.5-3.3-1.7c-0.5-1.2,0.4-2.7,0.9-3.2
				C77.8,99.8,78.4,99.3,78.4,99.3z"/>
		</g>
		<g>
			<path class="st9" d="M72.4,103.9c-0.6-1.3,0.4-3.5,0.9-4.1l0,0h0.1c2.3,0,4.9-0.6,4.9-0.6l0.1,0l0.1,0.1c0.1,0.1,1.3,1.8,1.9,3.6
				c0.2,0.8,0.2,1.4-0.1,1.8c-0.4,0.6-1.3,1-2.9,1.2c-0.3,0-0.7,0.1-1,0.1l0,0C74.3,106,72.9,104.9,72.4,103.9z M73.5,100
				c-0.5,0.6-1.3,2.7-0.8,3.7c0.4,0.9,1.7,1.9,3.7,1.9c0.3,0,0.6,0,0.9-0.1c1.5-0.2,2.4-0.5,2.7-1.1c0.2-0.4,0.3-0.9,0-1.6
				c-0.5-1.6-1.5-3.1-1.8-3.5C77.8,99.6,75.6,100,73.5,100z"/>
		</g>
	</g>
	<g>
		<g>
			<path class="st7" d="M46.6,96.8c0,0,3,3.1,2.9,4.5c-0.1,1.4-1.7,0.9-2.9,0.7C45.4,101.7,44.6,97.3,46.6,96.8z"/>
		</g>
		<g>
			<path class="st8" d="M46.6,96.8c0,0,3,3.1,2.9,4.5c-0.1,1.4-1.7,0.9-2.9,0.7C45.4,101.7,44.6,97.3,46.6,96.8z"/>
		</g>
		<g>
			<path class="st9" d="M47.1,102.2c-0.2,0-0.3-0.1-0.5-0.1c-0.8-0.1-1.3-1.6-1.3-2.8c-0.1-1.4,0.4-2.4,1.3-2.6l0.1,0l0.1,0.1
				c0.1,0.1,3.1,3.2,3,4.6c-0.1,0.7-0.5,1.1-1.3,1.1l0,0C48,102.3,47.5,102.2,47.1,102.2z M45.6,99.2c0,1.3,0.6,2.5,1.1,2.6
				c0.2,0,0.3,0.1,0.5,0.1c0.4,0.1,0.9,0.2,1.3,0.2l0,0c0.6,0,0.9-0.2,1-0.8c0.1-1-1.9-3.4-2.8-4.3C45.6,97.3,45.5,98.8,45.6,99.2z"
				/>
		</g>
	</g>
	<g>
		<g>
			<path class="st10" d="M45.4,97.2c0,0,1.3,1.8,1.9,3.6c0.6,1.8-0.4,2.5-2.8,2.9c-2.5,0.4-4.3-0.7-4.8-1.9
				c-0.5-1.2,0.4-3.4,0.9-3.9C42.9,97.8,45.4,97.2,45.4,97.2z"/>
		</g>
		<g>
			<path class="st7" d="M45.4,97.2c0,0,1.3,1.8,1.9,3.6c0.6,1.8-1.3,2.3-2.6,2.2c-2.5-0.2-3.3-0.3-3.9-1.5c-0.5-1.2,0.1-3.2,0.6-3.7
				C43.8,97.7,45.4,97.2,45.4,97.2z"/>
		</g>
		<g>
			<path class="st8" d="M45.4,97.2c0,0,1.3,1.8,1.9,3.6c0.6,1.8-1.1,1.9-2.4,1.8c-2.5-0.2-2.8-0.5-3.3-1.7c-0.5-1.2,0.4-2.7,0.9-3.2
				C44.8,97.7,45.4,97.2,45.4,97.2z"/>
		</g>
		<g>
			<path class="st9" d="M39.5,101.8c-0.6-1.3,0.4-3.5,0.9-4.1l0,0h0.1c2.3,0,4.9-0.6,4.9-0.6l0.1,0l0.1,0.1c0.1,0.1,1.3,1.8,1.9,3.6
				c0.2,0.8,0.2,1.4-0.1,1.8c-0.4,0.6-1.3,1-2.9,1.2c-0.3,0-0.7,0.1-1,0.1l0,0C41.3,103.8,39.9,102.8,39.5,101.8z M40.6,97.9
				c-0.5,0.6-1.3,2.7-0.8,3.7c0.4,0.9,1.7,1.9,3.7,1.9c0.3,0,0.6,0,0.9-0.1c1.5-0.2,2.4-0.6,2.7-1.1c0.2-0.4,0.2-0.9,0-1.6
				c-0.5-1.6-1.5-3.1-1.8-3.5C44.9,97.4,42.6,97.9,40.6,97.9z"/>
		</g>
	</g>
	<g>
		<path class="st0" d="M72.8,86.4c-1.5-2.8-5.3-10.5-2.1-12.8l9.7-5.8c0,0,1.3,4.8,0.4,10.5c-0.9,5.7-1.9,6.4-1.8,8
			c0.4,0.6,0.9,2.1-0.3,4.4c-0.1,2.5-0.3,4.9,0.9,6.6c1.2,1.8,1.8,2.5,0.2,3.4c-1.6,0.9-7.4,0.7-7.1-1.4c0.3-2.1,1.6-3.6,0.5-7.1
			C72.3,88.7,71.7,87.9,72.8,86.4z"/>
		<path class="st1" d="M75.3,86.2c-1.5-2.8-7.8-10.3-4.6-12.6l9.7-5.8c0,0,1.3,4.8,0.4,10.5c-0.9,5.7-1.9,6.4-1.8,8
			c0.4,0.6,0.9,2.1-0.3,4.4c-0.1,2.5-0.3,4.9,0.9,6.6c1.2,1.8,1.8,2.5,0.2,3.4c-1.6,0.9-5.2,0.7-4.9-1.4c0.3-2.1,1.5-3,0.4-6.5
			C74.4,89.3,74.1,87.7,75.3,86.2z"/>
		<path class="st2" d="M76.5,86.2C75,83.4,66.6,75.4,69.9,73l10.5-5.3c0,0,1.3,4.8,0.4,10.5c-0.9,5.7-1.9,6.4-1.8,8
			c0.4,0.6,0.9,2.1-0.3,4.4c-0.1,2.5-0.3,4.9,0.9,6.6c1.2,1.8,1.8,2.5,0.2,3.4c-1.6,0.9-4.2,0.5-3.9-1.5c0.3-2.1,1.7-2.4,0.6-5.9
			C75.6,89.7,75.4,87.7,76.5,86.2z"/>
		<path class="st3" d="M77,101.4c1.2,0,2.4-0.2,3-0.5c0.6-0.3,0.9-0.7,1-1.1c0.1-0.7-0.4-1.4-1.1-2.5l-0.1-0.1
			c-1.2-1.6-1-3.8-0.9-6.2l0-0.3c1.2-2.3,0.7-3.8,0.3-4.5c0-0.6,0.1-1.2,0.4-2c0.4-1.1,0.9-2.7,1.4-5.9c0.9-5.7-0.6-10.5-0.6-10.5
			c0,0,1.1,4.8,0.3,10.4c-0.5,3.2-1,4.8-1.4,5.9c-0.3,0.9-0.5,1.4-0.4,2.2l0,0l0,0c0.5,0.8,0.8,2.2-0.3,4.2l0,0.1l0,0.4
			c-0.1,2.4-0.2,4.6,1,6.4l0.1,0.1c0.7,1,1.2,1.7,1.1,2.2c-0.1,0.3-0.3,0.6-0.9,0.8c-1.2,0.6-4.9,0.7-6.4-0.3
			c-0.4-0.3-0.5-0.6-0.5-0.9c0.1-0.6,0.2-1.1,0.4-1.6c0.4-1.4,0.9-3,0.1-5.5c-0.2-0.6-0.4-1.2-0.5-1.7c-0.7-2.2-0.9-2.8,0-4l0.1-0.1
			l-0.1-0.1c-1.3-2.4-5.4-10.3-2.2-12.6c0,0-0.9,0.3-1.1,0.7c-1.6,3.2,1.6,9.7,2.9,11.9c-0.9,1.3-0.6,2.1,0.1,4.2
			c0.2,0.5,0.3,1,0.5,1.7c0.7,2.5,0.3,3.9-0.1,5.3c-0.2,0.6-0.3,1.1-0.4,1.7c-0.1,0.5,0.2,0.9,0.6,1.2
			C74.1,101.1,75.6,101.4,77,101.4z"/>
	</g>
	<g>
		<path class="st3" d="M79,86.4l0.3-0.2c-0.5-0.6-1.3-0.2-1.3-0.2C77.9,86,78.6,86,79,86.4z"/>
	</g>
	<g>
		<path class="st3" d="M77.5,91.7c0,0,0.9-0.3,1.5-1.1l-0.3-0.2C78.2,91.1,77.5,91.7,77.5,91.7z"/>
	</g>
	<g>
		<path class="st0" d="M38.6,76.9c-0.6-2.6-3.4-9.9,0.8-14.2l13.8,6.7c0,0,3,7-0.9,12.4c-3.8,5.3-8.4,3.4-9.1,4.9
			c-0.7,1.5,2.7,6.4,3.4,7.6c0.7,1.2,0.7,2.4-0.1,3c-0.8,0.6-5.7,2.2-6.5,0c-0.8-2.2-0.6-6.8-1.8-9.7C37,84.6,36.8,83,38,81.8
			C39.1,80.5,39.3,79.5,38.6,76.9z"/>
		<path class="st1" d="M40.3,76.6c-0.6-2.6-5.1-9.6-0.9-13.9l13.8,6.7c0,0,3,7-0.9,12.4c-3.8,5.3-8.4,3.4-9.1,4.9
			c-0.7,1.5,2.7,6.4,3.4,7.6c0.7,1.2,0.7,2.4-0.1,3c-0.8,0.6-3.7,1.7-4.5-0.6c-0.8-2.2-0.9-6.3-2.1-9.2c-1.2-2.9-1.8-4.5-0.7-5.7
			C40.4,80.5,40.9,79.2,40.3,76.6z"/>
		<path class="st2" d="M41.8,77c-0.6-2.6-6.7-10.1-2.5-14.3l14.1,5.6c0,0,2.7,8.1-1.1,13.4c-3.8,5.3-8.4,3.4-9.1,4.9
			c-0.7,1.5,2.7,6.4,3.4,7.6c0.7,1.2,0.7,2.4-0.1,3c-0.8,0.6-2.3,1.8-3.1-0.4c-0.8-2.2-0.9-6.1-2.1-9c-1.2-2.9-1.9-4-0.7-5.3
			C41.8,81.3,42.5,79.7,41.8,77z"/>
		<path class="st3" d="M42.3,98.5c1.8,0,3.9-0.8,4.4-1.2c0.9-0.6,0.9-1.9,0.2-3.2c-0.1-0.2-0.3-0.5-0.6-0.9
			c-1.1-1.7-3.4-5.4-2.8-6.5c0.2-0.4,0.9-0.5,1.8-0.6c1.9-0.3,4.7-0.6,7.3-4.2c3.8-5.4,0.6-12.4,0.6-12.4c-0.3-0.8,2.9,7-0.8,12.2
			c-2.4,3.4-5.2,3.8-7,4c-1,0.1-1.8,0.2-2.1,0.8c-0.6,1.2,1.2,4.2,2.8,6.8c0.2,0.4,0.4,0.7,0.6,0.9c0.7,1.2,0.7,2.3-0.1,2.8
			c-0.6,0.5-3.6,1.5-5.2,1c-0.5-0.2-0.9-0.5-1-0.9c-0.4-1-0.5-2.5-0.7-4c-0.2-1.9-0.5-4.1-1.1-5.7c-1.2-3-1.3-4.4-0.3-5.5
			c1.2-1.3,1.3-2.4,0.7-5.1c-0.1-0.3-0.2-0.7-0.3-1.1c-0.9-3.2-2.6-9.2,1-12.9l-0.3-0.2c-3.8,3.8-2.1,9.9-1.1,13.2
			c0.1,0.4,0.2,0.8,0.3,1.1c0.6,2.5,0.5,3.5-0.6,4.7c-1.3,1.4-0.9,3.2,0.2,5.9c0.6,1.6,0.9,3.6,1.1,5.6c0.2,1.6,0.4,3.1,0.7,4.1
			c0.2,0.5,0.6,0.9,1.2,1.1C41.5,98.5,41.9,98.5,42.3,98.5z"/>
	</g>
	<g>
		<path class="st1" d="M102,45.2c0,0,0.4-6.1-1.8-10.3c-2.2-4.2-7.5-7.5-12.4-7.2c-4.9,0.3-10.8,4.5-11,8.7
			c-0.1,4.2,9.8,10.9,15.6,10.9C98.3,47.3,102,45.2,102,45.2z"/>
		<path class="st2" d="M102,45.2c0,0,0.4-6.1-1.8-10.3c-2.2-4.2-7.5-7.5-12.4-7.2c-4.9,0.3-10.8,4.5-11,8.7
			c-0.1,4.2,9.8,10.9,15.6,10.9C98.3,47.3,102,45.2,102,45.2z"/>
		<path class="st3" d="M79,40.9c-1.6-1.6-2.4-3.2-2.4-4.5c0.1-4.5,6.2-8.6,11.1-8.9c0.2,0,0.4,0,0.6,0c4.7,0,9.8,3.1,12,7.3
			c2.2,4.2,1.8,10.3,1.8,10.4l0,0.1l-0.1,0c0,0-3.8,2.2-9.6,2.2C88.1,47.5,82.1,44.1,79,40.9z M100,35c-2.1-4.1-7.1-7.1-11.7-7.1
			c-0.2,0-0.4,0-0.6,0c-4.6,0.3-10.7,4.3-10.8,8.6c0,1.2,0.7,2.6,2.3,4.2c3,3.1,8.9,6.5,13.2,6.5c5.3,0,8.8-1.8,9.4-2.1
			C101.9,44.3,102,38.8,100,35z"/>
	</g>
	<g>
		<ellipse transform="matrix(0.9853 -0.1711 0.1711 0.9853 -4.8991 17.5104)" class="st17" cx="99.1" cy="37.2" rx="1.8" ry="4.1"/>
		<path class="st3" d="M97.2,37.5c-0.2-1.1-0.2-2.2,0-3c0.2-0.9,0.6-1.4,1.2-1.5c1.1-0.2,2.3,1.5,2.7,3.8c0.2,1.1,0.2,2.2,0,3
			c-0.2,0.9-0.6,1.4-1.2,1.5c-0.1,0-0.1,0-0.2,0C98.6,41.4,97.6,39.7,97.2,37.5z M98.5,33.3c-0.4,0.1-0.7,0.5-0.9,1.3
			c-0.2,0.8-0.2,1.8,0,2.9c0.4,2,1.4,3.7,2.3,3.6c0.4-0.1,0.7-0.5,0.9-1.3c0.2-0.8,0.2-1.8,0-2.8c-0.3-2-1.3-3.6-2.2-3.6
			C98.5,33.3,98.5,33.3,98.5,33.3z"/>
	</g>
	<g>
		<ellipse transform="matrix(0.9852 -0.1712 0.1712 0.9852 -5.0213 17.5309)" class="st19" cx="99.1" cy="37.9" rx="1.2" ry="2.8"/>
		<path class="st20" d="M97.9,36.1c0.1-0.5,0.4-0.9,0.7-0.9c0.7-0.1,1.4,1,1.7,2.5c0.1,0.7,0.1,1.4,0,1.9
			C99.1,38.8,98.3,37.6,97.9,36.1z"/>
		<path class="st21" d="M97.8,38.1c-0.1-0.8-0.1-1.5,0-2.1c0.2-0.6,0.5-1,0.9-1.1c0.8-0.1,1.6,1,1.9,2.7c0.1,0.8,0.1,1.5,0,2.1
			c-0.2,0.6-0.5,1-0.9,1.1c0,0-0.1,0-0.1,0C98.8,40.8,98,39.7,97.8,38.1z M98.7,35.3c-0.2,0-0.5,0.3-0.6,0.8c-0.1,0.5-0.1,1.2,0,1.9
			c0.3,1.5,1,2.5,1.5,2.4c0.2,0,0.5-0.3,0.6-0.8c0.1-0.5,0.1-1.2,0-1.9C99.9,36.2,99.2,35.3,98.7,35.3
			C98.7,35.3,98.7,35.3,98.7,35.3z"/>
	</g>
	<g>
		<ellipse transform="matrix(0.9853 -0.1709 0.1709 0.9853 -5.0147 17.4972)" cx="99.1" cy="37.9" rx="0.7" ry="1.5"/>
	</g>
	<g>
		<circle class="st17" cx="99" cy="36.8" r="0.8"/>
	</g>
	<g>
		<circle class="st17" cx="99.7" cy="38" r="0.4"/>
	</g>
	<g>
		<path class="st0" d="M77.9,33.9c1.9-2.7,9.1,0.6,13-0.3c3.9-0.9,6.1,1.8,6.1,1.8c0.1,3.4,2,6.1,5.7,9.3c3.6,3.2-6.1,12.6-6.8,11.5
			c-0.7-1.1-3-4.5-6.3-5.3c-3.4-0.8-6.8,0.9-9.7-1.9c-2.9-2.8-2.1-6.4-2.1-6.4s-1.1-0.8-2.1-2.7C74.8,37.9,76,36.6,77.9,33.9z"/>
		<path class="st1" d="M77.9,33.9c1.9-2.7,9.1,0.6,13-0.3c3.9-0.9,6.1,1.8,6.1,1.8c0.1,3.4,2,6.1,5.7,9.3c3.6,3.2-6.1,12.6-6.8,11.5
			c-0.7-1.1-1.8-5.8-5.2-6.6c-3.4-0.8-7.2,1-10.1-1.8c-2.9-2.8-2.8-5.3-2.8-5.3s-1.1-0.8-2.1-2.7C74.8,37.9,76,36.6,77.9,33.9z"/>
		<path class="st2" d="M77.9,33.9c1.9-2.7,9.1,0.6,13-0.3c3.9-0.9,6.1,1.8,6.1,1.8c0.1,3.4,2,6.1,5.7,9.3c3.6,3.2-6.1,12.6-6.8,11.5
			c-0.7-1.1-1.2-7-4.6-7.8c-3.4-0.8-7.3,1.8-10.2-1c-2.9-2.8-3.3-4.8-3.3-4.8s-1.1-0.8-2.1-2.7C74.8,37.9,76,36.6,77.9,33.9z"/>
		<path class="st3" d="M96.1,56.4C96.1,56.4,96.2,56.4,96.1,56.4c1.5-0.2,6.3-4.9,7.4-8.5c0.4-1.5,0.2-2.6-0.6-3.4
			c-3.8-3.3-5.7-6-5.8-9.3c0,0-0.1,1.6,0.3,2.8c0.8,2.2,2.5,4.3,5.2,6.7c0.8,0.7,0.9,1.7,0.5,3c-1.1,3.6-5.8,8.1-7,8.2
			c-0.1,0-0.1,0-0.1,0c-1.1-1.7-3.3-4.6-6.4-5.3c-1.2-0.3-2.4-0.3-3.6-0.2c-2.1,0.1-4.2,0.1-6-1.7c-2.8-2.7-2-6.2-2-6.3
			c0,0-1.2,3.7,1.8,6.5c1.9,1.9,4.1,1.8,6.3,1.8c1.2,0,2.4-0.1,3.5,0.2c3,0.7,5.2,3.6,6.2,5.2C95.8,56.3,95.9,56.4,96.1,56.4z"/>
	</g>
	<g>
		<g>
			<path class="st22" d="M97.3,44.7c1.1-1.6,2.9-1.5,4.2-1.2c0.4,0.4,0.8,0.8,1.3,1.2c3.6,3.2-6.1,12.6-6.8,11.5
				c-0.6-0.9-2.2-3.3-4.6-4.6C95.1,50.1,95.7,47.1,97.3,44.7z"/>
			<path class="st16" d="M93,50.7c2.3-1.6,3-4,4.3-6c1.1-1.6,2.9-1.5,4.2-1.2c0.4,0.4,0.8,0.8,1.3,1.2c3.1,2.7-3.7,10.1-6,11.4
				C96,53.8,95,51.9,93,50.7z"/>
			<path class="st17" d="M93.5,50.3c2.3-1.6,2.5-3.6,3.8-5.6c1.1-1.6,2.9-1.5,4.2-1.2c0.4,0.4,0.8,0.8,1.3,1.2
				c3.1,2.7-3.4,9.9-5.8,11.2C96.3,53.7,95.5,51.5,93.5,50.3z"/>
			<path class="st18" d="M95.8,56.2c-0.9-1.5-2.4-3.4-4.5-4.5l-0.3-0.2l0.4-0.1c2.7-1,3.7-2.9,4.8-4.9c0.3-0.6,0.7-1.3,1.1-1.9
				c0.7-1,1.6-1.5,2.9-1.5c0.4,0,0.9,0.1,1.4,0.2l0,0l0,0c0.4,0.4,0.8,0.8,1.3,1.2c1,0.8,1.1,2.1,0.5,3.9c-1.4,3.7-6,8-7.2,8l0,0
				C95.9,56.4,95.8,56.3,95.8,56.2z M100.1,43.5c-1.2,0-2.1,0.4-2.6,1.3c-0.4,0.6-0.8,1.2-1.1,1.9c-1,1.9-2,3.8-4.6,4.9
				c2,1.2,3.4,3.1,4.3,4.5c0,0,0,0,0,0l0,0c1,0,5.5-4.1,6.9-7.8c0.6-1.6,0.5-2.7-0.4-3.5c-0.4-0.4-0.9-0.8-1.2-1.1
				C100.9,43.6,100.5,43.5,100.1,43.5z"/>
		</g>
	</g>
	<g>
		<path class="st22" d="M95.1,53.9l12.8,2.7c0,0-3.5,3.1-8.3,2.6C94.8,58.7,95.1,55.8,95.1,53.9z"/>
		<path class="st16" d="M107.9,56.6c0,0-2.1,2.5-6.9,1.9c-4.8-0.5-5-2.5-5-4.5L107.9,56.6z"/>
		<path class="st17" d="M107.9,56.6c0,0-1.7,2.2-6.5,1.6c-4.8-0.5-5-2.2-5-4.1L107.9,56.6z"/>
		<path class="st18" d="M100.7,59.4c4.2,0,7.3-2.7,7.3-2.7l-0.2-0.3c0,0-3.5,3.1-8.1,2.6c-4.4-0.5-4.4-2.9-4.3-4.8l0-0.3
			c0,0-1.5,5,4.3,5.5C100,59.4,100.3,59.4,100.7,59.4z"/>
	</g>
	<g>
		<path class="st22" d="M99.4,47.1c1-0.4,6.3-2.4,9,0.5c2.8,2.9,2.2,7.5,1.3,8.7c-0.8,1.2-6.1,1.3-9.4,0.4c-3.3-0.9-4.4-5.5-4.4-5.5
			L99.4,47.1z"/>
		<path class="st16" d="M99.4,47.1c1-0.4,6.3-2.4,9,0.5c2.8,2.9,2.2,7.5,1.3,8.7c-0.8,1.2-5,0.4-8.3-0.5c-3.3-0.9-5.5-4.6-5.5-4.6
			L99.4,47.1z"/>
		<path class="st17" d="M99.4,47.1c1-0.4,6.3-2.4,9,0.5c2.8,2.9,2.2,7.5,1.3,8.7c-0.8,1.2-4.5,0-7.7-0.9c-3.3-0.9-6.1-4.2-6.1-4.2
			L99.4,47.1z"/>
		<path class="st18" d="M105.3,57.4c2.2,0,4.1-0.3,4.6-1c0.9-1.3,1.4-6-1.3-8.9c-2.6-2.7-7.3-1.3-9.2-0.5l0.1,0.3
			c1.8-0.7,6.4-2.1,8.9,0.4c2.8,2.9,2.1,7.4,1.3,8.4c-0.8,1.1-5.9,1.2-9.2,0.3c-3.1-0.9-4.3-5.3-4.3-5.3c0,0,0.9,4.7,4.2,5.7
			C101.7,57.2,103.6,57.4,105.3,57.4z"/>
	</g>
	<g>
		<path class="st16" d="M108.3,53.9c0,0,3.7-0.5,3.5-3.5c-0.2-3-4.5-2.6-4.5-2.6L108.3,53.9z"/>
		<path class="st17" d="M108.3,53.9c0,0,3.7-0.5,3.5-3.5c-0.2-3-4.5-2.6-4.5-2.6L108.3,53.9z"/>
		<path class="st18" d="M107.1,47.6l0.2,0c0,0,0.2,0,0.6,0c1.2,0,3.9,0.3,4.1,2.8c0.2,3.2-3.6,3.7-3.7,3.7l-0.2,0L107.1,47.6z
			 M107.5,47.9l0.9,5.8c0.7-0.1,3.4-0.8,3.2-3.3c-0.2-2.2-2.7-2.5-3.7-2.5C107.7,47.9,107.6,47.9,107.5,47.9z"/>
	</g>
	<g>
		<path class="st16" d="M100.2,44.7c1.1,0.4,5-0.8,7.6,2.1c2.6,2.9,0.4,7.6,0.4,7.6s-5.4-3.7-7.1-4.8
			C97.1,46.7,100.2,44.7,100.2,44.7z"/>
		<path class="st17" d="M100.2,44.7c1.1,0.4,5-0.8,7.6,2.1c2.6,2.9,0.4,7.6,0.4,7.6s-5.4-3.7-7.1-4.8
			C97.1,46.7,100.2,44.7,100.2,44.7z"/>
		<path class="st18" d="M109.3,51.9c0.2-1.6,0.1-3.7-1.3-5.3c-1.9-2.1-4.5-2-6.2-2c-0.6,0-1.2,0-1.5-0.1c0,0,0.8,0.5,1.5,0.4
			c1.6,0,4.1-0.1,5.9,1.9c2.5,2.7,0.7,7.2,0.6,7.3C108.4,54.1,109.1,53.3,109.3,51.9z"/>
	</g>
	<g>
		<path class="st23" d="M103.3,53.9c0,0,0.2-2.7-1.3-3.4c-1.4-0.7-2.4,0.6-1.4,1.7C101.7,53.3,103.3,53.9,103.3,53.9z"/>
		<path class="st24" d="M101.6,50.4c0.1,0,0.2,0.1,0.4,0.1c1.4,0.7,1.3,3.4,1.3,3.4s-1-0.3-1.9-1C102,52.2,102.1,51.3,101.6,50.4z"
			/>
		<path class="st25" d="M102.1,50.6c1.3,0.8,1.2,3.3,1.2,3.3s-0.7-0.2-1.5-0.7C102.3,52.4,102.3,51.6,102.1,50.6z"/>
		<path class="st18" d="M103.2,54.1c-0.1,0-1.7-0.6-2.7-1.7c-0.4-0.5-0.6-1.1-0.4-1.5c0.3-0.6,1.1-0.8,1.9-0.4
			c1.5,0.7,1.4,3.4,1.4,3.5l0,0.2L103.2,54.1z M100.5,50.9c-0.2,0.3,0,0.8,0.3,1.2c0.7,0.8,1.9,1.4,2.3,1.6c0-0.7-0.1-2.4-1.2-3
			c-0.2-0.1-0.5-0.2-0.7-0.2C100.9,50.5,100.6,50.7,100.5,50.9z"/>
	</g>
	<g>
		<path class="st18" d="M103.8,55c0,0-0.4-0.6-0.4-1.1l-0.4,0C103.1,54.5,103.8,55,103.8,55z"/>
	</g>
	<g>
		<path class="st18" d="M104.6,51.6c0,0,0-2.2-1.6-3c-1.5-0.8-3.2,0.4-3.2,0.4c1.2-0.5,2.2-0.5,3-0.1
			C104.2,49.6,104.6,51.5,104.6,51.6z"/>
	</g>
	<g>
		<path class="st26" d="M87.3,33.3c0,0-1.9-0.2-2.7,2.5C84.2,33.6,85,32,87.3,33.3z"/>
	</g>
	<g>
		<path class="st26" d="M95.7,32.3c0,0,0.9-1.3,2.4-0.2C96.7,30.8,95.7,30.6,95.7,32.3z"/>
	</g>
	<g>
		<ellipse transform="matrix(0.9854 -0.1704 0.1704 0.9854 -5.53 15.6173)" class="st17" cx="88.2" cy="40" rx="3.1" ry="4.4"/>
		<path class="st3" d="M85,40.6c-0.2-1.2-0.1-2.4,0.4-3.4c0.5-1,1.2-1.6,2.1-1.8c0.1,0,0.3,0,0.4,0c1.7,0,3.2,1.7,3.6,4
			c0.2,1.2,0.1,2.4-0.4,3.4c-0.5,1-1.2,1.6-2.1,1.8c-0.1,0-0.3,0-0.4,0C86.9,44.6,85.4,42.9,85,40.6z M87.5,35.8
			c-0.8,0.1-1.4,0.7-1.8,1.6c-0.4,0.9-0.5,2-0.3,3.1c0.4,2.1,1.8,3.7,3.3,3.7c0.1,0,0.2,0,0.3,0c0.8-0.1,1.4-0.7,1.8-1.6
			c0.4-0.9,0.5-2,0.4-3.1c-0.4-2.1-1.8-3.7-3.3-3.7C87.7,35.8,87.6,35.8,87.5,35.8z"/>
	</g>
	<g>
		<ellipse transform="matrix(0.9854 -0.17 0.17 0.9854 -5.58 15.5464)" class="st19" cx="88" cy="40.3" rx="1.9" ry="2.6"/>
		<path class="st20" d="M86.4,38.7c0.2-0.5,0.7-0.9,1.2-1c1-0.2,2,0.8,2.3,2.3c0.1,0.6,0.1,1.2-0.1,1.7C88,41.3,86.9,40.3,86.4,38.7
			z"/>
		<path class="st21" d="M86,40.7c-0.3-1.5,0.4-2.9,1.5-3.1c1.1-0.2,2.2,0.9,2.5,2.4c0.3,1.5-0.4,2.9-1.5,3.1c-0.1,0-0.2,0-0.3,0
			C87.2,43.1,86.2,42.1,86,40.7z M87.6,37.9c-0.9,0.2-1.5,1.4-1.2,2.7c0.2,1.3,1.1,2.3,2.1,2.1c0.9-0.2,1.5-1.4,1.2-2.7
			c-0.2-1.2-1-2.2-1.9-2.2C87.7,37.9,87.6,37.9,87.6,37.9z"/>
	</g>
	<g>
		<ellipse transform="matrix(0.9854 -0.1704 0.1704 0.9854 -5.5894 15.5819)" cx="88" cy="40.3" rx="1.2" ry="1.6"/>
	</g>
	<g>
		<path class="st11" d="M80.6,32c0,0,2.7-0.4,3.8,1c1.1-1.3,1-1.9,1-1.9C87.2,31.1,89,33,89,33c0.2-1.7,0-2.7,0-2.7
			c1.8,1,5,4.4,5,4.4c0.1-2.1-1.4-5-2.7-5.8c1.6,0.5,3.5,1.5,3.5,1.5c0.1-2-1.5-5.4-6.6-4.3c2.3-1.4,3.2-1.4,3.2-1.4
			c-4.8-0.9-6.8,0-8.3,1.1c0-1.9,0.3-2.7,0.3-2.7c-2.6,1.1-4.3,2.7-4.4,5.8C78.9,32,80.6,32,80.6,32z"/>
		<path class="st12" d="M80.7,30.7c0,0,2.6,0.9,3.8,2.3c1.1-1.3,0-3.3,0-3.3C86.2,29.8,89,33,89,33c0.2-1.7-1.5-4.1-1.5-4.1
			c1.8,1,6.5,5.8,6.5,5.8c0.1-2.1-1.4-5-2.7-5.8c1.6,0.5,3.5,1.5,3.5,1.5c0.1-2-1.5-5.4-6.6-4.3c2.3-1.4,3.2-1.4,3.2-1.4
			c-4.8-0.9-8,1.5-9.4,2.6c0-1.9,1.5-4.2,1.5-4.2c-2.6,1.1-3.1,3.5-3.2,6.6C80.1,32.9,80.7,30.7,80.7,30.7z"/>
		<path class="st13" d="M80.7,30.7c0,0,2.6,0.9,3.8,2.3c1.1-1.3-0.7-4.3-0.7-4.3C85.6,28.7,89,33,89,33c0.2-1.7-1.5-4.1-1.5-4.1
			c1.8,1,6.5,5.8,6.5,5.8c0.1-2.1-1.4-5-2.7-5.8c1.6,0.5,3.5,1.5,3.5,1.5c0.1-2-1.5-5.4-6.6-4.3c2.3-1.4,3.2-1.4,3.2-1.4
			c-4.8-0.9-8.7,2.6-10.1,3.7c0-1.9,2.1-5.3,2.1-5.3c-2.6,1.1-3.1,3.5-3.2,6.6C80.1,32.9,80.7,30.7,80.7,30.7z"/>
		<path class="st14" d="M93.9,34.8c0,0-2.9-3-4.7-4.2c0,0.4,0.1,1.2-0.1,2.4l0,0.4l-0.3-0.3c0,0-1.7-1.7-3.3-1.9
			c0,0.3-0.2,0.9-1,1.9l-0.1,0.2l-0.1-0.2c-0.7-0.9-2.1-1-2.9-1c-0.5,0-0.8,0-0.9,0.1c-0.1,0-0.6,0-1-0.5c-0.5-0.6-0.8-1.5-0.8-2.8
			c0.1-2.9,1.4-4.7,4.5-6l0.4-0.1l-0.1,0.4c0,0-0.2,0.7-0.3,2.3c0.9-0.6,2.2-1.3,4.5-1.3c1,0,2.3,0.1,3.6,0.4l1.6,0.3l-1.7,0
			c0,0-0.7,0-2.2,0.9c2-0.2,3.5,0.2,4.6,1.3c1,1,1.3,2.4,1.3,3.3l0,0.3l-0.2-0.1c0,0-1.3-0.6-2.6-1.1c1.1,1.2,2.2,3.6,2.1,5.4l0,0.4
			L93.9,34.8z M91.4,28.7c1.2,0.4,2.7,1.1,3.3,1.3c0-0.8-0.4-1.9-1.2-2.7c-1.2-1.2-3-1.6-5.3-1.1l-1,0.2l0.9-0.5
			c1.1-0.7,1.9-1,2.4-1.2c-1-0.2-1.9-0.2-2.7-0.2c-2.5,0-3.7,0.7-4.6,1.5l-0.3,0.2l0-0.4c0-1.2,0.1-2,0.2-2.4
			c-2.7,1.2-3.9,2.9-4,5.5c0,1.2,0.2,2.1,0.7,2.5c0.4,0.4,0.8,0.4,0.8,0.4c0,0,0.4-0.1,0.9-0.1c0.9,0,2.2,0.2,3,1
			c0.9-1.1,0.8-1.6,0.8-1.6l0-0.2l0.2,0c1.4,0.1,2.9,1.2,3.4,1.7c0.1-1.4,0-2.3,0-2.3L88.8,30l0.3,0.2c1.5,0.8,3.9,3.2,4.8,4.1
			c-0.1-2-1.4-4.5-2.6-5.2L90,28.2L91.4,28.7z"/>
	</g>
	<g>
		<path class="st0" d="M59.8,20.1c1.1-0.3,7.9-0.1,14.6,2c6.7,2.1,7.5,10.8,7.5,10.8l-6.3,3.4c-6.1-0.3-10.8-2.7-13.5-5.9
			C59.5,27.1,58.7,20.4,59.8,20.1z"/>
		<path class="st1" d="M61.1,20.3c1.1-0.3,6.6-0.4,13.3,1.8c6.7,2.1,7.5,10.8,7.5,10.8l-6.3,3.4c-6.1-0.3-9.4-3.4-12.1-6.6
			C60.9,26.4,60,20.6,61.1,20.3z"/>
		<path class="st2" d="M62,20.8c1.1-0.3,5.7-0.9,12.5,1.3c6.7,2.1,7.5,10.8,7.5,10.8l-6.3,3.4c-6.1-0.3-8.4-3.6-11.1-6.8
			C61.8,26.2,60.9,21.1,62,20.8z"/>
		<path class="st3" d="M75.6,36.2c-5.5-0.3-10.3-2.5-13.3-6c-2.2-2.6-3.1-8-2.7-9.5c0.1-0.2,0.1-0.3,0.2-0.4c1.1-0.3,7.8-0.1,14.5,2
			c6.5,2.1,7.4,10.5,7.4,10.6c0,0,0.1-2.2-0.9-4.6c-1-2.5-3-5.3-6.4-6.4c-6.7-2.1-13.6-2.3-14.7-2c-0.2,0.1-0.4,0.3-0.5,0.6
			c-0.5,1.6,0.3,7,2.7,9.9c2.1,2.4,5,4.3,8.4,5.3C72,36.2,75.6,36.2,75.6,36.2z"/>
	</g>
	<g>
		<path class="st4" d="M78.3,32.8c0,0-4.7,0.9-9.4-2.1c-4.7-3-6.3-6.2-6.3-6.2s5.8,0.4,9.6,1.6C75.9,27.3,78.3,32.8,78.3,32.8z"/>
		<path class="st5" d="M78.3,32.8c0,0-4.7,0.9-9.4-2.1c-4.7-3-6.3-6.2-6.3-6.2s4.8,0.6,8.5,1.9C74.9,27.6,78.3,32.8,78.3,32.8z"/>
		<path class="st6" d="M78.3,32.8c0,0-4.7,0.9-9.4-2.1c-4.7-3-6.3-6.2-6.3-6.2s4.9,1.1,8.7,2.3C75,28,78.3,32.8,78.3,32.8z"/>
		<path class="st3" d="M68.8,30.8c-4.7-3-6.3-6.2-6.4-6.3l-0.1-0.3l0.3,0c0.1,0,5.9,0.4,9.6,1.6c3.8,1.3,6.1,6.6,6.2,6.8l0.1,0.2
			l-0.2,0c0,0-0.7,0.1-1.8,0.1l0,0C74.6,33.1,71.7,32.7,68.8,30.8z M72.1,26.2c-3.2-1.1-7.9-1.5-9.2-1.6c0.5,0.8,2.3,3.4,6.1,5.9
			c2.8,1.8,5.6,2.2,7.5,2.2c0.7,0,1.2-0.1,1.5-0.1C77.5,31.6,75.3,27.3,72.1,26.2z"/>
	</g>
	<g>
		<path class="st3" d="M62.9,24.6l0.1-0.3c-1.7-0.4-2.1-0.8-2.1-0.8C60.9,23.4,61.1,24.2,62.9,24.6z"/>
	</g>
	<g>
		<path class="st3" d="M78.8,34.9c0,0,0.1-1.4-0.6-2.7l-0.3,0.2C78.6,33.7,78.8,34.9,78.8,34.9z"/>
	</g>
	<g>
		<circle class="st17" cx="88.3" cy="39.4" r="0.8"/>
	</g>
	<g>
		<circle class="st17" cx="88.9" cy="40.7" r="0.4"/>
	</g>
</g>
</svg>
