<?xml version="1.0" encoding="utf-8"?>
<!-- Generator: Adobe Illustrator 21.0.2, SVG Export Plug-In . SVG Version: 6.00 Build 0)  -->
<svg version="1.1" id="Слой_1" xmlns="http://www.w3.org/2000/svg" xmlns:xlink="http://www.w3.org/1999/xlink" x="0px" y="0px"
	 viewBox="0 0 130 114" style="enable-background:new 0 0 130 114;" xml:space="preserve">
<style type="text/css">
	.st0{fill:#F3A913;}
	.st1{fill:#E28807;}
	.st2{fill:#F3BA13;}
	.st3{fill:#F3C913;}
	.st4{fill:#DDDDDB;}
	.st5{fill:#EBECE6;}
	.st6{fill:#FFFFFF;}
	.st7{fill:#BCBCBB;}
	.st8{fill:#069FFC;}
	.st9{fill:#067CFC;}
	.st10{fill:#065BFC;}
	.st11{fill:#FF8103;}
	.st12{fill:#FFA101;}
	.st13{fill:#FFAE01;}
	.st14{fill:#FF5E01;}
	.st15{fill:#AA0404;}
</style>
<g>
	<g>
		<g>
			<polygon class="st0" points="53,89 50.3,91.5 53,94 58,91.5 			"/>
		</g>
		<g>
			<path class="st1" d="M52.9,94.2l-2.9-2.7l2.9-2.7l5.5,2.7L52.9,94.2z M50.6,91.5l2.4,2.2l4.6-2.2L53,89.3L50.6,91.5z"/>
		</g>
	</g>
	<g>
		<g>
			<path class="st0" d="M62.1,85.2L59.8,89c0,0-7.6-0.9-7.8-0.3c-0.2,0.6,3.1,1.4,3.1,1.4c-3.5,0.1-5.3,0.9-5.4,1.4
				c0,0.4,5.7,0.5,5.7,0.5c-1.8,0.8-2.9,1.1-2.6,2c0.3,0.9,8.4-0.6,9.5-1.5c0.6-0.4,0-1.2,0.2-2.2c0.1-0.8,0.9-1.7,2.4-4.1
				C66.9,83.4,63.4,84.2,62.1,85.2z"/>
		</g>
		<g>
			<path class="st2" d="M62.1,85.2L59.8,89c0,0-7.6-0.9-7.8-0.3c-0.2,0.6,3.1,1.4,3.1,1.4c-3.5,0.1-5.3,0.9-5.4,1.4
				c0,0.4,5.7,0.5,5.7,0.5c-1.8,0.8-2.9,1.1-2.6,2c0.3,0.9,7.5-1.2,8.6-2c0.6-0.5,0.2-1.4,0.4-2.4c0.1-0.8,0.8-1.2,2.4-3.6
				C66.2,83.1,63.4,84.2,62.1,85.2z"/>
		</g>
		<g>
			<path class="st3" d="M62.1,85.2L59.8,89c0,0-7.6-0.9-7.8-0.3c-0.2,0.6,3.1,1.4,3.1,1.4c-3.5,0.1-5.3,0.9-5.4,1.4
				c0,0.4,5.7,0.5,5.7,0.5c-1.8,0.8-2.9,1.1-2.6,2c0.3,0.9,6.9-1.4,8-2.3c0.6-0.5,0.5-1.8,0.6-2.8c0.1-0.8,0.7-0.6,2.3-3
				C65.7,83.1,63.4,84.2,62.1,85.2z"/>
		</g>
		<g>
			<path class="st1" d="M54.1,94.4C54.1,94.4,54.1,94.4,54.1,94.4c-0.8,0-1.2-0.1-1.3-0.4c-0.3-0.9,0.5-1.3,1.8-1.9
				c-1.8,0-4.6-0.1-4.9-0.5c0-0.1-0.1-0.1-0.1-0.2c0.1-0.5,1.6-1.3,4.4-1.5c-0.8-0.3-1.9-0.7-2.1-1.1c-0.1-0.1-0.1-0.2,0-0.3
				c0.1-0.2,0.3-0.3,1.4-0.3c2,0,5.7,0.4,6.4,0.5l2.3-3.8c0.7-0.5,1.9-1,2.7-1c0.6,0,0.9,0.2,1,0.4c0.2,0.4,0.1,1-0.5,1.8
				c-0.4,0.6-0.8,1.2-1.1,1.6c-0.8,1.2-1.2,1.8-1.3,2.4c-0.1,0.4,0,0.7,0,1.1c0.1,0.5,0.1,0.9-0.3,1.3
				C61.6,93.4,56.3,94.4,54.1,94.4z M53.1,93.9c0,0,0.1,0.1,0.9,0.1h0c2.3,0,7.5-1.1,8.3-1.7c0.2-0.2,0.2-0.4,0.1-0.9
				c-0.1-0.3-0.1-0.7,0-1.2c0.1-0.7,0.5-1.3,1.4-2.5c0.3-0.4,0.7-1,1.1-1.6c0.6-0.9,0.5-1.2,0.4-1.4c-0.1-0.2-0.4-0.2-0.7-0.2
				c-0.7,0-1.8,0.4-2.4,0.9l-2.3,3.9l-0.1,0c0,0-4.4-0.5-6.5-0.5c-0.7,0-0.9,0.1-1,0.1c0.1,0.2,1.5,0.8,2.9,1.2l1.3,0.3l-1.4,0
				c-3.2,0-4.8,0.8-5.1,1.1c0.5,0.2,3.1,0.3,5.5,0.3l0.9,0l-1.2,0.5C53.6,93,52.9,93.3,53.1,93.9L53.1,93.9z"/>
		</g>
	</g>
	<g>
		<g>
			<path class="st0" d="M60.4,95.6c0,0,0.1,0.4-0.6,1.9c1.3,0.6,3.2,2.6,3.2,2.6l5.5-4C68.5,96.1,65.6,95,60.4,95.6z"/>
		</g>
		<g>
			<path class="st1" d="M62.9,100.4l-0.1-0.1c0,0-1.9-2-3.1-2.6l-0.2-0.1l0.1-0.2c0.7-1.3,0.6-1.7,0.6-1.7l-0.1-0.2l0.2,0
				c1-0.1,2.1-0.2,3.1-0.2c3.2,0,5,0.7,5.1,0.7l0.3,0.1L62.9,100.4z M60,97.4c1.1,0.6,2.5,2,3,2.5l5.1-3.7c-0.7-0.2-2.2-0.6-4.6-0.6
				c-0.9,0-1.9,0.1-2.9,0.2C60.6,96,60.5,96.5,60,97.4z"/>
		</g>
	</g>
	<g>
		<g>
			<path class="st0" d="M67.7,86.5c0,0,0.1,2.5-0.5,4.1c-0.6,1.6-0.8,3-0.8,3c-2.1,0.2-5.9,1.2-6.7,1.8C58.9,96,62.2,96,62.2,96
				c-2.9,1.2-5.5,3.8,3.8,0.8c-2.2,1.3-3.3,3.2-3,3.7c0.4,0.5,4.1-2.6,6.2-3.6c2.1-1,3.6-0.1,2.9-1.2c-0.7-1.1-2.4-1.7-2.4-1.7
				c0.3-1.7,1.4-5.4,1.2-6.9C70.6,85.5,68.9,85.8,67.7,86.5z"/>
		</g>
		<g>
			<path class="st2" d="M67.7,86.5c0,0,0.1,2.5-0.5,4.1c-0.6,1.6-0.8,3-0.8,3c-2.1,0.2-5.9,1.2-6.7,1.8c-0.8,0.6,4.1,0,4.1,0
				c-2.8,1.2-5.8,3.8,3.4,0.8c-2.2,1.3-4.5,3.8-4.2,4.3c0.4,0.5,2.7-2.8,4.8-3.7c2.1-0.9,3.7-0.9,2.6-1.6c-1.1-0.8-2.2-0.9-2.2-0.9
				c0.3-1.7,2-5.6,1.7-7.1C69.7,85.6,68.9,85.8,67.7,86.5z"/>
		</g>
		<g>
			<path class="st3" d="M67.7,86.5c0,0,0.1,2.5-0.5,4.1c-0.6,1.6-0.8,3-0.8,3c-2.1,0.2-5.9,1.2-6.7,1.8c-0.8,0.6,4.1,0,4.1,0
				c-2.8,1.2-5.8,3.8,3.4,0.8c-2.2,1.3-4.5,3.8-4.2,4.3c0.4,0.5,2.4-3.1,4.5-4.1c2.1-1,2.9-0.7,1.8-1.4c-1.1-0.8-2.1-0.6-2.1-0.6
				c0.3-1.6,2.5-5.7,2.3-7.3C69.3,85.6,68.9,85.8,67.7,86.5z"/>
		</g>
		<g>
			<path class="st1" d="M63.2,100.7L63.2,100.7c-0.1,0-0.2-0.1-0.3-0.1c-0.1-0.1-0.1-0.3-0.1-0.5c0.1-0.7,0.9-1.7,2.1-2.7
				c-2.2,0.7-3.8,1-4.6,1c-0.2,0-0.8,0-0.9-0.4c-0.1-0.5,1-1.3,2-1.8c-1.8,0-1.9-0.3-2-0.5c0-0.1,0-0.3,0.2-0.4
				c0.9-0.6,4.6-1.6,6.7-1.9c0.1-0.4,0.3-1.6,0.8-2.9c0.6-1.5,0.5-4,0.5-4l0-0.1l0.1-0.1c0.6-0.4,1.3-0.6,1.9-0.6
				c0.9,0,1.4,0.5,1.6,1.3c0.2,1.2-0.4,3.5-0.8,5.4c-0.1,0.6-0.3,1.1-0.3,1.5c0.4,0.2,1.7,0.8,2.4,1.7c0.1,0.2,0.3,0.5,0.2,0.7
				c-0.1,0.2-0.4,0.3-0.9,0.3c-0.5,0-1.4,0.1-2.3,0.5c-0.9,0.4-2.2,1.3-3.3,2C64.5,100.1,63.6,100.7,63.2,100.7z M67.4,96.1L66.1,97
				c-1.8,1.1-2.8,2.5-2.9,3.2c0,0.1,0,0.2,0,0.2c0.4,0,1.6-0.8,2.6-1.6c1.1-0.8,2.4-1.6,3.3-2.1c1-0.4,1.8-0.5,2.4-0.6
				c0.2,0,0.5,0,0.6-0.1c0,0,0-0.1-0.2-0.3c-0.7-1-2.3-1.6-2.3-1.6l-0.2-0.1l0-0.2c0.1-0.4,0.2-1,0.4-1.6c0.4-1.7,1-4.1,0.8-5.2
				c-0.1-0.6-0.5-1-1.2-1c-0.5,0-1.1,0.2-1.6,0.5c0,0.5,0.1,2.7-0.5,4.1c-0.6,1.5-0.8,3-0.8,3l0,0.2l-0.1,0
				c-2.1,0.2-5.9,1.2-6.6,1.8c0,0,0,0,0,0c0.2,0.1,0.8,0.2,2.1,0.2c0.2,0,0.3,0,0.3,0l1,0l-0.9,0.4c-1.7,0.7-2.6,1.6-2.5,1.7
				c0,0,0.5,0.6,6.2-1.3L67.4,96.1z"/>
		</g>
	</g>
	<g>
		<path class="st1" d="M66.3,93.3l0.4,0.1c-0.1,0.6-0.1,1.5-0.1,1.5C66.5,94.9,66.1,94,66.3,93.3z"/>
	</g>
	<g>
		<path class="st1" d="M62,96.3l-0.2-0.3c1.2-0.7,3.5-0.7,3.5-0.7C65.3,95.3,63.2,95.6,62,96.3z"/>
	</g>
	<g>
		<g>
			<path class="st4" d="M49.4,24.2c0,0-0.3-8.4,5.2-10.7c5.5-2.3,16.4,2.5,14.1,12.9c-2.3,10.4-13.2,25.6-6.7,32.5
				c6.5,6.8,24.3,11.5,24.9,3.2c2,0.8,1.1,4.9,1.1,4.9c1.5-3.2,1.8-5.5,1.8-5.5c1.6,3.4,0,8.2,0,8.2c2.2-2.2,2.7-3.8,2.7-3.8
				c0.3,2.6-1.5,5.7-1.5,5.7c2.3-1.8,2.8-2.3,2.8-2.3C93.3,72,86.8,91.7,64.8,87c-22.1-4.8-21.9-21.4-13.4-34.9
				c8.5-13.4,6-17.2,5.5-19.7c-1.9-0.4-4.6-0.8-6.7-1.4C48,30.4,49.4,24.2,49.4,24.2z"/>
		</g>
		<g>
			<path class="st5" d="M84.2,74.7c1.1-0.8,2.7-1.9,3.4-3c-1.1,0.8-2.3,1.1-3.4,1.5c1.5-1.1,2.3-2.7,3.4-4.2
				c-2.3,0.4-4.2,0.4-6.5,0.4c1.3-0.8,2.7-2.2,3.5-3.7c-5,2.9-19.7-1.1-24.9-6.6c-6.5-6.8,4.9-21.9,7.2-32.3
				c2.3-10.4-6.9-15.4-12.4-13.1c-5.5,2.3-5.2,10.7-5.2,10.7S48,30.4,50.1,31c1.5,0.4,3.4,0.7,5.1,1.1c2.8,0.2,5.8,1.4,7.8-1.5
				c-0.8,2.7-4.2,2.7-5.6,4.2c0.5,2.8,0.3,7.4-6,17.4c-5.7,9.1-7.7,19.6-1.5,27c11.9,9,31.9,9,39.4-5.5
				C87.7,73.9,85.8,74.3,84.2,74.7z"/>
		</g>
		<g>
			<path class="st6" d="M76.3,73.5c2.6-1.1,2.8-4.2,3.2-6.9c-6.6-0.1-16.1-3.3-20-7.5c-6.5-6.8,4.1-21.4,6.3-31.8
				c2.3-10.4-5.8-16.1-11.2-13.8c-5.5,2.3-5.2,10.7-5.2,10.7S48,30.4,50.1,31c1.5,0.4,3.4,0.7,5.1,1.1c2.8,0.2,5.8,1.4,7.8-1.5
				c-0.8,2.7-4,3.8-5.4,5.2c0.1,2.4,0.2,6.4-6.2,16.4c-5.7,9.1-7.7,19.6-1.5,27c11.9,9,30.5,6.7,36.8-4.1c-0.1,0-0.2,0-0.3,0.1
				C82.9,75.8,79.3,75.5,76.3,73.5z"/>
		</g>
		<g>
			<path class="st7" d="M71.3,87.9c-2.1,0-4.3-0.3-6.6-0.7c-9.1-2-15-6-17.6-12.1c-2.7-6.4-1.2-14.8,4-23.1
				c7.5-11.9,6.3-16.1,5.7-18.7c-0.1-0.3-0.1-0.5-0.2-0.8c-0.8-0.2-1.6-0.3-2.5-0.5c-1.4-0.3-2.8-0.5-4.1-0.9c-2.2-0.6-1-6.2-0.8-7
				c0-0.5,0-8.6,5.3-10.8c0.9-0.4,2-0.6,3.1-0.6c3.5,0,7.1,1.7,9.3,4.4c1.4,1.8,2.9,4.8,1.9,9.3c-0.7,3.4-2.3,7.2-4,11.2
				c-3.5,8.2-7,16.6-2.7,21.1c3.9,4.1,12.2,7.6,18.2,7.6c2.3,0,6.1-0.5,6.3-4.2l0-0.3l0.2,0.1c1.4,0.5,1.5,2.5,1.4,3.8
				c1-2.5,1.2-4.2,1.2-4.3l0.1-0.7l0.3,0.6c1.2,2.7,0.6,6.1,0.2,7.5c1.7-1.9,2.1-3.1,2.1-3.2l0.3-0.8l0.1,0.8c0.2,1.9-0.6,4-1.1,5.1
				c1.7-1.3,2.1-1.7,2.1-1.7l0.4-0.5l-0.1,0.6c-0.1,1-1.4,5.6-5,10.1C85.8,83.4,80.3,87.9,71.3,87.9z M57.6,13.2
				c-1.1,0-2.1,0.2-3,0.5c-5.3,2.2-5.1,10.4-5.1,10.5v0l0,0c-0.4,1.7-1,6.1,0.6,6.6c1.2,0.3,2.7,0.6,4,0.9c1,0.2,1.9,0.4,2.7,0.5
				l0.1,0l0,0.1c0.1,0.3,0.1,0.6,0.2,0.9c0.7,2.6,1.9,6.9-5.7,19c-5.2,8.2-6.6,16.5-4,22.7c2.5,5.9,8.3,9.9,17.3,11.8
				c2.3,0.5,4.4,0.7,6.5,0.7c15.3,0,21.1-13.6,22.1-17.6c-0.4,0.3-1.1,0.9-2.4,1.9l-0.8,0.6l0.5-0.8c0,0,1.5-2.5,1.5-4.8
				c-0.4,0.7-1.1,1.8-2.4,3.2l-0.6,0.6l0.3-0.8c0,0,1.4-4.2,0.3-7.4c-0.2,0.9-0.6,2.7-1.7,4.9l-0.7,1.4l0.3-1.5c0,0,0.8-3.7-0.8-4.6
				c-0.3,2.8-2.7,4.3-6.7,4.3c-6.1,0-14.5-3.5-18.5-7.7c-4.5-4.7-0.8-13.3,2.7-21.5c1.7-4,3.3-7.8,4-11.1c0.8-3.4,0.1-6.5-1.9-9
				C64.5,14.9,61,13.2,57.6,13.2z"/>
		</g>
	</g>
	<g>
		<path class="st7" d="M58.5,32.8c-0.6,0-1.3-0.1-2-0.3l0.1-0.4c3.7,1.1,6.4-1.4,6.4-1.4C63,30.7,61.3,32.8,58.5,32.8z"/>
	</g>
	<g>
		<path class="st4" d="M87.1,74.2c-3.2-0.3-6.4-1.7-6.4-1.7c2.7,0.1,6.4-1.4,6.4-1.4c-2.7-1.7-4.8-1.9-4.8-1.9
			c2.8-0.8,4.3-1.7,4.3-1.7c-3.2-1.3-6.9-5.8-13.2-9.3c-6.3-3.5-10.8-3.5-15.4-0.6L57.5,60c0,0-4.7,8,5.4,14.4
			c10.1,6.4,17,2.9,17,2.9c-1.3-0.9-3.5-2-3.5-2C81.3,76.7,87.1,74.2,87.1,74.2z"/>
		<g>
			<path class="st5" d="M58,69c3.4,4.6,9.5,6.5,15.2,6.8c-1.1-0.8-1.9-2.3-3.4-3c3.4,0.8,6.5,1.5,9.9,1.5c-1.1-0.8-2.7-1.1-3.8-2.7
				c1.9-0.8,3.7-0.6,5.7-1.5c-1.5-0.4-3-1.1-4.6-1.5c3.3-0.3,6.3-0.6,9.5-1.1c0.1,0,0.1-0.1,0.1-0.1c-3.2-1.3-6.9-5.8-13.2-9.3
				c-6.3-3.5-10.8-3.5-15.4-0.6L57.5,60c0,0-0.9,1.6-1.1,3.9C56.4,65.7,56.9,67.4,58,69z"/>
		</g>
		<g>
			<path class="st6" d="M68.3,73.5c-0.4-1.1-1.5-1.9-1.9-2.7c2.7,0.8,5.3,1.5,8,1.5c-1.1-0.8-2.3-1.5-3.4-2.3c2.3,0,4.2,0,6.5,0
				c-1.1-1.1-2.7-1.1-4.2-1.9c4.5-0.7,8.9-0.8,13.4-0.8l0,0c-3.2-1.3-6.9-5.8-13.2-9.3c-6.3-3.5-10.8-3.5-15.4-0.6L57.5,60
				c0,0-0.9,1.6-1.1,3.9c0,0.4,0,0.8,0.1,1.2C58.1,70,63.6,72.2,68.3,73.5z"/>
		</g>
		<g>
			<path class="st7" d="M74.9,78.4c-3,0-7.2-0.8-12.1-3.9C57.3,71,56.2,67,56.3,64c0.1-2.4,1.4-3.9,1.4-3.9
				c-0.2,0.3-4.4,7.9,5.4,14.1c8.7,5.5,15,3.6,16.5,3.1c-1.3-0.8-3.2-1.8-3.2-1.8l-1.6-0.8l1.7,0.5c3.7,1,8.1-0.3,9.8-0.9
				c-2.9-0.4-5.6-1.6-5.6-1.6l-0.9-0.4l1,0c2.1,0.1,5-0.9,5.9-1.3c-2.4-1.5-4.3-1.7-4.4-1.7l-0.9-0.1l0.9-0.3c2-0.6,3.3-1.2,3.9-1.5
				c-1.5-0.7-3.1-2-4.9-3.5c-2.2-1.8-4.7-3.9-8-5.7c-6-3.4-10.6-3.6-15.2-0.6c0,0,1.3-1.2,2-1.5c4-1.7,8.2-1.2,13.4,1.8
				c3.3,1.8,5.8,3.9,8,5.7c2,1.6,3.6,3,5.2,3.6l0.4,0.1l-0.3,0.2c-0.1,0-1.3,0.7-3.6,1.5c0.9,0.2,2.3,0.7,4.1,1.8l0.3,0.2l-0.3,0.1
				c-0.1,0.1-3,1.2-5.5,1.4c1.1,0.4,3.3,1.2,5.5,1.4l0.8,0.1l-0.7,0.3c-0.1,0-4.9,2.1-9.5,1.4c0.7,0.4,1.7,0.9,2.4,1.4l0.3,0.2
				L80,77.5C80,77.5,78.1,78.4,74.9,78.4z"/>
		</g>
	</g>
	<g>
		<ellipse transform="matrix(0.2612 -0.9653 0.9653 0.2612 18.9994 63.4169)" class="st6" cx="50.9" cy="19.3" rx="3" ry="1.8"/>
		<path class="st7" d="M50.4,22.4c-0.1,0-0.2,0-0.3,0c-0.5-0.1-0.9-0.6-1.1-1.3c-0.2-0.7-0.2-1.5,0-2.3c0.4-1.5,1.4-2.6,2.4-2.6
			c0.1,0,0.2,0,0.3,0c0.5,0.1,0.9,0.6,1.1,1.3c0.2,0.7,0.2,1.5,0,2.3C52.4,21.3,51.4,22.4,50.4,22.4z M51.4,16.6c-0.8,0-1.7,1-2,2.3
			c-0.2,0.7-0.2,1.5,0,2c0.2,0.6,0.5,0.9,0.9,1c0.8,0.2,1.9-0.8,2.3-2.3c0.2-0.7,0.2-1.5,0-2.1c-0.2-0.6-0.5-0.9-0.9-1
			C51.6,16.6,51.5,16.6,51.4,16.6z"/>
	</g>
	<g>
		<ellipse transform="matrix(0.2608 -0.9654 0.9654 0.2608 18.9353 63.5625)" class="st8" cx="51" cy="19.4" rx="1.8" ry="1.2"/>
		<path class="st9" d="M52.1,18.5c-0.1-0.4-0.4-0.7-0.7-0.8c-0.6-0.2-1.3,0.5-1.6,1.4c-0.1,0.4-0.1,0.8,0,1.1
			C50.7,20,51.4,19.3,52.1,18.5z"/>
		<path class="st10" d="M50.7,21.3c-0.1,0-0.2,0-0.3,0c-0.4-0.1-0.7-0.4-0.8-0.8c-0.1-0.4-0.1-0.9,0-1.4c0.2-0.9,0.9-1.6,1.6-1.6
			c0.1,0,0.2,0,0.3,0c0.7,0.2,1.1,1.2,0.8,2.3C52,20.7,51.4,21.3,50.7,21.3z M51.2,17.9c-0.5,0-1,0.6-1.2,1.3
			c-0.1,0.4-0.1,0.8,0,1.2c0.1,0.3,0.3,0.5,0.5,0.6c0.5,0.1,1.1-0.5,1.4-1.3c0.2-0.8,0-1.6-0.5-1.8C51.3,17.9,51.3,17.9,51.2,17.9z"
			/>
	</g>
	<g>
		<ellipse transform="matrix(0.2622 -0.965 0.965 0.2622 18.8724 63.5165)" cx="51" cy="19.4" rx="0.9" ry="0.6"/>
	</g>
	<g>
		<g>
			<path class="st11" d="M56.2,30.5c0,0-4.9-0.1-7.3,1.9c-2.3,2-4.9,2.1-7.1,0.2c-2.2-1.9-1.9-3.3,0.5-4.7
				c2.4-1.4,12.3-3.6,13.6-2.7C57.3,26.1,56.2,30.5,56.2,30.5z"/>
		</g>
		<g>
			<path class="st12" d="M56.2,30.5c0,0-4.8-1.4-7.2,0.7c-2.3,2-4.8,3-7,1.1c-2.2-1.9-2.2-2.9,0.2-4.3c2.4-1.4,12.3-3.6,13.6-2.7
				C57.3,26.1,56.2,30.5,56.2,30.5z"/>
		</g>
		<g>
			<path class="st13" d="M56.2,30.5c0,0-4.4-2-6.8,0c-2.3,2-4.9,3-7.1,1c-2.2-1.9-2.4-2.2,0-3.6c2.4-1.4,12.3-3.6,13.6-2.7
				C57.3,26.1,56.2,30.5,56.2,30.5z"/>
		</g>
		<g>
			<path class="st14" d="M45.1,34.2c-1.2,0-2.4-0.5-3.5-1.4c-1.1-1-1.6-1.9-1.5-2.7c0.1-0.8,0.7-1.5,2-2.3c2.1-1.2,9.5-2.9,12.5-2.9
				c0.6,0,1.1,0.1,1.3,0.2c1.4,0.9,0.5,5,0.4,5.5l0,0.1l-0.3,0c-0.8,0-5,0.1-7.1,1.9C47.8,33.6,46.4,34.2,45.1,34.2z M54.7,25.2
				c-3,0-10.3,1.7-12.3,2.9c-1.2,0.7-1.8,1.3-1.9,2c-0.1,0.7,0.4,1.4,1.4,2.4c1,0.9,2.1,1.3,3.2,1.3c1.2,0,2.5-0.5,3.6-1.5
				c2.1-1.9,6.3-2,7.3-2c0.3-1.3,0.8-4.3-0.2-4.9C55.7,25.3,55.4,25.2,54.7,25.2z"/>
		</g>
	</g>
	<g>
		<path class="st15" d="M46.9,27.6c0,0-4.1,1.1-4.2,2.4c-0.1,1.4,2.7,1.9,3.3,1.7c1.1-0.3,3-2.6,5.7-3.5
			C49.3,27.3,46.9,27.6,46.9,27.6z"/>
		<path class="st14" d="M45.7,32L45.7,32c-0.8,0-2.2-0.3-2.9-1c-0.3-0.3-0.4-0.6-0.3-0.9c0.2-1.5,3.9-2.5,4.4-2.6c0,0,0.4,0,0.9,0
			c1,0,2.5,0.1,4,0.7l0.5,0.2l-0.5,0.2c-1.5,0.5-2.8,1.5-3.8,2.3c-0.8,0.6-1.4,1.1-1.9,1.2C46,31.9,45.9,32,45.7,32z M47.8,27.7
			c-0.5,0-0.8,0-0.8,0C45.9,28,43,29,42.9,30c0,0.2,0.1,0.4,0.2,0.6c0.5,0.6,1.9,0.9,2.6,0.9l0,0c0.1,0,0.2,0,0.3,0
			c0.4-0.1,1.1-0.6,1.8-1.1c0.9-0.7,2.1-1.6,3.4-2.2C49.9,27.8,48.6,27.7,47.8,27.7z"/>
	</g>
	<g>
		<path class="st11" d="M57.3,24.7c-2.4-1-2.8-3.9-6-3.8c-3.2,0.1-2.8,2.9-7.8,2.7c-1.2-1.2-3.9-2.4-5.5-0.2c-1.5,2,2.3,4.9,6.8,5.8
			c4.5,0.9,9.9-1.5,11.3-2.3l0.2,3.6c0,0,0.1-2,1.7-2.5C59.6,27.4,59.7,25.7,57.3,24.7z"/>
		<path class="st12" d="M57.3,24.7c-2.4-1-2.8-3.9-6-3.8c-3.2,0.1-2.8,2.9-7.8,2.7c-1.2-1.2-3.9-2.4-5.5-0.2c-1.5,2,2.1,4.2,6.7,5.1
			c4.5,0.9,10.1-0.8,11.4-1.6l0.2,3.6c0,0,0.1-2,1.7-2.5C59.6,27.4,59.7,25.7,57.3,24.7z"/>
		<path class="st13" d="M57.3,24.7c-2.4-1-2.8-3.9-6-3.8c-3.2,0.1-2.8,2.9-7.8,2.7c-1.2-1.2-3.9-2.4-5.5-0.2c-1.5,2,2.5,3.5,7,4.5
			c4.5,0.9,9.7-0.1,11.1-1l0.2,3.6c0,0,0.1-2,1.7-2.5C59.6,27.4,59.7,25.7,57.3,24.7z"/>
		<path class="st11" d="M43.8,23.6c0,0-2.3-0.2-2.7,0.1c-0.4,0.3,0.7,1.5,2.9,2C42.7,25.1,40.9,23.9,43.8,23.6z"/>
		<g>
			<path class="st14" d="M56.4,30.5l-0.4,0c0,0,0.1-2.1,1.9-2.7c0.7-0.2,1.1-0.6,1.1-1.1c0-0.7-0.6-1.3-1.8-1.8
				c-1-0.4-1.7-1.1-2.4-1.9c-0.9-1-1.8-2-3.6-1.9c-1.3,0-2,0.5-2.8,1.1c-1,0.8-2.2,1.7-5.1,1.5l-0.1,0l-0.1-0.1
				c-0.7-0.7-2-1.4-3.3-1.3c-0.8,0.1-1.5,0.4-2,1.1c-0.3,0.4-0.4,0.9-0.2,1.4c0.6,1.7,3.6,3.4,6.9,4.1c4.6,0.9,10.1-1.6,11.2-2.3
				c0,0-2.8,1.9-5.6,2.5c-1.8,0.4-3.8,0.6-5.7,0.2c-3.5-0.7-6.5-2.5-7.1-4.3c-0.2-0.7-0.2-1.3,0.2-1.8c0.6-0.8,1.3-1.2,2.3-1.3
				c1.3-0.1,2.7,0.6,3.5,1.4c2.7,0.1,3.7-0.7,4.7-1.5c0.8-0.6,1.5-1.2,3-1.2c2,0,2.9,1,3.9,2.1c0.6,0.7,1.3,1.4,2.2,1.8
				c1.3,0.5,2,1.3,2,2.1c0,0.7-0.5,1.2-1.3,1.5C56.5,28.6,56.4,30.5,56.4,30.5z"/>
		</g>
	</g>
	<g>
		<path class="st14" d="M41.8,25c-0.7-0.6-1-0.9-0.9-1.2c0.1-0.4,0.9-0.4,2-0.3c0.2,0,0.4,0,0.6,0v0.4c-0.2,0-0.4,0-0.6,0
			c-0.4,0-1.5-0.1-1.6,0.1c0,0,0,0.2,0.8,0.8c2.1,1.6,7,1.5,7,1.5C49,26.2,43.8,26.5,41.8,25z"/>
	</g>
	<g>
		<ellipse class="st6" cx="59.9" cy="21.9" rx="2.5" ry="3.1"/>
		<path class="st7" d="M59.9,25.2c-1.5,0-2.7-1.5-2.7-3.3c0-1.8,1.2-3.3,2.7-3.3c1.5,0,2.7,1.5,2.7,3.3
			C62.6,23.7,61.4,25.2,59.9,25.2z M59.9,19c-1.3,0-2.3,1.3-2.3,2.9c0,1.6,1.1,2.9,2.3,2.9c1.3,0,2.3-1.3,2.3-2.9
			C62.2,20.3,61.2,19,59.9,19z"/>
	</g>
	<g>
		<ellipse class="st8" cx="60.3" cy="22.3" rx="1.4" ry="1.8"/>
		<path class="st9" d="M61.4,21.3c-0.3-0.5-0.7-0.8-1.2-0.8c-0.8,0-1.4,0.8-1.4,1.8c0,0.4,0.1,0.8,0.3,1.2
			C60.4,23,61.2,22.3,61.4,21.3z"/>
		<path class="st10" d="M60.3,24.3c-0.9,0-1.6-0.9-1.6-2c0-1.1,0.7-2,1.6-2c0.9,0,1.6,0.9,1.6,2C61.9,23.4,61.2,24.3,60.3,24.3z
			 M60.3,20.7c-0.7,0-1.2,0.7-1.2,1.6c0,0.9,0.5,1.6,1.2,1.6c0.7,0,1.2-0.7,1.2-1.6C61.5,21.4,61,20.7,60.3,20.7z"/>
	</g>
	<g>
		<ellipse cx="60.3" cy="22.3" rx="0.8" ry="1"/>
	</g>
	<g>
		<path class="st1" d="M58.6,90.4c0,0-2.3-0.3-4.1-0.1l0-0.4C56.3,89.8,58.6,90.4,58.6,90.4z"/>
	</g>
	<g>
		<path class="st1" d="M55,92.4l-0.1-0.4c1.4-0.4,3.8-0.1,3.8-0.1C58.6,91.9,56.3,92,55,92.4z"/>
	</g>
	<circle class="st6" cx="59.8" cy="21.9" r="0.6"/>
	<circle class="st6" cx="50.8" cy="18.9" r="0.5"/>
	<ellipse class="st6" cx="50.3" cy="19.6" rx="0.3" ry="0.3"/>
	<ellipse class="st6" cx="59.5" cy="22.7" rx="0.2" ry="0.2"/>
</g>
</svg>
