<?xml version="1.0" encoding="utf-8"?>
<!-- Generator: Adobe Illustrator 21.0.2, SVG Export Plug-In . SVG Version: 6.00 Build 0)  -->
<svg version="1.1" id="Слой_1" xmlns="http://www.w3.org/2000/svg" xmlns:xlink="http://www.w3.org/1999/xlink" x="0px" y="0px"
	 viewBox="0 0 70 70" style="enable-background:new 0 0 70 70;" xml:space="preserve">
<style type="text/css">
	.st0{fill-rule:evenodd;clip-rule:evenodd;fill:url(#SVGID_1_);}
	.st1{fill-rule:evenodd;clip-rule:evenodd;fill:url(#SVGID_2_);}
	.st2{fill-rule:evenodd;clip-rule:evenodd;fill:url(#SVGID_3_);}
	.st3{fill-rule:evenodd;clip-rule:evenodd;fill:url(#SVGID_4_);}
	.st4{fill-rule:evenodd;clip-rule:evenodd;fill:#201600;}
	.st5{fill-rule:evenodd;clip-rule:evenodd;fill:#FFFFFF;}
	.st6{fill-rule:evenodd;clip-rule:evenodd;fill:#505258;}
	.st7{fill-rule:evenodd;clip-rule:evenodd;fill:url(#SVGID_5_);}
	.st8{fill-rule:evenodd;clip-rule:evenodd;fill:url(#SVGID_6_);}
	.st9{fill-rule:evenodd;clip-rule:evenodd;fill:url(#SVGID_7_);}
	.st10{fill-rule:evenodd;clip-rule:evenodd;fill:#969CA7;}
	.st11{fill-rule:evenodd;clip-rule:evenodd;fill:url(#SVGID_8_);}
</style>
<g>
	<linearGradient id="SVGID_1_" gradientUnits="userSpaceOnUse" x1="6.9707" y1="34.7715" x2="64.2852" y2="34.7715">
		<stop  offset="0" style="stop-color:#E59C44"/>
		<stop  offset="1" style="stop-color:#D66744"/>
	</linearGradient>
	<path class="st0" d="M22.5,40.4c-0.2,1.9-0.6,4-0.3,6c0.3,1.6,1.4,3.5,0.8,4.7c-0.5,1.1-2.3,1.6-2.7,2.8c-0.8,2.5,1.8,4.7,4.3,4.2
		c1.1,6.3,10.3,4.1,11.3-1.6c0.9,0.1,2.3,0.2,3.4-0.2c0,0.3-0.3,0.9-0.4,1.3c1,2.5,3.6,3.4,6,2.8c2.4-0.6,4-2.8,4.2-5.5
		c1.4,1,3.3,1.5,5.3,1.6c3.3,0.1,8.3-1.9,9.9-5.1c-2.2-5.4-7.3-7.8-11-8.2c-2.1-0.2-4.1,0.2-5.7,1.2c-0.7-2.1-2-3.7-4-4.5
		c2.8-0.9,7.4-1.6,9.8-3c-4.3-3-5.9-8-7-12.3c2.1-2.5,3.2-7.5,1.2-11.2c-3.2-0.4-7.5-1.1-10.1,1.5c-2.1-1.4-6.3-4.1-10.6-3
		c-1.7-1.8-3.3-3.7-6.1-4.5c-1.7,1.9-3,4.7-2,7.9c-1.8,2.8-5.3,6.5-11.9,5.3c3.8,3.9,6.1,12.9,10.2,16.6
		C18.4,38.4,20.4,39.8,22.5,40.4L22.5,40.4z"/>
	<linearGradient id="SVGID_2_" gradientUnits="userSpaceOnUse" x1="9.4727" y1="24.8464" x2="50.0322" y2="24.8464">
		<stop  offset="0" style="stop-color:#F0BF45"/>
		<stop  offset="1" style="stop-color:#DC7F44"/>
	</linearGradient>
	<path class="st1" d="M19.3,15c0.1-0.1,1.4-0.2,1.3,0.1c-3.2,2.7-5.4,7.7-11.2,6.9c2.2,2.8,3.4,7.2,5.4,10.8c1.9,3.6,5,5.9,8.9,7
		c6.2,1.8,14.9,0.8,20.4-1.2c1.3-0.3,4.6-1.2,5.9-1.8c-4.5-3.8-3.8-9.6-5.7-13.3c0.1-0.3,0.4-0.3,0.6-0.1c1.6-1.1,3.1-4.1,2.3-8.4
		c-3.9-1.3-7.3-0.5-10,1.6c-1.4-2.7-6.7-4.6-10.2-3.4c-1.2-1.6-2.7-3.3-4.3-4c0.5,1.4,2.3,2.6,2.2,4.7C23.6,12,23,9.7,20.7,9
		C19.7,10.6,18.8,12.6,19.3,15L19.3,15z"/>
	<linearGradient id="SVGID_3_" gradientUnits="userSpaceOnUse" x1="23.0686" y1="50.8343" x2="62.7695" y2="50.8343">
		<stop  offset="0" style="stop-color:#F0BF45"/>
		<stop  offset="1" style="stop-color:#DC7F44"/>
	</linearGradient>
	<path class="st2" d="M23.5,40.9c-1.2,4.4-0.1,10.7,4.1,12.4c0.1-1-0.2-1.8,0.1-2.5c0.6,0.8,0.6,2.1,0.5,2.8c-0.3,2.3-2.6,2.7-3,4.2
		c-0.5,2,2.2,3.3,4.1,3.2c4.2-0.2,6.3-4.4,6.1-9c0.7,0.7,0.4,2.3,0.6,3.4c2.5-0.1,5.2-0.7,5.7-3c1.8,2.1-1.8,2.9-1.6,5.2
		c0.1,1.2,1.4,1.8,2.7,1.9c2,0.2,4.2-1.2,4.9-2.7c1.3-2.7-0.3-5.5-0.4-7.8c0.9,0.7,1.3,2,1.4,3.5c2.2,4.9,11.7,3.2,13.9-0.9
		c-0.8-1.5-1.6-2.9-2.7-4c-1.5-1.5-4.4-3.1-7.3-3.4c-1.8-0.2-4.2,0.3-5.5,1.5c-0.6-1.9-1.5-4.1-3.5-4.8c-1.4-0.5-3.1-0.3-4.8,0
		C34.5,41.7,27.8,42.7,23.5,40.9L23.5,40.9z"/>
	<linearGradient id="SVGID_4_" gradientUnits="userSpaceOnUse" x1="21.0317" y1="54.3719" x2="26.8613" y2="54.3719">
		<stop  offset="0" style="stop-color:#F0BF45"/>
		<stop  offset="1" style="stop-color:#DC7F44"/>
	</linearGradient>
	<path class="st3" d="M23.9,51.3c-0.2,1.5-2.6,1.9-2.8,3.3c-0.3,1.8,1.8,3.3,3.5,2.7c0.6-0.9,1.5-1.5,2.3-2.3
		C25.7,53.9,24.6,52.8,23.9,51.3L23.9,51.3z"/>
	<path class="st4" d="M27.6,25.1c-0.6-0.9-2.5-2-4.3-1.6c0.2-1,0.4-2.2,1.3-2.4c0.9-0.2,1.4,0.6,1.2,1.7c0.2-0.5,0.6-1.4,1.4-1.8
		c0.8-0.4,2-0.3,2.1,0.7C29.5,22.7,28.6,24.3,27.6,25.1L27.6,25.1z"/>
	<path class="st5" d="M27.9,21.1c1.6-0.4,1.5,1.3,0.7,2.1C29,22.2,29.1,21.3,27.9,21.1L27.9,21.1z"/>
	<path class="st6" d="M26.8,21.6c-0.3,0.3-0.8,1-1,1.8c0.4-0.1,1.7,1,1.5,1.1c-0.1-0.6-0.7-1.1-0.8-1.6
		C26.5,22.6,26.7,22.1,26.8,21.6L26.8,21.6z"/>
	<path class="st6" d="M24.1,21.6c-0.3,0.2-0.5,1.1-0.5,1.6c0.3-0.1,1.3-0.1,1.2,0c-0.3-0.3-0.7-0.1-0.8-0.6C24,22.3,24,22,24.1,21.6
		L24.1,21.6z"/>
	<path class="st5" d="M28.2,21.7c0.3,0.1,0.4,0.3,0.3,0.6c-0.1,0.3-0.3,0.4-0.6,0.4c-0.3-0.1-0.4-0.3-0.3-0.6
		C27.6,21.8,27.9,21.6,28.2,21.7L28.2,21.7z"/>
	<path class="st5" d="M25.1,21.6c0.2,0,0.3,0.2,0.2,0.4c0,0.2-0.2,0.3-0.4,0.3c-0.2,0-0.3-0.2-0.2-0.4
		C24.7,21.7,24.9,21.6,25.1,21.6L25.1,21.6z"/>
	<path class="st5" d="M39.7,45.7c0.6,0.2,1,0.8,0.8,1.5c-0.2,0.6-0.8,1-1.5,0.8c-0.6-0.2-1-0.8-0.8-1.5
		C38.4,45.9,39.1,45.5,39.7,45.7L39.7,45.7z"/>
	<path class="st5" d="M39.6,50.7c0.6,0.2,0.9,0.7,0.8,1.3c-0.2,0.6-0.7,0.9-1.3,0.8c-0.6-0.2-0.9-0.7-0.8-1.3
		C38.4,50.9,39,50.6,39.6,50.7L39.6,50.7z"/>
	<path class="st5" d="M42.3,47.6c0.4,0.1,0.6,0.5,0.5,0.9c-0.1,0.4-0.5,0.6-0.9,0.5c-0.4-0.1-0.6-0.5-0.5-0.9
		C41.5,47.8,41.9,47.5,42.3,47.6L42.3,47.6z"/>
	<path class="st5" d="M34.8,31.7c0.4,0,0.7,0.3,0.7,0.7s-0.3,0.7-0.7,0.7s-0.7-0.3-0.7-0.7S34.4,31.7,34.8,31.7L34.8,31.7z"/>
	<path class="st5" d="M34.3,28.3c0.5,0,0.9,0.4,0.9,0.9s-0.4,0.9-0.9,0.9s-0.9-0.4-0.9-0.9S33.8,28.3,34.3,28.3L34.3,28.3z"/>
	<path class="st5" d="M37.1,30.7c0.2,0,0.4,0.2,0.4,0.4c0,0.2-0.2,0.4-0.4,0.4c-0.2,0-0.4-0.2-0.4-0.4
		C36.7,30.9,36.9,30.7,37.1,30.7L37.1,30.7z"/>
	<path class="st5" d="M16.7,29.2c-2.5,0-2.6,2.1-1.6,3.9c1.9,3.4,4.9,5.6,8.7,6.7c3.2,1,5.4,1,9.2,0.7l1.7-1.7
		c3.9-4-5.1-8.5-8.9-8.1c-0.7,0.1-4.4,0.8-4.4,0.8L16.7,29.2L16.7,29.2z"/>
	<path class="st5" d="M54.3,44.6c1.4,1.4,2.4,3,2.4,5.2c0,2.4-1.2,4.3-3.2,5.7c3.5,0.4,7.8-1.3,9.2-3.9c-0.8-1.5-1.6-2.9-2.7-4
		C58.8,46.4,56.7,45.1,54.3,44.6L54.3,44.6z"/>
	<linearGradient id="SVGID_5_" gradientUnits="userSpaceOnUse" x1="20.7637" y1="37.1231" x2="38.6055" y2="37.1231">
		<stop  offset="0" style="stop-color:#DD8144"/>
		<stop  offset="1" style="stop-color:#AE6446"/>
	</linearGradient>
	<path class="st7" d="M20.8,38.9c6.6,2.1,12.3,2.9,17.8-6c-1.3,3.8-2.9,6.6-6.7,8.4C28,41.8,23.5,40.7,20.8,38.9L20.8,38.9z"/>
	<linearGradient id="SVGID_6_" gradientUnits="userSpaceOnUse" x1="35.8447" y1="33.9866" x2="39.2381" y2="33.9866">
		<stop  offset="0" style="stop-color:#DD8144"/>
		<stop  offset="0.989" style="stop-color:#AA5E44"/>
	</linearGradient>
	<path class="st8" d="M35.8,34.1c2.1-0.9,2.2-0.8,3.3,1.2c0.2-1.3,0-1.9-0.4-2.3C37.9,32.3,36.6,33.1,35.8,34.1L35.8,34.1z"/>
	<linearGradient id="SVGID_7_" gradientUnits="userSpaceOnUse" x1="18.7831" y1="37.5379" x2="24.9824" y2="37.5379">
		<stop  offset="0" style="stop-color:#DD8144"/>
		<stop  offset="1" style="stop-color:#AE6446"/>
	</linearGradient>
	<path class="st9" d="M18.8,34.4c-0.1,4.3,3,5.8,6.2,6.3c-0.2,0.1-3.2-1-4.6-2.8c-0.6-0.7-1-2.3-0.8-3.3L18.8,34.4L18.8,34.4z"/>
	<path class="st4" d="M22.9,27.7c2.2,1.4,2.8,3.9,1.5,5.6c-1.4,1.7-4.2,2-6.4,0.6c-2.2-1.4-2.8-3.9-1.5-5.6
		C17.9,26.6,20.8,26.3,22.9,27.7L22.9,27.7z"/>
	<path class="st6" d="M22.1,28.2c1.8,1.1,2.3,3.1,1.2,4.5c-1.1,1.4-3.4,1.6-5.2,0.5c-1.8-1.1-2.3-3.1-1.2-4.5
		C18.1,27.3,20.4,27.1,22.1,28.2L22.1,28.2z"/>
	<path class="st10" d="M17,28.6c0.4,2.7,3.9,4.2,6.5,1c-0.3-0.5-0.8-1-1.4-1.4C20.4,27.1,18.2,27.3,17,28.6L17,28.6z"/>
	<path class="st5" d="M17.4,28.6c1.2-1.4,4.3-1.1,5.6,0.8C20.7,28.2,19.3,28.2,17.4,28.6L17.4,28.6z"/>
	<path class="st5" d="M24.6,13.4c-1.8,2.2-4.3,1.9-5.3,1.6c-0.5-2.4,0.4-4.4,1.4-6C22.8,9.6,23.5,11.7,24.6,13.4L24.6,13.4z"/>
	<path class="st5" d="M40,16.6l-0.8,0.8c0,2.1,2.4,4,4.9,4.4c1.1-2.1,2-3.8,1.6-6.2c0,0-1.7-0.3-2.1-0.3c-1.5,0-2.2,0.3-3.4,1
		L40,16.6L40,16.6z"/>
	<linearGradient id="SVGID_8_" gradientUnits="userSpaceOnUse" x1="39.373" y1="18.45" x2="46.3124" y2="18.45">
		<stop  offset="0" style="stop-color:#DD8144"/>
		<stop  offset="1" style="stop-color:#D66744"/>
	</linearGradient>
	<path class="st11" d="M39.4,17.7c1.3-1.4,3.9-2.9,5.9-1.7c0.6,2.8-1.5,4.8-1.1,5.8c1.4-1.1,2.2-3.5,2-6
		C44.1,14.2,39.6,15.2,39.4,17.7L39.4,17.7z"/>
	<path class="st5" d="M24.4,18.6c0.3-1.3,0.8-3.6,2.5-2.2C25.3,16.5,25,17.3,24.4,18.6L24.4,18.6z"/>
	<path class="st5" d="M31.7,16.3c1,0.9,0.1,2.7-1.4,4.5c0.1-1.1,0-1.9-0.2-3c-1.5-0.6-1.5-1.1-0.6-1.7C30.2,15.7,31,15.7,31.7,16.3
		L31.7,16.3z"/>
	<path class="st5" d="M26.1,41.6c0,0.2,0,0.5,0,0.9c-1.3,4.8,0.6,7.6,1.6,9.2c0,0.5,0.1,1,0,1.6c-4.2-1.8-5.3-8-4.1-12.4
		C24.3,41.2,25.2,41.4,26.1,41.6L26.1,41.6z"/>
	<path class="st5" d="M27,55.8c2.2,0.7,4.3,3,3.6,5c-0.4,0.1-0.8,0.2-1.2,0.2c-1.9,0.1-4.6-1.1-4.1-3.2C25.5,57,26.3,56.5,27,55.8
		L27,55.8z"/>
	<path class="st5" d="M23.1,52.6c1.1,0.8,2,1.9,2.1,3c0,0.3,0.1,0.6,0.1,0.9c-0.2,0.3-0.5,0.5-0.7,0.8c-1.8,0.6-3.9-0.9-3.5-2.7
		C21.2,53.7,22.3,53.2,23.1,52.6L23.1,52.6z"/>
	<path class="st5" d="M41.6,54.9c1-0.2,2.1,0.3,3.4,2.1c0.3,0.5,0.6,1.2,0.7,2c-0.8,0.4-1.8,0.7-2.7,0.6c-1.3-0.2-2.6-0.7-2.7-1.9
		C40.2,56.5,41,55.7,41.6,54.9L41.6,54.9z"/>
</g>
</svg>
