<?xml version="1.0" encoding="utf-8"?>
<!-- Generator: Adobe Illustrator 21.0.2, SVG Export Plug-In . SVG Version: 6.00 Build 0)  -->
<svg version="1.1" id="Слой_1" xmlns="http://www.w3.org/2000/svg" xmlns:xlink="http://www.w3.org/1999/xlink" x="0px" y="0px"
	 viewBox="0 0 130 114" style="enable-background:new 0 0 130 114;" xml:space="preserve">
<style type="text/css">
	.st0{fill:#B30202;}
	.st1{fill:#C10202;}
	.st2{fill:#D10202;}
	.st3{fill:#950202;}
	.st4{fill:#F3AB13;}
	.st5{fill:#F3BA13;}
	.st6{fill:#F3C913;}
	.st7{fill:#F39513;}
	.st8{fill:#DDDDDB;}
	.st9{fill:#EBECE6;}
	.st10{fill:#FFFFFF;}
	.st11{fill:#B7B7B6;}
	.st12{fill:#AE0202;}
	.st13{fill:#FF9001;}
	.st14{fill:#FFA101;}
	.st15{fill:#FFB001;}
	.st16{fill:#FF7503;}
	.st17{fill:#069AFC;}
	.st18{fill:#067CFC;}
	.st19{fill:#086AF9;}
</style>
<g>
	<g>
		<path class="st0" d="M82.3,29.8c0,0,2.8-2.4,2.5-5.4c-0.3-3-3.6-4.1-4.9-2.5c-1.3,1.6-2.5,2.3-3.4,1c-0.9-1.3-2.9-1.3-3.4-0.3
			c-0.5,1-0.1,2.3-1.9,1.9c-1.9-0.4-2.5-0.4-2.5,1c0,1.4-0.1,1.5-1.4,1.7c-1.3,0.2-2.1,1.1-1.6,1.6c0.5,0.5,0.2,1.3-0.6,2
			c-0.9,0.7,1.9,2.3,2.9,2.3C69,33.1,82.3,29.8,82.3,29.8z"/>
		<path class="st1" d="M82.3,29.8c0,0,2.8-2.4,2.5-5.4c-0.3-3-2.9-3-4.2-1.4c-1.3,1.6-3,2.1-3.9,0.8c-0.9-1.3-2.4-1.5-2.9-0.5
			c-0.5,1,0.3,2.2-1.6,1.7c-1.9-0.4-2.9-0.5-2.9,0.9c0,1.4,0.4,1.3-0.9,1.5c-1.3,0.2-2.3,1-1.8,1.5c0.5,0.5,0.4,0.9-0.5,1.6
			c-0.8,0.7,0.8,2.6,1.9,2.6C69,33.1,82.3,29.8,82.3,29.8z"/>
		<path class="st2" d="M82.3,29.8c0,0,2.8-2.4,2.5-5.4c-0.3-3-3.1-2.1-4.4-0.5c-1.3,1.6-3.1,2-4,0.6c-0.9-1.3-1.8-1.3-2.3-0.3
			c-0.5,1-0.1,1.9-1.9,1.5c-1.9-0.4-2.6-0.8-2.6,0.6c0,1.4,0.2,1.6-1.2,1.8c-1.3,0.2-1.9,0.8-1.4,1.3c0.5,0.5,0.5,0.8-0.3,1.5
			c-0.9,0.7,0.2,2.1,1.2,2.1C69,33.1,82.3,29.8,82.3,29.8z"/>
		<path class="st3" d="M64.6,31.4c-0.1-0.3,0-0.5,0.2-0.7c0.5-0.4,0.8-0.8,0.8-1.2c0-0.2,0-0.4-0.2-0.5c-0.2-0.2-0.3-0.5-0.2-0.8
			c0.2-0.5,0.9-1,1.9-1.2c1.2-0.2,1.3-0.2,1.3-1.5c0-0.7,0.1-1.4,1.2-1.4c0.4,0,0.9,0.1,1.6,0.3c0.2,0.1,0.4,0.1,0.6,0.1
			c0.6,0,0.7-0.3,0.8-0.9c0.1-0.3,0.1-0.6,0.3-0.9c0.3-0.5,0.9-0.8,1.6-0.8c0.9,0,1.7,0.4,2.2,1.1c0.3,0.4,0.6,0.6,0.9,0.6
			c0.6,0,1.3-0.5,2.2-1.6c0.4-0.5,1.1-0.8,1.8-0.8c1.5,0,3.3,1.3,3.5,3.4c0.3,3.1-2.5,5.5-2.6,5.6l0,0l-0.1,0
			c-0.5,0.1-13.4,3.3-14.4,3.3C67,33.3,65,32.3,64.6,31.4z M84.6,24.5c-0.2-1.9-1.7-3-3.1-3c-0.6,0-1.1,0.2-1.5,0.7
			c-1,1.2-1.8,1.8-2.5,1.8c-0.5,0-0.9-0.3-1.2-0.8c-0.5-0.7-1.2-0.9-1.8-0.9c-0.6,0-1,0.2-1.2,0.6C73.1,23,73,23.3,73,23.6
			c-0.1,0.6-0.3,1.3-1.2,1.3c-0.2,0-0.4,0-0.7-0.1c-0.6-0.1-1.1-0.2-1.5-0.2c-0.5,0-0.7,0.2-0.7,1c0,1.5-0.2,1.7-1.6,1.9
			c-0.9,0.1-1.4,0.6-1.5,0.9c0,0.1,0,0.3,0.1,0.3c0.2,0.2,0.3,0.5,0.3,0.8c0,0.5-0.4,1-0.9,1.4C65,31,65,31.1,65,31.2
			c0.2,0.7,2.1,1.7,2.9,1.7c0.8,0,9.7-2.1,14.3-3.2C82.5,29.4,84.9,27.1,84.6,24.5z"/>
	</g>
	<g>
		<path class="st4" d="M69.8,77.8l-0.7,7.6c0,0,6.7-1.3,7.6-0.4c0.9,0.8-0.5,1.7-1.4,2c2.2,0.5,3.4,1.3,2.9,2
			c-0.4,0.7-5-0.9-6.7-0.9c2.3,0.7,3,1.6,2.6,2.1c-0.4,0.5-5.8-1.5-7.5-2.1c-1.7-0.6-4.8-2.1-3.7-2.3c1.1-0.1,4.1-0.1,4.1-0.1
			c0.2-1.7,0.5-4.4,0.3-5.7C67.2,78.8,69.8,77.8,69.8,77.8z"/>
		<path class="st5" d="M69.8,77.8l-0.7,7.6c0,0,6.7-1.3,7.6-0.4c0.9,0.8-0.5,1.7-1.4,2c2.2,0.5,3.4,1.3,2.9,2
			c-0.4,0.7-5-0.9-6.7-0.9c2.3,0.7,3,1.6,2.6,2.1c-0.4,0.5-4.8-1.9-6.6-2.5c-1.7-0.6-3.8-1.4-2.7-1.5c1.1-0.1,2.9-0.1,2.9-0.1
			c0.2-1.7,0.5-4.8,0.4-6.1C68,78.8,69.8,77.8,69.8,77.8z"/>
		<path class="st6" d="M69.8,77.8l-0.7,7.6c0,0,6.7-1.3,7.6-0.4c0.9,0.8-0.5,1.7-1.4,2c2.2,0.5,3.4,1.3,2.9,2
			c-0.4,0.7-5-0.9-6.7-0.9c2.3,0.7,3,1.6,2.6,2.1c-0.4,0.5-4.8-1.9-6.6-2.5c-1.7-0.6-3.8-1.4-2.7-1.5c1.1-0.1,3.3,0,3.3,0
			c0.2-1.7,0.1-5,0-6.2C68,78.8,69.8,77.8,69.8,77.8z"/>
		<path class="st7" d="M67.7,88.7c-0.4-0.2-0.8-0.3-1.1-0.4c-0.5-0.2-4.1-1.6-4.1-2.4c0-0.1,0.1-0.3,0.4-0.3c0.9-0.1,3.2-0.1,4-0.1
			c0.2-1.6,0.4-4.2,0.3-5.4c-0.2-1.4,2.3-2.4,2.6-2.5l0.3-0.1l-0.7,7.7c0.9-0.2,3.9-0.7,5.8-0.7c0.9,0,1.4,0.1,1.7,0.3
			c0.4,0.3,0.4,0.6,0.4,0.9c-0.1,0.5-0.7,1-1.3,1.3c1.4,0.4,2.3,0.9,2.5,1.4c0.1,0.3,0.1,0.5,0,0.7c-0.2,0.3-0.5,0.3-0.8,0.3
			c-0.7,0-1.8-0.3-2.9-0.5c-0.5-0.1-1.1-0.2-1.5-0.3c0.7,0.4,1.1,0.8,1.3,1.2c0.1,0.2,0,0.5-0.1,0.7c-0.1,0.1-0.3,0.2-0.5,0.2
			C72.9,90.6,69.7,89.5,67.7,88.7z M74,90.2c0.1-0.1,0.1-0.2,0-0.3c-0.1-0.4-0.9-1-2.5-1.5L70.3,88l1.2-0.1c0.7,0,2,0.3,3.3,0.5
			c1.1,0.2,2.2,0.5,2.8,0.5c0.3,0,0.4-0.1,0.4-0.1c0.1-0.1,0.1-0.2,0-0.4c-0.2-0.4-1-1-2.8-1.3l-0.7-0.1l0.6-0.3
			c0.7-0.3,1.5-0.8,1.6-1.2c0-0.1,0-0.2-0.2-0.5c-0.1-0.1-0.4-0.2-1.4-0.2c-2.2,0-6,0.7-6,0.7l-0.3,0l0.7-7.6
			c-0.8,0.4-2.1,1.1-2,1.9c0.2,1.2-0.1,3.8-0.3,5.7l0,0.2h-0.2c-0.1,0-3,0-4,0.1c0.4,0.4,2.2,1.3,3.7,1.9c0.3,0.1,0.7,0.2,1.1,0.4
			c1.9,0.7,5.1,1.8,6.1,1.8C73.9,90.2,74,90.2,74,90.2C74,90.2,74,90.2,74,90.2z"/>
	</g>
	<g>
		<path class="st7" d="M69.3,86.5c0,0,0-0.4,0-1l-0.4,0C68.8,86.1,69.3,86.5,69.3,86.5z"/>
	</g>
	<g>
		<path class="st7" d="M75.6,87.3l0.1-0.4c-1.5-0.5-5.2,0-5.2,0C70.5,86.9,74.2,86.8,75.6,87.3z"/>
	</g>
	<g>
		<path class="st4" d="M64.9,81.2c0,0-0.1,5.9-0.2,8.3c1.6-0.3,7-0.5,7.3,0.5c0.3,1-3.5,1.2-3.5,1.2c3.6,0.4,6.4,2,5.6,3
			c-0.8,0.9-5.5-1.1-7.8-1.3c2.8,1.2,4.1,2.4,3.4,3c-0.7,0.6-5.7-1.5-7.9-1.7c-2.3-0.2-6.6-0.7-4.4-1.6c2.1-1,5.2-1.6,5.2-1.6
			c0.1-2.5,0.3-8.7-0.1-9.8C62.1,79.9,64.6,79.6,64.9,81.2z"/>
		<path class="st5" d="M64.9,81.2c0,0-0.1,5.9-0.2,8.3c1.6-0.3,7-0.5,7.3,0.5c0.3,1-3.5,1.2-3.5,1.2c3.6,0.4,6.4,2,5.6,3
			c-0.8,0.9-5.5-1.1-7.8-1.3c2.8,1.2,4.1,2.4,3.4,3c-0.7,0.6-5-2.2-7.2-2.4c-2.3-0.2-5.2-0.3-3.1-1.2c2.1-1,4-1.5,4-1.5
			c0.1-2.5-0.2-8.4-0.6-9.5C62.6,80,64.6,79.6,64.9,81.2z"/>
		<path class="st6" d="M64.9,81.2c0,0-0.1,5.9-0.2,8.3c1.6-0.3,7-0.5,7.3,0.5c0.3,1-3.5,1.2-3.5,1.2c3.6,0.4,6.4,2,5.6,3
			c-0.8,0.9-5.5-1.1-7.8-1.3c2.8,1.2,4.1,2.4,3.4,3c-0.7,0.6-4.1-2.4-6.3-2.6c-2.3-0.2-5.3,0-3.2-1c2.1-1,3.6-1.1,3.6-1.1
			c0.1-2.5-0.2-8.5-0.6-9.7C62.9,80.2,64.6,79.6,64.9,81.2z"/>
		<path class="st7" d="M65.6,95.2c-1.4-0.4-2.9-0.9-3.9-1c-3.7-0.4-5.1-0.7-5.2-1.3c-0.1-0.4,0.4-0.6,0.7-0.8
			c1.8-0.8,4.4-1.4,5.1-1.6c0.1-2.8,0.3-8.5-0.1-9.6c-0.1-0.3-0.1-0.5,0.1-0.8c0.2-0.3,0.6-0.5,1.1-0.5c0.7,0,1.5,0.4,1.7,1.3l0,0v0
			c0,0.1-0.1,5.6-0.2,8c0.8-0.1,2.1-0.2,3.3-0.2c2.4,0,3.8,0.3,3.9,0.9c0.1,0.2,0,0.3-0.1,0.5c-0.3,0.4-1.2,0.6-2,0.8
			c2.2,0.5,4,1.4,4.3,2.3c0.1,0.3,0.1,0.6-0.1,0.8c-0.2,0.2-0.5,0.3-0.9,0.3c-0.9,0-2.3-0.4-3.7-0.8c-0.6-0.2-1.2-0.3-1.8-0.5
			c1.1,0.6,2.1,1.3,2.2,2c0,0.2-0.1,0.5-0.3,0.6c-0.1,0.1-0.3,0.1-0.6,0.1l0,0C68.6,96.1,67.1,95.6,65.6,95.2z M66.4,92.5
			c0.9,0.1,2.2,0.5,3.4,0.8c1.4,0.4,2.8,0.8,3.6,0.8c0.3,0,0.5-0.1,0.6-0.2c0.1-0.1,0.1-0.2,0-0.4c-0.3-0.8-2.6-1.9-5.5-2.3l0-0.3
			c1.1-0.1,2.9-0.4,3.2-0.9c0-0.1,0-0.1,0-0.1c-0.1-0.2-0.9-0.6-3.5-0.6c-1.3,0-2.8,0.1-3.5,0.2l-0.3,0.1l0-0.3
			c0.1-2.2,0.2-7.8,0.2-8.2c-0.2-0.7-0.8-1-1.3-1c-0.3,0-0.6,0.1-0.7,0.3c-0.1,0.1-0.1,0.2,0,0.4c0.4,1.2,0.2,7.7,0.1,9.9l0,0.2
			l-0.2,0c0,0-3.1,0.6-5.2,1.6C57,92.8,57,92.9,57,92.9l0,0c0.1,0.2,0.8,0.5,4.8,0.9c1,0.1,2.5,0.5,3.9,1c1.5,0.4,2.9,0.8,3.6,0.8
			l0,0c0.2,0,0.3,0,0.3-0.1c0.1-0.1,0.1-0.1,0.1-0.2c-0.1-0.4-1-1.3-3.4-2.4l-1.2-0.5L66.4,92.5z"/>
	</g>
	<g>
		<path class="st7" d="M70,91.6l0.1-0.4c-1-0.3-3.9-0.1-3.9-0.1C66.3,91.1,69,91.3,70,91.6z"/>
	</g>
	<g>
		<path class="st8" d="M83.9,40.5c0,0-0.7,6.2,1.7,10.6c2.4,4.5,4.1,18.1-4.1,25.4C73.1,84.1,63,84.1,55.8,82
			c-7.2-2.1-11.4-8.6-12.3-14.5c-3.8-2.4-5.3-4.5-0.6-3.9c-4.5-1.9-5.5-5.1-0.5-3.5c-4.3-3.2-5.3-7.7,0.2-5.4c-4.5-3-9.4-12,1.3-5.7
			c-5.8-5.7-6.9-12-3.9-11.5c3,0.5,9.2,11.4,14,13.5c4.8,2.1,9-1.1,13.3-1.2c1.3-3.7,0.7-7.8-0.4-12.4c-1.1-4.6,0.9-9.5,6.9-11.2
			c6-1.8,12.2,3,11.6,7.9C84.9,39.1,83.9,40.5,83.9,40.5z"/>
		<path class="st9" d="M83.9,40.5c0,0-0.7,6.2,1.7,10.6c2.4,4.5,3.7,17.1-4.5,24.5c-8.4,7.5-16.7,7.4-24,5.3
			c-7.2-2.1-11.3-8-12.2-13.9c-3.8-2.4-4.1-3.2,0.5-2.7c-4.5-1.9-5.5-4.8-0.4-3.1c-4.3-3.2-3.2-6.3,2.3-4.1c-4.5-3-10.5-12,0.2-5.7
			C41.8,45.8,37,37.1,40,37.6c3,0.5,9.2,11.4,14,13.5c4.8,2.1,10.7-0.9,15-0.9c1.3-3.7,0.5-7.9-0.5-12.5c-1.1-4.6-0.6-9.6,5.4-11.4
			c6-1.8,12.2,3,11.6,7.9C84.9,39.1,83.9,40.5,83.9,40.5z"/>
		<path class="st10" d="M83.9,40.5c0,0-0.7,6.2,1.7,10.6c2.4,4.5,3.8,16.3-4.4,23.7c-8.4,7.5-16.6,7.4-23.8,5.3
			c-7.2-2.1-10-7-10.9-12.9c-3.8-2.4-3.5-2.8,1.2-2.2c-4.5-1.9-4.7-4.2,0.3-2.6c-4.3-3.2-1.8-6,3.7-3.8c-4.5-3-11.1-11-0.4-4.7
			C45.4,48.3,37,37.1,40,37.6c3,0.5,9.2,11.4,14,13.5c4.8,2.1,11.6-0.4,15.9-0.5c1.3-3.7,0.6-7.8-0.4-12.3c-1.1-4.6-1.6-10.2,4.3-12
			c6-1.8,12.2,3,11.6,7.9C84.9,39.1,83.9,40.5,83.9,40.5z"/>
		<path class="st11" d="M55.7,82.2c-7.8-2.3-11.6-9.2-12.4-14.5c-1.8-1.1-3.8-2.7-3.5-3.6c0.1-0.5,0.8-0.7,2-0.7
			c-1.9-1-3.1-2.3-2.9-3.1c0.1-0.3,0.3-0.7,1.3-0.7c0.4,0,0.8,0.1,1.3,0.2c-2-1.7-3.2-3.7-2.8-4.9c0.1-0.4,0.5-0.9,1.5-0.9
			c0.4,0,0.8,0.1,1.3,0.2c-2.3-2-4.6-5.3-4.1-6.8c0.1-0.4,0.4-0.8,1.2-0.8c0.9,0,2.3,0.5,4.2,1.5c-3.6-4-5.1-8.2-4.4-9.9
			c0.3-0.7,0.9-1,1.7-0.9c1.5,0.3,3.6,2.8,6.1,5.8c2.6,3.1,5.5,6.6,8,7.7c1.1,0.5,2.2,0.7,3.4,0.7c1.7,0,3.4-0.5,5.1-1
			c1.5-0.4,3.1-0.9,4.6-0.9c1.2-3.4,0.7-7.2-0.4-12.1c-0.9-4.1,0.3-9.5,7-11.5c0.9-0.3,1.8-0.4,2.7-0.4c2.8,0,5.5,1.2,7.4,3.3
			c1.4,1.6,2.1,3.4,1.8,5.2c-0.5,4.5-1.4,6.1-1.5,6.4c-0.1,0.6-0.6,6.3,1.7,10.5c2.7,5,3.7,18.6-4.2,25.7c-4.9,4.4-11,6.7-17.5,6.7
			c0,0,0,0,0,0C61.3,83.4,58.5,83,55.7,82.2z M73.9,26.5c-6.4,1.9-7.6,7.1-6.7,11c1.2,5.1,1.6,8.9,0.3,12.5l-0.1,0.1h-0.1
			c-1.6,0-3.1,0.5-4.7,0.9c-1.7,0.5-3.4,1-5.2,1c-1.3,0-2.4-0.2-3.5-0.7c-2.6-1.1-5.5-4.7-8.1-7.8c-2.3-2.8-4.5-5.5-5.9-5.7
			c-0.6-0.1-1,0.1-1.2,0.6c-0.6,1.6,0.8,6.1,5.3,10.5l1.2,1.2l-1.5-0.9c-3-1.8-4.5-2.2-5.2-2.2c-0.7,0-0.8,0.3-0.8,0.5
			c-0.4,1.4,2.3,5.3,5,7.1l1.7,1.2L42.5,55c-1.9-0.8-3.2-0.8-3.5,0c-0.3,1,0.9,3.2,3.5,5l1.1,0.8l-1.2-0.4c-0.9-0.3-1.6-0.4-2.2-0.4
			c-0.3,0-0.8,0-0.9,0.4c-0.1,0.6,1.1,2,3.7,3.1l1.4,0.6l-1.5-0.2c-1.6-0.2-2.6-0.1-2.7,0.3c-0.1,0.4,0.7,1.5,3.4,3.2l0.1,0.1l0,0.1
			c0.8,5.2,4.5,12,12.1,14.3c2.7,0.8,5.5,1.2,8.3,1.2c0,0,0,0,0,0c6.5,0,12.4-2.3,17.2-6.6c8.3-7.4,6.3-21.2,4.1-25.2
			c-2.4-4.5-1.7-10.7-1.7-10.8l0-0.1c0,0,0.9-1.5,1.5-6.3c0.2-1.7-0.4-3.4-1.7-4.9c-1.8-2-4.4-3.1-7.1-3.1
			C75.6,26.1,74.7,26.3,73.9,26.5z"/>
	</g>
	<g>
		<path class="st12" d="M87.1,36.1c0,0-0.6,1.6,0.3,4.6c0.9,2.9,1.3,6.9-3,7c-4.3,0.1-5.6-3.3-4.6-6.4c1-3.1,2.6-4.6,2.6-5.6
			C82.3,34.8,87.1,36.1,87.1,36.1z"/>
		<path class="st1" d="M87.1,36.1c0,0-0.6,1.6,0.3,4.6c0.9,2.9,1.3,6.9-3,7c-4.3,0.1-3.3-4.3-2.3-7.4c1-3.1,1.9-4.4,1.8-5.4
			C83.8,34,87.1,36.1,87.1,36.1z"/>
		<path class="st2" d="M87.1,36.1c0,0-0.6,1.6,0.3,4.6c0.9,2.9,1.3,6.9-3,7c-4.3,0.1-1.7-5.3-0.7-8.4c1-3.1,0.2-3.4,0.2-4.3
			C83.8,34,87.1,36.1,87.1,36.1z"/>
		<path class="st3" d="M80.1,46.1c-0.9-1.2-1.1-3-0.5-4.8c0.5-1.7,1.3-2.9,1.8-3.8c0.4-0.8,0.8-1.3,0.8-1.7c0-0.1,0-0.2,0.1-0.3
			c0.2-0.2,0.4-0.2,0.9-0.2c1.4,0,3.9,0.7,4,0.7l0.2,0.1l-0.1,0.2c0,0-0.5,1.6,0.3,4.4c0.8,2.7,0.7,4.7-0.2,5.9
			c-0.6,0.9-1.7,1.3-3.1,1.3l-0.1,0h0C81.9,47.9,80.7,46.9,80.1,46.1z M83.2,35.6c-0.5,0-0.6,0.1-0.6,0.1c0,0.5-0.3,1.1-0.8,1.9
			c-0.5,0.9-1.2,2.1-1.8,3.7c-0.5,1.7-0.4,3.3,0.4,4.4c0.8,1.1,2.1,1.6,3.8,1.6h0h0.1c1.3,0,2.2-0.4,2.8-1.2c0.8-1.1,0.8-3,0.1-5.6
			c-0.7-2.4-0.5-3.9-0.3-4.5C86.2,36.1,84.3,35.6,83.2,35.6z"/>
	</g>
	<g>
		<path class="st13" d="M80.1,34.9c0,0,1.5,3.6,6.1,2.5c4.6-1.1,7.4-1.9,8.7-1.5C92.1,34.1,85.3,33.5,80.1,34.9z"/>
		<path class="st14" d="M80.1,34.9c0,0,1.5,2.4,6.1,1.4c4.6-1.1,5.5-1.6,6.7-1.3C90.1,33.1,85.3,33.5,80.1,34.9z"/>
		<path class="st15" d="M80.1,34.9c0,0,1.6,1.9,6.2,0.8c4.6-1.1,5.4-1.1,6.6-0.7C90.1,33.1,85.3,33.5,80.1,34.9z"/>
		<path class="st16" d="M79.9,35l-0.1-0.2l0.2-0.1c1.9-0.5,4.2-0.8,6.4-0.8c3.6,0,6.8,0.7,8.5,1.9l1.1,0.8l-1.3-0.4
			c-0.2-0.1-0.4-0.1-0.7-0.1c-1.2,0-3.2,0.5-5.9,1.1c-0.6,0.1-1.3,0.3-1.9,0.5c-0.6,0.1-1.1,0.2-1.7,0.2C81.1,37.9,79.9,35,79.9,35z
			 M86.4,34.4c-2.1,0-4.2,0.2-6.1,0.7c0.4,0.6,1.6,2.4,4.2,2.4c0.5,0,1-0.1,1.6-0.2c0.7-0.2,1.3-0.3,1.9-0.5
			c2.6-0.6,4.6-1.1,5.8-1.1C92.2,34.8,89.5,34.4,86.4,34.4z"/>
	</g>
	<g>
		<path class="st13" d="M79.5,34.8c0,0,2.3,1.5,5.8,0.7c3.6-0.9,7.7,0.1,10.5,1.4c0.4-2.9-5.6-5.7-10.5-5
			C83.1,33.4,80.7,34.9,79.5,34.8z"/>
		<path class="st14" d="M79.5,34.8c0,0,2.4,0.3,6-0.6c3.6-0.9,8.4,0.8,10.3,2.7c0.4-2.9-5.6-5.7-10.5-5
			C83.1,33.4,80.7,34.9,79.5,34.8z"/>
		<path class="st15" d="M79.5,34.8c0,0,2.9-0.7,6.5-1.6c3.6-0.9,7.9,1.8,9.8,3.7c0.4-2.9-5.6-5.7-10.5-5
			C83.1,33.4,80.7,34.9,79.5,34.8z"/>
		<path class="st16" d="M95.7,37c-2.3-1.1-5-1.7-7.4-1.7c-1,0-2,0.1-2.9,0.3c-0.7,0.2-1.5,0.3-2.2,0.3c-2.3,0-3.7-0.9-3.8-1
			l-0.7-0.5l0.9,0.1c0.1,0,0.1,0,0.2,0l0,0c1.2,0,3.3-1.4,5.5-2.9l0,0l0,0c0.6-0.1,1.1-0.1,1.7-0.1c3.2,0,6.7,1.3,8.2,3.1
			c0.6,0.7,0.9,1.5,0.8,2.3l0,0.3L95.7,37z M85.3,32.1c-1.8,1.2-3.7,2.5-5.1,2.8c0.6,0.3,1.6,0.6,2.9,0.6c0.7,0,1.4-0.1,2.1-0.3
			c0.9-0.2,1.9-0.3,3-0.3c2.4,0,5.1,0.6,7.3,1.6c0-0.5-0.3-1.1-0.8-1.6C93.4,33.2,90,32,86.9,32C86.4,32,85.8,32,85.3,32.1z"/>
	</g>
	<g>
		<circle class="st10" cx="75.5" cy="33.1" r="3.2"/>
		<path class="st11" d="M72.1,33.1c0-1.9,1.5-3.4,3.4-3.4c1.9,0,3.4,1.5,3.4,3.4c0,1.9-1.5,3.4-3.4,3.4C73.7,36.5,72.1,35,72.1,33.1
			z M72.6,33.1c0,1.6,1.3,2.9,3,2.9c1.6,0,2.9-1.3,2.9-2.9c0-1.6-1.3-3-2.9-3C73.9,30.2,72.6,31.5,72.6,33.1z"/>
	</g>
	<g>
		<circle class="st17" cx="75.1" cy="34" r="1.8"/>
		<path class="st18" d="M74.1,32.4c0.3-0.2,0.6-0.3,1-0.3c1,0,1.8,0.8,1.8,1.8c0,0.3-0.1,0.6-0.3,0.9C75.4,34.6,74.3,33.8,74.1,32.4
			z"/>
		<path class="st19" d="M73,34c0-1.1,0.9-2,2-2c1.1,0,2,0.9,2,2c0,1.1-0.9,2-2,2C74,36,73,35.1,73,34z M73.5,34
			c0,0.9,0.7,1.6,1.6,1.6c0.9,0,1.6-0.7,1.6-1.6c0-0.9-0.7-1.6-1.6-1.6C74.2,32.4,73.5,33.1,73.5,34z"/>
	</g>
	<g>
		<circle cx="75.1" cy="34" r="1"/>
	</g>
	<g>
		<path class="st11" d="M69,50.2c0,0-1.3-0.6-2.1-0.5l0,0.4C67.7,50.1,69,50.2,69,50.2z"/>
	</g>
	<g>
		<path class="st8" d="M48.5,54.2c3.3-1.4,12.3,3.4,12.3,3.4l12,0.1c0,0,6.5,1.5,2.9,10.1c-3.6,8.6-13.8,8.1-16.9,7.4
			c-3-0.7-4.3-2.5-0.5-3.8c-3.3,0.4-12.6-3-2.4-4.7c-5.5-1.1-10.4-6,0.1-4.3C48.2,59.8,45.2,55.6,48.5,54.2z"/>
		<path class="st9" d="M48.5,54.2c3.3-1.4,12.3,3.4,12.3,3.4l12,0.1c0,0,6.5,1.5,2.9,10.1c-3.6,8.6-12.3,7.6-15.4,6.9
			c-3-0.7-2.8-2.6,1-3.9c-3.3,0.4-12.4-2.7-2.2-4.4c-5.5-1.1-9.8-4.8,0.7-3.1C52,60.7,45.2,55.6,48.5,54.2z"/>
		<path class="st10" d="M48.5,54.2c3.3-1.4,11.2,2.8,11.2,2.8l13.1,0.7c0,0,6.5,1.5,2.9,10.1c-3.6,8.6-12.3,7.6-15.4,6.9
			c-3-0.7-0.8-3.1,3-4.5c-3.3,0.4-12.1-2-1.9-3.7c-5.5-1.1-9.5-4.2,1-2.5C54.6,61.4,45.2,55.6,48.5,54.2z"/>
		<path class="st11" d="M62.6,75.9c4.5,0,10.7-1.5,13.4-7.9c1.3-3.1,1.5-5.7,0.5-7.6c-1.2-2.2-3.6-2.4-3.6-2.4c0,0,2.2,0.5,3.2,2.6
			c0.9,1.8,0.8,4.3-0.5,7.3c-3.5,8.3-13.2,8-16.6,7.2c-1.6-0.4-2.7-1-2.7-1.7c0-0.6,0.8-1.2,2.2-1.7l1.7-0.6l-1.8,0.2
			c-2.2,0.2-6.6-1.2-6.8-2.4c0-0.4,0.3-1.2,4.5-1.9l1.2-0.2l-1.2-0.2C52.9,65.9,50,64,50.2,63c0.1-0.6,1.7-1,5.9-0.3l1,0.1l-0.9-0.5
			c-5.9-2-8.7-4.7-8.8-6.3c0-0.7,0.4-1.2,1.2-1.5c3.2-1.4,12.1,3.3,12.1,3.4c0,0-8.9-5.2-12.3-3.8C47.2,54.6,47,55.4,47,56
			c0.1,1.9,3.6,4.5,8.1,6.2c-2.8-0.3-5.2-0.2-5.3,0.7c-0.2,1.2,2.3,2.9,5.2,3.8c-2.7,0.5-4,1.3-3.8,2.2c0.2,1.4,3.8,2.6,6.2,2.8
			c-1.3,0.6-1.5,1.3-1.5,1.7c0,0.9,1.2,1.7,3,2.1C59.7,75.7,61.1,75.9,62.6,75.9z"/>
	</g>
	<g>
		<path class="st8" d="M62.6,66.1c-3.6-1.1-3.3-3-0.6-3.7c0,0-2.1-0.1-2.3-1.6c-0.2-1.6,3.5-1.4,3.5-1.4l7.4,12.9
			c-10.7,3.9-10-1.6-6.6-2.3C58.2,69.9,58.9,66.8,62.6,66.1z"/>
		<path class="st9" d="M60.7,60.9c-0.2-1.6,2.6-1.5,2.6-1.5l7.4,12.9c-10.7,3.9-7.3-2-3.9-2.7c-5.9,0-6-2.7-2.3-3.4
			c-3.6-1.1-2.3-3.1,0.4-3.7C64.8,62.3,60.9,62.5,60.7,60.9z"/>
		<path class="st10" d="M63.3,59.3l9.8,12.2c-12.9,4.3-8.6-1.5-5.2-2.1c-5.9,0-6-2.5-2.3-3.2c-3.6-1.1-2.7-3.1,0-3.8
			c0,0-4.2-0.1-4.3-1.7C61.2,59.2,63.3,59.3,63.3,59.3z"/>
		<path class="st11" d="M64.6,73.8c1.3,0,6-1.8,6-1.8c-6,2.2-7.8,1.1-8.2,0.8C62,72.4,62,72,62.1,71.7c0.2-0.8,1-1.4,2-1.6l2.1-0.4
			h-2.1c-2.9,0-4.1-0.8-4.1-1.5c-0.1-0.7,0.9-1.6,2.7-1.9l0.9-0.2l-0.8-0.3c-1.6-0.5-2.5-1.2-2.5-1.9c0-0.6,0.7-1.1,1.9-1.4l1.6-0.4
			l-1.6,0c-0.1,0-1.9-0.1-2.1-1.5c0-0.2,0-0.4,0.2-0.5c0.6-0.6,2.5-0.7,3.1-0.7c0,0-2.6-0.5-3.4,0.4c-0.2,0.2-0.3,0.5-0.3,0.9
			c0.1,1,0.9,1.5,1.6,1.7c-0.8,0.4-1.3,0.9-1.4,1.5c0,0.8,0.7,1.5,2.1,2.1c-1.5,0.4-2.4,1.3-2.3,2.2c0.1,1,1.4,1.7,3.5,1.8
			c-0.6,0.4-1.1,0.9-1.3,1.5c-0.2,0.6,0,1.1,0.4,1.5C62.5,73.4,63.2,73.8,64.6,73.8z"/>
	</g>
	<g>
		<path class="st8" d="M57.2,79.6H70c0,0-0.6,4.4-7.1,4.5C56.5,84.2,57.2,79.6,57.2,79.6z"/>
		<path class="st9" d="M57.2,79.6H70c0,0-0.3,3-6.7,3.1C56.8,82.8,57.2,79.6,57.2,79.6z"/>
		<path class="st10" d="M57.2,78.8L70,79.6c0,0-0.1,2.2-6.6,2.3C57,82.1,57.2,78.8,57.2,78.8z"/>
		<path class="st11" d="M62.7,84.3c0.1,0,0.2,0,0.2,0c6.9-0.2,6.9-4.7,6.9-4.7c0,0.2-0.7,4.2-6.9,4.3c-2.2,0-3.8-0.5-4.7-1.5
			c-1.1-1.2-0.8-2.7-0.8-2.7c0,0-0.7,1.7,0.5,3C58.9,83.8,60.5,84.3,62.7,84.3z"/>
	</g>
	<ellipse class="st10" cx="75.4" cy="33.5" rx="0.7" ry="0.7"/>
	<circle class="st10" cx="76.1" cy="34.3" r="0.3"/>
</g>
</svg>
