<?xml version="1.0" encoding="utf-8"?>
<!-- Generator: Adobe Illustrator 21.0.2, SVG Export Plug-In . SVG Version: 6.00 Build 0)  -->
<svg version="1.1" id="Слой_1" xmlns="http://www.w3.org/2000/svg" xmlns:xlink="http://www.w3.org/1999/xlink" x="0px" y="0px"
	 viewBox="0 0 130 114" style="enable-background:new 0 0 130 114;" xml:space="preserve">
<style type="text/css">
	.st0{fill:#B77227;}
	.st1{fill:#C6812D;}
	.st2{fill:#874D13;}
	.st3{fill:#42342A;}
	.st4{fill:#514136;}
	.st5{fill:#A59083;}
	.st6{fill:#231B15;}
	.st7{fill:#7A2E1A;}
	.st8{fill:#8B3C21;}
	.st9{fill:#51160B;}
	.st10{fill:#E29440;}
	.st11{fill:#EA9F9B;}
	.st12{fill:#FFBBB5;}
	.st13{fill:#890C00;}
	.st14{fill:#FF8B84;}
	.st15{fill:#D86260;}
	.st16{fill:#DBDAD9;}
	.st17{fill:#FFFFFF;}
	.st18{fill:#BCBBBB;}
	.st19{fill:#BABABA;}
	.st20{fill:#AF9E7B;}
	.st21{fill:#B57400;}
	.st22{fill:#945602;}
	.st23{fill:#7E3B02;}
	.st24{fill:#190000;}
</style>
<g>
	<g>
		<g>
			<path class="st0" d="M64.9,74.2c0.6-0.1,1.2-0.2,1.7-0.2c2.1,3.8,6,5.5,9.7,6.6c3.7,1,4,3.5,2,6.2c-2,2.7-5.7,5-6,8
				c-1.7,1.1-5,3.5-4.8,5.1c0.2,1.6,9.4,2.4,11.1,1.2c1.7-1.2-0.8-3.3-1-4.4c1.2,0.2,1.7-1.4,1-3.1c0.7-2.2,3.2-5.8,5-6.9
				c1.9-1.2,3.4-2.9,1.2-5.4c-2.2-2.6-1.7-4.1,0.5-8.5c1.1-2.2,2-5.6,1.8-9.1c-5.6-0.3-11.3,0.7-16.5,2.9
				C67.8,68,65.3,70.9,64.9,74.2z"/>
			<path class="st1" d="M70.7,66.7c-2.1,0.9-3.9,2.7-5,4.8c0.2,0.9,0.5,1.7,0.8,2.6c0,0,0.1,0,0.1,0c2.1,3.8,6,5.5,9.7,6.6
				c3.7,1,4,3.5,2,6.2c-2,2.7-5.7,5-6,8c-1.7,1.1-5,3.5-4.8,5.1c0.1,0.5,1.1,1,2.6,1.3c1.6-1.5,2.8-2.1,4-3.6c1-1.1,2.8-2.6,2.5-4.6
				c1.6-3.1,3.1-6.2,6.5-8.5c0.3-0.3,0.4-1.8,0.2-2.1c-6.3-5.6-5.9-12-0.6-18.6C78.6,64.1,74.5,65.1,70.7,66.7z"/>
			<path class="st2" d="M85.2,72.8c-2.2,4.4-2.8,6-0.5,8.6c0.8,0.9,1.2,1.8,1,2.6c-0.1,0.9-0.9,1.8-2.2,2.6c-1.9,1.2-4.4,4.9-5.1,7
				l0,0.1l0,0.1c0.4,1,0.5,2,0.1,2.6c-0.2,0.3-0.5,0.4-0.9,0.3l-0.2,0l0.1,0.2c0.1,0.3,0.3,0.7,0.7,1.2c0.9,1.3,1.4,2.3,0.4,3
				c-0.7,0.5-2.8,0.6-5.3,0.5c-3.1-0.2-5.5-0.9-5.6-1.6c-0.2-1.4,2.8-3.8,4.7-5l0.1,0l0-0.1c0.2-2,1.9-3.7,3.6-5.3
				c0.8-0.9,1.7-1.7,2.4-2.6c1.1-1.5,1.5-2.9,1.1-4c-0.4-1.1-1.5-1.9-3.2-2.4C73.3,79.7,69,78,66.8,74l0-0.1h-0.1
				c-0.5,0-1.1,0.1-1.7,0.2c0,0.1,0,0.2,0,0.3c0.6-0.1,1.1-0.2,1.6-0.2c2.3,4.1,6.6,5.7,9.7,6.6c1.6,0.5,2.6,1.2,3,2.2
				c0.4,1,0,2.3-1,3.7c-0.7,0.9-1.5,1.8-2.4,2.6c-1.7,1.7-3.4,3.4-3.7,5.4c-1.8,1.1-5,3.6-4.8,5.2c0.1,1,3.2,1.6,5.9,1.8
				c2.1,0.2,4.6,0.1,5.5-0.5c1.3-0.9,0.4-2.4-0.4-3.4c-0.2-0.3-0.4-0.6-0.5-0.9c0.4,0,0.7-0.2,0.9-0.5c0.5-0.6,0.4-1.7,0-2.8
				c0.7-2.1,3.1-5.6,4.9-6.8c1.5-0.9,2.2-1.8,2.3-2.8c0.1-0.9-0.2-1.8-1.1-2.8c-2.1-2.4-1.8-3.8,0.5-8.3c1.2-2.3,2.1-5.7,1.8-9.2
				c-0.1,0-0.2,0-0.3,0C87.2,67.2,86.4,70.6,85.2,72.8z"/>
		</g>
		<g>
			<g>
				<path class="st3" d="M71.7,95.2c-1.8,1.2-4.3,3.3-4.2,4.7c0.2,1.6,9.4,2.4,11.1,1.2c1.4-1-0.1-2.7-0.8-3.8
					C75.3,97.5,73.3,96.7,71.7,95.2z"/>
				<path class="st4" d="M75.4,97.2c-1.4-0.3-2.6-1-3.6-1.9c-1.8,1.2-4.3,3.3-4.2,4.7c0,0.4,0.6,0.7,1.4,1c1.3,0.1,2.5-0.1,3.7-0.2
					C74.4,100.7,76.1,98.8,75.4,97.2z"/>
				<path class="st5" d="M72.4,95.8c-0.2-0.2-0.4-0.3-0.6-0.5c-1.8,1.2-4.3,3.3-4.2,4.7c0,0.2,0.2,0.4,0.5,0.6
					C68.4,98.3,70.3,96.7,72.4,95.8z"/>
				<path class="st6" d="M73.3,101.8c-2.6-0.2-5.7-0.8-5.9-1.8c-0.2-1.8,3.5-4.4,4.2-4.9l0.1-0.1l0.1,0.1c1.6,1.5,3.6,2.2,6.1,2.1
					l0.1,0l0,0.1c0.1,0.2,0.2,0.4,0.4,0.6c0.7,1.1,1.7,2.5,0.4,3.4C77.9,101.9,75.3,102,73.3,101.8z M71.7,95.4
					c-2,1.3-4.2,3.3-4,4.5c0.1,0.7,2.5,1.3,5.6,1.6c2.5,0.2,4.6,0,5.3-0.5c1-0.7,0.4-1.7-0.4-3c-0.1-0.2-0.2-0.3-0.3-0.5
					C75.3,97.6,73.3,96.9,71.7,95.4z"/>
			</g>
		</g>
	</g>
	<g>
		<path class="st7" d="M42.3,23.3c0,0-2.1-8.5-3.8-10.8c1.6,0.3,6.6,2.2,8.1,4.7c0.7-1,4.2-0.9,4.4-0.8c-1.1,0.6-2.2,2.2-2.3,2.6
			c2-0.2,4.8,1.7,6,2.9C54.1,22,52.6,22,52.6,22c2.5,0.8,5.1,5.1,6.3,8.1c-0.6-0.4-3.2-1.3-3-1.2c3,2.8,3.5,6.4,3.9,9.6
			c-0.4-0.3-1.3-1.2-1.3-1.2c0.3,1.7,1,5.3,2.9,7c-0.5,0.1-1.9-0.4-1.9-0.4c0.4,3,2.8,10.3,6.1,12.3c-4.1,0.1-9.3-5.8-11.7-14.4
			C51.4,33.3,48.3,25,42.3,23.3z"/>
		<path class="st8" d="M57.5,41.2c-1.2-2.8-0.3-6.1-2.5-8.9c0.9,0.3,1.5,0.9,2.2,1.5c0-3.1-2.5-5.2-4.3-7.4c2.4,0.5,4.4,1.9,5.9,3.6
			c0.1,0,0.1,0.1,0.1,0.1c-1.2-3-3.8-7.3-6.3-8.1c0,0,0.3,0,0.6,0c-2-0.9-4.2-1.6-6.5-1.4c2.5-0.5,5.1-0.6,7.4,0.7
			c-1.4-1.2-3.7-2.6-5.4-2.4c0.2-0.3,1.2-1.9,2.3-2.6c-0.2-0.1-3.8-0.1-4.4,0.8c-1.5-2.5-6.5-4.4-8.1-4.7c1.7,2.3,3.8,10.8,3.8,10.8
			c6,1.7,9.1,10.1,11.4,18.7c1,3.5,2.4,6.6,4,8.9c-0.9-3.6-0.9-7.6-1.5-11.2C56.6,40.3,57.2,40.6,57.5,41.2z"/>
		<path class="st9" d="M65.3,56.5c-4.4,0-9.5-6.2-11.7-14.5c-2.4-8.6-5.4-16.8-11.3-18.6l-0.1,0l0-0.1c0-0.1-2.1-8.5-3.7-10.7
			l-0.2-0.3l0.4,0.1c1.6,0.3,6.5,2.2,8.1,4.6c0.8-0.7,3.2-0.8,3.7-0.8c0.1,0,0.6,0,0.7,0l0.3,0.1l-0.3,0.2c-0.9,0.5-1.8,1.7-2.1,2.3
			c2,0,4.7,1.8,5.8,3l0.2,0.2L54.7,22c-0.3,0.1-1,0.1-1.5,0.2c2.4,1.3,4.8,5.3,5.8,8l0.2,0.5l-0.4-0.3c-0.4-0.3-1.7-0.8-2.4-1
			c2.6,2.7,3.2,6,3.5,9.3l0,0.4l-0.3-0.2c-0.2-0.2-0.7-0.6-1-0.9c0.3,1.6,1,4.9,2.8,6.5l0.2,0.2l-0.3,0c-0.4,0.1-1.3-0.2-1.8-0.3
			c0.5,3.3,2.9,10.1,6,11.9l0.4,0.3l-0.5,0C65.4,56.5,65.3,56.5,65.3,56.5z M42.4,23.1c6,1.8,9.1,10.1,11.5,18.7
			c2.1,7.8,6.9,13.9,11,14.3c-3.2-2.5-5.3-9.5-5.7-12.1l0-0.2l0.2,0.1c0,0,0.9,0.3,1.5,0.4c-1.8-2-2.4-5.6-2.7-6.8L58.2,37l0.3,0.3
			c0,0,0.6,0.5,1,0.9c-0.4-3.2-1-6.6-3.8-9.1L55.7,29l0.1-0.2l0.1,0c0.2,0,1.9,0.6,2.7,1c-1.2-2.8-3.7-6.8-6-7.6l-0.8-0.3l0.9,0
			c0,0,1.1,0,1.8-0.1c-1.2-1.2-3.8-2.9-5.6-2.7l-0.3,0l0.1-0.2c0.1-0.3,1-1.6,2-2.4c-0.1,0-0.1,0-0.2,0c-1.5,0-3.2,0.3-3.6,0.8
			l-0.1,0.2l-0.1-0.2c-1.3-2.3-5.7-4-7.6-4.5C40.4,15.2,42.2,22.2,42.4,23.1z"/>
	</g>
	<g>
		<path class="st1" d="M14,40.4c-0.5-0.6-2.5-1.3-3.1-0.2c-0.9,1.7-0.1,5.3,3.3,5.1C16.4,44.5,14.9,41,14,40.4z"/>
		<path class="st10" d="M13.4,40c-0.4-0.1-1.7-0.2-2.1,0.4c-0.4,0.5-0.5,1.3-0.1,2.1c-0.1-0.7-0.1-2.3,2.3-2.2
			C13.4,40.2,13.4,40,13.4,40z"/>
		<path class="st2" d="M14,45.5L14,45.5c-1.3,0-2.4-0.6-3-1.6c-0.7-1.1-0.8-2.7-0.2-3.7c0.2-0.5,0.7-0.7,1.3-0.7
			c0.8,0,1.7,0.4,2,0.8c0.6,0.4,1.5,2.2,1.4,3.5c-0.1,0.8-0.5,1.4-1.2,1.7l0,0C14.2,45.5,14.1,45.5,14,45.5z M12.1,39.8
			c-0.3,0-0.8,0.1-1.1,0.5c-0.5,0.9-0.4,2.3,0.2,3.4c0.4,0.7,1.2,1.5,2.7,1.5l0,0c0.1,0,0.2,0,0.2,0c0.6-0.2,0.9-0.7,1-1.4
			c0.1-1.3-0.7-2.9-1.2-3.2l0,0C13.6,40.2,12.8,39.8,12.1,39.8z"/>
	</g>
	<g>
		<path class="st0" d="M40.3,66.9c-1.8,1.5-5.8,6.3-6.7,7.8c-1,0-2.1,1.3-1.7,3c0.5,1.7,2.5,2.2,3.6,1.7c1.5,1.3,6.6,5.3,8,6.3
			c1.6,2.3,3.9,2.2,6,0.8c0.2-0.8,0.5-3.3,0.5-3.3c-1.6-2.4-3.6-3.3-5.8-2.5c-1-0.5-4.4-2.8-5.5-3.5c1-0.6,5.5-2.2,6.9-4.2
			C46.1,70.7,42.6,67.2,40.3,66.9z"/>
		<path class="st1" d="M35.4,75.6c4.1,0,7.2-2.8,8.8-6.3c-1.1-1.3-2.7-2.3-3.9-2.5c-1.8,1.5-5.8,6.3-6.7,7.8c-0.9,0-2,1.2-1.7,2.7
			c0.6,0.5,1.5,0.7,2.2,0.7C35.1,77.8,35.7,76.9,35.4,75.6z"/>
		<path class="st10" d="M40.1,67.5c-1.2,1.3-5.5,6.1-5.9,7.2c0.8-0.3,5.5-6,6.1-6.8C40.6,67.4,40.1,67.5,40.1,67.5z"/>
		<path class="st1" d="M37.2,78.4c-1,1.7,7.4,7.1,12.3,6.5c0.1,0,0.2,0,0.3,0c0.1-0.8,0.2-1.7,0.2-1.7c-1.6-2.4-3.6-3.3-5.8-2.5
			c0,0,0,0,0,0C44.2,80.9,38.1,76.4,37.2,78.4z"/>
		<path class="st2" d="M46.7,87.6c-1.3,0-2.4-0.6-3.3-1.8c-1.4-1-6.3-4.9-7.9-6.2c-0.3,0.1-0.6,0.2-0.9,0.2c-1.1,0-2.4-0.7-2.8-2
			c-0.2-0.8-0.1-1.7,0.4-2.4c0.4-0.5,0.8-0.8,1.3-0.8c1-1.6,4.8-6.3,6.7-7.8l0.1,0l0.1,0c1.4,0.2,3.2,1.5,4.4,3.1
			c0.9,1.2,1.3,2.3,1.1,3.2l0,0l0,0c-1.1,1.5-4,2.9-5.8,3.7c-0.4,0.2-0.7,0.3-0.9,0.4c1.2,0.8,4.2,2.9,5.2,3.3
			c0.5-0.2,1-0.3,1.5-0.3c1.6,0,3.1,1,4.4,2.8l0,0l0,0.1c0,0.1-0.4,2.6-0.5,3.3l0,0.1l-0.1,0C48.6,87.3,47.6,87.6,46.7,87.6z
			 M35.5,79.2L35.5,79.2c1.6,1.3,6.7,5.4,8.1,6.4l0,0c0.8,1.2,1.8,1.7,3,1.7c0.9,0,1.8-0.3,2.8-0.9c0.1-0.8,0.4-2.8,0.5-3.2
			c-1.5-2.3-3.5-3.1-5.6-2.4l-0.1,0l-0.1,0c-1-0.5-4.5-2.9-5.5-3.5l-0.2-0.1l0.2-0.1c0.2-0.1,0.7-0.3,1.2-0.6
			c1.7-0.8,4.6-2.1,5.7-3.5c0.1-0.8-0.3-1.9-1.1-2.9c-1.2-1.5-2.9-2.8-4.2-3c-1.8,1.5-5.7,6.3-6.6,7.8l0,0.1l-0.1,0
			c-0.4,0-0.9,0.3-1.2,0.7c-0.4,0.6-0.6,1.3-0.4,2.1c0.3,1.2,1.5,1.8,2.5,1.8C34.9,79.4,35.2,79.4,35.5,79.2L35.5,79.2z"/>
	</g>
	<g>
		<path class="st3" d="M49.2,85.9c1.6,2.3,5.5,3.1,9.5,1.8c-0.5-1.7-4.4-7.1-6.4-7.6c-1.3,0.1-3.1,1.6-3.1,1.6
			C49.1,82.4,49.2,85.9,49.2,85.9z"/>
		<path class="st4" d="M56.6,84.3c-1.4-1.9-3.2-3.8-4.3-4.1c-1.3,0.1-3.1,1.6-3.1,1.6c-0.1,0.3-0.1,1.6,0,2.7
			C51.6,85.9,54.4,85.8,56.6,84.3z"/>
		<path class="st6" d="M55,88.5L55,88.5c-2.6,0-4.8-0.9-5.9-2.5l0,0l0,0c0-0.1-0.1-3.6,0-4.2l0-0.1l0,0c0.1-0.1,1.9-1.5,3.2-1.6l0,0
			l0,0c2,0.5,5.9,5.8,6.5,7.7l0,0.1l-0.1,0C57.5,88.3,56.2,88.5,55,88.5z M49.4,85.9c1,1.5,3.1,2.3,5.6,2.3c1.2,0,2.4-0.2,3.5-0.5
			c-0.7-1.9-4.4-6.9-6.2-7.3c-1.1,0.1-2.7,1.3-3,1.5C49.3,82.4,49.3,84.7,49.4,85.9z"/>
	</g>
	<g>
		<path class="st7" d="M96.6,64.7c1.8-0.8,5.2-0.8,6.8,1.4c1.6,2.2-0.5,6-2.6,11.4c-2.1,5.4-4.1,14.2,3.1,20.2
			c-0.4-0.7-0.6-2-0.6-2.4c1.9,3.1,5.4,4.5,8.4,3.8c-0.5-0.1-1.6-1.3-2.1-2.2c3.2,1.9,8.1,1.3,9.6-4.7c-1.1,1.3-3.4,2.5-5.7,1.2
			c-2.3-1.4-5.8-7.3-3.3-16.7c2.5-9.4,4-13.1,0.2-16.9c-3.8-3.8-11.4-0.3-14.8,2.4C95.5,63,96.1,64.6,96.6,64.7z"/>
		<path class="st8" d="M113.7,93.4c-2.3-1.4-7.1-7.9-4.5-17.3c2.5-9.4,5.3-12.5,1.4-16.3c-3.8-3.8-11.4-0.3-14.8,2.4
			c-0.1,0.3-0.1,0.7,0,1.2c3.5-1.8,7.3-2.8,10.9-1c1.2,0.6,2.4,1.9,2.8,3.4c-1.2-3.1-5.2-3.7-8-2.8c4.6-0.3,6.1,4.6,4,8
			c-1.5,2.5-2.5,4.6-2.8,7.4c-0.3-1.8,0.3-3.7,0.6-5.5c-1.6,3.2-3,6.2-3.6,9.5c-0.2,2.3,0,4.6,0.9,6.8c0-2.2,0.9-4.3,1.8-6.5
			c-0.3,3.4,0.3,7.1,2.2,10.1c-0.9-3.4-0.6-6.8,0-10.1c0.6,4.3,2.2,11.1,7.1,12.3c-1.8-1.8-2.5-4.3-3.4-6.8c1.5,3.4,4.3,7.4,8.3,6.5
			c1.2-0.2,2-0.9,2.7-1.8c0.1-0.2,0.1-0.4,0.2-0.6C118.3,93.6,116,94.8,113.7,93.4z"/>
		<path class="st9" d="M110.3,99.5c-2.5,0-5.1-1.4-6.6-3.6c0.1,0.6,0.3,1.4,0.5,1.8l0.4,0.8l-0.7-0.6c-6.9-5.8-5.6-14.3-3.2-20.4
			c0.4-0.9,0.7-1.8,1.1-2.6c1.6-4,2.8-6.9,1.5-8.7c-1.2-1.6-3.1-1.8-4.1-1.8c-0.9,0-1.8,0.2-2.5,0.5l0,0l-0.1,0
			c-0.3-0.1-0.5-0.4-0.7-0.7c-0.3-0.6-0.5-1.4-0.3-2l0,0l0,0c2.5-2,6.8-4.1,10.4-4.1c1.9,0,3.5,0.6,4.6,1.7
			c3.6,3.5,2.6,7.1,0.5,14.8c-0.2,0.7-0.4,1.5-0.6,2.2c-2.6,9.5,1.1,15.2,3.2,16.5c0.7,0.4,1.4,0.6,2.1,0.6c1.5,0,2.8-0.9,3.5-1.7
			l0.4-0.5l-0.2,0.7c-0.9,3.6-3.3,5.8-6.4,5.8c-1,0-2.1-0.3-3-0.7c0.5,0.8,1.4,1.5,1.7,1.6l0.6,0.1l-0.6,0.2
			C111.4,99.4,110.8,99.5,110.3,99.5z M103.3,94.8l0.3,0.4c1.5,2.4,4.1,3.9,6.7,3.9c0.4,0,0.7,0,1.1-0.1c-0.6-0.4-1.4-1.3-1.8-2
			l-0.2-0.5l0.4,0.3c1,0.6,2.2,0.9,3.3,0.9c1.4,0,4.5-0.5,5.9-5c-0.8,0.7-1.9,1.4-3.3,1.4c-0.8,0-1.5-0.2-2.2-0.6
			c-2.2-1.3-6-7.2-3.3-16.9c0.2-0.8,0.4-1.5,0.6-2.2c2.1-7.8,3-11.1-0.4-14.5c-1.1-1.1-2.6-1.6-4.4-1.6c-3.5,0-7.7,2.1-10.1,4
			c-0.1,0.5,0.1,1.2,0.3,1.7c0.1,0.3,0.3,0.4,0.4,0.5c0.8-0.3,1.7-0.5,2.6-0.5c1.1,0,3.1,0.2,4.4,1.9c1.4,1.9,0.2,4.9-1.5,9
			c-0.3,0.8-0.7,1.7-1.1,2.6c-2.3,5.8-3.6,13.9,2.6,19.6c-0.2-0.7-0.3-1.5-0.3-1.9L103.3,94.8z"/>
	</g>
	<g>
		<path class="st9" d="M109.1,64.6c0-0.1-3.7-5.8-13.2-0.8l-0.1-0.3C105.6,58.4,109.1,64.6,109.1,64.6z"/>
	</g>
	<g>
		<path class="st9" d="M110.5,97.5c-3.8-1.9-4.2-5-4.2-5c0,0,0.7,2.8,4.4,4.7L110.5,97.5z"/>
	</g>
	<g>
		<path class="st9" d="M103.6,95.7C100,90,101.8,84,101.8,84c0,0.1-1.5,5.9,2,11.6L103.6,95.7z"/>
	</g>
	<g>
		<path class="st1" d="M30.8,21.9c-0.1-4.5-0.9-8.7-4.9-10.7c-0.8-0.4-2.3-0.2-1.8,1.2c0.3,1.4-1.8,5.6,2,10.6
			C27.6,24.7,30.5,23.1,30.8,21.9z"/>
		<path class="st2" d="M27.8,23.9L27.8,23.9c-0.7,0-1.4-0.3-1.8-0.8c-3-3.9-2.5-7.2-2.2-9.3c0.1-0.6,0.2-1.1,0.1-1.4
			c-0.2-0.5,0-0.9,0.1-1.1c0.2-0.3,0.6-0.5,1.1-0.5c0.3,0,0.6,0.1,0.9,0.2c4.3,2.2,4.9,6.9,4.9,10.9v0l0,0
			C30.7,22.8,29.2,23.9,27.8,23.9z M25.1,11.2c-0.4,0-0.7,0.1-0.8,0.3c-0.1,0.2-0.2,0.5-0.1,0.8c0.1,0.4,0,0.9-0.1,1.5
			c-0.3,2-0.8,5.3,2.1,9c0.4,0.5,0.9,0.7,1.6,0.7c1.3,0,2.6-0.9,2.8-1.7c-0.1-3.8-0.7-8.5-4.8-10.6C25.6,11.2,25.4,11.2,25.1,11.2z"
			/>
	</g>
	<g>
		<path class="st11" d="M28.6,22.3c0.2-2.4-0.9-8.2-3.4-9.4c-0.3,1.7-1.1,6,2.1,9.9C27.5,22.8,28.6,22.3,28.6,22.3z"/>
		<path class="st12" d="M24.9,15.3c-0.1,2.1,0.3,4.8,2.4,7.5c0.2,0,1.3-0.5,1.3-0.5c0.1-0.8,0-2.1-0.3-3.4
			C27.4,17.5,26.2,16.3,24.9,15.3z"/>
		<path class="st2" d="M27.3,22.9L27.3,22.9l-0.1,0l0,0c-3.2-4-2.4-8.4-2.1-10l0-0.2l0.2,0.1c2.6,1.3,3.6,7.4,3.5,9.5l0,0.1l-0.1,0
			C28.5,22.5,27.6,22.9,27.3,22.9z M25.3,13.1c-0.3,1.9-0.9,5.8,2,9.5c0.2,0,0.7-0.3,1.1-0.5C28.5,19.9,27.5,14.5,25.3,13.1z"/>
	</g>
	<g>
		<path class="st0" d="M41.4,20.7c-2.8-2.1-9.2-2.4-13-0.6c-3.8,1.8-5.6,7.6-4.6,12.2c-2.4,1.1-4.9,2.7-7,3.6
			c-2.6,0.4-5.8,4.3-2.6,8.6c-0.7,0.4-2,2.2-2.2,3c0.7,1.2,6,1.7,9.6-1.2C21,47.8,20,50.2,20.2,52c-0.9,1.8-0.2,4.2,3.2,3.6
			c3.4-0.5,4.5-3.2,4.1-6.2c0.2-2.3,2.3-7.1,7.7-7.4c1.3,0.6,3.4,0.9,4.6,0.6c1,1,2.2,2.8,0.2,8.8c-1.9,6-4,11.8-1.3,18.1
			c2.7,6.4,9.1,8.7,12,9.2C61.3,86,73,78.5,78.7,78c2.4,3.7,6.4,5.1,10.1,5.9c3.7,0.8,4.3,3.2,2.5,6c-1.8,2.8-5.3,5.4-5.4,8.5
			c-1.6,1.2-4.7,3.9-4.4,5.5c0.3,1.6,9.6,1.7,11.2,0.4c1.6-1.3-1.1-3.3-1.4-4.3c1.3,0.2,1.6-1.5,0.8-3.2c0.5-2.2,2.7-6,4.5-7.3
			c1.8-1.3,3.2-3.1,0.8-5.5c-2.4-2.4-2-4-0.1-8.5c1.9-4.5,2.6-13.6-4.3-18.3c-6.9-4.7-14.8,1.1-25.4-1.3
			c-10.7-2.4-10.5-11.2-12.4-19C53.4,29.1,49.8,21.9,41.4,20.7z"/>
		<path class="st1" d="M95.9,85.2c-6.8-5.2-6.8-11.7-1.8-18.7c3.3-4.6,0.2-8.3-4-10.7c-6.2-1.8-13.3,2.1-22.4,0.1
			c-10.7-2.4-10.5-11.2-12.4-19c-1.8-7.8-5.4-15-13.9-16.2c-2.8-2.1-9.2-2.4-13-0.6c-3.8,1.8-5.6,7.6-4.6,12.2
			c-2.4,1.1-4.9,2.7-7,3.6c-2.6,0.4-5.8,4.3-2.6,8.6c-0.7,0.4-2,2.2-2.2,3c0.7,1.2,6,1.7,9.6-1.2c-0.4,1-1,2.3-1.3,3.6
			c1.4,1,2.9,2.3,3.6,0.5c1.5-4.3,4-8.6,8.6-9.5C32,40,31.7,39.1,32,37.8c2.2,4,6.8,3.1,10.1,1.2c3.4-2.2,5.2-5.8,5.5-9.8
			c0.8,8.5-3.2,16.2-7.8,22.9c-0.9,2.6-1.7,5.2-2.1,7.9c0.6,4.2,1.3,8.2,5.6,10.4c3.3,1.4,6.9,1.9,10.2,3c0.5-2,0.5-4-0.6-6
			c0.9-0.3,2.2,0.3,2.5,0.9c2.4,3.1,4.7,6.2,8.1,7.4c5.4-0.5,10.8-3.7,14-8.6c-1.2,3.7-0.5,7.6,1.1,11c0,0,0.1,0,0.1,0
			c2.4,3.7,6.4,5.1,10.1,5.9c3.7,0.8,4.3,3.2,2.5,6c-1.8,2.8-5.3,5.4-5.4,8.5c-1.6,1.2-4.7,3.9-4.4,5.5c0.1,0.5,1.2,0.9,2.7,1.1
			c1.5-1.6,2.6-2.3,3.7-3.8c0.9-1.2,2.6-2.8,2.1-4.7c1.4-3.2,2.7-6.4,5.9-9C96.2,87,96.2,85.5,95.9,85.2z"/>
		<path class="st10" d="M80.7,64c0,0-3,2.8-3.1,7.5c-0.1,4.6,2.7,7.5,5.9,9.3c-1.3-1.1-4.3-3.8-4.9-7.5C77.9,69.1,79.5,66.6,80.7,64
			z"/>
		<path class="st10" d="M33.1,37.9c0,0,3.4,2.7,8,0.5c4.6-2.2,5.2-8.5,5.2-8.5c-0.7,2.8-2.3,5.7-5.4,7.7
			C38.9,38.8,35.9,39.3,33.1,37.9z"/>
		<path class="st10" d="M49.7,46.9c-0.4-0.6-0.3-0.8,0.6-0.1c0.9,0.8,2.8,2.8,3.7,6.5c0.8,3.2,0.4,7-0.1,7.2
			c-0.2-0.2,0.2-3.2-0.8-7.5C52.6,51,51,48.5,49.7,46.9z"/>
		<path class="st2" d="M87.3,105.2c-2.6,0-5.8-0.4-6-1.4c-0.3-1.7,2.7-4.3,4.4-5.6c0.1-2.1,1.7-3.9,3.3-5.7c0.8-0.9,1.6-1.8,2.2-2.8
			c0.9-1.5,1.2-2.8,0.8-3.8c-0.4-1-1.5-1.7-3.1-2c-3.2-0.6-7.6-2-10.2-5.9c-1.5,0.1-3.3,0.7-5.5,1.4c-3.4,1.1-7.7,2.5-12.1,2.5
			c-3.9,0-7.3-1-10.4-3.1c-1-0.2-8.9-1.8-12.1-9.2c-2.6-6.1-0.8-11.6,1-17.5l0.3-0.8c1.8-5.6,0.9-7.5-0.1-8.6
			c-0.3,0.1-0.7,0.1-1.1,0.1c-1.1,0-2.5-0.3-3.5-0.7c-5.7,0.4-7.4,5.5-7.5,7.3c0.5,3.5-1,5.8-4.2,6.3c-0.3,0.1-0.7,0.1-1,0.1
			c-1.4,0-2.1-0.6-2.4-1.1c-0.5-0.7-0.5-1.8,0-2.8c-0.2-1.7,0.6-3.8,1.3-5.3c-2.4,1.7-5.1,1.9-6.1,1.9c-1.6,0-2.9-0.4-3.3-1l0-0.1
			l0-0.1c0.2-0.8,1.4-2.5,2.1-3c-1.3-1.9-1.7-3.9-0.9-5.6c0.7-1.6,2.2-2.8,3.7-3.1c1.2-0.5,2.5-1.2,3.8-1.9c1-0.5,2-1.1,3-1.6
			c-0.9-4.5,0.6-10.4,4.7-12.3c1.6-0.8,3.8-1.2,6.1-1.2c2.9,0,5.5,0.7,7.1,1.8c7.1,1,11.6,6.2,14,16.3c0.3,1.2,0.5,2.4,0.8,3.6
			c1.3,6.8,2.6,13.3,11.5,15.2c1.8,0.4,3.6,0.6,5.6,0.6c2.6,0,5-0.3,7.3-0.6c2-0.3,3.9-0.5,5.8-0.5c2.7,0,4.9,0.6,6.8,1.9
			c6.9,4.7,6.3,13.8,4.3,18.5c-2,4.6-2.2,6.1,0.1,8.3c0.9,0.9,1.4,1.8,1.3,2.7c-0.1,1-0.8,2-2.1,3c-1.8,1.3-3.9,5-4.4,7.1
			c0.5,1,0.6,2.1,0.2,2.8c-0.2,0.3-0.5,0.5-0.9,0.6c0.1,0.2,0.4,0.5,0.6,0.9c0.8,1,1.9,2.4,0.6,3.4C92,105,89.4,105.2,87.3,105.2z
			 M78.8,77.9L78.8,77.9c2.5,3.9,7,5.2,10.1,5.9c1.8,0.4,2.9,1.1,3.4,2.2c0.5,1.1,0.2,2.5-0.8,4.1c-0.6,1-1.4,1.9-2.2,2.8
			c-1.5,1.8-3.1,3.6-3.2,5.6l0,0.1l-0.1,0c-1.8,1.3-4.6,3.9-4.3,5.3c0.1,0.7,2.6,1.2,5.7,1.2c2.5,0,4.6-0.3,5.3-0.8
			c0.9-0.7,0.3-1.7-0.7-2.9c-0.3-0.5-0.7-0.8-0.8-1.2l-0.1-0.2l0.2,0c0.4,0,0.7-0.1,0.9-0.4c0.3-0.6,0.3-1.6-0.2-2.5l0-0.1l0-0.1
			c0.5-2.2,2.7-6,4.6-7.4c1.3-1,2-1.9,2-2.8c0.1-0.8-0.4-1.6-1.2-2.5c-2.5-2.4-2.1-4.1-0.1-8.7c1.9-4.6,2.5-13.6-4.2-18.1
			c-1.9-1.3-4-1.9-6.7-1.9c-1.8,0-3.7,0.3-5.7,0.5c-2.3,0.3-4.7,0.7-7.3,0.7c-2,0-3.8-0.2-5.7-0.6c-9.1-2-10.5-8.9-11.8-15.5
			c-0.2-1.2-0.5-2.4-0.8-3.6c-2.4-10-6.7-15.1-13.8-16.1l0,0l0,0c-1.5-1.1-4.1-1.8-6.9-1.8c-2.3,0-4.4,0.4-5.9,1.2
			c-3.8,1.8-5.4,7.7-4.5,12.1l0,0.1l-0.1,0.1c-1,0.5-2.1,1.1-3.1,1.6c-1.4,0.7-2.7,1.5-3.9,2l0,0c-1.4,0.2-2.8,1.4-3.4,2.9
			c-0.7,1.7-0.4,3.7,1,5.5l0.1,0.1l-0.1,0.1c-0.6,0.4-1.9,2.1-2.1,2.9c0.3,0.4,1.3,0.8,3,0.8c1.1,0,3.9-0.2,6.4-2.1l0.5-0.4
			l-0.2,0.6c-0.6,1.4-1.7,3.8-1.4,5.7l0,0l0,0c-0.4,0.9-0.5,1.9,0,2.5c0.5,0.8,1.6,1.1,3.1,0.9c3-0.5,4.5-2.7,3.9-6l0,0v0
			c0.2-2.7,2.6-7.2,7.9-7.6l0,0l0,0c1.4,0.6,3.5,0.9,4.5,0.6l0.1,0l0.1,0.1c1.1,1.1,2.2,3.1,0.3,9L40,52.3
			c-1.9,5.8-3.6,11.2-1.1,17.2c3.1,7.4,11,8.9,11.9,9.1l0.1,0c3.1,2.1,6.4,3.1,10.3,3.1c4.4,0,8.6-1.4,12-2.4
			C75.3,78.6,77.2,78,78.8,77.9L78.8,77.9z"/>
	</g>
	<g>
		<path class="st2" d="M38.6,42.9c-4.2,0-6.1-3.2-6.1-3.2c0,0,2.5,3.3,7.1,2.8c7.8-0.8,7.9-12.2,7.9-12.3c0,0,0.2,11.8-7.9,12.6
			C39.3,42.9,38.9,42.9,38.6,42.9z"/>
	</g>
	<g>
		<g>
			<path class="st13" d="M23.2,53.6c1.7-0.4,1.9-2.2,1.8-3.8c-0.1-1.6-0.3-4.2,0.2-7.7c-1,1.9-2.5,3.5-3.6,4.2
				C21,47.8,20,50.2,20.2,52C20.6,53.1,21.5,54,23.2,53.6z"/>
			<path class="st2" d="M22.4,53.8L22.4,53.8c-1.1,0-2-0.7-2.4-1.8l0,0c-0.2-1.9,0.8-4.4,1.5-5.8l0,0l0,0c1-0.7,2.5-2.2,3.5-4.1
				l0.4-0.8l-0.1,0.9c-0.5,3.5-0.3,6.1-0.2,7.6c0.2,2.2-0.5,3.6-1.9,4C23,53.8,22.7,53.8,22.4,53.8z M20.4,52
				c0.2,0.5,0.7,1.5,2.1,1.5l0,0c0.2,0,0.5,0,0.8-0.1c1.6-0.4,1.8-2.2,1.7-3.6c-0.1-1.4-0.3-3.7,0.1-6.9c-1,1.6-2.3,2.9-3.2,3.5
				C21.2,47.8,20.1,50.2,20.4,52z"/>
		</g>
		<g>
			<g>
				<path class="st14" d="M25,49.8c-0.1-1.6-0.3-4.2,0.2-7.7c-0.8,1.6-2,2.9-2.9,3.7c-0.6,2.4-1.3,5.8-0.7,6.6
					c0.6,0.8,2,0.4,3.2-0.5C25.1,51.2,25.1,50.5,25,49.8z"/>
				<path class="st15" d="M22.6,53L22.6,53c-0.5,0-0.9-0.2-1.1-0.5c-0.6-0.9,0-3.8,0.6-6.7l0,0l0,0c0.5-0.5,1.9-1.7,2.9-3.6l0.4-0.8
					l-0.1,0.9c-0.5,3.5-0.3,6.1-0.2,7.6c0.1,0.8,0,1.6-0.2,2.2l0,0l0,0C24.2,52.6,23.3,53,22.6,53z M22.4,45.9
					c-0.5,2-1.3,5.6-0.7,6.4c0.2,0.3,0.5,0.4,0.9,0.4c0.6,0,1.4-0.3,2.1-0.9c0.2-0.6,0.2-1.2,0.1-2c-0.1-1.4-0.3-3.7,0.1-6.9
					C24.3,44,23.4,45,22.4,45.9z"/>
			</g>
		</g>
	</g>
	<g>
		<g>
			<path class="st16" d="M20.2,52c0.4,1,1.3,2,3,1.6c0.1,0,0.2-0.1,0.3-0.1c-0.5-0.8-1.1-1.6-1.5-2.1C21.4,51.7,20.8,51.9,20.2,52z"
				/>
			<path class="st17" d="M20.2,52c0.3,0.8,1,1.6,2.1,1.7c-0.3-0.7-0.5-1.4-0.8-2C21.1,51.8,20.6,52,20.2,52z"/>
			<path class="st18" d="M22.4,53.8L22.4,53.8c-1.1,0-2-0.7-2.4-1.8l0-0.2l0.1,0c0.6-0.1,1.2-0.3,1.7-0.6l0.1-0.1l0.1,0.1
				c0.4,0.5,1,1.3,1.5,2.1l0.1,0.2l-0.2,0.1c-0.1,0-0.2,0.1-0.3,0.1C23,53.8,22.7,53.8,22.4,53.8z M20.4,52.2c0.2,0.5,0.8,1.4,2,1.4
				l0,0c0.2,0,0.5,0,0.8-0.1c0,0,0,0,0.1,0c-0.4-0.7-0.9-1.3-1.3-1.8C21.5,51.9,21,52.1,20.4,52.2z"/>
		</g>
		<g>
			<path class="st16" d="M25,49.8c-0.1-0.7-0.1-1.6-0.1-2.7c-0.4,1-0.8,1.9-1.3,2.5c0.4,0.5,0.9,1.2,1.3,1.9
				C25.1,51,25.1,50.4,25,49.8z"/>
			<path class="st18" d="M25,51.9l-0.2-0.3c-0.4-0.7-1-1.4-1.3-1.8l-0.1-0.1l0.1-0.1c0.4-0.7,0.9-1.5,1.3-2.5l0.3-0.7l0,0.8
				c0,1.1,0.1,2,0.1,2.6c0.1,0.7,0,1.2-0.1,1.8L25,51.9z M23.8,49.7c0.3,0.4,0.7,0.9,1.1,1.4c0-0.4,0-0.8,0-1.3
				c0-0.5-0.1-1.2-0.1-1.9C24.4,48.5,24.1,49.1,23.8,49.7z"/>
		</g>
		<g>
			<path class="st16" d="M25,51.5c-0.4-0.7-0.9-1.4-1.3-1.9c-0.5,0.8-1.1,1.3-1.7,1.7c0.5,0.6,1,1.3,1.5,2.1
				C24.3,53.2,24.8,52.4,25,51.5z"/>
			<path class="st17" d="M22,51.4c0.5,0.6,1,1.3,1.5,2.1c0.5-0.2,0.8-0.5,1.1-0.9c-0.4-0.8-1-1.5-1.6-2.1
				C22.7,50.9,22.3,51.2,22,51.4z"/>
			<path class="st18" d="M23.4,53.7l-0.1-0.1c-0.5-0.8-1.1-1.6-1.5-2.1l-0.1-0.1l0.1-0.1c0.6-0.4,1.1-0.9,1.6-1.7l0.1-0.2l0.1,0.2
				c0.4,0.5,0.9,1.1,1.4,1.9l0,0.1l0,0.1c-0.2,1.1-0.7,1.8-1.6,2.1L23.4,53.7z M22.2,51.4c0.4,0.5,0.9,1.2,1.3,1.9
				c0.7-0.3,1.1-0.9,1.3-1.8c-0.4-0.6-0.8-1.2-1.2-1.6C23.2,50.6,22.7,51.1,22.2,51.4z"/>
		</g>
	</g>
	<g>
		<g>
			<path class="st16" d="M18.3,48c0.5,0.7,1.1,1.5,1.8,2.3c0.8-0.3,1.7-0.9,2.6-1.7c-0.3-0.9-0.7-1.6-1.1-2.2
				C20.8,46.9,19.7,47.5,18.3,48z"/>
			<path class="st17" d="M18.3,48c0.5,0.7,1.1,1.5,1.8,2.3c0.5-0.2,1.1-0.5,1.7-0.9c-0.1-0.9-0.5-1.7-0.9-2.5
				C20.2,47.2,19.3,47.7,18.3,48z"/>
			<path class="st18" d="M20.1,50.4L20.1,50.4c-0.7-0.8-1.3-1.6-1.8-2.4l-0.1-0.2l0.2-0.1c1.2-0.4,2.3-0.9,3.3-1.6l0.1-0.1l0.1,0.1
				c0.4,0.7,0.8,1.5,1.1,2.3l0,0.1l-0.1,0.1C22,49.4,21.1,50,20.1,50.4L20.1,50.4z M18.6,48c0.5,0.7,1,1.4,1.6,2
				c0.9-0.4,1.7-0.9,2.4-1.6c-0.2-0.7-0.5-1.3-0.9-2C20.7,47.2,19.6,47.7,18.6,48z"/>
		</g>
		<g>
			<path class="st16" d="M14.9,48.4c0.8,1,2.3,2,2.8,2.2c0.6,0,1.5-0.1,2.4-0.4c-0.7-0.7-1.3-1.6-1.8-2.3
				C17.3,48.3,16.2,48.5,14.9,48.4z"/>
			<path class="st17" d="M17.4,48.2c-0.8,0.2-1.6,0.3-2.5,0.3c0.8,1,2.3,2,2.8,2.2c0.4,0,1,0,1.6-0.2C18.5,49.8,17.9,49.1,17.4,48.2
				z"/>
			<path class="st18" d="M18,50.8c-0.1,0-0.2,0-0.3,0l0,0c-0.6-0.2-2.1-1.3-2.9-2.3l-0.2-0.3l0.4,0c1.1,0,2.2-0.2,3.3-0.5l0.1,0
				l0.1,0.1c0.5,0.8,1.1,1.6,1.7,2.3l0.2,0.2l-0.2,0.1C19.4,50.7,18.6,50.8,18,50.8z M17.7,50.5c0.1,0,0.1,0,0.2,0
				c0.6,0,1.2-0.1,1.9-0.4c-0.6-0.6-1.1-1.3-1.6-2c-1,0.3-2,0.4-3,0.5C16.1,49.5,17.3,50.3,17.7,50.5z"/>
		</g>
		<g>
			<path class="st16" d="M21.6,46.3c0.4,0.6,0.8,1.4,1.1,2.2c0.5-0.5,1.1-1.2,1.5-2c-0.2-0.7-0.5-1.3-0.8-1.8
				C23,45.1,22.4,45.7,21.6,46.3z"/>
			<path class="st17" d="M21.6,46.3c0.4,0.6,0.8,1.4,1.1,2.2c0.3-0.3,0.7-0.7,1-1.2c-0.1-0.7-0.5-1.3-1-2
				C22.4,45.7,22.1,46,21.6,46.3z"/>
			<path class="st18" d="M22.6,48.8l-0.1-0.2c-0.3-0.8-0.6-1.5-1-2.2l-0.1-0.1l0.1-0.1c0.6-0.5,1.2-1,1.7-1.6l0.1-0.2l0.1,0.2
				c0.3,0.6,0.6,1.2,0.8,1.9l0,0.1l0,0.1c-0.4,0.8-1,1.4-1.5,2L22.6,48.8z M21.8,46.3c0.4,0.6,0.7,1.2,0.9,1.9
				c0.5-0.5,0.9-1.1,1.3-1.7c-0.2-0.5-0.4-1.1-0.7-1.6C22.9,45.5,22.4,45.9,21.8,46.3z"/>
		</g>
		<g>
			<path class="st16" d="M25.2,42.1c-0.4,0.8-1,1.7-1.5,2.2c-0.1,0.1-0.2,0.2-0.4,0.4c0.3,0.5,0.6,1.1,0.8,1.8
				c0.3-0.4,0.5-0.9,0.7-1.5C25,44.3,25.2,42.7,25.2,42.1z"/>
			<path class="st18" d="M24.2,46.9l-0.1-0.3c-0.2-0.6-0.5-1.2-0.8-1.8l-0.1-0.1l0.1-0.1c0.1-0.1,0.2-0.2,0.3-0.3l0.1-0.1
				c0.5-0.5,1.1-1.6,1.4-2.2l0.4-0.7l-0.1,0.8c-0.1,0.6-0.3,2.2-0.3,2.9l0,0c-0.2,0.5-0.5,1-0.7,1.5L24.2,46.9z M23.6,44.7
				c0.3,0.5,0.5,0.9,0.6,1.4c0.2-0.4,0.4-0.8,0.5-1.1c0-0.5,0.1-1.5,0.2-2.2c-0.4,0.6-0.8,1.2-1.1,1.6l-0.1,0.1
				C23.7,44.6,23.7,44.6,23.6,44.7z"/>
		</g>
	</g>
	<g>
		<path class="st2" d="M16.8,40.3c1.2-1.6,4-0.7,4-0.7c0,0-2.7-0.5-3.8,0.9c-0.9,1.3-0.3,3.9-0.2,3.9C16.8,44.4,15.8,41.6,16.8,40.3
			z"/>
	</g>
	<g>
		<path class="st0" d="M18.3,44.9c-0.3-1.3,0.4-3.3,1.8-3.9C21.2,42.1,20.4,44.9,18.3,44.9z"/>
		<path class="st1" d="M20.3,41.3c0.1,0.3,0.1,0.5,0,0.9c-0.3,1-1,2-1.8,2.7C20.3,44.8,21,42.4,20.3,41.3z"/>
		<path class="st2" d="M18.4,45l-0.2,0l0-0.1c-0.3-1.5,0.4-3.5,1.9-4l0.1,0l0.1,0.1c0.5,0.6,0.6,1.6,0.2,2.6
			C20.1,44.5,19.3,45,18.4,45z M20.1,41.2c-1.3,0.5-1.9,2.2-1.7,3.5c0.8,0,1.4-0.5,1.8-1.4C20.6,42.6,20.5,41.7,20.1,41.2z"/>
	</g>
	<g>
		<path class="st0" d="M43.5,53.4c0.5-3.6,0.4-6.5,0.4-6.5c0,0,1,2.7,0.5,6.4c-0.8,5.5,2.7,8.6,2.8,8.6C47.2,61.9,42.7,59,43.5,53.4
			z"/>
	</g>
	<g>
		<path class="st2" d="M44.1,53.2c0.5-3.6-0.2-6.3-0.2-6.3c0,0,1,2.7,0.5,6.4c-0.8,5.5,2.7,8.6,2.8,8.6
			C47.2,61.9,43.3,58.8,44.1,53.2z"/>
	</g>
	<g>
		<path class="st0" d="M55.2,59.9c0,0,0.7-2.7-0.7-7.1c-1.5-4.4-3.9-6.6-3.9-6.6c0,0,3.7,1.9,5.2,6.4C57.3,57,55.2,59.9,55.2,59.9z"
			/>
	</g>
	<g>
		<path class="st2" d="M55.2,59.9c0,0,0.7-2.7-0.7-7.1c-1.5-4.4-3.9-6.6-3.9-6.6c0,0,2.7,2,4.2,6.5C56.3,57.1,55.2,59.9,55.2,59.9z"
			/>
	</g>
	<g>
		<path class="st2" d="M78.8,78.4c-2.9-4-2.3-8.3-1.7-10.6c0.9-3.2,3.2-4.7,3.2-4.7c0,0-2,1.7-2.9,4.7c-0.6,2.2-1.2,6.4,1.6,10.3
			L78.8,78.4z"/>
	</g>
	<g>
		<path class="st0" d="M56.6,71.1l-10.1-2.6c0,0-0.7,1.3-0.9,3.4c-0.2,2.6,0.2,6.5,1.6,9.9c-1,2-1.3,3.3-0.3,5.2
			c0.7,1.4,0.1,4.5-0.2,7.3c-1.2,1.7-1.6,3.6-0.4,4.5c-1.6,2.2-6.1,3.6-6.2,5.2c0.8,1.6,10.7,2.3,12,0.8c1.3-1.5-0.5-3.4-1.3-4
			c1.2-1,1.4-2.6,0.3-5.4c-1.1-2.8-1-5.9-0.3-7.6c2.3-0.8,1.7-3.7,1-5.2c1.2-1.1,4-3,5.1-6.3C57.9,73,56.6,71.1,56.6,71.1z"/>
		<path class="st1" d="M45.7,71.9c-0.2,2.6,0.2,6.5,1.6,9.9c-1,2-1.3,3.3-0.3,5.2c0.7,1.4,0.1,4.5-0.2,7.3c-1.2,1.7-1.6,3.6-0.4,4.5
			c-1.6,2.2-6.1,3.6-6.2,5.2c0.4,0.8,2.8,1.3,5.5,1.5c0.3-0.3,0.6-0.6,0.8-0.9c0.3-0.6,0-1.5,0.3-2.2c0.6-0.9,2.2-0.9,2.5-1.8
			c0.3-1.5,1-3-0.5-4.9c-0.3-1.1-0.8-5.9,0.5-7.8c0.9-1.8,1.2-4.5,0.6-6c1.2-3.9,4.4-7.3,4.1-11.5l-7.3-1.9
			C46.5,68.5,45.8,69.8,45.7,71.9z"/>
		<path class="st10" d="M48.1,67.6c-1.3,1.5-2.9,6.2-0.8,11.9C46.9,77.4,46.2,71.4,48.1,67.6z"/>
		<path class="st2" d="M47.9,105.6c-1.3,0-2.6-0.1-3.7-0.2c-1.4-0.2-3.8-0.6-4.2-1.5l0,0l0,0c0-1,1.4-1.8,2.9-2.7
			c1.2-0.7,2.5-1.5,3.2-2.5c-1.2-1.1-0.6-3.1,0.4-4.5c0.1-0.5,0.1-1.1,0.2-1.7c0.3-2.2,0.5-4.4,0-5.5c-1-2-0.6-3.4,0.3-5.3
			c-1.4-3.7-1.7-7.5-1.5-9.9c0.2-2.1,1.2-3.3,1.2-3.3c0,0-0.7,1.3-0.9,3.3c-0.2,2.3,0.1,6.2,1.5,9.8l0,0.1l0,0.1
			c-1.1,2.1-1.2,3.4-0.3,5c0.6,1.1,0.3,3.3,0,5.7c-0.1,0.6-0.1,1.1-0.2,1.7l0,0l0,0c-1.1,1.5-1.6,3.4-0.4,4.2l0.1,0.1l-0.1,0.1
			c-0.8,1-2.1,1.9-3.4,2.7c-1.4,0.9-2.7,1.7-2.8,2.4c0.3,0.5,1.8,1,3.9,1.3c3.2,0.4,7.1,0.3,7.8-0.5c0.3-0.4,0.5-0.8,0.4-1.3
			c-0.1-1-1.1-2-1.7-2.5l-0.2-0.1l0.2-0.1c1.2-1,1.3-2.6,0.3-5.2c-1.1-2.9-1-6.1-0.3-7.7l0-0.1l0.1,0c0.6-0.2,1.1-0.6,1.3-1.2
			c0.5-1.1,0.1-2.7-0.4-3.8l0-0.1l0.1-0.1c0.2-0.2,0.4-0.4,0.7-0.6c1.4-1.2,3.5-2.9,4.3-5.6c1-3.1-0.2-5-0.2-5c0,0,1.6,1.8,0.5,5.1
			c-0.9,2.7-3,4.5-4.4,5.7c-0.2,0.2-0.5,0.4-0.6,0.6c0.3,0.7,1,2.5,0.4,3.9c-0.3,0.6-0.7,1.1-1.4,1.3c-0.6,1.6-0.7,4.6,0.4,7.4
			c1,2.6,0.9,4.4-0.2,5.5c0.7,0.5,1.5,1.5,1.7,2.6c0.1,0.6-0.1,1.1-0.5,1.5C51.7,105.4,49.9,105.6,47.9,105.6z"/>
	</g>
	<g>
		<path class="st3" d="M45.6,99.4c-1.9,1.8-5.4,3.1-5.5,4.5c0.8,1.6,10.7,2.3,12,0.8c1.3-1.5-0.5-3.4-1.3-4
			C49.5,100.8,47,100.5,45.6,99.4z"/>
		<path class="st4" d="M48.9,102.7c0.4-0.5,0.5-1.3,0.3-2c-1.2-0.1-2.7-0.5-3.6-1.3c-1.9,1.8-5.4,3.1-5.5,4.5
			c0.4,0.8,3.1,1.4,5.8,1.5C47.2,104.9,48.3,104,48.9,102.7z"/>
		<path class="st5" d="M46.6,100c-0.4-0.2-0.7-0.4-1-0.6c-1.9,1.8-5.4,3.1-5.5,4.5c0,0.1,0.1,0.2,0.2,0.2
			C41.8,102.4,44.4,101.3,46.6,100z"/>
		<path class="st6" d="M47.9,105.6c-2.8,0-7.3-0.5-7.9-1.7l0,0l0,0c0-1,1.4-1.8,2.9-2.7c0.9-0.6,1.9-1.2,2.6-1.9l0.1-0.1l0.1,0.1
			c1.2,1,3.2,1.3,4.5,1.3c0.2,0,0.4,0,0.5,0l0.1,0l0,0c0.7,0.5,1.7,1.5,1.8,2.7c0.1,0.6-0.1,1.1-0.5,1.5
			C51.6,105.5,49.2,105.6,47.9,105.6z M40.3,103.8c0.5,0.8,4,1.5,7.6,1.5c2.2,0,3.7-0.3,4.1-0.7c0.3-0.4,0.5-0.8,0.4-1.3
			c-0.1-1-1.1-2-1.7-2.4c-0.2,0-0.3,0-0.5,0c-1.3,0-3.3-0.3-4.6-1.3c-0.7,0.7-1.7,1.2-2.6,1.8C41.7,102.3,40.4,103.1,40.3,103.8z"/>
	</g>
	<g>
		<g>
			<path class="st3" d="M85.3,98.8c-1.7,1.3-4.1,3.6-3.8,5c0.3,1.6,9.6,1.7,11.2,0.4c1.3-1.1-0.3-2.6-1-3.7
				C89.1,100.7,87,100.1,85.3,98.8z"/>
			<path class="st4" d="M89.1,100.4c-1.4-0.2-2.7-0.8-3.8-1.7c-1.7,1.3-4.1,3.6-3.8,5c0.1,0.4,0.6,0.7,1.5,0.9
				c1.3,0,2.5-0.3,3.7-0.4C88.4,104,89.9,102,89.1,100.4z"/>
			<path class="st5" d="M86,99.2c-0.2-0.1-0.5-0.3-0.7-0.5c-1.7,1.3-4.1,3.6-3.8,5c0,0.2,0.2,0.4,0.5,0.5C82.2,102,84,100.3,86,99.2
				z"/>
			<path class="st6" d="M87.3,105.2c-2.6,0-5.8-0.4-6-1.4c-0.4-1.8,3.2-4.6,3.9-5.2l0.1-0.1l0.1,0.1c1.7,1.4,3.7,1.9,6.2,1.7l0.1,0
				l0.1,0.1c0.1,0.2,0.3,0.4,0.4,0.5c0.8,1,1.9,2.4,0.6,3.4C92,105,89.4,105.2,87.3,105.2z M85.3,98.9c-1.9,1.5-3.9,3.6-3.7,4.8
				c0.1,0.7,2.6,1.2,5.7,1.2c2.5,0,4.6-0.3,5.3-0.8c0.9-0.7,0.3-1.7-0.7-2.9c-0.1-0.2-0.3-0.3-0.4-0.5
				C89.1,100.9,87.1,100.3,85.3,98.9z"/>
		</g>
	</g>
	<g>
		<g>
			<g>
				<g>
					<g>
						<g>
							<g>
								<g>
									<g>
										<g>
											<g>
												<g>
													<g>
														<g>
															<g>
																<g>
																	<path class="st19" d="M31.6,30c0,1.9,1.1,3.5,2.6,3.5c1.4,0.1,2.6-1.4,2.6-3.3c0-1.9-1.1-3.5-2.6-3.5
																		C32.8,26.6,31.6,28.1,31.6,30z"/>
																</g>
															</g>
														</g>
													</g>
													<g>
														<g>
															<g>
																<g>
																	<g>
																		<g>
																			<g>
																				<g>
																					<g>
																						<g>
																							<path class="st17" d="M31.6,30c0,1.9,5.1,2.1,5.1,0.2c0-1.9-1.1-3.5-2.6-3.5C32.8,26.6,31.6,28.1,31.6,30z"
																								/>
																						</g>
																					</g>
																				</g>
																			</g>
																		</g>
																	</g>
																</g>
															</g>
														</g>
													</g>
													<g>
														<g>
															<g>
																<g>
																	<path class="st20" d="M34.2,33.7L34.2,33.7L34.2,33.7c-1.6-0.1-2.8-1.7-2.8-3.7c0-2,1.2-3.5,2.7-3.5h0.1
																		c1.5,0.1,2.7,1.7,2.7,3.7C36.9,32.2,35.7,33.7,34.2,33.7z M34.1,26.8c-1.3,0-2.4,1.4-2.4,3.2
																		c0,1.8,1.1,3.3,2.4,3.4l0.1,0c1.3,0,2.4-1.4,2.4-3.2C36.6,28.4,35.5,26.9,34.1,26.8L34.1,26.8z"/>
																</g>
															</g>
														</g>
													</g>
												</g>
											</g>
										</g>
									</g>
								</g>
							</g>
						</g>
					</g>
				</g>
			</g>
		</g>
		<g>
			<g>
				<g>
					<g>
						<g>
							<g>
								<g>
									<g>
										<g>
											<g>
												<g>
													<path class="st21" d="M32.6,30.3c0,1.2,0.8,2.3,1.7,2.3c0.9,0.1,1.7-0.9,1.7-2.1c0-1.2-0.8-2.3-1.7-2.3
														C33.3,28.1,32.6,29.1,32.6,30.3z"/>
												</g>
											</g>
										</g>
									</g>
								</g>
							</g>
						</g>
					</g>
				</g>
			</g>
			<g>
				<g>
					<g>
						<g>
							<g>
								<g>
									<g>
										<g>
											<g>
												<g>
													<path class="st22" d="M32.6,30.4c0.1,1.2,3.4,1.2,3.4,0c-0.1-1.2-0.9-2.2-1.8-2.2C33.2,28.2,32.5,29.2,32.6,30.4z"/>
												</g>
											</g>
										</g>
									</g>
								</g>
							</g>
						</g>
					</g>
				</g>
			</g>
			<g>
				<g>
					<g>
						<g>
							<g>
								<g>
									<g>
										<g>
											<g>
												<g>
													<path class="st23" d="M32.4,30.3c0-0.6,0.2-1.2,0.5-1.6c0.3-0.4,0.8-0.7,1.3-0.6c0.2,0,0.4,0.1,0.6,0.2
														c0.7,0.4,1.2,1.3,1.2,2.3c0,1.3-0.8,2.3-1.8,2.2c-0.2,0-0.4-0.1-0.6-0.2C32.9,32.2,32.5,31.3,32.4,30.3z M34.2,28.3
														c-0.4,0-0.8,0.2-1.1,0.5c-0.3,0.4-0.5,0.9-0.5,1.5c0,0.9,0.4,1.8,1.1,2.1c0.2,0.1,0.3,0.1,0.5,0.1c0.9,0,1.5-0.9,1.5-2
														c0-0.9-0.4-1.8-1.1-2.1C34.5,28.3,34.4,28.3,34.2,28.3z"/>
												</g>
											</g>
										</g>
									</g>
								</g>
							</g>
						</g>
					</g>
				</g>
			</g>
		</g>
		<g>
			<g>
				<g>
					<g>
						<g>
							<g>
								<g>
									<g>
										<g>
											<g>
												<g>
													<path class="st24" d="M33.3,30.4c-0.1,0.7,0.4,1.4,0.9,1.5c0.6,0.1,1.1-0.4,1.1-1.1c0.1-0.7-0.4-1.4-0.9-1.5
														C33.9,29.2,33.4,29.7,33.3,30.4z"/>
												</g>
											</g>
										</g>
									</g>
								</g>
							</g>
						</g>
					</g>
				</g>
			</g>
		</g>
		<g>
			<g>
				<g>
					<g>
						<g>
							<g>
								<g>
									<g>
										<g>
											<g>
												<g>
													<path class="st17" d="M33.2,29.2c-0.1,0.2,0,0.5,0.2,0.7c0.3,0.1,0.6,0,0.8-0.2c0.1-0.2,0-0.5-0.2-0.7
														C33.6,28.8,33.3,28.9,33.2,29.2z"/>
												</g>
											</g>
										</g>
									</g>
								</g>
							</g>
						</g>
					</g>
				</g>
			</g>
		</g>
		<g>
			<g>
				<g>
					<g>
						<g>
							<g>
								<g>
									<g>
										<g>
											<g>
												<g>
													<path class="st17" d="M33.3,30.3c-0.1,0.1,0,0.3,0.1,0.4c0.2,0.1,0.4,0,0.4-0.1c0.1-0.1,0-0.3-0.1-0.4
														C33.6,30.1,33.4,30.1,33.3,30.3z"/>
												</g>
											</g>
										</g>
									</g>
								</g>
							</g>
						</g>
					</g>
				</g>
			</g>
		</g>
	</g>
	<g>
		<g>
			<g>
				<g>
					<g>
						<g>
							<g>
								<g>
									<g>
										<g>
											<g>
												<g>
													<g>
														<g>
															<g>
																<g>
																	<path class="st19" d="M22.6,28.9c-0.2,1.7,0.6,3.2,1.6,3.3c1.1,0.2,2.1-1.1,2.2-2.8c0.2-1.7-0.5-3.2-1.6-3.3
																		C23.8,25.9,22.8,27.2,22.6,28.9z"/>
																</g>
															</g>
														</g>
													</g>
													<g>
														<g>
															<g>
																<g>
																	<g>
																		<g>
																			<g>
																				<g>
																					<g>
																						<g>
																							<path class="st17" d="M22.6,28.9c-0.2,1.7,3.7,2.2,3.8,0.5c0.2-1.7-0.5-3.2-1.6-3.3
																								C23.8,25.9,22.8,27.2,22.6,28.9z"/>
																						</g>
																					</g>
																				</g>
																			</g>
																		</g>
																	</g>
																</g>
															</g>
														</g>
													</g>
													<g>
														<g>
															<g>
																<g>
																	<path class="st20" d="M24.3,32.3L24.3,32.3L24.3,32.3c-1.2-0.2-1.9-1.7-1.8-3.5c0.2-1.7,1.2-3,2.3-2.9l0.1,0
																		c1.1,0.2,1.9,1.7,1.7,3.5C26.4,31.1,25.4,32.4,24.3,32.3z M24.8,26.2c-1-0.1-1.9,1.1-2.1,2.7
																		c-0.2,1.6,0.5,3,1.5,3.2l0,0c1,0.1,1.9-1.1,2.1-2.7C26.5,27.8,25.8,26.3,24.8,26.2L24.8,26.2z"/>
																</g>
															</g>
														</g>
													</g>
												</g>
											</g>
										</g>
									</g>
								</g>
							</g>
						</g>
					</g>
				</g>
			</g>
		</g>
		<g>
			<g>
				<g>
					<g>
						<g>
							<g>
								<g>
									<g>
										<g>
											<g>
												<g>
													<path class="st21" d="M23.3,29.2c-0.1,1.1,0.4,2.1,1.1,2.2c0.7,0.1,1.3-0.7,1.4-1.8c0.1-1.1-0.4-2.1-1.1-2.2
														C24.1,27.3,23.4,28.1,23.3,29.2z"/>
												</g>
											</g>
										</g>
									</g>
								</g>
							</g>
						</g>
					</g>
				</g>
			</g>
			<g>
				<g>
					<g>
						<g>
							<g>
								<g>
									<g>
										<g>
											<g>
												<g>
													<path class="st22" d="M23.3,29.3c-0.1,1.1,2.5,1.3,2.5,0.2c0.1-1.1-0.5-2-1.2-2.1C24,27.3,23.4,28.2,23.3,29.3z"/>
												</g>
											</g>
										</g>
									</g>
								</g>
							</g>
						</g>
					</g>
				</g>
			</g>
			<g>
				<g>
					<g>
						<g>
							<g>
								<g>
									<g>
										<g>
											<g>
												<g>
													<path class="st23" d="M23.2,29.1c0.1-0.5,0.2-1,0.5-1.4c0.3-0.4,0.7-0.5,1-0.5c0.1,0,0.3,0.1,0.4,0.2
														c0.5,0.4,0.8,1.2,0.7,2.1c-0.1,1.1-0.8,2-1.5,1.9c-0.1,0-0.3-0.1-0.4-0.2C23.4,30.9,23.1,30,23.2,29.1z M24.7,27.5
														c-0.3-0.1-0.6,0.1-0.9,0.4c-0.3,0.3-0.4,0.8-0.5,1.3c-0.1,0.8,0.2,1.6,0.6,1.9c0.1,0.1,0.2,0.1,0.3,0.1
														c0.6,0.1,1.2-0.7,1.3-1.7c0.1-0.8-0.2-1.6-0.6-1.9C25,27.5,24.9,27.5,24.7,27.5z"/>
												</g>
											</g>
										</g>
									</g>
								</g>
							</g>
						</g>
					</g>
				</g>
			</g>
		</g>
		<g>
			<g>
				<g>
					<g>
						<g>
							<g>
								<g>
									<g>
										<g>
											<g>
												<g>
													<path class="st24" d="M23.9,29.3c-0.1,0.6,0.1,1.2,0.6,1.4c0.4,0.1,0.9-0.3,1-0.9c0.1-0.6-0.2-1.2-0.6-1.4
														C24.4,28.3,24,28.7,23.9,29.3z"/>
												</g>
											</g>
										</g>
									</g>
								</g>
							</g>
						</g>
					</g>
				</g>
			</g>
		</g>
		<g>
			<g>
				<g>
					<g>
						<g>
							<g>
								<g>
									<g>
										<g>
											<g>
												<g>
													
														<ellipse transform="matrix(0.5329 -0.8462 0.8462 0.5329 -12.7555 33.7788)" class="st17" cx="24.2" cy="28.4" rx="0.4" ry="0.4"/>
												</g>
											</g>
										</g>
									</g>
								</g>
							</g>
						</g>
					</g>
				</g>
			</g>
		</g>
		<g>
			<g>
				<g>
					<g>
						<g>
							<g>
								<g>
									<g>
										<g>
											<g>
												<g>
													
														<ellipse transform="matrix(0.5297 -0.8482 0.8482 0.5297 -13.5401 34.187)" class="st17" cx="24.1" cy="29.3" rx="0.2" ry="0.2"/>
												</g>
											</g>
										</g>
									</g>
								</g>
							</g>
						</g>
					</g>
				</g>
			</g>
		</g>
	</g>
	<g>
		<g>
			<path class="st24" d="M34,23.7c0,0,1.7,0.3,3.3,2c-0.4-0.2-2.7-1.1-3.7-0.9C33.4,24.7,33.5,23.7,34,23.7z"/>
		</g>
	</g>
	<g>
		<g>
			<path class="st24" d="M26.9,23.3c0,0-1.3,0.5-2.4,2.2c0.3-0.2,2.1-1.3,2.9-1.3C27.6,24,27.4,23.2,26.9,23.3z"/>
		</g>
	</g>
	<g>
		<path class="st7" d="M41.6,18.5c-1.1-3.1-5.7-6.5-11.1-6.3c0.8,0.3,2.1,1.4,2.7,2.2c-3.8-0.6-7.8,1.6-9.5,5.9
			c0.8-0.4,2.2-0.5,3.1-0.4c-2.4,0.9-3.6,3.5-3.5,6.4c1.6-2.9,5.3-5.3,7.9-4.9c2.6,0.4,7,1.2,9.3,0C41.4,21,41.6,18.5,41.6,18.5z"/>
		<path class="st8" d="M40.8,21.1c0.7-0.8,0.8-2.6,0.8-2.6c-1.1-3.1-5.7-6.5-11.1-6.3c0.8,0.3,2.1,1.4,2.7,2.2
			c-3.7-0.6-7.6,1.5-9.4,5.6c1.5-1.2,3.3-2,5.4-1.5c-1.1,0.8-1.9,1.6-3.2,1.8c-1.7,1-2.7,3.1-2.8,5.4c1.9-4.1,6.5-6.9,11.1-5.3
			c-1.2-1.2-3.1-0.9-4.6-1.2C33.5,18.6,37.7,18.9,40.8,21.1z"/>
		<path class="st9" d="M23.2,26.8l0-0.6c-0.1-2.9,1.1-5.2,3.1-6.3c-0.1,0-0.2,0-0.3,0c-0.9,0-1.7,0.1-2.1,0.4l-0.4,0.2l0.2-0.4
			c1.4-3.7,4.7-6.1,8.4-6.1c0.3,0,0.6,0,0.9,0c-0.6-0.7-1.7-1.6-2.4-1.8l-0.8-0.3l0.8,0c5.5-0.2,10.1,3.2,11.2,6.4l0,0l0,0
			c0,0.1-0.2,2.6-1.3,3c-0.8,0.4-2,0.7-3.5,0.7c0,0,0,0,0,0c-1.8,0-3.7-0.3-5.2-0.5l-0.6-0.1c-0.2,0-0.4,0-0.5,0
			c-2.4,0-5.7,2.2-7.2,4.9L23.2,26.8z M26,19.7c0.3,0,0.6,0,0.9,0.1l0.6,0.1L26.9,20c-2.1,0.8-3.4,3-3.5,5.7
			c1.6-2.5,4.7-4.5,7.1-4.5c0.2,0,0.4,0,0.6,0l0.6,0.1c1.5,0.2,3.4,0.5,5.2,0.5c1.5,0,2.6-0.2,3.4-0.6c0.8-0.3,1.1-2,1.1-2.7
			c-1-2.9-5.4-6.1-10.3-6.1c0.8,0.5,1.7,1.3,2.2,2l0.2,0.3l-0.4-0.1c-0.4-0.1-0.8-0.1-1.2-0.1c-3.4,0-6.5,2.2-7.9,5.5
			C24.7,19.7,25.5,19.7,26,19.7z"/>
	</g>
	<g>
		<path class="st9" d="M40.1,21.5c-3.2-3.5-8.6-2.9-8.6-2.9c0,0,5.5-0.9,8.8,2.6L40.1,21.5z"/>
	</g>
	<g>
		<path class="st1" d="M44.2,12.5c-0.3-1.4-0.7-2.7-1.7-2.5c-1,0.2-0.9,1.8-0.9,2.7c-0.4,1.1-2,2.3-3.3,5.9
			c-1.2,3.6-0.3,5.8-0.3,5.8l4.6,1.4c0,0,2.3-1.4,2.7-5.3C45.6,17.8,45.5,15,44.2,12.5z"/>
		<path class="st2" d="M42.5,25.6c0,0,2.2-1.4,2.6-5.1c0.2-2.3,0.3-5.3-1-7.9l0,0c-0.4-1.6-0.8-2.5-1.5-2.4
			c-0.8,0.2-0.8,1.6-0.8,2.5l0,0.1l0,0c-0.2,0.4-0.4,0.8-0.8,1.3c-0.7,0.9-1.6,2.2-2.4,4.5c-1.2,3.5-0.3,5.6-0.3,5.7
			c0,0-1.2-2.2,0-5.8c0.8-2.3,1.8-3.7,2.5-4.6c0.4-0.5,0.6-0.9,0.8-1.2v0c0-1-0.1-2.6,1-2.8c1.2-0.2,1.6,1.4,1.9,2.6
			c1.4,2.7,1.3,5.8,1.1,8.1C45.1,24.4,42.5,25.6,42.5,25.6z"/>
	</g>
	<g>
		<path class="st11" d="M40.2,24.7c-1-2.9,0.3-7.7,2.8-9.1C44.3,17.9,44.2,23.3,40.2,24.7z"/>
		<path class="st12" d="M43.5,16.6c-2.5,1.5-3.3,4.8-2,7.4C43.8,22.3,44.1,18.8,43.5,16.6z"/>
		<path class="st2" d="M40.1,24.9l0-0.2c-0.9-2.9,0.2-7.7,2.9-9.3l0.1-0.1l0.1,0.1c0.7,1.3,1.1,3.8,0.3,6c-0.6,1.6-1.7,2.8-3.2,3.3
			L40.1,24.9z M43,15.8c-2.4,1.5-3.5,6-2.7,8.7c1.7-0.7,2.5-2.1,2.9-3.1C43.9,19.4,43.7,17.1,43,15.8z"/>
	</g>
	<path class="st1" d="M26.8,28.3c0,1.1-0.3,2.6-3.1,4.1c0.5,0.3,2.6-0.1,3.4-1.2C27.8,30.1,27.8,28.3,26.8,28.3z"/>
	<path class="st10" d="M27,30.4c0,0-0.2,0.9-3.3,2.6c-3.1,1.7-6.5,3.4-6.5,3.4c-0.8,0.2-3.6,1.4-3.5,4.3c0.3-1.2,1.2-3.1,3.8-3.9
		C19.5,35.8,26.6,32.5,27,30.4z"/>
	<g>
		<path class="st2" d="M23.5,32.6l-0.1-0.3c3.2-1.5,3.3-3.6,3.3-3.6H27C27,28.8,26.9,31,23.5,32.6z"/>
	</g>
	<g>
		<path class="st2" d="M22.5,53.9c-0.4,0-0.8-0.1-1.1-0.2C20.7,53.3,20,52.5,20,52c0.2-0.3,0.3,0,0.3,0c0.1,0.5,0.6,1.1,1.3,1.4
			c0.4,0.2,1.3,0.2,1.8-0.1c1.3-0.7,1.5-2,1.3-4.6c-0.2-2.2,0-4.1,0.2-5.8c-0.7,1.1-2.2,3-4.4,4.2c-2.7,1.5-4.7,1.6-6.7,1.4l0-0.3
			c1.8,0.2,3.9,0.1,6.6-1.3c2.8-1.5,4.2-4,4.6-4.8l0.5-1.4l-0.2,1.5c-0.3,2.1-0.5,4-0.3,6.5c0.2,2.4,0.3,4-1.5,4.9
			C23.2,53.8,22.9,53.9,22.5,53.9z"/>
	</g>
</g>
</svg>
