<?xml version="1.0" encoding="utf-8"?>
<!-- Generator: Adobe Illustrator 21.0.2, SVG Export Plug-In . SVG Version: 6.00 Build 0)  -->
<svg version="1.1" id="Слой_1" xmlns="http://www.w3.org/2000/svg" xmlns:xlink="http://www.w3.org/1999/xlink" x="0px" y="0px"
	 viewBox="0 0 175 40" style="enable-background:new 0 0 175 40;" xml:space="preserve">
<style type="text/css">
	.st0{fill:url(#SVGID_1_);}
	.st1{fill:url(#SVGID_2_);}
	.st2{fill:#FFFFFF;}
	.st3{fill:url(#SVGID_3_);}
	.st4{fill:url(#SVGID_4_);}
	.st5{fill:url(#SVGID_5_);}
	.st6{fill:#FFFFAD;}
	.st7{fill:url(#SVGID_6_);}
	.st8{fill:url(#SVGID_7_);}
	.st9{fill:url(#SVGID_8_);}
	.st10{fill:url(#SVGID_9_);}
	.st11{fill:url(#SVGID_10_);}
	.st12{fill:url(#SVGID_11_);}
	.st13{fill:url(#SVGID_12_);}
	.st14{fill:url(#SVGID_13_);}
</style>
<g>
	<linearGradient id="SVGID_1_" gradientUnits="userSpaceOnUse" x1="87.2" y1="37.2637" x2="87.2" y2="4.5081">
		<stop  offset="0" style="stop-color:#8D98CD"/>
		<stop  offset="1" style="stop-color:#D1DEFD"/>
	</linearGradient>
	<path class="st0" d="M6.9,9.8c-5.9,3.8-6.8,19-1.6,23.9c4.8,4.5,152,4.9,161.2,0.2c9.2-4.7,7.4-22.3-1.2-26.6
		C156.6,2.9,16.5,3.7,6.9,9.8z"/>
	<linearGradient id="SVGID_2_" gradientUnits="userSpaceOnUse" x1="87.2" y1="36.4186" x2="87.2" y2="3.6631">
		<stop  offset="0" style="stop-color:#CDDAFD"/>
		<stop  offset="1" style="stop-color:#FFFFFF"/>
	</linearGradient>
	<path class="st1" d="M6.9,9C1,12.8,0.1,28,5.2,32.9c4.8,4.5,152,4.9,161.2,0.2c9.2-4.7,7.4-22.3-1.2-26.6C156.6,2.1,16.5,2.8,6.9,9
		z"/>
	<path class="st2" d="M9.8,11.1C5.1,14.3,2.9,27.6,7,31.8c3.8,3.9,122.6,4.4,130,0.3c7.4-4,8.6-19.9,1.7-23.6
		C131.8,4.8,17.5,5.8,9.8,11.1z"/>
	<linearGradient id="SVGID_3_" gradientUnits="userSpaceOnUse" x1="86.1055" y1="34.6492" x2="86.1055" y2="5.7576">
		<stop  offset="0" style="stop-color:#B5CAFC"/>
		<stop  offset="1" style="stop-color:#6A77BC"/>
	</linearGradient>
	<path class="st3" d="M9.8,10.6C5.1,13.8,2.9,27.1,7,31.3c3.8,3.9,147.6,4.8,155,0.7c7.4-4,6.9-20.3,0-24
		C155.1,4.3,17.5,5.2,9.8,10.6z"/>
	<linearGradient id="SVGID_4_" gradientUnits="userSpaceOnUse" x1="86.0238" y1="32.2963" x2="86.0238" y2="8.0678">
		<stop  offset="0" style="stop-color:#B5CAFC"/>
		<stop  offset="1" style="stop-color:#8D98CD"/>
	</linearGradient>
	<path class="st4" d="M12.1,12.1c-4.6,2.7-6.8,14-2.7,17.5c3.8,3.3,142.3,3.9,149.6,0.5s7.8-16.9,1-20C153.2,6.9,19.7,7.6,12.1,12.1
		z"/>
	<g>
		<g>
			
				<radialGradient id="SVGID_5_" cx="580.7284" cy="-456.8127" r="1.2733" gradientTransform="matrix(-5.960000e-02 -0.9982 0.9982 -5.960000e-02 508.3817 564.6657)" gradientUnits="userSpaceOnUse">
				<stop  offset="0" style="stop-color:#64B05F"/>
				<stop  offset="0.1176" style="stop-color:#52914E"/>
				<stop  offset="0.3349" style="stop-color:#355E33"/>
				<stop  offset="0.5391" style="stop-color:#1E351D"/>
				<stop  offset="0.7242" style="stop-color:#0E180D"/>
				<stop  offset="0.8839" style="stop-color:#040603"/>
				<stop  offset="1" style="stop-color:#000000"/>
			</radialGradient>
			<circle class="st5" cx="17.8" cy="12.2" r="1.3"/>
			
				<ellipse transform="matrix(0.9982 -5.970294e-02 5.970294e-02 0.9982 -0.6966 1.0892)" class="st6" cx="17.9" cy="12.2" rx="0.4" ry="0.4"/>
		</g>
		<g>
			
				<radialGradient id="SVGID_6_" cx="567.1253" cy="-390.2324" r="3.5631" gradientTransform="matrix(-5.960000e-02 -0.9982 0.9982 -5.960000e-02 508.3817 564.6657)" gradientUnits="userSpaceOnUse">
				<stop  offset="0" style="stop-color:#64B05F"/>
				<stop  offset="0.1176" style="stop-color:#52914E"/>
				<stop  offset="0.3349" style="stop-color:#355E33"/>
				<stop  offset="0.5391" style="stop-color:#1E351D"/>
				<stop  offset="0.7242" style="stop-color:#0E180D"/>
				<stop  offset="0.8839" style="stop-color:#040603"/>
				<stop  offset="1" style="stop-color:#000000"/>
			</radialGradient>
			<circle class="st7" cx="85.1" cy="21.8" r="3.6"/>
			
				<ellipse transform="matrix(0.9982 -5.964889e-02 5.964889e-02 0.9982 -1.1486 5.1285)" class="st6" cx="85.3" cy="21.8" rx="1" ry="1"/>
		</g>
		<g>
			
				<radialGradient id="SVGID_7_" cx="575.3228" cy="-398.7808" r="1.7019" gradientTransform="matrix(-5.960000e-02 -0.9982 0.9982 -5.960000e-02 508.3817 564.6657)" gradientUnits="userSpaceOnUse">
				<stop  offset="0" style="stop-color:#64B05F"/>
				<stop  offset="0.1176" style="stop-color:#52914E"/>
				<stop  offset="0.3349" style="stop-color:#355E33"/>
				<stop  offset="0.5391" style="stop-color:#1E351D"/>
				<stop  offset="0.7242" style="stop-color:#0E180D"/>
				<stop  offset="0.8839" style="stop-color:#040603"/>
				<stop  offset="1" style="stop-color:#000000"/>
			</radialGradient>
			<circle class="st8" cx="76" cy="14.1" r="1.7"/>
			
				<ellipse transform="matrix(0.9982 -5.974215e-02 5.974215e-02 0.9982 -0.7086 4.5753)" class="st6" cx="76.2" cy="14.1" rx="0.5" ry="0.5"/>
		</g>
		<g>
			
				<radialGradient id="SVGID_8_" cx="571.3472" cy="-453.1684" r="1.7019" gradientTransform="matrix(-5.960000e-02 -0.9982 0.9982 -5.960000e-02 508.3817 564.6657)" gradientUnits="userSpaceOnUse">
				<stop  offset="0" style="stop-color:#64B05F"/>
				<stop  offset="0.1176" style="stop-color:#52914E"/>
				<stop  offset="0.3349" style="stop-color:#355E33"/>
				<stop  offset="0.5391" style="stop-color:#1E351D"/>
				<stop  offset="0.7242" style="stop-color:#0E180D"/>
				<stop  offset="0.8839" style="stop-color:#040603"/>
				<stop  offset="1" style="stop-color:#000000"/>
			</radialGradient>
			<circle class="st9" cx="22" cy="21.4" r="1.7"/>
			
				<ellipse transform="matrix(0.9982 -5.963641e-02 5.963641e-02 0.9982 -1.2338 1.3565)" class="st6" cx="22.1" cy="21.3" rx="0.5" ry="0.5"/>
		</g>
		<g>
			
				<radialGradient id="SVGID_9_" cx="575.6316" cy="-404.0199" r="0.8509" gradientTransform="matrix(-5.960000e-02 -0.9982 0.9982 -5.960000e-02 508.3817 564.6657)" gradientUnits="userSpaceOnUse">
				<stop  offset="0" style="stop-color:#64B05F"/>
				<stop  offset="0.1176" style="stop-color:#52914E"/>
				<stop  offset="0.3349" style="stop-color:#355E33"/>
				<stop  offset="0.5391" style="stop-color:#1E351D"/>
				<stop  offset="0.7242" style="stop-color:#0E180D"/>
				<stop  offset="0.8839" style="stop-color:#040603"/>
				<stop  offset="1" style="stop-color:#000000"/>
			</radialGradient>
			<circle class="st10" cx="70.8" cy="14.1" r="0.9"/>
			
				<ellipse transform="matrix(0.9982 -5.963010e-02 5.963010e-02 0.9982 -0.7174 4.2498)" class="st6" cx="70.8" cy="14.1" rx="0.2" ry="0.2"/>
		</g>
		<g>
			
				<radialGradient id="SVGID_10_" cx="566.4206" cy="-463.3847" r="0.8509" gradientTransform="matrix(-5.960000e-02 -0.9982 0.9982 -5.960000e-02 508.3817 564.6657)" gradientUnits="userSpaceOnUse">
				<stop  offset="0" style="stop-color:#64B05F"/>
				<stop  offset="0.1176" style="stop-color:#52914E"/>
				<stop  offset="0.3349" style="stop-color:#355E33"/>
				<stop  offset="0.5391" style="stop-color:#1E351D"/>
				<stop  offset="0.7242" style="stop-color:#0E180D"/>
				<stop  offset="0.8839" style="stop-color:#040603"/>
				<stop  offset="1" style="stop-color:#000000"/>
			</radialGradient>
			<circle class="st11" cx="12.1" cy="26.9" r="0.9"/>
			
				<ellipse transform="matrix(0.9982 -5.963010e-02 5.963010e-02 0.9982 -1.5812 0.7716)" class="st6" cx="12.1" cy="26.9" rx="0.2" ry="0.2"/>
		</g>
		<g>
			
				<radialGradient id="SVGID_11_" cx="569.3594" cy="-456.3609" r="0.6344" gradientTransform="matrix(-5.960000e-02 -0.9982 0.9982 -5.960000e-02 508.3817 564.6657)" gradientUnits="userSpaceOnUse">
				<stop  offset="0" style="stop-color:#64B05F"/>
				<stop  offset="0.1176" style="stop-color:#52914E"/>
				<stop  offset="0.3349" style="stop-color:#355E33"/>
				<stop  offset="0.5391" style="stop-color:#1E351D"/>
				<stop  offset="0.7242" style="stop-color:#0E180D"/>
				<stop  offset="0.8839" style="stop-color:#040603"/>
				<stop  offset="1" style="stop-color:#000000"/>
			</radialGradient>
			<circle class="st12" cx="18.9" cy="23.5" r="0.6"/>
			
				<ellipse transform="matrix(0.9982 -5.977317e-02 5.977317e-02 0.9982 -1.3724 1.1752)" class="st6" cx="19" cy="23.5" rx="0.2" ry="0.2"/>
		</g>
		<g>
			
				<radialGradient id="SVGID_12_" cx="564.3383" cy="-412.4553" r="1.3291" gradientTransform="matrix(-5.960000e-02 -0.9982 0.9982 -5.960000e-02 508.3817 564.6657)" gradientUnits="userSpaceOnUse">
				<stop  offset="0" style="stop-color:#64B05F"/>
				<stop  offset="0.1176" style="stop-color:#52914E"/>
				<stop  offset="0.3349" style="stop-color:#355E33"/>
				<stop  offset="0.5391" style="stop-color:#1E351D"/>
				<stop  offset="0.7242" style="stop-color:#0E180D"/>
				<stop  offset="0.8839" style="stop-color:#040603"/>
				<stop  offset="1" style="stop-color:#000000"/>
			</radialGradient>
			<circle class="st13" cx="63" cy="25.9" r="1.3"/>
			
				<ellipse transform="matrix(0.9982 -5.964589e-02 5.964589e-02 0.9982 -1.4336 3.812)" class="st6" cx="63.1" cy="25.9" rx="0.4" ry="0.4"/>
		</g>
		<g>
			
				<radialGradient id="SVGID_13_" cx="565.0527" cy="-440.4756" r="1.3291" gradientTransform="matrix(-5.960000e-02 -0.9982 0.9982 -5.960000e-02 508.3817 564.6657)" gradientUnits="userSpaceOnUse">
				<stop  offset="0" style="stop-color:#64B05F"/>
				<stop  offset="0.1176" style="stop-color:#52914E"/>
				<stop  offset="0.3349" style="stop-color:#355E33"/>
				<stop  offset="0.5391" style="stop-color:#1E351D"/>
				<stop  offset="0.7242" style="stop-color:#0E180D"/>
				<stop  offset="0.8839" style="stop-color:#040603"/>
				<stop  offset="1" style="stop-color:#000000"/>
			</radialGradient>
			<circle class="st14" cx="35" cy="26.9" r="1.3"/>
			
				<ellipse transform="matrix(0.9982 -5.964589e-02 5.964589e-02 0.9982 -1.5405 2.1429)" class="st6" cx="35.1" cy="26.9" rx="0.4" ry="0.4"/>
		</g>
	</g>
	<path class="st2" d="M168.7,11.3c-0.2,0.8-7.2-3.6-7.1-4.5s4.1,0.4,4.9,1C167.4,8.4,168.9,10.5,168.7,11.3z"/>
	<path class="st2" d="M169.3,13c0.6-0.5,1.4,2.2,0.8,2.8C169.5,16.5,168.7,13.5,169.3,13z"/>
</g>
</svg>
