<?xml version="1.0" encoding="utf-8"?>
<!-- Generator: Adobe Illustrator 21.0.2, SVG Export Plug-In . SVG Version: 6.00 Build 0)  -->
<svg version="1.1" id="Слой_1" xmlns="http://www.w3.org/2000/svg" xmlns:xlink="http://www.w3.org/1999/xlink" x="0px" y="0px"
	 viewBox="0 0 18 25" style="enable-background:new 0 0 18 25;" xml:space="preserve">
<style type="text/css">
	.st0{fill:url(#SVGID_1_);}
	.st1{fill:url(#SVGID_2_);}
	.st2{fill:url(#SVGID_3_);}
	.st3{fill:#FFFFFF;}
</style>
<g>
	<g>
		<linearGradient id="SVGID_1_" gradientUnits="userSpaceOnUse" x1="9.1456" y1="21.078" x2="9.1456" y2="0.5387">
			<stop  offset="0" style="stop-color:#ccc"/>
			<stop  offset="1" style="stop-color:#555"/>
		</linearGradient>
		<path class="st0" d="M5.7,21.1c0,0-4.9-9-2.5-16s11.8-4.8,12.5,0c1,7.4-3.4,15.5-3.4,15.5L5.7,21.1z"/>
		<linearGradient id="SVGID_2_" gradientUnits="userSpaceOnUse" x1="9.2683" y1="20.8527" x2="9.2683" y2="6.1579">
			<stop  offset="0" style="stop-color:#B9BF00"/>
			<stop  offset="1" style="stop-color:#F5FFAA"/>
		</linearGradient>
		<path class="st1" d="M8.3,20.9v-6.2c0,0-2.2-2.1-2-2.8c0.1-0.3,0.9-0.5,1.8-0.8c1-0.3,1.9-0.6,2.1-1.1c0.2-0.9-3.9-0.8-3.5-2.5
			s5.1-2.1,5.6,0c0.5,2.1-1.9,3.2-1.9,3.2s2.2-2.1,1.5-3.2C11,6.4,7.6,5.9,7.4,7.6c-0.2,1.7,4.4,1.4,4,3.2c-0.3,1.8-4.3,0.2-4.2,1.5
			c0,1.3,1.6,1.6,2.2,2.8c0.5,1.2,0.2,5.8,0.2,5.8H8.3z"/>
		<radialGradient id="SVGID_3_" cx="9.5391" cy="22.1409" r="4.229" gradientUnits="userSpaceOnUse">
			<stop  offset="0" style="stop-color:#F9F9FC"/>
			<stop  offset="1" style="stop-color:#BFBDEB"/>
		</radialGradient>
		<path class="st2" d="M4,24.4v-3c0,0,4.1-1.7,10.5-1.5l0.6,4.5H4z"/>
		<path class="st3" d="M11.1,2.8c0,0,1.5,1.3,2.1,4.5l2.2-0.5c0,0,0.1-3-2.1-4.4L11.1,2.8z"/>
	</g>
</g>
</svg>
