<?xml version="1.0" encoding="utf-8"?>
<!-- Generator: Adobe Illustrator 21.0.2, SVG Export Plug-In . SVG Version: 6.00 Build 0)  -->
<svg version="1.1" id="Слой_1" xmlns="http://www.w3.org/2000/svg" xmlns:xlink="http://www.w3.org/1999/xlink" x="0px" y="0px"
	 viewBox="0 0 140 68" style="enable-background:new 0 0 140 68;" xml:space="preserve">
<style type="text/css">
	.st0{fill:url(#SVGID_1_);}
	.st1{fill:url(#SVGID_2_);}
	.st2{fill:#FFFFFF;}
	.st3{fill:#CED4FC;}
	.st4{fill:url(#SVGID_3_);}
	.st5{fill:url(#SVGID_4_);}
	.st6{fill:url(#SVGID_5_);}
	.st7{fill:url(#SVGID_6_);}
	.st8{fill:url(#SVGID_7_);}
	.st9{fill:url(#SVGID_8_);}
	.st10{fill:#FFFFAD;}
	.st11{fill:url(#SVGID_9_);}
	.st12{fill:url(#SVGID_10_);}
	.st13{fill:url(#SVGID_11_);}
	.st14{fill:url(#SVGID_12_);}
	.st15{fill:url(#SVGID_13_);}
	.st16{fill:url(#SVGID_14_);}
	.st17{fill:url(#SVGID_15_);}
	.st18{fill:url(#SVGID_16_);}
	.st19{fill:url(#SVGID_17_);}
	.st20{fill:url(#SVGID_18_);}
	.st21{fill:url(#SVGID_19_);}
	.st22{fill:url(#SVGID_20_);}
</style>
<g>
	<linearGradient id="SVGID_1_" gradientUnits="userSpaceOnUse" x1="69.7169" y1="66.7283" x2="69.7169" y2="2.5088">
		<stop  offset="0" style="stop-color:#8D98CD"/>
		<stop  offset="1" style="stop-color:#D1DEFD"/>
	</linearGradient>
	<path class="st0" d="M133.6,59.1c-0.1,0.1-0.3,0.3-0.4,0.4c-11.8,9.7-114.5,9.3-128.8,0.6c-0.7-0.5-1.2-0.9-1.5-1.4
		C-2.1,48.2,0.7,16.4,8.7,9.6c8.6-7.4,111.9-10.7,122.5-1.3C139.1,15.1,142.8,49.5,133.6,59.1z"/>
	<linearGradient id="SVGID_2_" gradientUnits="userSpaceOnUse" x1="69.7171" y1="64.6447" x2="69.7171" y2="0.4232">
		<stop  offset="0" style="stop-color:#CDDAFD"/>
		<stop  offset="1" style="stop-color:#FFFFFF"/>
	</linearGradient>
	<path class="st1" d="M3,56.6c4.9,10.2,120.6,11,130.7,0.4c9.2-9.6,5.4-44-2.4-50.9C120.6-3.2,17.3,0.1,8.7,7.5
		C0.7,14.3-2.1,46.1,3,56.6z"/>
	<path class="st2" d="M7.7,53.2c0,0,15.6,8.4,63.7,8.4c48.1,0,55.8-8.4,55.8-8.4H7.7z"/>
	<path class="st3" d="M133.2,53.2v6.4c-11.8,9.7-114.5,9.3-128.8,0.6l0.3-1.9l2.9-5.1l123.4-5.7L133.2,53.2z"/>
	<radialGradient id="SVGID_3_" cx="70.5642" cy="56.3347" r="49.4945" gradientUnits="userSpaceOnUse">
		<stop  offset="0" style="stop-color:#EDBB2C"/>
		<stop  offset="1" style="stop-color:#E17635"/>
	</radialGradient>
	<path class="st4" d="M6.6,52c4.4,9.2,111.9,11.8,121.1,2.2c8.3-8.7,4.9-40-2.2-46.2c-9.7-8.5-105.2-2.5-113,4.2
		C5.1,18.4,2,42.4,6.6,52z"/>
	<linearGradient id="SVGID_4_" gradientUnits="userSpaceOnUse" x1="68.4923" y1="57.359" x2="68.4923" y2="4.3589">
		<stop  offset="0" style="stop-color:#FBF239"/>
		<stop  offset="1" style="stop-color:#E69523"/>
	</linearGradient>
	<path class="st5" d="M6.9,50.4c4.4,8.9,111.3,9.5,120.4,0.3c8.3-8.4,5-36.3-2.1-42.3c-9.7-8.2-104.8-2.4-112.6,4
		C5.4,18.4,2.4,41.2,6.9,50.4z"/>
	<linearGradient id="SVGID_5_" gradientUnits="userSpaceOnUse" x1="68.4923" y1="56.3644" x2="68.4923" y2="4.9319">
		<stop  offset="0" style="stop-color:#F0CA30"/>
		<stop  offset="1" style="stop-color:#E69523"/>
	</linearGradient>
	<path class="st6" d="M8.3,49.6c4.3,8.6,108.8,9.3,117.8,0.3c8.1-8.2,4.9-35.2-2-41c-9.4-7.9-102.5-2.4-110.2,3.9
		C6.7,18.6,3.8,40.6,8.3,49.6z"/>
	<linearGradient id="SVGID_6_" gradientUnits="userSpaceOnUse" x1="13.5888" y1="15.2629" x2="129.1263" y2="15.2629">
		<stop  offset="0" style="stop-color:#E69648"/>
		<stop  offset="0.106" style="stop-color:#D68C43"/>
		<stop  offset="0.3137" style="stop-color:#AC7036"/>
		<stop  offset="0.6026" style="stop-color:#684420"/>
		<stop  offset="0.9587" style="stop-color:#0B0704"/>
		<stop  offset="1" style="stop-color:#000000"/>
	</linearGradient>
	<path class="st7" d="M13.6,12.8c0,0,72.9-14.8,110.7-3.8c0,0,3.3,4.2,4.8,10.7c0,0-13.8,4.9-33.2,5.8
		c-19.4,0.9-39.8-10.1-56.2-11.7C23.3,12.2,13.6,12.8,13.6,12.8z"/>
	
		<linearGradient id="SVGID_7_" gradientUnits="userSpaceOnUse" x1="44.0169" y1="50.0033" x2="154.1623" y2="50.0033" gradientTransform="matrix(-1 0 0 1 167.9346 0)">
		<stop  offset="0" style="stop-color:#DF6144"/>
		<stop  offset="0.1089" style="stop-color:#CF5A3F"/>
		<stop  offset="0.322" style="stop-color:#A54832"/>
		<stop  offset="0.6185" style="stop-color:#612A1E"/>
		<stop  offset="0.9841" style="stop-color:#040201"/>
		<stop  offset="1" style="stop-color:#000000"/>
	</linearGradient>
	<path class="st8" d="M123.9,50c0,0-48.8,8.6-110.1,1c0,0,39.9,3.5,57.6,0C101.5,45.2,116,43.5,123.9,50z"/>
	<path class="st2" d="M10.9,16.5c0,0,1.5-3.1,5.1-4.8c3.5-1.7,13.6-3.4,14.2-2.9c0.6,0.4-4.9,2.4-7.8,3.5S12.3,17.3,10.9,16.5z"/>
	<path class="st2" d="M10.5,17.4c-0.7,0.1-2.6,5.8-2.4,6.7c0.1,0.9,2.3-2,2.6-3.6C11.1,18.9,10.5,17.4,10.5,17.4z"/>
	<g>
		<g>
			
				<radialGradient id="SVGID_8_" cx="503.8444" cy="-483.0009" r="1.5263" gradientTransform="matrix(-5.960000e-02 -0.9982 0.9982 -5.960000e-02 536.2243 496.8969)" gradientUnits="userSpaceOnUse">
				<stop  offset="0" style="stop-color:#64B05F"/>
				<stop  offset="0.1176" style="stop-color:#52914E"/>
				<stop  offset="0.3349" style="stop-color:#355E33"/>
				<stop  offset="0.5391" style="stop-color:#1E351D"/>
				<stop  offset="0.7242" style="stop-color:#0E180D"/>
				<stop  offset="0.8839" style="stop-color:#040603"/>
				<stop  offset="1" style="stop-color:#000000"/>
			</radialGradient>
			<circle class="st9" cx="24.1" cy="22.7" r="1.5"/>
			
				<ellipse transform="matrix(0.9982 -5.963868e-02 5.963868e-02 0.9982 -1.3131 1.4826)" class="st10" cx="24.2" cy="22.7" rx="0.4" ry="0.4"/>
		</g>
		<g>
			
				<radialGradient id="SVGID_9_" cx="510.2612" cy="-480.5408" r="1.5262" gradientTransform="matrix(-5.960000e-02 -0.9982 0.9982 -5.960000e-02 536.2243 496.8969)" gradientUnits="userSpaceOnUse">
				<stop  offset="0" style="stop-color:#64B05F"/>
				<stop  offset="0.1176" style="stop-color:#52914E"/>
				<stop  offset="0.3349" style="stop-color:#355E33"/>
				<stop  offset="0.5391" style="stop-color:#1E351D"/>
				<stop  offset="0.7242" style="stop-color:#0E180D"/>
				<stop  offset="0.8839" style="stop-color:#040603"/>
				<stop  offset="1" style="stop-color:#000000"/>
			</radialGradient>
			<circle class="st11" cx="26.1" cy="16.2" r="1.5"/>
			
				<ellipse transform="matrix(0.9982 -5.963057e-02 5.963057e-02 0.9982 -0.9185 1.5944)" class="st10" cx="26.3" cy="16.2" rx="0.4" ry="0.4"/>
		</g>
		<g>
			
				<radialGradient id="SVGID_10_" cx="491.5692" cy="-482.8821" r="1.5262" gradientTransform="matrix(-5.960000e-02 -0.9982 0.9982 -5.960000e-02 536.2243 496.8969)" gradientUnits="userSpaceOnUse">
				<stop  offset="0" style="stop-color:#64B05F"/>
				<stop  offset="0.1176" style="stop-color:#52914E"/>
				<stop  offset="0.3349" style="stop-color:#355E33"/>
				<stop  offset="0.5391" style="stop-color:#1E351D"/>
				<stop  offset="0.7242" style="stop-color:#0E180D"/>
				<stop  offset="0.8839" style="stop-color:#040603"/>
				<stop  offset="1" style="stop-color:#000000"/>
			</radialGradient>
			<circle class="st12" cx="24.9" cy="35" r="1.5"/>
			
				<ellipse transform="matrix(0.9982 -5.963057e-02 5.963057e-02 0.9982 -2.0416 1.5549)" class="st10" cx="25" cy="35" rx="0.4" ry="0.4"/>
		</g>
		<g>
			
				<radialGradient id="SVGID_11_" cx="511.3646" cy="-488.7326" r="4.2709" gradientTransform="matrix(-5.960000e-02 -0.9982 0.9982 -5.960000e-02 536.2243 496.8969)" gradientUnits="userSpaceOnUse">
				<stop  offset="0" style="stop-color:#64B05F"/>
				<stop  offset="0.1176" style="stop-color:#52914E"/>
				<stop  offset="0.3349" style="stop-color:#355E33"/>
				<stop  offset="0.5391" style="stop-color:#1E351D"/>
				<stop  offset="0.7242" style="stop-color:#0E180D"/>
				<stop  offset="0.8839" style="stop-color:#040603"/>
				<stop  offset="1" style="stop-color:#000000"/>
			</radialGradient>
			<circle class="st13" cx="17.9" cy="15.6" r="4.3"/>
			
				<ellipse transform="matrix(0.9982 -5.965889e-02 5.965889e-02 0.9982 -0.8959 1.115)" class="st10" cx="18.2" cy="15.6" rx="1.2" ry="1.2"/>
		</g>
		<g>
			
				<radialGradient id="SVGID_12_" cx="475.2643" cy="-403.0776" r="4.2708" gradientTransform="matrix(-5.960000e-02 -0.9982 0.9982 -5.960000e-02 536.2243 496.8969)" gradientUnits="userSpaceOnUse">
				<stop  offset="0" style="stop-color:#64B05F"/>
				<stop  offset="0.1176" style="stop-color:#52914E"/>
				<stop  offset="0.3349" style="stop-color:#355E33"/>
				<stop  offset="0.5391" style="stop-color:#1E351D"/>
				<stop  offset="0.7242" style="stop-color:#0E180D"/>
				<stop  offset="0.8839" style="stop-color:#040603"/>
				<stop  offset="1" style="stop-color:#000000"/>
			</radialGradient>
			<circle class="st14" cx="105.5" cy="46.5" r="4.3"/>
			
				<ellipse transform="matrix(0.9982 -5.961676e-02 5.961676e-02 0.9982 -2.5834 6.3948)" class="st10" cx="105.9" cy="46.5" rx="1.2" ry="1.2"/>
		</g>
		<g>
			
				<radialGradient id="SVGID_13_" cx="478.222" cy="-380.9559" r="2.0399" gradientTransform="matrix(-5.960000e-02 -0.9982 0.9982 -5.960000e-02 536.2243 496.8969)" gradientUnits="userSpaceOnUse">
				<stop  offset="0" style="stop-color:#64B05F"/>
				<stop  offset="0.1176" style="stop-color:#52914E"/>
				<stop  offset="0.3349" style="stop-color:#355E33"/>
				<stop  offset="0.5391" style="stop-color:#1E351D"/>
				<stop  offset="0.7242" style="stop-color:#0E180D"/>
				<stop  offset="0.8839" style="stop-color:#040603"/>
				<stop  offset="1" style="stop-color:#000000"/>
			</radialGradient>
			<circle class="st15" cx="127.5" cy="42.2" r="2"/>
			
				<ellipse transform="matrix(0.9982 -5.966647e-02 5.966647e-02 0.9982 -2.2924 7.6893)" class="st10" cx="127.6" cy="42.2" rx="0.6" ry="0.6"/>
		</g>
		<g>
			
				<radialGradient id="SVGID_14_" cx="480.3247" cy="-478.5139" r="2.0399" gradientTransform="matrix(-5.960000e-02 -0.9982 0.9982 -5.960000e-02 536.2243 496.8969)" gradientUnits="userSpaceOnUse">
				<stop  offset="0" style="stop-color:#64B05F"/>
				<stop  offset="0.1176" style="stop-color:#52914E"/>
				<stop  offset="0.3349" style="stop-color:#355E33"/>
				<stop  offset="0.5391" style="stop-color:#1E351D"/>
				<stop  offset="0.7242" style="stop-color:#0E180D"/>
				<stop  offset="0.8839" style="stop-color:#040603"/>
				<stop  offset="1" style="stop-color:#000000"/>
			</radialGradient>
			<circle class="st16" cx="29.9" cy="46" r="2"/>
			
				<ellipse transform="matrix(0.9982 -5.967267e-02 5.967267e-02 0.9982 -2.6881 1.8782)" class="st10" cx="30.1" cy="45.9" rx="0.6" ry="0.6"/>
		</g>
		<g>
			
				<radialGradient id="SVGID_15_" cx="485.4602" cy="-419.6035" r="1.0199" gradientTransform="matrix(-5.960000e-02 -0.9982 0.9982 -5.960000e-02 536.2243 496.8969)" gradientUnits="userSpaceOnUse">
				<stop  offset="0" style="stop-color:#64B05F"/>
				<stop  offset="0.1176" style="stop-color:#52914E"/>
				<stop  offset="0.3349" style="stop-color:#355E33"/>
				<stop  offset="0.5391" style="stop-color:#1E351D"/>
				<stop  offset="0.7242" style="stop-color:#0E180D"/>
				<stop  offset="0.8839" style="stop-color:#040603"/>
				<stop  offset="1" style="stop-color:#000000"/>
			</radialGradient>
			<circle class="st17" cx="88.4" cy="37.3" r="1"/>
			
				<ellipse transform="matrix(0.9982 -5.966647e-02 5.966647e-02 0.9982 -2.0687 5.3483)" class="st10" cx="88.5" cy="37.3" rx="0.3" ry="0.3"/>
		</g>
		<g>
			
				<radialGradient id="SVGID_16_" cx="477.0481" cy="-496.9143" r="1.0199" gradientTransform="matrix(-5.960000e-02 -0.9982 0.9982 -5.960000e-02 536.2243 496.8969)" gradientUnits="userSpaceOnUse">
				<stop  offset="0" style="stop-color:#64B05F"/>
				<stop  offset="0.1176" style="stop-color:#52914E"/>
				<stop  offset="0.3349" style="stop-color:#355E33"/>
				<stop  offset="0.5391" style="stop-color:#1E351D"/>
				<stop  offset="0.7242" style="stop-color:#0E180D"/>
				<stop  offset="0.8839" style="stop-color:#040603"/>
				<stop  offset="1" style="stop-color:#000000"/>
			</radialGradient>
			<circle class="st18" cx="11.8" cy="50.3" r="1"/>
			
				<ellipse transform="matrix(0.9982 -5.965593e-02 5.965593e-02 0.9982 -2.9807 0.7966)" class="st10" cx="11.9" cy="50.3" rx="0.3" ry="0.3"/>
		</g>
		<g>
			
				<radialGradient id="SVGID_17_" cx="492.8174" cy="-467.2629" r="1.0199" gradientTransform="matrix(-5.960000e-02 -0.9982 0.9982 -5.960000e-02 536.2243 496.8969)" gradientUnits="userSpaceOnUse">
				<stop  offset="0" style="stop-color:#64B05F"/>
				<stop  offset="0.1176" style="stop-color:#52914E"/>
				<stop  offset="0.3349" style="stop-color:#355E33"/>
				<stop  offset="0.5391" style="stop-color:#1E351D"/>
				<stop  offset="0.7242" style="stop-color:#0E180D"/>
				<stop  offset="0.8839" style="stop-color:#040603"/>
				<stop  offset="1" style="stop-color:#000000"/>
			</radialGradient>
			<circle class="st19" cx="40.4" cy="32.8" r="1"/>
			
				<ellipse transform="matrix(0.9982 -5.966647e-02 5.966647e-02 0.9982 -1.8855 2.4755)" class="st10" cx="40.5" cy="32.8" rx="0.3" ry="0.3"/>
		</g>
		<g>
			
				<radialGradient id="SVGID_18_" cx="477.942" cy="-482.3406" r="0.7604" gradientTransform="matrix(-5.960000e-02 -0.9982 0.9982 -5.960000e-02 536.2243 496.8969)" gradientUnits="userSpaceOnUse">
				<stop  offset="0" style="stop-color:#64B05F"/>
				<stop  offset="0.1176" style="stop-color:#52914E"/>
				<stop  offset="0.3349" style="stop-color:#355E33"/>
				<stop  offset="0.5391" style="stop-color:#1E351D"/>
				<stop  offset="0.7242" style="stop-color:#0E180D"/>
				<stop  offset="0.8839" style="stop-color:#040603"/>
				<stop  offset="1" style="stop-color:#000000"/>
			</radialGradient>
			<circle class="st20" cx="26.3" cy="48.6" r="0.8"/>
			
				<ellipse transform="matrix(0.9982 -5.961531e-02 5.961531e-02 0.9982 -2.848 1.6558)" class="st10" cx="26.3" cy="48.6" rx="0.2" ry="0.2"/>
		</g>
		<g>
			
				<radialGradient id="SVGID_19_" cx="471.9237" cy="-429.7144" r="1.5931" gradientTransform="matrix(-5.960000e-02 -0.9982 0.9982 -5.960000e-02 536.2243 496.8969)" gradientUnits="userSpaceOnUse">
				<stop  offset="0" style="stop-color:#64B05F"/>
				<stop  offset="0.1176" style="stop-color:#52914E"/>
				<stop  offset="0.3349" style="stop-color:#355E33"/>
				<stop  offset="0.5391" style="stop-color:#1E351D"/>
				<stop  offset="0.7242" style="stop-color:#0E180D"/>
				<stop  offset="0.8839" style="stop-color:#040603"/>
				<stop  offset="1" style="stop-color:#000000"/>
			</radialGradient>
			<circle class="st21" cx="79.2" cy="51.4" r="1.6"/>
			
				<ellipse transform="matrix(0.9982 -5.961898e-02 5.961898e-02 0.9982 -2.925 4.8181)" class="st10" cx="79.3" cy="51.4" rx="0.4" ry="0.4"/>
		</g>
		<g>
			
				<radialGradient id="SVGID_20_" cx="472.7801" cy="-463.3002" r="1.5931" gradientTransform="matrix(-5.960000e-02 -0.9982 0.9982 -5.960000e-02 536.2243 496.8969)" gradientUnits="userSpaceOnUse">
				<stop  offset="0" style="stop-color:#64B05F"/>
				<stop  offset="0.1176" style="stop-color:#52914E"/>
				<stop  offset="0.3349" style="stop-color:#355E33"/>
				<stop  offset="0.5391" style="stop-color:#1E351D"/>
				<stop  offset="0.7242" style="stop-color:#0E180D"/>
				<stop  offset="0.8839" style="stop-color:#040603"/>
				<stop  offset="1" style="stop-color:#000000"/>
			</radialGradient>
			<circle class="st22" cx="45.6" cy="52.6" r="1.6"/>
			
				<ellipse transform="matrix(0.9982 -5.963410e-02 5.963410e-02 0.9982 -3.0538 2.8191)" class="st10" cx="45.7" cy="52.6" rx="0.4" ry="0.4"/>
		</g>
	</g>
	<path class="st2" d="M122.6,52.5c-0.5-0.9,4-5.1,5.1-5c1.1,0,0.1,2.7-0.6,3.4C126.5,51.4,122.9,52.9,122.6,52.5z"/>
</g>
</svg>
