<?xml version="1.0" encoding="utf-8"?>
<!-- Generator: Adobe Illustrator 21.0.2, SVG Export Plug-In . SVG Version: 6.00 Build 0)  -->
<svg version="1.1" id="Слой_1" xmlns="http://www.w3.org/2000/svg" xmlns:xlink="http://www.w3.org/1999/xlink" x="0px" y="0px"
	 viewBox="0 0 130 114" style="enable-background:new 0 0 130 114;" xml:space="preserve">
<style type="text/css">
	.st0{fill:#7DBBEA;}
	.st1{fill:#9ACEFC;}
	.st2{fill:#63A1CE;}
	.st3{fill:#F2ADAD;}
	.st4{fill:#FFD2D2;}
	.st5{fill:#B2D7ED;}
	.st6{fill:#D4EDFF;}
	.st7{fill:#86B8D1;}
	.st8{fill:#FF9F9C;}
	.st9{fill:#F9D4D4;}
	.st10{fill:#EA7F7F;}
	.st11{fill:#FFFFFF;}
	.st12{fill:#B57400;}
	.st13{fill:#190000;}
	.st14{fill:#7E3B02;}
	.st15{fill:#BABABA;}
	.st16{fill:#945602;}
	.st17{fill:#FFABAB;}
	.st18{fill:#E27D7D;}
</style>
<g>
	<g>
		<path class="st0" d="M46.2,64.3c-2.5-2.6-5.3-3-5.3-3l-7.5,1c0,0,0,3.2,3.2,5.2c2.6,1.6,5.2,0.8,5.8,1.8c-0.7,2.8,0.8,5.1,2.6,5.4
			c1.8,0.3,3.1-1.4,3.3-3.8C48.6,68.3,48.3,64.9,46.2,64.3z"/>
		<path class="st1" d="M46.2,64.3c-2.5-2.6-5.3-3-5.3-3l-7.5,1c0,0,0.2,2.1,3.4,4.1c2.6,1.6,6.2-0.2,6.8,0.8
			c-0.7,2.8,0.1,5.4,1.9,5.7c1.8,0.3,2.3-1,2.5-3.5C48.2,66.9,48.3,64.9,46.2,64.3z"/>
		<path class="st2" d="M45.5,74.8c-0.1,0-0.3,0-0.4,0c-0.8-0.1-1.6-0.7-2.1-1.5c-0.7-1.1-1-2.6-0.6-4.1c-0.3-0.3-0.9-0.4-1.7-0.5
			c-1.1-0.1-2.6-0.3-4-1.2c-3.2-2-2.9-5.3-2.9-5.3c0,0,0.1,3.1,3.1,5c1.4,0.9,2.8,1,3.9,1.1c0.9,0.1,1.7,0.2,2,0.7l0,0.1l0,0.1
			c-0.3,1.4-0.1,2.8,0.6,3.9c0.5,0.7,1.2,1.2,1.9,1.3c0.6,0.1,1.2,0,1.7-0.4c0.8-0.6,1.3-1.8,1.4-3.3c0.1-1.3,0.2-5.6-2-6.3l0,0l0,0
			c-2.4-2.6-5.2-3-5.2-3c0,0,2.9,0.1,5.4,2.7c2.4,0.8,2.4,4.9,2.2,6.7c-0.1,1.5-0.7,2.8-1.6,3.5C46.6,74.7,46.1,74.8,45.5,74.8z"/>
	</g>
	<g>
		<path class="st2" d="M42.5,70.2l-0.4,0c0.1-2.3,1.6-3.2,1.6-3.2C43.8,67,42.7,68.1,42.5,70.2z"/>
	</g>
	<g>
		<path class="st2" d="M44.2,74.3l-0.2-0.3c1.4-1.2,1.3-4.3,1.3-4.3C45.3,69.7,45.7,73,44.2,74.3z"/>
	</g>
	<g>
		<path class="st2" d="M46.4,74.6l-0.3-0.2c1.4-2,1-4.3,0.9-4.4C47.1,70.1,47.9,72.6,46.4,74.6z"/>
	</g>
	<g>
		<path class="st0" d="M43.2,87.1c5.7-5.5,1.7-13.7-2.8-15.2c-4.6-1.6-9,1-9,1l-11.1,7.1c-0.7,4.9,3.5,9.1,6.3,9.7
			c-0.4,0.6-1,2.3,2.8,3.3c3.8,1.1,13.1,1.4,15.7-0.4c0.6-0.1,2.7-0.4,2.8-1.8C47.8,88.8,45.5,86.9,43.2,87.1z"/>
		<path class="st1" d="M41.8,84.1c3.2-3.6,2.3-9.7-1.9-12.4c-4.4-1.3-8.6,1.1-8.6,1.1l-11.1,7.1c-0.2,1.4,0,2.7,0.5,3.9
			c1.1,1.7,2.7,3.1,4.9,3.8C31.3,89.1,38,88.6,41.8,84.1z"/>
		<path class="st1" d="M44.5,87.2c-3.3,4.8-11,2.9-16,3.9c-0.1,1.1,1.2,1.7,2.1,2.2c4.3,0.8,12.2,1,14.5-0.7
			c0.6-0.1,2.7-0.4,2.8-1.8C47.8,89.1,46.3,87.6,44.5,87.2z"/>
		<path class="st2" d="M39.8,93.9c-3.7,0.2-8.2-0.2-10.5-0.8c-1.8-0.5-2.9-1.2-3.2-2.1c-0.2-0.5,0-1,0.1-1.3c-3-0.8-6.8-5.2-6.2-9.8
			l0.4,0c-0.7,4.9,3.6,9,6.1,9.5l0.3,0.1l-0.2,0.2c-0.1,0.2-0.4,0.7-0.2,1.2c0.3,0.7,1.3,1.4,2.9,1.8c4,1.1,13.1,1.3,15.5-0.4l0.1,0
			l0.2,0c0.7-0.1,2.4-0.5,2.5-1.6c0-0.8-0.4-1.6-1.2-2.3c-0.9-0.8-2.1-1.3-3.3-1.2l-0.5,0l0.3-0.3c2.3-2.3,3.2-5.3,2.5-8.4
			c-0.7-3-2.9-5.7-5.3-6.5c-4.4-1.5-8.8,0.9-8.8,1c0,0,4.3-2.9,9-1.3c2.5,0.9,4.8,3.7,5.5,6.8c0.7,3.1-0.1,6.1-2.3,8.4
			c1.1,0,2.3,0.5,3.1,1.3c0.8,0.7,1.3,1.7,1.3,2.6c-0.1,1.4-2,1.8-2.8,1.9l-0.1,0C44.1,93.4,42.1,93.8,39.8,93.9z"/>
	</g>
	<g>
		<path class="st2" d="M45.2,92.6l-0.4-0.1c0.3-0.9,0.4-1.7,0-2.3c-0.5-0.9-1.5-1.2-1.5-1.2c0,0,1.3,0,1.9,1.1
			C45.6,90.7,45.6,91.5,45.2,92.6z"/>
	</g>
	<g>
		<path class="st2" d="M39.1,89.1c0,0,3.4-0.9,5.2-3.6l0.3,0.2C42.7,88.5,39.1,89.1,39.1,89.1z"/>
	</g>
	<g>
		<path class="st2" d="M24.4,88.8l0.2-0.3c3,1.9,7.7,1.8,7.7,1.8C32.3,90.3,27.4,90.8,24.4,88.8z"/>
	</g>
	<g>
		<path class="st0" d="M41,42.1c-1-4-1.5-8.5,0.9-13.1c2.4-4.6,8.9-9.4,10.7-9c1.8,0.4,0.1,3.1,0,4.7c-0.1,1.6,0.2,6.3-1.9,10.6
			c-2,4.3-6.2,7-7.3,7.3C42.9,42.5,41,42.1,41,42.1z"/>
		<path class="st1" d="M41,42.1c-1-4-1.5-8.5,0.9-13.1c2.4-4.6,8.9-9.4,10.7-9c1.8,0.4-1.3,2.2-1.4,3.9c-0.1,1.6-0.7,6-2.7,10.3
			c-2,4.3-6.2,7.6-7.3,7.8C40.7,41.9,41,42.1,41,42.1z"/>
		<path class="st2" d="M43.4,42.7L43.4,42.7c-0.5,0-2.4-0.4-2.5-0.4l-0.1,0l0-0.1c-0.9-3.6-1.6-8.3,0.9-13.2
			c2.4-4.5,8.5-9.1,10.6-9.1c0.1,0,0.2,0,0.2,0c0.4,0.1,0.6,0.2,0.8,0.5c0.4,0.6,0.1,1.7-0.3,2.7c-0.2,0.6-0.4,1.2-0.4,1.7
			c0,0.3,0,0.6,0,1.1c0,2.1-0.1,5.9-1.8,9.6C48.9,39.5,44.8,42.4,43.4,42.7L43.4,42.7z M41.2,41.9c0.6,0.1,1.9,0.4,2.2,0.4
			c1-0.2,5.2-2.9,7.2-7.2c1.7-3.5,1.8-7.4,1.8-9.4c0-0.4,0-0.8,0-1.1c0-0.5,0.2-1.1,0.4-1.7c0.3-0.9,0.6-1.9,0.3-2.4
			c-0.1-0.2-0.3-0.3-0.6-0.3c-0.1,0-0.1,0-0.2,0c-2,0-8.1,4.6-10.3,8.9C39.6,33.7,40.2,38.2,41.2,41.9z"/>
	</g>
	<g>
		<path class="st3" d="M42.8,41.3c-0.4-5.8,2.8-14.6,7.7-17.2C50.7,29.7,48.8,37.3,42.8,41.3z"/>
		<path class="st4" d="M50.5,26.1c-2.7,2-4.8,4.7-5.8,7.7c-0.7,1.9-1,4.3-0.2,6.2C48.6,36.4,50.2,30.8,50.5,26.1z"/>
		<path class="st2" d="M42.7,41.6l0-0.3c-0.4-5.9,3-14.8,7.8-17.4l0.3-0.1l0,0.3c0.1,5.8-1.9,13.4-7.8,17.3L42.7,41.6z M50.4,24.4
			C45.9,27,42.7,35.2,43,40.9C48.5,37.1,50.4,30,50.4,24.4z"/>
	</g>
	<g>
		
			<ellipse transform="matrix(7.600084e-02 -0.9971 0.9971 7.600084e-02 -74.4492 99.4208)" class="st0" cx="16.4" cy="89.9" rx="4.3" ry="7.9"/>
		<path class="st1" d="M16.7,85.6c-3.7-0.3-6.9,0.9-7.9,2.7c0.4,0.7,1,1.4,1.6,1.8c3.2,2.2,6.9,2.2,10.1,1.1
			c1.4-0.3,2.6-0.9,3.6-1.8C23.4,87.5,20.4,85.9,16.7,85.6z"/>
		<path class="st2" d="M17.2,94.4c-0.4,0-0.7,0-1.1,0c-4.4-0.3-7.9-2.6-7.7-5.1c0.2-2.3,3.2-3.9,7.3-3.9c0.4,0,0.7,0,1.1,0
			c4.4,0.3,7.9,2.6,7.7,5.1C24.3,92.7,21.2,94.4,17.2,94.4z M15.6,85.7c-3.8,0-6.7,1.5-6.9,3.6c-0.2,2.3,3.1,4.4,7.4,4.7
			c0.4,0,0.7,0,1.1,0c3.8,0,6.7-1.5,6.9-3.6c0.2-2.3-3.1-4.4-7.4-4.7C16.4,85.7,16,85.7,15.6,85.7z"/>
	</g>
	<g>
		<path class="st0" d="M43.5,60.2c1.2,4.6-1.7,5.6-1.7,8.5c0.1,2.9,4.3,17.5-6,22.4c-6.5,2.9-15.1,3.3-18.8-1.7
			c-3.6-5-2.1-9.1,0.5-13.8c2.6-4.7,5.1-6.9,5.4-9.6c0.4-2.8,2.4-7.6,6.3-11.7c1.8-2.7,1.2-8.7,4.4-12.3c3.1-3.5,11.8-2.5,14.4,0.5
			c2.5,3,1.8,7.1,2.5,8.7c1.7,2.1,3.4,5.9,0.3,7.1c0.3,1.4-2.1,2.8-4.5,1.4C45.4,59.4,44.2,59.9,43.5,60.2z"/>
		<path class="st2" d="M49.8,57.8c0,0,0-0.1-0.1-0.1C49.7,57.7,49.8,57.7,49.8,57.8z"/>
		<path class="st1" d="M50.6,51.1c-0.7-1.6,0.1-5.7-2.5-8.7c-2.5-3-11.2-4-14.4-0.5c-3.1,3.5-2.5,9.6-4.4,12.3
			c-3.9,4.1-6,9-6.3,11.7c-0.4,2.8-2.8,4.9-5.4,9.6c-2.6,4.7-4.2,8.8-0.5,13.8c3.6,5,12.3,4.6,18.8,1.7c10.3-4.9,6.1-19.5,6-22.4
			c-0.1-2.3,1.8-3.4,1.9-6.1c-6.2,0.8-12.6-5.1-10.6-11.8c0.4,6.5,4.7,9.3,11.6,7.2c1.1,0,2.5,2.2,4.3,1.1c0.3-0.3,1-0.7,0.8-1.3
			c0,0,0-0.1-0.1-0.1c0,0.1,0,0.1,0.1,0.1c0.2,0.5,0.6,0.6,1.1,0.6c0-0.1,0-0.1,0-0.2C53.9,57.1,52.3,53.2,50.6,51.1z"/>
		<path class="st2" d="M26.3,93.4c-4.2,0-7.5-1.4-9.3-3.9c-3.8-5.3-1.9-9.6,0.5-14c1-1.8,2-3.2,2.8-4.4c1.4-2,2.4-3.5,2.6-5.1
			c0.4-2.9,2.5-7.7,6.4-11.8c0.7-1.1,1.1-2.8,1.5-4.7c0.5-2.6,1.1-5.5,2.9-7.6c1.3-1.5,3.7-2.3,6.6-2.3c3.4,0,6.7,1.1,8.1,2.8
			c1.7,2.1,2,4.7,2.1,6.6c0.1,0.9,0.1,1.6,0.3,2.1c1.3,1.6,2.4,4,1.9,5.6c-0.2,0.8-0.8,1.3-1.6,1.7c0,0.4-0.1,0.8-0.4,1.1
			c-0.5,0.6-1.4,1-2.3,1c-0.7,0-1.4-0.2-2.1-0.5c-0.1,0-0.3-0.1-0.5-0.1c-0.6,0-1.2,0.2-1.7,0.4c-0.1,0-0.2,0.1-0.4,0.1
			c0.6,2.7-0.1,4.2-0.8,5.6c-0.5,0.9-0.9,1.7-0.9,2.9c0,0.5,0.1,1.2,0.3,2.1c0.8,5.3,2.5,16.2-6.4,20.4
			C32.8,92.7,29.4,93.4,26.3,93.4z M40.2,39.9c-2.8,0-5.1,0.8-6.3,2.2c-1.8,2-2.3,4.9-2.8,7.4c-0.4,1.9-0.7,3.7-1.5,4.8
			c-3.8,4.1-5.9,8.9-6.3,11.6c-0.2,1.8-1.2,3.3-2.6,5.3c-0.8,1.2-1.8,2.6-2.8,4.4c-2.9,5.1-3.9,9-0.5,13.6c1.8,2.4,5,3.7,9,3.7
			c3.1,0,6.5-0.7,9.5-2.1c8.6-4.1,7-14.9,6.2-20.1c-0.1-1-0.3-1.7-0.3-2.2c0-1.2,0.4-2.1,0.9-3c0.7-1.4,1.4-2.8,0.7-5.5l0-0.2l0.2,0
			c0.1,0,0.3-0.1,0.5-0.2c0.5-0.2,1.2-0.4,1.9-0.4c0.2,0,0.4,0,0.6,0.1l0,0c0.6,0.3,1.3,0.5,1.9,0.5c0.8,0,1.6-0.3,2-0.8
			c0.2-0.3,0.3-0.6,0.3-0.9l0-0.2l0.1-0.1c0.8-0.3,1.3-0.8,1.5-1.5c0.4-1.5-0.6-3.8-1.9-5.3l0,0c-0.2-0.5-0.3-1.3-0.4-2.3
			c-0.2-1.8-0.4-4.4-2.1-6.4C46.6,41,43.4,39.9,40.2,39.9z"/>
	</g>
	<g>
		<g>
			<path class="st5" d="M38.9,60.2c0.1,3.5-1.8,5.1-2.1,7.3c-0.3,2.1-3.3,5.3-2.3,11.4c-0.9,4.1-3.4,9.6-3.3,13.8
				c1.6-0.4,3.2-0.9,4.6-1.5c10.3-4.9,6.1-19.5,6-22.4c-0.1-2.9,2.8-3.9,1.7-8.5C43.5,60.2,41.2,61,38.9,60.2z"/>
			<path class="st6" d="M34.4,74.8c1.3,1.4,3.3,1.8,5.2,0.9c4.3-2.2,0.4-5.8,1.1-9c0.4-1.2,1-2.6,1.2-4c-1.1-0.1-2.2-0.4-3.2-0.8
				c-0.4,2.5-1.8,3.9-2,5.7C36.6,69.1,34.8,71.3,34.4,74.8z"/>
			<path class="st7" d="M31.1,92.9l0-0.2c-0.1-2.8,0.9-6.1,2-9.4c0.5-1.6,1-3.1,1.3-4.4c-0.7-4.3,0.6-7.1,1.5-9.2
				c0.4-0.8,0.7-1.6,0.8-2.2c0.1-0.9,0.5-1.6,0.9-2.5c0.6-1.3,1.3-2.7,1.2-4.8l0-0.3l0.2,0.1c0.6,0.2,1.3,0.3,2,0.3
				c1.4,0,2.5-0.4,2.5-0.4l0.2-0.1l0.1,0.2c0.7,2.8-0.1,4.4-0.8,5.7c-0.5,0.9-0.9,1.7-0.9,2.9c0,0.5,0.1,1.2,0.3,2.1
				c0.8,5.3,2.5,16.2-6.4,20.4c-1.5,0.7-3,1.2-4.6,1.5L31.1,92.9z M39,60.5c0,2-0.7,3.4-1.2,4.7c-0.4,0.8-0.7,1.5-0.8,2.4
				c-0.1,0.7-0.4,1.4-0.8,2.3c-0.9,2-2.2,4.8-1.5,9l0,0l0,0c-0.3,1.4-0.8,2.9-1.3,4.5c-1,3.1-2,6.3-2,9c1.5-0.4,3-0.9,4.4-1.5
				c8.6-4.1,7-14.9,6.2-20.1c-0.1-1-0.3-1.7-0.3-2.2c0-1.2,0.4-2.1,0.9-3c0.7-1.3,1.4-2.7,0.8-5.3c-0.4,0.1-1.3,0.4-2.4,0.4
				C40.3,60.8,39.6,60.7,39,60.5z"/>
		</g>
	</g>
	<g>
		<path class="st2" d="M41,60.8c-1.8,0-3.9-0.6-5.8-2.5c-3.1-3-2.3-6.7-2.3-6.7c0,0-0.4,3.5,2.6,6.4c2.8,2.8,6.1,2.5,8.2,1.9
			l0.1,0.3C43,60.5,42,60.8,41,60.8z"/>
	</g>
	<g>
		<path class="st2" d="M47.8,58.7c-0.2,0-0.3,0-0.5-0.1c-0.9-0.3-0.8-1.7-0.8-1.7c0,0,0,1,0.9,1.3c0.9,0.3,1.5-0.3,1.8-0.7l0.9-1.8
			l-0.6,1.7c0.2,0.3,0.7,0.8,1.6,0.3l0.2,0.3c-0.8,0.4-1.5,0.2-1.9-0.3C49.1,58.2,48.6,58.7,47.8,58.7z"/>
	</g>
	<g>
		<path class="st8" d="M47.5,54.1c0.6,0.2,2,1.5,2.7,1.5c0.9-0.2,1.5-1.3,1.5-1.8C51.5,53.1,48,52.6,47.5,54.1z"/>
		<path class="st9" d="M47.5,54.1c0.1,0,0.2,0.1,0.3,0.1c1.3-0.5,2.8-0.8,3.9-0.2c0-0.1,0-0.2,0.1-0.3C51.5,53.1,48,52.6,47.5,54.1z
			"/>
		<path class="st10" d="M50.2,55.8L50.2,55.8c-0.5-0.1-1.1-0.5-1.8-0.9c-0.4-0.3-0.8-0.5-1-0.6l-0.2-0.1l0.1-0.2
			c0.3-0.7,1.1-1.1,2.3-1.1c0.9,0,2.1,0.2,2.3,0.8l0,0l0,0C51.8,54.4,51.2,55.5,50.2,55.8L50.2,55.8z M47.7,54
			c0.2,0.1,0.5,0.3,0.9,0.6c0.5,0.4,1.2,0.8,1.5,0.9c0.8-0.2,1.3-1.2,1.4-1.6c-0.1-0.2-0.9-0.5-1.9-0.5C48.7,53.3,48,53.6,47.7,54z"
			/>
	</g>
	<g>
		<path class="st11" d="M50.5,50.9c-1.4-1.1-2.7-3.4-1.8-5.1C50.3,45.3,52.3,47.9,50.5,50.9z"/>
		<path class="st2" d="M50.5,51.2l-0.2-0.1c-1.6-1.2-2.8-3.6-1.9-5.3l0-0.1l0.1,0c0.2-0.1,0.3-0.1,0.5-0.1c0.7,0,1.4,0.5,1.8,1.2
			c0.7,1.2,0.6,2.8-0.3,4.2L50.5,51.2z M48.8,45.9c-0.7,1.5,0.3,3.6,1.7,4.7c0.7-1.3,0.8-2.7,0.2-3.7C50.2,46.2,49.4,45.8,48.8,45.9
			z"/>
	</g>
	<g>
		<g>
			<path class="st12" d="M50.5,50.9c0.4-0.8,0.7-1.5,0.7-2.2c-0.3-0.9-0.8-1.4-1.3-1.3c-0.6,0.1-0.8,1-0.7,2
				C49.5,50,50,50.5,50.5,50.9z"/>
			<path class="st2" d="M51.4,48.7L51.4,48.7c-0.1-0.3-0.2-0.6-0.4-0.8c0,0.3,0,0.5,0,0.8c0,0,0,0,0,0c0,0.6-0.2,1.2-0.6,1.9
				c0,0-0.1-0.1-0.1-0.1c0.1,0.2,0.2,0.3,0.3,0.4C51.1,50.3,51.3,49.5,51.4,48.7L51.4,48.7z"/>
			<g>
				<ellipse class="st13" cx="50.4" cy="49.5" rx="0.6" ry="1.2"/>
			</g>
			<path class="st2" d="M49.3,49.4C49.3,49.4,49.3,49.4,49.3,49.4c-0.1-0.2-0.3-0.4-0.4-0.6c0,0.2,0,0.4,0,0.7l0,0.1
				c0.4,0.6,0.9,1.1,1.4,1.5l0.2,0.1l0.1-0.2c0,0,0,0,0,0c-0.1-0.1-0.2-0.3-0.3-0.4C50,50.2,49.6,49.8,49.3,49.4z"/>
			<path class="st14" d="M49.9,47.6c0.4-0.1,0.8,0.4,1.1,1.2c0-0.2,0-0.4,0-0.5c-0.3-0.6-0.8-1-1.2-0.9c-0.5,0.1-0.8,0.7-0.8,1.6
				c0.1,0.2,0.1,0.3,0.3,0.4C49.2,48.5,49.5,47.7,49.9,47.6z"/>
		</g>
	</g>
	<g>
		<g>
			<g>
				<g>
					<g>
						<g>
							<g>
								<g>
									<g>
										<g>
											<g>
												<g>
													<g>
														<g>
															<g>
																<g>
																	<path class="st15" d="M38,49.8c-0.1,1.8,0.9,3.4,2.2,3.5c1.3,0.1,2.5-1.2,2.6-3c0.1-1.8-0.9-3.4-2.2-3.5
																		C39.3,46.6,38.1,48,38,49.8z"/>
																</g>
															</g>
														</g>
													</g>
													<g>
														<g>
															<g>
																<g>
																	<g>
																		<g>
																			<g>
																				<g>
																					<g>
																						<g>
																							<path class="st11" d="M38,49.8c-0.1,1.8,4.8,2.2,4.9,0.4c0.1-1.8-0.9-3.4-2.2-3.5C39.3,46.6,38.1,48,38,49.8
																								z"/>
																						</g>
																					</g>
																				</g>
																			</g>
																		</g>
																	</g>
																</g>
															</g>
														</g>
													</g>
													<g>
														<g>
															<g>
																<g>
																	<path class="st2" d="M40.3,53.4L40.3,53.4L40.3,53.4c-1.5-0.1-2.6-1.8-2.4-3.6c0.1-1.9,1.3-3.3,2.7-3.2l0.1,0
																		c1.4,0.1,2.5,1.8,2.4,3.6C42.9,52.1,41.7,53.5,40.3,53.4z M40.5,46.9c-1.2-0.1-2.3,1.2-2.4,2.9
																		C38,51.5,39,53,40.2,53.1l0.1,0c1.2,0.1,2.3-1.2,2.4-2.9C42.8,48.5,41.9,47,40.5,46.9L40.5,46.9z"/>
																</g>
															</g>
														</g>
													</g>
												</g>
											</g>
										</g>
									</g>
								</g>
							</g>
						</g>
					</g>
				</g>
			</g>
		</g>
		<g>
			<g>
				<g>
					<g>
						<g>
							<g>
								<g>
									<g>
										<g>
											<g>
												<g>
													<path class="st12" d="M38.9,50.1c-0.1,1.2,0.6,2.2,1.5,2.3c0.9,0.1,1.6-0.8,1.7-1.9c0.1-1.2-0.6-2.2-1.5-2.3
														C39.7,48,38.9,48.9,38.9,50.1z"/>
												</g>
											</g>
										</g>
									</g>
								</g>
							</g>
						</g>
					</g>
				</g>
			</g>
			<g>
				<g>
					<g>
						<g>
							<g>
								<g>
									<g>
										<g>
											<g>
												<g>
													<path class="st16" d="M38.9,50.2c0,1.2,3.2,1.3,3.2,0.2c0-1.2-0.7-2.2-1.6-2.2C39.6,48.1,38.9,49,38.9,50.2z"/>
												</g>
											</g>
										</g>
									</g>
								</g>
							</g>
						</g>
					</g>
				</g>
			</g>
			<g>
				<g>
					<g>
						<g>
							<g>
								<g>
									<g>
										<g>
											<g>
												<g>
													<path class="st14" d="M38.8,50.1c0-0.6,0.2-1.1,0.6-1.5c0.3-0.4,0.8-0.6,1.3-0.5c0.2,0,0.4,0.1,0.5,0.2
														c0.7,0.4,1.1,1.3,1.1,2.2c-0.1,1.2-0.9,2.1-1.8,2c-0.2,0-0.4-0.1-0.5-0.2C39.1,51.9,38.7,51,38.8,50.1z M40.6,48.2
														c-0.4,0-0.8,0.1-1,0.5c-0.3,0.4-0.5,0.9-0.5,1.4c0,0.9,0.3,1.7,0.9,2c0.1,0.1,0.3,0.1,0.4,0.1c0.8,0.1,1.5-0.7,1.6-1.9
														c0-0.9-0.3-1.7-0.9-2C40.9,48.3,40.7,48.3,40.6,48.2z"/>
												</g>
											</g>
										</g>
									</g>
								</g>
							</g>
						</g>
					</g>
				</g>
			</g>
		</g>
		<g>
			<g>
				<g>
					<g>
						<g>
							<g>
								<g>
									<g>
										<g>
											<g>
												<g>
													<path class="st13" d="M39.6,50.3c-0.1,0.7,0.3,1.3,0.8,1.4c0.5,0.1,1.1-0.3,1.1-1c0.1-0.7-0.3-1.3-0.8-1.4
														C40.2,49.1,39.7,49.6,39.6,50.3z"/>
												</g>
											</g>
										</g>
									</g>
								</g>
							</g>
						</g>
					</g>
				</g>
			</g>
		</g>
		<g>
			<g>
				<g>
					<g>
						<g>
							<g>
								<g>
									<g>
										<g>
											<g>
												<g>
													<path class="st11" d="M39.5,49.1c-0.2,0.2-0.1,0.5,0.2,0.6c0.3,0.1,0.6,0,0.7-0.2c0.2-0.2,0.1-0.5-0.2-0.6
														C40,48.8,39.7,48.8,39.5,49.1z"/>
												</g>
											</g>
										</g>
									</g>
								</g>
							</g>
						</g>
					</g>
				</g>
			</g>
		</g>
		<g>
			<g>
				<g>
					<g>
						<g>
							<g>
								<g>
									<g>
										<g>
											<g>
												<g>
													<path class="st11" d="M39.6,50.1c-0.1,0.1,0,0.3,0.1,0.4c0.1,0.1,0.3,0,0.4-0.1c0.1-0.1,0-0.3-0.1-0.4
														C39.8,49.9,39.6,50,39.6,50.1z"/>
												</g>
											</g>
										</g>
									</g>
								</g>
							</g>
						</g>
					</g>
				</g>
			</g>
		</g>
	</g>
	<g>
		<path class="st1" d="M37.5,36.4c-0.7-4.4-2.7-7-3.8-9.3c-1.1-2.3-1.3-5.1-3.1-5.2c-1.5,0.3-3.9,5-4.4,10.1
			c-0.5,5.1,1,9.6,3.1,11.8c2.1,2.2,3,4.4,3,4.4l4.3-2.9C36.8,45.3,38.2,40.8,37.5,36.4z"/>
		<path class="st2" d="M32.3,48.2c0,0-0.9-2.2-3-4.3c-2.3-2.4-3.6-7.2-3.2-11.9c0.5-5.1,2.9-9.9,4.5-10.2l0,0l0,0
			c1.3,0.1,1.8,1.5,2.4,3.1c0.2,0.7,0.5,1.5,0.8,2.2c0.3,0.5,0.6,1.1,0.9,1.6c1.1,1.9,2.4,4.3,2.9,7.7c0.7,4.4-0.8,8.9-0.8,9
			l-0.3-0.1c0,0,1.4-4.5,0.8-8.8c-0.5-3.4-1.8-5.7-2.9-7.6c-0.3-0.6-0.6-1.1-0.9-1.6c-0.4-0.7-0.6-1.5-0.9-2.2
			c-0.5-1.5-0.9-2.8-2-2.9c-1.3,0.3-3.7,4.7-4.2,9.9c-0.4,4.7,0.8,9.3,3.1,11.6c2.1,2.2,3,4.4,3.1,4.5L32.3,48.2z"/>
	</g>
	<g>
		<path class="st3" d="M33.8,44.5c-0.8-5.8,1.9-10.4-3.1-18C26.4,30.9,28.1,41.1,33.8,44.5z"/>
		<path class="st4" d="M29.6,27.8C27.4,31.8,28,38,31,42C31.1,37,32.7,31.9,29.6,27.8z"/>
		<path class="st2" d="M34,44.8l-0.3-0.2c-2.8-1.6-4.8-5-5.4-9c-0.5-3.7,0.3-7.2,2.3-9.3l0.2-0.2l0.1,0.2c3.4,5.3,3.2,9.2,3.1,12.9
			c-0.1,1.7-0.2,3.4,0.1,5.2L34,44.8z M30.6,26.7c-1.8,2-2.5,5.3-2,8.8c0.5,3.7,2.4,6.9,4.9,8.6c-0.2-1.7-0.1-3.3,0-4.9
			C33.7,35.6,33.9,31.8,30.6,26.7z"/>
	</g>
	<g>
		<path class="st0" d="M41.2,66.3c-2.5-2.6-5.3-3-5.3-3l-7.5,1c0,0,0,3.2,3.2,5.2c2.6,1.6,5.2,0.8,5.8,1.8c-0.7,2.8,0.8,5.1,2.6,5.4
			c1.8,0.3,3.1-1.4,3.3-3.8C43.5,70.3,43.3,66.9,41.2,66.3z"/>
		<path class="st1" d="M41.2,66.3c-2.5-2.6-5.3-3-5.3-3l-7.5,1c0,0,0.2,2.1,3.4,4.1c2.6,1.6,6.2-0.2,6.8,0.8
			c-0.7,2.8,0.1,5.4,1.9,5.7c1.8,0.3,2.3-1,2.5-3.5C43.1,68.9,43.3,66.9,41.2,66.3z"/>
		<path class="st2" d="M40.4,76.8c-0.1,0-0.3,0-0.4,0c-0.8-0.1-1.6-0.7-2.1-1.5c-0.7-1.1-1-2.6-0.6-4.1c-0.3-0.3-0.9-0.4-1.7-0.5
			c-1.1-0.1-2.6-0.3-4-1.2c-3.2-2-2.9-5.3-2.9-5.3c0,0,0.1,3.1,3.1,5c1.4,0.9,2.8,1,3.9,1.1c0.9,0.1,1.7,0.2,2,0.7l0,0.1l0,0.1
			c-0.3,1.4-0.1,2.8,0.6,3.9c0.5,0.7,1.2,1.2,1.9,1.3c0.6,0.1,1.2,0,1.7-0.4c0.8-0.6,1.3-1.8,1.4-3.3c0.1-1.3,0.2-5.6-2-6.3l0,0l0,0
			c-2.4-2.6-5.2-3-5.2-3c0,0,2.9,0.1,5.4,2.7c2.4,0.8,2.4,4.9,2.2,6.7c-0.1,1.5-0.7,2.8-1.6,3.5C41.5,76.6,41,76.8,40.4,76.8z"/>
	</g>
	<g>
		<path class="st2" d="M37.5,72.2l-0.4,0c0.1-2.3,1.6-3.2,1.6-3.2C38.7,68.9,37.6,70,37.5,72.2z"/>
	</g>
	<g>
		<path class="st2" d="M39.1,76.3L38.9,76c1.4-1.2,1.3-4.3,1.3-4.3C40.2,71.7,40.6,75,39.1,76.3z"/>
	</g>
	<g>
		<path class="st2" d="M41.4,76.6l-0.3-0.2c1.4-2,0.9-4.3,0.9-4.3C42,72,42.8,74.5,41.4,76.6z"/>
	</g>
	<g>
		<path class="st0" d="M36.8,90.6c5.8-5.1,2.5-13.5-1.8-15.4c-4.3-1.8-8.7,0.4-8.7,0.4l-11.1,6.4c-0.9,4.8,2.8,9.3,5.5,10.1
			c-0.5,0.6-1.1,2.2,2.5,3.5c3.6,1.3,12.6,2.3,15.2,0.5c0.6-0.1,2.6-0.2,2.8-1.6C41.1,92.6,39,90.6,36.8,90.6z"/>
		<path class="st1" d="M35.7,87.6c3.3-3.3,2.8-9.5-1.1-12.5c-4.2-1.6-8.4,0.6-8.4,0.6l-11.1,6.4c-0.3,1.4-0.2,2.7,0.2,3.9
			c0.9,1.8,2.4,3.2,4.5,4.1C25.2,91.9,31.7,91.9,35.7,87.6z"/>
		<path class="st1" d="M38,90.8c-3.4,4.6-10.8,2.2-15.7,2.9c-0.2,1.1,1.1,1.8,1.9,2.3c4.1,1.1,11.7,1.8,14.1,0.2
			c0.6-0.1,2.6-0.2,2.8-1.6C41.1,93,39.8,91.4,38,90.8z"/>
		<path class="st2" d="M33.1,97.3c-3.6,0-7.9-0.7-10.1-1.5c-1.7-0.6-2.7-1.4-2.9-2.3c-0.2-0.6,0-1,0.2-1.3c-2.9-1-6.3-5.6-5.4-10.2
			l0.4,0.1c-1,4.9,2.9,9.2,5.4,9.9l0.3,0.1l-0.2,0.2c-0.1,0.2-0.4,0.6-0.3,1.2c0.2,0.8,1.2,1.5,2.7,2c3.8,1.4,12.6,2.2,15,0.6l0.1,0
			l0.2,0c0.7-0.1,2.3-0.3,2.5-1.4c0-0.8-0.3-1.7-1-2.4c-0.8-0.9-2-1.4-3.1-1.4h-0.5l0.4-0.3c2.4-2.1,3.5-5,2.9-8.2
			c-0.5-3.1-2.4-5.9-4.7-6.9c-4.2-1.8-8.6,0.4-8.6,0.4c0,0,4.4-2.6,8.7-0.7c2.4,1,4.4,4,4.9,7.1c0.5,3.2-0.5,6.1-2.7,8.2
			c1.1,0.1,2.1,0.6,2.9,1.5c0.7,0.8,1.1,1.7,1.1,2.6c-0.2,1.4-2,1.6-2.8,1.7l-0.1,0C37.3,97,35.3,97.3,33.1,97.3z"/>
	</g>
	<g>
		<path class="st2" d="M38.4,96.3l-0.3-0.1c0.4-0.9,0.4-1.7,0.2-2.3c-0.4-1-1.4-1.3-1.4-1.3c0,0,1.3,0.1,1.7,1.2
			C38.9,94.4,38.8,95.3,38.4,96.3z"/>
	</g>
	<g>
		<path class="st2" d="M32.7,92.4c0,0,3.4-0.7,5.2-3.3l0.3,0.2C36.2,92,32.7,92.4,32.7,92.4z"/>
	</g>
	<g>
		<path class="st2" d="M18.5,91.2l0.2-0.3c2.8,2.1,7.3,2.3,7.4,2.3C26.1,93.2,21.3,93.4,18.5,91.2z"/>
	</g>
	<circle class="st11" cx="50" cy="48.4" r="0.4"/>
	<circle class="st11" cx="50" cy="49.3" r="0.2"/>
</g>
<g>
	<g>
		<path class="st0" d="M77.5,72c0,0-0.1,8.1-1.9,11.5c-1.3,0.1-4.1,0.3-5,1.9c-0.8,1.6,0.1,3,1.3,3c0.1,0.9,1.1,1.8,2.5,1.6
			c1,1.4,5.5,0.7,6.4-1.5c0.6-1.1,2.5-4.2,3.7-7.4c1.3-3.4,1.9-6.8,1.9-6.8L77.5,72z"/>
		<path class="st1" d="M75.6,83.5c-1.3,0.1-4.1,0.3-5,1.9c-0.8,1.6,0.5,1.3,1.7,1.2c0.1,0.9,0.6,1.1,2,0.9c1,1.4,4.2,2.1,5-0.1
			c0.3-0.5,1.4-2.8,2.3-3.6c2.1-3.4,2.6-6,2.8-10l-7-1.8C77.5,72,77.4,80.1,75.6,83.5z"/>
		<path class="st2" d="M76.5,90.9c-1,0-1.7-0.3-2.1-0.7c-0.7,0.1-1.3-0.1-1.8-0.5c-0.4-0.3-0.6-0.7-0.7-1.1c-0.5,0-1-0.3-1.3-0.8
			c-0.4-0.7-0.4-1.6,0-2.5c0.6-1.2,2.3-1.9,5-2c1.8-3.3,1.9-11.2,1.9-11.3c0,0,0.3,1.4,0.2,3.1c-0.2,2.7-0.7,6.4-1.8,8.4l0,0.1
			l-0.1,0c-2.6,0.1-4.3,0.7-4.8,1.8c-0.4,0.8-0.4,1.6,0,2.1c0.3,0.4,0.7,0.6,1.2,0.6l0.2,0l0,0.2c0,0.4,0.3,0.8,0.6,1.1
			c0.4,0.3,1,0.5,1.7,0.4l0.1,0l0.1,0.1c0.4,0.5,1.4,0.8,2.7,0.6c1.4-0.2,3-0.9,3.4-2.1c0.1-0.2,0.2-0.4,0.4-0.7
			c0.8-1.4,2.3-4,3.3-6.7c1.3-3.3,1.9-6.8,1.9-6.8c0,0,0.1,1.3-0.3,3c-0.3,1.2-0.7,2.6-1.3,4c-1,2.7-2.5,5.3-3.3,6.7
			c-0.1,0.3-0.3,0.5-0.4,0.6c-0.5,1.4-2.3,2.1-3.7,2.3C77,90.9,76.8,90.9,76.5,90.9z"/>
	</g>
	<g>
		<path class="st2" d="M71.9,88.7c-0.4-2.1,1.4-2.6,1.4-2.6c-0.1,0-1.4,0.7-1.1,2.6L71.9,88.7z"/>
	</g>
	<g>
		<path class="st2" d="M74.3,90.1c-1.1-2.4,0.9-3.4,0.9-3.4c-0.1,0-1.6,1.1-0.6,3.2L74.3,90.1z"/>
	</g>
	<g>
		<g>
			
				<ellipse transform="matrix(7.603884e-02 -0.9971 0.9971 7.603884e-02 19.147 198.2177)" class="st0" cx="116.5" cy="88.8" rx="4" ry="7.3"/>
		</g>
		<g>
			<path class="st1" d="M116.8,84.8c-3.4-0.3-6.4,0.8-7.3,2.5c0.3,0.7,0.9,1.3,1.4,1.6c3,2,6.3,2,9.3,1c1.3-0.3,2.4-0.9,3.3-1.6
				C123,86.6,120.2,85.1,116.8,84.8z"/>
		</g>
		<g>
			<path class="st2" d="M117.2,92.9c-0.3,0-0.7,0-1,0c-4.1-0.3-7.3-2.4-7.1-4.7c0.2-2.1,3-3.6,6.7-3.6c0.3,0,0.7,0,1,0
				c4.1,0.3,7.3,2.4,7.1,4.7C123.8,91.4,121,92.9,117.2,92.9z M115.8,84.9c-3.5,0-6.2,1.4-6.4,3.3c-0.2,2.1,2.9,4,6.8,4.3
				c0.3,0,0.7,0,1,0c3.5,0,6.2-1.4,6.4-3.3c0.2-2.1-2.9-4-6.8-4.3C116.5,85,116.1,84.9,115.8,84.9z"/>
		</g>
	</g>
	<g>
		<path class="st1" d="M74.1,53.3c-0.6-3.9-2.2-6.2-3.1-8.3c-0.9-2-1.1-4.5-2.5-4.6c-1.3,0.3-3.2,4.5-3.6,9
			c-0.4,4.5,0.8,8.6,2.6,10.5c1.8,1.9,2.5,3.9,2.5,3.9l3.6-2.6C73.5,61.2,74.7,57.2,74.1,53.3z"/>
		<g>
			<path class="st2" d="M69.8,63.8c0,0-0.8-2-2.5-3.9c-1.9-2.1-3-6.4-2.6-10.6c0.4-4.5,2.4-8.8,3.7-9.1l0,0l0,0
				c1.1,0.1,1.5,1.3,1.9,2.8c0.2,0.6,0.4,1.3,0.7,1.9c0.2,0.5,0.5,0.9,0.7,1.4c0.9,1.7,2,3.8,2.4,6.9c0.6,3.9-0.6,8-0.6,8l-0.3-0.1
				c0,0,1.2-4,0.6-7.8c-0.4-3-1.5-5.1-2.4-6.8c-0.3-0.5-0.5-1-0.7-1.5c-0.3-0.6-0.5-1.3-0.7-2c-0.4-1.4-0.8-2.5-1.7-2.6
				c-1.1,0.3-3.1,4.2-3.5,8.8c-0.3,4.2,0.7,8.3,2.5,10.4c1.8,1.9,2.5,3.9,2.5,4L69.8,63.8z"/>
		</g>
	</g>
	<g>
		<g>
			<path class="st3" d="M71,60.5c-0.7-5.2,1.5-9.3-2.6-16.1C64.9,48.5,66.3,57.5,71,60.5z"/>
		</g>
		<g>
			<path class="st4" d="M67.6,45.7c-1.9,3.5-1.3,9.1,1.2,12.6C68.8,53.9,70.1,49.3,67.6,45.7z"/>
		</g>
		<g>
			<path class="st2" d="M71.2,60.8l-0.3-0.2c-2.3-1.5-4-4.5-4.5-8c-0.5-3.3,0.2-6.4,1.9-8.3l0.1-0.1l0.1,0.2
				c2.9,4.7,2.7,8.2,2.5,11.5c-0.1,1.5-0.1,3,0.1,4.6L71.2,60.8z M68.4,44.7c-1.5,1.8-2.1,4.7-1.7,7.9c0.5,3.3,2,6.2,4.1,7.6
				c-0.2-1.5-0.1-2.9,0-4.3C70.9,52.6,71.1,49.2,68.4,44.7z"/>
		</g>
	</g>
	<g>
		<path class="st0" d="M81,65.5c4.3-1.6,16.2-4.7,25.8,0c9,4.4,10.2,21.6,5.6,26c-5.2,1.9-22.9,1.3-28.6-5.2c-3.1-0.7-7-5.5-8.7-7.3
			c-2.2,1.3-4.7,1.2-5.5,1.2c-1.8,1.7-5,2.3-6.5-0.3c-1.5,0.1-3-1.5-2-3.8c-0.3-1.6,0.8-3.3,0.6-6.7c-0.2-3.4,1.2-7.1,6.1-9
			C72.6,58.4,78.5,60,81,65.5z"/>
		<path class="st1" d="M109.1,67c-0.7-0.6-1.5-1.1-2.3-1.5c-9.7-4.7-21.5-1.6-25.8,0c-2.5-5.4-8.4-7.1-13.3-5.2
			c-4.9,1.9-6.3,5.7-6.1,9c0.2,3.4-0.8,5.1-0.6,6.7c-0.4,1-0.4,1.9-0.1,2.6c0.2,0.3,0.5,0.6,0.9,0.8c0.7,0.3,1.6,0.9,2.3,0.3
			c1.6,0.7,3.6,0.3,5.3-1c0.5,0.6,1.4,0.7,2.8,0.1c2.7-1,5.1-3.4,4.1-5.9c2.5,2.2,3.3,6,9.1,8.1c0.1-0.6,0.2-1.2,0.2-1.9
			c0.5,0.4,1.1,0.6,1.8,0.7c0.1-1.4,0.2-2.8,0.2-4.1c2.5,0.3,5,4,8.3,3.3c0.2,1-0.2,1.9-0.8,2.8c2.5,7,11.3,11.3,16.1,5.6
			C115.8,82,113.6,73.2,109.1,67z"/>
		<path class="st2" d="M104.5,92.6c-7.1,0-16.8-1.6-20.8-6.2c-2.7-0.6-5.9-4.2-7.8-6.3c-0.3-0.3-0.6-0.6-0.8-0.9
			c-2,1.1-4.3,1.1-5.1,1.1l-0.3,0c-1,0.9-2.3,1.5-3.6,1.5c-0.9,0-2.2-0.3-3.1-1.8c0,0,0,0,0,0c-0.8,0-1.5-0.4-2-1.1
			c-0.5-0.8-0.6-1.8-0.1-3c-0.1-0.7,0-1.5,0.2-2.4c0.2-1.1,0.5-2.4,0.4-4.3c-0.1-2.5,0.5-6.9,6.2-9.2c1.3-0.5,2.7-0.8,4.1-0.8
			c4.1,0,7.6,2.2,9.3,5.9c1.8-0.6,7.3-2.5,13.9-2.5c4.5,0,8.5,0.8,11.9,2.5c4,2,7,6.9,8,13.2c0.9,5.7-0.1,10.9-2.4,13.1l-0.1,0
			C110.7,92.3,107.9,92.6,104.5,92.6z M75.1,78.8L75.1,78.8c0.3,0.4,0.6,0.7,1,1.1c1.9,2.1,5.1,5.7,7.7,6.3l0.1,0l0,0
			c3.9,4.5,13.6,6.1,20.6,6.1c3.3,0,6.1-0.3,7.7-0.9c2.2-2.1,3.1-7.4,2.3-12.8c-1-6.2-3.9-11-7.8-12.9c-3.4-1.6-7.3-2.5-11.8-2.5
			c-6.7,0-12.4,1.9-13.9,2.5l-0.1,0.1l-0.1-0.1c-1.7-3.7-5.1-5.8-9.1-5.8c-1.4,0-2.7,0.3-4,0.8c-5.5,2.2-6.1,6.5-6,8.9
			c0.1,1.9-0.2,3.2-0.4,4.3c-0.2,0.9-0.3,1.6-0.2,2.3l0,0l0,0c-0.4,1-0.4,2,0.1,2.7c0.4,0.6,1.1,1,1.8,0.9l0.1,0l0,0.1
			c0.8,1.4,2,1.7,2.9,1.7c1.2,0,2.4-0.5,3.4-1.4l0,0H70c0.8,0,3.1,0,5-1.2L75.1,78.8z"/>
	</g>
	<g>
		<path class="st2" d="M66.2,80.1c-0.6,0-1.3-0.1-2-0.5c-0.3,0.2-1.1,0.6-2.1,0.2l0.1-0.3c1,0.4,1.7-0.1,1.8-0.2l0.1-0.1l0.1,0.1
			c2.6,1.4,5.2-0.6,5.2-0.6C69.4,78.6,68.1,80.1,66.2,80.1z"/>
	</g>
	<g>
		<path class="st17" d="M65.2,76c0,0-0.5,1.8-2.3,1.9c-1.1-0.1-1.8-1.3-1.9-1.9C61.4,75.4,63.8,75.1,65.2,76z"/>
		<path class="st9" d="M65.1,76.3c0.1-0.2,0.1-0.4,0.1-0.4c-1.4-0.9-3.9-0.6-4.2,0c0,0,0,0.1,0,0.2C62.3,75.6,63.8,75.7,65.1,76.3z"
			/>
		<path class="st18" d="M62.9,78L62.9,78c-1.2-0.1-2-1.4-2-2l0,0l0,0c0.2-0.5,1.2-0.7,2.1-0.7c0.5,0,1.5,0.1,2.4,0.6l0.1,0.1l0,0.1
			C65.4,76,64.8,78,62.9,78L62.9,78z M61.2,76c0.1,0.6,0.8,1.6,1.7,1.7c1.4-0.1,2-1.3,2.1-1.6c-0.7-0.4-1.6-0.5-2.1-0.5
			C62.1,75.6,61.4,75.8,61.2,76z"/>
	</g>
	<g>
		<g>
			<path class="st5" d="M97.1,84.7c-4.5-3.2-9.2-3.1-12.7-4.1c-3.3-0.7-5.9-1.7-7.5-3.8c-0.6,1.5-1.8,2.1-1.8,2.1
				c1.7,1.8,5.6,6.6,8.7,7.3c4,4.7,14.2,6.3,21.6,6.2C103.7,89.9,100.1,86.8,97.1,84.7z"/>
			<path class="st7" d="M104.5,92.6L104.5,92.6c-7.1,0-16.8-1.6-20.8-6.2c-2.7-0.6-5.9-4.2-7.8-6.3c-0.3-0.4-0.6-0.7-0.9-0.9
				L74.8,79l0.2-0.1c0,0,1.1-0.7,1.7-2.1l0.1-0.3l0.2,0.2c1.5,1.8,3.7,2.9,7.5,3.7c1,0.3,2.1,0.5,3.2,0.7c2.9,0.5,6.2,1.1,9.5,3.4
				c1.4,1,6.2,4.4,8.3,7.7l0.2,0.3l-0.3,0C105.1,92.6,104.8,92.6,104.5,92.6z M75.4,79c0.2,0.2,0.5,0.5,0.7,0.8
				c1.9,2.1,5.1,5.7,7.7,6.3l0.1,0l0,0c3.9,4.5,13.6,6.1,20.6,6.1l0,0c0.2,0,0.3,0,0.5,0c-2.1-3.2-6.7-6.4-8-7.4
				c-3.2-2.3-6.5-2.8-9.4-3.4c-1.2-0.2-2.2-0.4-3.2-0.7c-3.7-0.8-6-1.9-7.5-3.6C76.4,78.2,75.7,78.8,75.4,79z"/>
		</g>
	</g>
	<g>
		<path class="st0" d="M114.9,79.9l-9.6-4.5c0,0-4.5-1.8-8.6,0.8c-4.1,2.5-5.5,8.6,0.2,13.3c-1.1,0.2-3.4-0.2-4.8,0.3
			c-1.5,0.5-2.6,2.8-1.4,3.7c-0.1,1.2,1.4,1.9,2.4,1.7c0.8,1.6,5.5,1.8,9.6,1.2c4-0.6,10.7-0.8,9.7-4.8
			C114.1,89.9,115.8,85.4,114.9,79.9z"/>
		<path class="st1" d="M111.2,87.4c1.9-2.2,2.6-5,2.5-8l-8.4-3.9c0,0-4.5-1.8-8.6,0.8c-1.8,1.1-3,2.8-3.4,4.8
			C95.5,88.5,106.3,93.3,111.2,87.4z"/>
		<path class="st1" d="M109.9,92.4c-4.9,0.3-10.6,0.9-13.9-2.9c-1.2,0-2.8-0.2-3.9,0.2c-1.5,0.5-2.4,1.7-1.2,2.6
			c-0.1,1.2,1.3,1.3,2.4,1.1c0.8,1.6,5,2.4,9,1.7c1-0.2,2.2-0.2,3.3-0.3C107.6,94.2,109.6,94.2,109.9,92.4z"/>
		<path class="st2" d="M98.4,96.8c-2.6,0-4.8-0.4-5.5-1.5c-0.7,0.1-1.4-0.1-1.9-0.5c-0.4-0.3-0.6-0.8-0.6-1.2
			c-0.4-0.4-0.5-0.9-0.4-1.6c0.2-1.1,1.1-2.1,2-2.4c0.9-0.3,2.1-0.3,3.2-0.2c0.5,0,0.9,0,1.3,0c-2.5-2.1-3.7-4.7-3.6-7.4
			c0.2-2.4,1.5-4.6,3.7-5.9c4.2-2.6,8.7-0.5,8.7-0.5c0,0-4.5-1.7-8.5,0.8c-2,1.3-3.4,3.4-3.5,5.7c-0.2,2.6,1.2,5.2,3.8,7.3l0.3,0.2
			L97,89.6c-0.5,0.1-1.1,0.1-1.7,0c-1,0-2.2-0.1-3.1,0.2c-0.8,0.3-1.6,1.2-1.8,2.1c-0.1,0.3-0.1,0.9,0.4,1.3l0.1,0.1l0,0.1
			c0,0.5,0.2,0.9,0.4,1.1c0.5,0.4,1.2,0.6,1.8,0.4l0.1,0l0.1,0.1c0.7,1.5,5.3,1.7,9.4,1.1c0.6-0.1,1.2-0.2,1.9-0.3
			c3-0.4,6.3-0.8,7.4-2.4c0.4-0.5,0.5-1.2,0.3-1.9l0-0.1l0.1-0.1c1.6-1.5,3.4-6,2.5-11.4l0.3-0.1c0.9,5.2-0.6,9.9-2.5,11.7
			c0.2,0.8,0.1,1.5-0.3,2.1c-1.2,1.7-4.6,2.2-7.6,2.5c-0.7,0.1-1.3,0.2-1.9,0.3C101.3,96.7,99.8,96.8,98.4,96.8z"/>
	</g>
	<g>
		<path class="st2" d="M104.2,91.6c-1.8,0-5.5-0.3-8.2-2.7l0.2-0.3c3.6,3.2,9.1,2.9,9.1,2.9C105.3,91.5,104.9,91.6,104.2,91.6z"/>
	</g>
	<g>
		<path class="st2" d="M92.9,95.1c-0.6-2.6,2.2-3.4,2.2-3.4c0,0-2.4,1.1-1.9,3.4L92.9,95.1z"/>
	</g>
	<g>
		<path class="st2" d="M90.8,93.5l-0.3-0.1c0.5-2.6,3.4-2.8,3.4-2.8C93.9,90.6,91.2,91.1,90.8,93.5z"/>
	</g>
	<g>
		<path class="st0" d="M80.5,76c0,0-0.1,8.1-1.9,11.4c-1.3,0.1-4.1,0.3-5,1.9c-0.8,1.6,0.1,3,1.3,3c0.1,0.9,1.1,1.8,2.5,1.6
			c1,1.4,5.5,0.7,6.4-1.5c0.6-1.1,2.5-4.2,3.7-7.4c1.3-3.4,1.9-6.8,1.9-6.8L80.5,76z"/>
		<path class="st1" d="M78.6,87.4c-1.3,0.1-4.1,0.3-5,1.9c-0.8,1.6,0.5,1.3,1.7,1.2c0.1,0.9,0.6,1.1,2,0.9c1,1.4,4.2,2.1,5-0.1
			c0.3-0.5,1.4-2.8,2.3-3.6c2.1-3.4,2.6-6,2.8-10l-7-1.8C80.5,76,80.4,84.1,78.6,87.4z"/>
		<path class="st2" d="M79.5,94.8c-1,0-1.7-0.3-2.1-0.7c-0.7,0.1-1.3-0.1-1.8-0.5c-0.4-0.3-0.6-0.7-0.7-1.1c-0.5,0-1-0.3-1.3-0.8
			c-0.4-0.7-0.4-1.6,0-2.5c0.6-1.2,2.3-1.9,5-2c1.8-3.3,1.9-11.2,1.9-11.3c0,0,0.3,1.4,0.2,3.1c-0.2,2.7-0.7,6.4-1.8,8.4l0,0.1
			l-0.1,0c-2.6,0.1-4.3,0.7-4.8,1.8c-0.4,0.8-0.4,1.6,0,2.1c0.3,0.4,0.7,0.6,1.2,0.6l0.2,0l0,0.2c0,0.4,0.3,0.8,0.6,1.1
			c0.4,0.3,1,0.5,1.7,0.4l0.1,0l0.1,0.1c0.4,0.5,1.4,0.8,2.7,0.6c1.4-0.2,3-0.9,3.4-2.1c0.1-0.2,0.2-0.4,0.4-0.7
			c0.8-1.4,2.3-4,3.3-6.7c1.3-3.3,1.9-6.8,1.9-6.8c0,0,0.1,1.3-0.3,3c-0.3,1.2-0.7,2.6-1.3,4c-1,2.7-2.5,5.3-3.3,6.7
			c-0.1,0.3-0.3,0.5-0.4,0.6c-0.5,1.4-2.3,2.1-3.7,2.3C80,94.8,79.8,94.8,79.5,94.8z"/>
	</g>
	<g>
		<path class="st2" d="M74.9,92.6c-0.4-2.1,1.4-2.6,1.4-2.6c-0.1,0-1.4,0.7-1.1,2.6L74.9,92.6z"/>
	</g>
	<g>
		<path class="st2" d="M77.3,94c-1.1-2.4,0.9-3.4,0.9-3.4c-0.1,0-1.6,1.1-0.6,3.2L77.3,94z"/>
	</g>
	<g>
		<path class="st2" d="M74.7,79.4l-0.2-0.3c1.2-0.7,2-1.5,2.3-2.6c0.4-1.2,0-2.3,0-2.3c0,0,0.7,1,0.4,2.4
			C76.8,77.8,76,78.7,74.7,79.4z"/>
	</g>
	<g>
		<g>
			<path class="st0" d="M74.3,62.7c-0.9-3.7-1.4-7.8,0.8-12.1c2.2-4.3,8.2-8.7,9.9-8.3c1.7,0.3,0.1,2.8,0,4.3
				c-0.1,1.5,0.2,5.8-1.7,9.8c-1.9,4-5.7,6.5-6.8,6.7C76,63.1,74.3,62.7,74.3,62.7z"/>
		</g>
		<g>
			<path class="st1" d="M74.3,62.7c-0.9-3.7-1.4-7.8,0.8-12.1c2.2-4.3,8.2-8.7,9.9-8.3c1.7,0.3-1.2,2.1-1.3,3.6
				c-0.1,1.5-0.6,5.5-2.5,9.5c-1.9,4-4.8,7.3-5.9,7.5C74.8,62.9,74.3,62.7,74.3,62.7z"/>
		</g>
		<g>
			<path class="st2" d="M85.8,42.5c-0.1-0.2-0.4-0.4-0.7-0.5c-0.1,0-0.1,0-0.2,0c-2,0-7.7,4.3-9.9,8.5c-2.3,4.5-1.7,8.8-0.9,12.1
				c0.1-0.1,0.2-0.3,0.3-0.4c-0.8-3.4-1.3-7.4,0.9-11.6c2.1-4,7.7-8.3,9.6-8.3c0.1,0,0.1,0,0.2,0c0.3,0.1,0.4,0.2,0.5,0.3
				c0.3,0.5,0,1.4-0.3,2.2c-0.2,0.6-0.4,1.1-0.4,1.6c0,0.3,0,0.6,0,1c0,1.9-0.1,5.4-1.7,8.7c-1.8,3.8-5.3,6.2-6.5,6.6
				c0,0.1,0.1,0.2,0.1,0.3c1.4-0.5,4.9-3,6.7-6.8c1.6-3.3,1.7-6.9,1.7-8.9c0-0.4,0-0.7,0-1c0-0.4,0.2-1,0.4-1.5
				C85.8,44.1,86.1,43.1,85.8,42.5z"/>
		</g>
	</g>
	<g>
		<g>
			<path class="st3" d="M75.9,62c-0.3-5.3,2.6-13.5,7.2-15.9C83.2,51.2,81.5,58.3,75.9,62z"/>
		</g>
		<g>
			<path class="st4" d="M83.1,47.9c-2.5,1.8-4.4,4.4-5.4,7.1c-0.7,1.8-0.9,3.9-0.2,5.7C81.3,57.4,82.8,52.3,83.1,47.9z"/>
		</g>
		<g>
			<path class="st2" d="M75.8,62.3l0-0.3c-0.3-5.5,2.8-13.7,7.3-16.1l0.2-0.1l0,0.3c0.1,5.4-1.7,12.4-7.2,16.1L75.8,62.3z
				 M82.9,46.3c-4.2,2.4-7.1,10-6.9,15.3C81.2,58.1,83,51.5,82.9,46.3z"/>
		</g>
	</g>
	<g>
		<g>
			<g>
				<g>
					<g>
						<g>
							<g>
								<g>
									<g>
										<g>
											<g>
												<g>
													<g>
														<g>
															<g>
																<g>
																	<g>
																		<path class="st15" d="M67.2,70.7c-0.1,1.7,0.8,3.1,2.1,3.2c1.2,0.1,2.3-1.1,2.4-2.8c0.1-1.7-0.8-3.1-2.1-3.2
																			C68.3,67.8,67.3,69,67.2,70.7z"/>
																	</g>
																</g>
															</g>
														</g>
													</g>
													<g>
														<g>
															<g>
																<g>
																	<g>
																		<g>
																			<g>
																				<g>
																					<g>
																						<g>
																							<g>
																								<path class="st11" d="M67.2,70.7c-0.1,1.7,4.4,2.1,4.5,0.4c0.1-1.7-0.8-3.1-2.1-3.2
																									C68.3,67.8,67.3,69,67.2,70.7z"/>
																							</g>
																						</g>
																					</g>
																				</g>
																			</g>
																		</g>
																	</g>
																</g>
															</g>
														</g>
													</g>
													<g>
														<g>
															<g>
																<g>
																	<g>
																		<path class="st2" d="M69.3,74.1L69.3,74.1L69.3,74.1c-1.4-0.1-2.4-1.6-2.3-3.4c0.1-1.7,1.2-3,2.5-2.9l0.1,0
																			c1.3,0.1,2.3,1.6,2.2,3.4C71.7,72.8,70.6,74.1,69.3,74.1z M69.5,68c-1.1-0.1-2.1,1.1-2.2,2.7
																			c-0.1,1.6,0.8,3,2,3.1l0.1,0c1.1,0.1,2.1-1.1,2.2-2.7C71.6,69.5,70.8,68.1,69.5,68L69.5,68z"/>
																	</g>
																</g>
															</g>
														</g>
													</g>
												</g>
											</g>
										</g>
									</g>
								</g>
							</g>
						</g>
					</g>
				</g>
			</g>
		</g>
		<g>
			<g>
				<g>
					<g>
						<g>
							<g>
								<g>
									<g>
										<g>
											<g>
												<g>
													<g>
														<path class="st12" d="M68,71c-0.1,1.1,0.6,2,1.4,2.1c0.8,0.1,1.5-0.7,1.6-1.8c0-1.1-0.6-2-1.4-2.1
															C68.7,69.1,68,69.9,68,71z"/>
													</g>
												</g>
											</g>
										</g>
									</g>
								</g>
							</g>
						</g>
					</g>
				</g>
			</g>
			<g>
				<g>
					<g>
						<g>
							<g>
								<g>
									<g>
										<g>
											<g>
												<g>
													<g>
														<path class="st16" d="M68,71.1c0,1.1,3,1.2,2.9,0.1c0-1.1-0.7-2-1.5-2C68.6,69.1,68,70,68,71.1z"/>
													</g>
												</g>
											</g>
										</g>
									</g>
								</g>
							</g>
						</g>
					</g>
				</g>
			</g>
			<g>
				<g>
					<g>
						<g>
							<g>
								<g>
									<g>
										<g>
											<g>
												<g>
													<g>
														<path class="st14" d="M67.9,71c0-0.5,0.2-1,0.5-1.4c0.3-0.4,0.7-0.5,1.2-0.5c0.2,0,0.3,0.1,0.5,0.2
															c0.6,0.4,1,1.2,1,2.1c-0.1,1.1-0.8,2-1.7,1.9c-0.2,0-0.3-0.1-0.5-0.2C68.2,72.7,67.8,71.9,67.9,71z M69.5,69.3
															c-0.4,0-0.7,0.1-1,0.4c-0.3,0.3-0.5,0.8-0.5,1.3c0,0.8,0.3,1.6,0.9,1.9c0.1,0.1,0.3,0.1,0.4,0.1
															c0.8,0.1,1.4-0.7,1.5-1.7c0-0.8-0.3-1.6-0.9-1.9C69.8,69.3,69.7,69.3,69.5,69.3z"/>
													</g>
												</g>
											</g>
										</g>
									</g>
								</g>
							</g>
						</g>
					</g>
				</g>
			</g>
		</g>
		<g>
			<g>
				<g>
					<g>
						<g>
							<g>
								<g>
									<g>
										<g>
											<g>
												<g>
													<g>
														<path class="st13" d="M68.6,71.1c-0.1,0.6,0.2,1.2,0.8,1.3c0.5,0.1,1-0.3,1.1-0.9c0.1-0.6-0.2-1.2-0.7-1.3
															C69.2,70.1,68.7,70.5,68.6,71.1z"/>
													</g>
												</g>
											</g>
										</g>
									</g>
								</g>
							</g>
						</g>
					</g>
				</g>
			</g>
		</g>
		<g>
			<g>
				<g>
					<g>
						<g>
							<g>
								<g>
									<g>
										<g>
											<g>
												<g>
													<g>
														<path class="st11" d="M68.6,70c-0.1,0.2-0.1,0.5,0.2,0.6c0.2,0.1,0.5,0,0.7-0.2c0.1-0.2,0.1-0.5-0.2-0.6
															C69,69.8,68.7,69.8,68.6,70z"/>
													</g>
												</g>
											</g>
										</g>
									</g>
								</g>
							</g>
						</g>
					</g>
				</g>
			</g>
		</g>
		<g>
			<g>
				<g>
					<g>
						<g>
							<g>
								<g>
									<g>
										<g>
											<g>
												<g>
													<g>
														<path class="st11" d="M68.6,71c-0.1,0.1,0,0.3,0.1,0.3c0.1,0.1,0.3,0,0.4-0.1c0.1-0.1,0-0.3-0.1-0.3
															C68.9,70.8,68.7,70.9,68.6,71z"/>
													</g>
												</g>
											</g>
										</g>
									</g>
								</g>
							</g>
						</g>
					</g>
				</g>
			</g>
		</g>
	</g>
</g>
</svg>
