<?xml version="1.0" encoding="utf-8"?>
<!-- Generator: Adobe Illustrator 21.0.2, SVG Export Plug-In . SVG Version: 6.00 Build 0)  -->
<svg version="1.1" id="Слой_1" xmlns="http://www.w3.org/2000/svg" xmlns:xlink="http://www.w3.org/1999/xlink" x="0px" y="0px"
	 viewBox="0 0 210 250" style="enable-background:new 0 0 210 250;" xml:space="preserve">
<style type="text/css">
	.st0{fill:url(#SVGID_1_);}
	.st1{fill:url(#SVGID_2_);}
	.st2{fill:url(#SVGID_3_);}
	.st3{fill:url(#SVGID_4_);}
	.st4{fill:#FFFFAD;}
	.st5{fill:url(#SVGID_5_);}
	.st6{fill:url(#SVGID_6_);}
	.st7{fill:url(#SVGID_7_);}
	.st8{fill:url(#SVGID_8_);}
	.st9{fill:url(#SVGID_9_);}
	.st10{fill:url(#SVGID_10_);}
	.st11{fill:url(#SVGID_11_);}
	.st12{fill:url(#SVGID_12_);}
	.st13{fill:url(#SVGID_13_);}
	.st14{fill:url(#SVGID_14_);}
	.st15{fill:url(#SVGID_15_);}
	.st16{fill:url(#SVGID_16_);}
	.st17{opacity:0.5;fill:url(#SVGID_17_);}
	.st18{fill:#FFFFFF;}
</style>
<g>
	<linearGradient id="SVGID_1_" gradientUnits="userSpaceOnUse" x1="2.6297" y1="126.8699" x2="205.6883" y2="126.8699">
		<stop  offset="0" style="stop-color:#2B4BBC"/>
		<stop  offset="1" style="stop-color:#4981BE"/>
	</linearGradient>
	<path class="st0" d="M5.1,19.1C-0.5,26,4.4,233.4,9.5,242c4.7,8,180.4,8.3,189.6,0c9.1-8.3,8.5-223.2,0-230.9
		C190.6,3.5,19,1.9,5.1,19.1z"/>
	<linearGradient id="SVGID_2_" gradientUnits="userSpaceOnUse" x1="104.5819" y1="246.4687" x2="104.5819" y2="3.9814">
		<stop  offset="0" style="stop-color:#86EDEF"/>
		<stop  offset="1" style="stop-color:#5596FB"/>
	</linearGradient>
	<path class="st1" d="M5.5,17.4C0,24.3,4.9,231.8,9.9,240.4c4.7,8,180.4,8.3,189.6,0c9.1-8.3,8.5-223.2,0-230.9
		C191,1.8,19.4,0.2,5.5,17.4z"/>
	<radialGradient id="SVGID_3_" cx="104.8996" cy="125.6987" r="110.5832" gradientUnits="userSpaceOnUse">
		<stop  offset="0" style="stop-color:#172AA8"/>
		<stop  offset="1" style="stop-color:#4E8AC6"/>
	</radialGradient>
	<path class="st2" d="M7.2,19.2C1.7,26,4.4,226.8,11.5,238.4c4.7,7.8,175.9,10.6,186.4,0c11.8-11.9,8.3-219.5,0-227
		C189.6,3.9,20.8,2.3,7.2,19.2z"/>
	<g>
		<g>
			
				<radialGradient id="SVGID_4_" cx="514.9629" cy="-405.8789" r="2.072" gradientTransform="matrix(-5.960000e-02 -0.9982 0.9982 -5.960000e-02 480.9461 628.818)" gradientUnits="userSpaceOnUse">
				<stop  offset="0" style="stop-color:#64B05F"/>
				<stop  offset="0.1176" style="stop-color:#52914E"/>
				<stop  offset="0.3349" style="stop-color:#355E33"/>
				<stop  offset="0.5391" style="stop-color:#1E351D"/>
				<stop  offset="0.7242" style="stop-color:#0E180D"/>
				<stop  offset="0.8839" style="stop-color:#040603"/>
				<stop  offset="1" style="stop-color:#000000"/>
			</radialGradient>
			<circle class="st3" cx="45.1" cy="139" r="2.1"/>
			
				<ellipse transform="matrix(0.9982 -5.961093e-02 5.961093e-02 0.9982 -8.2032 2.9455)" class="st4" cx="45.3" cy="139" rx="0.6" ry="0.6"/>
		</g>
		<g>
			
				<radialGradient id="SVGID_5_" cx="523.6743" cy="-402.539" r="2.072" gradientTransform="matrix(-5.960000e-02 -0.9982 0.9982 -5.960000e-02 480.9461 628.818)" gradientUnits="userSpaceOnUse">
				<stop  offset="0" style="stop-color:#64B05F"/>
				<stop  offset="0.1176" style="stop-color:#52914E"/>
				<stop  offset="0.3349" style="stop-color:#355E33"/>
				<stop  offset="0.5391" style="stop-color:#1E351D"/>
				<stop  offset="0.7242" style="stop-color:#0E180D"/>
				<stop  offset="0.8839" style="stop-color:#040603"/>
				<stop  offset="1" style="stop-color:#000000"/>
			</radialGradient>
			<circle class="st5" cx="47.9" cy="130.1" r="2.1"/>
			
				<ellipse transform="matrix(0.9982 -5.961093e-02 5.961093e-02 0.9982 -7.668 3.0975)" class="st4" cx="48.1" cy="130.1" rx="0.6" ry="0.6"/>
		</g>
		<g>
			
				<radialGradient id="SVGID_6_" cx="498.2982" cy="-405.7175" r="2.072" gradientTransform="matrix(-5.960000e-02 -0.9982 0.9982 -5.960000e-02 480.9461 628.818)" gradientUnits="userSpaceOnUse">
				<stop  offset="0" style="stop-color:#64B05F"/>
				<stop  offset="0.1176" style="stop-color:#52914E"/>
				<stop  offset="0.3349" style="stop-color:#355E33"/>
				<stop  offset="0.5391" style="stop-color:#1E351D"/>
				<stop  offset="0.7242" style="stop-color:#0E180D"/>
				<stop  offset="0.8839" style="stop-color:#040603"/>
				<stop  offset="1" style="stop-color:#000000"/>
			</radialGradient>
			<circle class="st6" cx="46.3" cy="155.6" r="2.1"/>
			
				<ellipse transform="matrix(0.9982 -5.961093e-02 5.961093e-02 0.9982 -9.1922 3.0439)" class="st4" cx="46.4" cy="155.6" rx="0.6" ry="0.6"/>
		</g>
		<g>
			
				<radialGradient id="SVGID_7_" cx="525.1721" cy="-413.6601" r="5.7981" gradientTransform="matrix(-5.960000e-02 -0.9982 0.9982 -5.960000e-02 480.9461 628.818)" gradientUnits="userSpaceOnUse">
				<stop  offset="0" style="stop-color:#64B05F"/>
				<stop  offset="0.1176" style="stop-color:#52914E"/>
				<stop  offset="0.3349" style="stop-color:#355E33"/>
				<stop  offset="0.5391" style="stop-color:#1E351D"/>
				<stop  offset="0.7242" style="stop-color:#0E180D"/>
				<stop  offset="0.8839" style="stop-color:#040603"/>
				<stop  offset="1" style="stop-color:#000000"/>
			</radialGradient>
			<circle class="st7" cx="36.7" cy="129.2" r="5.8"/>
			
				<ellipse transform="matrix(0.9982 -5.964216e-02 5.964216e-02 0.9982 -7.6407 2.4475)" class="st4" cx="37.2" cy="129.2" rx="1.6" ry="1.6"/>
		</g>
		<g>
			
				<radialGradient id="SVGID_8_" cx="476.1629" cy="-297.3763" r="5.798" gradientTransform="matrix(-5.960000e-02 -0.9982 0.9982 -5.960000e-02 480.9461 628.818)" gradientUnits="userSpaceOnUse">
				<stop  offset="0" style="stop-color:#64B05F"/>
				<stop  offset="0.1176" style="stop-color:#52914E"/>
				<stop  offset="0.3349" style="stop-color:#355E33"/>
				<stop  offset="0.5391" style="stop-color:#1E351D"/>
				<stop  offset="0.7242" style="stop-color:#0E180D"/>
				<stop  offset="0.8839" style="stop-color:#040603"/>
				<stop  offset="1" style="stop-color:#000000"/>
			</radialGradient>
			<circle class="st8" cx="155.7" cy="171.2" r="5.8"/>
			
				<ellipse transform="matrix(0.9982 -5.964216e-02 5.964216e-02 0.9982 -9.9333 9.6194)" class="st4" cx="156.2" cy="171.2" rx="1.6" ry="1.6"/>
		</g>
		<g>
			
				<radialGradient id="SVGID_9_" cx="480.1784" cy="-267.3442" r="2.7693" gradientTransform="matrix(-5.960000e-02 -0.9982 0.9982 -5.960000e-02 480.9461 628.818)" gradientUnits="userSpaceOnUse">
				<stop  offset="0" style="stop-color:#64B05F"/>
				<stop  offset="0.1176" style="stop-color:#52914E"/>
				<stop  offset="0.3349" style="stop-color:#355E33"/>
				<stop  offset="0.5391" style="stop-color:#1E351D"/>
				<stop  offset="0.7242" style="stop-color:#0E180D"/>
				<stop  offset="0.8839" style="stop-color:#040603"/>
				<stop  offset="1" style="stop-color:#000000"/>
			</radialGradient>
			<circle class="st9" cx="185.5" cy="165.4" r="2.8"/>
			
				<ellipse transform="matrix(0.9982 -5.966229e-02 5.966229e-02 0.9982 -9.5389 11.3727)" class="st4" cx="185.7" cy="165.4" rx="0.8" ry="0.8"/>
		</g>
		<g>
			
				<radialGradient id="SVGID_10_" cx="483.033" cy="-399.7874" r="2.7693" gradientTransform="matrix(-5.960000e-02 -0.9982 0.9982 -5.960000e-02 480.9461 628.818)" gradientUnits="userSpaceOnUse">
				<stop  offset="0" style="stop-color:#64B05F"/>
				<stop  offset="0.1176" style="stop-color:#52914E"/>
				<stop  offset="0.3349" style="stop-color:#355E33"/>
				<stop  offset="0.5391" style="stop-color:#1E351D"/>
				<stop  offset="0.7242" style="stop-color:#0E180D"/>
				<stop  offset="0.8839" style="stop-color:#040603"/>
				<stop  offset="1" style="stop-color:#000000"/>
			</radialGradient>
			<circle class="st10" cx="53.1" cy="170.5" r="2.8"/>
			
				<ellipse transform="matrix(0.9982 -5.963630e-02 5.963630e-02 0.9982 -10.0713 3.4823)" class="st4" cx="53.3" cy="170.5" rx="0.8" ry="0.8"/>
		</g>
		<g>
			
				<radialGradient id="SVGID_11_" cx="490.0047" cy="-319.8116" r="1.3846" gradientTransform="matrix(-5.960000e-02 -0.9982 0.9982 -5.960000e-02 480.9461 628.818)" gradientUnits="userSpaceOnUse">
				<stop  offset="0" style="stop-color:#64B05F"/>
				<stop  offset="0.1176" style="stop-color:#52914E"/>
				<stop  offset="0.3349" style="stop-color:#355E33"/>
				<stop  offset="0.5391" style="stop-color:#1E351D"/>
				<stop  offset="0.7242" style="stop-color:#0E180D"/>
				<stop  offset="0.8839" style="stop-color:#040603"/>
				<stop  offset="1" style="stop-color:#000000"/>
			</radialGradient>
			<circle class="st11" cx="132.5" cy="158.8" r="1.4"/>
			
				<ellipse transform="matrix(0.9982 -5.960120e-02 5.960120e-02 0.9982 -9.2259 8.1861)" class="st4" cx="132.6" cy="158.7" rx="0.4" ry="0.4"/>
		</g>
		<g>
			
				<radialGradient id="SVGID_12_" cx="478.5847" cy="-424.7674" r="1.3847" gradientTransform="matrix(-5.960000e-02 -0.9982 0.9982 -5.960000e-02 480.9461 628.818)" gradientUnits="userSpaceOnUse">
				<stop  offset="0" style="stop-color:#64B05F"/>
				<stop  offset="0.1176" style="stop-color:#52914E"/>
				<stop  offset="0.3349" style="stop-color:#355E33"/>
				<stop  offset="0.5391" style="stop-color:#1E351D"/>
				<stop  offset="0.7242" style="stop-color:#0E180D"/>
				<stop  offset="0.8839" style="stop-color:#040603"/>
				<stop  offset="1" style="stop-color:#000000"/>
			</radialGradient>
			<circle class="st12" cx="28.4" cy="176.4" r="1.4"/>
			
				<ellipse transform="matrix(0.9982 -5.960120e-02 5.960120e-02 0.9982 -10.4632 2.0138)" class="st4" cx="28.5" cy="176.4" rx="0.4" ry="0.4"/>
		</g>
		<g>
			
				<radialGradient id="SVGID_13_" cx="499.9927" cy="-384.5132" r="1.3847" gradientTransform="matrix(-5.960000e-02 -0.9982 0.9982 -5.960000e-02 480.9461 628.818)" gradientUnits="userSpaceOnUse">
				<stop  offset="0" style="stop-color:#64B05F"/>
				<stop  offset="0.1176" style="stop-color:#52914E"/>
				<stop  offset="0.3349" style="stop-color:#355E33"/>
				<stop  offset="0.5391" style="stop-color:#1E351D"/>
				<stop  offset="0.7242" style="stop-color:#0E180D"/>
				<stop  offset="0.8839" style="stop-color:#040603"/>
				<stop  offset="1" style="stop-color:#000000"/>
			</radialGradient>
			<circle class="st13" cx="67.3" cy="152.6" r="1.4"/>
			
				<ellipse transform="matrix(0.9982 -5.964018e-02 5.964018e-02 0.9982 -8.9832 4.2934)" class="st4" cx="67.4" cy="152.6" rx="0.4" ry="0.4"/>
		</g>
		<g>
			
				<radialGradient id="SVGID_14_" cx="479.7983" cy="-404.9823" r="1.0323" gradientTransform="matrix(-5.960000e-02 -0.9982 0.9982 -5.960000e-02 480.9461 628.818)" gradientUnits="userSpaceOnUse">
				<stop  offset="0" style="stop-color:#64B05F"/>
				<stop  offset="0.1176" style="stop-color:#52914E"/>
				<stop  offset="0.3349" style="stop-color:#355E33"/>
				<stop  offset="0.5391" style="stop-color:#1E351D"/>
				<stop  offset="0.7242" style="stop-color:#0E180D"/>
				<stop  offset="0.8839" style="stop-color:#040603"/>
				<stop  offset="1" style="stop-color:#000000"/>
			</radialGradient>
			<circle class="st14" cx="48.1" cy="174" r="1"/>
			
				<ellipse transform="matrix(0.9982 -5.964481e-02 5.964481e-02 0.9982 -10.2933 3.1833)" class="st4" cx="48.2" cy="174" rx="0.3" ry="0.3"/>
		</g>
		<g>
			
				<radialGradient id="SVGID_15_" cx="471.6279" cy="-333.5379" r="2.1628" gradientTransform="matrix(-5.960000e-02 -0.9982 0.9982 -5.960000e-02 480.9461 628.818)" gradientUnits="userSpaceOnUse">
				<stop  offset="0" style="stop-color:#64B05F"/>
				<stop  offset="0.1176" style="stop-color:#52914E"/>
				<stop  offset="0.3349" style="stop-color:#355E33"/>
				<stop  offset="0.5391" style="stop-color:#1E351D"/>
				<stop  offset="0.7242" style="stop-color:#0E180D"/>
				<stop  offset="0.8839" style="stop-color:#040603"/>
				<stop  offset="1" style="stop-color:#000000"/>
			</radialGradient>
			<circle class="st15" cx="119.9" cy="177.9" r="2.2"/>
			
				<ellipse transform="matrix(0.9982 -5.969596e-02 5.969596e-02 0.9982 -10.4063 7.4848)" class="st4" cx="120.1" cy="177.9" rx="0.6" ry="0.6"/>
		</g>
		<g>
			
				<radialGradient id="SVGID_16_" cx="472.7904" cy="-379.1334" r="2.1628" gradientTransform="matrix(-5.960000e-02 -0.9982 0.9982 -5.960000e-02 480.9461 628.818)" gradientUnits="userSpaceOnUse">
				<stop  offset="0" style="stop-color:#64B05F"/>
				<stop  offset="0.1176" style="stop-color:#52914E"/>
				<stop  offset="0.3349" style="stop-color:#355E33"/>
				<stop  offset="0.5391" style="stop-color:#1E351D"/>
				<stop  offset="0.7242" style="stop-color:#0E180D"/>
				<stop  offset="0.8839" style="stop-color:#040603"/>
				<stop  offset="1" style="stop-color:#000000"/>
			</radialGradient>
			<circle class="st16" cx="74.3" cy="179.5" r="2.2"/>
			
				<ellipse transform="matrix(0.9982 -5.961276e-02 5.961276e-02 0.9982 -10.5659 4.7594)" class="st4" cx="74.5" cy="179.5" rx="0.6" ry="0.6"/>
		</g>
	</g>
	<linearGradient id="SVGID_17_" gradientUnits="userSpaceOnUse" x1="7.9986" y1="23.8288" x2="178.2789" y2="23.8288">
		<stop  offset="0" style="stop-color:#4A776E"/>
		<stop  offset="0.1845" style="stop-color:#40675F"/>
		<stop  offset="0.5455" style="stop-color:#263D38"/>
		<stop  offset="1" style="stop-color:#000000"/>
	</linearGradient>
	<path class="st17" d="M9.8,20.3c0,0-11.1,15.5,21.4,19.6c32.6,4.1,66.1-19.1,94.5-23.8c28.4-4.7,52.5-5.9,52.5-5.9
		S45.1-0.9,9.8,20.3z"/>
	<path class="st18" d="M9.1,25.5c0,0-0.9-3.2,2-5.9c2.9-2.7,18.7-8,20.1-6.7C32.6,14.2,15.5,26.3,9.1,25.5z"/>
	<path class="st18" d="M10.3,28.6c-1.4-0.8-3.9,3-0.9,4.5C12.3,34.7,12,29.6,10.3,28.6z"/>
	<path class="st18" d="M194.1,241.6c-1.5-0.6,6-8.3,6.8-7.7c0.7,0.6-0.3,5.1-1.4,6.1C198.3,240.9,195.1,242,194.1,241.6z"/>
</g>
</svg>
