<?xml version="1.0" encoding="utf-8"?>
<!-- Generator: Adobe Illustrator 21.0.2, SVG Export Plug-In . SVG Version: 6.00 Build 0)  -->
<svg version="1.1" id="Слой_1" xmlns="http://www.w3.org/2000/svg" xmlns:xlink="http://www.w3.org/1999/xlink" x="0px" y="0px"
	 viewBox="0 0 70 70" style="enable-background:new 0 0 70 70;" xml:space="preserve">
<style type="text/css">
	.st0{fill-rule:evenodd;clip-rule:evenodd;fill:url(#SVGID_1_);}
	.st1{fill-rule:evenodd;clip-rule:evenodd;fill:url(#SVGID_2_);}
	.st2{fill-rule:evenodd;clip-rule:evenodd;fill:url(#SVGID_3_);}
	.st3{fill-rule:evenodd;clip-rule:evenodd;fill:url(#SVGID_4_);}
	.st4{fill-rule:evenodd;clip-rule:evenodd;fill:#FFFFFF;}
	.st5{fill-rule:evenodd;clip-rule:evenodd;fill:url(#SVGID_5_);}
	.st6{fill-rule:evenodd;clip-rule:evenodd;fill:url(#SVGID_6_);}
	.st7{fill-rule:evenodd;clip-rule:evenodd;fill:url(#SVGID_7_);}
	.st8{fill-rule:evenodd;clip-rule:evenodd;fill:url(#SVGID_8_);}
	.st9{fill-rule:evenodd;clip-rule:evenodd;fill:#201600;}
	.st10{fill-rule:evenodd;clip-rule:evenodd;fill:#505258;}
	.st11{fill-rule:evenodd;clip-rule:evenodd;fill:url(#SVGID_9_);}
	.st12{fill-rule:evenodd;clip-rule:evenodd;fill:#E2989E;}
	.st13{fill-rule:evenodd;clip-rule:evenodd;fill:url(#SVGID_10_);}
</style>
<g>
	<linearGradient id="SVGID_1_" gradientUnits="userSpaceOnUse" x1="4.1751" y1="34.3166" x2="65.8731" y2="34.3166">
		<stop  offset="0" style="stop-color:#8E89C0"/>
		<stop  offset="1" style="stop-color:#7F80BA"/>
	</linearGradient>
	<path class="st0" d="M17,19.3c-1.7-2-2.3-4.8-1.5-7.1c1.1-3.4,4.7-5.8,8.2-3.6c0.5-4,4.1-5.9,7.8-6c5.1-0.2,6.8,4.4,6.8,5.1
		c2.1-1.8,6.4-3.2,10.4-0.5c2.4,1.6,3.8,4.6,3,8.7c5.3-1.1,8.8,3.9,7.7,8.8c9.2,0.6,8.5,16.5-0.9,17.5c1.4,5.5-1.2,10.5-5.3,12
		c0.8,2.7,1.2,6.1-0.3,7.6c-2.2,2.1-6,2.1-8-1.3c-2.4,0.9-5.1-0.8-5.3-3.3c-0.5,0.1-0.8,0.3-1.3,0.4c0,2.7-0.6,5.9-2.5,7.5
		c-2.9,2.4-7.1-0.4-7.2-4c-5.1,0.8-4.9-5.3-2.1-8.6c-1.4-0.9-2.5-1.7-3.2-3.3c-5.1,1.9-9.9,1.8-14-1.6C6.1,45,3.8,41.1,4.2,36
		C4.8,28,11.8,22.6,17,19.3L17,19.3z"/>
	<linearGradient id="SVGID_2_" gradientUnits="userSpaceOnUse" x1="5.283" y1="34.6239" x2="33.8438" y2="34.6239">
		<stop  offset="0" style="stop-color:#F8DEB0"/>
		<stop  offset="1" style="stop-color:#F1C680"/>
	</linearGradient>
	<path class="st1" d="M21.6,20.5c0.6,1.9,3.7,3.4,5.6,1.8c0.8,2.7,3.4,4.7,6.7,3.8c-0.4,8.4-2,18.1-9.8,21.3
		c1.2-1.1,1.3-3.7,1.9-5.3c0.4-0.1,0.4,0.2,0.7,0.2c0.2-0.1,0.3-0.3,0.4-0.4c-0.3-1.5-3-1.7-3.6-0.2c0.3,0.5,1.1-0.2,1.4,0
		c0.2,1.2-0.1,2.5-0.6,3.7c-1.3,3-4.5,3.9-7.6,3.8c-4.8,0-9.5-4.2-7.6-10.6c1.9,0.1,3.4-0.9,3.7-2.4c-1.9,2.2-6,1.6-5.6-1.8
		c-1.3,1,0,3.4,1.1,4c-0.1,2.4-0.3,5,0.6,7.1c-2.1-1.5-4.2-5.4-3.4-9c0.7-7.8,6.2-13.1,12.4-16.5C18.7,20.6,20.2,21.1,21.6,20.5
		L21.6,20.5z"/>
	<linearGradient id="SVGID_3_" gradientUnits="userSpaceOnUse" x1="16.319" y1="29.8379" x2="63.5818" y2="29.8379">
		<stop  offset="0" style="stop-color:#DADCEF"/>
		<stop  offset="1" style="stop-color:#B0ADD6"/>
	</linearGradient>
	<path class="st2" d="M37,10c2.3-3.2,8-3.5,10.8-1c4,3.6,2.3,7.6,1.5,9.2c2.8-1.4,6.1-0.2,7.7,2c1.8,2.6,0.4,5.7,0.1,6.4
		c3.1-0.2,6.5,2,6.4,7c-0.1,4-2.4,8-6.7,7.7c-0.1,0.5,1.8,6.4-2.3,9.6c-3,2.3-7.8,2.6-10.6-0.5c-0.9,6.8-12,7.1-12.6,0.2
		c-2.1,2.4-6.1,0.2-6.6-2.4c6.2-3,10.5-11,10.5-19.4c1.9,3.8,7.8,5.2,11.9,3.2c4.7-4.1,0.2-10.8-5.9-10.7c-4,0.1-6.3,3.6-9.4,3.9
		c-3.7,0.4-3.8-3.4-3.5-5.8c-0.6,0.4-1,1.2-1.2,2.1c-2.9,1.5-6.1-1.2-5-4.5c-0.6,0.5-0.7,1.7-1,2.3c-4.5,1-5.7-3.7-4.5-7.1
		c1.8-5.2,7.2-3.1,7.7-2.2c0-3.8,3.4-6.2,7-6.1C34.4,4,37.7,6.6,37,10L37,10z"/>
	<linearGradient id="SVGID_4_" gradientUnits="userSpaceOnUse" x1="35.3086" y1="27.2106" x2="48.1689" y2="27.2106">
		<stop  offset="0" style="stop-color:#F8DEB0"/>
		<stop  offset="1" style="stop-color:#F1C680"/>
	</linearGradient>
	<path class="st3" d="M35.3,26.1c2,1,5.2,3.9,7.7,2.7c2.1-3.7-3.3-5.6-6.8-4.4c3.4-2.5,10.4-2.7,12,3.3
		C49.3,33.4,36.5,33.2,35.3,26.1L35.3,26.1z"/>
	<path class="st4" d="M42.6,27.8c-2.5,0.4-4.6-1.5-6.3-2.5C38.9,24.7,42.3,25.1,42.6,27.8L42.6,27.8z"/>
	<linearGradient id="SVGID_5_" gradientUnits="userSpaceOnUse" x1="26.0427" y1="55.5946" x2="31.3203" y2="55.5946">
		<stop  offset="0" style="stop-color:#EEC1A6"/>
		<stop  offset="1" style="stop-color:#DD828D"/>
	</linearGradient>
	<path class="st5" d="M30.8,52.9c0,0.5,0.3,1.2,0.6,1.7c-0.2,0.4-1.6,4.1-3.7,3.7c-2.4-0.3-1.6-3.9-0.4-5.4
		C28.2,53.3,29.9,53.2,30.8,52.9L30.8,52.9z"/>
	<linearGradient id="SVGID_6_" gradientUnits="userSpaceOnUse" x1="44.4238" y1="57.5128" x2="52.1894" y2="57.5128">
		<stop  offset="0" style="stop-color:#EEC1A6"/>
		<stop  offset="1" style="stop-color:#DD828D"/>
	</linearGradient>
	<path class="st6" d="M44.4,53.4c2,1,4.2,1.8,6.8,1.3c1.3,2.3,1.6,6.4-1.4,6.8C46,62.1,44.7,56,44.4,53.4L44.4,53.4z"/>
	<linearGradient id="SVGID_7_" gradientUnits="userSpaceOnUse" x1="40.6807" y1="56.9766" x2="44.0176" y2="56.9766">
		<stop  offset="0" style="stop-color:#EEC1A6"/>
		<stop  offset="1" style="stop-color:#DD828D"/>
	</linearGradient>
	<path class="st7" d="M43.4,54.9c0.1,1.2,0.5,2.7,0.7,4c-1.6,0.7-3.1-0.5-3.3-2C41.7,56.8,42.9,55.8,43.4,54.9L43.4,54.9z"/>
	<linearGradient id="SVGID_8_" gradientUnits="userSpaceOnUse" x1="30.0062" y1="59.5504" x2="37.2656" y2="59.5504">
		<stop  offset="0" style="stop-color:#EEC1A6"/>
		<stop  offset="1" style="stop-color:#DD828D"/>
	</linearGradient>
	<path class="st8" d="M31.8,55.5c1.2,1.5,3.9,2.2,5.5,2.2c0,2.5-0.7,5.6-3.7,5.8c-1.8,0.1-3.7-1.1-3.5-3.9
		C30.1,58,31.5,56.1,31.8,55.5L31.8,55.5z"/>
	<path class="st4" d="M45.6,34.8c0.8,0,1.4,0.6,1.4,1.4c0,0.8-0.6,1.4-1.4,1.4c-0.8,0-1.4-0.6-1.4-1.4
		C44.2,35.4,44.9,34.8,45.6,34.8L45.6,34.8z"/>
	<path class="st4" d="M49.9,40.3c0.7,0,1.2,0.6,1.2,1.2c0,0.7-0.6,1.2-1.2,1.2c-0.7,0-1.2-0.6-1.2-1.2
		C48.6,40.8,49.2,40.3,49.9,40.3L49.9,40.3z"/>
	<path class="st4" d="M51.8,36.2c0.5,0,0.8,0.4,0.8,0.8c0,0.5-0.4,0.8-0.8,0.8c-0.5,0-0.8-0.4-0.8-0.8C51,36.6,51.3,36.2,51.8,36.2
		L51.8,36.2z"/>
	<path class="st4" d="M21.3,38.7c0.4,0,0.8,0.4,0.8,0.8c0,0.4-0.4,0.8-0.8,0.8c-0.4,0-0.8-0.4-0.8-0.8C20.5,39,20.8,38.7,21.3,38.7
		L21.3,38.7z"/>
	<path class="st4" d="M23,34.4c0.6,0,1,0.5,1,1c0,0.6-0.5,1-1,1c-0.6,0-1-0.5-1-1C22,34.8,22.4,34.4,23,34.4L23,34.4z"/>
	<path class="st4" d="M23.9,37.6c0.3,0,0.5,0.2,0.5,0.5c0,0.3-0.2,0.5-0.5,0.5c-0.3,0-0.5-0.2-0.5-0.5
		C23.4,37.8,23.7,37.6,23.9,37.6L23.9,37.6z"/>
	<path class="st4" d="M31.8,58.3c1.8,0,3.3,1.5,3.3,3.4c0,0.5-0.1,1.1-0.3,1.5c-0.4,0.1-0.7,0.2-1.2,0.3c-1.8,0.1-3.7-1.1-3.5-3.9
		c0-0.3,0.1-0.6,0.2-0.9C30.7,58.5,31.2,58.3,31.8,58.3L31.8,58.3z"/>
	<path class="st4" d="M26.7,54.2c1.5,0,2.7,1.2,2.7,2.7c0,0.3,0,0.5-0.1,0.8c-0.5,0.4-1.1,0.7-1.8,0.6c-1.8-0.2-1.8-2.4-1.1-4.1
		C26.5,54.3,26.6,54.2,26.7,54.2L26.7,54.2z"/>
	<path class="st4" d="M18.8,20.5c-6.3,3.1-10.4,8.2-11.6,14.7c0-0.2,0-0.5,0-0.7C6.5,35,6.6,36,7,36.9c-0.2,2.2-0.1,4.6,0.4,7.2
		c-1.5-1.9-2.5-4.8-2-7.6c0.7-7.8,6.2-13.1,12.4-16.5C18.1,20.2,18.4,20.4,18.8,20.5L18.8,20.5z"/>
	<path class="st9" d="M18.6,27.5c-0.7-1-3-2.1-5.1-1.6c0.1-1.1,0.4-2.5,1.3-2.8c1-0.3,1.7,0.6,1.5,1.9c0.2-0.5,0.6-1.6,1.5-2.2
		c0.9-0.5,2.2-0.5,2.5,0.7C20.6,24.7,19.7,26.6,18.6,27.5L18.6,27.5z"/>
	<path class="st4" d="M18.7,23c1.8-0.6,1.8,1.4,1,2.4C20,24.2,20.1,23.1,18.7,23L18.7,23z"/>
	<path class="st10" d="M17.5,23.6c-0.3,0.4-0.9,1.2-1,2.2c0.5-0.1,2,1.1,1.8,1.2c-0.1-0.7-0.9-1.2-1.1-1.7
		C17.2,24.7,17.4,24.2,17.5,23.6L17.5,23.6z"/>
	<path class="st10" d="M14.4,23.8c-0.3,0.3-0.5,1.2-0.5,1.9c0.3-0.1,1.5-0.2,1.4-0.1c-0.4-0.3-0.8-0.1-0.9-0.6
		C14.3,24.6,14.3,24.2,14.4,23.8L14.4,23.8z"/>
	<path class="st4" d="M19,23.6c0.3,0,0.5,0.3,0.4,0.7c-0.1,0.3-0.3,0.5-0.6,0.5c-0.3,0-0.5-0.3-0.4-0.7C18.5,23.8,18.7,23.6,19,23.6
		L19,23.6z"/>
	<path class="st4" d="M15.5,23.7c0.2,0,0.3,0.2,0.3,0.5c0,0.2-0.2,0.4-0.4,0.3c-0.2,0-0.3-0.2-0.3-0.5
		C15.1,23.9,15.3,23.7,15.5,23.7L15.5,23.7z"/>
	<linearGradient id="SVGID_9_" gradientUnits="userSpaceOnUse" x1="12.7588" y1="37.7167" x2="33.8438" y2="37.7167">
		<stop  offset="0" style="stop-color:#F1C680"/>
		<stop  offset="1" style="stop-color:#E6A163"/>
	</linearGradient>
	<path class="st11" d="M12.8,48.3c4.8-0.6,8.9-2.4,12.1-5c-0.1,0.7-0.3,1.5-0.6,2.2c-1.3,3-4.5,3.9-7.6,3.8
		C15.3,49.3,14,48.9,12.8,48.3L12.8,48.3z M25.9,42.4c0.1-0.1,0.2-0.2,0.3-0.2c0.2,0,0.3,0.2,0.5,0.2c0.2-0.1,0.3-0.3,0.4-0.4
		c0-0.2-0.1-0.3-0.2-0.5c3.9-4.1,5.9-9.6,5.4-15.1c0.5,0,1-0.1,1.6-0.2c-0.4,8.4-2,18.1-9.8,21.3C25.2,46.4,25.4,44,25.9,42.4
		L25.9,42.4z"/>
	<path class="st12" d="M7.2,34.4L7.2,34.4c0,0.1,0,0.1,0,0.1L7.2,34.4L7.2,34.4z M7.2,34.5c0.9,2.3,3.8,2.7,5.8,1.5l-0.4,0.5
		C10.7,38.4,6.9,37.8,7.2,34.5L7.2,34.5z"/>
	<path class="st4" d="M7.5,36.2c0.6-0.4,1,0.5,1.2,1.1C8.3,37.1,7.8,36.7,7.5,36.2L7.5,36.2z"/>
	<linearGradient id="SVGID_10_" gradientUnits="userSpaceOnUse" x1="31.5947" y1="41.1801" x2="63.5818" y2="41.1801">
		<stop  offset="0" style="stop-color:#B5AFD7"/>
		<stop  offset="1" style="stop-color:#9994C7"/>
	</linearGradient>
	<path class="st13" d="M31.7,50.6c3.9,3.6,7.9,2.8,12.1,0c0,0,0.1-0.1,0.1-0.1c-0.9,6.4-10.8,7-12.4,1.2
		C31.6,51.4,31.7,51,31.7,50.6L31.7,50.6z M44,50.5c7.9,0.1,12.1-2.8,12.9-8.8c0.2,1.4,1.3,6.4-2.3,9.3C51.6,53.3,46.8,53.6,44,50.5
		L44,50.5z M57.1,41.4c3.4-4.3,4.1-9.1,0.7-14.8c2.9,0.1,5.9,2.3,5.8,7C63.5,37.6,61.2,41.5,57.1,41.4L57.1,41.4z"/>
	<path class="st4" d="M18.7,19.2c-2.1-2.9-1.6-5.9,1.1-8.5c1-0.9,2.5-1.2,4.4-0.9c-1.1-1-5.9-2.4-7.5,2.4
		C15.8,14.9,16.3,18.2,18.7,19.2L18.7,19.2z M24.4,9.7C25,8,26.7,6.6,28.8,5.9c2.7-0.9,6-0.4,8.2,2.7C36.8,5.9,34,4,31.5,4
		C27.9,3.9,24.7,6.1,24.4,9.7L24.4,9.7z"/>
</g>
</svg>
