<?xml version="1.0" encoding="utf-8"?>
<!-- Generator: Adobe Illustrator 21.0.2, SVG Export Plug-In . SVG Version: 6.00 Build 0)  -->
<svg version="1.1" id="Слой_1" xmlns="http://www.w3.org/2000/svg" xmlns:xlink="http://www.w3.org/1999/xlink" x="0px" y="0px"
	 viewBox="0 0 130 114" style="enable-background:new 0 0 130 114;" xml:space="preserve">
<style type="text/css">
	.st0{fill:#D3D3D3;}
	.st1{fill:#B7B6B3;}
	.st2{fill:#994C19;}
	.st3{fill:#A5571C;}
	.st4{fill:#B76229;}
	.st5{fill:#843F10;}
	.st6{fill:#F2C18B;}
	.st7{fill:#F9CE9B;}
	.st8{fill:#F9D6AF;}
	.st9{fill:#EF9033;}
	.st10{fill:#E5E5E5;}
	.st11{fill:#FFFFFF;}
	.st12{fill:#F98094;}
	.st13{fill:#FC929F;}
	.st14{fill:#FCA2B1;}
	.st15{fill:#0362F9;}
	.st16{fill:#033BF9;}
	.st17{fill:#0388F9;}
</style>
<g>
	<g>
		<g>
			<path class="st0" d="M84.9,74.6c0,0,2,3.1-1.6,4.2c0.3,1.8-1.5,3.7-5,2.5c-3.4-1.2-2.6-5.2-2.6-5.2L84.9,74.6z"/>
		</g>
		<g>
			<path class="st1" d="M78.2,81.3c-3.5-1.2-2.7-5.3-2.7-5.3l0-0.1l9.3-1.5l0.1,0l0,0.1c0,0.1,0.9,1.4,0.4,2.7
				c-0.3,0.8-0.9,1.3-2,1.6c0.1,0.7-0.1,1.3-0.6,1.9c-0.6,0.7-1.5,1-2.6,1l0,0C79.6,81.7,78.9,81.6,78.2,81.3z M75.7,76.2
				c-0.1,0.6-0.5,3.9,2.6,4.9c0.7,0.2,1.3,0.3,1.9,0.3l0,0c1,0,1.8-0.3,2.4-0.9c0.4-0.5,0.6-1.1,0.5-1.8l0-0.1l0.1,0
				c1-0.3,1.7-0.8,1.9-1.5c0.4-1-0.2-2.1-0.4-2.4L75.7,76.2z"/>
		</g>
	</g>
	<g>
		<path class="st2" d="M53.3,93.7c0,0,2.3,3.1,2.2,3.9c0,0.8-0.9,1.4-1.8,1.4c-0.5,1.1-3.6,1.5-6.2-0.5c-2.6-2,0.5-3.6,0.5-3.6
			L53.3,93.7z"/>
		<path class="st3" d="M53.3,93.7c0,0,2.3,3.1,2.2,3.9c0,0.8-0.8,0.5-1.7,0.5c-0.5,1.1-2.9,1.5-5.5-0.6c-2.6-2-0.3-2.7-0.3-2.7
			L53.3,93.7z"/>
		<path class="st4" d="M53.3,93.7c0,0,2.3,3.1,2.2,3.9c0,0.8-1,0-1.9,0c-0.5,1.1-2,1.6-4.5-0.5c-2.6-2-1.1-2.3-1.1-2.3L53.3,93.7z"
			/>
		<path class="st5" d="M47.5,98.6c-0.8-0.6-1.1-1.3-1.1-1.9c0.1-1.2,1.5-1.9,1.6-1.9l5.4-1.1l0,0.1c0.2,0.3,2.3,3.1,2.3,4
			c0,0.9-1,1.4-1.8,1.5c-0.3,0.6-1.3,0.9-2.4,0.9l0,0C50.7,100,49.1,99.9,47.5,98.6z M48.1,95c-0.1,0.1-1.3,0.8-1.4,1.7
			c-0.1,0.6,0.3,1.1,1,1.7c1.5,1.2,3,1.4,3.8,1.4l0,0c1.1,0,1.9-0.3,2.2-0.8l0-0.1h0.1c0.8,0,1.6-0.4,1.7-1.2c0-0.6-1.5-2.9-2.2-3.8
			L48.1,95z"/>
	</g>
	<g>
		<path class="st6" d="M50.6,79.6c0,0-1.1,2.4,0.6,7.2c1.7,4.8,3.5,5.9,2.1,7.7c-1.4,1.7-6.4,1.7-6.6-0.4c-0.3-2,1.1-3.5-0.7-5.2
			c-1.8-1.7-1.9-5.7-1.1-7.5C45.8,79.7,49.2,77.8,50.6,79.6z"/>
		<path class="st7" d="M45,81.5c0-0.1,0.1-0.1,0.1-0.2c1.2,1.6,3.2,2.1,5.2,1.9c0.1,1,0.4,2.2,0.9,3.7c1.7,4.8,3.5,5.9,2.1,7.7
			c-1.4,1.7-5.5,0.6-5.8-1.4c-0.3-2,2.1-4,0.3-5.8C46.1,85.6,44.1,83.2,45,81.5z"/>
		<path class="st8" d="M48.6,87.3c-1.1-1.1-2.3-2.5-2.7-3.7c1.5,0.5,3,0.7,4.6,0.3c0.1,0.8,0.4,1.8,0.8,2.9c1.7,4.8,3.5,5.9,2.1,7.7
			c-1.4,1.7-4.9,0.6-5.1-1.5C48,91,50.3,89.1,48.6,87.3z"/>
		<path class="st9" d="M46.6,94.2c-0.1-0.7,0-1.4,0.1-2c0.2-1.1,0.3-2.1-0.8-3.2c-1.8-1.8-1.9-5.9-1.1-7.6c0.6-1.2,2.5-2.6,4.1-2.6
			c0.7,0,1.3,0.3,1.7,0.8l0,0.1l0,0.1c0,0-1,2.4,0.6,7.1c0.6,1.7,1.2,2.9,1.7,3.9c0.9,1.8,1.4,2.7,0.4,3.9c-0.6,0.8-2.1,1.3-3.6,1.3
			l0,0C48.4,95.9,46.7,95.4,46.6,94.2z M49,79c-1.5,0-3.4,1.3-3.9,2.5c-0.8,1.7-0.7,5.6,1,7.3c1.2,1.2,1,2.2,0.8,3.4
			c-0.1,0.6-0.2,1.2-0.1,1.9c0.1,1,1.6,1.5,3,1.5c1.5,0,2.8-0.5,3.4-1.2c0.9-1.1,0.5-1.9-0.4-3.7c-0.5-1-1.1-2.2-1.7-3.9
			c-1.6-4.4-0.8-6.8-0.7-7.2C50.1,79.2,49.6,79,49,79z"/>
	</g>
	<g>
		<path class="st5" d="M53.8,99.2c0.7-1-1.3-3.4-1.3-3.4c0.5,0.7,1.6,2.5,1.1,3.2L53.8,99.2z"/>
	</g>
	<g>
		<g>
			<path class="st0" d="M34.5,56.2c0,0-0.8-4.3-3.7-2.6c-0.6-1.9-2.4-1.9-3.2-0.8c-0.7-1.7-3.5-1.2-3.6,0.8c-1-1.1-5.4,1.7-0.9,5.4
				c-1.4,0.6-1.1,3.5,1.9,3.5c-1,1.4,0.5,2.6,2.1,2.5c-1.1,1.2,1.8,2.4,4.6,0.6C34.7,63.7,35.4,59.7,34.5,56.2z"/>
		</g>
		<g>
			<path class="st10" d="M23.1,58.9c-4.5-3.7-0.1-6.4,0.9-5.4c0.1-1.9,2.9-2.5,3.6-0.8c0.8-1.1,2.6-1.2,3.2,0.8
				c2.9-1.6,3.7,2.6,3.7,2.6c0.5,1.9,0.5,3.9,0,5.6c-2.7,1.7-4.8,0.4-4.9-0.6c-0.6,0.8-2,0.8-2-0.6c-0.5,0.8-1.4,0.8-1.6,0
				c-2,0.4-3.1-0.2-3.6-0.8C22.4,59.4,22.7,59,23.1,58.9z"/>
		</g>
		<g>
			<g>
				<path class="st11" d="M23.1,58.9c-4.5-3.7-0.1-6.4,0.9-5.4c0.1-1.9,2.9-2.5,3.6-0.8c0.8-1.1,2.6-1.2,3.2,0.8
					c2.9-1.6,3.7,2.6,3.7,2.6c0.5,1.9,0.5,3.9,0,5.6c-2.7,1.7-4.8,0.4-4.9-0.6c-0.6,0.8-2,0.8-2-0.6c-0.5,0.8-1.4,0.8-1.6,0
					c-2,0.4-3.1-0.2-3.6-0.8C22.4,59.4,22.7,59,23.1,58.9z"/>
			</g>
		</g>
		<g>
			<path class="st1" d="M26.9,65.7c-0.1-0.2-0.1-0.5,0-0.7c0,0,0,0-0.1,0l0,0c-0.9,0-1.7-0.4-2.1-1.1c-0.2-0.4-0.2-0.9,0-1.4
				c-1.7-0.1-2.4-1.1-2.6-1.9c-0.1-0.7,0.1-1.4,0.7-1.8c-2.1-1.8-2-3.3-1.7-4c0.4-1.1,1.5-1.7,2.3-1.7c0.2,0,0.4,0,0.5,0.1
				c0.2-1.1,1.2-1.7,2.1-1.7c0.7,0,1.3,0.3,1.6,0.9c0.4-0.4,0.9-0.7,1.5-0.7c0.8,0,1.5,0.6,1.8,1.5c0.4-0.2,0.8-0.3,1.2-0.3
				c2,0,2.6,3,2.6,3.1c0.8,3.3,0.3,7.5-2.8,9.5c-0.9,0.6-2,0.9-3,0.9C27.9,66.6,27.1,66.2,26.9,65.7z M30.9,53.6l-0.1,0.1l0-0.2
				c-0.3-0.9-0.8-1.4-1.6-1.4c-0.5,0-1,0.3-1.4,0.7L27.6,53l-0.1-0.2c-0.2-0.6-0.8-0.9-1.5-0.9c-0.9,0-1.8,0.6-1.9,1.7l0,0.3
				l-0.2-0.2c-0.1-0.2-0.4-0.2-0.5-0.2c-0.7,0-1.7,0.6-2,1.6c-0.4,1.2,0.2,2.5,1.8,3.8l0.2,0.1L23.2,59c-0.5,0.2-0.8,0.9-0.7,1.6
				c0.2,0.8,0.9,1.7,2.6,1.7h0.3l-0.1,0.2c-0.3,0.4-0.4,0.9-0.2,1.3c0.3,0.6,1,1,1.9,1l0,0c0.1,0,0.2,0,0.3,0l0.3,0L27.3,65
				c-0.2,0.2-0.3,0.4-0.2,0.6c0.2,0.3,0.8,0.7,1.8,0.7c0.9,0,2-0.3,2.9-0.9c3-1.9,3.5-6,2.6-9.2c0,0-0.5-2.9-2.3-2.9
				C31.7,53.3,31.3,53.4,30.9,53.6z"/>
		</g>
	</g>
	<g>
		<g>
			<g>
				<path class="st0" d="M88.9,42.6c0,0,2,2.2,0,4.6c1.7,0.8,2,3.5,0.9,4.5c1.6,0.1,1.5,3.1-0.1,3.9c2.4,0.4,2.5,2.8,0.8,3.7
					c1.3,0.6,2.3,3-0.2,3.8c1,0.6,0.8,3.2-1.4,3.6c1,1.6,0.1,2.3-1.6,2.3c1.5,1.5,0.9,3.8-1.3,3.9c1.4,0.9,0.1,3.8-2.8,2.4
					c0.4,1-1.8,3.6-4.3,0.8C78.3,78,62,79.8,62,79.8c-0.6,1.8-3.6,1.9-4.9,0.7c-0.6,1.9-2.8,1.9-3.5,0.2c-0.9,1.7-4.8,1.2-5-1.4
					C48.4,76.7,31.9,62,31.9,62c-1.5-3.2-1.2-5.5,1.7-5.5c-0.9-2.6,3-3.3,3-3.3c-0.8-2,0.5-2.8,2.9-2.7c-0.3-2.5,1.7-3.2,3.9-2.5
					c-0.5-1.7,2-3.1,4.1-1.7c0.2-1.8,2.3-2.3,4-0.9c0.5-1.9,2.6-2.1,3.9-0.8c1-1.7,2.5-0.7,3,0.5c0.3-1.3,2.7-1.2,3,0.4
					c0.4-1.5,3.1-0.6,3.4,1.2c0.8-0.9,3.5-2,4.1,1.6c2.2-0.2,4.7-2.6,5.1-5.2C74.3,40.2,78.5,34.9,88.9,42.6z"/>
			</g>
		</g>
		<path class="st10" d="M85,68.6c0.4,1.5-1.1,3.1-3.2,2.2c0.1,1.8-1.1,3.1-3.1,1.2c-0.5,1.5-2.9,2.8-4,0.3c-0.5,2.2-3,2.1-3-0.9
			c-1.2,1.3-3.9,1.4-3.2-2.1c-0.9,1.7-2.1,1.7-2.9,0c0,2.1-1.4,2.5-3.1,1.6c0.5,1-1.5,3.1-3.1,1c-0.3,1.8-2.2,2.4-3.1,0.8
			c-0.8,1-2.8,1.4-2.7-1.8c-1.2,1.8-2.2,1.8-3,1c0.1,0.6-0.3,1.3-0.8,1.6l-17.4-12c-0.2,0.1-0.4,0.2-0.5,0.3c0,0,0,0,0,0
			c-1.5-3.2-1.2-5.5,1.7-5.5c-0.9-2.6,3-3.3,3-3.3c-0.8-2,0.5-2.8,2.9-2.7c-0.3-2.5,1.7-3.2,3.9-2.5c-0.5-1.7,2-3.1,4.1-1.7
			c0.2-1.8,2.3-2.3,4-0.9c0.5-1.9,2.6-2.1,3.9-0.8c1-1.7,2.5-0.7,3,0.5c0.3-1.3,2.7-1.2,3,0.4c0.4-1.5,3.1-0.6,3.4,1.2
			c0.8-0.9,3.5-2,4.1,1.6c2.2-0.2,4.7-2.6,5.1-5.2c0.4-2.6,4.5-8,14.9-0.2c0,0,2,2.2,0,4.6c1.7,0.8,2,3.5,0.9,4.5
			c1.6,0.1,1.5,3.1-0.1,3.9c2.4,0.4,2.5,2.8,0.8,3.7c1.3,0.6,2.3,3-0.2,3.8c1,0.6,0.8,3.2-1.4,3.6c1,1.6,0.1,2.3-1.6,2.3
			c0.1,0.1,0.3,0.3,0.4,0.5C87,69.6,86.1,69.4,85,68.6z"/>
		<path class="st10" d="M33.8,62.7l-0.7-0.5c0.4,0,0.8-0.1,1.3-0.1C34.2,62.3,34,62.5,33.8,62.7z"/>
		<path class="st11" d="M38,64c-0.1,0.2-0.3,0.4-0.5,0.6C37.6,64.3,37.8,64.1,38,64z"/>
		<path class="st10" d="M41.4,66c-0.2,0.8-0.1,1.5,0.2,2l-1.2-0.8C40.8,66.9,41.1,66.5,41.4,66z"/>
		<path class="st11" d="M33.6,56.5c-0.9-2.6,3-3.3,3-3.3c-0.8-2,0.5-2.8,2.9-2.7c-0.3-2.5,1.7-3.2,3.9-2.5c-0.5-1.7,2-3.1,4.1-1.7
			c0.2-1.8,2.3-2.3,4-0.9c0.5-1.9,2.6-2.1,3.9-0.8c1-1.7,2.5-0.7,3,0.5c0.3-1.3,2.7-1.2,3,0.4c0.4-1.5,3.1-0.6,3.4,1.2
			c0.8-0.9,3.5-2,4.1,1.6c2.2-0.2,4.7-2.6,5.1-5.2c0.4-2.6,4.5-8,14.9-0.2c0,0,2,2.2,0,4.6c1.7,0.8,2,3.5,0.9,4.5
			c1.6,0.1,1.5,3.1-0.1,3.9c2.4,0.4,2.5,2.8,0.8,3.7c1.3,0.6,2.3,3-0.2,3.8c0.1,0.1,0.2,0.2,0.3,0.3c-1.5,0-2.1,0.3-3.1,2.3
			c-0.3,0.8-2.1,0-3.1-0.5c0,0.8,0,1.8-0.3,2.3c-1.3,1.3-3.6,0.3-4.1-1.3c-0.5,1.8-2.1,2.6-3.6,2.1c-0.5-0.3-0.8-1-1-1.6
			c-0.3,1-1,1.6-2.1,2.1c-1.5,0.5-2.6-0.8-2.3-2.3c-0.5,1.5-1.8,2.3-3.4,1.8c-0.3-0.3-1-0.5-0.8-1.3c-0.8,1.5-3.1,2.6-4.4,1
			c0-0.3,0-0.8,0-1c-0.5,1.5-1.8,1.8-3.4,1.5c-1-0.3-1.3-1-1-2.1c-0.5,0.8-1,1.5-1.8,2.1c-1.3,0.5-2.6-0.5-3.1-1.8
			c0,2.1-2.3,2.6-3.6,1.8c-0.3-0.3,0.3-0.8-0.3-1c0,1-0.5,1.8-1.3,2.3c-1.3,0.5-3.1-0.5-2.8-2.3C45,68.7,43.8,69,42.8,69L41.5,68
			c-0.3-0.5-0.3-1.2-0.2-2c-0.2,0.5-0.6,0.9-1,1.2l-3-2.1c0-0.2,0.1-0.4,0.2-0.6c0.2-0.2,0.3-0.3,0.5-0.6c-0.2,0.2-0.4,0.4-0.5,0.6
			c-0.2,0.2-0.3,0.3-0.5,0.4l-3.1-2.2c0.1-0.2,0.3-0.4,0.5-0.6c-0.4,0-0.8,0-1.3,0.1l-0.7-0.5c-0.2,0.1-0.4,0.2-0.5,0.3c0,0,0,0,0,0
			C30.4,58.8,30.7,56.5,33.6,56.5z"/>
		<path class="st10" d="M37.3,65.1L37,64.9c0.2-0.1,0.4-0.2,0.5-0.4C37.4,64.7,37.4,64.9,37.3,65.1z"/>
		<g>
			<path class="st1" d="M53.6,80.9c-0.4,0.5-1.1,0.8-2,0.8c-1.5,0-3-0.9-3.1-2.5c-0.2-2.5-16.5-17-16.7-17.2l0,0
				c-1-2.1-1.1-3.7-0.5-4.7c0.4-0.6,1.1-1,2.1-1c-0.2-0.6-0.1-1.1,0.2-1.6c0.6-1.1,2.3-1.6,2.8-1.7c-0.3-0.8-0.2-1.4,0.1-1.9
				c0.4-0.6,1.4-0.9,2.8-0.9c-0.1-0.8,0.1-1.5,0.5-1.9c0.5-0.5,1.2-0.8,2.1-0.8c0.4,0,0.9,0.1,1.3,0.2c-0.1-0.5,0-0.9,0.3-1.3
				c0.4-0.6,1.3-1,2.1-1c0.6,0,1.2,0.2,1.7,0.5c0.2-1,1-1.6,2.1-1.6c0.7,0,1.4,0.3,2,0.7c0.3-0.9,1.1-1.5,2.1-1.5
				c0.7,0,1.3,0.3,1.9,0.7c0.5-0.7,1-0.8,1.3-0.8c0.7,0,1.3,0.6,1.7,1.2c0.2-0.5,0.7-0.7,1.4-0.7c0.6,0,1.4,0.3,1.6,1
				c0.2-0.3,0.6-0.5,1-0.5c0.9,0,2.1,0.7,2.4,1.8c0.4-0.4,1.2-0.8,1.9-0.8c0.7,0,1.8,0.3,2.2,2.5c2.2-0.2,4.5-2.7,4.8-5.1
				c0.2-1.7,2-4.4,5.7-4.4c2.7,0,5.9,1.4,9.5,4.1c0,0,2,2.2,0.1,4.7c0.8,0.4,1.3,1.3,1.5,2.3c0.1,0.9-0.1,1.6-0.5,2.1
				c0.5,0.1,0.9,0.6,1,1.2c0.2,0.9-0.2,2.1-1,2.7c1,0.3,1.6,0.9,1.7,1.7c0.1,0.8-0.3,1.6-1,2.1c0.7,0.4,1.2,1.4,1.2,2.2
				c0,0.7-0.5,1.3-1.4,1.6c0.4,0.4,0.5,1,0.4,1.7c-0.2,1-0.8,1.7-1.8,2c0.4,0.7,0.5,1.2,0.2,1.6c-0.2,0.4-0.8,0.7-1.8,0.7
				c0.6,0.8,0.8,1.7,0.5,2.6c-0.3,0.7-0.9,1.2-1.8,1.3c0.3,0.4,0.5,0.9,0.3,1.4c-0.2,0.6-0.8,1.3-1.9,1.3c-0.4,0-0.9-0.1-1.3-0.3
				c0,0.3-0.1,0.6-0.3,0.9c-0.3,0.5-1,1-1.9,1c-0.8,0-1.5-0.4-2.2-1.2c-1.4,1.8-14.9,3.4-16.8,3.6c-0.3,0.9-1.4,1.5-2.7,1.5
				c-0.9,0-1.7-0.3-2.2-0.7c-0.3,0.8-1,1.4-1.8,1.4C54.6,82.1,54,81.6,53.6,80.9z M57.2,80.4c0.5,0.5,1.3,0.8,2.2,0.8
				c0.9,0,2.1-0.4,2.5-1.4l0-0.1l0.1,0c6.5-0.7,16.4-2.2,16.8-3.6l0.1-0.2L79,76c0.7,0.8,1.5,1.2,2.2,1.2c0.8,0,1.4-0.5,1.7-0.9
				c0.2-0.3,0.3-0.7,0.2-1L82.9,75l0.3,0.2c0.5,0.3,1,0.4,1.4,0.4c1,0,1.5-0.6,1.7-1.2c0.2-0.6,0-1.1-0.4-1.4l-0.3-0.2l0.4,0
				c0.9,0,1.6-0.5,1.9-1.2c0.3-0.8,0.1-1.8-0.7-2.5L87,68.9h0.3c1,0,1.6-0.2,1.9-0.6c0.2-0.3,0.1-0.8-0.3-1.5l-0.1-0.2l0.2,0
				c0.9-0.2,1.6-0.9,1.8-1.8c0.1-0.7-0.1-1.3-0.5-1.6L90,63.1l0.3-0.1c1.1-0.4,1.4-1,1.4-1.5c0-0.8-0.5-1.7-1.3-2l-0.2-0.1l0.2-0.1
				c0.8-0.4,1.2-1.2,1.1-1.9c-0.1-0.8-0.8-1.3-1.8-1.5l-0.4-0.1l0.4-0.2c0.9-0.4,1.3-1.7,1.2-2.6c-0.1-0.3-0.3-1-1-1l-0.3,0l0.3-0.2
				c0.5-0.4,0.7-1.2,0.6-2.1c-0.1-1-0.7-1.8-1.5-2.2l-0.2-0.1l0.1-0.1c1.9-2.4,0.1-4.4,0-4.5c-3.6-2.7-6.7-4-9.3-4
				c-3.5,0-5.2,2.5-5.4,4.1c-0.3,2.6-2.9,5.2-5.2,5.3l-0.1,0l0-0.1c-0.2-1.6-0.9-2.4-2-2.4c-0.7,0-1.5,0.4-1.9,0.8l-0.2,0.2l0-0.3
				c-0.2-1.1-1.3-1.8-2.2-1.8c-0.3,0-0.8,0.1-0.9,0.7l-0.2,0.6l-0.1-0.6c-0.1-0.8-0.8-1.1-1.5-1.1c-0.5,0-1.1,0.2-1.2,0.8l-0.1,0.3
				L58.3,45c-0.3-0.7-0.9-1.3-1.6-1.3c-0.4,0-0.8,0.3-1.2,0.8l-0.1,0.1l-0.1-0.1c-0.5-0.5-1.2-0.7-1.8-0.7c-1,0-1.7,0.6-1.9,1.5
				l0,0.2l-0.2-0.1c-0.6-0.5-1.3-0.8-2-0.8c-1,0-1.7,0.6-1.8,1.6l0,0.2l-0.2-0.1c-0.5-0.3-1.2-0.5-1.8-0.5c-0.8,0-1.5,0.3-1.9,0.9
				c-0.3,0.4-0.4,0.8-0.2,1.3l0.1,0.2L43.3,48c-0.5-0.1-1-0.2-1.5-0.2c-0.8,0-1.5,0.2-1.9,0.7c-0.4,0.5-0.5,1.1-0.4,1.9l0,0.2
				l-0.2,0c-1.4-0.1-2.4,0.2-2.8,0.8c-0.3,0.4-0.3,1,0,1.8l0.1,0.1l-0.2,0c0,0-2.1,0.4-2.8,1.6c-0.3,0.5-0.3,1-0.1,1.5l0.1,0.2h-0.2
				c-1,0-1.7,0.3-2.1,0.9c-0.6,0.9-0.4,2.4,0.5,4.4c0.9,0.8,16.5,14.7,16.8,17.3c0.1,1.5,1.5,2.3,2.9,2.3c0.9,0,1.6-0.3,1.9-0.9
				l0.1-0.3l0.1,0.3c0.3,0.7,0.9,1.2,1.6,1.2c0.7,0,1.4-0.5,1.7-1.4l0.1-0.2L57.2,80.4z"/>
		</g>
	</g>
	<g>
		<path class="st6" d="M95.9,26.9c0,0,4.3-1.9,8.1-0.6c3.9,1.4,5.2,4.7,5,5.3c-0.2,0.6-3.8,1.5-7.2,0.6c-3.9-1-6.7-4.3-6.7-4.3
			L95.9,26.9z"/>
		<path class="st7" d="M95.9,26.9c0,0,4.3-1.9,8.1-0.6c3.9,1.4,5.2,4.7,5,5.3c-0.2,0.6-3.6,1-7,0.2c-3.9-1-6.9-3.9-6.9-3.9
			L95.9,26.9z"/>
		<path class="st8" d="M95.9,26.9c0,0,4.3-1.9,8.1-0.6c3.9,1.4,5.2,4.7,5,5.3c-0.2,0.6-3.4,0.5-6.8-0.3c-3.9-1-7.1-3.4-7.1-3.4
			L95.9,26.9z"/>
		<path class="st9" d="M101.8,32.3c-3.9-1-6.8-4.3-6.8-4.3L95,27.9l0.9-1.1l0,0c0,0,2.4-1.1,5.2-1.1c1.1,0,2.1,0.2,3,0.5
			c3.8,1.3,5.3,4.7,5.1,5.4c-0.2,0.5-2.2,1-4.2,1l0,0C103.8,32.7,102.8,32.6,101.8,32.3z M96,27l-0.7,0.9c0.5,0.5,3.1,3.3,6.6,4.2
			c0.9,0.2,2,0.4,3,0.4l0,0c2.3,0,3.9-0.6,4-0.9c0.1-0.5-1.1-3.8-4.9-5.1c-0.9-0.3-1.9-0.5-3-0.5C98.5,26,96.3,26.9,96,27z"/>
	</g>
	<g>
		<path class="st12" d="M105.9,30.4c0,0-3.4-3.5-7.7-1.7C99.2,29.9,103.2,30.5,105.9,30.4z"/>
		<path class="st13" d="M104.7,30.4c0,0-2.2-3.5-6.5-1.7C99.2,29.9,102,30.6,104.7,30.4z"/>
		<path class="st14" d="M103.8,30.1c0,0-1.3-3.2-5.6-1.4C99.2,29.9,101.1,30.2,103.8,30.1z"/>
		<path class="st9" d="M98.1,28.8L98,28.7l0.2-0.1c0.8-0.4,1.7-0.5,2.6-0.5c3.1,0,5.3,2.2,5.3,2.2l0.2,0.2l-0.3,0
			c-0.3,0-0.6,0-0.9,0C102.4,30.5,99,29.9,98.1,28.8z M100.7,28.3c-0.8,0-1.6,0.2-2.3,0.4c1,1,4.1,1.5,6.7,1.5c0.2,0,0.4,0,0.5,0
			C105,29.7,103.1,28.3,100.7,28.3z"/>
	</g>
	<g>
		<path class="st9" d="M106.8,31.3c0,0-0.8-1.1-1.1-1.3l-0.2,0.2C105.8,30.4,106.8,31.3,106.8,31.3z"/>
	</g>
	<g>
		<path class="st6" d="M94.9,25c0,0,5.1,2.9,4.1,8.1c-1,5.2,4.6,7.3,4.3,8.9c-0.3,1.6-0.7,3.4-3.5,4.6c-2.8,1.2-4.9,0.7-6.4-1.1
			c-1.5-1.8-4.3-2.2-7.1-2.4c-2.8-0.2-5.3-4-5.7-6.3c-0.4-2.4,1.9-9.8,6.8-10.8C92.3,25,94.9,25,94.9,25z"/>
		<path class="st7" d="M94.9,25c0,0,5.1,2.9,4.1,8.1c-1,5.2,4.6,7.3,4.3,8.9c-0.3,1.6-0.8,2.8-3.6,4.1c-2.8,1.2-4.7,0.2-6.2-1.6
			c-1.5-1.8-3.9-2.4-6.6-2.6c-2.8-0.2-5.9-2.7-6.3-5.1c-0.4-2.4,1.9-9.8,6.8-10.8C92.3,25,94.9,25,94.9,25z"/>
		<path class="st8" d="M94.9,25c0,0,5.1,2.9,4.1,8.1c-1,5.2,4.6,7.3,4.3,8.9c-0.3,1.6-0.7,2.3-3.4,3.6c-2.8,1.2-4.9,0.1-6.4-1.7
			c-1.5-1.8-4-2.5-6.7-2.7c-2.8-0.2-5.8-2-6.1-4.3c-0.4-2.4,1.9-9.8,6.8-10.8C92.3,25,94.9,25,94.9,25z"/>
		<path class="st9" d="M93.4,45.6c-1.4-1.7-4.2-2.1-7-2.3c-2.8-0.2-5.4-4-5.8-6.4c-0.4-2.3,1.9-10,6.9-11c4.8-1,7.5-1,7.5-1h0l0,0
			c0.1,0,5.2,3,4.1,8.3c-0.7,3.3,1.4,5.3,2.9,6.8c0.8,0.8,1.5,1.4,1.4,2c-0.3,1.6-0.8,3.4-3.6,4.7c-1,0.5-2,0.7-2.9,0.7l0,0
			C95.6,47.4,94.3,46.8,93.4,45.6z M87.5,26.1c-4.9,1-7.1,8.4-6.7,10.7c0.4,2.3,3,6,5.6,6.2c2.9,0.2,5.7,0.6,7.2,2.4
			c0.9,1.1,2.1,1.7,3.4,1.7l0,0c0.9,0,1.8-0.2,2.8-0.7c2.7-1.2,3.1-2.9,3.4-4.5c0.1-0.5-0.5-1.1-1.3-1.8c-1.5-1.4-3.7-3.6-3-7
			c1-4.9-3.6-7.7-4-8C94.6,25.2,92,25.2,87.5,26.1z"/>
	</g>
	<g>
		<ellipse transform="matrix(0.9293 -0.3693 0.3693 0.9293 -4.0901 38.0608)" class="st11" cx="97.4" cy="29.7" rx="2" ry="3"/>
		<path class="st9" d="M95.4,30.5c-0.6-1.6-0.3-3.2,0.8-3.7c0.2-0.1,0.4-0.1,0.6-0.1c1,0,2,0.9,2.6,2.2c0.6,1.6,0.3,3.2-0.8,3.7
			c-0.2,0.1-0.4,0.1-0.6,0.1C96.9,32.7,95.9,31.8,95.4,30.5z M96.3,27.1c-1,0.4-1.3,1.9-0.7,3.3c0.5,1.2,1.4,2,2.3,2
			c0.2,0,0.3,0,0.5-0.1c1-0.4,1.3-1.9,0.7-3.3c-0.5-1.2-1.4-2-2.3-2C96.6,27,96.5,27,96.3,27.1z"/>
	</g>
	<g>
		<ellipse transform="matrix(0.9294 -0.369 0.369 0.9294 -4.2736 38.0426)" class="st15" cx="97.3" cy="30.2" rx="1.2" ry="1.8"/>
		<path class="st16" d="M96.1,30.7c-0.2-0.5-0.2-1-0.2-1.4c0.1-0.4,0.3-0.8,0.7-0.9c0.1,0,0.2-0.1,0.3-0.1c0.6,0,1.3,0.6,1.6,1.4
			c0.2,0.5,0.2,1,0.2,1.4c-0.1,0.4-0.3,0.8-0.7,0.9c-0.1,0-0.2,0.1-0.3,0.1C97.1,32.1,96.4,31.5,96.1,30.7z M96.7,28.6
			c-0.2,0.1-0.4,0.4-0.5,0.7c-0.1,0.4,0,0.8,0.1,1.3c0.3,0.7,0.9,1.2,1.4,1.2c0.1,0,0.2,0,0.2,0c0.2-0.1,0.4-0.3,0.5-0.7
			c0.1-0.4,0-0.8-0.2-1.3c-0.3-0.7-0.9-1.2-1.4-1.2C96.8,28.6,96.8,28.6,96.7,28.6z"/>
	</g>
	<g>
		<ellipse transform="matrix(0.9293 -0.3694 0.3694 0.9293 -4.2705 38.0874)" cx="97.3" cy="30.2" rx="0.7" ry="1.1"/>
	</g>
	<g>
		<path class="st6" d="M95.5,27.3c0,0-0.1,3.5,4.3,6.1c4.3,2.6,4.5,5.2,4.5,6.7c0,1.4-0.8,3.4-2.5,3.3c-1.1,0.9-6,3.3-10.4-1.6
			L95.5,27.3z"/>
		<path class="st7" d="M94.6,30.4c0-1.9,1-3.2,1-3.2s-0.1,3.5,4.3,6.1c4.3,2.6,4.5,5.2,4.5,6.7c0,1.4-1,2.7-2.6,2.6
			c-1.1,0.9-5.7,3.3-10.3-0.9L94.6,30.4z"/>
		<path class="st8" d="M94.6,30.4c0-1.9,1-3.2,1-3.2s-0.1,3.5,4.3,6.1c4.3,2.6,4.5,5.2,4.5,6.7c0,1.4-0.8,2.1-2.5,2
			c-1.1,0.9-5.9,3.9-10.4-0.3L94.6,30.4z"/>
		<path class="st9" d="M97.4,44.9c2.4,0,4.2-1.2,4.4-1.4c0.6,0,1-0.2,1.5-0.6c0.8-0.7,1.1-2,1.1-2.9c0-1.2,0-4-4.6-6.8
			c-4.2-2.5-4.2-6-4.2-6c0,0-0.3,0.7,0.1,1.6c0.4,1.3,1.5,3.1,4,4.6c4.4,2.7,4.4,5.4,4.4,6.6c0,0.8-0.3,2-1,2.7
			c-0.4,0.4-0.8,0.5-1.3,0.5l0,0l0,0c0,0-5.3,3.9-10.2-1.6c0,0,0.7,1.1,1.1,1.4C94.3,44.4,96,44.9,97.4,44.9z"/>
	</g>
	<g>
		<path class="st9" d="M94.6,46.7l0.1-0.2c-1.2-0.7-1.2-2.3-1.2-2.3C93.5,44.2,93.3,45.9,94.6,46.7z"/>
	</g>
	<g>
		<path class="st7" d="M102.1,36.8c0,0,1.6,2.9-0.4,5.2c-2.9,0-4.7-0.7-5.3-2.8L102.1,36.8z"/>
		<path class="st8" d="M102.1,36.8c0,0,1.6,2.9-0.4,5.2c-2.9,0-4.7-0.7-5.3-2.8L102.1,36.8z"/>
		<path class="st9" d="M101.7,42.1L101.7,42.1L101.7,42.1c1.3-1.4,1.2-2.9,1-4c-0.2-0.8-0.7-1.2-0.7-1.2c0,0,1.5,2.8-0.3,5
			c-3.1,0-4.6-0.8-5.1-2.7c0,0,0.1,1,0.4,1.4C97.8,41.6,99.3,42.1,101.7,42.1z"/>
	</g>
	<g>
		<path class="st9" d="M101.7,43.4l0.3,0c0,0-0.1-1.1-0.1-1.4l-0.3,0C101.6,42.3,101.7,43.4,101.7,43.4z"/>
	</g>
	<g>
		
			<ellipse transform="matrix(0.9967 -8.141049e-02 8.141049e-02 0.9967 -2.4232 7.1071)" class="st11" cx="85.9" cy="33.3" rx="2.3" ry="3.1"/>
		<path class="st9" d="M83.5,33.5c-0.1-0.8,0.1-1.7,0.5-2.3c0.4-0.6,1-1,1.7-1.1c1.4-0.1,2.6,1.2,2.7,3c0.1,0.8-0.1,1.7-0.5,2.3
			c-0.4,0.6-1,1-1.7,1.1c-0.1,0-0.1,0-0.2,0C84.8,36.5,83.6,35.2,83.5,33.5z M85.7,30.3c-0.6,0-1.1,0.4-1.5,1
			c-0.4,0.6-0.5,1.4-0.5,2.1c0.1,1.6,1.2,2.9,2.4,2.8c0.6,0,1.1-0.4,1.5-1c0.4-0.6,0.5-1.4,0.5-2.1c-0.1-1.6-1.1-2.8-2.3-2.8
			C85.8,30.3,85.7,30.3,85.7,30.3z"/>
	</g>
	<g>
		
			<ellipse transform="matrix(0.9966 -8.210735e-02 8.210735e-02 0.9966 -2.4812 7.1393)" class="st17" cx="85.6" cy="33.7" rx="1.4" ry="1.8"/>
		<path class="st15" d="M84.3,32.9c0.2-0.5,0.6-0.9,1.1-0.9c0.7-0.1,1.4,0.7,1.5,1.7c0,0.4,0,0.8-0.2,1.1
			C85.7,34.5,84.8,33.7,84.3,32.9z"/>
		<path class="st16" d="M84.1,33.9c0-0.5,0.1-1,0.3-1.4c0.2-0.4,0.6-0.6,1-0.7c0.8-0.1,1.6,0.7,1.6,1.8c0,0.5-0.1,1-0.3,1.4
			c-0.3,0.4-0.6,0.6-1,0.7c0,0-0.1,0-0.1,0C84.8,35.7,84.2,34.9,84.1,33.9z M85.4,32.1c-0.3,0-0.6,0.2-0.8,0.5
			c-0.2,0.3-0.3,0.8-0.3,1.2c0.1,0.9,0.7,1.6,1.4,1.6c0.3,0,0.6-0.2,0.8-0.5c0.2-0.3,0.3-0.8,0.3-1.2C86.7,32.8,86.2,32.1,85.4,32.1
			C85.5,32.1,85.5,32.1,85.4,32.1z"/>
	</g>
	<g>
		<ellipse transform="matrix(0.9967 -8.065898e-02 8.065898e-02 0.9967 -2.4425 7.0113)" cx="85.6" cy="33.7" rx="0.8" ry="1"/>
	</g>
	<g>
		<path class="st0" d="M67.1,50.3c-0.3-2.2,0.2-3.3,2.4-2.7c-1.1-3.4,1.1-3.6,2.2-3.8c0,0,0-4.6-1.2-6.4c-1.2-1.7-2.5-4.6-0.8-4.8
			c-1.4-1-1.7-2.6-0.4-2.8c-1.5-0.6-1.3-2.1,0.2-2.1c-1.3-1.5-1.1-3.5,0.6-3.2c-1.2-1.9-0.5-3.1,1.2-2.5c-0.5-3.7,1.7-4,3.4-2.6
			c0.2-3.2,1.9-3.6,3.3-2.4c1.2-3.5,3.8-2.9,4.7-1.4c0.3-2,2.5-1.9,3.3-0.6c0.8-1.6,3.2-2,4.2,0.6c1-1.7,4-1,3.8,1.5
			c2-1.9,4-0.3,3.1,2.1c3.5-0.5,3.3,3.2,0.9,3.7c1.9,1.5,0.9,2.6-0.6,4.3c0,0-1.4-1.4-2.3-2.1c-0.6,2.4-1.9,2-2.6,1
			c-0.9,2.8-2.1,2.3-3.3,1.1c0.3,2.5-2,2-2.5,1.5c-0.3,1.9-1.6,1.6-2.5,1.3c0.3,0.7-0.4,1.9-1.5,1.7c1.4,0.8,1.2,2.8-0.4,3.1
			c0.8,0.5,1.3,2-0.5,2.3c0.8,0.6,0.7,2-0.8,2.3c0.8,1.3-0.4,2-0.4,2L65.4,55.2C62.5,52.2,65.6,49.8,67.1,50.3z"/>
		<g>
			<path class="st10" d="M76.5,22.1c0.1,0,0.1,0.1,0.2,0.1C76.6,22.2,76.6,22.1,76.5,22.1z"/>
			<path class="st10" d="M67.1,50.3c-0.3-2.2,0.2-3.3,2.4-2.7c0-0.1,0-0.2-0.1-0.2c0.7,0.3,1.7,0,3.1-1c-1.2-0.1-2.1-0.3-1.8-1.5
				c0.5-1.5,2.8-0.5,2.8-1.5c-0.3-2.1-0.5-4.4-0.8-6.7c0.3,0,0.3,0,0.5,0c-0.5-0.5-1.5-0.8-1.8-1.5c-0.5-1.3,0.5-2.6,1.5-3.4
				c-1-0.5-1.8-1-1.3-2.3c0.5-0.8,1-1.3,2.1-1c-0.8-0.3-1.5-0.8-1.8-1.5c-0.3-2.1,1.8-1.3,2.8-1.8c-1.3-0.5-1.5-2.3-0.5-2.8
				c0.2-0.5,1.4-0.5,2.1-0.1c0.1,0,0.1,0.1,0.2,0.1c-0.1,0-0.1-0.1-0.2-0.1c-0.8-0.6-0.8-1.8-0.3-2.7c0.5-0.5,1.3-0.3,2.1-0.3
				c-0.8-0.3-1.5-1.6-1.3-2.6c0.3,0.1,0.7,0.3,1,0.6c1.2-3.5,3.8-2.9,4.7-1.4c0.3-2,2.5-1.9,3.3-0.6c0.8-1.6,3.2-2,4.2,0.6
				c1-1.7,4-1,3.8,1.5c2-1.9,4-0.3,3.1,2.1c3.5-0.5,3.3,3.2,0.9,3.7c1.9,1.5,0.9,2.6-0.6,4.3c0,0-1.4-1.4-2.3-2.1
				c-0.6,2.4-1.9,2-2.6,1c-0.9,2.8-2.1,2.3-3.3,1.1c0.3,2.5-2,2-2.5,1.5c-0.3,1.9-1.6,1.6-2.5,1.3c0.3,0.7-0.4,1.9-1.5,1.7
				c1.4,0.8,1.2,2.8-0.4,3.1c0.8,0.5,1.3,2-0.5,2.3c0.8,0.6,0.7,2-0.8,2.3c0.8,1.3-0.4,2-0.4,2L65.4,55.2
				C62.5,52.2,65.6,49.8,67.1,50.3z"/>
			<path class="st11" d="M70.8,49.5c-0.1-0.4-0.1-0.7,0-1.1C70.9,48.8,70.9,49.1,70.8,49.5z"/>
			<path class="st11" d="M67.1,50.3c-0.3-2.2,0.2-3.3,2.4-2.7c0-0.1,0-0.2-0.1-0.2c0,0,0.1,0,0.1,0c0.5,0.2,0.9,0.6,1.1,1
				c0.3-1.2,1.7-2,3.1-2c-1.5,0-2.1-1.8-1-2.3c0.8-0.3,1.5-0.5,2.3-0.5c-0.7,0-1.2-0.5-1.5-1c1.6-1.5-0.4-5.6,1-8.3
				c0.3-0.5,1-0.8,1-1c-1-1-3.1-1.8-2.6-3.6c0.3-0.8,1.2-0.9,2.1-1c-1.3-0.5-2.4-1.5-1.3-2.6c0.5-0.8,1.2-0.1,2.8-0.3
				c-1.3-0.8-1.8-2.1-1-2.8c0.3-0.5,1.5-0.3,2.6-0.3c-1-0.8-1-2.3,0-3.1c0.5-0.3,1.3,0,2.1,0c-1.3-0.6-2.1-1.7-2.2-3
				c1.2-3.1,3.7-2.5,4.6-1c0.3-2,2.5-1.9,3.3-0.6c0.8-1.6,3.2-2,4.2,0.6c1-1.7,4-1,3.8,1.5c2-1.9,4-0.3,3.1,2.1
				c3.5-0.5,3.3,3.2,0.9,3.7c1.9,1.5,0.9,2.6-0.6,4.3c0,0-1.4-1.4-2.3-2.1c-0.6,2.4-1.9,2-2.6,1c-0.9,2.8-2.1,2.3-3.3,1.1
				c0.3,2.5-2,2-2.5,1.5c-0.3,1.9-1.6,1.6-2.5,1.3c0.3,0.7-0.4,1.9-1.5,1.7c1.4,0.8,1.2,2.8-0.4,3.1c0.8,0.5,1.3,2-0.5,2.3
				c0.8,0.6,0.7,2-0.8,2.3c0.8,1.3-0.5,3-0.5,3L65.4,55.2C62.5,52.2,65.6,49.8,67.1,50.3z"/>
		</g>
		<g>
			<path class="st1" d="M65.5,55.1c-1.2-1.2-1.5-2.5-0.8-3.6c0.6-0.9,1.6-1.3,2.4-1.1l0.2,0.1l0-0.2c-0.2-1.3,0-2.1,0.4-2.4
				c0.4-0.3,1-0.4,1.9-0.1l0.2,0.1l-0.1-0.2c-0.4-1.2-0.4-2.1,0-2.7c0.4-0.7,1.3-0.8,1.9-0.9l0.3,0v-0.1c0-0.2,0-4.7-1.2-6.5
				c-1-1.4-1.9-3.4-1.5-4.2c0.1-0.2,0.3-0.4,0.6-0.4l0.3,0l-0.3-0.2c-0.8-0.6-1.3-1.4-1.2-2c0.1-0.3,0.3-0.5,0.7-0.6l0.4-0.1
				l-0.4-0.2c-0.8-0.3-1-0.8-0.9-1.2c0.1-0.4,0.5-0.6,1.1-0.6l0.3,0l-0.2-0.2c-0.7-0.8-1-1.9-0.6-2.6c0.2-0.4,0.6-0.5,1.1-0.4
				l0.3,0.1l-0.2-0.3c-0.6-0.9-0.7-1.8-0.4-2.2c0.3-0.3,0.8-0.4,1.4-0.1l0.2,0.1l0-0.2c-0.2-1.6,0-2.6,0.7-3
				c0.6-0.4,1.6-0.2,2.4,0.5l0.2,0.1l0-0.2c0.1-1.5,0.5-2.5,1.2-2.8c0.5-0.2,1.2-0.1,1.9,0.5l0.1,0.1l0.1-0.2
				c0.5-1.5,1.3-2.4,2.4-2.5c0.8-0.1,1.7,0.4,2.1,1.2l0.2,0.3l0.1-0.4c0.1-0.8,0.5-1.3,1.2-1.4c0.7-0.1,1.5,0.2,1.9,0.9l0.1,0.2
				l0.1-0.2c0.4-0.8,1.2-1.2,1.9-1.2c0.9,0,1.6,0.7,2.1,1.8l0.1,0.2l0.1-0.2c0.5-0.8,1.5-1,2.2-0.8c0.7,0.2,1.5,0.9,1.4,2.2l0,0.3
				l0.2-0.2c0.8-0.8,1.8-1,2.4-0.6c0.7,0.5,0.9,1.4,0.4,2.5l-0.1,0.2l0.2,0c1.6-0.2,2.3,0.5,2.5,1.2c0.2,0.8-0.4,1.9-1.6,2.2
				l-0.3,0.1l0.2,0.2c0.6,0.5,1,1,1,1.4c0.1,0.8-0.6,1.6-1.5,2.5c-0.3-0.3-1.4-1.4-2.2-2l-0.2-0.1l0,0.2c-0.2,1-0.6,1.6-1.1,1.7
				c-0.5,0.1-1-0.3-1.2-0.7l-0.1-0.2l-0.1,0.2c-0.4,1.2-0.9,1.8-1.4,1.9c-0.5,0.1-1-0.2-1.7-0.9l-0.3-0.3l0,0.4
				c0.1,0.8-0.1,1.4-0.5,1.6c-0.6,0.3-1.5,0-1.8-0.3l-0.2-0.2l0,0.2c-0.1,0.7-0.3,1.1-0.7,1.3c-0.4,0.2-1,0.2-1.7-0.1l-0.3-0.1
				l0.1,0.3c0.1,0.3,0.1,0.7-0.2,1c-0.3,0.4-0.7,0.6-1.2,0.5L82,31.5l0.6,0.3c0.7,0.4,0.9,1.1,0.8,1.7c-0.1,0.6-0.6,1-1.2,1.1
				l-0.4,0.1l0.3,0.2c0.4,0.2,0.7,0.7,0.6,1.2c-0.1,0.4-0.5,0.7-1.1,0.9L81.5,37l0.2,0.2c0.4,0.3,0.5,0.8,0.4,1.2
				c-0.1,0.5-0.5,0.7-1.1,0.8l-0.2,0l0.1,0.2c0.2,0.4,0.3,0.7,0.2,1c-0.1,0.5-0.6,0.8-0.6,0.8c0,0,0.7-0.1,0.8-0.7
				c0.1-0.3,0-0.7-0.2-1.1c0.6-0.1,1-0.5,1.2-1c0.1-0.4,0-0.9-0.3-1.3c0.8-0.2,1-0.7,1.1-1c0.1-0.5-0.2-1-0.5-1.3
				c0.6-0.2,1-0.7,1.1-1.3c0.1-0.6-0.1-1.3-0.6-1.7c0.4-0.1,0.8-0.3,1-0.6c0.2-0.3,0.3-0.7,0.3-1c0.7,0.2,1.2,0.3,1.7,0
				c0.4-0.2,0.7-0.6,0.8-1.3c0.5,0.3,1.3,0.5,1.9,0.2c0.4-0.2,0.7-0.6,0.7-1.6c0.5,0.4,1.1,0.8,1.7,0.7c0.6-0.1,1.1-0.8,1.5-1.9
				c0.4,0.5,0.9,0.7,1.3,0.6c0.4-0.1,0.9-0.4,1.3-1.7c0.9,0.7,2.1,2,2.2,2l0.1,0.1l0.1-0.1c1-1.1,1.7-1.9,1.6-2.8
				c0-0.5-0.3-1-0.9-1.5c1.2-0.4,1.7-1.5,1.5-2.4c-0.1-0.8-0.9-1.6-2.6-1.5c0.4-1.1,0.1-2.1-0.6-2.6c-0.6-0.4-1.5-0.5-2.5,0.4
				c0-1.2-0.8-1.9-1.6-2.1c-0.9-0.3-1.8,0-2.4,0.7c-0.7-1.5-1.7-1.7-2.2-1.7c-0.8,0-1.6,0.4-2.1,1.2c-0.5-0.6-1.3-1-2-0.8
				c-0.6,0.1-1.1,0.6-1.3,1.3c-0.5-0.7-1.4-1.1-2.2-1c-0.6,0.1-1.8,0.5-2.5,2.5c-0.7-0.5-1.4-0.7-2-0.4c-0.8,0.3-1.2,1.3-1.4,2.8
				c-0.9-0.6-1.9-0.8-2.5-0.4c-0.5,0.3-1.1,1.1-0.9,3.1c-0.6-0.2-1.2-0.1-1.5,0.3c-0.4,0.5-0.3,1.3,0.2,2.3c-0.5,0-0.9,0.2-1.1,0.5
				c-0.4,0.7-0.2,1.8,0.5,2.7c-0.6,0.1-1,0.4-1,0.8c-0.1,0.5,0.2,1,0.8,1.4c-0.3,0.1-0.5,0.4-0.6,0.7c-0.1,0.6,0.3,1.5,1,2.1
				c-0.3,0.1-0.4,0.2-0.6,0.5c-0.5,1,0.7,3.3,1.5,4.4c1.1,1.5,1.2,5.5,1.2,6.2l0,0c-0.7,0.1-1.6,0.3-2.1,1.1
				c-0.4,0.6-0.4,1.5-0.1,2.7c-0.9-0.2-1.5-0.1-1.9,0.2c-0.5,0.4-0.6,1.2-0.5,2.5c-0.8-0.2-1.9,0.3-2.5,1.2c-0.3,0.4-0.8,1.5,0,2.8
				C64.7,54.6,65.5,55.1,65.5,55.1z"/>
		</g>
	</g>
	<g>
		<path class="st6" d="M79.1,32c0,0-0.5,6.6-5,10.5c-4.5,3.9-6.3,2.7-6.5,0c-0.3-2.7,0.9-8.9,8.8-11.4C78.7,30.8,79.1,32,79.1,32z"
			/>
		<path class="st7" d="M79.1,32c0,0-0.5,6.6-5,10.5c-4.5,3.9-5.6,2.4-5.8-0.4c-0.3-2.7,0.2-8.5,8.1-11.1C78.7,30.8,79.1,32,79.1,32z
			"/>
		<path class="st8" d="M79.1,32c0,0-0.5,6.6-5,10.5c-4.5,3.9-5,2-5.3-0.7c-0.3-2.7-0.3-8.1,7.6-10.7C78.7,30.8,79.1,32,79.1,32z"/>
		<path class="st9" d="M67.4,42.5c-0.3-3.1,1.2-9.1,8.9-11.6l0,0c0.2,0,0.4,0,0.6,0c1.9,0,2.3,1,2.3,1.1l0,0l0,0
			c0,0.1-0.6,6.7-5.1,10.6c-1.9,1.7-3.5,2.5-4.7,2.5l0,0C68.3,45.1,67.6,44.2,67.4,42.5z M76.9,31.1c-0.2,0-0.4,0-0.5,0
			c-7.5,2.4-9,8.3-8.7,11.3c0.1,1.1,0.5,2.4,1.8,2.4c1.1,0,2.6-0.8,4.5-2.5c4.3-3.7,4.9-9.9,5-10.4C78.9,31.8,78.5,31.1,76.9,31.1z"
			/>
	</g>
	<g>
		<path class="st12" d="M69.5,42.1c0,0,5.6-2.8,6.7-8.9C72.5,34.2,69.6,39.5,69.5,42.1z"/>
		<path class="st13" d="M69.5,42.1c0,0,4.8-1.9,5.9-8C71.7,35.1,69.6,39.5,69.5,42.1z"/>
		<path class="st14" d="M69.5,42.1c0,0,4.3-1.2,5.4-7.3C71.2,35.8,69.6,39.5,69.5,42.1z"/>
		<path class="st9" d="M69.4,42.1c0.1-2.5,3-8,6.8-9l0.2-0.1l0,0.2c-1.1,6.2-6.7,9-6.8,9l-0.2,0.1L69.4,42.1z M69.7,41.9
			c1-0.6,5.4-3.3,6.4-8.5C72.6,34.5,69.9,39.3,69.7,41.9z"/>
	</g>
	<g>
		<path class="st9" d="M76.3,33.3c0.5-0.2,1.1-0.3,1.1-0.3c0,0-0.7-0.1-1.2,0.1L76.3,33.3z"/>
	</g>
	<g>
		<path class="st11" d="M74.8,30l5.5,1.5c0,0,0.4,1.6-0.9,1.9c-1.3,0.3-1.7-1.4-1.7-2.2C76.5,32.4,74,31.8,74.8,30z"/>
		<g>
			<path class="st1" d="M79.1,33.5c0.1,0,0.2,0,0.4,0c0.6-0.1,0.8-0.5,1-0.9c0.1-0.4-0.2-1.1-0.2-1.1c0,0.1,0.4,1.5-0.8,1.8
				c-0.3,0.1-0.6,0-0.8-0.2c-0.5-0.4-0.7-1.4-0.7-1.9l0-0.3l-0.2,0.2c-0.7,0.7-1.9,0.8-2.5,0.4c-0.5-0.3-0.6-0.8-0.3-1.4
				c0,0-0.4,0.4-0.4,0.6c0,0.4,0.2,0.8,0.6,1.1c0.6,0.4,1.8,0.4,2.6-0.2c0,0.6,0.3,1.4,0.8,1.8C78.6,33.4,78.9,33.5,79.1,33.5z"/>
		</g>
	</g>
	<g>
		<path class="st3" d="M81.5,93.2c0,0,1.8,1.7,2.2,2.8c0.4,1.1-0.6,1.4-2,1.4c-1.4,0-2.4-3.1-1.7-3.7C80.9,93.1,81.5,93.2,81.5,93.2
			z"/>
		<path class="st4" d="M81.5,93.2c0,0,1.8,1.7,2.2,2.8c0.4,1.1-0.6,1.4-2,1.4c-1.4,0-2.4-3.1-1.7-3.7C80.9,93.1,81.5,93.2,81.5,93.2
			z"/>
		<path class="st5" d="M79.8,95.3c-0.2-0.7-0.3-1.5,0.2-1.8c0.8-0.6,1.5-0.5,1.5-0.5l0,0l0,0c0.1,0.1,1.8,1.7,2.2,2.8
			c0.1,0.4,0.1,0.7-0.1,1c-0.3,0.4-0.9,0.6-2,0.6C80.9,97.4,80.1,96.4,79.8,95.3z M80.1,93.8c-0.3,0.2-0.3,0.8-0.1,1.5
			c0.3,0.9,0.9,1.9,1.6,1.9c1,0,1.6-0.2,1.8-0.5c0.1-0.2,0.1-0.4,0-0.7c-0.3-1-1.8-2.5-2.1-2.7C81.3,93.3,80.8,93.3,80.1,93.8z"/>
	</g>
	<g>
		<path class="st2" d="M80.2,93.8c0,0,1.8,1.7,1.5,3.5c-0.3,1.8-4.1,1.1-4.9,0.7c-0.8-0.4-0.8-2.5-0.5-2.9
			C76.6,94.6,80.2,93.8,80.2,93.8z"/>
		<path class="st3" d="M80.2,93.8c0,0,1.8,1.7,1.5,3.5c-0.3,1.8-3.2,0.6-4,0.2c-0.8-0.4-0.9-2.3-0.6-2.8
			C77.5,94.3,80.2,93.8,80.2,93.8z"/>
		<path class="st4" d="M80.2,93.8c0,0,1.8,1.7,1.5,3.5c-0.3,1.8-2.7,0.4-3.5,0c-0.8-0.4-0.5-2.3-0.2-2.8
			C78.2,94,80.2,93.8,80.2,93.8z"/>
		<path class="st5" d="M76.8,98.1c-0.3-0.1-0.5-0.4-0.6-0.8c-0.2-0.8-0.2-1.9,0-2.3c0.3-0.5,3.4-1.2,4-1.3l0.1,0l0,0
			c0.1,0.1,1.9,1.7,1.5,3.6c-0.1,0.8-0.9,1.3-2.3,1.3l0,0C78.4,98.6,77.2,98.3,76.8,98.1z M76.4,95.1c-0.2,0.3-0.2,1.3,0,2.1
			c0.1,0.3,0.3,0.6,0.5,0.7c0.4,0.2,1.6,0.5,2.6,0.5c0.9,0,1.9-0.2,2.1-1.1c0.3-1.6-1.1-3-1.4-3.3C78.5,94.3,76.6,94.9,76.4,95.1z"
			/>
	</g>
	<g>
		<path class="st6" d="M78.5,75.6c0,0,2.7,3.7,0.6,6.8c-0.2,2.4,0.3,5.8,1.2,7.1c0.9,1.4,1.4,2.1,1.4,3.8c-1,1.1-3.5,2.3-5.6,2
			c-1.2-1.8-0.9-3.2-0.6-4.2c0.3-1-0.2-2.1-0.7-2.9c-0.5-0.7-0.9-3.7-1.6-5.5C72.6,80.9,75.1,76.2,78.5,75.6z"/>
		<path class="st7" d="M74.1,83c0.9-0.6,1.5-1.6,1.6-2.8c0.8,1,2.1,0.8,2.8,0.3c0.6-0.6,1.1-1.3,1.3-2c0.3,1.2,0.2,2.7-0.7,4
			c-0.2,2.4,0.3,5.8,1.2,7.1c0.9,1.4,1.4,2.1,1.4,3.8c-1,1.1-2.9,2.3-4.9,1.9c-1.2-1.8-0.1-3.1,0.1-4c0.3-1,0.1-2.9-0.4-3.7
			C76.1,86.9,74.8,84.8,74.1,83z"/>
		<path class="st8" d="M77,86.7c-0.4-0.6-1.5-2-2.2-3.6c0.7-0.5,1.1-1.2,1.1-2.2c1.6,1.8,3,0.2,4-1.2c0,0.9-0.2,1.8-0.8,2.6
			c-0.2,2.4,0.3,5.8,1.2,7.1c0.9,1.4,1.4,2.1,1.4,3.8c-1,1.1-2.9,2.3-4.9,1.9c-1.2-1.8,0.7-3,0.9-4C78,90.2,77.5,87.5,77,86.7z"/>
		<path class="st9" d="M76.1,95.4L76.1,95.4L76.1,95.4c-1.4-2-1-3.5-0.8-4.3c0.2-0.9-0.2-2-0.7-2.8c-0.3-0.4-0.5-1.4-0.8-2.6
			c-0.2-1-0.5-2.1-0.8-3c-0.3-0.9,0-2.3,0.8-3.8c1.1-2,2.8-3.3,4.5-3.6l0.1,0l0,0.1c0,0,2.7,3.8,0.6,6.9c-0.1,2.3,0.3,5.7,1.2,7
			l0.1,0.1c0.8,1.3,1.4,2,1.4,3.7v0l0,0c-0.9,1-3.1,2.1-5,2.1C76.6,95.5,76.4,95.5,76.1,95.4z M80.3,89.7l-0.1-0.1
			c-1-1.4-1.4-4.9-1.2-7.2l0,0l0,0c1.9-2.8-0.2-6.1-0.5-6.6c-1.6,0.3-3.2,1.6-4.3,3.4c-0.8,1.4-1.1,2.8-0.8,3.5c0.3,0.9,0.6,2,0.8,3
			c0.2,1.1,0.5,2.1,0.7,2.5c0.5,0.8,1,1.9,0.7,3c-0.3,1.1-0.5,2.4,0.6,4c0.2,0,0.4,0,0.6,0c1.9,0,4-1.1,4.8-2
			C81.6,91.7,81.1,91,80.3,89.7z"/>
	</g>
	<g>
		<path class="st9" d="M79.3,82.4l-0.2-0.2c-0.4,0.5-1,0.7-1,0.7C78.1,82.8,78.8,83,79.3,82.4z"/>
	</g>
	<g>
		<path class="st3" d="M75.7,96.3c0,0,2.6,2.6,2.5,3.8c-0.1,1.2-1.4,0.7-2.5,0.6C74.7,100.5,74,96.7,75.7,96.3z"/>
		<path class="st4" d="M75.7,96.3c0,0,2.6,2.6,2.5,3.8c-0.1,1.2-1.4,0.7-2.5,0.6C74.7,100.5,74,96.7,75.7,96.3z"/>
		<path class="st5" d="M76.1,100.8c-0.1,0-0.3-0.1-0.4-0.1c-0.7-0.1-1.1-1.3-1.1-2.4c0-1.2,0.4-2,1.1-2.2l0.1,0l0.1,0.1
			c0.1,0.1,2.6,2.7,2.5,3.9c-0.1,0.6-0.4,0.9-1.1,0.9l0,0C76.9,101,76.5,100.9,76.1,100.8z M74.8,98.3c0,1.1,0.5,2.1,0.9,2.2
			c0.1,0,0.3,0.1,0.4,0.1c0.4,0.1,0.8,0.1,1.1,0.1l0,0c0.5,0,0.8-0.2,0.8-0.7c0.1-0.9-1.6-2.9-2.4-3.6C74.8,96.7,74.8,98,74.8,98.3z
			"/>
	</g>
	<g>
		<path class="st2" d="M74.7,96.6c0,0,1.1,1.5,1.6,3.1c0.5,1.5-0.3,2.1-2.4,2.4c-2.1,0.3-3.7-0.6-4.1-1.6c-0.5-1,0.3-2.9,0.8-3.4
			C72.5,97.1,74.7,96.6,74.7,96.6z"/>
		<path class="st3" d="M74.7,96.6c0,0,1.1,1.5,1.6,3.1c0.5,1.5-1.1,1.9-2.2,1.8c-2.1-0.2-2.8-0.2-3.3-1.3c-0.5-1,0.1-2.7,0.5-3.2
			C73.3,97.1,74.7,96.6,74.7,96.6z"/>
		<path class="st4" d="M74.7,96.6c0,0,1.1,1.5,1.6,3.1c0.5,1.5-1,1.7-2.1,1.6c-2.1-0.2-2.4-0.5-2.8-1.5c-0.5-1,0.3-2.3,0.8-2.7
			C74.2,97,74.7,96.6,74.7,96.6z"/>
		<path class="st5" d="M69.6,100.5c-0.5-1.1,0.3-3,0.8-3.5l0,0h0.1c2,0,4.1-0.5,4.2-0.5l0.1,0l0,0.1c0,0.1,1.1,1.5,1.6,3.1
			c0.2,0.7,0.2,1.2-0.1,1.6c-0.3,0.5-1.1,0.8-2.5,1c-0.3,0-0.6,0.1-0.8,0.1h0C71.2,102.3,70,101.4,69.6,100.5z M70.6,97.2
			c-0.4,0.5-1.1,2.3-0.7,3.2c0.4,0.8,1.5,1.6,3.2,1.6c0.3,0,0.5,0,0.8-0.1c1.3-0.2,2-0.5,2.3-0.9c0.2-0.3,0.2-0.7,0-1.3
			c-0.4-1.3-1.3-2.6-1.5-2.9C74.2,96.8,72.3,97.2,70.6,97.2z"/>
	</g>
	<g>
		<path class="st6" d="M74.1,79.9c0,0,1.9,3.5-0.3,6.2c0,3.7,0.3,5.8,1.1,6.7c0.8,0.8,2.3,2.9,0.7,4.1c-1.6,1.2-3.9,1.2-5.2,0.4
			c0.3-0.3,0.3-0.5,0.3-0.5c-1.1-0.5-1.8-0.7-1.2-2.5c0.6-1.8,0.8-6.4-0.2-7.5c-1-1.1-2.4-3.9-1.3-5.5
			C69.1,79.8,74.1,79.9,74.1,79.9z"/>
		<path class="st7" d="M68.4,83.7c0.9,0.5,1.9,0.7,2.8-0.1c0.5-0.5,0.8-0.8,0.8-1.5c0.9,1.1,2,0.5,2.6-0.6c0.3,1.3,0.4,3.1-0.9,4.7
			c0,3.7,0.3,5.8,1.1,6.7c0.8,0.8,2.3,2.9,0.7,4.1c-1.6,1.2-3.9,1.2-5.2,0.4c0.3-0.3,0.3-0.5,0.3-0.5c-1.1-0.5,0.3-1.4,0.9-3.2
			c0.6-1.8-0.5-6.1-1.5-7.2C69.5,85.8,68.7,84.8,68.4,83.7z"/>
		<path class="st8" d="M69.9,85.4c1.2-0.2,2.3-1,2.1-2.6c0.3,0.8,1,1,1.5,0.8c0.3-0.3,0.9-0.6,1.3-1.1c0.1,1.1-0.1,2.5-1,3.7
			c0,3.7,0.3,5.8,1.1,6.7c0.8,0.8,2.3,2.9,0.7,4.1c-1.6,1.2-3.9,1.2-5.2,0.4c0.3-0.3,0.3-0.5,0.3-0.5c-1.1-0.5,0.7-1.2,1.2-3.1
			c0.6-1.8,0-6.3-1.1-7.3C70.6,86.1,70.3,85.8,69.9,85.4z"/>
		<path class="st9" d="M70.3,97.4l-0.1-0.1l0.1-0.1c0.1-0.2,0.2-0.3,0.2-0.4l0,0c-1-0.5-1.7-0.8-1.1-2.6c0.6-1.9,0.8-6.4-0.2-7.3
			c-1.1-1.1-2.5-4-1.3-5.7c0.9-1.3,4.4-1.5,5.8-1.5c0.3,0,0.4,0,0.4,0l0.1,0l0,0.1c0,0,1.9,3.6-0.3,6.3c0,3.7,0.3,5.8,1,6.5
			c0.3,0.3,1.5,1.7,1.4,3c0,0.5-0.3,1-0.7,1.3c-0.8,0.6-1.9,1-3,1l0,0C71.7,98,70.9,97.8,70.3,97.4z M73.7,80
			c-1.1,0-4.7,0.1-5.6,1.4c-1.1,1.5,0.3,4.3,1.3,5.3c1.1,1.1,0.8,5.7,0.2,7.6c-0.5,1.6,0,1.8,1,2.3l0.3,0.1l0,0.1
			c0,0-0.1,0.1-0.3,0.4c0.6,0.3,1.3,0.5,2.1,0.5l0,0c1.1,0,2.1-0.3,2.9-0.9c0.4-0.3,0.6-0.7,0.6-1.2c0.1-1.2-1.1-2.5-1.4-2.8
			c-0.8-0.8-1.1-2.9-1.1-6.8l0,0l0,0c2-2.4,0.6-5.5,0.3-6C74,80,73.8,80,73.7,80z"/>
	</g>
	<g>
		<path class="st9" d="M73.9,86.2l-0.2-0.1c-0.4,0.5-0.6,0.6-0.6,0.6C73.1,86.7,73.5,86.8,73.9,86.2z"/>
	</g>
	<g>
		<path class="st3" d="M48,97.7c0,0,2.2,2.6,1.9,3.4c-0.3,0.9-1.9,0.7-2.8,0.5c-0.9-0.2-1.8-2.5-0.9-3.2C47.2,97.6,48,97.7,48,97.7z
			"/>
		<path class="st4" d="M48,97.7c0,0,2.2,2.6,1.9,3.4c-0.3,0.9-1.9,0.7-2.8,0.5c-0.9-0.2-1.8-2.5-0.9-3.2C47.2,97.6,48,97.7,48,97.7z
			"/>
		<path class="st5" d="M47.1,101.8c-0.6-0.1-1.1-1-1.3-1.7c-0.2-0.8-0.1-1.4,0.4-1.7c1-0.8,1.8-0.8,1.8-0.8l0.1,0l0,0
			c0.2,0.3,2.2,2.6,1.9,3.6c-0.2,0.5-0.7,0.8-1.6,0.8l0,0C47.8,101.9,47.3,101.8,47.1,101.8z M46.3,98.5c-0.3,0.3-0.4,0.8-0.3,1.5
			c0.2,0.8,0.7,1.5,1.1,1.5c0.2,0.1,0.7,0.1,1.2,0.1l0,0c0.5,0,1.2-0.1,1.4-0.6c0.2-0.7-1.2-2.5-1.8-3.3
			C47.7,97.8,47.1,97.9,46.3,98.5z"/>
	</g>
	<g>
		<path class="st2" d="M46.3,98c0,0,1.7,3.4,1,4.3c-0.6,0.9-5.4,0.7-6.3-0.9c-0.9-1.6,0.3-3.4,1.5-3.8C43.7,97.1,46.3,98,46.3,98z"
			/>
		<path class="st3" d="M46.3,98c0,0,1.7,3.4,1,4.3c-0.6,0.9-4.5,0.2-5.4-1.5c-0.9-1.6,0.3-2.8,1.5-3.3C44.6,97.1,46.3,98,46.3,98z"
			/>
		<path class="st4" d="M46.3,98c0,0,1.7,3.4,1,4.3c-0.6,0.9-3.8,0.2-4.7-1.4c-0.9-1.6,0-2.8,1.2-3.2C45.1,97.2,46.3,98,46.3,98z"/>
		<path class="st5" d="M40.9,101.5c-0.5-0.9-0.4-1.7-0.2-2.2c0.3-0.8,1-1.5,1.7-1.8c0.2-0.1,0.6-0.1,0.9-0.1c1.3,0,2.9,0.5,2.9,0.5
			l0,0l0,0c0.2,0.4,1.7,3.5,1,4.5c-0.3,0.4-1.1,0.6-2.3,0.6l0,0C43.5,103,41.5,102.5,40.9,101.5z M43.4,97.6c-0.3,0-0.6,0-0.9,0.1
			c-0.7,0.3-1.3,0.9-1.6,1.7c-0.2,0.5-0.3,1.2,0.2,2c0.5,0.9,2.4,1.4,4.1,1.4c1,0,1.9-0.2,2.1-0.5c0.5-0.7-0.5-3.2-1-4.2
			C45.9,98,44.5,97.6,43.4,97.6z"/>
	</g>
	<g>
		<path class="st6" d="M46.2,80.5c0,0-1.2,3.4-0.6,7.9c0.7,4.5,3.4,7.6,2.8,9.2c-0.6,1.6-6.3,1.3-6.8,0c-0.5-1.3,1.2-4.6-0.9-7.3
			c-2-2.7-2.8-6-0.8-8.2C42,80,43.7,79.5,46.2,80.5z"/>
		<path class="st7" d="M42.4,83.3c0.6,1.3,1.9,1.8,3.1,1.4c-0.1,1.1,0,2.4,0.2,3.7c0.7,4.5,3.4,7.6,2.8,9.2
			c-0.6,1.6-5.4,1.6-5.9,0.3c-0.5-1.3,2.3-4.8,0.3-7.5c-1.2-1.6-2.5-3.5-2.9-5.3c0.5,0,0.9-0.1,1.4-0.3
			C41.9,84.9,42.4,84.1,42.4,83.3z"/>
		<path class="st8" d="M43.7,90.3c-1-1.3-2-2.7-2.5-4.1c0.8-0.4,1.3-1,1.5-1.9c0.6,1.1,1.6,1.8,2.8,1.6c0,0.8,0.1,1.6,0.2,2.5
			c0.7,4.5,3.4,7.6,2.8,9.2c-0.6,1.6-5.4,1.6-5.9,0.3C42,96.6,45.7,93.1,43.7,90.3z"/>
		<path class="st9" d="M41.5,97.7c-0.2-0.5-0.1-1.2,0-2c0.2-1.6,0.4-3.5-0.9-5.3C38.3,87.3,38,84,39.9,82c1.4-1.5,2.6-2.2,4-2.2
			c0.7,0,1.5,0.2,2.4,0.6l0.1,0l0,0.1c0,0-1.2,3.4-0.5,7.8c0.3,2.3,1.2,4.2,1.9,5.7c0.7,1.6,1.2,2.7,0.9,3.5
			c-0.4,1.1-2.6,1.2-3.3,1.2c0,0,0,0,0,0C43.6,98.8,41.8,98.4,41.5,97.7z M43.9,80.1c-1.3,0-2.4,0.6-3.8,2.1c-2.1,2.3-0.9,5.8,0.8,8
			c1.4,1.8,1.1,3.9,0.9,5.4c-0.1,0.8-0.2,1.5,0,1.9c0.2,0.6,1.8,1,3.5,1h0c1.7,0,2.9-0.4,3.1-1c0.3-0.7-0.3-1.9-0.9-3.3
			c-0.7-1.5-1.6-3.5-1.9-5.8c-0.6-4,0.3-7.2,0.5-7.9C45.2,80.3,44.5,80.1,43.9,80.1z"/>
	</g>
	<g>
		<path class="st0" d="M60.6,76.9l18.2-1.4c0,0-0.1,6.1-3.3,3.4c-0.3,1.9-1.3,2.5-2.9,1.5c-0.1,1.3-1.9,3-3.4,0.5
			c-0.7,2-2.4,2.3-3.3,0c-1.2,0.8-2.8,1.1-2.6-1.1C62.3,80.7,59.1,78.6,60.6,76.9z"/>
		<g>
			<path class="st1" d="M67.7,82.6C67.7,82.6,67.7,82.6,67.7,82.6c0.7,0,1.3-0.6,1.7-1.5c0.8,1.2,1.6,1.2,2,1.1
				c0.8-0.2,1.3-1,1.4-1.6c0.7,0.4,1.3,0.5,1.8,0.3c0.5-0.2,0.9-0.8,1.1-1.8c0.7,0.5,1.4,0.7,1.9,0.4c0.9-0.4,1.2-1.8,1.4-2.8
				c0.1-0.7,0.1-1.2,0.1-1.3c0,0-0.3,3.3-1.6,3.9c-0.5,0.2-1.1,0-1.8-0.5l-0.2-0.1l0,0.2c-0.1,0.9-0.5,1.6-1,1.8
				c-0.4,0.2-1,0.1-1.7-0.4l-0.2-0.1l0,0.2c0,0.6-0.5,1.4-1.3,1.6c-0.7,0.2-1.3-0.3-1.9-1.2l-0.1-0.2l-0.1,0.3
				c-0.3,1-0.9,1.5-1.5,1.6c-0.6,0-1.2-0.6-1.5-1.6l-0.1-0.2L66,80.7c-0.7,0.5-1.5,0.7-1.9,0.5c-0.4-0.2-0.5-0.7-0.5-1.5l0-0.3
				l-0.2,0.2c-0.6,0.5-1.8,0.1-2.5-0.6c-0.3-0.3-1-1.1-0.2-2c0,0-0.7,0.7-0.6,1.1c0.1,0.4,0.3,0.8,0.6,1.1c0.7,0.7,1.9,1.1,2.6,0.7
				c0,0.7,0.2,1.2,0.6,1.5c0.6,0.3,1.4,0,2.1-0.4C66.4,82,67,82.6,67.7,82.6z"/>
		</g>
	</g>
	<g>
		<path class="st0" d="M32.6,69.5c-1.3-1.1-2.9-2.7-0.7-4.6c-1.6-0.4-0.9-2.7,0.5-3.2l18.5,12.8c0,0,2.8,4.9-2.4,4
			c0.8,1.6-1.3,3.3-3.2,2.3c1.1,1.7-2.8,3.5-3.3,0.8c-0.9,1.9-3.7,1.5-3.3-0.3c-1.2,0.4-3.9-0.3-3-2.4c-2,0.2-3.7-1.9-1.7-3.5
			c-2-0.5-2.1-2.7-1.1-3.2C30.9,71.8,31.5,70.3,32.6,69.5z"/>
		<path class="st11" d="M41.5,68l1.3,0.9c-0.2,0-0.3,0-0.5-0.1C42,68.7,41.7,68.4,41.5,68z"/>
		<path class="st10" d="M33.1,62.2l0.7,0.5c-0.4,0.7-0.3,1.4,0.3,2c0.9,0.5,2,0.6,2.8,0.1l0.4,0.2c-0.1,0.9,0.5,1.8,1.2,2.2
			c0.7,0.3,1.3,0.2,1.8-0.1l1.2,0.8c0.2,0.4,0.5,0.6,0.9,0.9c0.1,0,0.3,0.1,0.5,0.1l7,4.8c-0.6,0.3-1.3,0.3-1.8-0.6
			c-0.3,0.9-1.3,1.9-2.3,2c-0.6,0-1.3-0.3-1.8-1.3c-1.5,1.2-3.5,1.5-3.7-1.6c-1.2,1.3-4-1.2-2.1-3.4c-2.5,0.4-2.8-0.2-2.8-1.3
			c-1.5,0.5-2.8-1.1-2.2-3c-0.8,0.1-1.4,0-1.8-0.2c-0.4-0.6-0.2-1.6,0.4-2.2C32.1,62.3,32.6,62.3,33.1,62.2z"/>
		<path class="st11" d="M32.4,61.7l0.7,0.5c-0.5,0-1,0.1-1.5,0c0.1-0.1,0.2-0.2,0.3-0.2C32.1,61.9,32.2,61.8,32.4,61.7z"/>
		<path class="st11" d="M38.5,67.3c-0.7-0.3-1.3-1.3-1.2-2.2l3,2.1C39.8,67.5,39.2,67.6,38.5,67.3z"/>
		<path class="st11" d="M34.1,64.7c-0.6-0.6-0.7-1.3-0.3-2l3.1,2.2C36.1,65.3,35,65.3,34.1,64.7z"/>
		<g>
			<path class="st1" d="M43.6,83.1c0.7,0,1.5-0.4,1.9-0.9c0.2-0.3,0.3-0.7,0.2-1.1c1,0.4,2,0.1,2.6-0.5c0.6-0.5,0.7-1.2,0.5-1.9
				c1.4,0.2,2.3,0,2.8-0.7c0.9-1.2-0.7-3.4-0.7-3.4c0,0,1.2,2.2,0.5,3.3c-0.4,0.6-1.3,0.8-2.7,0.5l-0.2,0l0.1,0.2
				c0.3,0.6,0.2,1.3-0.4,1.8c-0.6,0.5-1.6,0.8-2.7,0.3l-0.5-0.3l0.3,0.4c0.3,0.5,0.2,0.9,0,1.1c-0.4,0.6-1.3,0.9-1.9,0.8
				c-0.4-0.1-0.9-0.4-1.1-1.2l-0.1-0.4L42,81.6c-0.5,1.1-1.6,1.4-2.3,1.1c-0.6-0.2-0.9-0.7-0.7-1.4l0-0.2l-0.2,0.1
				c-0.7,0.3-2,0.1-2.6-0.6c-0.4-0.4-0.5-1-0.2-1.6l0.1-0.2l-0.2,0c-1,0.1-2-0.4-2.3-1.2c-0.3-0.7,0-1.4,0.7-2.1l0.2-0.2l-0.2-0.1
				c-1.1-0.3-1.5-1-1.6-1.7c-0.1-0.6,0.2-1.1,0.6-1.3l0.3-0.2L33,72c-0.7-0.1-1.2-0.4-1.2-0.8c-0.1-0.5,0.3-1.1,0.9-1.6l0.1-0.1
				l-0.1-0.1c-0.9-0.7-1.8-1.6-1.8-2.6c0-0.6,0.3-1.2,1-1.8l0.2-0.2l-0.2-0.1c-0.7-0.2-0.8-0.7-0.8-1c0-0.7,0.5-1.6,1.4-1.9
				c0,0-0.7,0.1-0.9,0.3c-0.4,0.5-0.7,1.1-0.7,1.6c0,0.6,0.3,1,0.8,1.2c-0.6,0.6-1,1.2-1,1.8c0,1.1,0.9,1.9,1.7,2.7
				c-0.7,0.5-1,1.2-0.9,1.7c0.1,0.3,0.3,0.7,1.2,1c-0.4,0.3-0.5,0.8-0.5,1.4c0.1,0.7,0.5,1.5,1.6,1.8c-0.7,0.7-0.9,1.5-0.6,2.2
				c0.4,0.8,1.3,1.4,2.4,1.4c0,0,0,0,0,0c-0.3,0.8,0,1.4,0.4,1.7c0.7,0.7,1.9,0.9,2.7,0.7c-0.1,0.7,0.3,1.2,0.9,1.5
				c0.8,0.3,1.9,0,2.5-0.9c0.2,0.6,0.6,1,1.2,1.1C43.4,83.1,43.5,83.1,43.6,83.1z"/>
		</g>
	</g>
	<circle class="st11" cx="85.7" cy="33.1" r="0.6"/>
	<circle class="st11" cx="86.3" cy="34.1" r="0.3"/>
	<circle class="st11" cx="97.5" cy="29.7" r="0.6"/>
	<circle class="st11" cx="98" cy="30.6" r="0.3"/>
</g>
</svg>
