<?xml version="1.0" encoding="utf-8"?>
<!-- Generator: Adobe Illustrator 21.0.2, SVG Export Plug-In . SVG Version: 6.00 Build 0)  -->
<svg version="1.1" id="Слой_1" xmlns="http://www.w3.org/2000/svg" xmlns:xlink="http://www.w3.org/1999/xlink" x="0px" y="0px"
	 viewBox="0 0 239 77" style="enable-background:new 0 0 239 77;" xml:space="preserve">
<style type="text/css">
	.st0{fill:url(#SVGID_1_);}
	.st1{fill:url(#SVGID_2_);}
	.st2{fill:url(#SVGID_3_);}
	.st3{fill:url(#SVGID_4_);}
	.st4{fill:url(#SVGID_5_);}
	.st5{fill:url(#SVGID_6_);}
	.st6{fill:url(#SVGID_7_);}
	.st7{fill:url(#SVGID_8_);}
	.st8{fill:url(#SVGID_9_);}
	.st9{fill:url(#SVGID_10_);}
	.st10{fill:#78D3FC;}
	.st11{display:none;}
	.st12{display:inline;}
	.st13{fill:url(#SVGID_11_);}
	.st14{fill:url(#SVGID_12_);}
	.st15{fill:url(#SVGID_13_);}
	.st16{fill:url(#SVGID_14_);}
	.st17{fill:url(#SVGID_15_);}
	.st18{fill:url(#SVGID_16_);}
	.st19{fill:url(#SVGID_17_);}
	.st20{fill:url(#SVGID_18_);}
	.st21{fill:url(#SVGID_19_);}
	.st22{fill:url(#SVGID_20_);}
	.st23{fill:url(#SVGID_21_);}
	.st24{fill:url(#SVGID_22_);}
	.st25{fill:url(#SVGID_23_);}
	.st26{fill:url(#SVGID_24_);}
	.st27{fill:url(#SVGID_25_);}
	.st28{fill:url(#SVGID_26_);}
	.st29{fill:url(#SVGID_27_);}
	.st30{fill:url(#SVGID_28_);}
	.st31{fill:#FFFFFF;}
	.st32{opacity:0.5;fill:#FFFFFF;}
	.st33{fill:#809FD9;}
	.st34{opacity:0.2;fill:url(#SVGID_29_);}
	.st35{display:none;opacity:0.2;fill:url(#SVGID_30_);}
	.st36{display:none;opacity:0.2;fill:url(#SVGID_31_);}
	.st37{fill:url(#SVGID_32_);}
	.st38{fill:#D7FFEC;}
	.st39{fill:url(#SVGID_33_);}
	.st40{fill:url(#SVGID_34_);}
	.st41{fill:url(#SVGID_35_);}
	.st42{fill:url(#SVGID_36_);}
	.st43{fill:url(#SVGID_37_);}
	.st44{fill:url(#SVGID_38_);}
	.st45{fill:url(#SVGID_39_);}
	.st46{fill:url(#SVGID_40_);}
	.st47{fill:url(#SVGID_41_);}
	.st48{fill:url(#SVGID_42_);}
	.st49{fill:url(#SVGID_43_);}
	.st50{fill:url(#SVGID_44_);}
	.st51{fill:url(#SVGID_45_);}
	.st52{fill:url(#SVGID_46_);}
	.st53{fill:url(#SVGID_47_);}
	.st54{fill:url(#SVGID_48_);}
	.st55{fill:url(#SVGID_49_);}
	.st56{display:none;fill:url(#SVGID_50_);}
</style>
<g>
	<g>
		<linearGradient id="SVGID_1_" gradientUnits="userSpaceOnUse" x1="36.4254" y1="74.26" x2="36.4254" y2="9.3975">
			<stop  offset="0" style="stop-color:#4E8AC6"/>
			<stop  offset="1" style="stop-color:#233DEB"/>
		</linearGradient>
		<path class="st0" d="M9.5,51l15.2-1.3c8,5.3,14.2,7.9,18.7,7.9c1.6,0,3.1-0.5,4.5-1.4c1.6-1,2.4-2.3,2.4-3.8c0-2.3-3-4.2-8.9-5.7
			c-8.7-2.2-14.6-6.8-17.6-13.7c-1-2.3-1.5-4.4-1.5-6.4c0-5.1,2.6-9,7.8-11.7c4.1-2.1,17.4-5.5,23.1-5.5l9.2,4.4l-4.6,13.7
			c-4.9-1.1-6.7-2.2-10-2.2c-1.4,0-4.7-1.3-6.9-0.2c-1.7,0.9-2.6,2-2.6,3.3c0,1.3,1.1,2.7,3.4,4.2c1.6,1,4.7,2.4,9.2,4.2
			c3.9,1.5,6.7,3,8.3,4.5c2.5,2.2,3.8,5.1,4,8.8c0.3,6.1-2.5,11.6-8.4,16.5c-2.5,2.1-9.5,7.7-24,7.7C24.4,74.3,18.8,61.4,9.5,51z"/>
		<linearGradient id="SVGID_2_" gradientUnits="userSpaceOnUse" x1="81.2234" y1="75.6043" x2="81.2234" y2="8.6146">
			<stop  offset="0" style="stop-color:#4E8AC6"/>
			<stop  offset="1" style="stop-color:#233DEB"/>
		</linearGradient>
		<path class="st1" d="M73.6,8.6c12.6,1.6,19.9,8.2,23.3,16c0.9,2.1,1.4,4.1,1.4,5.9c0,7.5-7.3,13.4-22,17.6l-0.8,22.8l-7.2,4.7
			l-4-61.4C68.5,13.3,70.1,8.2,73.6,8.6z M85.7,29.1c-0.1-1.9-2.9-3.4-8.3-4.6L77,35.3C82.9,33.1,85.8,31,85.7,29.1z"/>
		<linearGradient id="SVGID_3_" gradientUnits="userSpaceOnUse" x1="119.583" y1="73.7559" x2="119.583" y2="12.1194">
			<stop  offset="0" style="stop-color:#4E8AC6"/>
			<stop  offset="1" style="stop-color:#233DEB"/>
		</linearGradient>
		<path class="st2" d="M115,50.4l-4.4,18.9l-1.6,4.5l4.7-61.6H126l4.2,60.3l-1.3-4.3l-4.2-17.8H115z M122.5,41.2l-2.8-11.6L117,41.4
			L122.5,41.2z"/>
		<linearGradient id="SVGID_4_" gradientUnits="userSpaceOnUse" x1="169.8114" y1="72.2825" x2="169.8114" y2="8.9918">
			<stop  offset="0" style="stop-color:#4E8AC6"/>
			<stop  offset="1" style="stop-color:#233DEB"/>
		</linearGradient>
		<path class="st3" d="M173.1,37.7c-0.8-5.8-3.7-8.5-8.9-8.1s-8,3.9-8.5,10.4c-0.1,0.8-0.1,1.5-0.1,2c0,5.5,2,9.6,6,12.2
			c1.4,1,2.8,1.5,4.1,1.5c2.7,0,5-2.1,7.1-6.2l12.5,0.9l11.5,1.6c-4,12.8-20.2,17.5-27.5,17.3c-7.4-0.3-5,3.9-7.2,2.8
			c-9.9-3.7-14.2-10.2-16-15.2c-1.1-2.9-1.9-7.5-2.6-13.8c-0.2-1.8-0.3-3.4-0.3-4.8c0-7.3,2.2-12.9,5.5-17.7
			C152.5,14.8,160.9,9,168,9c1.5,0,0.1,4.3,1.5,4.5c8.7,1.2,14.1,8.8,16.2,22.9L173.1,37.7z"/>
		<linearGradient id="SVGID_5_" gradientUnits="userSpaceOnUse" x1="213.2288" y1="74.148" x2="213.2288" y2="6.8769">
			<stop  offset="0" style="stop-color:#4E8AC6"/>
			<stop  offset="1" style="stop-color:#233DEB"/>
		</linearGradient>
		<path class="st4" d="M239.1,25.4l-16.3,2.2l-22.2-0.4v8.1h18.9l-0.4,12.4l-18.5-0.4V55H221l16,2.2l-39,16.9l-10.6-4.5l1.3-58
			l10.8-4.7L239.1,25.4z"/>
	</g>
	<g>
		<linearGradient id="SVGID_6_" gradientUnits="userSpaceOnUse" x1="28.1548" y1="74.2618" x2="28.1548" y2="7.1048">
			<stop  offset="0" style="stop-color:#86EDEF"/>
			<stop  offset="1" style="stop-color:#5596FB"/>
		</linearGradient>
		<path class="st5" d="M54.2,51.5c-0.1-2.8-0.8-5.2-2.1-7.3c-0.7-1.1-1.5-2.1-2.5-3c-1.9-1.7-5.1-3.4-9.6-5.2
			c-3.2-1.2-5.7-2.3-7.7-3.3c-1.3-0.6-2.2-1.1-3-1.6c-0.5-0.3-0.9-0.6-1.3-0.9c-1.8-1.3-2.6-2.6-2.6-3.9c0-1.6,1-2.9,3-3.9
			c1.7-0.8,3.4-1.2,5-1.2c0.8,0,1.7,0.1,2.7,0.2c1.6,0.2,3.5,0.7,5.4,1.3c2,0.6,4.1,1.5,6.4,2.5l5.3-15.9c-0.9-0.2-1.7-0.3-2.6-0.5
			c-1.6-0.3-3.1-0.5-4.6-0.8c-4.7-0.7-9-1-12.8-1.1h-0.9c-6.4,0.1-11.9,1.3-16.5,3.6c-3.4,1.7-5.8,3.8-7.3,6.4
			c-0.2,0.4-0.4,0.8-0.6,1.2c-0.8,1.8-1.2,3.7-1.2,5.9c0,2.3,0.6,4.8,1.7,7.4c1.6,3.7,4,6.9,7.1,9.4c1.2,1,2.6,1.9,4,2.7
			c2.7,1.5,5.8,2.8,9.3,3.6c6.9,1.8,10.4,4,10.4,6.6c0,1.7-0.9,3.2-2.8,4.4c-1.6,1.1-3.4,1.6-5.3,1.6c-5.1,0-12.3-3-21.6-9.1L2,67.7
			c9.6,3.5,17.8,5.6,24.5,6.3h0c1.8,0.2,3.6,0.3,5.2,0.3c1.9,0,3.6-0.1,5.2-0.4c3.1-0.5,5.6-1.6,7.5-3.2c5.8-4.8,9-10.2,9.7-16
			c0,0,0,0,0,0C54.3,53.5,54.3,52.5,54.2,51.5z"/>
		<linearGradient id="SVGID_7_" gradientUnits="userSpaceOnUse" x1="74.2973" y1="75.6063" x2="74.2973" y2="8.3929">
			<stop  offset="0" style="stop-color:#86EDEF"/>
			<stop  offset="1" style="stop-color:#5596FB"/>
		</linearGradient>
		<path class="st6" d="M93.1,22c-0.4-0.9-0.8-1.7-1.3-2.5c-0.4-0.7-0.8-1.4-1.3-2c-1.7-2.4-3.9-4.2-6.5-5.7c-2.8-1.5-6-2.5-9.7-3
			c-1.7-0.2-3.6-0.3-5.5-0.3c-4.1,0-8.6,0.5-13.6,1.5l-0.6,30.8c0,0,0,0,0,0l-0.3,13.6l-0.4,20.8l4.3,0.1l0.9,0h0l9.2,0.3l0.4-13
			l0-1.1v0l0.4-12.3c3-0.9,5.8-1.8,8.3-2.8c0.6-0.3,1.2-0.5,1.8-0.8c10.2-4.4,15.4-10.1,15.4-16.8C94.7,26.7,94.2,24.4,93.1,22z
			 M70,34.4l0-0.4c0,0,0,0,0,0l0.4-12.1c2.7,0.6,4.8,1.3,6.4,2c2.1,1,3.2,2.1,3.3,3.3C80.3,29.4,76.9,31.8,70,34.4z"/>
		<linearGradient id="SVGID_8_" gradientUnits="userSpaceOnUse" x1="120.2815" y1="73.7541" x2="120.2815" y2="7.4903">
			<stop  offset="0" style="stop-color:#86EDEF"/>
			<stop  offset="1" style="stop-color:#5596FB"/>
		</linearGradient>
		<path class="st7" d="M138.7,45.3l-3.1-9.8l-6.9-21.9l-0.6-1.9l-1.3-4.3h-14.2l-7.9,27.9v0l-2.6,9.1l-7.6,27l14.4,2.2l5.1-21.9
			h11.3l0.2,0.8l1.7,7.5v0l2.9,12.4l15.8-4L138.7,45.3z M116.5,41.4l3.2-13.8l3.2,13.5L116.5,41.4z"/>
		<linearGradient id="SVGID_9_" gradientUnits="userSpaceOnUse" x1="171.5917" y1="73.7631" x2="171.5917" y2="8.722">
			<stop  offset="0" style="stop-color:#86EDEF"/>
			<stop  offset="1" style="stop-color:#5596FB"/>
		</linearGradient>
		<path class="st8" d="M180.9,50.9c-2.4,4.8-5.1,7.2-8.2,7.2c-1.5,0-3-0.6-4.7-1.7c-4.6-3.1-6.9-7.8-6.9-14.2c0-0.6,0-1.4,0.1-2.4
			c0.6-7.6,3.9-11.6,9.9-12.1c6-0.5,9.4,2.7,10.3,9.4l14.7-1.5c-2.4-15.8-8.4-24.6-17.9-26.4c-0.3,0-0.6-0.1-0.9-0.1
			c-0.9-0.1-1.7-0.2-2.7-0.3c-0.8,0-1.6-0.1-2.5-0.1c-1.1,0-2.2,0-3.2,0.2h0c-2.1,0.2-4,0.6-5.8,1.2c-4.1,1.4-7.5,3.7-10.2,7.1
			c-2.3,2.8-3.9,6-5,9.7c-0.2,0.5-0.3,1-0.4,1.5v0c-0.7,2.9-1,6-1,9.3c0,1.3,0.1,2.7,0.2,4.2v0c0,0.5,0.1,0.9,0.1,1.4
			c0.1,0.6,0.1,1.1,0.2,1.7c0.8,6.4,1.7,11.2,2.8,14.3c2.1,5.8,5.5,9.8,10.2,12c2.6,1.2,8.1,2,16.7,2.3c8.5,0.3,15.2-6.9,19.8-21.7
			L180.9,50.9z"/>
		<linearGradient id="SVGID_10_" gradientUnits="userSpaceOnUse" x1="218.5301" y1="74.7037" x2="218.5301" y2="6.8792">
			<stop  offset="0" style="stop-color:#86EDEF"/>
			<stop  offset="1" style="stop-color:#5596FB"/>
		</linearGradient>
		<path class="st9" d="M213.4,57.2v-9l15.5,0.3l5.9,0.1l0.4-12c0,0,0,0,0,0l0.1-2.4h-21.9V25l14.9,0.3h0l10.8,0.2l-0.1-18l-0.8,0
			l-20.2-0.3l-2.4,0l-16.3-0.2l-0.6,26.4l-0.1,3.6l-0.6,28.7v0l-0.2,8.5l12.3,0.2l26.3,0.4l0.4-17.5H213.4z"/>
	</g>
	<g>
		<path class="st10" d="M36.4,58.5c-1.6,1.1-3.4,1.6-5.3,1.6c-5.1,0-12.3-3-21.6-9.1L2,67.7c0,0,0,0,0.1,0l7.1-15.8
			c9.3,6.1,16.5,9.1,21.6,9.1c1.9,0,3.6-0.5,5.3-1.6c1.5-0.9,2.4-2.1,2.7-3.4C38.3,56.9,37.5,57.7,36.4,58.5z M32.7,7.1
			c-6.6,0-12.2,1.2-17,3.6c-4.4,2.2-7.2,5.2-8.4,9c1.3-3.4,4-6.1,8.1-8.1C20.2,9.2,25.9,8,32.4,8c5.8,0,12.7,0.8,20.5,2.3l-5,15h0
			l5.3-15.9C45.4,7.9,38.6,7.1,32.7,7.1z M54.1,50.1c-0.4-3.6-1.9-6.6-4.5-8.8c-1.9-1.7-5.1-3.4-9.6-5.2c-5.2-2-8.8-3.7-10.6-4.9
			c-2.7-1.7-4-3.3-4-4.8c0-0.2,0-0.5,0.1-0.7c-0.2,0.5-0.4,1-0.4,1.6c0,1.5,1.3,3.1,4,4.8c1.9,1.2,5.4,2.8,10.6,4.9
			c4.5,1.8,7.7,3.5,9.6,5.2c2.9,2.5,4.4,6,4.6,10.2c0.1,2.4-0.2,4.8-0.9,7.1c0.5-1.2,0.8-2.5,1-3.8c0.2-1.3,0.3-2.7,0.2-4.1
			C54.2,51,54.2,50.6,54.1,50.1z"/>
		<path class="st10" d="M94.7,28.8c0-2.1-0.5-4.4-1.6-6.8c-3.9-9.1-12-13.6-24.3-13.6c-4.1,0-8.6,0.5-13.6,1.5l0,0.8
			c4.9-1,9.3-1.5,13.3-1.5c12.3,0,20.4,4.5,24.3,13.6c1,2.4,1.6,4.7,1.6,6.8c0,1.3-0.2,2.6-0.6,3.8C94.4,32,94.7,30.4,94.7,28.8z
			 M70,34.4l0.4-11.6c-0.1,0-0.2,0-0.3-0.1l-0.5,12.5c6.4-2.4,9.8-4.7,10.1-6.7C78.8,30.3,75.5,32.3,70,34.4z M68.8,50.1L68,75.6
			l0.3,0L69.1,50C69,50,68.9,50.1,68.8,50.1z"/>
		<path class="st10" d="M122.4,41.2l-5.9,0.3l2.9-12.7l-0.1-0.2l-3.2,13.8l6.4-0.3L122.4,41.2z M126.8,7.5h-14.2l-0.2,0.9h14.2
			l18.9,60.2l0.5-0.1L126.8,7.5z"/>
		<path class="st10" d="M196.6,52l-15.7-1.1c-2.4,4.8-5.1,7.2-8.2,7.2c-1.5,0-3-0.6-4.7-1.7c-4.6-3.1-6.9-7.8-6.9-14.2
			c0-0.6,0-1.4,0.1-2.4c0.1-1.8,0.4-3.4,0.9-4.8c-0.6,1.6-1,3.5-1.2,5.7c-0.1,0.9-0.1,1.7-0.1,2.4c0,6.4,2.3,11.1,6.9,14.2
			c1.7,1.1,3.2,1.7,4.7,1.7c3.1,0,5.8-2.4,8.2-7.2l15.7,1.1c-0.2,0.6-0.4,1.2-0.6,1.8C196,53.8,196.3,52.9,196.6,52z M177.3,9.1
			c-1.6-0.2-3.3-0.3-5.1-0.3c-8.2,0-14.7,2.8-19.3,8.5c-2,2.4-3.5,5.2-4.5,8.2c1-2.7,2.4-5.2,4.2-7.4c4.6-5.7,11-8.5,19.3-8.5
			c1.7,0,3.5,0.1,5.1,0.3c9.9,1.4,16.1,9.9,18.7,25.7l0.4,0C193.7,19.3,187.4,10.4,177.3,9.1z"/>
		<path class="st10" d="M239.1,7.4l-39.7-0.5l0,0.9l39.4,0.5l0.1,17.2l0.3,0L239.1,7.4z M213.4,57.2v-8.1l-0.3,0v9h23.6l-0.4,16.6
			h0.3l0.4-17.5H213.4z M213.4,34.4v-8.5l-0.3,0v9.4H235l-0.4,13.5l0.3,0l0.5-14.3H213.4z"/>
	</g>
	<g>
		<path class="st10" d="M54.1,50.1L54,55.6c0.2-1.3,0.3-2.7,0.2-4.1C54.2,51,54.2,50.6,54.1,50.1z"/>
	</g>
	<g class="st11">
		<g class="st12">
			<linearGradient id="SVGID_11_" gradientUnits="userSpaceOnUse" x1="46.3604" y1="120.6097" x2="46.3604" y2="89.4536">
				<stop  offset="0" style="stop-color:#6D67D1"/>
				<stop  offset="1" style="stop-color:#B8B5DE"/>
			</linearGradient>
			<path class="st13" d="M44,106.5l-2,8.4l-4.6,5.7l-1-6.5l2.3-19.7l4.6-4.9h5.5l7.4,23.4l-3.8,5.6l-2.3-4l-1.9-7.9H44z M47.4,102.4
				l-1.7-4.7l-0.8,4.8L47.4,102.4z"/>
			<linearGradient id="SVGID_12_" gradientUnits="userSpaceOnUse" x1="63.177" y1="119.8083" x2="63.177" y2="87.5584">
				<stop  offset="0" style="stop-color:#6D67D1"/>
				<stop  offset="1" style="stop-color:#B8B5DE"/>
			</linearGradient>
			<path class="st14" d="M55.1,119.8l0.7-28l3.6-4.2c6.7,2,10.5,4.4,11.3,7.2c0.3,1,0.5,2,0.5,3.1c0,1.9-0.5,3.8-1.5,5.8
				C68.2,106.7,66.7,113.2,55.1,119.8z M63.7,95.7l-1.1,7.9c2.7-1.5,4-2.9,4.1-4.3C66.7,97.9,65.7,96.7,63.7,95.7z"/>
			<linearGradient id="SVGID_13_" gradientUnits="userSpaceOnUse" x1="80.207" y1="120.6097" x2="80.207" y2="89.9703">
				<stop  offset="0" style="stop-color:#6D67D1"/>
				<stop  offset="1" style="stop-color:#B8B5DE"/>
			</linearGradient>
			<path class="st15" d="M78.4,90l3.2,13.9l1.9-9.6l2.2-4.4l5.9,0.3l-7.6,24.6c0.1,0.4-2.3,5.7-2.3,5.7c-0.8,0-3.8-6.2-4.6-6
				l-8.5-18.3l3-4.4L78.4,90z"/>
			<linearGradient id="SVGID_14_" gradientUnits="userSpaceOnUse" x1="99.6134" y1="120.9953" x2="99.6134" y2="89.2166">
				<stop  offset="0" style="stop-color:#6D67D1"/>
				<stop  offset="1" style="stop-color:#B8B5DE"/>
			</linearGradient>
			<path class="st16" d="M108.2,89.4l0,6.9l-1,4.7l-8.9-4.9v3.6h8.4l-0.2,5.5l-1.1,5.2l-7.1-5.3v3.4h9.1l-0.2,6.7l-1.1,5.7
				l-13.8-5.9L91,93.5l1.9-4.3L108.2,89.4z"/>
			<linearGradient id="SVGID_15_" gradientUnits="userSpaceOnUse" x1="116.7235" y1="120.7908" x2="116.7235" y2="91.1553">
				<stop  offset="0" style="stop-color:#6D67D1"/>
				<stop  offset="1" style="stop-color:#B8B5DE"/>
			</linearGradient>
			<path class="st17" d="M115.2,92l4.6,11.2c-0.4-2.2-1-3.9-1-7.6c0-1,0.4-3.3,0.5-4.4l5.9,0.2c-0.2,2.8-0.3,5.7-0.3,8.7
				c0,4.8,0.2,15.5,0.8,20.7l-5.6-5.5l-5.9-12.3c0,0.6,0,1.2,0,1.7c0,3,0.2,6.4,0.7,10l-0.7,5.7l-5-5.7c-0.2-5.6-1.3-12.9-1.3-18.4
				l1-4.5L115.2,92z"/>
			<linearGradient id="SVGID_16_" gradientUnits="userSpaceOnUse" x1="137.4526" y1="121.199" x2="137.4526" y2="90.1209">
				<stop  offset="0" style="stop-color:#6D67D1"/>
				<stop  offset="1" style="stop-color:#B8B5DE"/>
			</linearGradient>
			<path class="st18" d="M125.9,96.4L126,92c7.9-0.8,15.2-1.4,21.9-1.8l1.1,4.4l-8.6,1.6l-4.9,25.1l-0.4-5.7l-0.3-19.1L125.9,96.4z"
				/>
			<linearGradient id="SVGID_17_" gradientUnits="userSpaceOnUse" x1="157.1471" y1="119.8232" x2="157.1471" y2="90.8105">
				<stop  offset="0" style="stop-color:#6D67D1"/>
				<stop  offset="1" style="stop-color:#B8B5DE"/>
			</linearGradient>
			<path class="st19" d="M148.4,103.9l-0.8-12.2l6-0.3l1.4,4.4l-1.6,9.5c1.4,2.1,2.5,3.1,3.4,3.1c1.6,0,2.4-3.6,2.4-10.9
				c0-1.9-0.1-4.1-0.2-6.7l5.8,0.2c0,0,2,3.4,2,4.4c0,9.2-2.6,13.9-4,16.8c-1.1,2.3-2.8,3.5-5,3.5c-0.8,0-2.7,4.4-3.6,4.1
				C150,118.5,148.7,110.2,148.4,103.9z"/>
			<linearGradient id="SVGID_18_" gradientUnits="userSpaceOnUse" x1="176.4171" y1="121.8117" x2="176.4171" y2="88.2044">
				<stop  offset="0" style="stop-color:#6D67D1"/>
				<stop  offset="1" style="stop-color:#B8B5DE"/>
			</linearGradient>
			<path class="st20" d="M167.1,88.2c5.6,0,9.6,1.6,12.3,4.7c1,1.2,4.1,4.6,4.3,8.1c0.2,2.5-4.6,1.1-8.1,4.2l9.2,10.9l3,5.7
				l-10.8-5.8l-5.8-6.9v6.8l-4.4,5.3l-2-5.7l0.4-27.2C165.9,88.2,166.5,88.2,167.1,88.2z M175.3,97.1c0-1.6-1.3-2.6-4-3v6.9
				C174,99.7,175.3,98.4,175.3,97.1z"/>
			<linearGradient id="SVGID_19_" gradientUnits="userSpaceOnUse" x1="192.6459" y1="120.7683" x2="192.6459" y2="89.2166">
				<stop  offset="0" style="stop-color:#6D67D1"/>
				<stop  offset="1" style="stop-color:#B8B5DE"/>
			</linearGradient>
			<path class="st21" d="M198.7,89.4l3.8,4.3l-3.7,2.6l-9.9-0.2v3.6h8.4l3.7,4.9l-12.1,0.5v3.4h9.1l3.7,5.3l-15.8,6.8l-2.9-5.7
				l0.6-25.9L198.7,89.4z"/>
		</g>
		<g class="st12">
			<radialGradient id="SVGID_20_" cx="119.9472" cy="109.8106" r="108.6801" gradientUnits="userSpaceOnUse">
				<stop  offset="0" style="stop-color:#F9F9FC"/>
				<stop  offset="1" style="stop-color:#BFBDEB"/>
			</radialGradient>
			<path class="st22" d="M39.5,111.7l-2.1,8.9l-5.8-0.9l7.3-25.9h5.8l7.8,24.7l-6.4,1.6l-2-8.3H39.5z M43.1,107.4l-1.3-5.5l-1.3,5.6
				L43.1,107.4z"/>
			<radialGradient id="SVGID_21_" cx="119.9471" cy="109.8105" r="108.6797" gradientUnits="userSpaceOnUse">
				<stop  offset="0" style="stop-color:#F9F9FC"/>
				<stop  offset="1" style="stop-color:#BFBDEB"/>
			</radialGradient>
			<path class="st23" d="M51.9,122.1l3.9-30.3c7.1,2.1,11,4.6,12,7.6c0.3,1.1,0.5,2.1,0.5,3.3c0,2-0.5,4-1.6,6.1
				C65,112,60.1,116.4,51.9,122.1z M60.3,100.3l-1.1,8.3c2.8-1.6,4.2-3.1,4.3-4.5C63.5,102.7,62.4,101.4,60.3,100.3z"/>
			<radialGradient id="SVGID_22_" cx="119.9472" cy="109.8105" r="108.6796" gradientUnits="userSpaceOnUse">
				<stop  offset="0" style="stop-color:#F9F9FC"/>
				<stop  offset="1" style="stop-color:#BFBDEB"/>
			</radialGradient>
			<path class="st24" d="M75.8,94.3l3.4,14.7l4.4-14.7l6.2,0.4l-8,25.9c-1.5-0.4-3-0.6-4.6-0.6c-0.9,0-1.8,0.1-2.7,0.2l-5.8-24
				L75.8,94.3z"/>
			<radialGradient id="SVGID_23_" cx="119.9473" cy="109.8105" r="108.6799" gradientUnits="userSpaceOnUse">
				<stop  offset="0" style="stop-color:#F9F9FC"/>
				<stop  offset="1" style="stop-color:#BFBDEB"/>
			</radialGradient>
			<path class="st25" d="M107.1,93.7l0,7.3l-10.4-0.2v3.8h8.9l-0.2,5.8l-8.7-0.2v3.6h9.5l-0.2,7.1l-15.6-0.2L91,93.5L107.1,93.7z"/>
			<radialGradient id="SVGID_24_" cx="119.9474" cy="109.8105" r="108.6803" gradientUnits="userSpaceOnUse">
				<stop  offset="0" style="stop-color:#F9F9FC"/>
				<stop  offset="1" style="stop-color:#BFBDEB"/>
			</radialGradient>
			<path class="st26" d="M114.6,96.5l4.9,11.8c-0.4-2.3-0.6-5.4-0.6-9.3c0-1.1,0-2.2,0-3.4l6.2,0.2c-0.2,3-0.4,6-0.4,9.2
				c0,5,0.3,10.3,0.9,15.9l-6,0.2l-6.2-12.9c0,0.6,0,1.2,0,1.8c0,3.2,0.3,6.7,0.8,10.5h-6c-0.3-5.9-0.4-11.8-0.4-17.6
				c0-2.2,0-4.4,0-6.5L114.6,96.5z"/>
			<radialGradient id="SVGID_25_" cx="119.9473" cy="109.8105" r="108.68" gradientUnits="userSpaceOnUse">
				<stop  offset="0" style="stop-color:#F9F9FC"/>
				<stop  offset="1" style="stop-color:#BFBDEB"/>
			</radialGradient>
			<path class="st27" d="M126.3,102.5l-0.4-6.1c8.3-0.8,16-1.5,23-1.9l-0.2,5.9l-7.8,0.3l0.4,21.1l-6-0.7l-0.4-20.1L126.3,102.5z"/>
			<radialGradient id="SVGID_26_" cx="119.9473" cy="109.8105" r="108.6802" gradientUnits="userSpaceOnUse">
				<stop  offset="0" style="stop-color:#F9F9FC"/>
				<stop  offset="1" style="stop-color:#BFBDEB"/>
			</radialGradient>
			<path class="st28" d="M149.4,109l-0.8-12.9l6.4-0.4l-0.3,14.7c1.5,2.2,2.6,3.3,3.6,3.3c1.7,0,2.5-3.8,2.5-11.5c0-2-0.1-4.4-0.2-7
				l6.1,0.2c0.2,11.6-0.6,19-2.1,22.4c-1.1,2.5-2.9,3.7-5.3,3.7c-0.9,0-1.8-0.2-2.8-0.5C152.2,119.7,149.8,115.7,149.4,109z"/>
			<radialGradient id="SVGID_27_" cx="119.9474" cy="109.8105" r="108.68" gradientUnits="userSpaceOnUse">
				<stop  offset="0" style="stop-color:#F9F9FC"/>
				<stop  offset="1" style="stop-color:#BFBDEB"/>
			</radialGradient>
			<path class="st29" d="M169.2,92.5c5.9,0,10.2,1.6,12.9,4.9c1.1,1.3,1.6,2.6,1.6,4.1c0,2.7-1.9,5.6-5.6,8.8l9.7,11.5l-8.2-0.1
				l-6.1-7.3v7.1l-6.7-0.4l0.4-28.7C167.9,92.5,168.6,92.5,169.2,92.5z M177.8,101.8c0-1.7-1.4-2.8-4.2-3.2v7.3
				C176.4,104.5,177.8,103.2,177.8,101.8z"/>
			<radialGradient id="SVGID_28_" cx="119.9471" cy="109.8105" r="108.6807" gradientUnits="userSpaceOnUse">
				<stop  offset="0" style="stop-color:#F9F9FC"/>
				<stop  offset="1" style="stop-color:#BFBDEB"/>
			</radialGradient>
			<path class="st30" d="M202.4,93.7l0,7.3l-10.4-0.2v3.8h8.9l-0.2,5.8l-8.7-0.2v3.6h9.5l-0.2,7.1l-15.6-0.2l0.6-27.2L202.4,93.7z"
				/>
		</g>
		<g class="st12">
			<path class="st31" d="M52.4,118.8l-0.1-0.2l0,0.4l0.1,0l0.1,0L52.4,118.8z"/>
			<path class="st31" d="M52.4,118.8l0,0.2l0.1,0L52.4,118.8z"/>
			<path class="st31" d="M118.8,100.4c0,3.1,0.2,5.6,0.5,7.6l0.1,0.3C119.1,106.3,118.9,103.6,118.8,100.4z M125,96.3
				c-0.2,2.8-0.3,5.7-0.3,8.6v0.3C124.7,102.2,124.8,99.2,125,96.3L125,96.3z"/>
			<path class="st31" d="M148.9,95l0,1.1l-0.3,0l0,0.5h0l0.2,2.9l0,0.2l0-0.4l0.1-2.7l0-0.5L148.9,95C149,95,149,95,148.9,95z"/>
			<path class="st31" d="M160.6,95.7L160.6,95.7c0.1,2.4,0.1,4.6,0.2,6.5C160.8,100.3,160.7,98.2,160.6,95.7z M155,96.3l-0.3,14.2
				c0,0,0,0,0,0L155,96.3L155,96.3z M148.9,96.7l-0.2,0h0l0.2,2.9l0,0.2l0-0.4L148.9,96.7L148.9,96.7z"/>
			<path class="st31" d="M187,121.3l-0.4-0.5l-0.8-0.9l0,0l0,0l0,0.9l0-0.9L187,121.3z"/>
			<path class="st31" d="M187,120.8l-1.2-1.4l0,0.5l0,0l0,0l1.2,1.4l0.5,0L187,120.8z"/>
		</g>
		<g class="st12">
			<path class="st31" d="M52.4,118.3l-7.7-24.5h-5.8l-7.3,25.9l0.1,0l7.2-25.4h5.8l7.6,24.2l0.1,0l0.1,0h0v0L52.4,118.3z
				 M42.9,107.4l-2.3,0.1l-0.1,0.5l2.6-0.1L42.9,107.4z"/>
			<path class="st31" d="M67.8,99.4c-0.9-3-4.9-5.6-12-7.6l-3.4,26.5l0,0.2l0,0.2l0,0.4l-0.4,3.1c0,0,0.1,0,0.1-0.1l0.4-3l0.1,0
				l-0.1-0.2l0-0.4h0v0l3.4-26.1c7.1,2.1,11,4.6,12,7.6c0.3,0.9,0.4,1.9,0.5,2.9c0-0.1,0-0.1,0-0.2C68.2,101.6,68.1,100.5,67.8,99.4
				z M63.4,104.3c-0.1,1.4-1.5,2.8-4.2,4.3l-0.1,0.6c2.8-1.6,4.2-3.1,4.3-4.5C63.4,104.5,63.4,104.4,63.4,104.3z"/>
			<path class="st31" d="M83.6,94.3L79.2,109l-3.4-14.7l-7.1,1.9l0.1,0.5l7-1.9l3.4,14.7l4.4-14.7l6,0.4l0.2-0.5L83.6,94.3z"/>
			<path class="st31" d="M96.7,104.7v0.5h8.9l0-0.5H96.7z M96.7,113.9v0.5h9.5l0-0.5H96.7z M91,93.5l-0.6,27.2h0L91,94.1l16.1,0.2
				v-0.5L91,93.5z"/>
			<path class="st31" d="M119.3,108l-4.7-11.5l-6.7-0.2c0,0.6,0,1.3,0,1.9l0-1.4l6.7,0.2l4.9,11.8
				C119.4,108.5,119.3,108.3,119.3,108z M118.9,95.6c0,0.9,0,1.7,0,2.6c0-0.7,0-1.3,0-2l6.1,0.2c0-0.2,0-0.4,0-0.5L118.9,95.6z
				 M124.7,105.5c0,4.9,0.3,10,0.9,15.3h0.1C125,115.5,124.7,110.4,124.7,105.5z"/>
			<path class="st31" d="M125.9,96.4l0,0.5c8.3-0.8,16-1.5,23-1.9l0-0.5C141.9,95,134.3,95.6,125.9,96.4z M148.6,96.1l0,0.5h0
				l0.2,2.9l0-0.4l0.1-2.5l0-0.5L148.6,96.1z M141.1,101.3L141.1,101.3l0.3,20.6h0L141.1,101.3z"/>
			<path class="st31" d="M166.7,95.4l-6.1-0.2c0,0.2,0,0.4,0,0.5l6.1,0.2c0,0.2,0,0.3,0,0.5C166.7,96.1,166.7,95.8,166.7,95.4z
				 M148.9,96.1L148.9,96.1l-0.3,0l0,0.5l0.2,2.5l0,0.2l0.1-2.7l6.1-0.4l0-0.5L148.9,96.1z"/>
			<path class="st31" d="M187.5,121.3l-0.4-0.5l-1.2-1.4l0,0l-7.4-8.7c-0.1,0.1-0.2,0.2-0.3,0.2l7.6,9l0,0l1.2,1.4l0.4,0.5l0.4,0
				L187.5,121.3z M182.1,97.4c-2.8-3.3-7.1-4.9-12.9-4.9c-0.6,0-1.2,0-1.9,0l-0.4,28.7h0l0.4-28.1c0.6,0,1.3,0,1.9,0
				c5.9,0,10.2,1.6,12.9,4.9c1,1.2,1.5,2.4,1.6,3.8c0-0.1,0-0.2,0-0.3C183.7,100,183.2,98.7,182.1,97.4z M177.8,102
				c-0.2,1.3-1.6,2.6-4.2,3.8v0.5c2.8-1.3,4.2-2.7,4.2-4.1C177.8,102.2,177.8,102.1,177.8,102z"/>
			<path class="st31" d="M202.4,94.3v-0.5l-16.1-0.2l-0.6,25.8l0,0.5l0,0l0,0l0.8,0.9h0.5l-1.2-1.4l0.5-25.3L202.4,94.3z M192,113.9
				v0.5h9.5l0-0.5H192z M192,104.7v0.5h8.9l0-0.5H192z"/>
		</g>
	</g>
	<g>
		<path class="st32" d="M29.4,31.2c0.7,0.5,1.7,1,3,1.6c-4.3,4.1-8.7,7.8-12.8,11c-1.4-0.8-2.8-1.7-4-2.7c4.6-3.4,8.8-7.1,12.5-10.8
			C28.4,30.6,28.9,30.9,29.4,31.2z"/>
		<path class="st32" d="M50.6,8.9c-2.5,4.9-5.6,9.6-9.1,13.9c-2-0.6-3.8-1.1-5.4-1.3c4.5-5.3,7.8-10.1,9.9-13.3
			C47.5,8.4,49.1,8.6,50.6,8.9z"/>
		<path class="st32" d="M33.2,7.1c-1.6,2.6-4.6,6-10.7,9.1c-5.8,3-10.9,3-14.7,2.2c0.2-0.4,0.4-0.8,0.6-1.2c3,0.1,7-0.4,11.9-2.2
			c6.3-2.3,9.9-5.3,11.9-7.8H33.2z"/>
		<path class="st32" d="M54.2,51.5c0,1,0,2-0.1,3.1c0,0,0,0,0,0C47.7,62.3,41.7,68.9,37,73.8c-1.6,0.3-3.3,0.4-5.2,0.4
			c-1.6,0-3.3-0.1-5.2-0.3c9.4-8.5,18.1-19.2,25.6-29.7C53.4,46.3,54.1,48.7,54.2,51.5z"/>
		<path class="st32" d="M84,11.8c-2.2,4.1-4.7,8.1-7.2,12.1c-1.6-0.8-3.7-1.4-6.4-2l-0.4,12.1c0,0,0,0,0,0
			c-5.2,7.3-10.6,14.2-15.7,20.4l0.3-13.6c0,0,0,0,0,0c9.1-13.1,16.1-25.4,19.7-32C78,9.2,81.3,10.2,84,11.8z"/>
		<path class="st32" d="M68.7,61.6l0,1.1c-4,5.8-7.4,10.1-9.6,12.7h0l-0.9,0C61.9,71.4,65.4,66.6,68.7,61.6z"/>
		<path class="st32" d="M91.8,19.4c-3.9,9.8-8.2,18.6-12.5,26.2c-0.6,0.3-1.2,0.5-1.8,0.8c6-11.5,10.6-22.7,13.1-29
			C91,18.1,91.4,18.8,91.8,19.4z"/>
		<path class="st32" d="M128.8,13.6c-5.1,7-15.5,20.4-26.6,30.9l2.6-9.1v0c5.4-4.2,15.9-13.1,23.4-23.6L128.8,13.6z"/>
		<path class="st32" d="M138.7,45.3c-2.9,5.1-8.3,11.3-11.4,14.8l-1.7-7.5c4.6-6.7,8.2-13.3,10.1-17.1L138.7,45.3z"/>
		<path class="st32" d="M178.2,9.2c-4.8,7.9-15.8,24-31.1,35.9c-0.1-0.6-0.1-1.1-0.2-1.7c0-0.5-0.1-0.9-0.1-1.4v0
			c5.5-4.3,17-14.6,27.9-33.2c0.9,0.1,1.8,0.1,2.7,0.3C177.6,9.1,177.9,9.2,178.2,9.2z"/>
		<path class="st32" d="M169,8.9c-1.2,1.8-2.6,3.7-4.4,5.9c-5.7,6.9-12.6,11.4-17,13.7c0.1-0.5,0.2-1,0.4-1.5
			c6.1-5,11.3-11.3,15.2-16.9C165,9.5,166.9,9.1,169,8.9z"/>
		<path class="st32" d="M235.3,34.4l-0.1,2.4c0,0,0,0,0,0c-1.9,3.9-4,7.9-6.3,11.8l-15.5-0.3v9h10.3c-4.2,6.4-8.7,12.4-13.5,17.1
			l-12.3-0.2l0.2-8.5v0c6.2-7.2,15.4-18.4,24.2-31.2H235.3z"/>
		<path class="st32" d="M239.1,25.4l-10.8-0.2c3.7-5.9,7.1-11.9,10-17.9l0.8,0L239.1,25.4z"/>
		<path class="st32" d="M218.1,7.1c-3.8,6.5-12.4,21-19.4,29.8l0.1-3.6c3.6-4.6,11.6-15.2,16.9-26.2L218.1,7.1z"/>
	</g>
	<polygon class="st33" points="69.1,49.2 68.8,60.1 75.9,55.6 76.2,48.1 	"/>
	<polygon class="st33" points="196.1,35.6 187.9,44.5 188,36.4 	"/>
	<linearGradient id="SVGID_29_" gradientUnits="userSpaceOnUse" x1="249.354" y1="64.2019" x2="262.601" y2="64.2019">
		<stop  offset="5.952380e-03" style="stop-color:#0D001E"/>
		<stop  offset="1" style="stop-color:#436DA9"/>
	</linearGradient>
	<path class="st34" d="M249.4,62.8c0.9,0.1,7.2,1,13.2,2.8C255.8,64,250.2,63,249.4,62.8z"/>
	<linearGradient id="SVGID_30_" gradientUnits="userSpaceOnUse" x1="-69.8929" y1="74.2571" x2="291.9661" y2="74.2571">
		<stop  offset="5.952380e-03" style="stop-color:#0D001E"/>
		<stop  offset="1" style="stop-color:#436DA9"/>
	</linearGradient>
	<path class="st35" d="M262.6,55.1c6.3,1.8,12.3,4.5,11.8,8.2c-0.9,7.5-28.6,9.3-66-6.1c-37.3-15.4-61.9,19.1-96.1,17.1
		c-34.1-2-37.6-23.1-76.3-20.4c-38.6,2.7-48.6,0.9-48.6-1.5c0-2.4,10.3-6.9,10.9-7.2c-1.6,0.2-61.3,8.2-67.9,25.1
		c-6.6,17.2,76.6-1,112.9,0c36.3,1,40.7,27.2,102.6,32.4c61.9,5.2,27.2-20.2,34.4-25.6s62.2,6.8,100.2-2.8
		C307.5,67.4,280.6,59.3,262.6,55.1z M-1.3,69.4c-1.9,0.4-3.8,0.7-5.6,1c-2.2,0.4-4.4,0.8-6.7,0.9c-3.9,0.2-7.8,0.5-11.7,0.5
		c-4.1,0-8.1,0.4-12.2,0.6c-3.3,0.2-7,1.1-10.3,0.3c-0.8-0.2-1.4-0.6-2-1.1c-0.8-0.8-0.3-1.6,0.2-2.4c1.5-2.4,4.2-3.9,6.7-5
		c3.7-1.6,7.5-3,11.4-4c0.9,0.7,1.7,0.3,2.6,0.1c1.6-0.3,3.4,0,5.1-0.1c3.1-0.2,6.1-0.5,9.2-0.3c1.3,0.1,2.7,0.1,4,0.3
		c1.9,0.2,3.8,0.7,5.7,1.2c3,0.8,6.1,1.4,9,2.4c0.8,0.3,3.8,1.1,3.6,2.3C5.2,68,1.7,68.7-1.3,69.4z M21.1,68.8
		c-1.4,0.7-3.2,1.4-4.8,1.5c-1.5,0.1-3.1,0.5-4.6,0.5c-0.7,0-1.5,0.2-1.9-0.5c-0.5-0.8,0-1.4,0.3-1.7c0.5-0.9,0.5-0.9,1.4-1.4
		c1.2-0.8,2.3-1.1,3.7-1.4c1.9-0.4,3.9-1.1,5.9-0.7c0.7,0.2,1.9,0.8,1.8,1.7C22.8,67.6,21.7,68.5,21.1,68.8z M195.9,72.8
		c-1.1,0.5-2.3,0.9-3.4,1.1c-0.9,0.2-1.8,0.2-2.6-0.2c-0.4-0.2-0.5-0.7-0.6-1.2c0-0.2-0.1-0.4,0-0.6c0.1-0.2,0.3-0.3,0.9-0.3
		c0.5-0.6,1.1-1,1.9-1.2c1.2-0.3,2.4-0.5,3.6,0c0.5,0.2,1.3,0.5,1.5,1.1C197.2,72,196.4,72.6,195.9,72.8z M190.6,68
		c-1.1,0.4-2.3,0.7-3.4,0.9c-1.1,0.2-2.2,0.3-3.3,0.4c-1.3,0.1-2.5,0.3-3.8,0.4c-1.2,0.1-2.4,0.2-3.5,0.3c-1.8,0-3.6,0.3-5.4,0.5
		c-1.2,0.2-2.4,0.4-3.6,0.6c-0.8,0.1-1.6,0.1-2.5,0.3c-1.3,0.2-3,0-4.1-0.6c-1-0.6-1.8-1.3-2.6-2.1c-0.4-0.3-0.7-0.7-0.9-1.2
		c-0.1-0.3-0.1-0.4,0-0.8c-0.4,0.1-0.4-0.2-0.2-0.6c0.2-0.3,0.5-0.6,0.8-0.8c0.2-0.2,0.4-0.2,0.5-0.3c0.2-0.1,0.3-0.2,0.5-0.3
		c0.5-0.3,0.9-0.7,1.5-1c0.6-0.3,1.1-0.6,1.7-0.9c0.8-0.4,1.6-0.7,2.4-1.1c1.8-0.8,3.6-1.6,5.4-2.4c1.3-0.6,2.7-1,4.1-1.5
		c1.4-0.5,2.8-0.9,4.2-1.3c1.3-0.3,2.6-0.5,3.9-0.7c1.3-0.2,2.6-0.4,4-0.4c1.7,0,3.3,0.1,5,0.5c1.2,0.2,2.4,0.5,3.5,0.8
		c2,0.5,4.1,1.3,5.7,2.5c0.6,0.5,1.2,1.1,1.4,1.8c0.2,0.5,0,1-0.2,1.4c-0.8,1.4-2.6,2.4-4,3C195.3,66.3,193,67.3,190.6,68z
		 M241.1,73.4c-0.6,1.5-3,2-4.3,2.4c-2.6,0.7-5.3,0.6-8,0.8c-3,0.2-5.9,0.2-8.9,0.2c-2.9,0-5.7,0.1-8.6-0.7
		c-1.9-0.6-3.9-0.8-5.9-1.3c-0.8-0.2-1.7-0.5-2.5-0.8c-0.5-0.2-1.2-0.3-1.7-0.7c-1.2-1,0.5-1.6,1.4-2c1.6-0.7,3.3-1.3,5-1.3
		c0.6,0,1.2-0.2,1.8-0.2c0.6,0,1.1,0,0.1-0.2c2.5,0,4.9-0.3,7.4-0.2c3.9,0.2,7.7,0.6,11.5,1c1.8,0.2,3.6,0.5,5.4,0.7
		c1.5,0.2,3,0.3,4.4,0.6C239.3,71.8,241.7,72.1,241.1,73.4z M287.2,68.2c-0.3,1.9-1.6,3.1-3.2,4c-1.2,0.6-2.2,0.8-3.4,0.9
		c-1.4,0.2-2.7,0.5-4,0.7c-1.3,0.2-2.8,0.1-4.1,0c-0.8,0-1.8-0.1-2.5-0.6c-1.8-1.3,0-3.2,1.2-4.1c1.7-1.3,3.6-2,5.4-3
		c1.2-0.7,2.2-1.5,3.3-2.3c-0.2,0.4,0.4,0.1,1.1,0c0.5,0,0.8-0.1,1.3-0.2c1.1-0.3,2.8,0,3.6,0.7C287,65.4,287.4,66.8,287.2,68.2z"/>
	<linearGradient id="SVGID_31_" gradientUnits="userSpaceOnUse" x1="-97.0919" y1="64.5239" x2="262.7865" y2="64.5239">
		<stop  offset="0" style="stop-color:#436DA9"/>
		<stop  offset="0.994" style="stop-color:#0D001E"/>
	</linearGradient>
	<path class="st36" d="M262.8,68.8c-1.2-10.3-20.9-10.7-20.9-10.7s14.1,0.9,8.2,12.2c-5.9,11.2-61.8,21.9-80.4,6.5
		c-18.6-15.4-30.2-33.3-63.4-28.3c-33.2,5-62.4,26.6-82.7,28.3c-20.3,1.7,5.3-19.5,5.3-19.5s-18,0.9-44.7-15.4
		C-42.6,25.6-124.1,72.5-88,84.1c47,15.1,101.7-0.3,156.9-5.4c55.3-5.1,91.6,10.4,127.9,8.9S264,79.1,262.8,68.8z M-85.9,72.3
		c-0.8,0.3-1.7,0.1-2.1-0.8c-0.6-1.4,0.6-3.3,1.2-4.5c0.5-1,1.2-1.6,1.9-2.5c0.7-0.9,1.7-0.9,2.8-1.3c-2,0.1,0.1-0.7,1-0.7
		c1,0,2.2,0,2.8,0.9c0.5,0.7,0.2,1.8,0.1,2.6c-0.4,1.6-1.8,2.8-3.1,3.8C-82.7,71-84.3,71.6-85.9,72.3z M-27.4,83
		c-2,2.6-5.2,3.8-8.2,4.7c-3.8,1.2-8,1.6-12,1.4c-3.9-0.2-7.6-0.8-11.4-1.7c-3.1-0.7-6.6-1.9-9.4-3.5c-2.5-1.4-5.2-2.5-7.5-4.2
		c-1.6-1.1-3.2-2.3-4.7-3.6c1.4,0.8,1.4-0.1,1.4-1c0-0.8,0.3-1.4,0.5-2.1c0.3-0.9,0.7-1.8,1.1-2.6c0.5-1,1.3-1.5,2.3-2.1
		c2.6-1.5,5.5-2.2,8.4-2.9c3.8-1,7.9-1.5,11.8-1.6c4.1-0.2,8.2,0.4,12.2,0.9c3.7,0.5,7.1,1.6,10.3,3.6c2.8,1.8,5.4,3.8,6.5,7.2
		C-25.4,78-25.7,80.8-27.4,83z M-4,58.8c-0.9,1.9-3.1,3.1-4.9,4c-2.6,1.4-5.4,1.9-8.2,2.1c-3.5,0.3-6.7-0.2-10-1.3
		c-1.5-0.5-3.1-1-4.5-1.7c-1.2-0.6-2.2-1.4-3.2-2.2c-1.4-1.2-2.6-2.7-3.5-4.3c-0.5-0.9-1-2.1-0.8-3.2c0.2-0.8,0.4-1.6,0.9-2.1
		c0.5-0.5,1-0.9,1.9-2.1c1.2-1,2.2-1.9,3.6-2.6c2-0.9,3.9-1.7,6.1-1.7c4,0,7.6,1.7,11.1,3.3c3.3,1.4,6.3,3.4,8.8,5.9
		c1,0.9,1.6,1.9,2.4,3C-3.6,56.8-3.5,57.9-4,58.8z"/>
	<g class="st11">
		<g class="st12">
			
				<radialGradient id="SVGID_32_" cx="519.3342" cy="-516.9135" r="1.6709" gradientTransform="matrix(-5.960000e-02 -0.9982 0.9982 -5.960000e-02 546.4975 530.5743)" gradientUnits="userSpaceOnUse">
				<stop  offset="0" style="stop-color:#64B05F"/>
				<stop  offset="0.1176" style="stop-color:#52914E"/>
				<stop  offset="0.3349" style="stop-color:#355E33"/>
				<stop  offset="0.5391" style="stop-color:#1E351D"/>
				<stop  offset="0.7242" style="stop-color:#0E180D"/>
				<stop  offset="0.8839" style="stop-color:#040603"/>
				<stop  offset="1" style="stop-color:#000000"/>
			</radialGradient>
			<circle class="st37" cx="-0.4" cy="43" r="1.7"/>
			
				<ellipse transform="matrix(0.9982 -5.965446e-02 5.965446e-02 0.9982 -2.5642 5.813762e-02)" class="st38" cx="-0.3" cy="43" rx="0.5" ry="0.5"/>
		</g>
		<g class="st12">
			
				<radialGradient id="SVGID_33_" cx="526.3591" cy="-514.2201" r="1.6709" gradientTransform="matrix(-5.960000e-02 -0.9982 0.9982 -5.960000e-02 546.4975 530.5743)" gradientUnits="userSpaceOnUse">
				<stop  offset="0" style="stop-color:#64B05F"/>
				<stop  offset="0.1176" style="stop-color:#52914E"/>
				<stop  offset="0.3349" style="stop-color:#355E33"/>
				<stop  offset="0.5391" style="stop-color:#1E351D"/>
				<stop  offset="0.7242" style="stop-color:#0E180D"/>
				<stop  offset="0.8839" style="stop-color:#040603"/>
				<stop  offset="1" style="stop-color:#000000"/>
			</radialGradient>
			<circle class="st39" cx="1.8" cy="35.8" r="1.7"/>
			
				<ellipse transform="matrix(0.9982 -5.965852e-02 5.965852e-02 0.9982 -2.1324 0.1808)" class="st38" cx="2" cy="35.8" rx="0.5" ry="0.5"/>
		</g>
		<g class="st12">
			
				<radialGradient id="SVGID_34_" cx="505.8954" cy="-516.7833" r="1.6709" gradientTransform="matrix(-5.960000e-02 -0.9982 0.9982 -5.960000e-02 546.4975 530.5743)" gradientUnits="userSpaceOnUse">
				<stop  offset="0" style="stop-color:#64B05F"/>
				<stop  offset="0.1176" style="stop-color:#52914E"/>
				<stop  offset="0.3349" style="stop-color:#355E33"/>
				<stop  offset="0.5391" style="stop-color:#1E351D"/>
				<stop  offset="0.7242" style="stop-color:#0E180D"/>
				<stop  offset="0.8839" style="stop-color:#040603"/>
				<stop  offset="1" style="stop-color:#000000"/>
			</radialGradient>
			<circle class="st40" cx="0.5" cy="56.4" r="1.7"/>
			
				<ellipse transform="matrix(0.9982 -5.955080e-02 5.955080e-02 0.9982 -3.3565 0.1371)" class="st38" cx="0.6" cy="56.4" rx="0.5" ry="0.5"/>
		</g>
		<g class="st12">
			
				<radialGradient id="SVGID_35_" cx="527.567" cy="-523.1884" r="4.6757" gradientTransform="matrix(-5.960000e-02 -0.9982 0.9982 -5.960000e-02 546.4975 530.5743)" gradientUnits="userSpaceOnUse">
				<stop  offset="0" style="stop-color:#64B05F"/>
				<stop  offset="0.1176" style="stop-color:#52914E"/>
				<stop  offset="0.3349" style="stop-color:#355E33"/>
				<stop  offset="0.5391" style="stop-color:#1E351D"/>
				<stop  offset="0.7242" style="stop-color:#0E180D"/>
				<stop  offset="0.8839" style="stop-color:#040603"/>
				<stop  offset="1" style="stop-color:#000000"/>
			</radialGradient>
			<circle class="st41" cx="-7.2" cy="35.1" r="4.7"/>
			
				<ellipse transform="matrix(0.9982 -5.963214e-02 5.963214e-02 0.9982 -2.1063 -0.3448)" class="st38" cx="-6.8" cy="35.1" rx="1.3" ry="1.3"/>
		</g>
		<g class="st12">
			
				<radialGradient id="SVGID_36_" cx="475.0573" cy="-242.3902" r="4.6757" gradientTransform="matrix(-5.960000e-02 -0.9982 0.9982 -5.960000e-02 546.4975 530.5743)" gradientUnits="userSpaceOnUse">
				<stop  offset="0" style="stop-color:#64B05F"/>
				<stop  offset="0.1176" style="stop-color:#52914E"/>
				<stop  offset="0.3349" style="stop-color:#355E33"/>
				<stop  offset="0.5391" style="stop-color:#1E351D"/>
				<stop  offset="0.7242" style="stop-color:#0E180D"/>
				<stop  offset="0.8839" style="stop-color:#040603"/>
				<stop  offset="1" style="stop-color:#000000"/>
			</radialGradient>
			<circle class="st42" cx="276.2" cy="70.8" r="4.7"/>
			
				<ellipse transform="matrix(0.9982 -5.963214e-02 5.963214e-02 0.9982 -3.7296 16.6198)" class="st38" cx="276.6" cy="70.8" rx="1.3" ry="1.3"/>
		</g>
		<g class="st12">
			
				<radialGradient id="SVGID_37_" cx="485.0396" cy="-501.5826" r="4.6757" gradientTransform="matrix(-5.960000e-02 -0.9982 0.9982 -5.960000e-02 546.4975 530.5743)" gradientUnits="userSpaceOnUse">
				<stop  offset="0" style="stop-color:#64B05F"/>
				<stop  offset="0.1176" style="stop-color:#52914E"/>
				<stop  offset="0.3349" style="stop-color:#355E33"/>
				<stop  offset="0.5391" style="stop-color:#1E351D"/>
				<stop  offset="0.7242" style="stop-color:#0E180D"/>
				<stop  offset="0.8839" style="stop-color:#040603"/>
				<stop  offset="1" style="stop-color:#000000"/>
			</radialGradient>
			<circle class="st43" cx="16.9" cy="76.3" r="4.7"/>
			
				<ellipse transform="matrix(0.9982 -5.962984e-02 5.962984e-02 0.9982 -4.5179 1.1656)" class="st38" cx="17.3" cy="76.3" rx="1.3" ry="1.3"/>
		</g>
		<g class="st12">
			
				<radialGradient id="SVGID_38_" cx="480.025" cy="-269.0183" r="4.6757" gradientTransform="matrix(-5.960000e-02 -0.9982 0.9982 -5.960000e-02 546.4975 530.5743)" gradientUnits="userSpaceOnUse">
				<stop  offset="0" style="stop-color:#64B05F"/>
				<stop  offset="0.1176" style="stop-color:#52914E"/>
				<stop  offset="0.3349" style="stop-color:#355E33"/>
				<stop  offset="0.5391" style="stop-color:#1E351D"/>
				<stop  offset="0.7242" style="stop-color:#0E180D"/>
				<stop  offset="0.8839" style="stop-color:#040603"/>
				<stop  offset="1" style="stop-color:#000000"/>
			</radialGradient>
			<circle class="st44" cx="249.4" cy="67.4" r="4.7"/>
			
				<ellipse transform="matrix(0.9982 -5.962555e-02 5.962555e-02 0.9982 -3.576 15.0094)" class="st38" cx="249.7" cy="67.4" rx="1.3" ry="1.3"/>
		</g>
		<g class="st12">
			
				<radialGradient id="SVGID_39_" cx="473.2384" cy="-281.8468" r="4.6757" gradientTransform="matrix(-5.960000e-02 -0.9982 0.9982 -5.960000e-02 546.4975 530.5743)" gradientUnits="userSpaceOnUse">
				<stop  offset="0" style="stop-color:#64B05F"/>
				<stop  offset="0.1176" style="stop-color:#52914E"/>
				<stop  offset="0.3349" style="stop-color:#355E33"/>
				<stop  offset="0.5391" style="stop-color:#1E351D"/>
				<stop  offset="0.7242" style="stop-color:#0E180D"/>
				<stop  offset="0.8839" style="stop-color:#040603"/>
				<stop  offset="1" style="stop-color:#000000"/>
			</radialGradient>
			<circle class="st45" cx="237" cy="75" r="4.7"/>
			
				<ellipse transform="matrix(0.9982 -5.962797e-02 5.962797e-02 0.9982 -4.0477 14.284)" class="st38" cx="237.3" cy="75" rx="1.3" ry="1.3"/>
		</g>
		<g class="st12">
			
				<radialGradient id="SVGID_40_" cx="536.8361" cy="-546.7144" r="2.2332" gradientTransform="matrix(-5.960000e-02 -0.9982 0.9982 -5.960000e-02 546.4975 530.5743)" gradientUnits="userSpaceOnUse">
				<stop  offset="0" style="stop-color:#64B05F"/>
				<stop  offset="0.1176" style="stop-color:#52914E"/>
				<stop  offset="0.3349" style="stop-color:#355E33"/>
				<stop  offset="0.5391" style="stop-color:#1E351D"/>
				<stop  offset="0.7242" style="stop-color:#0E180D"/>
				<stop  offset="0.8839" style="stop-color:#040603"/>
				<stop  offset="1" style="stop-color:#000000"/>
			</radialGradient>
			<circle class="st46" cx="-31.2" cy="27.3" r="2.2"/>
			
				<ellipse transform="matrix(0.9982 -5.967475e-02 5.967475e-02 0.9982 -1.6832 -1.8046)" class="st38" cx="-31.1" cy="27.3" rx="0.6" ry="0.6"/>
		</g>
		<g class="st12">
			
				<radialGradient id="SVGID_41_" cx="493.5852" cy="-512.0012" r="2.2332" gradientTransform="matrix(-5.960000e-02 -0.9982 0.9982 -5.960000e-02 546.4975 530.5743)" gradientUnits="userSpaceOnUse">
				<stop  offset="0" style="stop-color:#64B05F"/>
				<stop  offset="0.1176" style="stop-color:#52914E"/>
				<stop  offset="0.3349" style="stop-color:#355E33"/>
				<stop  offset="0.5391" style="stop-color:#1E351D"/>
				<stop  offset="0.7242" style="stop-color:#0E180D"/>
				<stop  offset="0.8839" style="stop-color:#040603"/>
				<stop  offset="1" style="stop-color:#000000"/>
			</radialGradient>
			<circle class="st47" cx="6" cy="68.4" r="2.2"/>
			
				<ellipse transform="matrix(0.9982 -5.959418e-02 5.959418e-02 0.9982 -4.0642 0.4894)" class="st38" cx="6.2" cy="68.4" rx="0.6" ry="0.6"/>
		</g>
		<g class="st12">
			
				<radialGradient id="SVGID_42_" cx="499.2074" cy="-447.5072" r="1.1166" gradientTransform="matrix(-5.960000e-02 -0.9982 0.9982 -5.960000e-02 546.4975 530.5743)" gradientUnits="userSpaceOnUse">
				<stop  offset="0" style="stop-color:#64B05F"/>
				<stop  offset="0.1176" style="stop-color:#52914E"/>
				<stop  offset="0.3349" style="stop-color:#355E33"/>
				<stop  offset="0.5391" style="stop-color:#1E351D"/>
				<stop  offset="0.7242" style="stop-color:#0E180D"/>
				<stop  offset="0.8839" style="stop-color:#040603"/>
				<stop  offset="1" style="stop-color:#000000"/>
			</radialGradient>
			<circle class="st48" cx="70" cy="58.9" r="1.1"/>
			
				<ellipse transform="matrix(0.9982 -5.950880e-02 5.950880e-02 0.9982 -3.3827 4.2778)" class="st38" cx="70.1" cy="58.9" rx="0.3" ry="0.3"/>
		</g>
		<g class="st12">
			
				<radialGradient id="SVGID_43_" cx="488.5063" cy="-532.8244" r="1.1166" gradientTransform="matrix(-5.960000e-02 -0.9982 0.9982 -5.960000e-02 546.4975 530.5743)" gradientUnits="userSpaceOnUse">
				<stop  offset="0" style="stop-color:#64B05F"/>
				<stop  offset="0.1176" style="stop-color:#52914E"/>
				<stop  offset="0.3349" style="stop-color:#355E33"/>
				<stop  offset="0.5391" style="stop-color:#1E351D"/>
				<stop  offset="0.7242" style="stop-color:#0E180D"/>
				<stop  offset="0.8839" style="stop-color:#040603"/>
				<stop  offset="1" style="stop-color:#000000"/>
			</radialGradient>
			<circle class="st49" cx="-14.5" cy="74.7" r="1.1"/>
			
				<ellipse transform="matrix(0.9982 -5.966993e-02 5.966993e-02 0.9982 -4.4829 -0.7259)" class="st38" cx="-14.4" cy="74.7" rx="0.3" ry="0.3"/>
		</g>
		<g class="st12">
			
				<radialGradient id="SVGID_44_" cx="507.2618" cy="-499.6838" r="1.1166" gradientTransform="matrix(-5.960000e-02 -0.9982 0.9982 -5.960000e-02 546.4975 530.5743)" gradientUnits="userSpaceOnUse">
				<stop  offset="0" style="stop-color:#64B05F"/>
				<stop  offset="0.1176" style="stop-color:#52914E"/>
				<stop  offset="0.3349" style="stop-color:#355E33"/>
				<stop  offset="0.5391" style="stop-color:#1E351D"/>
				<stop  offset="0.7242" style="stop-color:#0E180D"/>
				<stop  offset="0.8839" style="stop-color:#040603"/>
				<stop  offset="1" style="stop-color:#000000"/>
			</radialGradient>
			<circle class="st50" cx="17.5" cy="54" r="1.1"/>
			
				<ellipse transform="matrix(0.9982 -5.951841e-02 5.951841e-02 0.9982 -3.1829 1.1413)" class="st38" cx="17.6" cy="54" rx="0.3" ry="0.3"/>
		</g>
		<g class="st12">
			
				<radialGradient id="SVGID_45_" cx="491.9803" cy="-266.6446" r="1.1166" gradientTransform="matrix(-5.960000e-02 -0.9982 0.9982 -5.960000e-02 546.4975 530.5743)" gradientUnits="userSpaceOnUse">
				<stop  offset="0" style="stop-color:#64B05F"/>
				<stop  offset="0.1176" style="stop-color:#52914E"/>
				<stop  offset="0.3349" style="stop-color:#355E33"/>
				<stop  offset="0.5391" style="stop-color:#1E351D"/>
				<stop  offset="0.7242" style="stop-color:#0E180D"/>
				<stop  offset="0.8839" style="stop-color:#040603"/>
				<stop  offset="1" style="stop-color:#000000"/>
			</radialGradient>
			<circle class="st51" cx="251" cy="55.4" r="1.1"/>
			
				<ellipse transform="matrix(0.9982 -5.966993e-02 5.966993e-02 0.9982 -2.8563 15.0816)" class="st38" cx="251.1" cy="55.4" rx="0.3" ry="0.3"/>
		</g>
		<g class="st12">
			
				<radialGradient id="SVGID_46_" cx="519.5386" cy="-256.8355" r="1.1166" gradientTransform="matrix(-5.960000e-02 -0.9982 0.9982 -5.960000e-02 546.4975 530.5743)" gradientUnits="userSpaceOnUse">
				<stop  offset="0" style="stop-color:#64B05F"/>
				<stop  offset="0.1176" style="stop-color:#52914E"/>
				<stop  offset="0.3349" style="stop-color:#355E33"/>
				<stop  offset="0.5391" style="stop-color:#1E351D"/>
				<stop  offset="0.7242" style="stop-color:#0E180D"/>
				<stop  offset="0.8839" style="stop-color:#040603"/>
				<stop  offset="1" style="stop-color:#000000"/>
			</radialGradient>
			<circle class="st52" cx="259.2" cy="27.3" r="1.1"/>
			
				<ellipse transform="matrix(0.9982 -5.966993e-02 5.966993e-02 0.9982 -1.1655 15.5178)" class="st38" cx="259.2" cy="27.3" rx="0.3" ry="0.3"/>
		</g>
		<g class="st12">
			
				<radialGradient id="SVGID_47_" cx="490.9767" cy="-516.1904" r="0.8324" gradientTransform="matrix(-5.960000e-02 -0.9982 0.9982 -5.960000e-02 546.4975 530.5743)" gradientUnits="userSpaceOnUse">
				<stop  offset="0" style="stop-color:#64B05F"/>
				<stop  offset="0.1176" style="stop-color:#52914E"/>
				<stop  offset="0.3349" style="stop-color:#355E33"/>
				<stop  offset="0.5391" style="stop-color:#1E351D"/>
				<stop  offset="0.7242" style="stop-color:#0E180D"/>
				<stop  offset="0.8839" style="stop-color:#040603"/>
				<stop  offset="1" style="stop-color:#000000"/>
			</radialGradient>
			<circle class="st53" cx="2" cy="71.2" r="0.8"/>
			
				<ellipse transform="matrix(0.9982 -5.965022e-02 5.965022e-02 0.9982 -4.246 0.2485)" class="st38" cx="2" cy="71.2" rx="0.2" ry="0.2"/>
		</g>
		<g class="st12">
			
				<radialGradient id="SVGID_48_" cx="542.0355" cy="-586.8856" r="1.7441" gradientTransform="matrix(-5.960000e-02 -0.9982 0.9982 -5.960000e-02 546.4975 530.5743)" gradientUnits="userSpaceOnUse">
				<stop  offset="0" style="stop-color:#64B05F"/>
				<stop  offset="0.1176" style="stop-color:#52914E"/>
				<stop  offset="0.3349" style="stop-color:#355E33"/>
				<stop  offset="0.5391" style="stop-color:#1E351D"/>
				<stop  offset="0.7242" style="stop-color:#0E180D"/>
				<stop  offset="0.8839" style="stop-color:#040603"/>
				<stop  offset="1" style="stop-color:#000000"/>
			</radialGradient>
			<circle class="st54" cx="-71.6" cy="24.5" r="1.7"/>
			
				<ellipse transform="matrix(0.9982 -5.963850e-02 5.963850e-02 0.9982 -1.5875 -4.2207)" class="st38" cx="-71.5" cy="24.5" rx="0.5" ry="0.5"/>
		</g>
		<g class="st12">
			
				<radialGradient id="SVGID_49_" cx="485.3254" cy="-495.3455" r="1.7441" gradientTransform="matrix(-5.960000e-02 -0.9982 0.9982 -5.960000e-02 546.4975 530.5743)" gradientUnits="userSpaceOnUse">
				<stop  offset="0" style="stop-color:#64B05F"/>
				<stop  offset="0.1176" style="stop-color:#52914E"/>
				<stop  offset="0.3349" style="stop-color:#355E33"/>
				<stop  offset="0.5391" style="stop-color:#1E351D"/>
				<stop  offset="0.7242" style="stop-color:#0E180D"/>
				<stop  offset="0.8839" style="stop-color:#040603"/>
				<stop  offset="1" style="stop-color:#000000"/>
			</radialGradient>
			<circle class="st55" cx="23.1" cy="75.6" r="1.7"/>
			
				<ellipse transform="matrix(0.9982 -5.963850e-02 5.963850e-02 0.9982 -4.4695 1.5214)" class="st38" cx="23.3" cy="75.6" rx="0.5" ry="0.5"/>
		</g>
	</g>
	
		<radialGradient id="SVGID_50_" cx="120.3049" cy="79.3979" r="113.5935" gradientTransform="matrix(0.993 7.430000e-02 -0.1184 0.6229 9.0582 -14.9576)" gradientUnits="userSpaceOnUse">
		<stop  offset="0" style="stop-color:#2C4E97"/>
		<stop  offset="8.362776e-02" style="stop-color:#264483"/>
		<stop  offset="0.299" style="stop-color:#192C54"/>
		<stop  offset="0.5048" style="stop-color:#0E1930"/>
		<stop  offset="0.6958" style="stop-color:#060B15"/>
		<stop  offset="0.8666" style="stop-color:#020306"/>
		<stop  offset="1" style="stop-color:#000000"/>
	</radialGradient>
	<path class="st56" d="M132.6-27.3C70.3-32,13.8-4.1,6.3,35c-7.4,39.1,37.1,74.5,99.3,79.2C168,118.9,224.5,91,231.9,51.9
		C239.3,12.8,194.9-22.7,132.6-27.3z M137.3,111.7c-6.1,0-6-9.4,0-9.4C143.3,102.3,143.3,111.7,137.3,111.7z"/>
</g>
</svg>
